<svg id="Layer_1" data-name="Layer 1" xmlns="http://www.w3.org/2000/svg" viewBox="0 0 126 210"><defs><style>.cls-1{fill:#4a4a4a;}.cls-2{fill:#b40160;}.cls-3{fill:#4c4b4c;}.cls-4{fill:#fe0082;}.cls-5{fill:#fc0082;}.cls-6{fill:#f90080;}.cls-7{fill:#fafafa;}.cls-8{fill:#4f4f4f;}.cls-9{fill:#5d5d5d;}</style></defs><title>Brush &amp;amp; Bucket_1.1-01</title><path class="cls-1" d="M96.85,138.11c2.1,1.21,1.76,3.06,1.51,5.06-1.34,11.07-2.69,22.15-3.81,33.25-.37,3.64-2.46,5.49-5.45,6.72a46,46,0,0,1-13.45,3.06c-13.66,1.26-27.27,1.5-40.77-1.61-6.27-1.44-9.5-4.4-10.21-11.62C22.3,149,19.08,125.21,16,101.37c-.74-5.67,1.83-8.72,6.54-10.71,9.37-4,19.32-4.84,29.33-5.37,1.57,2.64,0,4.1-2,5.36-6.35,2.21-13.26,1.64-19.6,3.92a46.71,46.71,0,0,0-4.89,1.63c-.86.42-1.78.92-1.9,2-.16,1.42,1,2,2.06,2.39A50,50,0,0,0,44,104.4c2.49,0,4.83,1.26,7.37.93,6.87-.13,13.77.54,20.6-.7a31,31,0,0,1,4.62-.32c5.6.17,10.91-1.26,16.13-3.07,1.56-.54,3.77-.91,3.65-3S94,96.08,92.47,95.37c-3.1-1.47-6.73-1.29-9.69-3.18-.87-2.42-.36-4.2,2.33-4.94a5.48,5.48,0,0,1,1.14.15c16.66,3.47,18.06,5.21,16.28,21.85q-.68,6.44-1.66,12.82c-.31,2.13-.63,4.27-.94,6.4a37,37,0,0,1-.57,4.7,1.39,1.39,0,0,1-.5.87,1.46,1.46,0,0,1-.87.16,4.15,4.15,0,0,1-2.14-.39A2.84,2.84,0,0,1,94.58,132c-1.73-6.4,1.09-13.69,1.18-20.17,0-3.7-2.8-2.44-5.47-1.71-5.93,1.63-12.07,1.61-18,2.79a137.81,137.81,0,0,1-43-2.82c-5.59-1.33-5.65-1.28-5,4.29,2.1,18.15,4.49,36.26,6.47,54.43.9,8.2,2,8.87,10.25,10.54a85.67,85.67,0,0,0,17,1.19c8.38,0,16.32-.09,24.52-2a9.52,9.52,0,0,0,3.74-1.45,7.49,7.49,0,0,0,2.47-4.75c1.64-9.3,2.09-18.82,3.45-28.17C92.42,141.51,91.88,137.39,96.85,138.11Z"/><path class="cls-2" d="M50.49,106.68a28,28,0,0,1-5-.49,4,4,0,0,1-1.33-.3c-1.72-.81-.52-3.11-.13-4.37a40.67,40.67,0,0,1,1.47-3.85c3.69-8.39,8.63-16.24,12-24.76,2.35-5.83,5.09-11.16,11.6-13.26,2-.65,2.17-2.54,2.77-4.07,3.12-8,6.17-16,9.25-24,2-1.08,3.4-.31,4.56,1.36.93,3.49-1.12,6.31-2.22,9.32-1.74,4.77-3.92,9.41-4.72,14.5,5-7.63,6.59-16.72,10.91-24.63,1.92-1.79,4-3.13,6.77-2.08-3.69,9.68-7.34,19.38-11.08,29-.94,2.43-1.26,4.35.59,6.79,4.18,5.55,2.14,11.22.28,17.17L81.4,98.31c-.68,2.15-1,4.52-2.73,6.08A6.86,6.86,0,0,1,73.36,106a2,2,0,0,1-.87-.21,1.61,1.61,0,0,1-.68-1.12c-.36-1.83.82-3.76,1.49-5.39.85-2,1.67-4.11,2.47-6.16,1.57-4.06,3.09-8.14,4.65-12.21a24.62,24.62,0,0,0,1.76-6,8.1,8.1,0,0,0-1.41-5.92c-1.65-2.07-4.45-2.81-7.06-3.21-.69-.11-1.55-.12-1.87.49s.07,1.2.38,1.75a8.9,8.9,0,0,1,.9,6.84,7.3,7.3,0,0,1-4.73,4.9c-2.14.63-4.58.17-6.52,1.26s-2.75,3.19-3.53,5.17Q55.19,94.21,51.47,102A11.82,11.82,0,0,0,50.49,106.68Z"/><path class="cls-3" d="M85.3,33l-4.12-1.44c-6.52-3.17-7.38-5.83-4.46-13.93,2.61-7.29,6.22-10.58,10.13-9.25C98,12.18,101.17,17.05,98.17,25.78c-.5,1.45-1.12,2.85-1.69,4.27l-6.59,3A3.4,3.4,0,0,1,85.3,33Z"/><path class="cls-4" d="M50.54,106.76c-2.14-1.15-1.39-2.63-.66-4.31,3.06-7,6-14.12,9-21.15.65-1.5,1.15-3.76,3.5-2.9,4.1,1.49,7.15.54,9.22-3.26,2.22-4.08-.37-6.79-3.25-9.69,4.3-2.76,8.5-2.13,11.79.63s4.92,6.74,3.13,11.39c-3.65,9.47-7.15,19-10.71,28.49C65.31,107.85,57.91,106.79,50.54,106.76Z"/><path class="cls-5" d="M85.3,33h4.59C88,41.48,84,49.18,81.16,57.29c-.56,1.6-1.68,2.76-3.52,2.08-2.68-1-1.08-2.77-.54-4.26Q81.18,44.06,85.3,33Z"/><path class="cls-6" d="M67.57,72.32a1.91,1.91,0,0,1-1.93,1.91l-.35,0a1.81,1.81,0,0,1-1.66-2v0a1.9,1.9,0,0,1,1.84-2,1.49,1.49,0,0,1,.42,0A1.93,1.93,0,0,1,67.57,72.32Z"/><path class="cls-7" d="M81.72,17.85c.78-2,2.13-5.76,4.88-4.39,3.25.84,6.93,1.72,7.79,5.81a7.29,7.29,0,0,1-3.27,8c-2.15,1.46-7.31,1.67-5.68-2.22.83-2,3.81-4.67,1-6.47a1.87,1.87,0,0,0-2.61.35l0,.05c-.58.62-1.38,2.12-2.39.92-.34-.41-.15-1,0-1.5A3.06,3.06,0,0,0,81.72,17.85Z"/><path class="cls-8" d="M42.86,119.94a45.66,45.66,0,0,1-13-2.4c-1.63-.52-3-1.26-2.61-3.13.45-2.08,2.26-1.91,3.73-1.39,5.14,1.81,10.48,2.22,15.86,2.51,1.83.1,4.56-.09,4.44,2.46-.14,3.07-3,2.16-5,2.15C45.35,120.11,44.39,120,42.86,119.94Z"/><path class="cls-9" d="M57.27,115.44c1.73,0,3.28.69,3.2,2.46-.11,2.2-2.22,2.29-3.9,2.46s-3.32-.61-3.2-2.39C53.5,115.87,55.54,115.66,57.27,115.44Z"/></svg>