<svg id="Layer_1" data-name="Layer 1" xmlns="http://www.w3.org/2000/svg" viewBox="0 0 292.38 194.06"><defs><style>.cls-1{fill:#dbdada;}.cls-2{fill:#4b4b4b;}.cls-3{fill:#b42063;}.cls-4{fill:#fff;}.cls-5{fill:#ececec;}.cls-6{fill:#ed2183;}.cls-7{fill:#dcdbdb;}.cls-8{fill:#dcdbda;}.cls-9{fill:#4c4c4c;}.cls-10{fill:#ebebeb;}.cls-11{fill:#e9e9ea;}</style></defs><title>Double Sided Home</title><path class="cls-1" d="M140.39,65.83c18.82,0,37.66-.51,56.45.17,7.78.28,13.46-2.25,18.34-7.52,3.13-3.37,5.38-3.09,8.66,0,12.53,11.87,25.33,23.46,38,35.16.86.79,1.66,1.64,2.47,2.48s1.3,1.61.47,2.62c-1,1.22-2,.68-3-.13s-1.92-3-3.49-2.2-.79,3-.8,4.59c0,18.48.08,37-.12,55.46,0,4,.9,5.9,5.22,5.37,1.65-.2,4.32-.65,4.33,1.92s-2.59,2-4.3,2q-62.2,0-124.41-.11c-1.48-1.19-1.88-2.43.16-3.34a25.87,25.87,0,0,1,4.65-1.71c8.79-.73,17.59-.16,26.38-.34,1.49,0,3,0,4.48,0,2.2-.08,3.94-.62,3.89-3.37s-1.66-3.42-3.9-3.47c-7.14-.17-14.28.07-21.41-.11-3.75-.1-7.67.89-11.2-1.29a3.69,3.69,0,0,1,.05-4.45c2-1.49,4.43-1.27,6.74-1.29,7.66-.06,15.32,0,23,0,6.56,0,6.8-.28,6.84-6.67.1-12.33-.15-24.65.12-37,.22-2.3-.57-3.26-3.09-4-7-2-14.07-1.07-21.11-1.42-4.21-.21-8.58,1-12.6-1.24a3.81,3.81,0,0,1-.14-4.15c1.92-1.77,4.34-1.4,6.62-1.42,7.81-.07,15.61-.06,23.41,0,3.47,0,6.6-.74,9.17-3.15C185.86,82,191.72,77.13,197.47,72c-1.61-1.31-3.32-.71-4.87-.72-14.61,0-29.22,0-43.83,0-2.31,0-4.67.24-6.88-.74A3.88,3.88,0,0,1,140.39,65.83Z"/><path class="cls-2" d="M141.64,161.75c-.49,1-1,2.17-2.38,1.89-3.11-.64-1,1.19-1,2q-61.46.06-122.91.11c-1.61,0-3.75.35-3.66-2.13.08-2.07,2-2.06,3.46-1.8,4.1.73,4.46-1.36,4.43-4.74-.18-20.49-.16-41-.2-61.45.53-2.76,1.44-4.93,4.89-3.13,1.06,2.55.43,5.26.76,7.88.06,17.64,0,35.28,0,52.92,0,6.54.35,6.84,6.66,6.9,2.66,0,5.33,0,8,0,5.66-.11,6.13-.57,6.2-6.41.09-6.32-.12-12.65.09-19s2.23-8.33,8.49-8.56a105.84,105.84,0,0,1,11,0c5.12.34,7.17,2.31,7.45,7.5.35,6.81,0,13.64.15,20.46.11,5.24.65,5.91,5.69,5.9,15,0,13,1.66,13.15-12.88.12-16,0-31.94,0-47.92.32-2.41-.33-5,1-7.23,4-1.34,4.52,1.88,5.67,4.29.78,13.09.15,26.2.35,39.3,0,1.82.08,3.65,0,5.47-.13,3.56,1.44,5.26,5,5,1.16-.08,2.32.06,3.48.08,7.64-.22,15.28-.18,22.91,0,4.12.08,5.52-1.55,5.51-5.57-.06-12.78-.22-25.57.06-38.34,0-2.13-.12-4.26,0-6.39-.08-1.51,0-3,0-4.53-.13-6.94-.17-13.88,0-20.83.16-1.84.33-3.67,2.3-4.6l2-.18c1.12,1.1,1.07,2.57,1.26,4a36.75,36.75,0,0,1,0,22v4c1.57,1.94,1.25,4.24,1.28,6.48.31,13.44.11,26.87.11,40.31,0,1.83-.11,3.66-1.39,5.17v4.06A9.46,9.46,0,0,1,141.64,161.75Z"/><path class="cls-3" d="M138.38,66l-1,3.84c-2.12,1.81-4.71,1.34-7.15,1.34-16.43,0-32.85,0-50.18,0,6.78,6.45,12.91,12.35,19.58,17.68,1.94,1.54,4.36,1.42,6.69,1.43,8.3,0,16.6,0,24.9,0,2.13,0,4.37-.26,6.16,1.35,0,1.36,0,2.72,0,4.08-1.77,1.65-4,1.41-6.14,1.41-7.81,0-15.62.06-23.43,0-1,0-2.07-.69-2.28,1.51-.17,1.89-2.35,1.89-4.07,1s-2.65-2.47-3.77-3.91a10.36,10.36,0,0,0-4.07-4.05c-2.15-.16-3.68-1.5-5.07-2.9C80.29,80.63,71,73.56,62.91,65.26c-2.95-3-5-2.62-7.89.08-9.14,8.66-19,16.57-28.17,25.17-.94.87-1.88,2-3.45,1.45a11.78,11.78,0,0,0-4,3.68c-.57.34-1.15.64-1.68,1-1.15.83-2.31,1.59-3.42,0s.16-2.46,1.1-3.33c4.64-4.3,9.29-8.59,14-12.82,8.56-7.67,17.25-15.19,25.69-23,2.79-2.59,5.13-3,7.43,0,5.61,7.46,13.12,8.61,22,8.36C102.39,65.45,120.39,65.93,138.38,66Z"/><path class="cls-4" d="M253.47,99.79c0,19-.09,38,.1,57,0,3.92-1,5.39-5,5.07a93,93,0,0,0-12.49,0c-3.4.2-4.73-.85-4.62-4.45.23-7.83-.06-15.67.12-23.5.1-4.56-1.85-6.36-6.3-6.14-3.82.18-7.67.18-11.49,0-4.44-.22-6.42,1.56-6.31,6.13.18,7.83-.12,15.67.12,23.5.11,3.59-1.19,4.63-4.61,4.47-5-.24-10-.25-15,0-3.52.18-4.56-1.07-4.53-4.55.15-19.16.09-38.33.1-57.49,7.24-8,15.94-14.45,23.95-21.63,2.94-2.64,5.63-5.62,9-7.81,2.59-1.69,4.85-1.78,7.16.43C232.26,79,241.06,87.07,249.94,95A17.91,17.91,0,0,1,253.47,99.79Z"/><path class="cls-5" d="M141.65,91.76v-22h60.27c-4.93,4.45-9,8.14-13.08,11.79-.49.44-1.3.59-1.64,1.09-6.31,9.32-15.62,9.86-25.6,9.19C155,91.42,148.31,91.77,141.65,91.76Z"/><path class="cls-4" d="M141.65,147.75v-46c1.4-1.45,3.24-1.53,5.06-1.55q13.83-.15,27.68,0c1.83,0,3.64.22,5.07,1.57,0,13.64-.1,27.29.11,40.93.05,3.82-.87,5.25-5,5.14C163.62,147.58,152.63,147.76,141.65,147.75Z"/><path class="cls-5" d="M253.47,99.79c-9.79-9-19.78-17.72-29.25-27-3.35-3.29-5.71-3.08-8.75-.38C209,78.14,202.72,84,196.11,89.55,192,93,188.54,97.41,183.52,99.8c-1-6.13,1.83-9.88,6.64-13.64,9.34-7.33,18-15.52,26.84-23.49,1.88-1.69,3-1.85,4.91-.05,8.65,8.18,17.33,16.35,26.26,24.22C252.24,90.42,254.41,94.36,253.47,99.79Z"/><path class="cls-4" d="M141.64,161.75v-9.94c11.14,0,22.29.16,33.42-.13,4.15-.1,4.5,1.79,4.51,5.1s-.39,5.19-4.52,5.09C163.92,161.59,152.78,161.76,141.64,161.75Z"/><path class="cls-4" d="M93.32,98.77c.06,19.83.08,39.65.21,59.47,0,2.34-.62,3.26-3.08,3.19-5.33-.15-10.67-.16-16,0-2.56.08-3-1-3-3.26.1-8-.11-16,.09-24,.12-4.77-1.87-6.69-6.56-6.44-3.82.2-7.66.15-11.49,0-4.22-.15-6.1,1.66-6,5.93.13,7.83-.09,15.67.1,23.49.08,3.11-.55,4.48-4,4.3-5.48-.3-11-.16-16.49-.05-2.36.05-3.62-.29-3.59-3.18.17-19.49.17-39,.22-58.47,2.45-5.45,7.83-8,11.86-11.92C41.62,82,48.16,76.57,54.36,70.77c2.49-2.33,5.18-3.34,7.93-.76C72.58,79.65,83.93,88.16,93.32,98.77Z"/><path class="cls-6" d="M137.34,91.71q-16.94,0-33.87.05c-1.3,0-2.77.41-3.85-.56C92,84.39,84.51,77.52,76.06,69.85h61.28Z"/><path class="cls-4" d="M137.32,101.79c.06,14.31.06,28.63.22,42.94,0,2.39-.67,3.14-3.08,3.1-9-.18-18-.16-27-.22-2.21-3.22-1.84-6.54-.39-9.91,3.8-2.46,8-1.16,12.1-1.39,5.78-.33,6.66-1,6.75-6.69.1-6.12.14-12.25,0-18.37-.12-4.84-1-5.69-5.92-5.94-2.48-.12-5,0-7.45-.08-1.94-.1-4,.15-5.42-1.75-.24-2,1.17-2.79,2.68-2.89a143.89,143.89,0,0,1,25.84.14A3,3,0,0,1,137.32,101.79Z"/><path class="cls-5" d="M137.32,101.79c-8.59,0-17.19,0-25.79,0-1.7,0-3.9-.58-3.94,2.34a180.48,180.48,0,0,0,0,33.28c0,3.4-.07,6.79-.1,10.19-10,.53-10,.53-10-9.38q.06-21.21.15-42.44c1.83.24,2.72,1.82,4,2.83s3,1.49,3.26-.08c.59-4,3.34-2.7,5.45-2.72,9-.09,18,0,27,0Q137.33,98.79,137.32,101.79Z"/><path class="cls-5" d="M93.32,98.77C87.71,96,84.25,90.66,79.38,86.94c-5.5-4.2-10.26-9.35-15.32-14.1-4.88-4.58-5.34-4.43-10.09-.11-10,9.11-20.2,18-30.32,27-.08-2.61-.16-5.21-.25-7.82,10.82-9.59,21.7-19.11,32.4-28.83,2.48-2.26,4-2.3,6.49.05,10.3,9.65,20.83,19.07,31.28,28.57C93.49,94.08,93.41,96.43,93.32,98.77Z"/><path class="cls-4" d="M106.61,152.17A3.36,3.36,0,0,1,108,152l24.64-.17c4.77,0,4.39,4,4,7.83a2.59,2.59,0,0,1-.65,1.69,2.76,2.76,0,0,1-1.88.46l-26.2-.18a2.75,2.75,0,0,1-1.27-.21,2.34,2.34,0,0,1-.94-1.29,9.22,9.22,0,0,1,0-6.66,2.34,2.34,0,0,1,.79-1.15A1.18,1.18,0,0,1,106.61,152.17Z"/><path class="cls-7" d="M219.66,81.78c7.45.13,14,7,13.82,14.29s-7.1,14-14.41,13.7-13.61-6.84-13.57-14C205.53,88.31,212.29,81.66,219.66,81.78Z"/><path class="cls-8" d="M173.78,120.59c0,4,0,8,0,11.95,0,3.48-1.55,5.26-5.09,5.24-3.82,0-7.64-.07-11.46,0s-5.5-1.59-5.47-5.37c.06-7.8,0-15.61,0-23.41,0-3.48,1.56-5.26,5.1-5.24,3.82,0,7.64.07,11.45,0s5.55,1.59,5.48,5.37S173.78,116.77,173.78,120.59Z"/><path class="cls-9" d="M73.48,95.58A14,14,0,1,1,59.3,81.78,14.26,14.26,0,0,1,73.48,95.58Z"/><path class="cls-2" d="M107.6,137.42a6.26,6.26,0,0,1-2.14-5.26q.12-11.39,0-22.76a6.27,6.27,0,0,1,2.13-5.26c5-.12,9.92-.28,14.88-.35,3.2-.05,5,1.56,5,4.82q.06,12.17,0,24.33c0,3.26-1.8,4.87-5,4.82C117.51,137.69,112.55,137.54,107.6,137.42Z"/><path class="cls-10" d="M217.49,96.17a14.54,14.54,0,0,1,0,2.47c-.35,2,1.26,5-1.27,5.74s-3.92-2.11-5.21-3.88c-3.06-4.16-1-11,3.65-13.17,2-.92,2.79,0,2.82,1.89,0,2.32,0,4.63,0,7Z"/><path class="cls-10" d="M221.49,95.65a26.76,26.76,0,0,1,0-3.47c.22-1.7-1-4.09,1-5,2.29-1,3.45,1.5,4.67,2.87a9,9,0,0,1-2.64,14c-1.78,1-2.92.63-3-1.48-.12-2.31,0-4.63,0-6.95Z"/><path class="cls-11" d="M57.16,105.43c-5.09-1.65-7.6-4.9-7.6-9.68s2.55-8,7.6-9.64Z"/><path class="cls-11" d="M61.69,105.08V86.78a8.46,8.46,0,0,1,7.78,8.31C69.8,100,67.11,103.5,61.69,105.08Z"/><rect class="cls-5" x="97.53" y="151.96" width="9.61" height="9.58"/><rect class="cls-5" x="141.66" y="95.06" width="37.77" height="6.35"/><rect class="cls-5" x="211.23" y="130.78" width="17.28" height="30.96"/><rect class="cls-5" x="50.43" y="131.02" width="17.28" height="30.96"/><rect class="cls-5" x="121.82" y="113.7" width="3.08" height="10.56"/><rect class="cls-5" x="110.35" y="122.66" width="14.52" height="10.56"/><rect class="cls-5" x="110.38" y="107.74" width="14.52" height="10.56"/><rect class="cls-5" x="155.13" y="106.06" width="15.3" height="18.72"/><rect class="cls-5" x="155.13" y="128.86" width="15.3" height="6.36"/></svg>