<svg id="Layer_1" data-name="Layer 1" xmlns="http://www.w3.org/2000/svg" viewBox="0 0 144.56 133.41"><defs><style>.cls-1{fill:#4c4b4c;}.cls-2{fill:#fff;}.cls-3{fill:#fefdfd;}.cls-4{fill:#fefefe;}.cls-5{fill:#504f4f;}.cls-6{fill:#535252;}.cls-7{fill:#4f4e4e;}.cls-8{fill:#4e4e4e;}.cls-9{fill:#e9e8e8;}.cls-10{fill:#ebe9e9;}.cls-11{fill:#231f20;}</style></defs><title>Edited</title><path class="cls-1" d="M77.86,128.4c-19.27-.08-35.78-14.67-38.93-34.32C37.63,86,35.86,77.9,35,69.74c-.45-4.15-2.4-5.35-5.91-6.34-5.27-1.48-12.56-2.11-12.58-9.12s7.27-7.94,12.58-9,7.85-3.62,9.5-8.59c2.75-8.26,6.46-16.18,12.11-23,6.52-7.81,12.34-9,20.94-3.51,4.69,3,8.22,3.76,13.1,0,6.64-5.09,12.08-4,17.88,2.59,6.3,7.14,10.43,15.64,13.86,24.4,1.69,4.33,4.07,6.74,8.74,7.75,5.63,1.22,13.17,2.3,13.2,9.38,0,6.69-7.3,7.75-12.7,9-4,.94-5.07,2.9-5.21,6.82-.27,7.51-1,15-2,22.49A40.83,40.83,0,0,1,77.86,128.4Z"/><path class="cls-2" d="M132.18,54.2c-17.21,11.07-93.31,11-109.45-.06,2.09-2.16,4.93-2.67,7.62-3.34,1.35-.34,3.52-1.27,3.18,1.85-.25,2.25.83,3.79,3.16,3.57s2.7-2.53,3.08-4.26a100,100,0,0,1,8.71-23.71,69.3,69.3,0,0,1,5.33-9.09c5.4-7.53,8.83-8.1,16.41-3.05C74.13,18.71,78,21.37,81.9,24c1.18.79,2.42,1.64,3.84.58s1.78-2.55.82-3.7c-1.63-2-3-3.36.18-5.22,2.91-1.67,5.72-3.94,8.92-1.27a34.4,34.4,0,0,1,6,6.8,44,44,0,0,1,5.17,9.18c4.23,11.09,8.88,21.51,23.08,22.2C130.71,52.6,131.4,53.61,132.18,54.2Z"/><path class="cls-3" d="M46.1,66.64c20.67,1.86,42.45,2.26,64.21-.38,3.54-.43,5.19.19,4.61,4.31-.85,6-1.43,12.12-1.7,18.21-.37,8.59-3.26,9.78-12.73,9.39A34.06,34.06,0,0,1,84,92.61c-3.66-2.31-6.72-2.1-10.39-.3a56.17,56.17,0,0,1-20.84,5.8c-4.88.33-7.91-1.06-8.45-6.68A160.57,160.57,0,0,0,41,70.63C40,66.32,41.37,65.62,46.1,66.64Z"/><path class="cls-4" d="M49.34,104.36a71.5,71.5,0,0,0,25.75-6.31c2.25-1,4.29-1.34,6.64,0a48.71,48.71,0,0,0,25.61,6.36c-3.3,9.9-14.85,17.54-27.35,18.28A31,31,0,0,1,49.34,104.36Z"/><path class="cls-5" d="M89.2,56.49q-1.58.09-3.15.09c-2.16,0-4.77.28-4.87-2.54-.11-3.34,3.85-3.22,6.21-3.22A58.39,58.39,0,0,0,101.8,49c2.35-.59,6.58-2,7.72,1.15.88,2.44-.79,3.51-2.75,4a81.36,81.36,0,0,1-12.2,2C92.78,56.24,91,56.4,89.2,56.49Z"/><path class="cls-6" d="M68.84,56.39c-2.22-.37-5.75,1.08-6.09-2.66-.18-1.93.69-3.08,2.62-3.18a41.18,41.18,0,0,1,7.11,0,2.72,2.72,0,0,1,2.46,2.94C75,57.07,71.38,56.21,68.84,56.39Z"/><path class="cls-7" d="M112.06,75.76c0,6.49-4.93,12.41-11.7,13.93-6.06,1.36-13.07-2.26-15.65-8-1.56-3.46-1.13-5.85,3-6.79,6.14-1.42,12.26-2.91,18.39-4.36C110.44,69.55,112.18,71.57,112.06,75.76Z"/><path class="cls-8" d="M59.84,90.31c-6.41-.19-10.9-2.84-13.59-8-1.75-3.38-3-7.34-.55-10.72,2.6-3.56,6-.61,8.93.11,4.55,1.12,9,2.63,13.54,3.74,5.33,1.28,5.58,4.22,3,8.21A14.67,14.67,0,0,1,59.84,90.31Z"/><path class="cls-9" d="M90.81,80.51c5.29-1.57,9.53-3.32,14.37-3C102.14,85.17,98.32,86.09,90.81,80.51Z"/><path class="cls-10" d="M50.46,76.43l15.09,4.33C58.76,86.56,54.72,85.63,50.46,76.43Z"/><path class="cls-11" d="M125.24,45c-4.67-1-7-3.42-8.75-7.75-3.43-8.76-7.55-17.26-13.86-24.4-5.8-6.57-11.23-7.68-17.88-2.59-4.88,3.73-8.41,2.95-13.1,0-8.59-5.46-14.41-4.3-20.94,3.52-5.64,6.77-9.36,14.68-12.1,22.94-1.65,5-4.22,7.55-9.5,8.59s-12.6,1.93-12.58,9,7.31,7.64,12.58,9.12a11.62,11.62,0,0,1,3.34,1.39,47.89,47.89,0,0,1,9,1.62h.38c.87-.34,2.28-.22,4.31.21,20.67,1.87,42.44,2.27,64.2-.37a12.14,12.14,0,0,1,2-.1,46.38,46.38,0,0,1,9.49-1h.32a7.11,7.11,0,0,1,3.59-1.76c5.4-1.27,12.73-2.33,12.7-9C138.41,47.28,130.86,46.2,125.24,45ZM22.76,54.12c2.09-2.16,4.92-2.67,7.62-3.35,1.35-.33,3.52-1.27,3.18,1.85-.25,2.26.83,3.8,3.16,3.57s2.7-2.52,3.08-4.25a99.38,99.38,0,0,1,8.71-23.71,70.07,70.07,0,0,1,5.33-9.1c5.4-7.53,8.82-8.09,16.41-3,3.9,2.6,7.77,5.26,11.67,7.87,1.18.79,2.42,1.65,3.85.59s1.78-2.55.82-3.7c-1.63-2-3.06-3.37.18-5.22,2.9-1.67,5.72-3.94,8.92-1.27a34.4,34.4,0,0,1,6,6.8,44.47,44.47,0,0,1,5.17,9.18c4.23,11.09,8.87,21.51,23.08,22.2.74,0,1.44,1,2.22,1.64C115,65.24,38.9,65.14,22.76,54.12Z"/></svg>