<svg id="Layer_1" data-name="Layer 1" xmlns="http://www.w3.org/2000/svg" viewBox="0 0 272.72 232.77"><defs><style>.cls-1{fill:#ececec;}.cls-2{fill:#4c4b4c;}.cls-3{fill:#b42063;}.cls-4{fill:#b52164;}.cls-5{fill:#4d4c4c;}.cls-6{fill:#4c4c4c;}.cls-7{fill:#b52264;}.cls-8{fill:#4d4c4d;}.cls-9{fill:#4d4d4d;}.cls-10{fill:#b52464;}.cls-11{fill:#535051;}.cls-12{fill:#514f50;}.cls-13{fill:#575556;}.cls-14{fill:#565556;}.cls-15{fill:#ed2183;}.cls-16{fill:#ebebeb;}.cls-17{fill:#eaeaeb;}.cls-18{fill:#ec2082;}.cls-19{fill:#ec1f81;}.cls-20{fill:#eae9ea;}.cls-21{fill:#ed1c80;}.cls-22{fill:#ec2081;}.cls-23{fill:#e81d7f;}.cls-24{fill:#fcfcfc;}.cls-25{fill:#f7f6f6;}.cls-26{fill:#f9f9f9;}.cls-27{fill:#d3d0d0;}</style></defs><title>Four Brushes &amp;amp; bucket</title><path class="cls-1" d="M131.91,200.39c.27-.18.51-.49.81-.54,7.43-1.35,7.94-1.91,8.19-9.76.36-11.55.73-23.1,1-34.66.07-3.15,1.27-6.1,1.12-9.31-.11-2.53-1-3.67-3.41-3.74.74-2.31,2.79-1.92,4.49-2,2.43-.2,4.9-.12,7.76-1.46-3.27-.75-6.49,1-8.93-1.32.14-1.69-.35-2.92-2.26-3.13.72-2.32,2.77-2.17,4.52-2.23a88.41,88.41,0,0,0,24.48-4.51c5.42-1.77,6.63-.72,5.84,5.12C172.9,152,169.65,171,167,190.14c-.66,4.63-3.18,7.45-7.79,8.63a118.18,118.18,0,0,1-20.72,3.16C136.2,202.1,133.72,202.45,131.91,200.39Z"/><path class="cls-2" d="M131.9,200.05a137.71,137.71,0,0,0,26.47-3,10,10,0,0,0,4.76-2c1.71-1.56,2.15-4,2.5-6.33L175,126.93a150.56,150.56,0,0,1-92,0l7.27,47.7c.26,1.71,0,4.14-1.77,4.21-1.51.05-2.18-1.84-2.39-3.33l-7.8-54.12c-.18-1.28-.65-3.77,1.23-3.9,1.47-.1,2.86,1.28,3.82,2.23,4.46,4.38,11,5.82,17.18,6.76a189.9,189.9,0,0,0,22.08,2,199.52,199.52,0,0,0,22-.58c4.47-.35,8.93-.9,13.36-1.59,6.24-1,12.84-2.48,17.24-7,1.13-1.15,2.82-2.59,4.08-1.59.83.64.76,1.9.6,2.94l-10.62,70.94c-.31,2.09-.7,4.33-2.2,5.81a9.57,9.57,0,0,1-4.24,2.06A124,124,0,0,1,96.5,200a11.49,11.49,0,0,1-3.87-1.6,9.8,9.8,0,0,1-3-4.06,25.41,25.41,0,0,1-2.23-9.23,3.2,3.2,0,0,1,.34-1.91c.71-1.1,2.51-1,3.41,0a4.92,4.92,0,0,1,1,3.68,19.79,19.79,0,0,0-.11,3.92,7.52,7.52,0,0,0,4,5.12,20.37,20.37,0,0,0,6.44,1.89A157.53,157.53,0,0,0,131.9,200.05Z"/><path class="cls-3" d="M119,130.41a9.44,9.44,0,0,1-5.08-.82c-2.89-5.76-1.07-11.89-1.41-17.86a7.71,7.71,0,0,1,1.27-4.57c.12-6.78-.49-13.72,5.73-18.72.71-.57.41-2.51.41-3.81,0-7.31,0-14.61,0-21.91,1.2-1.32,2.58-1.22,4-.51,2.15,2.77,1.24,6,1.38,9.12.17,3.8-.09,7.6.59,11.4.73-6.75.52-13.52.48-20.29a9.09,9.09,0,0,1,5.39-6.93c0,9.44.06,18.88.15,28.33,0,1.41-.67,3.21.93,4.11,7,3.91,7.39,10.41,7.07,17.26a12.3,12.3,0,0,0,.12,1.48c1.17,1.24,1.18,2.8,1.25,4.35.24,4.65.12,9.3.08,14,0,1.81,0,3.69-1.4,5.14l-4.2.22c-1.59-1.82-1.21-4.06-1.23-6.17-.09-7.79.2-15.59-.12-23.37-.28-7-4.78-9.87-10.92-7.38-.33,1.27.88,1.64,1.44,2.38,3.12,4.16,2.63,8.23-2,10.89-2.9,1.69-3.7,3.77-3.75,6.85C119.17,119.18,119.84,124.81,119,130.41Z"/><path class="cls-4" d="M81.87,119.67a2.7,2.7,0,0,0-3.78-.22C77,112.73,75.79,106,74.73,99.28c-.72-4.55.27-8.74,3.88-11.77,2-1.65,1.64-3.38,1.35-5.36q-2-13.8-4.06-27.61c3.1.5,4.5,2.92,6,5.27,1.28,7,1.69,14.24,4.07,21.08-.06-5.59-1.26-11-2-16.53-.22-1.75-1.18-3.52.14-5.24,1.65-.83,3.21-.91,4.64.45C89.87,67.13,91,74.7,92.13,82.25c.17,1.09.55,2.61,1.33,3.07,5.92,3.48,7.08,9.22,7.81,15.31A78.26,78.26,0,0,0,103,108.4a9,9,0,0,1,2,4.32c.25,5.54,3.25,10.8,1.75,16.53l-4.89-.78c-2.9-5.79-2.84-12.25-4.13-18.39-.69-3.33-1.5-5.69-5.26-6.9-4.52-1.46-5.6-5.3-3.73-10.23.34-.88,1.39-1.72.57-2.7s-2.13-.68-3.26-.45c-4.21.84-6.78,4.65-6.06,9.43.77,5.1,1.82,10.16,2.55,15.27C82.8,116.27,83.49,118.13,81.87,119.67Z"/><path class="cls-5" d="M150.89,95.67c-9.41-2.42-9.48-2.43-7.92-11.94,1.18-7.2,2.71-14.34,3.78-21.55.45-3.06,1.75-4,4.63-3.41,3.25.68,6.54,1.14,9.77,1.87,4.23,1,7.18,3.68,6.61,8-1.1,8.32-1.65,16.8-4.87,24.73C160,97.4,156.68,98,150.89,95.67Z"/><path class="cls-6" d="M179.08,86.82c-10.4-3.59-9.68-1.48-6.22-12.28,2.27-7.09,4.76-14.11,6.85-21.24.89-3,2.41-3.58,5.11-2.65,3.12,1.09,6.33,1.94,9.4,3.13,4.24,1.65,6.7,5,5.39,9.37-2.27,7.56-4.07,15.31-7.6,22.46-1.38,1.68-2.67,3.5-5.07,3.85a7.09,7.09,0,0,1-2.9-.12C182.29,88.71,180.17,88.78,179.08,86.82Z"/><path class="cls-7" d="M150.89,95.67c4.09-.28,8.51,1.19,12-2.28q-1.47,8-2.92,15.91a12.7,12.7,0,0,1-.06,4.6c-1.83,4.77-.92,10.41-4.61,14.59l-4.55.8c-1.16-2.86.19-5.53.69-8.25,1.31-7.14,3.54-14.1,4.13-21.41-1.61,5.73-3.06,11.49-4.52,17.26-1.08,4.26-.74,9-4.06,12.57-1.27.21-2.55.47-3.51-.74-1.57-3.88.48-7.43,1-11.11.29-2,.84-3.87,1.22-5.82a10,10,0,0,1,2.08-4.43C149.72,103.7,149.47,99.46,150.89,95.67Z"/><path class="cls-8" d="M81,59.3a17.38,17.38,0,0,1-5.09-4.76c-2.73-9.9,3.45-17.19,13.42-15.85,1.72.23,2.5,1.5,3.25,2.79,2.56,4.37,2.84,9.11,2.16,14-.49,3.5-3.45,3.51-6,4.11l-4.91.15A1.86,1.86,0,0,1,81,59.3Z"/><path class="cls-5" d="M131.79,55.51c-1.36,2.22-2.5,4.63-4.9,6-.57,1.39-1.46,2-2.9,1.13l-4.08.07c-6.42-.34-8.19-2.83-8-11.14.18-6.23,1.93-8.88,6-9,9.15-.33,13.35,2.35,14,9A35.46,35.46,0,0,1,131.79,55.51Z"/><path class="cls-9" d="M142.92,137.55a36.07,36.07,0,0,0,8.79-.68c1.45-.26,2.74.26,2.83,1.9.07,1.39-1.11,1.8-2.34,2-4.2.53-8.4,1.1-12.6,1.65-12.5.35-25,.29-37.36-1.73-1.82-.29-4.84.32-4.23-2.68.55-2.73,3.36-1.36,5.12-1.1A170.06,170.06,0,0,0,141,138.05,11.19,11.19,0,0,0,142.92,137.55Z"/><path class="cls-7" d="M179.38,87.07l.05,0c.38-.13,1.28.32,1.65.43s3.56,1.06,3.57,1c-4.2,11.24-7.15,22.94-12.66,33.69a6.59,6.59,0,0,1-1.52,2.14c-1.42,1.18-3.56,1.17-5.24,2-.9-1.9-.21-3.88.42-5.74a35.33,35.33,0,0,1,2-5.24c.9-1.75,2-3.41,3-5.09a31.26,31.26,0,0,0,2.24-5q2.06-5.13,3.83-10.34c.76-2.23,1.48-4.46,2.17-6.71C179,87.91,179,87.25,179.38,87.07Z"/><path class="cls-10" d="M186.84,88.62l5.17-3c-3.71,11.5-7.48,23-12,34.2a4.06,4.06,0,0,0-3.08-1.18,2.39,2.39,0,0,1-.55-2.32c2.71-8.86,5.21-17.8,9.16-26.23C185.8,89.48,186.41,89.11,186.84,88.62Z"/><path class="cls-11" d="M170.32,112c-.39,1.27,0,2.82-1.33,3.76a10.33,10.33,0,0,1-10-2.47c-.15-1.42-.17-2.82.94-3.94Z"/><path class="cls-12" d="M104,112.37a5,5,0,0,1-1-4l10.76-1.24c0,1.39,0,2.78,0,4.17C110.74,113.74,107.37,113.32,104,112.37Z"/><path class="cls-13" d="M147.82,107.36c.41,1.62-.21,3-.87,4.45-2.55,1.45-4.77.63-6.89-1v-4.16Z"/><path class="cls-14" d="M92.16,135.14c1.46.36,3.26.26,3,2.43a1.85,1.85,0,0,1-2.49,1.61c-1.29-.35-3.15-.3-2.88-2.48C90,135.25,91,135,92.16,135.14Z"/><path class="cls-15" d="M119,130.41c-2.23-7.32-.58-14.8-1-22.2,0-1,.62-1.47,1.55-1.59,3.53-.46,6-2.24,6.23-6,.21-3.55-2.59-5.09-5.55-6.56A7.43,7.43,0,0,1,129.39,91a8.79,8.79,0,0,1,6.53,9q-.07,15.21-.13,30.42Z"/><path class="cls-15" d="M81.87,119.67c-1.13-7-2.19-14.06-3.43-21.06-.7-4,1-6.88,4-9a8.31,8.31,0,0,1,8.48-.92c1.53.68,2.84,1.6.53,3.07a5.47,5.47,0,0,0-2.25,7A5.42,5.42,0,0,0,95,102.56c1.79-.14,2.67.49,3,2.41,1.31,7.82,3.4,15.52,3.85,23.5a55,55,0,0,1-15-3.93C84.57,123.58,82.28,122.56,81.87,119.67Z"/><path class="cls-16" d="M104,112.37l9.85-1q0,9.12.1,18.26l-7.14-.34C105.61,123.65,104,118.14,104,112.37Z"/><path class="cls-17" d="M159,113.24l10,2.47c-.17,3.76-2.25,7-3,10.57a44.07,44.07,0,0,1-10.65,2.21C156.53,123.4,157.14,118.17,159,113.24Z"/><path class="cls-18" d="M186.84,88.62l-9.93,30c-1.19,2.69-2.72,5-5.86,5.75q5.34-16.15,10.69-32.3c.47-1.39.93-2.84,2.32-3.68Z"/><path class="cls-19" d="M147,129.46q3-13.74,6.07-27.48c.22-1,.67-1.88.83-2.85.25-1.46.69-2.65,2.47-2.38,2,.3,1.61,1.85,1.32,3.09q-3.42,14.75-6.93,29.45Z"/><path class="cls-20" d="M140.06,110.85l6.89,1q-1.74,8.46-3.47,16.91a2.81,2.81,0,0,1-3.49,1.42Q140,120.5,140.06,110.85Z"/><path class="cls-15" d="M124,62.65l2.9-1.13c2.28,4.87.51,10,1,15,.22,2.29,0,4.63,0,6.94,0,1.54,0,3.14-2.23,3-2-.15-1.74-1.68-1.74-3C123.93,76.54,124,69.59,124,62.65Z"/><path class="cls-21" d="M120,98.8c1.12.24,1.81.88,1.64,2a1.73,1.73,0,0,1-3.45-.21A1.75,1.75,0,0,1,120,98.8Z"/><path class="cls-22" d="M81,59.3l2.86.42C86.6,66.53,86.46,73.89,87.9,81A2.23,2.23,0,0,1,86,83.88c-1.65.29-1.89-.9-2-2.1C83,74.28,80.9,66.93,81,59.3Z"/><path class="cls-23" d="M95.93,96.74c0,1.21-.64,1.86-1.86,1.71a1.5,1.5,0,0,1-1.5-1.6c.08-1,.54-2,1.73-2S95.87,95.69,95.93,96.74Z"/><path class="cls-24" d="M154,91.82l-5.86-1.09c-1.09-.21-2.46,0-2-1.92.34-1.52.91-2.48,2.69-1.88a11.86,11.86,0,0,0,1.94.45c1.37.21,2.84.3,3.24-1.41s-.71-2.36-2.24-2.59c-.82-.12-1.6-.48-2.42-.57-1.54-.17-1.82-1-1.61-2.37.24-1.62,1-1.8,2.38-1.36a13.5,13.5,0,0,0,2.45.42c1.44.16,2.82-.07,3-1.76.15-1.37-.9-2-2.19-2.2-.81-.14-1.62-.36-2.43-.53-1.17-.25-2.3-.43-2-2.15.27-1.49,1-1.94,2.43-1.62a15.89,15.89,0,0,0,2.47.31c1.34.08,2.87.27,3-1.64.13-1.72-1.2-2-2.59-2.4s-4.28.26-3.7-2.58c.66-3.19,3.36-1.37,4.95-1.14,8.48,1.25,8.78,1.71,7.4,10.11-.73,4.41-1.84,8.75-2.5,13.17C159.86,91,158.2,92.91,154,91.82Z"/><path class="cls-24" d="M184.7,84.29c-2.68-.88-5.34-1.86-8-2.59-1.82-.5-1.22-1.49-.94-2.64.32-1.3,1-1.6,2.13-1.09a6.18,6.18,0,0,0,1.41.48c1.52.25,3.49,1.73,4.35-.5,1-2.61-1.47-2.78-3.11-3.39-1.36-.51-3.17-.72-2.41-2.9s2.42-1.18,3.75-.81c1.58.44,3.48,1.6,4.25-.66.89-2.63-1.79-2.66-3.3-3.34-1.27-.58-3.13-.35-2.22-2.8s2.17-1.15,3.56-.83c1.63.36,3.91,1.71,4.58-.94.56-2.18-1.75-2.32-3.25-2.94-1.21-.5-3.2-.46-2.49-2.81.85-2.8,2.64-1,4-.81a18.39,18.39,0,0,1,3.32,1c5.71,1.92,6.3,3,4.45,8.73q-2.46,7.56-5.06,15.07C188.89,82.84,187.7,84.83,184.7,84.29Z"/><path class="cls-25" d="M86.1,55.45c-4.93.69-6.74-2-7-6-.26-3.77,3.73-7,8-5.94,5.2,1.22,3.23,5.85,3.89,9.47-2.77-1.08-.92-6.78-4.87-5C83,49.4,86.56,52.67,86.1,55.45Z"/><path class="cls-26" d="M116.07,53.52c0-2.52-1.17-5.83,2.13-6.75,2.51-.7,5.71-1.05,7.91,1.45a6,6,0,0,1,.92,7.35c-1,1.86-2.55,3.47-4.72,2.78s-.14-2.51-.4-3.84.38-3.28-1.52-3.74S118,52,117.77,53.52A1,1,0,0,1,116.07,53.52Z"/><path class="cls-27" d="M116.07,53.52h1.7c.06,1,.59,2.63-.85,2.63S116,54.54,116.07,53.52Z"/></svg>