<svg id="Layer_1" data-name="Layer 1" xmlns="http://www.w3.org/2000/svg" viewBox="0 0 292.38 194.06"><defs><style>.cls-1{fill:#4c4b4c;}.cls-2{fill:#b42365;}.cls-3{fill:#fff;}.cls-4{fill:#ebebeb;}.cls-5{fill:#ec107b;}.cls-6{fill:#ececec;}.cls-7{fill:#b42063;}.cls-8{fill:#ed2082;}.cls-9{fill:#eb0f7b;}.cls-10{fill:#ec1e81;}.cls-11{fill:#ec0f7b;}.cls-12{fill:#b72065;}.cls-13{fill:#ed177e;}.cls-14{fill:#4e4d4e;}.cls-15{fill:#f7f6f6;}.cls-16{fill:#e9e9e9;}.cls-17{fill:#f7f8f8;}.cls-18{fill:#eeedee;}.cls-19{fill:#fefefe;}</style></defs><title>Home 2.1</title><path class="cls-1" d="M59.41,106.43c-3.91.54-5.48-.75-5.39-5.09.28-13.7,0-27.41.18-41.11,0-3.77-.87-4.25-4.39-3.27-2.24.62-6.1,3.77-7.1,0-.92-3.47,3.85-3,6.2-3.67q59.81-16.94,119.68-33.7a20.35,20.35,0,0,1,5.61-.85c15.61,0,31.22,0,46.83.12,1.55,0,4-.83,4.08,1.79.07,2.43-2.25,2.42-3.9,2.15-4.08-.66-4.77,1.11-4.75,4.85.17,23.24.2,46.49-.06,69.73-.05,4.34,1.43,5,5.24,4.94,11.62-.22,23.24-.11,34.87-.06,5.44,0,5.39.07,2.92,4.67a7,7,0,0,0-.25,3.07c0,22,.07,44.07-.1,66.09,0,3.57,1.19,4.23,4.42,4.28,2.4,0,6.95-1.88,6.91,1.7,0,4-4.72,2.1-7.26,2.11q-101.47.26-202.95.24c-3.12,0-6.24-.1-9.36-.19-1.33,0-2.51-.58-2.59-2s1.16-2.13,2.46-1.94c3.37.48,3.57-1.44,3.45-4-.15-2.94.23-5.93-.1-8.84-.48-4.22,1.26-5.74,5.26-5.2,2.23.61,1.93,2.27,1.64,3.93a5.7,5.7,0,0,0-.37,1c-2.14,10.18-1.05,11.57,9.18,11.57q37.17,0,74.32,0c7,0,7.32-.32,7.33-7.33,0-18.71,0-37.42,0-56.13,0-3.37-.19-6.27-3.56-8.51-2.9-1.94-1.78-4.93,2-5.7,4.26-.87,8.64-.3,13-.42,5.71-.16,6-.56,6.29-6.31.33-6-1.15-12.11,1.16-18,2-1.59,3.67-.9,5.14.84,2,5.73.72,11.65,1,17.48.27,5.43.59,5.93,6,6,7.78.07,15.56,0,23.34,0,3.49,0,5-1.38,5-4.91,0-6.4-.15-12.8.07-19.2,0-1.26,0-2.51,0-3.77-.22-13.78,0-27.56-.12-41.34,0-6.27-.48-6.64-6.83-6.73-2.58,0-5.16.11-7.74-.11-1.58,0-3.15.11-4.72,0q-7.84.15-15.68,0a17.53,17.53,0,0,0-5.86.51c-6.74,1.75-13.46,3.62-20.16,5.53-1.51.41-3,.92-4.54,1.19-2,.57-4,.91-5.94,1.64-4.94,1.77-10.07,2.88-15.1,4.35-3.85,1-7.63,2.24-11.5,3.18-2.22.12-4.13,1.23-6.17,2-13.61,4.08-27.34,7.74-41,11.56-3.92,1.09-5.85,2.94-5.79,7.2.15,11.44.05,22.87.05,34.31a15.07,15.07,0,0,0,1.3,6.06C61.25,103.8,62.12,105.8,59.41,106.43Z"/><path class="cls-2" d="M59.41,106.43c1.08-1.11.64-2.63,1.07-3.92,1.13-1.66,2.92-1.76,4.64-1.82,5-.17,10-.22,15.07,0,2.45.12,5,.44,5.66,3.5-.53,3.15-3,3.45-5.47,3.68a70.35,70.35,0,0,1-8.83.11c-3.62-.13-5.43,1.18-5.41,5.07q.1,20.79,0,41.58c0,3.72,1.45,5.31,5.22,5.31q28.06,0,56.12,0c3.81,0,5.22-1.63,5.21-5.31-.05-13.68-.11-27.37,0-41,0-4.43-2-5.66-6-5.62-9.18.08-18.37.15-27.54,0-2.86-.06-6.13.17-7-3.81.9-3.26,3.65-3.43,6.24-3.47q17.4-.3,34.81,0c5.79.1,7.59,2,7.84,8,.32,7.44.1,14.89.11,22.34,0,9.18.15,18.36-.06,27.53-.17,7.23-2.58,9.76-9.81,9.83-21.47.21-43,.13-64.43,0-2.36,0-5,.15-6.28-2.63-.42-1.17-.85-2.34-1.27-3.52C60,143.64,59.8,125,59.41,106.43Z"/><path class="cls-3" d="M60.59,165.76c1.61.91,3.38.62,5.09.62,22.33,0,44.66-.11,67,.11,5,0,6.59-1.65,6.52-6.59-.24-17.31-.2-34.62,0-51.93.05-4.5-1.41-6-6-5.85-11.76.31-23.54.09-35.31.11-2,0-4.28-.58-5.31,2a5.23,5.23,0,0,1-7.15,0,3.64,3.64,0,0,0-3.75-2.1c-7.06.17-14.12.22-21.18.32-2.67.09-2.42-1.8-2.42-3.55,0-13.53,0-27,0-40.58,0-2.47.74-3.52,3.31-4.21,15.44-4.2,30.81-8.67,46.2-13,2.46,1.57,2.23,4.11,2.25,6.51,0,6.91,0,13.83,0,20.75,0,5.83.4,6.23,6.16,6.24,15.9,0,31.81-.06,47.72.05,2.47,0,5.3-.76,7,2,0,7.28-.14,14.57.05,21.85.08,2.95-.8,3.85-3.75,3.76-5.54-.18-11.1.06-16.64.12-1.42,0-3.15,0-3.36,1.68-.29,2.2,1.6,2.41,3.19,2.26,2.59-.24,2.69,1.25,2.68,3.2,0,22.38-.06,44.75,0,67.13,0,2.72-.81,3.57-3.54,3.57q-44-.12-87.95,0c-2.3,0-3.6-.43-3.43-3.1s.11-5.55,0-8.33C58,166.93,58.65,165.88,60.59,165.76Z"/><path class="cls-4" d="M255.09,142.83c0,10.75-.13,21.5.08,32.24.07,3.45-.59,4.93-4.45,4.71-6-.34-12.13-.23-18.19,0-2.78.09-3.5-.87-3.49-3.55q.14-33.54,0-67.07c0-2.95,1.15-3.4,3.66-3.34,6.24.13,12.48.19,18.72,0,3-.1,3.76.91,3.72,3.8-.15,11.09-.06,22.18-.06,33.27Z"/><path class="cls-5" d="M195.75,23.05c5.34-.12,12.12-2.23,15.6.7,3.31,2.81,1,9.78,1,14.9.09,11.43-.11,22.86-.18,34.28-4.83,3-10.08,2.1-15,.92-3.89-.92-2.52-5.15-3.52-8.72a24,24,0,0,0-.68,4.43c-.86,4.78-2.18,5.32-12.18,5-5.67-.16-7-1.09-7.36-5.77s-.13-9.33-.14-14q0-12.45,0-24.89c0-2.41-.15-4.88,1.6-6.9h16.63c1.79,2,1.48,4.49,1.53,6.87.13,5.83-.2,11.68.62,17.52.61-5.65.42-11.34.52-17C194.27,27.89,193.85,25.22,195.75,23.05Z"/><path class="cls-6" d="M212.32,76.44c.05,7.42,0,14.85.2,22.27.06,2.57-.5,3.64-3.37,3.59q-15.54-.24-31.08,0c-2.77,0-3.52-.88-3.47-3.54.14-7.25,0-14.5,0-21.75.86-2.23,2.87-2.28,4.73-2.31,9.44-.15,18.88-.11,28.32,0A5.77,5.77,0,0,1,212.32,76.44Z"/><path class="cls-7" d="M212.32,76.44c-12.57.29-25.16-.79-37.71.57-1.26-.46-2.52-.9-3.86-.33-18.85-.1-37.71-.38-56.55-.17-5,0-6.39-1.42-6.31-6.37.15-9.66.73-19.36-.34-29,1.58-.65,3.09-1.55,4.91-1.32,1.12,7.9.26,15.84.45,23.76.19,7.61.38,7.91,7.86,7.95,4.15,0,8.3,0,12.45.08,1.85.05,3.88.4,5.11-1.61,1.38-7.55.26-15.14.62-22.69.23-5-.51-10,.41-14.95,1.6-1.31,3.7-1,5.5-1.7,1.78,2,1.39,4.55,1.41,6.92.07,8.29,0,16.59,0,24.88,0,8.92,0,8.91,8.72,9,2.94,0,5.87.15,8.81.12,1.74,0,3.51.09,4.62-1.64,1.2-3.39.58-6.88.66-10.31.27-11.91-.44-23.84.37-35.75,1.65-1.29,3.56-1,5.44-.87,0,14.88.09,29.77-.22,44.64-.09,4.5,1.51,5.93,5.67,5.3a14.29,14.29,0,0,1,2.07,0c8.43,0,8.44,0,9.13-8.45.12-1.55,0-3.53,2.12-3.45s1.86,2.07,2,3.6c.59,8.36.6,8.36,9.27,8.33l7.27-.06Z"/><path class="cls-8" d="M169.48,23.92c1.42.9,1.23,2.35,1.23,3.7q-.06,22.2-.14,44.39c-3.38,1.16-6.86.23-10.28.52-2.21.19-3.08-1.27-3.58-3-3.41-12-5.77-24.28-8.6-36.43a3.8,3.8,0,0,1,.79-3.42Z"/><path class="cls-9" d="M140.4,72c-5.5,2.21-11.23.75-16.83.88-12.14.27-12.31.08-12.08-11.91.14-7.06-1.14-14.2,1-21.17l11.44-3.05c2.4,1.6,2.77,4.25,3.3,6.74,1.22,5.71,3,11.3,3.84,17.08S133.9,71,140.4,72Z"/><path class="cls-10" d="M140.4,72c-7.85,0-7.92,0-9.77-7.39-2.31-9.27-4.5-18.57-6.73-27.86l15.46-4.41c1.23.78,1.17,2,1.17,3.24Q140.47,53.8,140.4,72Z"/><path class="cls-11" d="M148.9,29.64c2.83,12.41,5.79,24.8,8.41,37.26.88,4.18,2.8,5.83,7,5.18a41.72,41.72,0,0,1,6.23-.07c-8,2.18-16,.6-24.07.77-2.2,0-1.77-2.2-1.77-3.67q0-19.23.13-38.46Z"/><path class="cls-12" d="M195.75,23.05c0,8.32,0,16.64-.1,25,0,1.68.23,4-2.29,3.78-2-.15-1.76-2.24-1.77-3.77q0-12.48,0-25Z"/><path class="cls-13" d="M85.41,104.29l7.15,0c1,2.57,3.27,2.14,5.32,2.14,10.58,0,21.16.12,31.74-.09,3.57-.07,4.82.91,4.77,4.64q-.28,23.16,0,46.32c0,3.46-1.11,4.41-4.47,4.39-20.3-.13-40.6-.17-60.9,0-3.81,0-4.6-1.39-4.56-4.85q.22-22.89,0-45.8c0-3.64,1-5,4.71-4.69s7.63.06,11.44.08C82.53,106.42,84.49,106.55,85.41,104.29Z"/><path class="cls-14" d="M66.27,72.88A15.35,15.35,0,0,1,81.38,57.63a15.4,15.4,0,1,1-.31,30.79A15.31,15.31,0,0,1,66.27,72.88Z"/><path class="cls-15" d="M92.79,73.11a11.17,11.17,0,0,1-11,11.38,11.44,11.44,0,1,1-.41-22.87A11.2,11.2,0,0,1,92.79,73.11Z"/><path class="cls-16" d="M90.82,79.68C90.3,74.09,87.46,69,87.46,63.25,93.89,67.82,95,73.1,90.82,79.68Z"/><path class="cls-4" d="M78.33,62c.19,6.55,2.45,12.62,3.75,18.91.43,2.06,1.47,3,3.42,2.83-3.31,1.87-6.43,1.35-9.41-.89C74.84,77.5,73,72.25,72.62,66.66A7.82,7.82,0,0,1,78.33,62Z"/><rect class="cls-17" x="158.24" y="110.28" width="65.34" height="66.33"/><path class="cls-18" d="M158.45,146.61c0,8.62-.14,17.24-.25,25.86a3.31,3.31,0,0,0,4.06,4.12l60.91,0c-.28.82-1.36,1-2.22,1l-59.76,0c-1.09,0-2.32-.07-3-.92a3.44,3.44,0,0,1-.58-1.81,87.15,87.15,0,0,1-.13-10.6c0-3.74,0-7.49.05-11.23q0-11.23,0-22.47c0-6.5-.07-13-.1-19.51,0-1.45.11-3.15,1.32-4a4.38,4.38,0,0,1,2.46-.48h57.71c1.44,0,3.06.08,4,1.15,1.13,1.27.73,3.22.28,4.86l-60.07,0c-1.75,0-4.27.19-4.81,2.25-.36,1.4,0,3.15,0,4.57,0,2,.06,4,.08,6,0,3.89.06,7.77.07,11.66Q158.47,141.82,158.45,146.61Z"/><path class="cls-3" d="M223.05,163.68H167.12a31.1,31.1,0,0,1-4-.17,1.86,1.86,0,0,1-1.7-1.58,1.8,1.8,0,0,1,1.71-2,25.1,25.1,0,0,1,4-.18h55.92Z"/><path class="cls-3" d="M222.69,129c-11.81,0-23.62,0-35.43,0-1.7,0-4.27.49-4.08-2.22.15-2.13,2.48-1.74,4.08-1.75q17.72,0,35.43,0Z"/><path class="cls-19" d="M158.22,146.36c0-1.31,0-2.62,0-3.92,19.13,0,38.27-.06,57.41,0,1.73,0,4.8-1.26,5,1.5.21,3.15-3,2.41-5,2.41C196.49,146.41,177.35,146.37,158.22,146.36Z"/><path class="cls-3" d="M157.86,129.72c0-1.31,0-2.61,0-3.92,4.81,0,9.62,0,14.43,0,1.35,0,2.89.23,2.89,2s-1.53,2-2.89,2C167.47,129.76,162.66,129.73,157.86,129.72Z"/></svg>