<svg id="Layer_1" data-name="Layer 1" xmlns="http://www.w3.org/2000/svg" viewBox="0 0 233.84 188.13"><defs><style>.cls-1{fill:#b30060;}.cls-2{fill:#fe0082;}.cls-3{fill:#db0071;}.cls-4{fill:#b60061;}.cls-5{fill:#b40060;}.cls-6{fill:#fdfafc;}</style></defs><title>home_security_camera</title><path class="cls-1" d="M118.28,20.86c18.15.4,39.38,2.87,59.33,11.89a119.28,119.28,0,0,1,10.9,6c11.78,6.88,15.92,17.36,14.07,30.5-.88,6.26-1.81,12.52-3.08,18.7-1.46,7-6.89,10.84-12.79,13.76-3.09,1.53-4.24,3.52-4.67,6.78-2.64,20-12.72,35.24-29.32,46.6-11.21,7.67-22.92,13.49-36.81,13.66a55.05,55.05,0,0,1-30-8C71.42,151.89,58,142,52.39,124.71a72,72,0,0,1-3.72-16.5c-.15-2-.11-3.93-2.6-4.81-13-4.63-17.27-15.05-18.16-27.66,0-.5-.09-1-.15-1.49C25,51.62,29.18,44,49.76,33.76,66,25.7,90.34,20.86,118.28,20.86Z"/><path class="cls-2" d="M169.24,85.57c-4.07.09-7.66-1.91-11.54-2.7-2.93-.59-5.59-.35-6.28,3-.63,3.11,1.57,4.22,4.34,4.85,3.21.74,6.32,1.9,9.47,2.87a3.47,3.47,0,0,1,1,2.72c-1.29,12.77-4.17,25.08-10.91,36.2-1.78,2.93-1.89,2.86-4.11,2.05-.12-4.31.67-8.67-.47-12.92-2.68-10.09-10.82-16.13-23.22-17s-24.47-1.55-36.8-.2c-17,1.86-25.88,13.12-22.69,29.88a7.36,7.36,0,0,1-.16,4.64c-7.3-8.23-10.93-17.82-12.58-28.3-.41-2.61-.51-5.28-1-7.88-1.07-5.73,1.74-8.7,6.91-10,4.5-1.15,9-2.14,13.53-3.26,2.33-.57,4.83-1.33,4.4-4.4s-2.91-3.94-5.64-3.45c-7.52,1.36-15,2.91-21.79,6.71-1.78,1-3.74,2.07-4.21,4-1,4.15-3.06,3-5.36,1.41-7.29-5.23-6.92-10.09,1-14.64,10.11-5.84,21.29-8.43,32.58-10.37a203.31,203.31,0,0,1,38.14-3c19.4.34,38.75,1.92,57.45,7.83C174.17,77.2,173.61,80.59,169.24,85.57Z"/><path class="cls-2" d="M173.19,65.67a218.65,218.65,0,0,0-63.46-7.87c-19.73.44-39.4,2.34-58.31,8.81A69.27,69.27,0,0,0,35,74.94c-4.62-12.54-1.76-21.55,9-28.82,12.54-8.53,26.8-12.22,41.48-14.45A176,176,0,0,1,159,35.53a67.11,67.11,0,0,1,15.23,6.08c6.08,6.64,4.52,16.9,2.37,22.3C176,65.32,175.09,66.56,173.19,65.67Z"/><path class="cls-2" d="M130.18,158.51c-15.42,5.34-30,3.59-43.78-5.13a15.68,15.68,0,0,1-6.66-7.77c-2.89-7.44-6-14.82-3.64-23.09.7-2.47,1.75-4.66,4.16-5.92,9.84-4.44,20.28-4.39,30.71-3.81a68.76,68.76,0,0,1,12.83,1.42c9.72,2.42,14.71,8.29,13.7,18.29C136.6,141.5,135.6,150.68,130.18,158.51Z"/><path class="cls-3" d="M151.17,134.55c2-1,3.72-3.09,5.34-6.62a103.45,103.45,0,0,0,8.72-34.35c7.37,2,8.41,3,7.94,10.11-1.16,17.46-8.86,31.6-22.44,42.58a9.58,9.58,0,0,1-2.24.89C149.43,142.72,150.3,138.63,151.17,134.55Z"/><path class="cls-3" d="M130.18,158.51c2.32-7.28,4-14.7,5.65-22.16,2.7-12.68-4-20.54-17.59-21.9-12.85-1.28-25.45-1-38,2.15,4-3.91,9.37-4.37,14.31-4.73A142.52,142.52,0,0,1,128.79,113c14.77,2.49,15.39,9.69,14.09,21.93-.4,3.75-2,7.36-2.5,11.11C139.46,152.33,136.64,156.84,130.18,158.51Z"/><path class="cls-3" d="M173.19,65.67c4.6-4,4.08-9.37,3.64-14.49-.28-3.24-1.71-6.38-2.63-9.57A35.14,35.14,0,0,1,191,54.18c3.53,4.9,2.42,11.1,1.85,16.86a26.1,26.1,0,0,1-1.14,4.16C186,70.86,179.55,68.34,173.19,65.67Z"/><path class="cls-3" d="M169.37,85.51a1.08,1.08,0,0,1,0-.57,15.4,15.4,0,0,1,1.2-3.22l.12-.25a14.35,14.35,0,0,0,1.36-3.9,5.88,5.88,0,0,0-.76-3.78c.41-.22,1.59.45,2.06.63l2.21.86c1.51.61,3,1.25,4.45,2a29.38,29.38,0,0,1,8,5.6c1.53,1.56,2.86,3.44,1.25,5.72-2,2.85-4.2,5.57-7.75,6.6a1.37,1.37,0,0,1-1.14-.7c-.73-3.13-3.1-4.85-5.87-6.14-1.3-.61-2.65-1.14-3.89-1.87C170,86.16,169.53,86,169.37,85.51Z"/><path class="cls-4" d="M137.88,87.58c-3.23.33-5.34-1.15-5.16-4a4.24,4.24,0,0,1,4.9-3.83c2.59.26,5.09,1.48,5,4.46C142.52,87,140.4,88,137.88,87.58Z"/><path class="cls-5" d="M91.19,131.38c.17-7.39,5.24-12,13-11.87a11.81,11.81,0,0,1,12.06,12.39,12.73,12.73,0,0,1-13.12,12.67C96.12,144.27,91,138.65,91.19,131.38Z"/><path class="cls-6" d="M103.84,136.67c-3.24-.46-4.89-2-4.77-5a4.14,4.14,0,0,1,4.49-4.32c2.94,0,4.71,1.63,4.7,4.62S106.31,136.28,103.84,136.67Z"/></svg>