<svg id="Layer_1" data-name="Layer 1" xmlns="http://www.w3.org/2000/svg" viewBox="0 0 292.38 194.06"><defs><style>.cls-1{fill:#4b4b4b;}.cls-2{fill:#4c4b4c;}.cls-3{fill:#4c4c4c;}.cls-4{fill:#b52164;}.cls-5{fill:#f6f5f6;}.cls-6{fill:#605e5e;}.cls-7{fill:#f7f8f8;}.cls-8{fill:#fff;}.cls-9{fill:#f7f7f7;}.cls-10{fill:#fdfdfd;}.cls-11{fill:#f5f5f5;}.cls-12{fill:#efefef;}.cls-13{fill:#efeeee;}.cls-14{fill:#f4f4f4;}.cls-15{fill:#f6f6f6;}.cls-16{fill:#e8e8e8;}.cls-17{fill:#f7f7f8;}.cls-18{fill:#fcfcfb;}.cls-19{fill:#fbfbfb;}.cls-20{fill:#545454;}.cls-21{fill:#f6f5f5;}.cls-22{fill:#f3f2f2;}.cls-23{fill:#fffefe;}.cls-24{fill:#ed2182;}.cls-25{fill:#ec2082;}.cls-26{fill:#ba1f67;}.cls-27{fill:#fefefe;}.cls-28{fill:#6f6e6e;}.cls-29{fill:#696868;}.cls-30{fill:#535353;}.cls-31{fill:#777676;}.cls-32{fill:#5e5e5e;}.cls-33{fill:#ddd;}</style></defs><title>Pet</title><path class="cls-1" d="M130.26,123q-.06-8-.13-16c2.52-.55,4,.76,4.94,2.87.74,2.6.52,5.28.52,7.93,0,11.31-.09,22.63.06,33.94.08,5.79,0,11.34-5.14,15.36a7.21,7.21,0,0,0-1.95,3.45c-1.06,3.06-.21,4.88,3.27,4.92,4.66.06,9.31.1,14,0,2.43-.06,3.68-1.31,3.7-3.72.12-13,.23-26-.06-38.92-.05-1.94-1.37-3.33-2.27-4.91-1.56-2.72-.64-4.44,2.35-5.08a15.64,15.64,0,0,1,5-.17c4.68.5,5.56,2.18,2.86,5.89a9.13,9.13,0,0,0-1.73,5.58c0,12,.08,24-.06,35.93,0,4.11,1.62,5.71,5.65,5.51,3.48-.17,7-.07,10.47,0,2.75.28,4.79-.69,4.72-3.68s-1-5.92-4.83-6.57c-3-.52-6.6-.82-4-5.51a5.1,5.1,0,0,1,1.31-.83c2.56-.53,2.59-2.62,2.84-4.58,1.08-8.31,1.44-16.7,2.34-25,1-2.17.12-6.3,3.91-5.66,3.32.55,2.19,4.23,2.43,6.71.12,1.13-.11,2.29.09,3.83,3.88-.5,7.55-2.1,11.44-1.94,4.18.18,5.34,1.57,4.35,5.12-2.34,1.49-5.13.52-7.57,1.39-4.23,1.37-8.87,2.21-9.85,7.73-.71,2.49-.38,5-.39,7.57a17,17,0,0,0,2.32,10.53,12.16,12.16,0,0,1,1.56,7.72c-.23,2.32.52,3.34,3,3.34,21.45,0,42.89,0,64.39-.4-8.06-4.68-16.91-6.44-26-7.24-2-.18-2.9,1.28-3.6,2.88a9.73,9.73,0,0,1-2.24,3.84,2.85,2.85,0,0,1-3.23.59,2.69,2.69,0,0,1-1.41-2.47,7.16,7.16,0,0,1,.47-2.93c4.85-14.67,2.09-28.58-4.21-42.12-7.53-16.18-17.47-30.61-31-42.38a5.11,5.11,0,0,1-.89-1.21c-.61-1.71-.78-3.35.79-4.69,14,9.54,23.44,23,31.53,37.47,7.39,13.2,12.6,27.18,11.28,42.75-.28,3.26,2.07,2.91,3.88,3.13a93.86,93.86,0,0,1,22.31,5.06c4.09,1.57,8,3.46,10.27,7.48,1.59,2.86,4.11,1.29,6.21,1.62,1.58.25,3.84-.33,3.9,2s-2.21,1.95-3.79,2q-13.24,0-26.5,0L55,181H51.5c-1.24,0-2.42-.24-2.51-1.76a1.81,1.81,0,0,1,2.23-2.05c6.94,1.52,9.15-3,13.22-7.57,4.41-4.91,4-9.1,3.85-14.19-.29-7.82-.65-15.64-1-23.46-.09-2.24-.3-4.68,3.27-3.87a1.58,1.58,0,0,1,1.25.92c.81,8.39,1.77,16.77,1.64,25.23a53,53,0,0,0,.21,9.43c.69,4.12.79,7.71-4.35,8.92a1.73,1.73,0,0,0-1.46,1.76c.08,1.1,1.09,1.11,1.87,1.2a29.38,29.38,0,0,0,4,0c3.83-2.84,6.39-6.73,6.77-11.33.61-7.25.21-14.56.23-21.85,0-1.94-.25-3.64-2.3-4.47-1.23-1-2.33-2.08-1.56-3.79s2.21-1.91,3.79-1.75a49.88,49.88,0,0,0,9,0c1.6-.14,3.09.24,3.71,1.89s-.49,2.79-1.83,3.64c-3.14.64-4.25,2.54-4.14,5.73.2,5.16,0,10.33.08,15.5,0,1.54-.51,3.87,2.13,3.55,2.49-.3,6,1.57,7.13-2.53a33.58,33.58,0,0,0,1-6.4c.49-6.51,1.61-12.89,4.56-18.82,3.9-3.42,4.5-3.35,6.42.74a62.92,62.92,0,0,0-5.11,20.72c-.18,2.05-1.42,5,2.38,5.41,3.89-.15,7.28-1.27,9.92-4.36,1.39-1.62,3.11-2.54,4.8-.17,1.17,3.64-1.13,5.72-3.46,7.79-6.91,4-14.72,3.44-22.24,4.35-2.13.26-4.31,0-6.41.62-.93.34-2,.32-2.77,1-1.06,1-2.81,2-2.36,3.54.53,1.83,2.55,1.07,3.92,1.08,9.83.06,19.66-.06,29.48.08,2.81,0,4.29-.67,4.7-3.68a18.89,18.89,0,0,1,6.11-11.73,6.35,6.35,0,0,0,2-4.92c.14-16-3.58-30.41-17.46-40.39a7.92,7.92,0,0,1-2.71-2.89c-.41-1.45-.39-2.76,1.18-3.55,8.76,3.86,14.67,10.47,18.48,19.12C130.9,127.15,130.93,127,130.26,123Z"/><path class="cls-2" d="M127.12,95.25c-9.72-4.07-15.48-11.7-18.85-21.32a12.84,12.84,0,0,0-4.11-6c-5.38-4.47-10.48-9.27-13.64-15.68-4.35-8.84.26-16.27,10-16.3,5.12,0,9.8,1.69,14.28,3.87,2.25,1.1,3.63.4,5.76-.55,8.26-3.69,13.75-8.89,13.2-18.7-.08-1.39.75-2.87,1.31-4.25,1.74-4.26,4.48-7.52,9.41-7.78,4.75-.26,7.62,2.74,9.81,6.52,3.23,5.55,4.6,11.73,5.58,18a13.27,13.27,0,0,0,3.54,7.34c8.15,9,12.83,19.3,9.57,31.85a3.2,3.2,0,0,1-3.74.16c-1.44-2.86-.3-5.87-.42-8.81-.61-14.55-13.65-27.75-27.23-27.29-11.49.39-28.45,11.34-29.71,24.7-1,10.87,3.44,19.34,11.42,26.26,1.88,1.62,4.33,2.51,5.93,4.53C129.59,93.57,129.18,94.92,127.12,95.25Z"/><path class="cls-3" d="M63.11,115.93a30.32,30.32,0,0,1-6.79-11.45c-.91-3.1-3.9-4.43-5.67-6.79-2.74-3.67-7-7.08-5-12.23C47.48,80.65,52.53,80,57,79.68a15.28,15.28,0,0,0,9.78-3.94,8.26,8.26,0,0,1,3.39-2.06c6.15-1.49,10.63-5.13,15-9.66S94.71,60.39,97,66.37c3,7.95,6.1,15.82,9.92,23.45a14,14,0,0,1,.13,12.12,2.82,2.82,0,0,1-3.47-1.1c-1.52-3.88-.48-8.15-2.41-12.12C94.7,75.45,78.9,72,67.78,81.74c-8.43,8.05-9.62,18-3.3,27.86a12.84,12.84,0,0,1,1.85,2.94C67.22,115.45,66.76,117.25,63.11,115.93Z"/><path class="cls-4" d="M127.12,95.25l2.34-3c3.93-2,7.68,1.29,11.58.41,2.78.44,5.69-1.25,8.41.46,1.84,2.52.61,4-1.79,4.93a19.64,19.64,0,0,1-10.31.84c-1.34-.23-3.34-1.18-3.67,1s1.3,3.4,3.32,3.64a33.77,33.77,0,0,0,10.43,0,35.78,35.78,0,0,0,22.9-14.7,9.86,9.86,0,0,0,1.87-8.9c-2.87,1.79-3.61,4.69-5.44,6.66-2,2.19-3.79,4.67-6.41,6.21-2,1.18-4.09,2-5-1.3.17-2.61,2.16-4,3.79-5.64a34.32,34.32,0,0,0,7.2-10.07c.92-1.38,1.2-3.28,3.13-3.82l3.54.33c1.11,2.92,3.73,4.75,5.34,7.31-.06,1.45-.11,2.9-.16,4.36.75,5.9-3.11,9.73-6.63,13.33-8.91,9.13-19.72,13.94-32.74,13.08a23.08,23.08,0,0,1-5.2-1.42l-3.5-1.92Q128.62,101.1,127.12,95.25Z"/><path class="cls-4" d="M103.73,100.86l3.32,1.08,3.69,6.6-.86,3.41a4.55,4.55,0,0,1-.46,3c-6.09,11.09-16.27,15.21-28.12,16.18A15.06,15.06,0,0,1,70.54,128l.07.08c-1.6-1.43-3.15-2.9-3.69-5.1-.84-8.68-.54-9,8-6.82,2.54.63,5.28.73,7.31,2.73,1.29,2.58,0,3.71-2.4,4.15a17.69,17.69,0,0,1-6.39-.34c10.69,5.23,24.89-.31,30.7-11.84-2.6,3-5.19,6.14-8.78,8-2.61,1.35-5,1.72-4.92-2.48C94.67,111,99.36,106.08,103.73,100.86Z"/><path class="cls-5" d="M82.14,119.82c-3.87-2.3-8.58-1.83-12.59-3.82-1.45-.71-2.52.31-2.57,2s0,3.3-.06,5c-1.41-2.27-.21-6-3.81-7,5,0,3.16-2,1.36-4.3-8-10.08-6.94-22.92,2.5-31,1.7,1.56.85,3.36.42,5.08-4.17,16.74,2.75,27.25,19.81,30a6.17,6.17,0,0,1,2.8.9c.85,1.37-.23,1.76-1.12,2.24a32.61,32.61,0,0,0-4.82,1.65A1.74,1.74,0,0,1,82.14,119.82Z"/><path class="cls-6" d="M130.26,123a5.15,5.15,0,0,1,.68,5.22c-.88,2.39-1.32.34-1.72-.54C130.92,126.4,129.58,124.47,130.26,123Z"/><path class="cls-7" d="M133.63,108.88c6.7,0,13.39.78,20-1.7,11.53-4.35,20.38-11.32,24.6-23.29,21,18.25,35.69,40.1,39.23,68.32a38.22,38.22,0,0,1-2.4,18.12c-.56,1.53-2.47,3.57.17,4.58,2.15.81,2.77-1.58,3-3.07.93-5.26,3.64-6.18,8.67-5.05,6.63,1.49,13.4,2.33,19.75,4.94,2.59,1.06,5.2,2.1,7.06,4.75-1.6,1-3.27.64-4.82.64-21.47,0-42.94-.11-64.42,0-2.94,0-4.19-.31-3.23-3.68a9.74,9.74,0,0,0-1.63-8.11A14.92,14.92,0,0,1,177.26,154c.94-2.7-.23-5.58.72-8.28.37-6.3,5.61-6.43,9.87-7.8,2.65-1.1,5.61.46,8.23-1,1.42-2.62-.23-3.08-2.3-3.32-5.28-.59-10.08,1-15.1,3.66.23-3.6.49-6.68.6-9.77.05-1.36.78-3.36-1.46-3.56s-1.66,1.91-2,3.23c-.15.64-.38,1.25-.58,1.87-3.82,7.18-4.84,14.92-4.8,22.93,0,2.86.76,6.07-2.33,8.1l0,0c-1.88,1.64-6.24.74-5.91,4.24s4.26,2.84,6.84,3.41c5.09,1.11,6.28,3.73,4,9.15-5.15.06-10.31-.05-15.45.23-3.06.17-3.5-1.15-3.48-3.78q.17-21,0-41.92c0-2,.23-3.51,2.54-4,1.15-.25,2.29-1,1.82-2.44s-1.83-1.1-3-1-2,.27-3,.47c-1.84.37-4.37-1.62-5.44.74-1.22,2.67,2.06,2.21,3.07,3.37.62.72.44,2.22.44,3.37,0,13.8,0,27.61.06,41.41,0,2.66-.52,3.88-3.53,3.76-5.81-.22-11.65-.24-17.46,0-3.41.14-4.14-1.41-3.5-4.2.83-3.59,1.89-7.16,5.35-9.2,2.34-1.38,2.82-3.4,2.78-5.9Q134,133.32,133.63,108.88Z"/><path class="cls-8" d="M70.54,128c17.53,4.06,28.85-.11,38.37-14.12,2.6-.49,4,1.5,5.37,3,6.43,6.9,9.85,14.93,8.5,24.56-.51,3.65-.08,7.33-.36,11-.14,1.78.5,4.18-2.38,4.64-1.08-.3-2.39-1-3,.46-2.11,5-6.52,5.21-11,5.45-2.28-5-.06-10,.62-14.89.56-4.05,2.12-8,1.06-12.17-.73-4.36-2.53-2.53-4.32-.74-5.31,4-5.17,10-5.87,15.68-.28,2.29,0,4.62-.36,6.93-.45,2.66-2,4-4.55,4.52-5.11,1-6.06.25-6.06-5,0-4.47-.09-9,0-13.41.07-3.09.6-6,4.43-6.71,1.32-.49,2.54-1.19,1.94-2.82-.49-1.34-1.73-1.23-2.93-.93a20.92,20.92,0,0,1-9.73.14c-1.22-.27-2.39-.56-3,.71-.79,1.66.64,2.27,1.77,2.93,1.67.66,1.92,2.07,2,3.64.17,7.93.24,15.9-.84,23.75-.63,4.59-4,8.21-6.15,12.26a27.28,27.28,0,0,1-4.94.1c-1.42-.22-4.44,1.41-3.82-1.86.38-2,.53-5.78,4.77-4.29,2.51.88,2.92-.93,2.76-2.71C71.63,154.72,72.26,141.28,70.54,128Z"/><path class="cls-9" d="M120,157c1.27-11.11,3.94-22.32-2-33a29.13,29.13,0,0,0-9.18-10.19c.33-.63.65-1.26,1-1.9,13.64,8,19.91,20.31,20.78,35.74.14,2.65,0,5.32.22,8a5.89,5.89,0,0,1-2.56,5.88c-4.07,3.08-5.45,7.79-5.89,12.72-.13,1.55.13,2.79-2.22,2.77-13.06-.11-26.13-.05-39.58-.05,1.16-4.43,3.11-7.4,7.37-8.34,1.24,3.17,3.5,4.14,6.92,4.12,5.34,0,10.56-1.08,15.88-1.28,4.43-.17,4.2-4.95,6.23-7.53C118.85,162,120.78,160.08,120,157Z"/><path class="cls-10" d="M117,164c.37,5.61-2.35,9.07-7.24,9-5.8-.07-11.47,1.31-17.31,1.16-4.29-.11-5.87-1.28-4.48-5.48,5.48-1.4,11.14-.83,16.7-1.54C109,166.55,113.14,165.86,117,164Z"/><path class="cls-11" d="M91.08,137.15c-3.08,1.78-3.89,4.72-4,8-.07,4.13-.15,8.27.06,12.4.06,1.32-1.5,4.21,2.11,3.53,2.59-.49,6.58,1.39,6.75-3.52s-.24-9.9,1.09-14.75c1-3.49,1.59-7.27,6.32-7.66-3.65,8-4.35,16.69-5.07,25.3-.22,2.69-.89,3.85-3.75,3.64a20.09,20.09,0,0,0-8.41,1c0-8.73,0-17,0-25.28C86.3,136.36,89.18,137.51,91.08,137.15Z"/><path class="cls-12" d="M173.09,176.83c.67-5.16-.33-8.52-6.8-8.19-1.95.1-5.68.33-6.15-3.52a4.28,4.28,0,0,1,2.2-4.6c1.83-1,3.88-.43,5.83-.49-2.26,4.67,1.54,3.68,3.7,3.75,5.26.17,5.36,4.51,5.85,7.78C178.12,174.18,177.4,177.52,173.09,176.83Z"/><path class="cls-13" d="M168.13,160.06c1.52-2.78,1.14-5.84.9-8.73-.51-6.05,1.28-11.72,2.34-17.51a6,6,0,0,1,3.89-4.79c-.67,9.53-1.43,19.06-2,28.6C173,162,169.8,159.17,168.13,160.06Z"/><path class="cls-14" d="M107.78,135.86c2.59,1.11,2.36,3,1.8,5.33a121.78,121.78,0,0,0-3.48,21.73c-2.66,1.13-4.47,1.18-4-2.64C103.06,151.92,102.93,143.31,107.78,135.86Z"/><path class="cls-15" d="M74.09,176.83a8.85,8.85,0,0,1,1.43-5.69c6.41-10.23,4.25-21.57,4.24-32.62,0-.45-.41-.9-.63-1.34,2.47-.34,3.13.89,3.1,3.19-.09,8.15,0,16.3-.06,24.45C82.15,167.75,76.25,176.32,74.09,176.83Z"/><path class="cls-16" d="M196.08,136.92c-2.53,2.16-5.48.71-8.23,1C190.44,136.21,193.38,137.61,196.08,136.92Z"/><path class="cls-16" d="M178,145.68c0,2.78.91,5.64-.72,8.28C177.11,151.17,176.88,148.37,178,145.68Z"/><path class="cls-17" d="M169.48,71.89l-2.22,4.18c-4.75.94-7.21-3.52-11.06-4.69-.72-.93-.34-1.88,0-2.77,2.17-5.17.76-9.22-3.75-12.34a3.47,3.47,0,0,0-.79-.62c-7.09-2.73-14-5.62-19.45-11.34a4.07,4.07,0,0,0-5.15-.26c-1.78,1.18-1.71,3.1-1.49,5a16.23,16.23,0,0,0,1.4,4.78,9.84,9.84,0,0,1-.91,10.35c-.55.42-1.24.17-1.85.37.66.28,1.37.48,1.65,1.26.8,2.52.31,5.17.81,7.73.09,4,2.57,6.07,6,7.35,1.65.62,3.48.83,4.89,2,1.79,3.44,4.57,6.57,3.52,10.93-4,.6-7.8-.82-11.65-1.6-14.29-6.14-22.37-22.41-17.79-35.83,4.76-14,23.69-24.36,37.44-20.52C163.33,39.84,172.63,56.29,169.48,71.89Z"/><path class="cls-18" d="M106.58,64.83c-5.37-4-9.49-8.3-12.38-13.58-3.69-6.73-.69-11.52,6.91-11.42,4.07.06,7.76,1.5,11.46,3,1.83.75,2.51,1.48.89,3.12-.7.7-1.21,1.58-1.86,2.32-1,1.19-1.23,3.91-3,3.44A5.86,5.86,0,0,1,104,47c-.22-1.54-.45-3.29-2.5-2.59-1.74.58-1.62,2.45-1.14,3.88a9.87,9.87,0,0,0,2,3.36C107.25,57.17,107.28,57.14,106.58,64.83Z"/><path class="cls-19" d="M138.89,31.9c-1.44-.07-3.06.25-2.78-2.18.51-4.43.83-8.91,2.94-12.94,3.13-6,8-6.11,11.76-.36,2.47,3.79,4.82,11.85,5.06,17.72-3.24-.52-6-2.71-9.36-2.31-.41,0-.61-.19-.58-.43s.09-.44.19-.44c1.46-3.79,1.45-7.35-1.76-10.43.66,3.61,3.59,7,1.15,10.88C143.31,31.73,141,31,138.89,31.9Z"/><path class="cls-20" d="M146,30.91l.48.92-7.62.07c2.27-1.52,4.88-.19,7.25-.9Z"/><path class="cls-8" d="M90,117C77.81,117,66.83,109,64.42,98.52c-.93-4.06.2-7.84,1.23-11.66.55-2.06,1.74-4,1.32-6.24a22.11,22.11,0,0,1,25.21-3.39c8.57,4.44,12.94,13.38,11.55,23.63-2.51,6.55-7.33,11.19-12.68,15.39A2.41,2.41,0,0,1,90,117Z"/><path class="cls-21" d="M56,96.73A16.37,16.37,0,0,1,49.69,90c-1.47-2.6-.64-4.29,2.08-5.38,1.9-.76,4.15-1.58,5.63-.36,1.86,1.52-.74,2.91-1.1,4.43C55.77,91,54.38,93.14,56,96.73Z"/><path class="cls-22" d="M96.18,75.18a41.44,41.44,0,0,0-12.42-4.31C86.1,68,88,64.29,91.3,65.46,94.84,66.73,95.27,71.06,96.18,75.18Z"/><path class="cls-23" d="M141.1,93.82q-2.07-5.64-4.16-11.28c2.49-2.92,6.29-4.7,7.44-8.77a1.49,1.49,0,0,1,1.53-1c3.68.78,6.78-1.88,10.34-1.7,4.57-.29,6.9,4.33,11,5-1.86,6.39-7.11,10.13-11.38,14.62-1.18,3.3-3.2,4.89-6.76,3.33C146.48,92.51,143.75,94.81,141.1,93.82Z"/><path class="cls-24" d="M149.12,94a8.1,8.1,0,0,0,6.76-3.33c.53,2.86,2,2.61,3.82,1.15a41,41,0,0,0,9.92-11.67c.58-1,.62-3,2.47-2.35,1.45.54,2,2.07,2,3.71a13.56,13.56,0,0,1-3.46,9.12c-8.83,10.81-20.16,15.8-34.2,14.34-4.17-.43-4.52-3.82-4.74-6.54s2.62-1.55,3.81-1.25a24.24,24.24,0,0,0,11.79-.15C149.19,96.61,150,95.93,149.12,94Z"/><path class="cls-25" d="M90,117l1-.72c0,3.41,1.48,3,3.73,1.63,4.4-2.59,7-6.86,10.47-10.92,1.49,2.29.75,4.06-.14,5.79-4.93,9.64-19.78,15.74-30.07,12.37A24.5,24.5,0,0,1,72.27,124a2,2,0,0,1-1.3-2.4c.48-1.15,1.69-.5,2.62-.4,3,.34,6.31,2.77,8.55-1.41l1.84-.21a3,3,0,0,0,4.24-1.5C88.92,117.89,89.94,118.16,90,117Z"/><path class="cls-26" d="M88.22,118.11c.63,1.19,1.12,2.26-.6,3.11-2,1-3,.14-3.64-1.61C85,117.92,86.44,117.58,88.22,118.11Z"/><path class="cls-27" d="M126.27,74.06c-2.37-2.85-.54-6.29-1.32-9.36l-.15-.63c2.31-3.18,2.63-6.32,1-10.1s-4-8.39.59-11.24c4.26-2.67,7.87.48,10.74,3.76s6.1,5.34,10.61,5.71c2.09.17,4.67.87,5.4,3.65.64,2.25,2.2,4.11,2.74,6.39a7,7,0,0,1-3.08,7.8,6.4,6.4,0,0,1-7.5-.09c-2.71-1.77-3.31-4.2-2.45-7.36,1.46-5.41.66-7.48-2.57-8.1-4.14-.78-10.28,3.47-10.45,7.37-.14,3.17,2.09,4.25,4.75,4.7,1.95.32,4.07.19,5.54,1.8,2.25,2.46,2.85,5.29,1.13,8.23s-4.36,4.11-7.65,3.16A12.62,12.62,0,0,1,126.27,74.06Z"/><path class="cls-3" d="M126.27,74.06c2.45-.13,3,2.36,4.66,3.36,2.58,1.56,5.16,2.21,7.9.38A5.09,5.09,0,0,0,141,71.7c-.61-2.15-1.56-3.81-4.49-3.54-3.4.31-7-.28-8.32-4s1.12-6.28,4-8.31c3.35-2.39,7-4.41,11-2,3.36,2,2.54,5.57,1.25,8.48-1.19,2.66-2.12,4.78,1,6.7,2.53,1.54,4.94,2,7.28-.1s3.19-4.94,1.46-8c-.86-1.55-3.38-2.8-1-5,6.13,2.66,7.24,8,3.16,15.17-2.68,2.13-5.57,3.8-9.12,2.8-1.55-.44-2,0-2.33,1.39-1,4.12-3.84,6.38-7.86,7.33a11.66,11.66,0,0,1-10.08-3.87C125.59,77.26,124.56,75.84,126.27,74.06Z"/><path class="cls-28" d="M147.54,50c0,.87-.59,1.15-1.24,1.08-1.15-.11-1.62-1-1.72-2-.08-.83.58-1.18,1.25-1.12C147,48,147.36,49,147.54,50Z"/><path class="cls-29" d="M124.8,64.07a.71.71,0,0,0,.15.63c-1.06,1.21-2.06,1.42-3-.11-.49-.79-.58-1.63.29-2C123.66,61.86,123.94,63.54,124.8,64.07Z"/><path class="cls-20" d="M146.14,31c-2-3.26-.73-7.78-4.34-10.56-.78-.61.58-2.47,2.29-1.94a5.66,5.66,0,0,1,4,5.66c.06,2.35,2.54,5.72-2,6.75Z"/><path class="cls-30" d="M80.16,96.8a12.29,12.29,0,0,1-2-1.7c-.78-1.07-.06-1.83.78-2.45s2.29-1.27,2.56-.34c.86,2.94,2,3.3,4.28,1.33.57-.51,1.19,0,1.37.79a1.76,1.76,0,0,1-.86,2.12,21.68,21.68,0,0,0-6.45,4.2,1.83,1.83,0,0,1-2.66-.3c-.53-.78.11-1.45.93-1.93A14.4,14.4,0,0,0,80.16,96.8Z"/><path class="cls-31" d="M70.65,99.37a7,7,0,0,1,1.12,1.78c.26.91-.71,1.07-1.21,1a1.64,1.64,0,0,1-1.41-1.65C69.15,99.67,69.7,99.43,70.65,99.37Z"/><path class="cls-32" d="M91.27,88.16c-.16.18-.44.75-.71.75a1.37,1.37,0,0,1-1.48-1.51c0-.38.48-1.09.64-1.07A1.76,1.76,0,0,1,91.27,88.16Z"/><path class="cls-33" d="M135.6,64.81c-1.51-.57-3.8-.22-4.24-2.46-.4-2,5.13-5.66,7.87-5.64,2,0,2.23,1.2,2.13,2.54C141.09,62.67,139.29,64.68,135.6,64.81Z"/></svg>