<svg id="Layer_1" data-name="Layer 1" xmlns="http://www.w3.org/2000/svg" viewBox="0 0 595.28 841.89"><defs><style>.cls-1{fill:#4b4b4b;}.cls-2{fill:#b42063;}.cls-3{fill:#fff;}.cls-4{fill:#ececec;}.cls-5{fill:#ed2183;}.cls-6{fill:#4d4d4d;}.cls-7{fill:#eaeaea;}</style></defs><title>Single Home</title><path class="cls-1" d="M367.62,319.45c0,20.31.14,40.62-.13,60.92-.06,4.35,1.27,5.62,5.25,4.95a9.88,9.88,0,0,1,2.49,0c1.68.16,4.29-.67,4.15,2.11s-2.72,1.85-4.39,1.85q-93.39.06-186.76,0c-1.68,0-4.35.78-4.38-1.85,0-3.06,2.86-2,4.63-2.08,7.13-.18,7.13-.13,7.13-7.46q0-29.22,0-58.43c1.35-1.39,2.8-1.27,4.3-.27,1.42,2,1.12,4.23,1.15,6.43.27,12.47,0,24.94.13,37.4,0,6.48.26,6.7,6.76,6.72,9,0,18,0,26.94,0,5.76,0,6.1-.41,6.15-6.33.11-12.46-.14-24.93.13-37.4a30.21,30.21,0,0,1,.37-6.44c1.34-2.19,1.92-5.7,5.87-3.44a11.33,11.33,0,0,1,.7,4.89c-.2,18.63,0,37.25-.07,55.88,0,2.1-.57,4.39,1.42,6,5.05,1.65,10.21.76,15.32.65,3.34-.06,3.23-2.8,3.26-5.12.09-7.48,0-14.95,0-22.43,0-1.83,0-3.66.15-5.48.4-4.09,2.63-6.36,6.73-6.63a103.43,103.43,0,0,1,12.45,0c5.37.28,7.43,2.3,7.64,7.8.31,8.3.06,16.61.11,24.92.05,6.93.28,7.25,7.4,7.14,3.78-.06,7.65.81,11.29-.87,1.93-1.72,1.34-4,1.34-6.1,0-18.27.09-36.55,0-54.82a10.82,10.82,0,0,1,.69-4.88c3.46-2.33,4.24.85,5.66,2.73,1.31,7.71.44,15.49.61,23.24q.22,10.41,0,20.83c-.09,4.08,1.26,6.35,5.65,6,7.81-.22,15.62,0,23.43-.1,12-.09,10.77,1.16,10.86-11.1.09-11-.17-21.94.12-32.91,0-2.22-.27-4.5,1.12-6.48C364.78,318.18,366.23,318.05,367.62,319.45Z"/><path class="cls-2" d="M199.62,319.45h-4c-2.52-.93-6.66,1.59-7.52-1.78-.8-3.15,3.48-3.88,5.68-5.34,10.54-7,21.24-13.66,31.8-20.59a13.89,13.89,0,0,1,8.34-2.5c8.48.18,17-.44,25.44.21,7.06.55,12.31-1.55,17.14-6.57s5.38-5,10.17.15c4.52,4.89,9.49,6.88,16.22,6.42,8.77-.6,17.62,0,26.43-.21a14,14,0,0,1,8.35,2.5c11.12,7.28,22.36,14.38,33.49,21.64,1.68,1.1,4.77,1.7,4.11,4.31-.7,2.77-3.67,1.26-5.65,1.6a18.65,18.65,0,0,1-2,.16h-4c-2,1.58-4.37,1.29-6.65,1.3-8.74,0-17.48.05-26.22,0-1,0-2.21-.45-2.91,0-4.36,2.94-4.32,3-7.34-1.2l-3.91-3.49c-7.52-3.54-12.49-10.21-18.59-15.46-4.62-4-9.49-7.78-13.59-12.36-2.09-2.33-3.73-1.61-5.86.2-9.34,7.93-18,16.62-27.4,24.49-1.35,1.13-2.34,2.91-4.52,2.62a10.93,10.93,0,0,0-4.08,3.85c-3.12,5.14-3.18,5.18-8.69,2.28a11,11,0,0,0-5.3-.9c-7.59,0-15.18,0-22.77,0C203.64,320.74,201.45,320.93,199.62,319.45Z"/><path class="cls-3" d="M315.59,385.06c-6.14.08-12.29,0-18.42.29-2.77.12-3.68-.67-3.63-3.54.17-10,.09-19.94.06-29.9,0-5.62-1-6.56-6.76-6.61-3.49,0-7,0-10.46,0-5.75.05-6.74,1-6.76,6.6,0,10-.12,19.94.05,29.9.05,2.86-.84,3.67-3.62,3.56-6.14-.24-12.29-.17-18.43-.22-1-1.89-.46-3.92-.47-5.88-.05-17.48,0-35-.09-52.44a9.58,9.58,0,0,1,3.25-7.87c8.45-7.76,17.16-15.24,25.52-23.12,4.64-4.37,6.42-4.09,11,.17,8.5,7.95,17.36,15.53,25.86,23.49,2.06,1.92,3.48,3.74,3.47,6.76-.09,18.81-.05,37.62-.05,56.44A3.36,3.36,0,0,1,315.59,385.06Z"/><path class="cls-3" d="M242.48,325.31c.07,14.32.08,28.64.24,42.95,0,2.41-.71,3.11-3.1,3.09q-18.48-.17-37,0c-2.38,0-3.12-.67-3.09-3.08.15-14.32.16-28.64.21-43,1.57-1.59,3.63-1.57,5.61-1.57,11.31.05,22.63-.37,33.94.36A4.65,4.65,0,0,1,242.48,325.31Z"/><path class="cls-3" d="M363.44,324.31c.06,14.32.06,28.63.21,42.95,0,2.39-.67,3.12-3.07,3.09-11-.17-22-.16-33-.22-1.59-1.56-1.57-3.6-1.59-5.59-.07-11.47-.12-22.94,0-34.41.08-6.11,1.29-7.3,7.37-7.4,8.14-.13,16.29-.09,24.44,0C359.83,322.74,361.88,322.72,363.44,324.31Z"/><path class="cls-4" d="M315.56,385.05q0-26.67,0-53.34a18.07,18.07,0,0,0-1-7.25c-1.16-2.72-3.55-4.68-5.82-6.56a287,287,0,0,1-22.57-20.83c-1.49-1.53-3.32-3.21-5.43-2.89a6.79,6.79,0,0,0-3.3,2l-25.6,23.26a9.88,9.88,0,0,0-4.31,9.5l.06,56.2c-.91-.43-1-1.64-1-2.64V317c0-.54-.17-1.24.23-1.63,1.79-1.73,3.71-3.34,5.57-5l11.13-10,11.13-10,5.13-4.62a3,3,0,0,1,1.51-.88,2.92,2.92,0,0,1,2.15,1.06l31.2,28.5a5.69,5.69,0,0,1,1.65,2,5.86,5.86,0,0,1,.26,2.13c0,5,0,10,0,14.92l0,15,0,15,0,15v3.63A3.79,3.79,0,0,1,315.56,385.05Z"/><path class="cls-4" d="M289.61,367.32c0,5-.12,10,0,14.94.08,2.39-.71,3-3.08,3.11-13,.59-13,.66-13-12.11,0-7,.09-13.95-.05-20.92-.05-2.38.71-3,3.08-3.11,13-.59,13-.66,13,12.11Z"/><path class="cls-4" d="M363.44,324.31c-10.46,0-20.92.12-31.38-.08-3.51-.06-4.56,1.1-4.52,4.56.17,13.78.08,27.56.08,41.34-1.33.06-2.67,0-4,.19-2.63.35-3.41-.71-3.38-3.33.16-16.14.16-32.29.22-48.44,1.16.92,2.33,1.82,3.49,2.75s2.73,1.2,2.92,0c.7-4.43,3.93-2.9,6.31-2.91,10.13-.06,20.27,0,30.4.1C363.55,320.4,363.49,322.36,363.44,324.31Z"/><path class="cls-3" d="M221.1,375.33h19a2.06,2.06,0,0,1,2.71,2.35v5.38a2.5,2.5,0,0,1-.31,1.48,2.58,2.58,0,0,1-2.22.73H201.56a2.23,2.23,0,0,1-1.28-.26,2.2,2.2,0,0,1-.67-1.71,44.69,44.69,0,0,1,0-5.55c0-.69-.06-1.41.49-1.89a2.81,2.81,0,0,1,1.93-.52Z"/><path class="cls-3" d="M326.76,375.74l.15-.06a5.16,5.16,0,0,1,1.76-.21l31.24-.15a3,3,0,0,1,2.41.72,3.17,3.17,0,0,1,.35,2.3,25.49,25.49,0,0,0,0,4.28,2.71,2.71,0,0,1-.42,2.16,2.54,2.54,0,0,1-1.9.5l-32.81-.16a1.75,1.75,0,0,1-.88-.16,1.63,1.63,0,0,1-.56-.73,9.79,9.79,0,0,1-.94-4.64C325.19,378.27,325.39,376.35,326.76,375.74Z"/><path class="cls-4" d="M242.48,325.31H199.77l-.15-5.86,32.73-.14c.82,0,2.27-.12,2.38.19,2.75,7.71,5.23.32,7.8-.1C242.52,321.37,242.5,323.34,242.48,325.31Z"/><path class="cls-5" d="M298.29,293.31c11.77,0,22.34,0,32.91,0a5.38,5.38,0,0,1,2.76.87c10.59,6.72,21.15,13.5,32.94,21H323.51a3.81,3.81,0,0,1-2.63-1.22Z"/><path class="cls-5" d="M264.42,293.3c-7.65,7.16-14.58,13.56-21.42,20.07a6.51,6.51,0,0,1-4.86,2c-13.46-.06-26.92,0-41.81,0,12-7.69,22.88-14.72,33.83-21.66.75-.47,1.94-.32,2.93-.33C243.21,293.29,253.34,293.3,264.42,293.3Z"/><path class="cls-6" d="M281.55,305.31a12,12,0,1,1-11.93,12.17A12.32,12.32,0,0,1,281.55,305.31Z"/><path class="cls-1" d="M233.6,344.1c0,4,0,8,0,12,0,3.49-1.68,5.22-5.19,5.21-4.49,0-9,0-13.48,0-3.45,0-5.33-1.53-5.33-5.07q0-12,0-24c0-3.24,1.67-4.93,4.92-4.95,4.66,0,9.32,0,14,0,3.54,0,5.11,1.86,5.08,5.31C233.58,336.44,233.61,340.27,233.6,344.1Z"/><path class="cls-1" d="M353.6,343.24c0,3.83-.05,7.66,0,11.49s-1.53,5.61-5.34,5.58c-4.49,0-9,0-13.48,0-3.5,0-5.21-1.71-5.2-5.2q0-11.75,0-23.48c0-3.45,1.54-5.32,5.08-5.32,4.66,0,9.32,0,14,0,3.26,0,4.92,1.7,4.94,4.94C353.62,335.25,353.6,339.24,353.6,343.24Z"/><path class="cls-7" d="M281.54,309.31a8,8,0,1,1-7.92,7.93A8,8,0,0,1,281.54,309.31Z"/><path class="cls-4" d="M219.61,344.79c0,3.15-.13,6.31,0,9.45.12,2.34-.6,3.15-3,3.14s-3.1-.78-3.05-3.13q.21-9.94,0-19.89c-.05-2.33.6-3.15,3-3.14s3.17.77,3.05,3.13C219.48,337.82,219.61,341.31,219.61,344.79Z"/><path class="cls-4" d="M229.61,344.34c0,3.32-.14,6.64,0,10,.13,2.41-.72,3.07-3.09,3.09s-3-.9-3-3.18q.19-9.94,0-19.89c-.05-2.41.72-3.07,3.09-3.09s3.1.89,3,3.18C229.49,337.71,229.61,341,229.61,344.34Z"/><path class="cls-4" d="M333.61,344.36c0-3.33.13-6.67-.05-10-.12-2.36.62-3.15,3.06-3.15s3.14.85,3,3.17c-.16,3.33,0,6.66,0,10,0,1.4.18,2.83,2,2.83s2-1.41,2-2.82c0-3.33.13-6.67,0-10-.11-2.3.52-3.2,3-3.18s3.12.76,3.07,3.14c-.13,6.65-.09,13.32,0,20,0,1.94-.19,3.2-2.64,3-1.86-.15-3.76.25-3.42-2.69.18-1.56-.16-3.29-2.2-3.12-1.61.14-1.92,1.72-1.74,3.11.39,2.92-1.52,2.55-3.4,2.7-2.42.18-2.71-1-2.65-3C333.68,351,333.61,347.69,333.61,344.36Z"/><rect class="cls-4" x="320.35" y="375.48" width="7.44" height="9.6"/></svg>