<svg id="Layer_1" data-name="Layer 1" xmlns="http://www.w3.org/2000/svg" viewBox="0 0 183.8 198.93"><defs><style>.cls-1{fill:#ececec;}.cls-2{fill:#4c4b4c;}.cls-3{fill:#b42063;}.cls-4{fill:#4d4c4c;}.cls-5{fill:#4c4c4c;}.cls-6{fill:#b52264;}.cls-7{fill:#4d4d4d;}.cls-8{fill:#b52364;}.cls-9{fill:#4d4c4d;}.cls-10{fill:#545051;}.cls-11{fill:#565556;}.cls-12{fill:#ed2183;}.cls-13{fill:#ebebec;}.cls-14{fill:#ebeaeb;}.cls-15{fill:#ec2082;}.cls-16{fill:#eaeaea;}.cls-17{fill:#e8e6e7;}.cls-18{fill:#ed1c80;}.cls-19{fill:#fcfcfc;}.cls-20{fill:#f7f6f6;}</style></defs><title>Three Brushes &amp;amp;  one bucket-01</title><path class="cls-1" d="M100.67,171.35a4.15,4.15,0,0,1,1.28-.7c7.33-1,7.72-1.42,7.72-9.08,0-14.53,1.15-29,2-43.49.14-2.5,0-4.75-3.33-4.74.74-2.31,2.79-1.92,4.49-2,2.43-.2,4.9-.12,7.77-1.46-3.28-.75-6.49,1-8.94-1.31v-3c1-2.24,3.11-2.26,5.09-2.37a88,88,0,0,0,21.94-4.37c5.25-1.68,6.32-.85,5.56,4.76-2.61,19.26-5.82,38.44-8.59,57.68-.67,4.64-3.25,7.38-7.83,8.54a118.69,118.69,0,0,1-20.67,3.15C104.94,173.05,102.47,173.41,100.67,171.35Z"/><path class="cls-2" d="M100.67,171.35c9,.39,17.9-1,26.71-2.89,4.17-.9,6.37-3,7-7.56,2.81-20.59,6-41.12,9.22-62.48-10.42,4.81-21.29,5.38-31.93,7.08-15.77,0-31.56.55-47.11-3a86,86,0,0,1-12.8-4.08c1.84,12.09,3.62,23.82,5.39,35.55.62,4.11,1.17,8.22,1.81,12.32.27,1.72.67,3.68-1.66,3.88-2,.16-2-2-2.26-3.32-1.5-9.51-2.89-19-4.33-28.56-1.14-7.56-2.19-15.12-3.5-22.65-1-6-.06-8.4,5.43-11.18a33.37,33.37,0,0,1,9.87-3.29c1.23.93,1.23,2.19.94,3.52-1.67,2.91-5.15,2.5-7.57,4.07-1.07.7-2.63,1.07-2.71,2.58-.11,1.87,1.64,2.25,3,2.79,2.27,1,4.64,1.6,7,2.33a33.43,33.43,0,0,0,4.31,1c4.7,1,9.46,1.51,14.23,2,2.4.85,4.9.45,7.36.55,3.71-.09,7.41-.1,11.11,0,1.39,0,2.78,0,4.16,0,1.07,0,2.14,0,3.21,0a25.75,25.75,0,0,0,5.38-.76,61.13,61.13,0,0,1,6.2-.3c1.75,0,3.4-.75,5.14-.82a23.08,23.08,0,0,0,4.2-.73,34.85,34.85,0,0,0,4-1.07c2.37-.75,4.75-1.46,7-2.41,1.21-.49,2.67-1,2.77-2.51s-1.41-2.07-2.53-2.73-2.42-1.11-3.25-2.22c-.19-1.76-.28-3.47,1.95-4.07,2.23,1.1,4.55,2.06,6.67,3.34,3,1.82,4,4.6,3.51,8.11-3.61,23.13-7.32,46.26-10.64,69.44-.66,4.6-3,6.74-6.89,8-7.81,2.54-15.92,3.48-24,3.87-13.32.63-26.62.31-39.67-2.91-8.48-2.09-12.31-8.21-10.75-16.69.19-1.07.49-2,1.72-2a2.07,2.07,0,0,1,2.08,1.82,24.38,24.38,0,0,1,.86,5.9c-.13,4.45,2.64,6.07,6.27,6.94A116.25,116.25,0,0,0,100.67,171.35Z"/><path class="cls-3" d="M62.54,85.41c0-1.4,0-2.8,0-4.2.06-3.32.19-6.65.14-10,0-2.94.3-6.16,2.41-7.89,4.19-3.44,3.62-7.79,3.61-12.21q0-8.73,0-17.46c1.2-1.32,2.58-1.22,4-.51,2.15,2.77,1.24,6,1.38,9.12.17,3.8-.11,7.6.6,11.4.72-6.75.51-13.52.47-20.29a9.09,9.09,0,0,1,5.39-6.93c0,9.43.06,18.87.16,28.31,0,1.41-.69,3.21.91,4.11C88.56,62.8,89,69.28,88.7,76.13a10.56,10.56,0,0,0,.13,1.48C90,78.86,90,80.42,90.07,82c.25,4.67.12,9.33.08,14,0,1.81,0,3.7-1.4,5.15-2.43.22-4.89.85-7.22-.44.86-1.78,1.81-3.48,1.79-5.6-.06-7.79.15-15.59-.1-23.38C83,66.5,79.63,63,75.4,63.18c-1,0-2.09.1-2.71,1-.8,1.14.42,1.73.92,2.5,3.19,4.9,2.73,8.28-2.17,11.22-2.73,1.64-3.26,3.71-3.45,6.54-.32,4.7,1.34,9.61-1.27,14.1a6.11,6.11,0,0,1-4.13-1.06A12.42,12.42,0,0,1,62.54,85.41Z"/><path class="cls-4" d="M105.68,70.63c-9.44-2.4-9.51-2.41-8-11.95,1.18-7.21,2.72-14.37,3.79-21.6.46-3.15,1.87-3.92,4.7-3.33,3.26.68,6.57,1.11,9.8,1.87,4.23,1,7.11,3.78,6.51,8.14-1.14,8.16-1.71,16.47-4.66,24.29C114.93,72.34,111.54,73.05,105.68,70.63Z"/><path class="cls-5" d="M131.84,63.78c-10.39-3.59-9.68-1.46-6.22-12.29,2.27-7.08,4.76-14.1,6.85-21.23.89-3,2.42-3.58,5.11-2.65,3.12,1.09,6.33,1.94,9.4,3.13,4.24,1.65,6.71,5,5.39,9.37-2.27,7.56-4.06,15.32-7.6,22.46-1.38,1.68-2.67,3.5-5.07,3.85a7.09,7.09,0,0,1-2.9-.12C135.05,65.67,132.93,65.74,131.84,63.78Z"/><path class="cls-4" d="M72.75,33.61l-4.08.07c-6.42-.34-8.19-2.83-8-11.14.18-6.23,1.93-8.88,5.95-9,9.15-.33,13.35,2.35,14,9a35.46,35.46,0,0,1-.07,4c-1.36,2.22-2.5,4.63-4.9,6C75.08,33.87,74.19,34.46,72.75,33.61Z"/><path class="cls-6" d="M105.68,70.63c4.19-.27,8.75,1.22,12.19-2.57-.39,3.46-.79,6.93-1.18,10.39.81,1.57.28,3.17.15,4.77-1.62,5.74-1.25,12-4.43,17.32a7.61,7.61,0,0,1-4.87.74c-1.28-3.89.7-7.46,1.18-11.16.69-5.34,2.63-10.5,2.22-16-3.28,8.81-3.21,18.37-6.18,27.24l-4.44,0c-1.82-4.15.36-8.08.71-12.11a46.76,46.76,0,0,1,1.29-7.32,7.44,7.44,0,0,1,2.09-4.34Q105.06,74.11,105.68,70.63Z"/><path class="cls-7" d="M111.68,108.52c2.93-.24,5.86-.47,8.78-.72,1.48-.12,2.76.29,2.84,1.93.07,1.39-1.11,1.8-2.34,2-4.2.53-8.4,1.1-12.6,1.65-12.5.35-25,.29-37.36-1.73-1.82-.29-4.84.32-4.23-2.68.55-2.73,3.36-1.36,5.12-1.1A170.06,170.06,0,0,0,109.75,109,11.15,11.15,0,0,0,111.68,108.52Z"/><path class="cls-8" d="M131.84,63.78l5,1.58c-3.89,11.41-6.76,23.17-12.09,34.07l-5.11.59c-.66-5.92,2.95-10.73,4.16-16.17a11.15,11.15,0,0,1,2.75-4.21Z"/><path class="cls-6" d="M139.6,65.58l5.17-3-6.36,20-1.5,3.9a15.51,15.51,0,0,1-3.89,11,7.37,7.37,0,0,1-4.42,1,2.45,2.45,0,0,1-.47-2.35c3-9.65,5.85-19.36,9.88-28.67A7.13,7.13,0,0,1,139.6,65.58Z"/><path class="cls-9" d="M104.41,77.59c-.29,1.34-.57,2.67-.86,4a17.7,17.7,0,0,1-14.73.06c0-1.35,0-2.7,0-4Z"/><path class="cls-10" d="M126.53,79.64a6.18,6.18,0,0,1-1.66,4c-3.24,1.47-6.21.73-9.05-1.12a5.49,5.49,0,0,1,.87-4Z"/><path class="cls-11" d="M63.93,108.5a2,2,0,0,1-2.88,1.56c-1.19-.35-2.75-.43-2.54-2.27s1.45-1.88,2.87-1.6S64,106.58,63.93,108.5Z"/><path class="cls-12" d="M66.72,98.51c0-4.32,0-8.63,0-13-.06-4-.68-7.53,4.94-9.35,5.11-1.66,3.79-7.34-2.53-11.3a7.52,7.52,0,0,1,9.13-3c3.74,1.19,6.33,3.92,6.4,8,.17,9.13,0,18.27.12,27.41,0,2.48-1.13,3.18-3.2,3.31A53,53,0,0,1,66.72,98.51Z"/><path class="cls-13" d="M88.82,81.66l14.73-.06q-1.62,9.89-3.23,19.76l-11.57-.24Q88.8,91.4,88.82,81.66Z"/><path class="cls-14" d="M115.82,82.47l9.05,1.12c-1,5.72-3.41,11-5.25,16.43l-7.21.52A120.42,120.42,0,0,1,115.82,82.47Z"/><path class="cls-15" d="M139.6,65.58q-5.49,16.44-11,32.9a6.36,6.36,0,0,1-3.87,1c3.35-11.6,6.19-23.38,12.09-34.07Z"/><path class="cls-15" d="M104.76,101.34c-.24-8.09,2-15.83,3.57-23.64.39-2-1.41-7.11,3.48-5.84,3.25.85.84,4.56.5,6.65-1.25,7.65-3.13,15.19-4.77,22.77Z"/><path class="cls-16" d="M62.54,85.41q0,6,.05,12a25.26,25.26,0,0,1-9.27-3.31c-3-1.66-3.31-3.61-.1-5.39A25.8,25.8,0,0,1,62.54,85.41Z"/><path class="cls-17" d="M133,97.46q1.93-5.5,3.89-11c2.82,1.21,7.27,1.62,7.25,5s-4.53,3.75-7.32,5A21.87,21.87,0,0,1,133,97.46Z"/><path class="cls-12" d="M72.75,33.61l2.9-1.13c2.28,4.87.51,10,1,15,.22,2.29,0,4.63,0,6.94,0,1.54,0,3.14-2.23,3-2-.15-1.74-1.68-1.74-3C72.69,47.5,72.73,40.55,72.75,33.61Z"/><path class="cls-18" d="M70.49,71.23c-.14,1.32-.71,2-1.85,2A1.61,1.61,0,0,1,67,71.82a1.66,1.66,0,0,1,1.53-2C69.65,69.63,70.16,70.47,70.49,71.23Z"/><path class="cls-19" d="M107.76,46.37c1-.1,3.23,1.14,3.76-1.16.63-2.77-1.92-2.41-3.59-2.88-1.27-.36-3.26-.13-2.64-2.59.5-2,1.92-1.45,3.18-1.28,2.13.31,4.27.62,6.37,1.1,2.92.66,4.15,2.58,3.61,5.53-1.06,5.7-2.32,11.37-3.18,17.1-.62,4.11-2.7,5.33-6.55,4.44-1.93-.44-3.92-.67-5.89-.95-1.19-.17-2.35-.22-1.91-2,.38-1.59,1.09-2.3,2.79-1.75a13.2,13.2,0,0,0,2.94.5,1.84,1.84,0,0,0,2.16-1.59,1.82,1.82,0,0,0-1.41-2.26c-1.29-.34-2.58-.65-3.88-.94-1.47-.32-1-1.38-1-2.33.12-1.21.67-1.79,2-1.33a3.65,3.65,0,0,0,1,.24c1.74.14,4.14,1.23,4.74-1.16.68-2.68-2.06-2.28-3.65-2.85-1.22-.44-3.28,0-2.82-2.49S105.91,46.35,107.76,46.37Z"/><path class="cls-19" d="M137.73,61.32,129,58.5c-1.55-.5-.75-1.51-.55-2.4s.46-1.65,1.59-1.36c.64.17,1.23.54,1.88.65,1.63.27,3.81,1.9,4.56-.86.6-2.23-1.66-2.44-3.17-3-1.35-.5-3.2-.64-2.52-2.85s2.36-1.28,3.71-.91c1.56.43,3.45,1.66,4.28-.56,1-2.65-1.69-2.66-3.17-3.4-1.2-.59-3.23-.2-2.34-2.74.81-2.3,2.07-1.31,3.51-.94,1.63.42,4,1.77,4.63-.83s-2.07-2.43-3.62-3.13c-1.11-.51-2.68-.58-2.13-2.62.65-2.4,2.14-1.42,3.5-1.05,1,.25,1.89.62,2.84.92,7.19,2.33,7.46,2.83,5.15,9.85-1.55,4.72-3.07,9.45-4.69,14.14C141.75,59.51,140.77,61.48,137.73,61.32Z"/><path class="cls-20" d="M65.63,27.24c-2.21-7.87.06-11.12,6.46-9.64,3,.7,4.36,2.91,4.48,5.77a5.69,5.69,0,0,1-3.72,5.87c-1.39.55-2.94.85-2.49-1.88.31-1.9,1.51-5.07-1.31-5.54C65.38,21.21,67.53,25.44,65.63,27.24Z"/></svg>