<svg id="Layer_1" data-name="Layer 1" xmlns="http://www.w3.org/2000/svg" viewBox="0 0 167.91 160.21"><defs><style>.cls-1{fill:#dcdbda;}.cls-2{fill:#4b4b4b;}.cls-3{fill:#dbdada;}.cls-4{fill:#fff;}.cls-5{fill:#ebecec;}.cls-6{fill:#ebebec;}.cls-7{fill:#b42063;}.cls-8{fill:#ececec;}.cls-9{fill:#ed2183;}</style></defs><title>Tripple Story-01</title><path class="cls-1" d="M70.52,123.5c0-14.15-.06-28.31,0-42.47,0-2.48-.18-4.44-2.88-5.64a5.13,5.13,0,0,1-2.9-6.25A6,6,0,0,1,70,64.5a23.87,23.87,0,0,1,3.49-.09H201.44a18.84,18.84,0,0,1,4.45.33,5.67,5.67,0,0,1,4.43,4.87c.39,2.33-.48,4.66-2.56,5.5-3.49,1.41-3.31,4-3.31,6.91,0,13.82,0,27.65,0,41.47-2.07.55-3.74.07-4.84-1.88-1.38-6.54-.52-13.17-.65-19.75S198.78,89,199,82.54c0-4.28-2.92-4.56-6.14-4.56H152q-34.65,0-69.3,0C79.44,78,76,77.76,76,82.47c.17,11.41,0,22.82.06,34.22a13.32,13.32,0,0,1-.64,4.89A3.86,3.86,0,0,1,70.52,123.5Z" transform="translate(-52.13 -64.39)"/><path class="cls-2" d="M200.45,122.25c1.4.18,2.87.13,4,1.25v53.81c-1,2.12-2.86,2.37-4.83,2.53q-43.78.42-87.55,0c-1.6,0-3.19.09-4.78,0-10.68.13-21.36.23-32,0-2-.12-3.8-.44-4.71-2.51V123.5c1.11-1.12,2.59-1.07,4-1.25,2-1.63,4.36-1.44,6.66-1.44q56.31,0,112.61,0C196.09,120.81,198.47,120.62,200.45,122.25Z" transform="translate(-52.13 -64.39)"/><path class="cls-3" d="M70.52,177.31c1.11,1.13,2.59,1.07,4,1.26,1.77,1.93,1.45,4.35,1.46,6.64.06,8.82,0,17.64,0,26.45a23.15,23.15,0,0,0,.26,4.48c.24,1.27.82,2.23,2.25,2.2s2-1,2.18-2.28c.47-3,.18-6,.26-9,0-.67,0-1.33,0-2,0-11.22,4.86-14.8,15.86-11.83,3.42.92,4.82,3.32,5,6.6.29,4.16.08,8.32.14,12.48a13.58,13.58,0,0,0,.47,4.44,1.59,1.59,0,0,0,1.36,1.26c1,.08,1.48-.56,1.73-1.42a15.92,15.92,0,0,0,.39-4.46c0-9,0-18,0-26.95,0-2.29-.31-4.71,1.47-6.64h4.06c1.9,2.08,1.5,4.68,1.52,7.13.07,9.16.12,18.32,0,27.48-.06,4,1.31,5.7,5.48,5.69q37.47-.13,74.95,0c4.17,0,5.54-1.73,5.48-5.69-.12-9.16-.08-18.32,0-27.48,0-2.45-.38-5,1.53-7.13,1.4-.19,2.87-.13,4-1.26,0,12.5.27,25-.08,37.48-.13,4.81,1.53,6.16,6,5.67a49.3,49.3,0,0,1,7.49,0c1.24.05,2.37.61,2.25,2.1-.1,1.14-1.08,1.63-2.13,1.71-1.33.11-2.66.1-4,.1q-78,0-155.91-.06c-2.1,0-5.84,1.24-5.87-1.77,0-3.6,3.87-2.06,6-2.09,12.31-.18,12.31-.1,12.32-12.2Q70.48,192.81,70.52,177.31Z" transform="translate(-52.13 -64.39)"/><path class="cls-4" d="M200.45,122.25l-113,.15c-4.33,0-8.66-.1-13-.15q0-19.92,0-39.82c6.09-2.34,12.15-2.72,18.16.27C91.53,90.8,92,99,92,107.09c0,3.87,1.6,5.68,5.64,5.89,13.25.69,13.42.63,13.41-12.64,0-5.81.27-11.64-.81-17.42,4.13-2.85,12.11-2.9,16.51-.12-1.25,7.92-.76,15.91-.71,23.87,0,5.2,1,6,6.16,6.26,12.85.53,12.86.53,12.85-12.11,0-6,.29-12-.81-17.9,4.14-2.85,12.13-2.9,16.51-.11-1.25,7.88-.75,15.84-.71,23.77,0,5.25,1,6.12,6,6.35,13,.6,13,.6,13-12.39,0-6,.21-11.9-.73-17.82a3.75,3.75,0,0,1,3.39-1.66c6.28.24,12.72-1.72,18.78,1.37Z" transform="translate(-52.13 -64.39)"/><path class="cls-5" d="M92.46,83.13,83,83c-1.21,0-7.56.68-8.26-.48a4,4,0,0,1,1.12-5.23,7.94,7.94,0,0,1,4.53-.92H194.65c1.68,0,5.38,1,6.15,2.72,1.81,3.93-5,3.33-7.08,3.42-10.53.47-21.08.6-31.62.68q-22.48.18-45,.09-11.4,0-22.79-.16Z" transform="translate(-52.13 -64.39)"/><path class="cls-6" d="M137.48,72.41H76c-1,0-2,0-3,0-1.6-.08-3.94.36-4-1.87,0-2.66,2.52-1.94,4.22-2.11.5,0,1,0,1.5,0H200.22c.66,0,1.33,0,2,0,1.6.1,3.87-.25,3.73,2.11s-2.38,1.86-4,1.86Q169.72,72.44,137.48,72.41Z" transform="translate(-52.13 -64.39)"/><path class="cls-4" d="M137,174.41c-19.48,0-39-.08-58.45.08-3.28,0-4.15-.88-4.1-4.13q.27-20,0-40c0-3.35,1-4.07,4.17-4.06q58.94.16,117.89,0c3.28,0,4.15.88,4.1,4.13q-.27,20,0,40c.05,3.35-1,4.08-4.17,4.06C176.58,174.34,156.76,174.41,137,174.41Z" transform="translate(-52.13 -64.39)"/><path class="cls-4" d="M200.45,178.57c0,12.32-.09,24.64.09,37,.06,3.52-.65,5-4.62,5q-39.94-.25-79.89,0c-4,0-4.68-1.46-4.62-5,.18-12.31.09-24.63.1-37Z" transform="translate(-52.13 -64.39)"/><path class="cls-4" d="M107.45,178.57c0,12.48,0,25,0,37.44,0,2.54,0,4.49-3.55,4.49s-3.52-2-3.49-4.53c.06-5.16-.1-10.32.05-15.48.13-4.13-1.41-6.15-5.78-6.12-12.67.1-12.45-1.06-12.26,12.1,0,3.33-.15,6.66,0,10,.19,3.07-1,4.05-4,4s-4.12-.86-4.08-4c.15-12.65.08-25.29.09-37.94Z" transform="translate(-52.13 -64.39)"/><path class="cls-1" d="M91.78,83.92a35.14,35.14,0,0,1,18,0c1.81.86,2,2.45,2,4.2,0,7.17,0,14.33,0,21.49,0,3.45-1.43,5.34-5,5.34-4,0-8,0-12,0-2.94,0-4.91-1.27-5-4.34-.1-7.83,0-15.66,0-23.48A3.35,3.35,0,0,1,91.78,83.92Z" transform="translate(-52.13 -64.39)"/><path class="cls-1" d="M124.46,83.38a35.14,35.14,0,0,1,18,0c1.82.86,2,2.45,2,4.2,0,7.17-.05,14.33,0,21.49,0,3.45-1.43,5.34-5,5.34-4,0-8,0-12,0-2.95,0-4.92-1.27-5-4.34-.1-7.83,0-15.66,0-23.48A3.35,3.35,0,0,1,124.46,83.38Z" transform="translate(-52.13 -64.39)"/><path class="cls-1" d="M160.34,83.56a35.14,35.14,0,0,1,18,0c1.81.86,2,2.45,2,4.2,0,7.17-.05,14.33,0,21.49,0,3.45-1.43,5.34-5,5.34-4,0-8,0-12,0-2.94,0-4.91-1.27-5-4.34-.1-7.83,0-15.66,0-23.48A3.35,3.35,0,0,1,160.34,83.56Z" transform="translate(-52.13 -64.39)"/><path class="cls-7" d="M124.49,149.8c0-3.49.07-7,0-10.46-.09-3.74,1.58-5.55,5.37-5.47s7.64,0,11.46,0c3.51,0,5.22,1.59,5.2,5.13,0,7.14-.07,14.29,0,21.43,0,3.73-1.57,5.54-5.37,5.47s-7.64-.06-11.46,0c-3.5,0-5.23-1.59-5.2-5.12S124.49,153.46,124.49,149.8Z" transform="translate(-52.13 -64.39)"/><path class="cls-7" d="M180.34,150.33c0,3.49-.07,7,0,10.47.09,3.7-1.49,5.59-5.31,5.52s-7.64-.06-11.47,0c-3.48.05-5.26-1.51-5.25-5.07,0-7.31,0-14.62,0-21.93,0-3.23,1.49-5,4.79-5q6.24,0,12.46,0c3.33,0,4.78,1.83,4.75,5.05C180.32,143,180.34,146.68,180.34,150.33Z" transform="translate(-52.13 -64.39)"/><path class="cls-7" d="M91.92,143.62c2,.68,2.15,2.29,2.12,4q-.06,3.5,0,7c.14,9.1-1.28,7.48,8,8,4.74.26,6.58-1,6.12-6a110.87,110.87,0,0,1-.06-14.47c.11-2.85-1-4-3.75-3.67-4.17.44-8.7-1.31-12.38,2.08-2.5-3-1.76-5.67,1.94-5.95,4.63-.34,9.32-.17,14-.07a3.85,3.85,0,0,1,4.11,4.1c.1,7.82.08,15.65,0,23.47,0,2.78-1.63,4.3-4.41,4.34-4.33.07-8.66,0-13,0-2.29,0-4.26-1.06-4.36-3.26-.27-6-.14-12,0-18C90.24,144.73,91.33,144.18,91.92,143.62Z" transform="translate(-52.13 -64.39)"/><path class="cls-1" d="M146.79,200.57c0,3.65,0,7.3,0,11,0,3.51-1.68,5.17-5.18,5.14-4,0-8,0-12,0-3.27,0-4.86-1.7-4.86-4.94,0-7.47,0-14.94,0-22.41,0-3,1.66-4.59,4.66-4.62,4.15,0,8.3,0,12.45,0,3.27,0,4.87,1.7,4.87,4.94C146.78,193.26,146.79,196.92,146.79,200.57Z" transform="translate(-52.13 -64.39)"/><path class="cls-1" d="M179.88,201.22c0,3.48,0,7,0,10.45,0,3.28-1.69,4.87-4.94,4.87-4.15,0-8.3,0-12.45,0-3,0-4.57-1.69-4.58-4.69,0-7.47,0-15,0-22.42,0-3.27,1.69-4.86,4.94-4.86,4.15,0,8.3,0,12.45,0,3,0,4.56,1.69,4.58,4.69C179.9,193.25,179.88,197.23,179.88,201.22Z" transform="translate(-52.13 -64.39)"/><rect class="cls-8" x="76.64" y="123.89" width="14.04" height="24.75"/><rect class="cls-8" x="109.73" y="123.78" width="14.04" height="24.75"/><rect class="cls-8" x="74.33" y="21.54" width="14.04" height="24.75"/><rect class="cls-8" x="41.65" y="22.08" width="14.04" height="24.75"/><rect class="cls-8" x="110.21" y="21.72" width="14.04" height="24.75"/><rect class="cls-8" x="33.89" y="132.55" width="10.26" height="22.16"/><rect class="cls-9" x="110.28" y="73.56" width="13.86" height="24.72"/><rect class="cls-9" x="76.43" y="73.13" width="13.86" height="24.72"/><rect class="cls-9" x="40.59" y="73.74" width="16.68" height="24.72"/></svg>