<svg id="Layer_1" data-name="Layer 1" xmlns="http://www.w3.org/2000/svg" viewBox="0 0 232.4 343.65"><defs><style>.cls-1{fill:#4c4b4c;}.cls-2{fill:#ececec;}.cls-3{fill:#b42063;}.cls-4{fill:#b42163;}.cls-5{fill:#4d4d4d;}.cls-6{fill:#4d4c4c;}.cls-7{fill:#4c4c4c;}.cls-8{fill:#fff;}.cls-9{fill:#ed2183;}.cls-10{fill:#ed2182;}.cls-11{fill:#ebeaeb;}.cls-12{fill:#e5e5e5;}.cls-13{fill:#ddd6da;}.cls-14{fill:#ed1c80;}.cls-15{fill:#eb1f81;}.cls-16{fill:#e51d7d;}.cls-17{fill:#f6f5f5;}.cls-18{fill:#f9f9f9;}.cls-19{fill:#d3d0d0;}.cls-20{fill:#504f50;}.cls-21{fill:#525252;}</style></defs><title>Two Brushes &amp;amp;  one bucket</title><path class="cls-1" d="M139.62,198.88c7.8,3.38,8,3.91,6.95,12.06-1.09,8.31-1.52,16.71-3.23,24.95-4.08,1.77-4.13-1.39-4.23-3.76-.19-4.65.94-9.21,1.24-13.84.08-1.11.75-2.24-.25-3.6a75.16,75.16,0,0,1-13.86,2.68c-14.79,1.85-29.52,1.83-44-1.93-3.33-.87-4.36-.78-3.87,3.14,2,15.66,3.9,31.32,5.67,47,.89,7.93,1.8,8.7,9.75,9.86a111.84,111.84,0,0,0,29.3.34c1.31-.22,2.64-.34,3.94-.59,5.78-1.1,7.05-2.19,7.62-8.06.72-7.43,1.77-14.82,2.64-22.24.27-2.38-.07-6.8,5-4.75,1.39,3.29.09,6.57-.2,9.81-.68,7.45-2,14.84-2.59,22.29-.29,3.56-2,5.44-5,6.64a39.14,39.14,0,0,1-11.15,2.53c-12,1-23.91,1.39-35.73-1.44-5.16-1.24-8-3.57-8.63-9.66-2.08-20.83-4.93-41.59-7.57-62.37-.41-3.24.67-5.56,3.46-7,2.05-1.07,4.24-1.85,6.36-2.77,1.43,1.16,1.29,2.64.87,4.17a2.63,2.63,0,0,1-.9,1.13c-3.74,2.5-3.74,2.5.58,4.74a15.74,15.74,0,0,0,4.85,1.32c5.51.91,11.09,1.15,16.6,2,1.35,0,2.71,0,4.06,0s2.72,0,4.09,0,2.72,0,4.07,0a159.16,159.16,0,0,0,16.61-2,17.62,17.62,0,0,0,4.88-1.35c4.19-1,4.34-3.11,1.61-6C138.34,200.9,138.27,199.66,139.62,198.88Z"/><path class="cls-2" d="M142.26,240.14c-3.92-.7-3.34,2.53-3.61,4.5-1,7.73-2.22,15.47-2.53,23.24-.25,6.16-3.46,8.34-8.81,8.89-1.31.13-2.64.13-4,.19a4.73,4.73,0,0,1-1.25-4.13c1.18-17.53,1.7-35.09,2.78-52.63a5.73,5.73,0,0,1,1.46-4.11A58.85,58.85,0,0,0,142.48,212c-.8,7.18-1.53,13.91-2.29,20.64-.28,2.41.17,4,3.15,3.25Z"/><path class="cls-3" d="M81.23,202.59c0-1.48,0-3,0-4.44,0-5.82.14-11.65.11-17.47,0-3.48.77-6.81,3.27-9.14,2.35-2.18,2.86-4.52,2.79-7.48-.14-7,0-14,0-21,1.2-1.32,2.58-1.22,4-.51,2.15,2.78,1.21,6.05,1.39,9.13.21,3.79-.28,7.6.65,11.39a193.28,193.28,0,0,0,.4-20.28,9.14,9.14,0,0,1,5.4-6.94c0,9.43.1,18.86.12,28.29,0,2-.09,3.69,2.11,5,4.31,2.62,5.94,6.86,5.91,11.84,0,4.63.09,9.26.14,13.89a6.53,6.53,0,0,1,1.24,4.34c-.3,4.51,1.32,9.21-1.38,13.46l-4,0c-1.78-1.94-1.31-4.36-1.34-6.64-.09-8.3.21-16.61-.13-24.9-.28-6.94-4.78-9.78-11-7.32-.14,1.43,1.26,1.81,1.89,2.7,2.66,3.76,2.24,8-1.84,10.27-3.53,2-4.31,4.58-4.15,8.16s.08,7,0,10.45c0,1.81.17,3.69-1.18,5.21-1.46-.48-3.15-.36-4.3-1.66C79.68,206.84,79.86,204.71,81.23,202.59Z"/><path class="cls-4" d="M137.86,208.93l-4.7,1.69c-1.29-1.91-.37-3.87,0-5.77,1-5.88,2.14-11.74,2.84-17.67.67-5.73-3.82-10.67-9.95-8.15-.66,1.42.77,2,1.27,2.9,2.25,4.11,1.12,8.43-3.29,9.63-3.91,1.06-4.54,3.58-5.25,6.81-1.07,4.79-.27,10-3.26,14.37h-4.21c-2.3-4.77.5-9.28.7-13.93a4.64,4.64,0,0,1,1.61-3.8c1.26-2.91,1.39-6,1.78-9.11.55-4.44,2.09-8.39,6-10.87a5.78,5.78,0,0,0,2.65-4.44c1.16-7.49,2.28-15,3.41-22.49,1.89-2,4.09-1.63,6.34-.88a1.3,1.3,0,0,1,.44,2.06c-4.08,6.3-2.95,13.67-4.26,20.54,3-6.84,2.36-14.49,4.9-21.43a6.93,6.93,0,0,1,5.45-5.4c-1.42,9.52-2.81,19-4.28,28.56-.23,1.51-.69,2.83.8,4,5.27,4.28,5.35,9.91,4,15.92-.53,2.43-.81,4.91-1.2,7.37-.11,1.35-.23,2.71-.34,4.06C139.76,205.16,139.55,207.22,137.86,208.93Z"/><path class="cls-5" d="M140.26,143l-4.94,4.93c-.27.48-.59.5-1,.1l-7,.08c-4.44.2-6.38-2.09-6.32-6.36,0-1.33,0-2.66.11-4,.81-8.16,3.33-10.67,9.6-9.66q12.39,2,9.79,13.42C140.46,142,140.36,142.5,140.26,143Z"/><path class="cls-6" d="M91.42,143l-4.09.07c-6.41-.34-8.18-2.83-8-11.14.18-6.23,1.92-8.88,6-9,9.14-.33,13.35,2.35,14,9a35.33,35.33,0,0,1-.07,4c-1.36,2.23-2.51,4.63-4.9,6C93.75,143.28,92.86,143.86,91.42,143Z"/><path class="cls-7" d="M113.57,195c-.13,1.32-.25,2.65-.38,4a4.17,4.17,0,0,1-5.69-.05v-4Z"/><path class="cls-8" d="M126.34,216.09c-.68,17.51-1.28,35-2.09,52.53-.12,2.77-1.2,5.49-.9,8.34a87.36,87.36,0,0,1-37-1.64c-1.69-.45-2.85-1.17-3.09-3.28-2.23-19.29-4.59-38.56-6.89-57.84a10.08,10.08,0,0,1,.14-1.94C92.9,217.91,109.57,217.61,126.34,216.09Z"/><path class="cls-9" d="M85.54,210.61c-.06-6.82-.14-13.64-.18-20.46,0-1.48-.19-3,2-3.26,3.35-.41,5.61-2.33,5.83-5.78s-2.5-5.15-5.56-6.61a7.43,7.43,0,0,1,9.09-3.2,8.75,8.75,0,0,1,6.58,8.94l0,32.44C97.36,212.21,91.4,211.87,85.54,210.61Z"/><path class="cls-10" d="M115.47,212.74c1-6.54,2-13.07,2.86-19.61.24-1.76,1.14-2.2,2.68-2.11,3,.16,5.25-1,6.15-4,.83-2.77-.36-5-2.66-6.4-2.62-1.62-1.2-2.57.41-3.33,5.61-2.66,12.59,1.55,12.41,7.86-.26,8.62-2.29,17-4.16,25.42A87.82,87.82,0,0,1,115.47,212.74Z"/><path class="cls-11" d="M107.5,198.94l5.69.05q-1,6.87-1.93,13.75h-3.9Q107.44,205.83,107.5,198.94Z"/><path class="cls-12" d="M81.23,202.59q0,3.18,0,6.36c-2.37-.28-5.32-1-5.27-3.41C76,203.68,79.1,203,81.23,202.59Z"/><path class="cls-13" d="M137.86,208.93c.57-2-.12-4.25,1.42-6,1.31.84,3.82,1.15,3.55,2.8C142.46,208,140,208.54,137.86,208.93Z"/><path class="cls-9" d="M91.42,143l2.9-1.13c2.28,4.87.51,10,1,15,.22,2.3,0,4.63,0,6.94,0,1.54,0,3.15-2.24,3-1.94-.15-1.73-1.68-1.73-3C91.36,156.9,91.4,150,91.42,143Z"/><path class="cls-14" d="M87.4,182.71a1.75,1.75,0,0,1-1.78-1.82,1.63,1.63,0,0,1,1.43-1.67,1.65,1.65,0,0,1,2,1.53C89.21,181.87,88.51,182.5,87.4,182.71Z"/><path class="cls-15" d="M134.36,148a2.46,2.46,0,0,1,1-.1c-1,7.51-2,15-3.08,22.51-.2,1.49-.93,2.52-2.61,2.32-1.44-.18-1.81-1-1.58-2.47,1-6.17,2-12.35,2.82-18.56C131.18,149.43,133,149,134.36,148Z"/><path class="cls-16" d="M121.79,187.56c-1.22,0-1.92-.56-2-1.38-.19-1.37.66-2.15,2-2.2a1.37,1.37,0,0,1,1.51,1.53A2.16,2.16,0,0,1,121.79,187.56Z"/><path class="cls-17" d="M125.35,141.6c0-2-.3-3.54.08-4.9.51-1.89.27-4.9,3.31-4.64s6.86.26,7.93,4.49a6.16,6.16,0,0,1-2.81,7.26,3.23,3.23,0,0,1-3.32.22c-1.13-.59-.29-1.41-.28-2.14,0-1.93,2.39-4.75-.7-5.52S127.38,139.7,125.35,141.6Z"/><path class="cls-18" d="M83.5,133.89c0-2.53-1.18-5.84,2.13-6.76,2.51-.7,5.71-1,7.91,1.45a6,6,0,0,1,.92,7.36c-1,1.86-2.55,3.46-4.72,2.77s-.14-2.51-.4-3.83.38-3.28-1.52-3.75-2.41,1.2-2.62,2.76A1,1,0,0,1,83.5,133.89Z"/><path class="cls-19" d="M83.5,133.89h1.7c.06,1,.59,2.62-.85,2.62S83.44,134.91,83.5,133.89Z"/><path class="cls-20" d="M95.16,224.08a37.66,37.66,0,0,1-11.16-2c-1.49-.47-3.14-.87-2.71-2.78.47-2.11,2.22-1.54,3.62-1,4.25,1.53,8.71,1.64,13.13,2.09,1.54.15,4-.21,3.89,2-.11,2.66-2.65,1.66-4.31,1.77A24.59,24.59,0,0,1,95.16,224.08Z"/><path class="cls-21" d="M109.79,222.22c-.11,1.87-1.54,1.89-2.86,2s-2.89.08-3-1.71,1.54-1.91,2.84-2.09S109.46,220.48,109.79,222.22Z"/></svg>