<?xml version="1.0" encoding="UTF-8"?>
<!DOCTYPE svg PUBLIC "-//W3C//DTD SVG 1.1//EN" "http://www.w3.org/Graphics/SVG/1.1/DTD/svg11.dtd">
<!-- Creator: CorelDRAW -->
<svg xmlns="http://www.w3.org/2000/svg" xml:space="preserve" width="15.4192mm" height="14.482mm" style="shape-rendering:geometricPrecision; text-rendering:geometricPrecision; image-rendering:optimizeQuality; fill-rule:evenodd; clip-rule:evenodd"
viewBox="0 0 15.4192 14.482"
 xmlns:xlink="http://www.w3.org/1999/xlink">
 <defs>
  <style type="text/css">
   <![CDATA[
    .str0 {stroke:#C9CCCE;stroke-width:0.2725}
    .str1 {stroke:#C9CCCE;stroke-width:0.2725;stroke-linecap:round;stroke-linejoin:round}
    .fil0 {fill:none}
    .fil2 {fill:#D9DBDD}
    .fil3 {fill:#3F4446;fill-rule:nonzero}
    .fil1 {fill:#C9CCCE;fill-rule:nonzero}
   ]]>
  </style>
 </defs>
 <g id="Layer_x0020_1">
  <metadata id="CorelCorpID_0Corel-Layer"/>
  <g id="_02.cdr">
   <line id="_94865008" class="fil0 str0" x1="5.1591" y1="10.2991" x2="5.1591" y2= "14.2094" />
   <g>
    <path id="_94865200" class="fil1" d="M13.7928 0.9856l-0.1357 0.1363 -11.8949 0 0 -0.2726 11.8949 0 0.1357 0.1363zm-0.1357 -0.1363l0.1357 0 0 0.1363 -0.1357 -0.1363zm0 13.6328l-0.1357 -0.1363 0 -13.3602 0.2714 0 0 13.3602 -0.1357 0.1363zm0.1357 -0.1363l0 0.1363 -0.1357 0 0.1357 -0.1363zm-12.1663 0l0.1357 -0.1363 11.8949 0 0 0.2726 -11.8949 0 -0.1357 -0.1363zm0.1357 0.1363l-0.1357 0 0 -0.1363 0.1357 0.1363zm0 -13.6328l0.1357 0.1363 0 13.3602 -0.2714 0 0 -13.3602 0.1357 -0.1363zm-0.1357 0.1363l0 -0.1363 0.1357 0 -0.1357 0.1363z"/>
   </g>
   <rect class="fil2" x="1.89157" y="0.985639" width="11.6361" height="0.60191"/>
   <rect class="fil2 str0" x="1.2319" y="0.136274" width="12.9554" height="0.859871" rx="1.6695" ry="1.6695"/>
   <g>
    <path class="fil3" d="M13.795 5.5178l-0.1379 0.1364 -11.8949 0 0 -0.2728 11.8949 0 0.1379 0.1364zm-0.1379 -0.1364l0.1379 0 0 0.1364 -0.1379 -0.1364zm0 5.0594l-0.1379 -0.1364 0 -4.7866 0.2758 0 0 4.7866 -0.1379 0.1364zm0.1379 -0.1364l0 0.1364 -0.1379 0 0.1379 -0.1364zm-12.1707 0l0.1379 -0.1364 11.8949 0 0 0.2728 -11.8949 0 -0.1379 -0.1364zm0.1379 0.1364l-0.1379 0 0 -0.1364 0.1379 0.1364zm0 -5.0594l0.1379 0.1364 0 4.7866 -0.2758 0 0 -4.7866 0.1379 -0.1364zm-0.1379 0.1364l0 -0.1364 0.1379 0 -0.1379 0.1364z"/>
   </g>
   <line class="fil0 str1" x1="0.1363" y1="14.3457" x2="15.2829" y2= "14.3457" />
   <rect class="fil2" x="3.81363" y="1.94216" width="1.64442" height="2.47161" rx="0.774" ry="0.774"/>
   <path class="fil1" d="M4.013 1.8059l1.2457 0c0.09,0 0.1727,0.0353 0.2334,0.092 0.0631,0.059 0.1022,0.1407 0.1022,0.2308l0 2.0985c0,0.0901 -0.0391,0.1718 -0.1022,0.2308 -0.0607,0.0568 -0.1434,0.092 -0.2334,0.092l-1.2457 0c-0.09,0 -0.1728,-0.0352 -0.2334,-0.092 -0.0631,-0.059 -0.1023,-0.1407 -0.1023,-0.2308l0 -2.0985c0,-0.0901 0.0392,-0.1718 0.1023,-0.2308 0.0606,-0.0567 0.1434,-0.092 0.2334,-0.092zm1.2457 0.2725l-1.2457 0c-0.0196,0 -0.0366,0.0068 -0.0482,0.0176 -0.0092,0.0086 -0.0149,0.0202 -0.0149,0.0327l0 2.0985c0,0.0126 0.0058,0.0242 0.0149,0.0327 0.0116,0.0109 0.0286,0.0176 0.0482,0.0176l1.2457 0c0.0196,0 0.0366,-0.0068 0.0482,-0.0176 0.0091,-0.0085 0.0149,-0.0201 0.0149,-0.0327l0 -2.0985c0,-0.0125 -0.0058,-0.0241 -0.0149,-0.0327 -0.0116,-0.0108 -0.0286,-0.0176 -0.0482,-0.0176z"/>
   <rect class="fil2" x="6.8874" y="1.94216" width="1.64442" height="2.47161" rx="0.774" ry="0.774"/>
   <path class="fil1" d="M7.0867 1.8059l1.2458 0c0.09,0 0.1727,0.0353 0.2334,0.092 0.063,0.059 0.1022,0.1407 0.1022,0.2308l0 2.0985c0,0.0901 -0.0392,0.1718 -0.1022,0.2308 -0.0607,0.0568 -0.1434,0.092 -0.2334,0.092l-1.2458 0c-0.09,0 -0.1727,-0.0352 -0.2334,-0.092 -0.063,-0.059 -0.1022,-0.1407 -0.1022,-0.2308l0 -2.0985c0,-0.0901 0.0392,-0.1718 0.1022,-0.2308 0.0607,-0.0567 0.1434,-0.092 0.2334,-0.092zm1.2458 0.2725l-1.2458 0c-0.0195,0 -0.0365,0.0068 -0.0481,0.0176 -0.0092,0.0086 -0.0149,0.0202 -0.0149,0.0327l0 2.0985c0,0.0126 0.0057,0.0242 0.0149,0.0327 0.0116,0.0109 0.0286,0.0176 0.0481,0.0176l1.2458 0c0.0196,0 0.0366,-0.0068 0.0481,-0.0176 0.0092,-0.0085 0.0149,-0.0201 0.0149,-0.0327l0 -2.0985c0,-0.0125 -0.0057,-0.0241 -0.0149,-0.0327 -0.0115,-0.0108 -0.0285,-0.0176 -0.0481,-0.0176z"/>
   <rect class="fil2" x="9.96115" y="1.94216" width="1.64442" height="2.47161" rx="0.774" ry="0.774"/>
   <path class="fil1" d="M10.1605 1.8059l1.2457 0c0.09,0 0.1728,0.0353 0.2334,0.092 0.0631,0.059 0.1023,0.1407 0.1023,0.2308l0 2.0985c0,0.0901 -0.0392,0.1718 -0.1023,0.2308 -0.0606,0.0568 -0.1434,0.092 -0.2334,0.092l-1.2457 0c-0.09,0 -0.1727,-0.0352 -0.2334,-0.092 -0.0631,-0.059 -0.1022,-0.1407 -0.1022,-0.2308l0 -2.0985c0,-0.0901 0.0391,-0.1718 0.1022,-0.2308 0.0607,-0.0567 0.1434,-0.092 0.2334,-0.092zm1.2457 0.2725l-1.2457 0c-0.0196,0 -0.0366,0.0068 -0.0482,0.0176 -0.0091,0.0086 -0.0149,0.0202 -0.0149,0.0327l0 2.0985c0,0.0126 0.0058,0.0242 0.0149,0.0327 0.0116,0.0109 0.0286,0.0176 0.0482,0.0176l1.2457 0c0.0196,0 0.0366,-0.0068 0.0482,-0.0176 0.0091,-0.0085 0.0149,-0.0201 0.0149,-0.0327l0 -2.0985c0,-0.0125 -0.0057,-0.0241 -0.0149,-0.0327 -0.0116,-0.0108 -0.0286,-0.0176 -0.0482,-0.0176z"/>
   <g>
    <path class="fil3" d="M5.2764 6.8096l0 0 -1.2811 0 0 -0.2726 1.2811 0 0 0.2726zm0.3408 0.0591l-0.2716 0 0 0 0.0003 -0.0025 -0.0003 -0.003 -0.0003 -0.0029 -0.0007 -0.0022 -0.0002 -0.0024 -0.0012 -0.0029 -0.0005 -0.0021 -0.0011 -0.0025 -0.0014 -0.0028 -0.0008 -0.0021 -0.0018 -0.0022 -0.0016 -0.0027 -0.0016 -0.0018 -0.0024 -0.0031 -0.0021 -0.0023 -0.002 -0.002 -0.0019 -0.0017 -0.0032 -0.0024 -0.0025 -0.0022 -0.0027 -0.0017 -0.003 -0.0019 -0.0033 -0.0015 -0.003 -0.0017 -0.0027 -0.0012 -0.0035 -0.0014 -0.0031 -0.001 -0.0033 -0.001 -0.0036 -0.0006 -0.0042 -0.0006 -0.0033 -0.0008 -0.0041 -0.0002 -0.0041 0.0003 0 -0.2726 0.0169 0.0009 0.0167 0.0012 0.0171 0.0018 0.016 0.0028 0.0162 0.0038 0.0161 0.0042 0.0159 0.0052 0.0151 0.0056 0.0155 0.0066 0.0146 0.0071 0.0139 0.0079 0.0136 0.0083 0.0133 0.0091 0.0131 0.0096 0.0116 0.0098 0.0125 0.0113 0.0116 0.0116 0.0107 0.0119 0.0098 0.0117 0.01 0.0134 0.009 0.0133 0.0082 0.014 0.0082 0.0149 0.0068 0.0144 0.0063 0.0153 0.0059 0.0159 0.0044 0.0157 0.0044 0.0164 0.0029 0.017 0.0023 0.0167 0.0013 0.0168 0.0009 0.0175 0 0zm-0.2716 2.1985l0 0 0 -2.1985 0.2716 0 0 2.1985 -0.2716 0zm-0.0692 0.3318l0 -0.2726 0 0 0.0041 0.0003 0.0041 -0.0002 0.0033 -0.0008 0.0042 -0.0006 0.0036 -0.0006 0.0033 -0.001 0.0031 -0.001 0.003 -0.0014 0.0032 -0.0013 0.0035 -0.0016 0.0028 -0.0015 0.0025 -0.0014 0.0032 -0.0023 0.0025 -0.0021 0.0032 -0.0025 0.0024 -0.0021 0.0015 -0.0015 0.0021 -0.0023 0.0024 -0.0026 0.0016 -0.0024 0.0016 -0.0026 0.0018 -0.0023 0.0008 -0.002 0.0014 -0.0029 0.0011 -0.0025 0.0005 -0.0021 0.0012 -0.0029 0.0002 -0.0024 0.0007 -0.0022 0.0003 -0.0029 0.0003 -0.003 -0.0003 -0.0025 0.2716 0 -0.0009 0.0175 -0.0013 0.0168 -0.0023 0.0167 -0.0029 0.017 -0.0044 0.0164 -0.0044 0.0157 -0.0059 0.0159 -0.0063 0.0153 -0.0068 0.0145 -0.0082 0.0148 -0.0082 0.0141 -0.009 0.0132 -0.01 0.013 -0.0098 0.0122 -0.0107 0.0119 -0.0121 0.0121 -0.012 0.0107 -0.0116 0.0099 -0.0131 0.0095 -0.0128 0.0087 -0.0141 0.0088 -0.0144 0.0079 -0.0141 0.007 -0.015 0.0067 -0.0156 0.0056 -0.0159 0.0052 -0.0161 0.0042 -0.0162 0.0038 -0.016 0.0028 -0.0171 0.0018 -0.0167 0.0012 -0.0169 0.0009 0 0zm-1.2811 -0.2726l0 0 1.2811 0 0 0.2726 -1.2811 0 0 -0.2726zm-0.3408 -0.0592l0.2716 0 0 0 -0.0003 0.0025 0.0003 0.003 0.0003 0.0029 0.0007 0.0022 0.0002 0.0024 0.0012 0.0029 0.0005 0.0021 0.0011 0.0025 0.0014 0.0029 0.0008 0.002 0.0018 0.0023 0.0016 0.0026 0.0016 0.0024 0.0024 0.0026 0.0021 0.0023 0.0015 0.0015 0.0024 0.0021 0.0032 0.0025 0.0025 0.0021 0.0032 0.0023 0.0025 0.0014 0.0028 0.0015 0.0035 0.0016 0.0032 0.0013 0.003 0.0014 0.0031 0.001 0.0033 0.001 0.0036 0.0006 0.0042 0.0006 0.0033 0.0008 0.0041 0.0002 0.0041 -0.0003 0 0.2726 -0.0169 -0.0009 -0.0167 -0.0012 -0.0171 -0.0018 -0.016 -0.0028 -0.0162 -0.0038 -0.0161 -0.0042 -0.0159 -0.0052 -0.0156 -0.0056 -0.015 -0.0067 -0.0141 -0.007 -0.0144 -0.0079 -0.0141 -0.0088 -0.0128 -0.0087 -0.0131 -0.0095 -0.0116 -0.0099 -0.012 -0.0107 -0.0121 -0.0121 -0.0107 -0.0119 -0.0098 -0.0122 -0.01 -0.013 -0.009 -0.0132 -0.0082 -0.0141 -0.0082 -0.0148 -0.0068 -0.0145 -0.0063 -0.0153 -0.0059 -0.0159 -0.0044 -0.0157 -0.0044 -0.0164 -0.0029 -0.017 -0.0023 -0.0167 -0.0013 -0.0168 -0.0009 -0.0175 0 0zm0.2716 -2.1985l0 0 0 2.1985 -0.2716 0 0 -2.1985 0.2716 0zm0.0692 -0.3317l0 0.2726 0 0 -0.0041 -0.0003 -0.0041 0.0002 -0.0033 0.0008 -0.0042 0.0006 -0.0036 0.0006 -0.0033 0.001 -0.0031 0.001 -0.0035 0.0014 -0.0027 0.0012 -0.003 0.0017 -0.0033 0.0015 -0.003 0.0019 -0.0027 0.0017 -0.0025 0.0022 -0.0032 0.0024 -0.0019 0.0017 -0.002 0.002 -0.0021 0.0023 -0.0024 0.0031 -0.0016 0.0018 -0.0016 0.0027 -0.0018 0.0022 -0.0008 0.0021 -0.0014 0.0028 -0.0011 0.0025 -0.0005 0.0021 -0.0012 0.0029 -0.0002 0.0024 -0.0007 0.0022 -0.0003 0.0029 -0.0003 0.003 0.0003 0.0025 -0.2716 0 0.0009 -0.0175 0.0013 -0.0168 0.0023 -0.0167 0.0029 -0.017 0.0044 -0.0164 0.0044 -0.0157 0.0059 -0.0159 0.0063 -0.0153 0.0068 -0.0144 0.0082 -0.0149 0.0082 -0.014 0.009 -0.0133 0.01 -0.0134 0.0098 -0.0117 0.0107 -0.0119 0.0116 -0.0116 0.0125 -0.0113 0.0116 -0.0098 0.0131 -0.0096 0.0133 -0.0091 0.0136 -0.0083 0.0139 -0.0079 0.0146 -0.0071 0.0155 -0.0066 0.0151 -0.0056 0.0159 -0.0052 0.0161 -0.0042 0.0162 -0.0038 0.016 -0.0028 0.0171 -0.0018 0.0167 -0.0012 0.0169 -0.0009 0 0z"/>
   </g>
   <g>
    <path class="fil3" d="M8.3501 6.8096l0 0 -1.281 0 0 -0.2726 1.281 0 0 0.2726zm0.3408 0.0591l-0.2716 0 0 0 0.0003 -0.0025 -0.0003 -0.003 -0.0003 -0.0029 -0.0007 -0.0022 -0.0002 -0.0024 -0.0012 -0.0029 -0.0005 -0.0021 -0.0011 -0.0025 -0.0014 -0.0028 -0.0008 -0.0021 -0.0018 -0.0022 -0.0021 -0.0033 -0.001 -0.0017 -0.0018 -0.0021 -0.0023 -0.0023 -0.0025 -0.0025 -0.0018 -0.0017 -0.0033 -0.0024 -0.0024 -0.0022 -0.0023 -0.0017 -0.0035 -0.0019 -0.0033 -0.0015 -0.003 -0.0017 -0.0027 -0.0012 -0.0035 -0.0014 -0.0031 -0.001 -0.0033 -0.001 -0.0036 -0.0006 -0.0042 -0.0006 -0.0033 -0.0008 -0.0041 -0.0002 -0.0041 0.0003 0 -0.2726 0.0169 0.0009 0.0167 0.0012 0.0171 0.0018 0.016 0.0028 0.0162 0.0038 0.0161 0.0042 0.0159 0.0052 0.0151 0.0056 0.0155 0.0066 0.0146 0.0071 0.0139 0.0079 0.0131 0.0083 0.0139 0.0091 0.013 0.0096 0.0117 0.0098 0.0124 0.0113 0.0111 0.0111 0.0107 0.0119 0.0104 0.0127 0.0104 0.0135 0.0085 0.0127 0.0082 0.014 0.0082 0.0149 0.0068 0.0144 0.0063 0.0153 0.0059 0.0159 0.0044 0.0157 0.0044 0.0164 0.0029 0.017 0.0023 0.0167 0.0013 0.0168 0.0009 0.0175 0 0zm-0.2716 2.1985l0 0 0 -2.1985 0.2716 0 0 2.1985 -0.2716 0zm-0.0692 0.3318l0 -0.2726 0 0 0.0041 0.0003 0.0041 -0.0002 0.0033 -0.0008 0.0042 -0.0006 0.0036 -0.0006 0.0033 -0.001 0.0031 -0.001 0.003 -0.0014 0.0032 -0.0013 0.0035 -0.0016 0.0028 -0.0015 0.003 -0.0019 0.0028 -0.0018 0.0024 -0.0021 0.0033 -0.0025 0.0023 -0.0016 0.002 -0.0025 0.0023 -0.0023 0.0013 -0.0016 0.0015 -0.0023 0.0021 -0.0032 0.0018 -0.0023 0.0008 -0.002 0.0014 -0.0029 0.0011 -0.0025 0.0005 -0.0021 0.0012 -0.0029 0.0002 -0.0024 0.0007 -0.0022 0.0003 -0.0029 0.0003 -0.003 -0.0003 -0.0025 0.2716 0 -0.0009 0.0175 -0.0013 0.0168 -0.0023 0.0167 -0.0029 0.017 -0.0044 0.0164 -0.0044 0.0157 -0.0059 0.0159 -0.0063 0.0153 -0.0068 0.0145 -0.0082 0.0148 -0.0082 0.0141 -0.0085 0.0126 -0.0099 0.0131 -0.0109 0.0132 -0.0107 0.0119 -0.0116 0.0111 -0.0119 0.0112 -0.0117 0.0099 -0.013 0.0095 -0.0134 0.0092 -0.0136 0.0083 -0.0144 0.0079 -0.0141 0.007 -0.015 0.0067 -0.0156 0.0056 -0.0159 0.0052 -0.0161 0.0042 -0.0162 0.0038 -0.016 0.0028 -0.0171 0.0018 -0.0167 0.0012 -0.0169 0.0009 0 0zm-1.281 -0.2726l0 0 1.281 0 0 0.2726 -1.281 0 0 -0.2726zm-0.3408 -0.0592l0.2716 0 0 0 -0.0003 0.0025 0.0003 0.003 0.0003 0.0029 0.0007 0.0022 0.0002 0.0024 0.0012 0.0029 0.0005 0.0021 0.0011 0.0025 0.0014 0.0029 0.0008 0.002 0.0018 0.0023 0.0021 0.0032 0.0015 0.0023 0.0013 0.0016 0.0023 0.0023 0.002 0.0025 0.0023 0.0016 0.0033 0.0025 0.0024 0.0021 0.0028 0.0018 0.003 0.0019 0.0028 0.0015 0.0035 0.0016 0.0032 0.0013 0.003 0.0014 0.0031 0.001 0.0033 0.001 0.0036 0.0006 0.0042 0.0006 0.0033 0.0008 0.0041 0.0002 0.0041 -0.0003 0 0.2726 -0.0169 -0.0009 -0.0167 -0.0012 -0.0171 -0.0018 -0.016 -0.0028 -0.0162 -0.0038 -0.0161 -0.0042 -0.0159 -0.0052 -0.0156 -0.0056 -0.015 -0.0067 -0.0141 -0.007 -0.0144 -0.0079 -0.0136 -0.0083 -0.0134 -0.0092 -0.013 -0.0095 -0.0117 -0.0099 -0.0119 -0.0112 -0.0116 -0.0111 -0.0107 -0.0119 -0.0109 -0.0132 -0.0099 -0.0131 -0.0085 -0.0126 -0.0082 -0.0141 -0.0082 -0.0148 -0.0068 -0.0145 -0.0063 -0.0153 -0.0059 -0.0159 -0.0044 -0.0157 -0.0044 -0.0164 -0.0029 -0.017 -0.0023 -0.0167 -0.0013 -0.0168 -0.0009 -0.0175 0 0zm0.2716 -2.1985l0 0 0 2.1985 -0.2716 0 0 -2.1985 0.2716 0zm0.0692 -0.3317l0 0.2726 0 0 -0.0041 -0.0003 -0.0041 0.0002 -0.0033 0.0008 -0.0042 0.0006 -0.0036 0.0006 -0.0033 0.001 -0.0031 0.001 -0.0035 0.0014 -0.0027 0.0012 -0.003 0.0017 -0.0033 0.0015 -0.0035 0.0019 -0.0023 0.0017 -0.0024 0.0022 -0.0033 0.0024 -0.0018 0.0017 -0.0025 0.0025 -0.0023 0.0023 -0.0018 0.0021 -0.001 0.0017 -0.0021 0.0033 -0.0018 0.0022 -0.0008 0.0021 -0.0014 0.0028 -0.0011 0.0025 -0.0005 0.0021 -0.0012 0.0029 -0.0002 0.0024 -0.0007 0.0022 -0.0003 0.0029 -0.0003 0.003 0.0003 0.0025 -0.2716 0 0.0009 -0.0175 0.0013 -0.0168 0.0023 -0.0167 0.0029 -0.017 0.0044 -0.0164 0.0044 -0.0157 0.0059 -0.0159 0.0063 -0.0153 0.0068 -0.0144 0.0082 -0.0149 0.0082 -0.014 0.0085 -0.0127 0.0104 -0.0135 0.0104 -0.0127 0.0107 -0.0119 0.0111 -0.0111 0.0124 -0.0113 0.0117 -0.0098 0.013 -0.0096 0.0139 -0.0091 0.0131 -0.0083 0.0139 -0.0079 0.0146 -0.0071 0.0155 -0.0066 0.0151 -0.0056 0.0159 -0.0052 0.0161 -0.0042 0.0162 -0.0038 0.016 -0.0028 0.0171 -0.0018 0.0167 -0.0012 0.0169 -0.0009 0 0z"/>
   </g>
   <g>
    <path class="fil3" d="M11.4239 6.8096l0 0 -1.2811 0 0 -0.2726 1.2811 0 0 0.2726zm0.3408 0.0591l-0.2716 0 0 0 0.0003 -0.0025 -0.0003 -0.003 -0.0003 -0.0029 -0.0007 -0.0022 -0.0002 -0.0024 -0.0012 -0.0029 -0.0005 -0.0021 -0.0011 -0.0025 -0.0014 -0.0028 -0.0008 -0.0021 -0.0018 -0.0022 -0.0016 -0.0027 -0.0016 -0.0018 -0.0024 -0.0031 -0.0021 -0.0023 -0.002 -0.002 -0.0019 -0.0017 -0.0032 -0.0024 -0.0025 -0.0022 -0.0027 -0.0017 -0.003 -0.0019 -0.0033 -0.0015 -0.003 -0.0017 -0.0027 -0.0012 -0.0035 -0.0014 -0.0031 -0.001 -0.0033 -0.001 -0.0036 -0.0006 -0.0042 -0.0006 -0.0033 -0.0008 -0.0041 -0.0002 -0.0041 0.0003 0 -0.2726 0.0169 0.0009 0.0167 0.0012 0.0171 0.0018 0.016 0.0028 0.0162 0.0038 0.0161 0.0042 0.0159 0.0052 0.0151 0.0056 0.0155 0.0066 0.0146 0.0071 0.0139 0.0079 0.0136 0.0083 0.0133 0.0091 0.0131 0.0096 0.0116 0.0098 0.0125 0.0113 0.0116 0.0116 0.0107 0.0119 0.0098 0.0117 0.01 0.0134 0.009 0.0133 0.0082 0.014 0.0082 0.0149 0.0068 0.0144 0.0063 0.0153 0.0059 0.0159 0.0044 0.0157 0.0044 0.0164 0.0029 0.017 0.0023 0.0167 0.0013 0.0168 0.0009 0.0175 0 0zm-0.2716 2.1985l0 0 0 -2.1985 0.2716 0 0 2.1985 -0.2716 0zm-0.0692 0.3318l0 -0.2726 0 0 0.0041 0.0003 0.0041 -0.0002 0.0033 -0.0008 0.0042 -0.0006 0.0036 -0.0006 0.0033 -0.001 0.0031 -0.001 0.003 -0.0014 0.0032 -0.0013 0.0035 -0.0016 0.0028 -0.0015 0.0025 -0.0014 0.0032 -0.0023 0.0025 -0.0021 0.0032 -0.0025 0.0024 -0.0021 0.0015 -0.0015 0.0021 -0.0023 0.0024 -0.0026 0.0016 -0.0024 0.0016 -0.0026 0.0018 -0.0023 0.0008 -0.002 0.0014 -0.0029 0.0011 -0.0025 0.0005 -0.0021 0.0012 -0.0029 0.0002 -0.0024 0.0007 -0.0022 0.0003 -0.0029 0.0003 -0.003 -0.0003 -0.0025 0.2716 0 -0.0009 0.0175 -0.0013 0.0168 -0.0023 0.0167 -0.0029 0.017 -0.0044 0.0164 -0.0044 0.0157 -0.0059 0.0159 -0.0063 0.0153 -0.0068 0.0145 -0.0082 0.0148 -0.0082 0.0141 -0.009 0.0132 -0.01 0.013 -0.0098 0.0122 -0.0107 0.0119 -0.0121 0.0121 -0.012 0.0107 -0.0116 0.0099 -0.0131 0.0095 -0.0128 0.0087 -0.0141 0.0088 -0.0144 0.0079 -0.0141 0.007 -0.015 0.0067 -0.0156 0.0056 -0.0159 0.0052 -0.0161 0.0042 -0.0162 0.0038 -0.016 0.0028 -0.0171 0.0018 -0.0167 0.0012 -0.0169 0.0009 0 0zm-1.2811 -0.2726l0 0 1.2811 0 0 0.2726 -1.2811 0 0 -0.2726zm-0.3408 -0.0592l0.2716 0 0 0 -0.0003 0.0025 0.0003 0.003 0.0003 0.0029 0.0007 0.0022 0.0002 0.0024 0.0012 0.0029 0.0005 0.0021 0.0011 0.0025 0.0014 0.0029 0.0008 0.002 0.0018 0.0023 0.0016 0.0026 0.0016 0.0024 0.0024 0.0026 0.0021 0.0023 0.0015 0.0015 0.0024 0.0021 0.0032 0.0025 0.0025 0.0021 0.0032 0.0023 0.0025 0.0014 0.0028 0.0015 0.0035 0.0016 0.0032 0.0013 0.003 0.0014 0.0031 0.001 0.0033 0.001 0.0036 0.0006 0.0042 0.0006 0.0033 0.0008 0.0041 0.0002 0.0041 -0.0003 0 0.2726 -0.0169 -0.0009 -0.0167 -0.0012 -0.0171 -0.0018 -0.016 -0.0028 -0.0162 -0.0038 -0.0161 -0.0042 -0.0159 -0.0052 -0.0156 -0.0056 -0.015 -0.0067 -0.0141 -0.007 -0.0144 -0.0079 -0.0141 -0.0088 -0.0128 -0.0087 -0.0131 -0.0095 -0.0116 -0.0099 -0.012 -0.0107 -0.0121 -0.0121 -0.0107 -0.0119 -0.0098 -0.0122 -0.01 -0.013 -0.009 -0.0132 -0.0082 -0.0141 -0.0082 -0.0148 -0.0068 -0.0145 -0.0063 -0.0153 -0.0059 -0.0159 -0.0044 -0.0157 -0.0044 -0.0164 -0.0029 -0.017 -0.0023 -0.0167 -0.0013 -0.0168 -0.0009 -0.0175 0 0zm0.2716 -2.1985l0 0 0 2.1985 -0.2716 0 0 -2.1985 0.2716 0zm0.0692 -0.3317l0 0.2726 0 0 -0.0041 -0.0003 -0.0041 0.0002 -0.0033 0.0008 -0.0042 0.0006 -0.0036 0.0006 -0.0033 0.001 -0.0031 0.001 -0.0035 0.0014 -0.0027 0.0012 -0.003 0.0017 -0.0033 0.0015 -0.003 0.0019 -0.0027 0.0017 -0.0025 0.0022 -0.0032 0.0024 -0.0019 0.0017 -0.002 0.002 -0.0021 0.0023 -0.0024 0.0031 -0.0016 0.0018 -0.0016 0.0027 -0.0018 0.0022 -0.0008 0.0021 -0.0014 0.0028 -0.0011 0.0025 -0.0005 0.0021 -0.0012 0.0029 -0.0002 0.0024 -0.0007 0.0022 -0.0003 0.0029 -0.0003 0.003 0.0003 0.0025 -0.2716 0 0.0009 -0.0175 0.0013 -0.0168 0.0023 -0.0167 0.0029 -0.017 0.0044 -0.0164 0.0044 -0.0157 0.0059 -0.0159 0.0063 -0.0153 0.0068 -0.0144 0.0082 -0.0149 0.0082 -0.014 0.009 -0.0133 0.01 -0.0134 0.0098 -0.0117 0.0107 -0.0119 0.0116 -0.0116 0.0125 -0.0113 0.0116 -0.0098 0.0131 -0.0096 0.0133 -0.0091 0.0136 -0.0083 0.0139 -0.0079 0.0146 -0.0071 0.0155 -0.0066 0.0151 -0.0056 0.0159 -0.0052 0.0161 -0.0042 0.0162 -0.0038 0.016 -0.0028 0.0171 -0.0018 0.0167 -0.0012 0.0169 -0.0009 0 0z"/>
   </g>
   <rect class="fil2" x="9.78918" y="11.2288" width="1.64442" height="2.47161" rx="0.774" ry="0.774"/>
   <path class="fil1" d="M9.9885 11.0925l1.2458 0c0.09,0 0.1727,0.0353 0.2334,0.0921 0.063,0.059 0.1022,0.1406 0.1022,0.2307l0 2.0986c0,0.09 -0.0392,0.1717 -0.1022,0.2307 -0.0607,0.0568 -0.1434,0.0921 -0.2334,0.0921l-1.2458 0c-0.09,0 -0.1727,-0.0353 -0.2334,-0.0921 -0.063,-0.059 -0.1022,-0.1407 -0.1022,-0.2307l0 -2.0986c0,-0.0901 0.0392,-0.1717 0.1022,-0.2307 0.0607,-0.0568 0.1434,-0.0921 0.2334,-0.0921zm1.2458 0.2726l-1.2458 0c-0.0196,0 -0.0366,0.0067 -0.0481,0.0175 -0.0092,0.0086 -0.0149,0.0202 -0.0149,0.0327l0 2.0986c0,0.0125 0.0057,0.0241 0.0149,0.0327 0.0115,0.0108 0.0285,0.0175 0.0481,0.0175l1.2458 0c0.0196,0 0.0366,-0.0067 0.0481,-0.0175 0.0092,-0.0086 0.0149,-0.0202 0.0149,-0.0327l0 -2.0986c0,-0.0125 -0.0057,-0.0241 -0.0149,-0.0327 -0.0115,-0.0108 -0.0285,-0.0175 -0.0481,-0.0175z"/>
   <rect class="fil2" x="6.72218" y="11.2288" width="1.64442" height="2.47161" rx="0.774" ry="0.774"/>
   <path class="fil1" d="M6.9215 11.0925l1.2458 0c0.0899,0 0.1727,0.0353 0.2334,0.0921 0.063,0.059 0.1022,0.1406 0.1022,0.2307l0 2.0986c0,0.09 -0.0392,0.1717 -0.1022,0.2307 -0.0607,0.0568 -0.1435,0.0921 -0.2334,0.0921l-1.2458 0c-0.09,0 -0.1727,-0.0353 -0.2334,-0.0921 -0.063,-0.059 -0.1022,-0.1407 -0.1022,-0.2307l0 -2.0986c0,-0.0901 0.0392,-0.1717 0.1022,-0.2307 0.0607,-0.0568 0.1434,-0.0921 0.2334,-0.0921zm1.2458 0.2726l-1.2458 0c-0.0196,0 -0.0366,0.0067 -0.0481,0.0175 -0.0092,0.0086 -0.0149,0.0202 -0.0149,0.0327l0 2.0986c0,0.0125 0.0057,0.0241 0.0149,0.0327 0.0115,0.0108 0.0285,0.0175 0.0481,0.0175l1.2458 0c0.0196,0 0.0366,-0.0067 0.0481,-0.0175 0.0092,-0.0086 0.0149,-0.0202 0.0149,-0.0327l0 -2.0986c0,-0.0125 -0.0057,-0.0241 -0.0149,-0.0327 -0.0115,-0.0108 -0.0285,-0.0175 -0.0481,-0.0175z"/>
   <path class="fil2" d="M3.0732 11.9913l1.0015 0c0.0853,0 0.155,0.0697 0.155,0.155l0 2.1065 -1.3115 0 0 -2.1065c0,-0.0853 0.0698,-0.155 0.155,-0.155z"/>
   <path class="fil1" d="M3.0732 11.855l1.0015 0c0.0802,0 0.1531,0.0328 0.2058,0.0855 0.0527,0.0527 0.0855,0.1256 0.0855,0.2058l0 2.1065 0 0.1363 -0.1363 0 -1.3115 0 -0.1363 0 0 -0.1363 0 -2.1065c0,-0.0802 0.0328,-0.1531 0.0855,-0.2058 0.0527,-0.0527 0.1256,-0.0855 0.2058,-0.0855zm1.0015 0.2726l-1.0015 0c-0.005,0 -0.0097,0.0021 -0.0131,0.0056 -0.0034,0.0034 -0.0056,0.0081 -0.0056,0.0131l0 1.9703 1.0389 0 0 -1.9703c0,-0.005 -0.0021,-0.0097 -0.0056,-0.0131 -0.0034,-0.0035 -0.0081,-0.0056 -0.0131,-0.0056z"/>
  </g>
 </g>
</svg>
