<?xml version="1.0" encoding="UTF-8"?>
<!DOCTYPE svg PUBLIC "-//W3C//DTD SVG 1.1//EN" "http://www.w3.org/Graphics/SVG/1.1/DTD/svg11.dtd">
<!-- Creator: CorelDRAW -->
<svg xmlns="http://www.w3.org/2000/svg" xml:space="preserve" width="20.088mm" height="3.3116mm" style="shape-rendering:geometricPrecision; text-rendering:geometricPrecision; image-rendering:optimizeQuality; fill-rule:evenodd; clip-rule:evenodd"
viewBox="0 0 20.088 3.3116"
 xmlns:xlink="http://www.w3.org/1999/xlink">
 <defs>
  <style type="text/css">
   <![CDATA[
    .fil2 {fill:none}
    .fil0 {fill:#15202A}
    .fil1 {fill:#D9DBDD}
   ]]>
  </style>
    <clipPath id="id0">
     <path d="M16.615 1.3266c0,0.0461 0.0394,0.103 0.0641,0.1275 0.0267,0.0266 0.0674,0.0715 0.0953,0.0933 0.0249,0.0196 0.0753,0.0708 0.097,0.0946 0.0148,0.0161 0.0893,0.0813 0.0927,0.0958 0.0134,0.0011 0.1083,0.1005 0.1244,0.1167 0.034,0.0345 0.0876,0.0895 0.1229,0.1183 0.0264,0.0216 0.1001,0.0959 0.1147,0.1263 0.0313,0.0652 0.0355,0.1146 0.0131,0.1965 -0.004,0.0146 -0.0018,0.041 -0.006,0.0558 -0.0047,0.0163 -0.01,0.0267 -0.0107,0.048 -0.0002,0.006 -0.0144,0.0997 -0.016,0.1047 -0.0075,0.0237 -0.0066,0.0223 -0.0086,0.0531 -0.0013,0.0191 -0.0096,0.0319 -0.0118,0.047 -0.0061,0.0404 -0.0096,0.0681 -0.0153,0.1052 -0.004,0.0257 -0.0083,0.0272 -0.0101,0.0518 -0.001,0.014 -0.0035,0.0388 -0.0083,0.0504 -0.0001,0.0002 -0.0191,0.1004 -0.0192,0.1014 -0.0079,0.073 -0.0281,0.134 -0.0281,0.21 0,0.0163 0.0013,0.0304 0.0032,0.0463 0.0023,0.0186 0.0123,0.0094 0.0123,0.0372 0.0106,0.0071 0.0318,0.047 0.0596,0.0671 0.0179,0.0129 0.0576,0.038 0.0856,0.038l0.068 0c0.047,0 0.3035,-0.1524 0.3619,-0.1789 0.0479,-0.0218 0.3389,-0.1824 0.358,-0.1828 0.0053,-0.01 0.0489,-0.0327 0.0613,-0.0376 0.0196,-0.0077 0.0457,-0.0274 0.0685,-0.0274 0.0133,-0.0198 0.1226,-0.0199 0.136,0 0.0217,0 0.0656,0.0257 0.0815,0.036 0.0177,0.0114 0.0649,0.0261 0.073,0.0413 0.0138,0.0004 0.3143,0.1595 0.3441,0.1782 0.0112,0.0071 0.0336,0.0145 0.0458,0.0222 0.0124,0.0077 0.0297,0.0155 0.0426,0.0223 0.027,0.0142 0.0576,0.0293 0.0847,0.0452 0.0276,0.0161 0.1475,0.0815 0.178,0.0815l0.071 0c0.0224,0 0.0469,-0.0174 0.0622,-0.0243 0.0224,-0.0101 0.0324,-0.0214 0.0484,-0.0382 0.0281,-0.0297 0.047,-0.0689 0.047,-0.1261 0,-0.0257 -0.0018,-0.0747 -0.0083,-0.0937 -0.0093,-0.0273 -0.007,-0.0552 -0.0158,-0.0831 -0.0038,-0.012 -0.0043,-0.0315 -0.0061,-0.0434 -0.0033,-0.0227 -0.0073,-0.0272 -0.0094,-0.04 -0.0025,-0.0153 -0.0021,-0.0302 -0.0038,-0.0457 -0.0016,-0.0145 -0.0067,-0.0167 -0.0094,-0.0401 -0.0066,-0.0581 -0.0236,-0.1141 -0.0275,-0.1735 -0.0011,-0.0162 -0.0065,-0.0256 -0.01,-0.0394 -0.0029,-0.0111 -0.0026,-0.0327 -0.0047,-0.0448 -0.005,-0.0297 -0.0131,-0.0478 -0.0131,-0.0858l-0.0384 -0.2038 0.0013 -0.0528c0,-0.0476 0.0422,-0.1096 0.0672,-0.1338 0.0302,-0.0293 0.0702,-0.072 0.1005,-0.0973 0.0309,-0.0258 0.0734,-0.0682 0.1009,-0.0969 0.0325,-0.0341 0.0655,-0.0647 0.1003,-0.0976 0.0342,-0.0323 0.0661,-0.0647 0.0994,-0.0983 0.0334,-0.0336 0.0685,-0.0639 0.1008,-0.097 0.0507,-0.0519 0.1663,-0.1378 0.1663,-0.2294l0 -0.0371c0,-0.0478 -0.0375,-0.1044 -0.064,-0.1277 -0.0393,-0.0346 -0.0719,-0.0442 -0.1366,-0.0519 -0.0134,-0.0016 -0.023,-0.0086 -0.0403,-0.0091 -0.0188,-0.0006 -0.0257,-0.0018 -0.0434,-0.003 -0.0203,-0.0015 -0.0477,-0.0119 -0.0804,-0.0124 -0.0264,-0.0003 -0.0456,-0.012 -0.0834,-0.0123 -0.0297,-0.0002 -0.0429,-0.0128 -0.0803,-0.0124 -0.0353,0.0003 -0.0481,-0.0127 -0.0834,-0.0124 -0.0365,0.0003 -0.0498,-0.0127 -0.0834,-0.0124 -0.0354,0.0004 -0.055,-0.0124 -0.0835,-0.0123 -0.0323,0 -0.0573,-0.0113 -0.0803,-0.0124 -0.0465,-0.0023 -0.1225,-0.0151 -0.1639,-0.0246 -0.0387,-0.0089 -0.0397,-0.0061 -0.0704,-0.0254 -0.0245,-0.0154 -0.0329,-0.0176 -0.0523,-0.0405 -0.0326,-0.0386 -0.045,-0.0782 -0.0687,-0.1229 -0.0106,-0.02 -0.0207,-0.0436 -0.0329,-0.0629 -0.0046,-0.0074 -0.027,-0.0543 -0.03,-0.0627 -0.0032,-0.0089 -0.0269,-0.0562 -0.0321,-0.0638 -0.0031,-0.0046 -0.0285,-0.0568 -0.0304,-0.0623 -0.0134,-0.0369 -0.045,-0.0909 -0.0632,-0.1254 -0.0214,-0.0407 -0.0385,-0.0879 -0.0617,-0.1269 -0.0057,-0.0095 -0.0276,-0.055 -0.0309,-0.0649 -0.0004,-0.0012 -0.0306,-0.0614 -0.0309,-0.0618 -0.0045,-0.0059 -0.0274,-0.0532 -0.0321,-0.0637 -0.0098,-0.0219 -0.0245,-0.0379 -0.039,-0.0538 -0.0328,-0.0361 -0.0708,-0.0496 -0.139,-0.0496 -0.0642,0 -0.1116,0.0148 -0.1404,0.0514 -0.0162,0.0207 -0.0275,0.032 -0.0388,0.057 -0.0053,0.0117 -0.0247,0.0517 -0.0315,0.0612 -0.0004,0.0006 -0.0308,0.0624 -0.0315,0.0643 -0.0029,0.008 -0.0259,0.0563 -0.03,0.0628 -0.0214,0.0343 -0.0438,0.0872 -0.0619,0.1266 -0.0182,0.0396 -0.0482,0.0873 -0.064,0.1277 -0.0157,0.0397 -0.0474,0.0858 -0.0627,0.1258 -0.0152,0.0395 -0.0435,0.086 -0.0624,0.1262 -0.0229,0.0487 -0.0372,0.0794 -0.0688,0.1198 -0.0543,0.0696 -0.1801,0.0764 -0.2916,0.0886 -0.0155,0.0017 -0.0185,0.0085 -0.0403,0.0091 -0.0139,0.0003 -0.0267,0.0019 -0.0433,0.003 -0.0219,0.0014 -0.0431,0.0112 -0.0804,0.0123 -0.0257,0.0008 -0.0447,0.012 -0.0834,0.0124 -0.0297,0.0003 -0.0427,0.0126 -0.0803,0.0124 -0.0343,-0.0002 -0.0465,0.012 -0.0835,0.0123 -0.032,0.0003 -0.0512,0.0121 -0.0803,0.0125 -0.0473,0.0006 -0.1175,0.0194 -0.1638,0.0247 -0.0686,0.0077 -0.0925,0.0174 -0.134,0.0544 -0.0252,0.0224 -0.0636,0.0811 -0.0636,0.125l0 0.0371z"/>
    </clipPath>
 </defs>
 <g id="Layer_x0020_1">
  <metadata id="CorelCorpID_0Corel-Layer"/>
  <g id="_16.cdr">
   <path id="_311453944" class="fil0" d="M1.73472e-018 1.3266c0,0.0461 0.0395,0.103 0.0641,0.1275 0.0267,0.0266 0.0674,0.0715 0.0953,0.0933 0.025,0.0196 0.0754,0.0708 0.0971,0.0946 0.0147,0.0161 0.0893,0.0813 0.0927,0.0958 0.0133,0.0011 0.1083,0.1005 0.1243,0.1167 0.034,0.0345 0.0876,0.0895 0.1229,0.1183 0.0265,0.0216 0.1001,0.0959 0.1147,0.1263 0.0313,0.0652 0.0355,0.1146 0.0131,0.1965 -0.004,0.0146 -0.0018,0.041 -0.006,0.0558 -0.0047,0.0163 -0.01,0.0267 -0.0107,0.048 -0.0002,0.006 -0.0143,0.0997 -0.0159,0.1047 -0.0076,0.0237 -0.0067,0.0223 -0.0087,0.0531 -0.0013,0.0191 -0.0095,0.0319 -0.0118,0.047 -0.0061,0.0404 -0.0096,0.0681 -0.0153,0.1052 -0.004,0.0257 -0.0083,0.0272 -0.0101,0.0518 -0.001,0.014 -0.0034,0.0388 -0.0083,0.0504 0,0.0002 -0.0191,0.1004 -0.0192,0.1014 -0.0079,0.073 -0.028,0.134 -0.028,0.21 0,0.0163 0.0012,0.0304 0.0032,0.0463 0.0022,0.0186 0.0122,0.0094 0.0122,0.0372 0.0106,0.0071 0.0318,0.047 0.0597,0.0671 0.0178,0.0129 0.0576,0.038 0.0855,0.038l0.068 0c0.047,0 0.3036,-0.1524 0.3619,-0.1789 0.0479,-0.0218 0.3389,-0.1824 0.3581,-0.1828 0.0053,-0.01 0.0488,-0.0327 0.0613,-0.0376 0.0195,-0.0077 0.0456,-0.0274 0.0684,-0.0274 0.0133,-0.0198 0.1226,-0.0199 0.136,0 0.0218,0 0.0657,0.0257 0.0815,0.036 0.0177,0.0114 0.0649,0.0261 0.073,0.0413 0.0138,0.0004 0.3143,0.1595 0.3441,0.1782 0.0112,0.0071 0.0336,0.0145 0.0459,0.0222 0.0123,0.0077 0.0296,0.0155 0.0425,0.0223 0.027,0.0142 0.0576,0.0293 0.0847,0.0452 0.0276,0.0161 0.1475,0.0815 0.178,0.0815l0.0711 0c0.0224,0 0.0468,-0.0174 0.0622,-0.0243 0.0223,-0.0101 0.0324,-0.0214 0.0483,-0.0382 0.0281,-0.0297 0.0471,-0.0689 0.0471,-0.1261 0,-0.0257 -0.0018,-0.0747 -0.0083,-0.0937 -0.0094,-0.0273 -0.007,-0.0552 -0.0159,-0.0831 -0.0038,-0.012 -0.0043,-0.0315 -0.006,-0.0434 -0.0034,-0.0227 -0.0074,-0.0272 -0.0095,-0.04 -0.0024,-0.0153 -0.0021,-0.0302 -0.0038,-0.0457 -0.0015,-0.0145 -0.0067,-0.0167 -0.0094,-0.0401 -0.0066,-0.0581 -0.0235,-0.1141 -0.0274,-0.1735 -0.0011,-0.0162 -0.0065,-0.0256 -0.0101,-0.0394 -0.0029,-0.0111 -0.0026,-0.0327 -0.0046,-0.0448 -0.005,-0.0297 -0.0132,-0.0478 -0.0132,-0.0858l-0.0384 -0.2038 0.0013 -0.0528c0,-0.0476 0.0422,-0.1096 0.0672,-0.1338 0.0302,-0.0293 0.0703,-0.072 0.1005,-0.0973 0.0309,-0.0258 0.0734,-0.0682 0.1009,-0.0969 0.0325,-0.0341 0.0655,-0.0647 0.1003,-0.0976 0.0343,-0.0323 0.0661,-0.0647 0.0994,-0.0983 0.0334,-0.0336 0.0685,-0.0639 0.1008,-0.097 0.0507,-0.0519 0.1663,-0.1378 0.1663,-0.2294l0 -0.0371c0,-0.0478 -0.0375,-0.1044 -0.0639,-0.1277 -0.0394,-0.0346 -0.072,-0.0442 -0.1367,-0.0519 -0.0133,-0.0016 -0.023,-0.0086 -0.0403,-0.0091 -0.0188,-0.0006 -0.0257,-0.0018 -0.0433,-0.003 -0.0203,-0.0015 -0.0478,-0.0119 -0.0804,-0.0124 -0.0264,-0.0003 -0.0457,-0.012 -0.0835,-0.0123 -0.0297,-0.0002 -0.0429,-0.0128 -0.0803,-0.0124 -0.0352,0.0003 -0.048,-0.0127 -0.0834,-0.0124 -0.0365,0.0003 -0.0498,-0.0127 -0.0834,-0.0124 -0.0354,0.0004 -0.055,-0.0124 -0.0834,-0.0123 -0.0324,0 -0.0573,-0.0113 -0.0803,-0.0124 -0.0466,-0.0023 -0.1225,-0.0151 -0.1639,-0.0246 -0.0388,-0.0089 -0.0398,-0.0061 -0.0705,-0.0254 -0.0244,-0.0154 -0.0329,-0.0176 -0.0522,-0.0405 -0.0326,-0.0386 -0.045,-0.0782 -0.0687,-0.1229 -0.0106,-0.02 -0.0207,-0.0436 -0.0329,-0.0629 -0.0047,-0.0074 -0.0271,-0.0543 -0.0301,-0.0627 -0.0032,-0.0089 -0.0269,-0.0562 -0.032,-0.0638 -0.0031,-0.0046 -0.0286,-0.0568 -0.0305,-0.0623 -0.0133,-0.0369 -0.0449,-0.0909 -0.0631,-0.1254 -0.0215,-0.0407 -0.0386,-0.0879 -0.0618,-0.1269 -0.0056,-0.0095 -0.0275,-0.055 -0.0308,-0.0649 -0.0004,-0.0012 -0.0306,-0.0614 -0.031,-0.0618 -0.0044,-0.0059 -0.0274,-0.0532 -0.0321,-0.0637 -0.0098,-0.0219 -0.0244,-0.0379 -0.0389,-0.0538 -0.0328,-0.0361 -0.0708,-0.0496 -0.1391,-0.0496 -0.0642,0 -0.1116,0.0148 -0.1403,0.0514 -0.0163,0.0207 -0.0276,0.032 -0.0389,0.057 -0.0052,0.0117 -0.0247,0.0517 -0.0315,0.0612 -0.0004,0.0006 -0.0308,0.0624 -0.0315,0.0643 -0.0029,0.008 -0.0259,0.0563 -0.03,0.0628 -0.0214,0.0343 -0.0438,0.0872 -0.0619,0.1266 -0.0181,0.0396 -0.0481,0.0873 -0.064,0.1277 -0.0156,0.0397 -0.0473,0.0858 -0.0627,0.1258 -0.0152,0.0395 -0.0435,0.086 -0.0624,0.1262 -0.0229,0.0487 -0.0372,0.0794 -0.0687,0.1198 -0.0544,0.0696 -0.1802,0.0764 -0.2916,0.0886 -0.0156,0.0017 -0.0185,0.0085 -0.0404,0.0091 -0.0138,0.0003 -0.0267,0.0019 -0.0433,0.003 -0.0219,0.0014 -0.0431,0.0112 -0.0804,0.0123 -0.0256,0.0008 -0.0447,0.012 -0.0834,0.0124 -0.0296,0.0003 -0.0427,0.0126 -0.0803,0.0124 -0.0343,-0.0002 -0.0465,0.012 -0.0835,0.0123 -0.032,0.0003 -0.0511,0.0121 -0.0802,0.0125 -0.0474,0.0006 -0.1175,0.0194 -0.1638,0.0247 -0.0687,0.0077 -0.0926,0.0174 -0.1341,0.0544 -0.0252,0.0224 -0.0636,0.0811 -0.0636,0.125l0 0.0371z"/>
   <path id="_311453872" class="fil0" d="M4.1537 1.3266c0,0.0461 0.0395,0.103 0.0642,0.1275 0.0267,0.0266 0.0674,0.0715 0.0952,0.0933 0.025,0.0196 0.0754,0.0708 0.0971,0.0946 0.0148,0.0161 0.0893,0.0813 0.0927,0.0958 0.0134,0.0011 0.1083,0.1005 0.1244,0.1167 0.034,0.0345 0.0875,0.0895 0.1228,0.1183 0.0265,0.0216 0.1002,0.0959 0.1148,0.1263 0.0313,0.0652 0.0355,0.1146 0.0131,0.1965 -0.004,0.0146 -0.0019,0.041 -0.0061,0.0558 -0.0046,0.0163 -0.0099,0.0267 -0.0107,0.048 -0.0002,0.006 -0.0143,0.0997 -0.0159,0.1047 -0.0075,0.0237 -0.0066,0.0223 -0.0087,0.0531 -0.0012,0.0191 -0.0095,0.0319 -0.0118,0.047 -0.0061,0.0404 -0.0095,0.0681 -0.0153,0.1052 -0.004,0.0257 -0.0083,0.0272 -0.01,0.0518 -0.001,0.014 -0.0035,0.0388 -0.0083,0.0504 -0.0001,0.0002 -0.0192,0.1004 -0.0193,0.1014 -0.0078,0.073 -0.028,0.134 -0.028,0.21 0,0.0163 0.0013,0.0304 0.0032,0.0463 0.0022,0.0186 0.0123,0.0094 0.0123,0.0372 0.0106,0.0071 0.0318,0.047 0.0596,0.0671 0.0179,0.0129 0.0576,0.038 0.0856,0.038l0.068 0c0.047,0 0.3035,-0.1524 0.3619,-0.1789 0.0479,-0.0218 0.3388,-0.1824 0.358,-0.1828 0.0053,-0.01 0.0489,-0.0327 0.0613,-0.0376 0.0196,-0.0077 0.0457,-0.0274 0.0685,-0.0274 0.0133,-0.0198 0.1226,-0.0199 0.1359,0 0.0218,0 0.0657,0.0257 0.0816,0.036 0.0176,0.0114 0.0649,0.0261 0.0729,0.0413 0.0139,0.0004 0.3144,0.1595 0.3441,0.1782 0.0112,0.0071 0.0337,0.0145 0.0459,0.0222 0.0123,0.0077 0.0296,0.0155 0.0426,0.0223 0.0269,0.0142 0.0576,0.0293 0.0846,0.0452 0.0277,0.0161 0.1476,0.0815 0.1781,0.0815l0.071 0c0.0224,0 0.0469,-0.0174 0.0622,-0.0243 0.0224,-0.0101 0.0324,-0.0214 0.0484,-0.0382 0.0281,-0.0297 0.047,-0.0689 0.047,-0.1261 0,-0.0257 -0.0018,-0.0747 -0.0083,-0.0937 -0.0093,-0.0273 -0.007,-0.0552 -0.0159,-0.0831 -0.0038,-0.012 -0.0042,-0.0315 -0.006,-0.0434 -0.0034,-0.0227 -0.0074,-0.0272 -0.0094,-0.04 -0.0025,-0.0153 -0.0022,-0.0302 -0.0038,-0.0457 -0.0016,-0.0145 -0.0068,-0.0167 -0.0094,-0.0401 -0.0066,-0.0581 -0.0236,-0.1141 -0.0275,-0.1735 -0.0011,-0.0162 -0.0065,-0.0256 -0.0101,-0.0394 -0.0029,-0.0111 -0.0026,-0.0327 -0.0046,-0.0448 -0.005,-0.0297 -0.0131,-0.0478 -0.0131,-0.0858l-0.0385 -0.2038 0.0014 -0.0528c0,-0.0476 0.0421,-0.1096 0.0671,-0.1338 0.0303,-0.0293 0.0703,-0.072 0.1006,-0.0973 0.0309,-0.0258 0.0734,-0.0682 0.1009,-0.0969 0.0325,-0.0341 0.0655,-0.0647 0.1002,-0.0976 0.0343,-0.0323 0.0661,-0.0647 0.0995,-0.0983 0.0333,-0.0336 0.0684,-0.0639 0.1008,-0.097 0.0506,-0.0519 0.1663,-0.1378 0.1663,-0.2294l0 -0.0371c0,-0.0478 -0.0375,-0.1044 -0.064,-0.1277 -0.0393,-0.0346 -0.0719,-0.0442 -0.1367,-0.0519 -0.0133,-0.0016 -0.0229,-0.0086 -0.0402,-0.0091 -0.0189,-0.0006 -0.0257,-0.0018 -0.0434,-0.003 -0.0203,-0.0015 -0.0477,-0.0119 -0.0804,-0.0124 -0.0264,-0.0003 -0.0457,-0.012 -0.0835,-0.0123 -0.0296,-0.0002 -0.0429,-0.0128 -0.0802,-0.0124 -0.0353,0.0003 -0.0481,-0.0127 -0.0834,-0.0124 -0.0365,0.0003 -0.0498,-0.0127 -0.0835,-0.0124 -0.0354,0.0004 -0.055,-0.0124 -0.0834,-0.0123 -0.0323,0 -0.0573,-0.0113 -0.0803,-0.0124 -0.0466,-0.0023 -0.1225,-0.0151 -0.1639,-0.0246 -0.0387,-0.0089 -0.0398,-0.0061 -0.0704,-0.0254 -0.0245,-0.0154 -0.033,-0.0176 -0.0523,-0.0405 -0.0326,-0.0386 -0.045,-0.0782 -0.0687,-0.1229 -0.0106,-0.02 -0.0207,-0.0436 -0.0329,-0.0629 -0.0047,-0.0074 -0.027,-0.0543 -0.03,-0.0627 -0.0032,-0.0089 -0.027,-0.0562 -0.0321,-0.0638 -0.0031,-0.0046 -0.0285,-0.0568 -0.0305,-0.0623 -0.0133,-0.0369 -0.0449,-0.0909 -0.0631,-0.1254 -0.0214,-0.0407 -0.0386,-0.0879 -0.0617,-0.1269 -0.0057,-0.0095 -0.0276,-0.055 -0.0309,-0.0649 -0.0004,-0.0012 -0.0306,-0.0614 -0.0309,-0.0618 -0.0045,-0.0059 -0.0275,-0.0532 -0.0322,-0.0637 -0.0098,-0.0219 -0.0244,-0.0379 -0.0389,-0.0538 -0.0328,-0.0361 -0.0708,-0.0496 -0.139,-0.0496 -0.0642,0 -0.1117,0.0148 -0.1404,0.0514 -0.0163,0.0207 -0.0275,0.032 -0.0388,0.057 -0.0053,0.0117 -0.0247,0.0517 -0.0315,0.0612 -0.0005,0.0006 -0.0309,0.0624 -0.0316,0.0643 -0.0028,0.008 -0.0259,0.0563 -0.0299,0.0628 -0.0215,0.0343 -0.0438,0.0872 -0.0619,0.1266 -0.0182,0.0396 -0.0482,0.0873 -0.0641,0.1277 -0.0156,0.0397 -0.0473,0.0858 -0.0627,0.1258 -0.0151,0.0395 -0.0435,0.086 -0.0623,0.1262 -0.0229,0.0487 -0.0373,0.0794 -0.0688,0.1198 -0.0543,0.0696 -0.1802,0.0764 -0.2916,0.0886 -0.0155,0.0017 -0.0185,0.0085 -0.0403,0.0091 -0.0139,0.0003 -0.0267,0.0019 -0.0433,0.003 -0.0219,0.0014 -0.0431,0.0112 -0.0804,0.0123 -0.0257,0.0008 -0.0448,0.012 -0.0835,0.0124 -0.0296,0.0003 -0.0427,0.0126 -0.0802,0.0124 -0.0343,-0.0002 -0.0466,0.012 -0.0835,0.0123 -0.032,0.0003 -0.0512,0.0121 -0.0803,0.0125 -0.0473,0.0006 -0.1175,0.0194 -0.1638,0.0247 -0.0687,0.0077 -0.0925,0.0174 -0.1341,0.0544 -0.0251,0.0224 -0.0636,0.0811 -0.0636,0.125l0 0.0371z"/>
   <path id="_311453800" class="fil0" d="M8.3075 1.3266c0,0.0461 0.0394,0.103 0.0641,0.1275 0.0267,0.0266 0.0674,0.0715 0.0953,0.0933 0.025,0.0196 0.0753,0.0708 0.097,0.0946 0.0148,0.0161 0.0894,0.0813 0.0927,0.0958 0.0134,0.0011 0.1084,0.1005 0.1244,0.1167 0.034,0.0345 0.0876,0.0895 0.1229,0.1183 0.0264,0.0216 0.1001,0.0959 0.1147,0.1263 0.0313,0.0652 0.0355,0.1146 0.0131,0.1965 -0.004,0.0146 -0.0018,0.041 -0.006,0.0558 -0.0047,0.0163 -0.01,0.0267 -0.0107,0.048 -0.0002,0.006 -0.0144,0.0997 -0.0159,0.1047 -0.0076,0.0237 -0.0067,0.0223 -0.0087,0.0531 -0.0013,0.0191 -0.0096,0.0319 -0.0118,0.047 -0.0061,0.0404 -0.0096,0.0681 -0.0153,0.1052 -0.004,0.0257 -0.0083,0.0272 -0.0101,0.0518 -0.001,0.014 -0.0034,0.0388 -0.0083,0.0504 0,0.0002 -0.0191,0.1004 -0.0192,0.1014 -0.0079,0.073 -0.028,0.134 -0.028,0.21 0,0.0163 0.0012,0.0304 0.0031,0.0463 0.0023,0.0186 0.0123,0.0094 0.0123,0.0372 0.0106,0.0071 0.0318,0.047 0.0597,0.0671 0.0178,0.0129 0.0575,0.038 0.0855,0.038l0.068 0c0.047,0 0.3035,-0.1524 0.3619,-0.1789 0.0479,-0.0218 0.3389,-0.1824 0.358,-0.1828 0.0053,-0.01 0.0489,-0.0327 0.0614,-0.0376 0.0195,-0.0077 0.0456,-0.0274 0.0684,-0.0274 0.0133,-0.0198 0.1226,-0.0199 0.136,0 0.0217,0 0.0656,0.0257 0.0815,0.036 0.0177,0.0114 0.0649,0.0261 0.073,0.0413 0.0138,0.0004 0.3143,0.1595 0.3441,0.1782 0.0112,0.0071 0.0336,0.0145 0.0458,0.0222 0.0124,0.0077 0.0297,0.0155 0.0426,0.0223 0.027,0.0142 0.0576,0.0293 0.0847,0.0452 0.0276,0.0161 0.1475,0.0815 0.178,0.0815l0.0711 0c0.0223,0 0.0468,-0.0174 0.0622,-0.0243 0.0223,-0.0101 0.0323,-0.0214 0.0483,-0.0382 0.0281,-0.0297 0.047,-0.0689 0.047,-0.1261 0,-0.0257 -0.0018,-0.0747 -0.0083,-0.0937 -0.0093,-0.0273 -0.007,-0.0552 -0.0158,-0.0831 -0.0038,-0.012 -0.0043,-0.0315 -0.0061,-0.0434 -0.0033,-0.0227 -0.0073,-0.0272 -0.0094,-0.04 -0.0025,-0.0153 -0.0021,-0.0302 -0.0038,-0.0457 -0.0016,-0.0145 -0.0067,-0.0167 -0.0094,-0.0401 -0.0066,-0.0581 -0.0235,-0.1141 -0.0275,-0.1735 -0.001,-0.0162 -0.0064,-0.0256 -0.01,-0.0394 -0.0029,-0.0111 -0.0026,-0.0327 -0.0047,-0.0448 -0.005,-0.0297 -0.0131,-0.0478 -0.0131,-0.0858l-0.0384 -0.2038 0.0013 -0.0528c0,-0.0476 0.0422,-0.1096 0.0672,-0.1338 0.0302,-0.0293 0.0703,-0.072 0.1005,-0.0973 0.0309,-0.0258 0.0734,-0.0682 0.1009,-0.0969 0.0325,-0.0341 0.0655,-0.0647 0.1003,-0.0976 0.0343,-0.0323 0.0661,-0.0647 0.0994,-0.0983 0.0334,-0.0336 0.0685,-0.0639 0.1008,-0.097 0.0507,-0.0519 0.1663,-0.1378 0.1663,-0.2294l0 -0.0371c0,-0.0478 -0.0375,-0.1044 -0.064,-0.1277 -0.0393,-0.0346 -0.0719,-0.0442 -0.1366,-0.0519 -0.0134,-0.0016 -0.023,-0.0086 -0.0403,-0.0091 -0.0188,-0.0006 -0.0257,-0.0018 -0.0433,-0.003 -0.0203,-0.0015 -0.0478,-0.0119 -0.0804,-0.0124 -0.0265,-0.0003 -0.0457,-0.012 -0.0835,-0.0123 -0.0297,-0.0002 -0.0429,-0.0128 -0.0803,-0.0124 -0.0352,0.0003 -0.048,-0.0127 -0.0834,-0.0124 -0.0365,0.0003 -0.0498,-0.0127 -0.0834,-0.0124 -0.0354,0.0004 -0.055,-0.0124 -0.0834,-0.0123 -0.0324,0 -0.0573,-0.0113 -0.0804,-0.0124 -0.0465,-0.0023 -0.1224,-0.0151 -0.1639,-0.0246 -0.0387,-0.0089 -0.0397,-0.0061 -0.0704,-0.0254 -0.0244,-0.0154 -0.0329,-0.0176 -0.0522,-0.0405 -0.0327,-0.0386 -0.0451,-0.0782 -0.0688,-0.1229 -0.0106,-0.02 -0.0207,-0.0436 -0.0329,-0.0629 -0.0046,-0.0074 -0.027,-0.0543 -0.03,-0.0627 -0.0032,-0.0089 -0.0269,-0.0562 -0.0321,-0.0638 -0.0031,-0.0046 -0.0285,-0.0568 -0.0304,-0.0623 -0.0133,-0.0369 -0.045,-0.0909 -0.0631,-0.1254 -0.0215,-0.0407 -0.0386,-0.0879 -0.0618,-0.1269 -0.0057,-0.0095 -0.0275,-0.055 -0.0308,-0.0649 -0.0004,-0.0012 -0.0307,-0.0614 -0.031,-0.0618 -0.0045,-0.0059 -0.0274,-0.0532 -0.0321,-0.0637 -0.0098,-0.0219 -0.0245,-0.0379 -0.0389,-0.0538 -0.0329,-0.0361 -0.0708,-0.0496 -0.1391,-0.0496 -0.0642,0 -0.1116,0.0148 -0.1404,0.0514 -0.0162,0.0207 -0.0275,0.032 -0.0388,0.057 -0.0053,0.0117 -0.0247,0.0517 -0.0315,0.0612 -0.0004,0.0006 -0.0308,0.0624 -0.0315,0.0643 -0.0029,0.008 -0.0259,0.0563 -0.03,0.0628 -0.0214,0.0343 -0.0438,0.0872 -0.0619,0.1266 -0.0181,0.0396 -0.0481,0.0873 -0.064,0.1277 -0.0157,0.0397 -0.0474,0.0858 -0.0627,0.1258 -0.0152,0.0395 -0.0435,0.086 -0.0624,0.1262 -0.0229,0.0487 -0.0372,0.0794 -0.0688,0.1198 -0.0543,0.0696 -0.1801,0.0764 -0.2916,0.0886 -0.0155,0.0017 -0.0185,0.0085 -0.0403,0.0091 -0.0139,0.0003 -0.0267,0.0019 -0.0433,0.003 -0.0219,0.0014 -0.0431,0.0112 -0.0804,0.0123 -0.0256,0.0008 -0.0447,0.012 -0.0834,0.0124 -0.0297,0.0003 -0.0427,0.0126 -0.0803,0.0124 -0.0343,-0.0002 -0.0465,0.012 -0.0835,0.0123 -0.032,0.0003 -0.0511,0.0121 -0.0802,0.0125 -0.0474,0.0006 -0.1176,0.0194 -0.1638,0.0247 -0.0687,0.0077 -0.0926,0.0174 -0.1341,0.0544 -0.0252,0.0224 -0.0636,0.0811 -0.0636,0.125l0 0.0371z"/>
   <path id="_311452912" class="fil0" d="M12.4612 1.3266c0,0.0461 0.0395,0.103 0.0641,0.1275 0.0268,0.0266 0.0674,0.0715 0.0953,0.0933 0.025,0.0196 0.0754,0.0708 0.0971,0.0946 0.0148,0.0161 0.0893,0.0813 0.0927,0.0958 0.0134,0.0011 0.1083,0.1005 0.1243,0.1167 0.0341,0.0345 0.0876,0.0895 0.1229,0.1183 0.0265,0.0216 0.1002,0.0959 0.1148,0.1263 0.0312,0.0652 0.0354,0.1146 0.0131,0.1965 -0.004,0.0146 -0.0019,0.041 -0.0061,0.0558 -0.0046,0.0163 -0.01,0.0267 -0.0107,0.048 -0.0002,0.006 -0.0143,0.0997 -0.0159,0.1047 -0.0075,0.0237 -0.0066,0.0223 -0.0087,0.0531 -0.0012,0.0191 -0.0095,0.0319 -0.0118,0.047 -0.0061,0.0404 -0.0095,0.0681 -0.0153,0.1052 -0.004,0.0257 -0.0083,0.0272 -0.01,0.0518 -0.001,0.014 -0.0035,0.0388 -0.0084,0.0504 0,0.0002 -0.0191,0.1004 -0.0192,0.1014 -0.0078,0.073 -0.028,0.134 -0.028,0.21 0,0.0163 0.0013,0.0304 0.0032,0.0463 0.0022,0.0186 0.0122,0.0094 0.0122,0.0372 0.0106,0.0071 0.0318,0.047 0.0597,0.0671 0.0178,0.0129 0.0576,0.038 0.0856,0.038l0.0679 0c0.0471,0 0.3036,-0.1524 0.3619,-0.1789 0.048,-0.0218 0.3389,-0.1824 0.3581,-0.1828 0.0053,-0.01 0.0489,-0.0327 0.0613,-0.0376 0.0196,-0.0077 0.0456,-0.0274 0.0685,-0.0274 0.0132,-0.0198 0.1226,-0.0199 0.1359,0 0.0218,0 0.0657,0.0257 0.0815,0.036 0.0177,0.0114 0.0649,0.0261 0.073,0.0413 0.0139,0.0004 0.3143,0.1595 0.3441,0.1782 0.0112,0.0071 0.0336,0.0145 0.0459,0.0222 0.0123,0.0077 0.0296,0.0155 0.0425,0.0223 0.027,0.0142 0.0576,0.0293 0.0847,0.0452 0.0276,0.0161 0.1476,0.0815 0.178,0.0815l0.0711 0c0.0224,0 0.0469,-0.0174 0.0622,-0.0243 0.0224,-0.0101 0.0324,-0.0214 0.0483,-0.0382 0.0282,-0.0297 0.0471,-0.0689 0.0471,-0.1261 0,-0.0257 -0.0018,-0.0747 -0.0083,-0.0937 -0.0094,-0.0273 -0.007,-0.0552 -0.0159,-0.0831 -0.0038,-0.012 -0.0043,-0.0315 -0.006,-0.0434 -0.0034,-0.0227 -0.0074,-0.0272 -0.0094,-0.04 -0.0025,-0.0153 -0.0022,-0.0302 -0.0038,-0.0457 -0.0016,-0.0145 -0.0068,-0.0167 -0.0094,-0.0401 -0.0066,-0.0581 -0.0236,-0.1141 -0.0275,-0.1735 -0.0011,-0.0162 -0.0065,-0.0256 -0.0101,-0.0394 -0.0029,-0.0111 -0.0026,-0.0327 -0.0046,-0.0448 -0.005,-0.0297 -0.0132,-0.0478 -0.0132,-0.0858l-0.0384 -0.2038 0.0014 -0.0528c0,-0.0476 0.0421,-0.1096 0.0671,-0.1338 0.0302,-0.0293 0.0703,-0.072 0.1005,-0.0973 0.0309,-0.0258 0.0735,-0.0682 0.1009,-0.0969 0.0326,-0.0341 0.0656,-0.0647 0.1003,-0.0976 0.0343,-0.0323 0.0661,-0.0647 0.0995,-0.0983 0.0333,-0.0336 0.0684,-0.0639 0.1008,-0.097 0.0506,-0.0519 0.1663,-0.1378 0.1663,-0.2294l0 -0.0371c0,-0.0478 -0.0375,-0.1044 -0.064,-0.1277 -0.0394,-0.0346 -0.072,-0.0442 -0.1367,-0.0519 -0.0133,-0.0016 -0.023,-0.0086 -0.0402,-0.0091 -0.0189,-0.0006 -0.0258,-0.0018 -0.0434,-0.003 -0.0203,-0.0015 -0.0477,-0.0119 -0.0804,-0.0124 -0.0264,-0.0003 -0.0457,-0.012 -0.0835,-0.0123 -0.0297,-0.0002 -0.0429,-0.0128 -0.0802,-0.0124 -0.0353,0.0003 -0.0481,-0.0127 -0.0834,-0.0124 -0.0366,0.0003 -0.0498,-0.0127 -0.0835,-0.0124 -0.0354,0.0004 -0.055,-0.0124 -0.0834,-0.0123 -0.0324,0 -0.0573,-0.0113 -0.0803,-0.0124 -0.0466,-0.0023 -0.1225,-0.0151 -0.1639,-0.0246 -0.0388,-0.0089 -0.0398,-0.0061 -0.0704,-0.0254 -0.0245,-0.0154 -0.033,-0.0176 -0.0523,-0.0405 -0.0326,-0.0386 -0.045,-0.0782 -0.0687,-0.1229 -0.0106,-0.02 -0.0207,-0.0436 -0.0329,-0.0629 -0.0047,-0.0074 -0.027,-0.0543 -0.0301,-0.0627 -0.0031,-0.0089 -0.0269,-0.0562 -0.032,-0.0638 -0.0031,-0.0046 -0.0285,-0.0568 -0.0305,-0.0623 -0.0133,-0.0369 -0.0449,-0.0909 -0.0631,-0.1254 -0.0214,-0.0407 -0.0386,-0.0879 -0.0617,-0.1269 -0.0057,-0.0095 -0.0276,-0.055 -0.0309,-0.0649 -0.0004,-0.0012 -0.0306,-0.0614 -0.0309,-0.0618 -0.0045,-0.0059 -0.0275,-0.0532 -0.0322,-0.0637 -0.0098,-0.0219 -0.0244,-0.0379 -0.0389,-0.0538 -0.0328,-0.0361 -0.0708,-0.0496 -0.1391,-0.0496 -0.0641,0 -0.1116,0.0148 -0.1403,0.0514 -0.0163,0.0207 -0.0275,0.032 -0.0388,0.057 -0.0053,0.0117 -0.0247,0.0517 -0.0315,0.0612 -0.0005,0.0006 -0.0309,0.0624 -0.0316,0.0643 -0.0029,0.008 -0.0259,0.0563 -0.0299,0.0628 -0.0215,0.0343 -0.0439,0.0872 -0.0619,0.1266 -0.0182,0.0396 -0.0482,0.0873 -0.0641,0.1277 -0.0156,0.0397 -0.0473,0.0858 -0.0627,0.1258 -0.0151,0.0395 -0.0435,0.086 -0.0624,0.1262 -0.0228,0.0487 -0.0372,0.0794 -0.0687,0.1198 -0.0543,0.0696 -0.1802,0.0764 -0.2916,0.0886 -0.0155,0.0017 -0.0185,0.0085 -0.0403,0.0091 -0.0139,0.0003 -0.0267,0.0019 -0.0433,0.003 -0.022,0.0014 -0.0431,0.0112 -0.0804,0.0123 -0.0257,0.0008 -0.0448,0.012 -0.0835,0.0124 -0.0296,0.0003 -0.0427,0.0126 -0.0803,0.0124 -0.0343,-0.0002 -0.0465,0.012 -0.0834,0.0123 -0.032,0.0003 -0.0512,0.0121 -0.0803,0.0125 -0.0474,0.0006 -0.1175,0.0194 -0.1638,0.0247 -0.0687,0.0077 -0.0925,0.0174 -0.1341,0.0544 -0.0252,0.0224 -0.0636,0.0811 -0.0636,0.125l0 0.0371z"/>
   <path id="_311453008" class="fil1" d="M16.615 1.3266c0,0.0461 0.0394,0.103 0.0641,0.1275 0.0267,0.0266 0.0674,0.0715 0.0953,0.0933 0.0249,0.0196 0.0753,0.0708 0.097,0.0946 0.0148,0.0161 0.0893,0.0813 0.0927,0.0958 0.0134,0.0011 0.1083,0.1005 0.1244,0.1167 0.034,0.0345 0.0876,0.0895 0.1229,0.1183 0.0264,0.0216 0.1001,0.0959 0.1147,0.1263 0.0313,0.0652 0.0355,0.1146 0.0131,0.1965 -0.004,0.0146 -0.0018,0.041 -0.006,0.0558 -0.0047,0.0163 -0.01,0.0267 -0.0107,0.048 -0.0002,0.006 -0.0144,0.0997 -0.016,0.1047 -0.0075,0.0237 -0.0066,0.0223 -0.0086,0.0531 -0.0013,0.0191 -0.0096,0.0319 -0.0118,0.047 -0.0061,0.0404 -0.0096,0.0681 -0.0153,0.1052 -0.004,0.0257 -0.0083,0.0272 -0.0101,0.0518 -0.001,0.014 -0.0035,0.0388 -0.0083,0.0504 -0.0001,0.0002 -0.0191,0.1004 -0.0192,0.1014 -0.0079,0.073 -0.0281,0.134 -0.0281,0.21 0,0.0163 0.0013,0.0304 0.0032,0.0463 0.0023,0.0186 0.0123,0.0094 0.0123,0.0372 0.0106,0.0071 0.0318,0.047 0.0596,0.0671 0.0179,0.0129 0.0576,0.038 0.0856,0.038l0.068 0c0.047,0 0.3035,-0.1524 0.3619,-0.1789 0.0479,-0.0218 0.3389,-0.1824 0.358,-0.1828 0.0053,-0.01 0.0489,-0.0327 0.0613,-0.0376 0.0196,-0.0077 0.0457,-0.0274 0.0685,-0.0274 0.0133,-0.0198 0.1226,-0.0199 0.136,0 0.0217,0 0.0656,0.0257 0.0815,0.036 0.0177,0.0114 0.0649,0.0261 0.073,0.0413 0.0138,0.0004 0.3143,0.1595 0.3441,0.1782 0.0112,0.0071 0.0336,0.0145 0.0458,0.0222 0.0124,0.0077 0.0297,0.0155 0.0426,0.0223 0.027,0.0142 0.0576,0.0293 0.0847,0.0452 0.0276,0.0161 0.1475,0.0815 0.178,0.0815l0.071 0c0.0224,0 0.0469,-0.0174 0.0622,-0.0243 0.0224,-0.0101 0.0324,-0.0214 0.0484,-0.0382 0.0281,-0.0297 0.047,-0.0689 0.047,-0.1261 0,-0.0257 -0.0018,-0.0747 -0.0083,-0.0937 -0.0093,-0.0273 -0.007,-0.0552 -0.0158,-0.0831 -0.0038,-0.012 -0.0043,-0.0315 -0.0061,-0.0434 -0.0033,-0.0227 -0.0073,-0.0272 -0.0094,-0.04 -0.0025,-0.0153 -0.0021,-0.0302 -0.0038,-0.0457 -0.0016,-0.0145 -0.0067,-0.0167 -0.0094,-0.0401 -0.0066,-0.0581 -0.0236,-0.1141 -0.0275,-0.1735 -0.0011,-0.0162 -0.0065,-0.0256 -0.01,-0.0394 -0.0029,-0.0111 -0.0026,-0.0327 -0.0047,-0.0448 -0.005,-0.0297 -0.0131,-0.0478 -0.0131,-0.0858l-0.0384 -0.2038 0.0013 -0.0528c0,-0.0476 0.0422,-0.1096 0.0672,-0.1338 0.0302,-0.0293 0.0702,-0.072 0.1005,-0.0973 0.0309,-0.0258 0.0734,-0.0682 0.1009,-0.0969 0.0325,-0.0341 0.0655,-0.0647 0.1003,-0.0976 0.0342,-0.0323 0.0661,-0.0647 0.0994,-0.0983 0.0334,-0.0336 0.0685,-0.0639 0.1008,-0.097 0.0507,-0.0519 0.1663,-0.1378 0.1663,-0.2294l0 -0.0371c0,-0.0478 -0.0375,-0.1044 -0.064,-0.1277 -0.0393,-0.0346 -0.0719,-0.0442 -0.1366,-0.0519 -0.0134,-0.0016 -0.023,-0.0086 -0.0403,-0.0091 -0.0188,-0.0006 -0.0257,-0.0018 -0.0434,-0.003 -0.0203,-0.0015 -0.0477,-0.0119 -0.0804,-0.0124 -0.0264,-0.0003 -0.0456,-0.012 -0.0834,-0.0123 -0.0297,-0.0002 -0.0429,-0.0128 -0.0803,-0.0124 -0.0353,0.0003 -0.0481,-0.0127 -0.0834,-0.0124 -0.0365,0.0003 -0.0498,-0.0127 -0.0834,-0.0124 -0.0354,0.0004 -0.055,-0.0124 -0.0835,-0.0123 -0.0323,0 -0.0573,-0.0113 -0.0803,-0.0124 -0.0465,-0.0023 -0.1225,-0.0151 -0.1639,-0.0246 -0.0387,-0.0089 -0.0397,-0.0061 -0.0704,-0.0254 -0.0245,-0.0154 -0.0329,-0.0176 -0.0523,-0.0405 -0.0326,-0.0386 -0.045,-0.0782 -0.0687,-0.1229 -0.0106,-0.02 -0.0207,-0.0436 -0.0329,-0.0629 -0.0046,-0.0074 -0.027,-0.0543 -0.03,-0.0627 -0.0032,-0.0089 -0.0269,-0.0562 -0.0321,-0.0638 -0.0031,-0.0046 -0.0285,-0.0568 -0.0304,-0.0623 -0.0134,-0.0369 -0.045,-0.0909 -0.0632,-0.1254 -0.0214,-0.0407 -0.0385,-0.0879 -0.0617,-0.1269 -0.0057,-0.0095 -0.0276,-0.055 -0.0309,-0.0649 -0.0004,-0.0012 -0.0306,-0.0614 -0.0309,-0.0618 -0.0045,-0.0059 -0.0274,-0.0532 -0.0321,-0.0637 -0.0098,-0.0219 -0.0245,-0.0379 -0.039,-0.0538 -0.0328,-0.0361 -0.0708,-0.0496 -0.139,-0.0496 -0.0642,0 -0.1116,0.0148 -0.1404,0.0514 -0.0162,0.0207 -0.0275,0.032 -0.0388,0.057 -0.0053,0.0117 -0.0247,0.0517 -0.0315,0.0612 -0.0004,0.0006 -0.0308,0.0624 -0.0315,0.0643 -0.0029,0.008 -0.0259,0.0563 -0.03,0.0628 -0.0214,0.0343 -0.0438,0.0872 -0.0619,0.1266 -0.0182,0.0396 -0.0482,0.0873 -0.064,0.1277 -0.0157,0.0397 -0.0474,0.0858 -0.0627,0.1258 -0.0152,0.0395 -0.0435,0.086 -0.0624,0.1262 -0.0229,0.0487 -0.0372,0.0794 -0.0688,0.1198 -0.0543,0.0696 -0.1801,0.0764 -0.2916,0.0886 -0.0155,0.0017 -0.0185,0.0085 -0.0403,0.0091 -0.0139,0.0003 -0.0267,0.0019 -0.0433,0.003 -0.0219,0.0014 -0.0431,0.0112 -0.0804,0.0123 -0.0257,0.0008 -0.0447,0.012 -0.0834,0.0124 -0.0297,0.0003 -0.0427,0.0126 -0.0803,0.0124 -0.0343,-0.0002 -0.0465,0.012 -0.0835,0.0123 -0.032,0.0003 -0.0512,0.0121 -0.0803,0.0125 -0.0473,0.0006 -0.1175,0.0194 -0.1638,0.0247 -0.0686,0.0077 -0.0925,0.0174 -0.134,0.0544 -0.0252,0.0224 -0.0636,0.0811 -0.0636,0.125l0 0.0371z"/>
   <g style="clip-path:url(#id0)">
    <g>
     <rect id="_311453416" class="fil0" x="16.4789" y="-0.320418" width="3.20062" height="4.793"/>
    </g>
   </g>
   <path class="fil2" d="M16.615 1.3266c0,0.0461 0.0394,0.103 0.0641,0.1275 0.0267,0.0266 0.0674,0.0715 0.0953,0.0933 0.0249,0.0196 0.0753,0.0708 0.097,0.0946 0.0148,0.0161 0.0893,0.0813 0.0927,0.0958 0.0134,0.0011 0.1083,0.1005 0.1244,0.1167 0.034,0.0345 0.0876,0.0895 0.1229,0.1183 0.0264,0.0216 0.1001,0.0959 0.1147,0.1263 0.0313,0.0652 0.0355,0.1146 0.0131,0.1965 -0.004,0.0146 -0.0018,0.041 -0.006,0.0558 -0.0047,0.0163 -0.01,0.0267 -0.0107,0.048 -0.0002,0.006 -0.0144,0.0997 -0.016,0.1047 -0.0075,0.0237 -0.0066,0.0223 -0.0086,0.0531 -0.0013,0.0191 -0.0096,0.0319 -0.0118,0.047 -0.0061,0.0404 -0.0096,0.0681 -0.0153,0.1052 -0.004,0.0257 -0.0083,0.0272 -0.0101,0.0518 -0.001,0.014 -0.0035,0.0388 -0.0083,0.0504 -0.0001,0.0002 -0.0191,0.1004 -0.0192,0.1014 -0.0079,0.073 -0.0281,0.134 -0.0281,0.21 0,0.0163 0.0013,0.0304 0.0032,0.0463 0.0023,0.0186 0.0123,0.0094 0.0123,0.0372 0.0106,0.0071 0.0318,0.047 0.0596,0.0671 0.0179,0.0129 0.0576,0.038 0.0856,0.038l0.068 0c0.047,0 0.3035,-0.1524 0.3619,-0.1789 0.0479,-0.0218 0.3389,-0.1824 0.358,-0.1828 0.0053,-0.01 0.0489,-0.0327 0.0613,-0.0376 0.0196,-0.0077 0.0457,-0.0274 0.0685,-0.0274 0.0133,-0.0198 0.1226,-0.0199 0.136,0 0.0217,0 0.0656,0.0257 0.0815,0.036 0.0177,0.0114 0.0649,0.0261 0.073,0.0413 0.0138,0.0004 0.3143,0.1595 0.3441,0.1782 0.0112,0.0071 0.0336,0.0145 0.0458,0.0222 0.0124,0.0077 0.0297,0.0155 0.0426,0.0223 0.027,0.0142 0.0576,0.0293 0.0847,0.0452 0.0276,0.0161 0.1475,0.0815 0.178,0.0815l0.071 0c0.0224,0 0.0469,-0.0174 0.0622,-0.0243 0.0224,-0.0101 0.0324,-0.0214 0.0484,-0.0382 0.0281,-0.0297 0.047,-0.0689 0.047,-0.1261 0,-0.0257 -0.0018,-0.0747 -0.0083,-0.0937 -0.0093,-0.0273 -0.007,-0.0552 -0.0158,-0.0831 -0.0038,-0.012 -0.0043,-0.0315 -0.0061,-0.0434 -0.0033,-0.0227 -0.0073,-0.0272 -0.0094,-0.04 -0.0025,-0.0153 -0.0021,-0.0302 -0.0038,-0.0457 -0.0016,-0.0145 -0.0067,-0.0167 -0.0094,-0.0401 -0.0066,-0.0581 -0.0236,-0.1141 -0.0275,-0.1735 -0.0011,-0.0162 -0.0065,-0.0256 -0.01,-0.0394 -0.0029,-0.0111 -0.0026,-0.0327 -0.0047,-0.0448 -0.005,-0.0297 -0.0131,-0.0478 -0.0131,-0.0858l-0.0384 -0.2038 0.0013 -0.0528c0,-0.0476 0.0422,-0.1096 0.0672,-0.1338 0.0302,-0.0293 0.0702,-0.072 0.1005,-0.0973 0.0309,-0.0258 0.0734,-0.0682 0.1009,-0.0969 0.0325,-0.0341 0.0655,-0.0647 0.1003,-0.0976 0.0342,-0.0323 0.0661,-0.0647 0.0994,-0.0983 0.0334,-0.0336 0.0685,-0.0639 0.1008,-0.097 0.0507,-0.0519 0.1663,-0.1378 0.1663,-0.2294l0 -0.0371c0,-0.0478 -0.0375,-0.1044 -0.064,-0.1277 -0.0393,-0.0346 -0.0719,-0.0442 -0.1366,-0.0519 -0.0134,-0.0016 -0.023,-0.0086 -0.0403,-0.0091 -0.0188,-0.0006 -0.0257,-0.0018 -0.0434,-0.003 -0.0203,-0.0015 -0.0477,-0.0119 -0.0804,-0.0124 -0.0264,-0.0003 -0.0456,-0.012 -0.0834,-0.0123 -0.0297,-0.0002 -0.0429,-0.0128 -0.0803,-0.0124 -0.0353,0.0003 -0.0481,-0.0127 -0.0834,-0.0124 -0.0365,0.0003 -0.0498,-0.0127 -0.0834,-0.0124 -0.0354,0.0004 -0.055,-0.0124 -0.0835,-0.0123 -0.0323,0 -0.0573,-0.0113 -0.0803,-0.0124 -0.0465,-0.0023 -0.1225,-0.0151 -0.1639,-0.0246 -0.0387,-0.0089 -0.0397,-0.0061 -0.0704,-0.0254 -0.0245,-0.0154 -0.0329,-0.0176 -0.0523,-0.0405 -0.0326,-0.0386 -0.045,-0.0782 -0.0687,-0.1229 -0.0106,-0.02 -0.0207,-0.0436 -0.0329,-0.0629 -0.0046,-0.0074 -0.027,-0.0543 -0.03,-0.0627 -0.0032,-0.0089 -0.0269,-0.0562 -0.0321,-0.0638 -0.0031,-0.0046 -0.0285,-0.0568 -0.0304,-0.0623 -0.0134,-0.0369 -0.045,-0.0909 -0.0632,-0.1254 -0.0214,-0.0407 -0.0385,-0.0879 -0.0617,-0.1269 -0.0057,-0.0095 -0.0276,-0.055 -0.0309,-0.0649 -0.0004,-0.0012 -0.0306,-0.0614 -0.0309,-0.0618 -0.0045,-0.0059 -0.0274,-0.0532 -0.0321,-0.0637 -0.0098,-0.0219 -0.0245,-0.0379 -0.039,-0.0538 -0.0328,-0.0361 -0.0708,-0.0496 -0.139,-0.0496 -0.0642,0 -0.1116,0.0148 -0.1404,0.0514 -0.0162,0.0207 -0.0275,0.032 -0.0388,0.057 -0.0053,0.0117 -0.0247,0.0517 -0.0315,0.0612 -0.0004,0.0006 -0.0308,0.0624 -0.0315,0.0643 -0.0029,0.008 -0.0259,0.0563 -0.03,0.0628 -0.0214,0.0343 -0.0438,0.0872 -0.0619,0.1266 -0.0182,0.0396 -0.0482,0.0873 -0.064,0.1277 -0.0157,0.0397 -0.0474,0.0858 -0.0627,0.1258 -0.0152,0.0395 -0.0435,0.086 -0.0624,0.1262 -0.0229,0.0487 -0.0372,0.0794 -0.0688,0.1198 -0.0543,0.0696 -0.1801,0.0764 -0.2916,0.0886 -0.0155,0.0017 -0.0185,0.0085 -0.0403,0.0091 -0.0139,0.0003 -0.0267,0.0019 -0.0433,0.003 -0.0219,0.0014 -0.0431,0.0112 -0.0804,0.0123 -0.0257,0.0008 -0.0447,0.012 -0.0834,0.0124 -0.0297,0.0003 -0.0427,0.0126 -0.0803,0.0124 -0.0343,-0.0002 -0.0465,0.012 -0.0835,0.0123 -0.032,0.0003 -0.0512,0.0121 -0.0803,0.0125 -0.0473,0.0006 -0.1175,0.0194 -0.1638,0.0247 -0.0686,0.0077 -0.0925,0.0174 -0.134,0.0544 -0.0252,0.0224 -0.0636,0.0811 -0.0636,0.125l0 0.0371z"/>
  </g>
 </g>
</svg>
