<?xml version="1.0" encoding="UTF-8"?>
<!DOCTYPE svg PUBLIC "-//W3C//DTD SVG 1.1//EN" "http://www.w3.org/Graphics/SVG/1.1/DTD/svg11.dtd">
<!-- Creator: CorelDRAW -->
<svg xmlns="http://www.w3.org/2000/svg" xml:space="preserve" width="14.653mm" height="14.3998mm" style="shape-rendering:geometricPrecision; text-rendering:geometricPrecision; image-rendering:optimizeQuality; fill-rule:evenodd; clip-rule:evenodd"
viewBox="0 0 14.653 14.3998"
 xmlns:xlink="http://www.w3.org/1999/xlink">
 <defs>
  <style type="text/css">
   <![CDATA[
    .str0 {stroke:#3F4446;stroke-width:0.504}
    .str1 {stroke:#00ACEE;stroke-width:0.504;stroke-linecap:round;stroke-linejoin:round}
    .fil0 {fill:none}
    .fil4 {fill:#15202A}
    .fil2 {fill:white}
    .fil1 {fill:#3F4446}
    .fil3 {fill:#00ACEE}
   ]]>
  </style>
 </defs>
 <g id="Layer_x0020_1">
  <metadata id="CorelCorpID_0Corel-Layer"/>
  <g id="_03.cdr">
   <path id="_96024376" class="fil0 str0" d="M2.4143 6.6584c0.1472,0.843 0.2944,1.686 0.4416,2.529 0.2935,1.6812 0.5263,2.9977 2.0224,4.1002 1.7139,1.263 4.102,1.1958 5.8424,-0.592 1.1761,-1.2079 1.2203,-2.1101 1.3674,-3.6945 0.0697,-0.75 0.1393,-1.5001 0.209,-2.2501 -3.2943,-0.0308 -6.5885,-0.0617 -9.8828,-0.0926z"/>
   <path id="_96024664" class="fil1" d="M4.3071 7.6963c0.6738,0.1832 1.3177,0.3667 1.9915,0.5499 0.5048,0.1372 0.4574,0.3369 0.2321,0.8368 -0.1408,0.3125 -0.3714,0.5919 -0.6411,0.7218 -0.8948,0.4313 -2.2261,-0.4076 -2.4072,-1.4268 -0.0417,-0.2345 -0.0346,-0.4628 0.0631,-0.625 0.1845,-0.3062 0.4867,-0.1314 0.7616,-0.0567z"/>
   <path id="_96023896" class="fil2" d="M4.2571 8.2857c0.2335,1.183 1.3894,1.2757 1.748,0.5489 -0.5827,-0.183 -1.1653,-0.366 -1.748,-0.5489z"/>
   <path id="_96024856" class="fil1" d="M10.6757 7.6963c-0.6738,0.1832 -1.3177,0.3667 -1.9915,0.5499 -0.5048,0.1372 -0.4574,0.3369 -0.2322,0.8368 0.1409,0.3125 0.3715,0.5919 0.6411,0.7218 0.8949,0.4313 2.2262,-0.4076 2.4073,-1.4268 0.0417,-0.2345 0.0346,-0.4628 -0.0631,-0.625 -0.1846,-0.3062 -0.4867,-0.1314 -0.7616,-0.0567z"/>
   <path id="_96025696" class="fil2" d="M10.7257 8.2857c-0.2335,1.183 -1.3894,1.2757 -1.748,0.5489 0.5827,-0.183 1.1653,-0.366 1.748,-0.5489z"/>
   <path id="_96022480" class="fil0 str0" d="M3.446 11.1354c1.3058,0.2654 2.6223,-0.0476 3.9903,-0.8401 1.5324,0.7838 3.0102,1.1453 4.2937,0.7467"/>
   <path id="_96023920" class="fil3" d="M2.3755 4.4191c1.1996,-3.4816 2.6578,-5.7303 5.0394,-3.5753 1.8671,-1.6713 3.5128,-0.8711 4.8352,3.5413 3.3238,0.4539 3.4018,2.1737 -1.0444,2.763 -2.7617,0.3659 -5.9281,0.3985 -8.6517,-0.1603 -3.135,-0.6431 -3.6017,-1.9571 -0.1785,-2.5687z"/>
   <path id="_96022816" class="fil4" d="M2.3074 5.1342c-0.2136,0.8617 0.3727,1.0569 0.4822,0.1702 0.9874,-3.699 2.2885,-6.1879 4.694,-3.5291 0.7866,0.7347 1.4485,-0.0325 0.5442,-0.3867 1.6852,-1.9613 2.7789,0.8094 3.8818,3.5072 5.8382,1.4311 -3.8624,2.4005 -9.7942,1.341 -0.229,-0.0409 -1.7324,-0.2298 -1.2649,-0.7129 0.2572,-0.2658 1.0297,-0.4694 1.4569,-0.3897z"/>
   <path id="_96023464" class="fil0 str1" d="M5.7558 5.5646c0.3671,0.0581 0.7341,0.0774 1.1013,0.0117"/>
   <path id="_96025048" class="fil0 str1" d="M7.8424 5.5763c1.1668,0.0395 2.2718,-0.0088 3.3153,-0.3719"/>
  </g>
 </g>
</svg>
