<?xml version="1.0" encoding="UTF-8"?>
<!DOCTYPE svg PUBLIC "-//W3C//DTD SVG 1.1//EN" "http://www.w3.org/Graphics/SVG/1.1/DTD/svg11.dtd">
<!-- Creator: CorelDRAW -->
<svg xmlns="http://www.w3.org/2000/svg" xml:space="preserve" width="15.8798mm" height="13.1974mm" style="shape-rendering:geometricPrecision; text-rendering:geometricPrecision; image-rendering:optimizeQuality; fill-rule:evenodd; clip-rule:evenodd"
viewBox="0 0 15.8798 13.1974"
 xmlns:xlink="http://www.w3.org/1999/xlink">
 <defs>
  <style type="text/css">
   <![CDATA[
    .fil1 {fill:white}
    .fil2 {fill:#3F4446}
    .fil0 {fill:#3F4446;fill-rule:nonzero}
   ]]>
  </style>
 </defs>
 <g id="Layer_x0020_1">
  <metadata id="CorelCorpID_0Corel-Layer"/>
  <g id="_08.cdr">
   <path id="_309496080" class="fil0" d="M2.06 7.6116c-0.6731,-0.1386 -1.1865,-0.6001 -1.5329,-1.2183 -0.4071,-0.727 -0.5825,-1.6739 -0.512,-2.5593 0.0923,-1.1598 0.7034,-1.8959 1.5404,-2.4025 0.818,-0.495 1.849,-0.765 2.815,-1.0007 1.1951,-0.2915 2.4532,-0.4283 3.681,-0.4308 1.295,-0.0026 2.5569,0.1441 3.6765,0.4158 0.4159,0.101 0.916,0.242 1.4193,0.4338 0.5077,0.1934 1.0217,0.4392 1.4625,0.7488 0.6653,0.4673 1.0319,1.0953 1.1847,1.7887 0.1791,0.8133 0.0616,1.7145 -0.2128,2.5473 -0.1376,0.4178 -0.3361,0.7664 -0.6093,1.0299 -0.2526,0.2436 -0.5667,0.4121 -0.9529,0.4929 -0.0317,0.8731 -0.2636,1.6813 -0.6402,2.3999 -0.4248,0.8106 -1.0332,1.5069 -1.7454,2.0536 -1.1857,0.9103 -2.4425,1.3147 -3.6985,1.2852 -1.3245,-0.0311 -2.6437,-0.5456 -3.8738,-1.4584 -0.7296,-0.5415 -1.2446,-1.1446 -1.5702,-1.8425l-0.0005 0c-0.3112,-0.6673 -0.4475,-1.4187 -0.4309,-2.2834z"/>
   <path id="_309496200" class="fil1" d="M2.0609 6.7667c-0.0218,-0.5304 0.3171,-0.6765 0.7214,-0.8725 0.4009,-0.1943 1.7146,-0.7721 2.0374,-0.4611 0.0504,0.0487 0.0788,0.1172 0.0816,0.1922 0.0133,0.3571 -0.3759,0.4578 -0.6472,0.5072 -0.3826,0.0697 -1.0754,0.2637 -1.5632,0.5687 0.1031,1.6775 0.3714,3.0441 1.3648,3.8835 -0.2055,-0.9637 -0.1607,-1.7587 0.2414,-2.3129 0.7416,-1.022 2.3913,-0.8846 3.5095,-0.8809 1.8882,0.0065 3.4511,0.2932 3.4991,1.8854 -0.0009,0.7128 -0.1041,1.3438 -0.236,1.9519 1.3526,-1.0329 2.2948,-2.3698 2.1021,-4.5473 -0.406,-0.2494 -0.9321,-0.283 -1.3815,-0.4229 -0.2226,-0.0694 -0.4232,-0.1774 -0.4723,-0.3903 -0.0244,-0.1057 0.0044,-0.2092 0.078,-0.2814 0.199,-0.1953 0.536,-0.0504 0.7681,0.0081 0.6873,0.1729 1.8103,0.4653 1.7584,1.0651 0.6836,-0.4029 1.1871,-0.8352 0.4076,-1.3728 -2.4203,-1.5375 -8.0901,-1.7807 -11.9903,-0.4505 -1.6699,0.6436 -1.4124,1.287 -0.2789,1.9305z"/>
   <ellipse id="_309496104" class="fil2" transform="matrix(0.250872 0.0189013 -0 0.250872 10.1182 5.60701)" rx="1.7583" ry="1.2903"/>
   <path id="_309750664" class="fil1" d="M10.5593 10.2328c0.2539,-1.3124 -0.1987,-2.0781 -1.5435,-2.1535 -1.0766,0.0271 -2.1533,0.0541 -3.23,0.0812 -0.6377,0.0468 -1.1294,0.3231 -1.2174,1.2336 0.0058,0.8168 0.1774,1.5056 0.5696,2.024 0.7158,0.9463 2.1502,1.1701 3.2606,1.0418 1.4878,-0.1719 1.9031,-0.8952 2.1607,-2.2271z"/>
   <circle id="_309750568" class="fil2" cx="7.11836" cy="9.85024" r="1.10351"/>
   <circle id="_309750496" class="fil1" cx="7.11837" cy="9.85026" r="0.416874"/>
   <path id="_309750424" class="fil1" d="M1.0058 4.8791c2.9922,-2.3126 11.8437,-1.9774 13.9637,0 0.0734,-0.4769 0.1071,-0.9265 0.0555,-1.3175 -0.128,-0.9707 -1.0388,-1.4551 -1.8505,-1.8253 -2.6475,-1.2072 -7.3775,-1.571 -10.8978,0.2636 -0.7697,0.401 -1.4498,0.7416 -1.4464,1.7275 0.0012,0.3409 0.0665,0.73 0.1755,1.1517z"/>
  </g>
 </g>
</svg>
