<?xml version="1.0" encoding="UTF-8"?>
<!DOCTYPE svg PUBLIC "-//W3C//DTD SVG 1.1//EN" "http://www.w3.org/Graphics/SVG/1.1/DTD/svg11.dtd">
<!-- Creator: CorelDRAW -->
<svg xmlns="http://www.w3.org/2000/svg" xml:space="preserve" width="22.3392mm" height="9.5793mm" style="shape-rendering:geometricPrecision; text-rendering:geometricPrecision; image-rendering:optimizeQuality; fill-rule:evenodd; clip-rule:evenodd"
viewBox="0 0 22.339 9.57921"
 xmlns:xlink="http://www.w3.org/1999/xlink">
 <defs>
  <style type="text/css">
   <![CDATA[
    .str1 {stroke:#C9CCCE;stroke-width:1.05829}
    .str3 {stroke:#3F4446;stroke-width:0.259498}
    .str2 {stroke:#3F4446;stroke-width:0.259498;stroke-linecap:round;stroke-linejoin:round}
    .str0 {stroke:#C9CCCE;stroke-width:0.259498}
    .str4 {stroke:#C9CCCE;stroke-width:0.259498;stroke-linecap:round;stroke-linejoin:round}
    .fil2 {fill:none}
    .fil5 {fill:white}
    .fil4 {fill:#3F4446}
    .fil6 {fill:#C9CCCE}
    .fil1 {fill:#D9DBDD}
    .fil3 {fill:#3F4446;fill-rule:nonzero}
    .fil0 {fill:#C9CCCE;fill-rule:nonzero}
   ]]>
  </style>
 </defs>
 <g id="Layer_x0020_1">
  <metadata id="CorelCorpID_0Corel-Layer"/>
  <g id="_05.cdr">
   <g>
    <path id="_309211640" class="fil0" d="M21.3325 3.09587l0.000199998 -0.00669994 0.000499996 -0.00659994 0.000799993 -0.00639994 0.00109999 -0.00639994 0.00149999 -0.00629994 0.00169998 -0.00619994 0.00209998 -0.00599995 0.00229998 -0.00589995 0.00259998 -0.00569995 0.00289997 -0.00559995 0.00309997 -0.00539995 0.00339997 -0.00529995 0.00359997 -0.00509995 0.00389997 -0.00489996 0.00409996 -0.00469996 0.00419996 -0.00449996 0.00459996 -0.00429996 0.00469996 -0.00409996 0.00489996 -0.00379997 0.00509995 -0.00359997 0.00519995 -0.00339997 0.00549995 -0.00309997 0.00559995 -0.00289997 0.00569995 -0.00259998 0.00589995 -0.00229998 0.00599995 -0.00209998 0.00619994 -0.00169998 0.00629994 -0.00149999 0.00639994 -0.00109999 0.00639994 -0.000799993 0.00659994 -0.000499996 0.00669994 -0.000199998 0.00669994 0.000199998 0.00659994 0.000499996 0.00639994 0.000799993 0.00639994 0.00109999 0.00629994 0.00149999 0.00619994 0.00169998 0.00599995 0.00209998 0.00589995 0.00229998 0.00569995 0.00259998 0.00559995 0.00289997 0.00549995 0.00309997 0.00519995 0.00339997 0.00509995 0.00359997 0.00489996 0.00379997 0.00469996 0.00409996 0.00459996 0.00429996 0.00419996 0.00449996 0.00409996 0.00469996 0.00389997 0.00489996 0.00359997 0.00509995 0.00339997 0.00529995 0.00309997 0.00539995 0.00289997 0.00559995 0.00259998 0.00569995 0.00229998 0.00589995 0.00209998 0.00599995 0.00169998 0.00619994 0.00149999 0.00629994 0.00109999 0.00639994 0.000799993 0.00639994 0.000499996 0.00659994 0.000199998 0.00669994 -0.259598 0zm0.129799 6.46754l-0.129799 -0.129699 0 -6.33784 0.259598 0 0 6.33784 -0.129799 0.129699zm0.129799 -0.129699l-0.000199998 0.00669994 -0.000499996 0.00659994 -0.000799993 0.00639994 -0.00109999 0.00639994 -0.00149999 0.00629994 -0.00169998 0.00619994 -0.00209998 0.00599995 -0.00229998 0.00589995 -0.00259998 0.00569995 -0.00289997 0.00559995 -0.00309997 0.00539995 -0.00339997 0.00529995 -0.00359997 0.00509995 -0.00389997 0.00489996 -0.00409996 0.00469996 -0.00419996 0.00449996 -0.00459996 0.00429996 -0.00469996 0.00409996 -0.00489996 0.00379997 -0.00509995 0.00359997 -0.00519995 0.00339997 -0.00549995 0.00309997 -0.00559995 0.00289997 -0.00569995 0.00259998 -0.00589995 0.00229998 -0.00599995 0.00209998 -0.00619994 0.00169998 -0.00629994 0.00149999 -0.00639994 0.00109999 -0.00639994 0.000799993 -0.00659994 0.000499996 -0.00669994 0.000199998 -0.00669994 -0.000199998 -0.00659994 -0.000499996 -0.00639994 -0.000799993 -0.00639994 -0.00109999 -0.00629994 -0.00149999 -0.00619994 -0.00169998 -0.00599995 -0.00209998 -0.00589995 -0.00229998 -0.00569995 -0.00259998 -0.00559995 -0.00289997 -0.00549995 -0.00309997 -0.00519995 -0.00339997 -0.00509995 -0.00359997 -0.00489996 -0.00379997 -0.00469996 -0.00409996 -0.00459996 -0.00429996 -0.00419996 -0.00449996 -0.00409996 -0.00469996 -0.00389997 -0.00489996 -0.00359997 -0.00509995 -0.00339997 -0.00529995 -0.00309997 -0.00539995 -0.00289997 -0.00559995 -0.00259998 -0.00569995 -0.00229998 -0.00589995 -0.00209998 -0.00599995 -0.00169998 -0.00619994 -0.00149999 -0.00629994 -0.00109999 -0.00639994 -0.000799993 -0.00639994 -0.000499996 -0.00659994 -0.000199998 -0.00669994 0.259598 0zm-6.68574 0l0.129799 -0.129699 6.42614 0 0 0.259398 -6.42614 0 -0.129799 -0.129699zm0.129799 0.129699l-0.00669994 -0.000199998 -0.00659994 -0.000499996 -0.00639994 -0.000799993 -0.00639994 -0.00109999 -0.00629994 -0.00149999 -0.00619994 -0.00169998 -0.00599995 -0.00209998 -0.00589995 -0.00229998 -0.00569995 -0.00259998 -0.00559995 -0.00289997 -0.00549995 -0.00309997 -0.00519995 -0.00339997 -0.00509995 -0.00359997 -0.00489996 -0.00379997 -0.00469996 -0.00409996 -0.00459996 -0.00429996 -0.00419996 -0.00449996 -0.00409996 -0.00469996 -0.00389997 -0.00489996 -0.00359997 -0.00509995 -0.00339997 -0.00529995 -0.00309997 -0.00539995 -0.00289997 -0.00559995 -0.00259998 -0.00569995 -0.00229998 -0.00589995 -0.00209998 -0.00599995 -0.00169998 -0.00619994 -0.00149999 -0.00629994 -0.00109999 -0.00639994 -0.000799993 -0.00639994 -0.000499996 -0.00659994 -0.000199998 -0.00669994 0.000199998 -0.00669994 0.000499996 -0.00659994 0.000799993 -0.00639994 0.00109999 -0.00639994 0.00149999 -0.00629994 0.00169998 -0.00619994 0.00209998 -0.00599995 0.00229998 -0.00589995 0.00259998 -0.00569995 0.00289997 -0.00559995 0.00309997 -0.00539995 0.00339997 -0.00529995 0.00359997 -0.00509995 0.00389997 -0.00489996 0.00409996 -0.00469996 0.00419996 -0.00449996 0.00459996 -0.00429996 0.00469996 -0.00409996 0.00489996 -0.00379997 0.00509995 -0.00359997 0.00519995 -0.00339997 0.00549995 -0.00309997 0.00559995 -0.00289997 0.00569995 -0.00259998 0.00589995 -0.00229998 0.00599995 -0.00209998 0.00619994 -0.00169998 0.00629994 -0.00149999 0.00639994 -0.00109999 0.00639994 -0.000799993 0.00659994 -0.000499996 0.00669994 -0.000199998 0 0.259398zm-0.129799 -6.46754l0.259598 0 0 6.33784 -0.259598 0 0 -6.33784zm0 0l0.000199998 -0.00669994 0.000499996 -0.00659994 0.000799993 -0.00639994 0.00109999 -0.00639994 0.00149999 -0.00629994 0.00169998 -0.00619994 0.00209998 -0.00599995 0.00229998 -0.00589995 0.00259998 -0.00569995 0.00289997 -0.00559995 0.00309997 -0.00539995 0.00339997 -0.00529995 0.00359997 -0.00509995 0.00389997 -0.00489996 0.00409996 -0.00469996 0.00419996 -0.00449996 0.00459996 -0.00429996 0.00469996 -0.00409996 0.00489996 -0.00379997 0.00509995 -0.00359997 0.00519995 -0.00339997 0.00549995 -0.00309997 0.00559995 -0.00289997 0.00569995 -0.00259998 0.00589995 -0.00229998 0.00599995 -0.00209998 0.00619994 -0.00169998 0.00629994 -0.00149999 0.00639994 -0.00109999 0.00639994 -0.000799993 0.00659994 -0.000499996 0.00669994 -0.000199998 0.00669994 0.000199998 0.00659994 0.000499996 0.00639994 0.000799993 0.00639994 0.00109999 0.00629994 0.00149999 0.00619994 0.00169998 0.00599995 0.00209998 0.00589995 0.00229998 0.00569995 0.00259998 0.00559995 0.00289997 0.00549995 0.00309997 0.00519995 0.00339997 0.00509995 0.00359997 0.00489996 0.00379997 0.00469996 0.00409996 0.00459996 0.00429996 0.00419996 0.00449996 0.00409996 0.00469996 0.00389997 0.00489996 0.00359997 0.00509995 0.00339997 0.00529995 0.00309997 0.00539995 0.00289997 0.00559995 0.00259998 0.00569995 0.00229998 0.00589995 0.00209998 0.00599995 0.00169998 0.00619994 0.00149999 0.00629994 0.00109999 0.00639994 0.000799993 0.00639994 0.000499996 0.00659994 0.000199998 0.00669994 -0.259598 0z"/>
   </g>
   <polygon class="fil1" points="17.1663,1.00519 11.2537,1.00519 11.2537,3.36367 14.6564,3.36367 "/>
   <polygon class="fil2 str0" points="17.1663,1.00519 11.2537,1.00519 11.2537,3.36367 14.6564,3.36367 "/>
   <polygon class="fil1" points="0.989691,3.73727 4.30806,0.767393 7.46603,3.69187 7.46603,3.03547 4.31176,0.122499 0.989691,3.08397 "/>
   <g>
    <path class="fil3" d="M1.00599 9.56351l-0.129799 -0.129799 0 -6.33784 0.259598 0 0 6.33784 -0.129799 0.129799zm0 0l-0.129799 0 0 -0.129799 0.129799 0.129799zm6.55584 -0.129799l-0.129799 0.129799 -6.42604 0 0 -0.259598 6.42604 0 0.129799 0.129799zm0 0l0 0.129799 -0.129799 0 0.129799 -0.129799zm0 -6.40134l0 6.40134 -0.259598 0 0 -6.40134 0.259598 0z"/>
   </g>
   <line class="fil2 str1" x1="14.9302" y1="8.17393" x2="11.2341" y2= "8.17393" />
   <path class="fil3" d="M8.27013 3.62247c0.0522995,0.0483996 0.0554995,0.130099 0.00709994,0.182398 -0.0483996,0.0522995 -0.130199,0.0554995 -0.182498,0.00709994l-3.78807 -3.50807 -3.92146 3.50957c-0.0531995,0.0475996 -0.134899,0.0429996 -0.182498,-0.0100999 -0.0474996,-0.0531995 -0.0429996,-0.134899 0.0100999,-0.182498l4.00916 -3.58797 0 9.99991e-005c0.0489996,-0.0439996 0.124499,-0.0441996 0.173798,0.00149999l3.87437 3.58797z"/>
   <polygon class="fil1" points="5.30195,1.00519 11.2145,1.00519 11.2145,3.36367 7.81183,3.36367 "/>
   <circle class="fil4" cx="4.3165" cy="3.48489" r="1.2207"/>
   <path class="fil3" d="M5.30195 0.875392l5.91255 0 0.129799 0 0 0.129799 0 2.35848 0 0.129799 -0.129799 0 -2.73268 0.00989991c-0.148099,0.000499996 -0.184998,-0.200798 -0.0554995,-0.259298 0.0196998,-0.00889992 0.0332997,-0.0118999 0.0554995,-0.0118999l0.00969991 0 2.59328 0.00179998 0 -2.09908 -5.45575 0 2.12218 1.99428 0.372597 0.361497 -0.311997 0.00279997 -0.0508995 0 -0.0377997 -0.0354997 -2.50988 -2.35858 -0.238398 -0.223998 0.327097 0z"/>
   <path class="fil5" d="M4.48566 2.60628c0.413196,0.0790993 0.725594,0.442396 0.725594,0.878592 0,0.436296 -0.312397,0.799593 -0.725594,0.878692l0 -1.75728zm-0.338297 1.75728c-0.413196,-0.0790993 -0.725594,-0.442396 -0.725594,-0.878692 0,-0.436196 0.312397,-0.799493 0.725594,-0.878592l0 1.75728z"/>
   <rect class="fil4" x="8.3386" y="4.20474" width="1.85809" height="2.90203" rx="1.11429" ry="1.11429"/>
   <path class="fil5" d="M8.65862 4.51236l1.24249 0 0 2.29208 -1.24249 0 0 -1.06759 0.880592 0c0.0994991,0 0.180998,-0.0814993 0.180998,-0.180998l0 0c0,-0.0994991 -0.0814993,-0.180898 -0.180998,-0.180898l-0.880592 0 0 -0.862592z"/>
   <polyline class="fil2 str2" points="7.43353,9.43372 11.2341,9.43372 11.2341,1.01569 "/>
   <line class="fil2 str3" x1="7.53803" y1="8.17393" x2="11.2341" y2= "8.17393" />
   <path class="fil4" d="M3.64287 6.26884l1.39079 0c0.193698,0 0.351997,0.158399 0.351997,0.351997l0 2.82877 -2.10038 0 0 -2.82307c0,-0.196798 0.160899,-0.357697 0.357597,-0.357697z"/>
   <rect class="fil5" x="3.62989" y="6.59475" width="1.41112" height="2.61366"/>
   <polyline class="fil2 str4" points="14.2859,3.71717 18.1601,0.129199 22.1692,3.71717 "/>
   <rect class="fil6" x="12.2716" y="4.20474" width="1.85809" height="2.90203" rx="1.11429" ry="1.11429"/>
   <path class="fil1" d="M13.8097 4.51236l-1.24259 0 0 1.68608 1.24259 0 0 -1.68608zm-1.24259 1.94588l0 0.346197 1.24259 0 0 -0.346197 -1.24259 0z"/>
   <path class="fil6" d="M18.8253 6.26884l-1.39079 0c-0.193598,0 -0.351997,0.158399 -0.351997,0.351997l0 2.82877 2.10048 0 0 -2.82307c0,-0.196798 -0.160999,-0.357697 -0.357697,-0.357697z"/>
   <rect class="fil1" x="17.4272" y="6.59475" width="1.41112" height="2.61366"/>
   <circle class="fil6" cx="18.1518" cy="3.48489" r="1.2207"/>
   <path class="fil1" d="M17.9826 2.60628c-0.413296,0.0790993 -0.725594,0.442396 -0.725594,0.878592 0,0.436296 0.312297,0.799593 0.725594,0.878692l0 -1.75728zm0.338197 1.75728c0.413196,-0.0790993 0.725594,-0.442396 0.725594,-0.878692 0,-0.436196 -0.312397,-0.799493 -0.725594,-0.878592l0 1.75728z"/>
   <line class="fil2 str2" x1="0.129699" y1="9.44952" x2="11.1943" y2= "9.44952" />
   <line class="fil2 str4" x1="11.1448" y1="9.44952" x2="22.2093" y2= "9.44952" />
  </g>
 </g>
</svg>
