<?xml version="1.0" encoding="UTF-8"?>
<!DOCTYPE svg PUBLIC "-//W3C//DTD SVG 1.1//EN" "http://www.w3.org/Graphics/SVG/1.1/DTD/svg11.dtd">
<!-- Creator: CorelDRAW -->
<svg xmlns="http://www.w3.org/2000/svg" xml:space="preserve" width="8.3183mm" height="12.5905mm" style="shape-rendering:geometricPrecision; text-rendering:geometricPrecision; image-rendering:optimizeQuality; fill-rule:evenodd; clip-rule:evenodd"
viewBox="0 0 8.20302 12.416"
 xmlns:xlink="http://www.w3.org/1999/xlink">
 <defs>
  <style type="text/css">
   <![CDATA[
    .str0 {stroke:#3F4446;stroke-width:0.230658;stroke-linecap:round;stroke-linejoin:round}
    .fil0 {fill:none}
    .fil3 {fill:#15202A}
    .fil5 {fill:white}
    .fil4 {fill:#3F4446}
    .fil2 {fill:#00ACEE}
    .fil1 {fill:#3F4446;fill-rule:nonzero}
   ]]>
  </style>
 </defs>
 <g id="Layer_x0020_1">
  <metadata id="CorelCorpID_0Corel-Layer"/>
  <g id="_14.cdr">
   <line id="_310772496" class="fil0 str0" x1="0.231152" y1="6.21673" x2="0.853111" y2= "10.434" />
   <path id="_310772424" class="fil0 str0" d="M0.940089 10.9281c0.0303732,0.282036 0.0752426,0.566144 0.121394,0.852125 1.20891,0.819878 5.73451,0.569102 5.84032,-0.0415166 0.281445,-1.84527 0.493662,-3.69054 0.775009,-5.5358"/>
   <path id="_310772352" class="fil0 str0" d="M1.00448 7.20297c0.104827,0.0254424 0.209752,0.0493071 0.315072,0.0714953m0.316256 0.0617325c1.37981,0.248212 2.7967,0.228686 4.23548,0.0498001"/>
   <g>
    <path id="_310772280" class="fil1" d="M0.23056 5.99012l-0.23056 0 0 0 0.0076919 -0.0709036 0.0214979 -0.0680438 0.0329371 -0.0633103 0.043193 -0.0580837 0.0523641 -0.0541392 0.0597602 -0.0509835 0.0674521 -0.0478279 0.0750454 -0.0459542 0.0822442 -0.0440805 0.0896403 -0.0420096 0.0964446 -0.0399387 0.103841 -0.039347 0.110053 -0.0370789 0.117055 -0.0357969 0.123268 -0.0343177 0.129678 -0.0325427 0.135397 -0.0314579 0.141511 -0.0294856 0.146639 -0.0273161 0.15226 -0.0262314 0.157388 -0.0245549 0.162319 -0.0221882 0.16725 -0.0208076 0.171687 -0.0184408 0.175435 -0.0170602 0.179576 -0.0144963 0.183718 -0.0124254 0.186972 -0.0103545 0.190227 -0.00808636 0.193284 -0.00591685 0.196045 -0.00355011 0.198707 -0.00157783 0 0.23056 -0.195946 0.000788913 -0.193481 0.00355011 -0.190523 0.00591685 -0.187465 0.00808636 -0.184211 0.0103545 -0.180168 0.0124254 -0.176815 0.0144963 -0.172871 0.0160741 -0.168137 0.0184408 -0.163502 0.0200187 -0.158769 0.0221882 -0.153838 0.0235688 -0.148513 0.0252452 -0.143089 0.0273161 -0.136975 0.0286967 -0.130861 0.0296829 -0.124352 0.0315565 -0.117943 0.0325427 -0.110744 0.0340219 -0.103742 0.0353039 -0.0957543 0.0355997 -0.088161 0.0373748 -0.0797788 0.0374734 -0.0713966 0.0377692 -0.0624228 0.0378678 -0.0530544 0.0379664 -0.0435875 0.0365858 -0.0334302 0.0352052 -0.0242591 0.0328385 -0.0157783 0.0289926 -0.00808636 0.0256397 -0.00236674 0.0241605 0 0zm3.72002 0.807748l0 0.23056 0 0 -0.198707 -0.00157783 -0.196045 -0.00355011 -0.193284 -0.00591685 -0.190227 -0.00808636 -0.186972 -0.0103545 -0.183718 -0.0124254 -0.179576 -0.0144963 -0.175435 -0.0170602 -0.171687 -0.0184408 -0.16725 -0.0208076 -0.162319 -0.0221882 -0.157388 -0.0245549 -0.15226 -0.0262314 -0.146639 -0.0274147 -0.141511 -0.029387 -0.135397 -0.0314579 -0.129678 -0.0325427 -0.123268 -0.0344163 -0.117055 -0.0356983 -0.110053 -0.0370789 -0.103841 -0.039347 -0.0964446 -0.0399387 -0.0896403 -0.0421082 -0.0822442 -0.0439819 -0.0750454 -0.0459542 -0.0674521 -0.0478279 -0.0597602 -0.0509835 -0.0523641 -0.0541392 -0.043193 -0.0580837 -0.0329371 -0.0633103 -0.0214979 -0.0680438 -0.0076919 -0.0709036 0.23056 0 0.00236674 0.0241605 0.00808636 0.0256397 0.0157783 0.0289926 0.0242591 0.0328385 0.0334302 0.0352052 0.0435875 0.0365858 0.0530544 0.0379664 0.0624228 0.0378678 0.0713966 0.0376706 0.0797788 0.037572 0.088161 0.0373748 0.0957543 0.0355997 0.103742 0.0353039 0.110744 0.0339233 0.117943 0.0326413 0.124352 0.0315565 0.130861 0.0296829 0.136975 0.0285981 0.143089 0.0274147 0.148513 0.0252452 0.153838 0.0235688 0.158769 0.0221882 0.163502 0.0200187 0.168137 0.0184408 0.172871 0.0160741 0.176815 0.0144963 0.180168 0.0124254 0.184211 0.0103545 0.187465 0.00808636 0.190523 0.00591685 0.193481 0.00355011 0.195946 0.000788913 0 0zm3.72002 -0.807748l0.23056 0 0 0 -0.0076919 0.0709036 -0.0214979 0.0680438 -0.0329371 0.0633103 -0.043193 0.0580837 -0.0523641 0.0541392 -0.0597602 0.0509835 -0.0674521 0.0478279 -0.0750454 0.0459542 -0.0822442 0.0439819 -0.0896403 0.0421082 -0.0964446 0.0399387 -0.103841 0.039347 -0.110053 0.0370789 -0.117055 0.0356983 -0.123268 0.0344163 -0.129678 0.0325427 -0.135397 0.0314579 -0.141511 0.029387 -0.146639 0.0274147 -0.15226 0.0262314 -0.157388 0.0245549 -0.162319 0.0221882 -0.16725 0.0208076 -0.171687 0.0184408 -0.175435 0.0170602 -0.179576 0.0144963 -0.183718 0.0124254 -0.186972 0.0103545 -0.190227 0.00808636 -0.193284 0.00591685 -0.196045 0.00355011 -0.198707 0.00157783 0 -0.23056 0.195946 -0.000788913 0.193481 -0.00355011 0.190523 -0.00591685 0.187465 -0.00808636 0.184211 -0.0103545 0.180168 -0.0124254 0.176815 -0.0144963 0.172871 -0.0160741 0.168137 -0.0184408 0.163502 -0.0200187 0.158769 -0.0221882 0.153838 -0.0235688 0.148513 -0.0252452 0.143089 -0.0274147 0.136975 -0.0285981 0.130861 -0.0296829 0.124352 -0.0315565 0.117943 -0.0326413 0.110744 -0.0339233 0.103742 -0.0353039 0.0957543 -0.0355997 0.088161 -0.0373748 0.0797788 -0.037572 0.0713966 -0.0376706 0.0624228 -0.0378678 0.0530544 -0.0379664 0.0435875 -0.0365858 0.0334302 -0.0352052 0.0242591 -0.0328385 0.0157783 -0.0289926 0.00808636 -0.0256397 0.00236674 -0.0241605 0 0zm-3.72002 -0.807748l0 -0.23056 0 0 0.198707 0.00157783 0.196045 0.00355011 0.193284 0.00591685 0.190227 0.00808636 0.186972 0.0103545 0.183718 0.0124254 0.179576 0.0144963 0.175435 0.0170602 0.171687 0.0184408 0.16725 0.0208076 0.162319 0.0221882 0.157388 0.0245549 0.15226 0.0262314 0.146639 0.0273161 0.141511 0.0294856 0.135397 0.0314579 0.129678 0.0325427 0.123268 0.0343177 0.117055 0.0357969 0.110053 0.0370789 0.103841 0.039347 0.0964446 0.0399387 0.0896403 0.0420096 0.0822442 0.0440805 0.0750454 0.0459542 0.0674521 0.0478279 0.0597602 0.0509835 0.0523641 0.0541392 0.043193 0.0580837 0.0329371 0.0633103 0.0214979 0.0680438 0.0076919 0.0709036 -0.23056 0 -0.00236674 -0.0241605 -0.00808636 -0.0256397 -0.0157783 -0.0289926 -0.0242591 -0.0328385 -0.0334302 -0.0352052 -0.0435875 -0.0365858 -0.0530544 -0.0379664 -0.0624228 -0.0378678 -0.0713966 -0.0377692 -0.0797788 -0.0374734 -0.088161 -0.0373748 -0.0957543 -0.0355997 -0.103742 -0.0353039 -0.110744 -0.0340219 -0.117943 -0.0325427 -0.124352 -0.0315565 -0.130861 -0.0296829 -0.136975 -0.0286967 -0.143089 -0.0273161 -0.148513 -0.0252452 -0.153838 -0.0235688 -0.158769 -0.0221882 -0.163502 -0.0200187 -0.168137 -0.0184408 -0.172871 -0.0160741 -0.176815 -0.0144963 -0.180168 -0.0124254 -0.184211 -0.0103545 -0.187465 -0.00808636 -0.190523 -0.00591685 -0.193481 -0.00355011 -0.195946 -0.000788913 0 0z"/>
   </g>
   <path class="fil2" d="M3.29795 6.80467l0 -2.55312c0,-0.401951 -0.32878,-0.730731 -0.730731,-0.730731l-0.622748 0c-0.365365,0 -0.664265,0.298899 -0.664265,0.664265l0 2.3484c0.668801,0.15226 1.34135,0.233518 2.01774,0.271189z"/>
   <g id="_310772040">
    <path id="_310772136" class="fil3" d="M2.25471 3.71184l0.129776 0c0.351658,0 0.639513,0.257777 0.639513,0.572948l0 2.50145c-0.480843,-0.0379664 -0.959614,-0.0906264 -1.43661,-0.186775l0 -1.80434c0.0614366,0.0345149 0.132143,0.0543364 0.207583,0.0543364 0.233913,0 0.423548,-0.189635 0.423548,-0.423548 0,-0.233814 -0.189635,-0.423449 -0.423548,-0.423449 -0.0430944,0 -0.0847095,0.00640992 -0.123958,0.0184408 0.114097,-0.183915 0.333414,-0.309057 0.583697,-0.309057z"/>
    <path id="_310772064" class="fil3" d="M1.74517 4.25984c0.105517,0 0.191016,0.0854985 0.191016,0.191016 0,0.105419 -0.0854985,0.190917 -0.191016,0.190917 -0.105419,0 -0.191016,-0.0854985 -0.191016,-0.190917 0,-0.105517 0.0855971,-0.191016 0.191016,-0.191016z"/>
   </g>
   <path class="fil2" d="M4.64413 4.2198l-0.485576 2.60134c0.311226,-0.00542378 0.623241,-0.0231743 0.936045,-0.0533503l0.57068 -2.87943 -1.02115 0.331442z"/>
   <polygon class="fil3" points="4.97558,4.30046 4.46495,6.79067 4.84117,6.77272 5.27112,4.25569 "/>
   <path class="fil2" d="M5.63629 6.7031l1.05912 -2.98495 1.08387 -0.349291 -1.103 3.15575c-0.345051,0.0837234 -0.689411,0.136581 -1.03998,0.178492z"/>
   <path class="fil3" d="M5.96783 6.66119l0.987325 -2.78171 0.367239 0.026823 -0.97056 2.68931c-0.127212,0.0257383 -0.257087,0.0439819 -0.384003,0.0655784z"/>
   <rect class="fil2" x="1.795" y="0.448426" width="0.888504" height="3.09731"/>
   <rect class="fil3" x="2.03581" y="1.33691" width="0.37367" height="2.05103"/>
   <path class="fil4" d="M1.38809 -1.75641e-016l0.772247 0c0.287756,0 0.523148,0.193678 0.523148,0.481336l0 0.365661c0,0.356194 -0.291503,0.647698 -0.647698,0.647698l-0.647698 0c-0.416941,-0.331738 -0.414179,-1.19086 0,-1.49469z"/>
   <path class="fil5" d="M1.46284 1.1459c0.0528572,0 0.105714,0 0.15867,0 -0.092007,-0.396232 0.0480251,-0.577977 0.169912,-0.544745 0.147428,0.0402346 0.139835,0.262807 0.127212,0.379073 -0.00956557,0.0870763 -0.0322468,0.169616 -0.0654798,0.248705 0.572652,-0.0187367 0.673929,-0.759132 0.240816,-0.913364 -0.171884,0 -0.34367,0 -0.515456,0 -0.154331,0.0592671 -0.146541,0.423055 -0.115674,0.830331z"/>
   <g id="_310771296">
    <path id="_310771392" class="fil4" d="M5.66647 3.82445l0.238055 -1.41916c0.0597602,-0.355997 -0.182732,-0.696216 -0.538729,-0.755877l-0.838516 -0.140722c-0.0687341,-0.0115379 -0.134411,0.0353039 -0.145949,0.104038l-0.411517 2.45283c-0.0134115,0.0798775 0.0410235,0.156303 0.120901,0.169715l0.808833 0.135693c0.361224,0.0605491 0.706274,-0.185395 0.766922,-0.54652z"/>
    <path id="_310771320" class="fil5" d="M5.40534 3.62358l0.175928 -1.14895c0.0441791,-0.288151 -0.0633103,-0.56358 -0.326413,-0.611999l-0.619691 -0.113801c-0.0507863,-0.00936834 -0.0996003,0.0284995 -0.107884,0.0842165l-0.0346136 0.232828c0.0136088,-0.00197228 0.027612,-0.00226813 0.041911,-0.000591685l0.382721 0.0448694c0.0953599,0.011242 0.164981,0.105912 0.154824,0.210344l0 0c-0.0102559,0.104531 -0.0966419,0.18076 -0.192002,0.169616l-0.38282 -0.0450667c-0.0208076,-0.00246535 -0.0404318,-0.00887527 -0.058281,-0.0185395l-0.0451653 0.303337c0.0217937,-0.00719883 0.0450667,-0.00996003 0.0690299,-0.00710022l0.382721 0.044968c0.0953599,0.0111434 0.16508,0.105813 0.154824,0.210245l0 0c-0.0102559,0.104531 -0.0966419,0.180858 -0.191903,0.169616l-0.38282 -0.044968c-0.030669,-0.00364872 -0.0586754,-0.0158769 -0.0821456,-0.0342191l-0.0439819 0.295547c0.0178492,-0.00433902 0.0366845,-0.00562101 0.0558156,-0.00335288l0.382721 0.044968c0.0953599,0.011242 0.16508,0.105813 0.154824,0.210245l0 9.86141e-005c-0.0102559,0.104432 -0.0966419,0.18076 -0.191903,0.169518l-0.38282 -0.044968c-0.0258369,-0.00305704 -0.0498001,-0.0122282 -0.070805,-0.0260341l-0.0242591 0.163305c-0.00956557,0.0646909 0.0302745,0.126522 0.0893444,0.137369l0.597799 0.109856c0.266948,0.0490112 0.450272,-0.208963 0.495043,-0.501354z"/>
   </g>
   <g id="_311041264">
    <path id="_310771224" class="fil4" d="M7.74535 3.46471l0.428084 -1.37369c0.107391,-0.344656 -0.0867804,-0.714558 -0.431437,-0.821949l-0.811693 -0.252945c-0.0665645,-0.020709 -0.13806,0.0167644 -0.158769,0.0833289l-0.739902 2.37443c-0.0240619,0.0774121 0.0195256,0.160445 0.0968391,0.184507l0.782996 0.243971c0.349686,0.108969 0.724913,-0.0879638 0.833881,-0.43765z"/>
    <path id="_311041624" class="fil5" d="M7.51775 3.24874l0.316354 -1.11316c0.0793844,-0.279275 0.00690299,-0.568313 -0.247719,-0.655291l-0.599968 -0.205019c-0.0491098,-0.0167644 -0.102263,0.0135101 -0.117252,0.0675507l-0.0631131 0.225728c0.0137074,0 0.0277106,0.00187367 0.0416152,0.00562101l0.373649 0.101474c0.0930917,0.0252452 0.150387,0.129382 0.127409,0.231447l0 9.86141e-005c-0.0230757,0.102066 -0.11814,0.164883 -0.211133,0.139539l-0.373748 -0.101375c-0.0204131,-0.00562101 -0.0390512,-0.0148907 -0.0555198,-0.0271189l-0.0822442 0.294067c0.022484,-0.00394457 0.0459542,-0.00315565 0.0692271,0.00325427l0.373748 0.101375c0.0930917,0.0252452 0.150387,0.12948 0.127311,0.231546l0 0c-0.0229771,0.102066 -0.118041,0.164883 -0.211133,0.139638l-0.373748 -0.101474c-0.0298801,-0.00808636 -0.0561114,-0.0243577 -0.0771163,-0.0461514l-0.0800747 0.286573c0.0182436,-0.00157783 0.0369803,-9.86141e-005 0.055717,0.00502932l0.373649 0.101375c0.0930917,0.0253438 0.150387,0.12948 0.127409,0.231546l0 0c-0.0230757,0.102066 -0.11814,0.164981 -0.211133,0.139638l-0.373748 -0.101474c-0.0252452,-0.00680438 -0.0478279,-0.0195256 -0.0668604,-0.03629l-0.0442777 0.158374c-0.0175533,0.0627186 0.0143977,0.129973 0.0715939,0.149499l0.578668 0.197623c0.258369,0.0882597 0.471967,-0.140229 0.552436,-0.423646z"/>
   </g>
  </g>
 </g>
</svg>
