<?xml version="1.0" encoding="UTF-8"?>
<!DOCTYPE svg PUBLIC "-//W3C//DTD SVG 1.1//EN" "http://www.w3.org/Graphics/SVG/1.1/DTD/svg11.dtd">
<!-- Creator: CorelDRAW -->
<svg xmlns="http://www.w3.org/2000/svg" xml:space="preserve" width="10.4664mm" height="13.7563mm" style="shape-rendering:geometricPrecision; text-rendering:geometricPrecision; image-rendering:optimizeQuality; fill-rule:evenodd; clip-rule:evenodd"
viewBox="0 0 10.4664 13.7563"
 xmlns:xlink="http://www.w3.org/1999/xlink">
 <defs>
  <style type="text/css">
   <![CDATA[
    .str0 {stroke:#3F4446;stroke-width:0.2489;stroke-linecap:round;stroke-linejoin:round}
    .fil1 {fill:none}
    .fil4 {fill:#15202A}
    .fil2 {fill:white}
    .fil5 {fill:#3F4446}
    .fil3 {fill:#00ACEE}
    .fil0 {fill:#EEF0F2}
   ]]>
  </style>
 </defs>
 <g id="Layer_x0020_1">
  <metadata id="CorelCorpID_0Corel-Layer"/>
  <g id="_23.cdr">
   <polygon id="_312049088" class="fil0" points="5.8692,7.7799 5.5547,13.6255 7.0009,13.3794 7.7584,13.075 8.1265,10.6822 8.4663,8.6009 8.6433,7.3408 8.707,7.0576 7.4894,7.5461 "/>
   <path id="_312049016" class="fil1 str0" d="M0.6626 7.0226c0.2277,1.5613 0.3969,3.0446 0.5953,4.5669m0.0824 0.6209c0.0411,0.3037 0.084,0.6097 0.129,0.9187 2.0804,0.6703 4.1838,0.6703 6.3104,0 0.3035,-2.0492 0.6084,-4.006 0.912,-6.0552"/>
   <path id="_312048944" class="fil1 str0" d="M1.4268 8.1021c0.1,0.021 0.2392,0.049 0.341,0.0675m0.3586 0.0574c1.3961,0.2083 2.9434,0.2076 4.5898,0.0695"/>
   <ellipse id="_312048872" class="fil2 str0" cx="4.68395" cy="6.77865" rx="4.1646" ry="1.01714"/>
   <path id="_312048800" class="fil3" d="M5.5559 7.6681l0 -2.7312c0,-0.4337 -0.3549,-0.7886 -0.7885,-0.7886l-0.6721 0c-0.3942,0 -0.7157,0.3227 -0.7169,0.7169l-0.0079 2.7743c0.7053,0.062 1.4642,0.0695 2.1854,0.0286z"/>
   <path id="_312048728" class="fil4" d="M4.4301 4.3544l0.14 0c0.3796,0 0.6911,0.2783 0.6901,0.6183l-0.0079 2.7096c-0.5258,0.0197 -1.0643,0.0138 -1.5819,-0.0199l0.0396 -2.139c0.0662,0.0373 0.1426,0.0587 0.224,0.0587 0.2524,0 0.457,-0.2047 0.457,-0.457 0,-0.2524 -0.2046,-0.4571 -0.457,-0.4571 -0.0465,0 -0.0915,0.007 -0.1338,0.02 0.1232,-0.1985 0.3598,-0.3336 0.6299,-0.3336z"/>
   <path id="_312048656" class="fil4" d="M3.8803 4.9458c0.1138,0 0.2061,0.0923 0.2061,0.2061 0,0.1138 -0.0923,0.2061 -0.2061,0.2061 -0.1139,0 -0.2061,-0.0923 -0.2061,-0.2061 0,-0.1138 0.0922,-0.2061 0.2061,-0.2061z"/>
   <polygon id="_312048584" class="fil3" points="3.934,4.1752 4.8928,4.1752 4.8928,0.8328 3.934,0.8328 "/>
   <polygon id="_312048512" class="fil4" points="4.1939,1.7916 4.5971,1.7916 4.5971,4.0049 4.1939,4.0049 "/>
   <path id="_312048440" class="fil5" d="M3.4949 0.3489l0.8334 0c0.3105,0 0.5645,0.209 0.5645,0.5194l0 0.3946c0,0.3844 -0.3145,0.699 -0.6989,0.699l-0.699 0c-0.45,-0.358 -0.4469,-1.2851 0,-1.613z"/>
   <path id="_312048368" class="fil2" d="M3.5756 1.5855c0.057,0 0.1141,0 0.1712,0 -0.0993,-0.4276 0.0518,-0.6238 0.1834,-0.5878 0.1591,0.0433 0.1509,0.2835 0.1372,0.409 -0.0103,0.0939 -0.0348,0.1831 -0.0707,0.2684 0.6181,-0.0202 0.7273,-0.8192 0.2599,-0.9857 -0.1854,0 -0.3708,0 -0.5562,0 -0.1666,0.064 -0.1582,0.4566 -0.1248,0.8961z"/>
   <path id="_312048296" class="fil3" d="M6.4345 4.6395l-0.5545 3.0067 0.0164 -0.0013 0.0165 -0.0013c0.0384,-0.0031 0.0767,-0.0063 0.1148,-0.0097l0.0163 -0.0015 0.0163 -0.0015c0.038,-0.0034 0.0758,-0.007 0.1134,-0.0107l0.0161 -0.0017 0.0161 -0.0016 0.0161 -0.0016c0.0321,-0.0033 0.064,-0.0067 0.0958,-0.0102l0.0159 -0.0018 0.0158 -0.0018 0.0159 -0.0017c0.0369,-0.0043 0.0736,-0.0086 0.1101,-0.0131l0.0156 -0.0019 0.0156 -0.0019 0.0155 -0.002c0.0306,-0.0038 0.061,-0.0078 0.0913,-0.0119l0.0498 -0.0068c0.0281,-0.0039 0.0562,-0.0079 0.084,-0.0119 0.0229,-0.0034 0.0458,-0.0068 0.0685,-0.0103 0.0236,-0.0036 0.0471,-0.0073 0.0705,-0.011l0.6502 -3.2471 -1.102 0.3576z"/>
   <path id="_312048224" class="fil4" d="M6.7922 4.7265l-0.5976 2.8916 0.0065 -0.0007 0.0065 -0.0006 0.0065 -0.0007 0.0065 -0.0007c0.0325,-0.0033 0.0648,-0.0067 0.097,-0.0103l0.0064 -0.0007 0.0065 -0.0007 0.0064 -0.0007 0.0064 -0.0007 0.0064 -0.0008 0.0128 -0.0014 0.0064 -0.0007 0.0064 -0.0008 0.0002 0c0.0255,-0.0029 0.051,-0.0059 0.0763,-0.0089l0.0064 -0.0008 0.0063 -0.0008 0.0063 -0.0008 0.0064 -0.0007 0.0504 -0.0063 0.0063 -0.0008 0.0685 -0.009 0.0003 0 0.5085 -2.8923 -0.319 0.0483z"/>
   <path id="_312048152" class="fil5" d="M7.5377 4.2128l0.2569 -1.5314c0.0645,-0.3841 -0.1971,-0.7512 -0.5813,-0.8157l-0.9049 -0.1518c-0.0742,-0.0124 -0.1451,0.0381 -0.1575,0.1123l-0.4441 2.6469c-0.0144,0.0862 0.0443,0.1686 0.1305,0.1831l0.8729 0.1464c0.3898,0.0654 0.7622,-0.2 0.8275,-0.5898z"/>
   <path id="_312048080" class="fil2" d="M7.256 3.9961l0.1898 -1.2398c0.0477,-0.3111 -0.0683,-0.6082 -0.3522,-0.6604l-0.6688 -0.1229c-0.0548,-0.0101 -0.1075,0.0308 -0.1164,0.0909l-0.0374 0.2513c0.0147,-0.0022 0.0299,-0.0025 0.0453,-0.0007l0.413 0.0485c0.1029,0.0121 0.1781,0.1142 0.1671,0.2269l0 0c-0.0111,0.1128 -0.1043,0.1951 -0.2072,0.183l-0.4131 -0.0485c-0.0225,-0.0027 -0.0437,-0.0096 -0.0629,-0.0201l-0.0487 0.3274c0.0234,-0.0079 0.0486,-0.0108 0.0744,-0.0077l0.4131 0.0485c0.1029,0.0121 0.1781,0.1142 0.167,0.2269l0 0.0001c-0.011,0.1127 -0.1042,0.195 -0.2071,0.1829l-0.4131 -0.0485c-0.0331,-0.0039 -0.0633,-0.0171 -0.0887,-0.0369l-0.0474 0.3189c0.0193,-0.0047 0.0396,-0.006 0.0602,-0.0036l0.4131 0.0485c0.1029,0.0121 0.1781,0.1142 0.167,0.227l0 0c-0.011,0.1127 -0.1042,0.1951 -0.2071,0.1829l-0.4131 -0.0485c-0.0279,-0.0033 -0.0537,-0.0132 -0.0764,-0.0281l-0.0262 0.1762c-0.0103,0.0699 0.0328,0.1366 0.0965,0.1483l0.6451 0.1185c0.288,0.0529 0.4859,-0.2254 0.5342,-0.541z"/>
   <path id="_312048008" class="fil3" d="M7.5973 7.3859l1.2422 -3.479 1.1696 -0.377 -1.3062 3.3526c-0.1892,0.203 -0.5853,0.3725 -1.1056,0.5034z"/>
   <path id="_312047936" class="fil4" d="M7.9163 7.2956l1.2035 -3.2147 0.3963 0.029 -1.1442 3.0044c-0.1292,0.0655 -0.2822,0.1261 -0.4556,0.1813z"/>
   <path id="_312047864" class="fil5" d="M9.9725 3.6334l0.4619 -1.4825c0.1159,-0.3719 -0.0936,-0.7711 -0.4655,-0.887l-0.876 -0.2729c-0.0718,-0.0224 -0.1489,0.018 -0.1712,0.0899l-0.7985 2.5623c-0.026,0.0835 0.021,0.1731 0.1045,0.1991l0.845 0.2633c0.3773,0.1176 0.7822,-0.0949 0.8998,-0.4722z"/>
   <path id="_312047792" class="fil2" d="M9.7269 3.4003l0.3414 -1.2012c0.0856,-0.3014 0.0074,-0.6133 -0.2674,-0.7072l-0.6474 -0.2212c-0.053,-0.0181 -0.1103,0.0146 -0.1265,0.0728l-0.0681 0.2437c0.0148,0 0.0298,0.0019 0.0449,0.006l0.4032 0.1095c0.1005,0.0272 0.1623,0.1397 0.1375,0.2498l0 0c-0.0249,0.1102 -0.1275,0.178 -0.2279,0.1507l-0.4033 -0.1095c-0.022,-0.006 -0.0421,-0.016 -0.0599,-0.0292l-0.0887 0.3174c0.0242,-0.0043 0.0495,-0.0035 0.0747,0.0034l0.4033 0.1094c0.1004,0.0273 0.1623,0.1397 0.1374,0.2499l0 0c-0.0248,0.1102 -0.1274,0.178 -0.2278,0.1507l-0.4033 -0.1095c-0.0323,-0.0088 -0.0606,-0.0263 -0.0833,-0.0498l-0.0864 0.3093c0.0197,-0.0018 0.0399,-0.0001 0.0601,0.0053l0.4033 0.1095c0.1004,0.0273 0.1623,0.1397 0.1374,0.2498l0 0.0001c-0.0249,0.1101 -0.1274,0.1779 -0.2279,0.1506l-0.4033 -0.1095c-0.0272,-0.0073 -0.0516,-0.021 -0.0721,-0.0391l-0.0478 0.1708c-0.0189,0.0677 0.0156,0.1403 0.0773,0.1613l0.6244 0.2134c0.2789,0.0952 0.5093,-0.1514 0.5962,-0.4572z"/>
   <path id="_312047720" class="fil3" d="M0.3795 6.7169l-0.3227 -1.8422c-0.0748,-0.4272 0.2136,-0.838 0.6407,-0.9128l0.662 -0.1159c0.3884,-0.068 0.7618,0.1942 0.8298,0.5825l0.5483 3.133c-1.0779,-0.0824 -1.9715,-0.4244 -2.3581,-0.8446z"/>
   <path id="_312047648" class="fil4" d="M1.0653 4.1068l-0.1379 0.0241c-0.3739,0.0654 -0.6309,0.393 -0.5731,0.7281l0.367 2.1293c0.3957,0.2762 1.0056,0.4597 1.6913,0.5426l-0.4363 -2.3969c-0.0588,0.0482 -0.1304,0.0824 -0.2106,0.0964 -0.2485,0.0436 -0.4854,-0.1227 -0.529,-0.3713 -0.0435,-0.2486 0.1228,-0.4855 0.3714,-0.529 0.0458,-0.008 0.0913,-0.0089 0.1352,-0.0035 -0.1555,-0.1742 -0.4119,-0.2665 -0.678,-0.2198z"/>
   <path id="_312046376" class="fil4" d="M1.7089 4.5945c-0.1121,0.0196 -0.1871,0.1264 -0.1674,0.2385 0.0196,0.1121 0.1264,0.1871 0.2385,0.1675 0.1121,-0.0197 0.1871,-0.1265 0.1675,-0.2386 -0.0196,-0.1121 -0.1265,-0.1871 -0.2386,-0.1674z"/>
   <rect id="_312046352" class="fil3" transform="matrix(-0.231667 0.0405713 0.0405713 0.231667 0.946472 0.552385)" width="4.0767" height="14.2113"/>
   <rect id="_312046208" class="fil4" transform="matrix(-0.231667 0.0405713 0.0405713 0.231667 0.855896 1.54163)" width="1.7145" height="9.4107"/>
   <path id="_312046184" class="fil5" d="M1.2955 -2.57173e-016l-0.8209 0.1437c-0.3058,0.0536 -0.52,0.3033 -0.4664,0.6091l0.068 0.3886c0.0663,0.3786 0.4305,0.6342 0.8091,0.5679l0.6884 -0.1205c0.3815,-0.4303 0.2186,-1.343 -0.2782,-1.5888z"/>
   <path id="_312046112" class="fil2" d="M1.4294 1.232c-0.0562,0.0098 -0.1124,0.0196 -0.1687,0.0295 0.0241,-0.4384 -0.1586,-0.6055 -0.282,-0.5474 -0.1493,0.0702 -0.0998,0.3053 -0.0646,0.4266 0.0263,0.0907 0.0658,0.1743 0.1159,0.2522 -0.6123,0.0866 -0.8577,-0.6816 -0.426,-0.9261 0.1826,-0.032 0.3653,-0.064 0.5479,-0.096 0.1751,0.0343 0.2345,0.4225 0.2775,0.8612z"/>
  </g>
 </g>
</svg>
