<?xml version="1.0" encoding="UTF-8"?>
<!DOCTYPE svg PUBLIC "-//W3C//DTD SVG 1.1//EN" "http://www.w3.org/Graphics/SVG/1.1/DTD/svg11.dtd">
<!-- Creator: CorelDRAW -->
<svg xmlns="http://www.w3.org/2000/svg" xml:space="preserve" width="22.802mm" height="12.833mm" style="shape-rendering:geometricPrecision; text-rendering:geometricPrecision; image-rendering:optimizeQuality; fill-rule:evenodd; clip-rule:evenodd"
viewBox="0 0 22.8018 12.8329"
 xmlns:xlink="http://www.w3.org/1999/xlink">
 <defs>
  <style type="text/css">
   <![CDATA[
    .fil2 {fill:#3F4446}
    .fil0 {fill:#D9DBDD}
    .fil1 {fill:#3F4446;fill-rule:nonzero}
   ]]>
  </style>
 </defs>
 <g id="Layer_x0020_1">
  <metadata id="CorelCorpID_0Corel-Layer"/>
  <g id="_312041984">
   <path id="_312043712" class="fil0" d="M0.668894 4.44346l5.96575 0.0644994 3.42367 -3.13457 -4.76006 0 -4.62936 3.07007zm15.2022 0.0901992l6.15635 -0.0901992 -4.60136 -3.07007 -4.78986 0 3.23487 3.16027z"/>
   <path id="_312043640" class="fil1" d="M1.25019 4.26796l5.50705 0 -0.400096 0.350897 -5.68825 0 0 -0.000399996c-0.0566995,-9.99991e-005 -0.112299,-0.0275998 -0.145899,-0.0783993 -0.0533995,-0.0805993 -0.0312997,-0.189198 0.0492996,-0.242598l4.61966 -3.06347c0.0294997,-0.0225998 0.0662994,-0.0359997 0.106299,-0.0359997l4.96016 0 -0.400096 0.350897 -4.50786 0 -4.10026 2.71908zm14.5333 0l5.66595 0 -4.07546 -2.71908 -4.54706 0 -0.381497 -0.350897 4.98066 0 0 0.000599995c0.0334997,0 0.0673994,0.00959992 0.0972991,0.0295997l4.58896 3.06177c0.0539995,0.0298997 0.0904992,0.0873992 0.0904992,0.153499 0,0.0967992 -0.0785993,0.175398 -0.175398,0.175398l-5.86245 0 -0.381497 -0.350897z"/>
   <rect id="_312043568" class="fil0" x="1.55559" y="4.48149" width="5.32203" height="0.880624"/>
   <polygon id="_312043496" class="fil0" points="15.5107,4.30216 16.6475,4.30216 16.6475,4.39816 21.1947,4.39816 21.1947,5.37485 16.6475,5.37485 16.6475,12.6761 15.5107,12.6761 "/>
   <polygon id="_312043424" class="fil0" points="7.06524,5.50415 11.3828,1.55889 15.508,5.56415 15.7888,4.55346 16.0668,4.44316 11.3701,0.142199 6.66064,4.40496 7.03144,4.46616 "/>
   <ellipse id="_312043352" class="fil2" cx="11.3774" cy="4.42882" rx="1.33764" ry="1.37419"/>
   <ellipse id="_312043280" class="fil0" cx="11.3774" cy="4.42881" rx="0.913685" ry="0.93865"/>
   <g>
    <path id="_312043208" class="fil1" d="M7.19144 4.44276l-0.175398 0.174698 -5.52555 0 0 -0.349397 5.52555 0 0.175398 0.174698zm-0.175398 0.174698l0 -0.349397 0.00899992 0.000199998 0.00889992 0.000699994 0.00879992 0.00109999 0.00859992 0.00159999 0.00849993 0.00189998 0.00829993 0.00239998 0.00819993 0.00269998 0.00789993 0.00309997 0.00779993 0.00349997 0.00759993 0.00389997 0.00729994 0.00419996 0.00709994 0.00459996 0.00689994 0.00479996 0.00659994 0.00519995 0.00639994 0.00549995 0.00609995 0.00579995 0.00579995 0.00609995 0.00549995 0.00629994 0.00519995 0.00659994 0.00489996 0.00689994 0.00459996 0.00699994 0.00419996 0.00739994 0.00389997 0.00749993 0.00349997 0.00769993 0.00309997 0.00799993 0.00279998 0.00809993 0.00239998 0.00829993 0.00189998 0.00839993 0.00159999 0.00859992 0.00109999 0.00879992 0.000699994 0.00879992 0.000199998 0.00899992 -0.000199998 0.00899992 -0.000699994 0.00879992 -0.00109999 0.00879992 -0.00159999 0.00859992 -0.00189998 0.00839993 -0.00239998 0.00829993 -0.00279998 0.00809993 -0.00309997 0.00799993 -0.00349997 0.00769993 -0.00389997 0.00749993 -0.00419996 0.00739994 -0.00459996 0.00699994 -0.00489996 0.00689994 -0.00519995 0.00659994 -0.00549995 0.00629994 -0.00579995 0.00609995 -0.00609995 0.00579995 -0.00639994 0.00549995 -0.00659994 0.00519995 -0.00689994 0.00479996 -0.00709994 0.00459996 -0.00729994 0.00419996 -0.00759993 0.00389997 -0.00779993 0.00349997 -0.00789993 0.00309997 -0.00819993 0.00269998 -0.00829993 0.00239998 -0.00849993 0.00189998 -0.00859992 0.00159999 -0.00879992 0.00109999 -0.00889992 0.000699994 -0.00899992 0.000199998zm0 8.21543l-0.175398 -0.174698 0 -8.21543 0.350797 0 0 8.21543 -0.175398 0.174698zm-0.175398 -0.174698l0.350797 0 -0.000199998 0.00899992 -0.000699994 0.00879992 -0.00109999 0.00879992 -0.00159999 0.00859992 -0.00189998 0.00839993 -0.00239998 0.00829993 -0.00279998 0.00809993 -0.00309997 0.00799993 -0.00349997 0.00769993 -0.00389997 0.00749993 -0.00419996 0.00739994 -0.00459996 0.00699994 -0.00489996 0.00689994 -0.00519995 0.00659994 -0.00549995 0.00629994 -0.00579995 0.00609995 -0.00609995 0.00579995 -0.00639994 0.00549995 -0.00659994 0.00519995 -0.00689994 0.00479996 -0.00709994 0.00459996 -0.00729994 0.00419996 -0.00759993 0.00389997 -0.00779993 0.00349997 -0.00789993 0.00309997 -0.00819993 0.00269998 -0.00829993 0.00239998 -0.00849993 0.00189998 -0.00859992 0.00159999 -0.00879992 0.00109999 -0.00889992 0.000699994 -0.00899992 0.000199998 -0.00899992 -0.000199998 -0.00889992 -0.000699994 -0.00879992 -0.00109999 -0.00859992 -0.00159999 -0.00849993 -0.00189998 -0.00829993 -0.00239998 -0.00819993 -0.00269998 -0.00789993 -0.00309997 -0.00779993 -0.00349997 -0.00759993 -0.00389997 -0.00729994 -0.00419996 -0.00709994 -0.00459996 -0.00689994 -0.00479996 -0.00659994 -0.00519995 -0.00639994 -0.00549995 -0.00609995 -0.00579995 -0.00579995 -0.00609995 -0.00549995 -0.00629994 -0.00519995 -0.00659994 -0.00489996 -0.00689994 -0.00459996 -0.00699994 -0.00419996 -0.00739994 -0.00389997 -0.00749993 -0.00349997 -0.00769993 -0.00309997 -0.00799993 -0.00279998 -0.00809993 -0.00239998 -0.00829993 -0.00189998 -0.00839993 -0.00159999 -0.00859992 -0.00109999 -0.00879992 -0.000699994 -0.00879992 -0.000199998 -0.00899992zm-5.52555 0l0.175398 -0.174698 5.52555 0 0 0.349397 -5.52555 0 -0.175398 -0.174698zm0.175398 -0.174698l0 0.349397 -0.00899992 -0.000199998 -0.00889992 -0.000699994 -0.00879992 -0.00109999 -0.00859992 -0.00159999 -0.00849993 -0.00189998 -0.00829993 -0.00239998 -0.00819993 -0.00269998 -0.00789993 -0.00309997 -0.00779993 -0.00349997 -0.00759993 -0.00389997 -0.00729994 -0.00419996 -0.00709994 -0.00459996 -0.00689994 -0.00479996 -0.00659994 -0.00519995 -0.00639994 -0.00549995 -0.00609995 -0.00579995 -0.00579995 -0.00609995 -0.00549995 -0.00629994 -0.00519995 -0.00659994 -0.00489996 -0.00689994 -0.00459996 -0.00699994 -0.00419996 -0.00739994 -0.00389997 -0.00749993 -0.00349997 -0.00769993 -0.00309997 -0.00799993 -0.00279998 -0.00809993 -0.00239998 -0.00829993 -0.00189998 -0.00839993 -0.00159999 -0.00859992 -0.00109999 -0.00879992 -0.000699994 -0.00879992 -0.000199998 -0.00899992 0.000199998 -0.00899992 0.000699994 -0.00879992 0.00109999 -0.00879992 0.00159999 -0.00859992 0.00189998 -0.00839993 0.00239998 -0.00829993 0.00279998 -0.00809993 0.00309997 -0.00799993 0.00349997 -0.00769993 0.00389997 -0.00749993 0.00419996 -0.00739994 0.00459996 -0.00699994 0.00489996 -0.00689994 0.00519995 -0.00659994 0.00549995 -0.00629994 0.00579995 -0.00609995 0.00609995 -0.00579995 0.00639994 -0.00549995 0.00659994 -0.00519995 0.00689994 -0.00479996 0.00709994 -0.00459996 0.00729994 -0.00419996 0.00759993 -0.00389997 0.00779993 -0.00349997 0.00789993 -0.00309997 0.00819993 -0.00269998 0.00829993 -0.00239998 0.00849993 -0.00189998 0.00859992 -0.00159999 0.00879992 -0.00109999 0.00889992 -0.000699994 0.00899992 -0.000199998zm0 -8.21543l0.175398 0.174698 0 8.21543 -0.350797 0 0 -8.21543 0.175398 -0.174698zm0.175398 0.174698l-0.350797 0 0.000199998 -0.00899992 0.000699994 -0.00879992 0.00109999 -0.00879992 0.00159999 -0.00859992 0.00189998 -0.00839993 0.00239998 -0.00829993 0.00279998 -0.00809993 0.00309997 -0.00799993 0.00349997 -0.00769993 0.00389997 -0.00749993 0.00419996 -0.00739994 0.00459996 -0.00699994 0.00489996 -0.00689994 0.00519995 -0.00659994 0.00549995 -0.00629994 0.00579995 -0.00609995 0.00609995 -0.00579995 0.00639994 -0.00549995 0.00659994 -0.00519995 0.00689994 -0.00479996 0.00709994 -0.00459996 0.00729994 -0.00419996 0.00759993 -0.00389997 0.00779993 -0.00349997 0.00789993 -0.00309997 0.00819993 -0.00269998 0.00829993 -0.00239998 0.00849993 -0.00189998 0.00859992 -0.00159999 0.00879992 -0.00109999 0.00889992 -0.000699994 0.00899992 -0.000199998 0.00899992 0.000199998 0.00889992 0.000699994 0.00879992 0.00109999 0.00859992 0.00159999 0.00849993 0.00189998 0.00829993 0.00239998 0.00819993 0.00269998 0.00789993 0.00309997 0.00779993 0.00349997 0.00759993 0.00389997 0.00729994 0.00419996 0.00709994 0.00459996 0.00689994 0.00479996 0.00659994 0.00519995 0.00639994 0.00549995 0.00609995 0.00579995 0.00579995 0.00609995 0.00549995 0.00629994 0.00519995 0.00659994 0.00489996 0.00689994 0.00459996 0.00699994 0.00419996 0.00739994 0.00389997 0.00749993 0.00349997 0.00769993 0.00309997 0.00799993 0.00279998 0.00809993 0.00239998 0.00829993 0.00189998 0.00839993 0.00159999 0.00859992 0.00109999 0.00879992 0.000699994 0.00879992 0.000199998 0.00899992z"/>
   </g>
   <rect class="fil2" x="2.96289" y="5.63487" width="2.71835" height="3.91121" rx="1.07259" ry="1.07259"/>
   <rect class="fil0" x="3.37581" y="6.06499" width="0.734069" height="3.05097"/>
   <rect class="fil0" x="4.53426" y="6.06499" width="0.734069" height="3.05097"/>
   <rect class="fil2" x="1.47633" y="10.7346" width="5.55385" height="0.440561"/>
   <rect class="fil2" y="12.383" width="22.8018" height="0.443677" rx="0.669194" ry="0.669194"/>
   <path class="fil2" d="M10.4269 7.69263l1.87828 0c0.265198,0 0.482196,0.216998 0.482196,0.482196l0 4.35076 -2.85217 0 0 -4.34116c0,-0.270498 0.221298,-0.491796 0.491696,-0.491796z"/>
   <rect class="fil0" x="10.4162" y="8.16552" width="1.8903" height="4.21576"/>
   <rect class="fil2" x="17.0436" y="5.63487" width="2.71835" height="3.91121" rx="1.07259" ry="1.07259"/>
   <g>
    <path class="fil1" d="M21.3701 4.44276l-0.175398 0.174698 -5.52555 0 0 -0.349397 5.52555 0 0.175398 0.174698zm-0.175398 0.174698l0 -0.349397 0.00899992 0.000199998 0.00889992 0.000699994 0.00879992 0.00109999 0.00859992 0.00159999 0.00849993 0.00189998 0.00829993 0.00239998 0.00819993 0.00269998 0.00789993 0.00309997 0.00779993 0.00349997 0.00759993 0.00389997 0.00729994 0.00419996 0.00709994 0.00459996 0.00689994 0.00479996 0.00659994 0.00519995 0.00639994 0.00549995 0.00609995 0.00579995 0.00579995 0.00609995 0.00549995 0.00629994 0.00519995 0.00659994 0.00489996 0.00689994 0.00459996 0.00699994 0.00419996 0.00739994 0.00389997 0.00749993 0.00349997 0.00769993 0.00309997 0.00799993 0.00279998 0.00809993 0.00239998 0.00829993 0.00189998 0.00839993 0.00159999 0.00859992 0.00109999 0.00879992 0.000699994 0.00879992 0.000199998 0.00899992 -0.000199998 0.00899992 -0.000699994 0.00879992 -0.00109999 0.00879992 -0.00159999 0.00859992 -0.00189998 0.00839993 -0.00239998 0.00829993 -0.00279998 0.00809993 -0.00309997 0.00799993 -0.00349997 0.00769993 -0.00389997 0.00749993 -0.00419996 0.00739994 -0.00459996 0.00699994 -0.00489996 0.00689994 -0.00519995 0.00659994 -0.00549995 0.00629994 -0.00579995 0.00609995 -0.00609995 0.00579995 -0.00639994 0.00549995 -0.00659994 0.00519995 -0.00689994 0.00479996 -0.00709994 0.00459996 -0.00729994 0.00419996 -0.00759993 0.00389997 -0.00779993 0.00349997 -0.00789993 0.00309997 -0.00819993 0.00269998 -0.00829993 0.00239998 -0.00849993 0.00189998 -0.00859992 0.00159999 -0.00879992 0.00109999 -0.00889992 0.000699994 -0.00899992 0.000199998zm0 8.21543l-0.175398 -0.174698 0 -8.21543 0.350797 0 0 8.21543 -0.175398 0.174698zm-0.175398 -0.174698l0.350797 0 -0.000199998 0.00899992 -0.000699994 0.00879992 -0.00109999 0.00879992 -0.00159999 0.00859992 -0.00189998 0.00839993 -0.00239998 0.00829993 -0.00279998 0.00809993 -0.00309997 0.00799993 -0.00349997 0.00769993 -0.00389997 0.00749993 -0.00419996 0.00739994 -0.00459996 0.00699994 -0.00489996 0.00689994 -0.00519995 0.00659994 -0.00549995 0.00629994 -0.00579995 0.00609995 -0.00609995 0.00579995 -0.00639994 0.00549995 -0.00659994 0.00519995 -0.00689994 0.00479996 -0.00709994 0.00459996 -0.00729994 0.00419996 -0.00759993 0.00389997 -0.00779993 0.00349997 -0.00789993 0.00309997 -0.00819993 0.00269998 -0.00829993 0.00239998 -0.00849993 0.00189998 -0.00859992 0.00159999 -0.00879992 0.00109999 -0.00889992 0.000699994 -0.00899992 0.000199998 -0.00899992 -0.000199998 -0.00889992 -0.000699994 -0.00879992 -0.00109999 -0.00859992 -0.00159999 -0.00849993 -0.00189998 -0.00829993 -0.00239998 -0.00819993 -0.00269998 -0.00789993 -0.00309997 -0.00779993 -0.00349997 -0.00759993 -0.00389997 -0.00729994 -0.00419996 -0.00709994 -0.00459996 -0.00689994 -0.00479996 -0.00659994 -0.00519995 -0.00639994 -0.00549995 -0.00609995 -0.00579995 -0.00579995 -0.00609995 -0.00549995 -0.00629994 -0.00519995 -0.00659994 -0.00489996 -0.00689994 -0.00459996 -0.00699994 -0.00419996 -0.00739994 -0.00389997 -0.00749993 -0.00349997 -0.00769993 -0.00309997 -0.00799993 -0.00279998 -0.00809993 -0.00239998 -0.00829993 -0.00189998 -0.00839993 -0.00159999 -0.00859992 -0.00109999 -0.00879992 -0.000699994 -0.00879992 -0.000199998 -0.00899992zm-5.52555 0l0.175398 -0.174698 5.52555 0 0 0.349397 -5.52555 0 -0.175398 -0.174698zm0.175398 -0.174698l0 0.349397 -0.00899992 -0.000199998 -0.00889992 -0.000699994 -0.00879992 -0.00109999 -0.00859992 -0.00159999 -0.00849993 -0.00189998 -0.00829993 -0.00239998 -0.00819993 -0.00269998 -0.00789993 -0.00309997 -0.00779993 -0.00349997 -0.00759993 -0.00389997 -0.00729994 -0.00419996 -0.00709994 -0.00459996 -0.00689994 -0.00479996 -0.00659994 -0.00519995 -0.00639994 -0.00549995 -0.00609995 -0.00579995 -0.00579995 -0.00609995 -0.00549995 -0.00629994 -0.00519995 -0.00659994 -0.00489996 -0.00689994 -0.00459996 -0.00699994 -0.00419996 -0.00739994 -0.00389997 -0.00749993 -0.00349997 -0.00769993 -0.00309997 -0.00799993 -0.00279998 -0.00809993 -0.00239998 -0.00829993 -0.00189998 -0.00839993 -0.00159999 -0.00859992 -0.00109999 -0.00879992 -0.000699994 -0.00879992 -0.000199998 -0.00899992 0.000199998 -0.00899992 0.000699994 -0.00879992 0.00109999 -0.00879992 0.00159999 -0.00859992 0.00189998 -0.00839993 0.00239998 -0.00829993 0.00279998 -0.00809993 0.00309997 -0.00799993 0.00349997 -0.00769993 0.00389997 -0.00749993 0.00419996 -0.00739994 0.00459996 -0.00699994 0.00489996 -0.00689994 0.00519995 -0.00659994 0.00549995 -0.00629994 0.00579995 -0.00609995 0.00609995 -0.00579995 0.00639994 -0.00549995 0.00659994 -0.00519995 0.00689994 -0.00479996 0.00709994 -0.00459996 0.00729994 -0.00419996 0.00759993 -0.00389997 0.00779993 -0.00349997 0.00789993 -0.00309997 0.00819993 -0.00269998 0.00829993 -0.00239998 0.00849993 -0.00189998 0.00859992 -0.00159999 0.00879992 -0.00109999 0.00889992 -0.000699994 0.00899992 -0.000199998zm0 -8.21543l0.175398 0.174698 0 8.21543 -0.350797 0 0 -8.21543 0.175398 -0.174698zm0.175398 0.174698l-0.350797 0 0.000199998 -0.00899992 0.000699994 -0.00879992 0.00109999 -0.00879992 0.00159999 -0.00859992 0.00189998 -0.00839993 0.00239998 -0.00829993 0.00279998 -0.00809993 0.00309997 -0.00799993 0.00349997 -0.00769993 0.00389997 -0.00749993 0.00419996 -0.00739994 0.00459996 -0.00699994 0.00489996 -0.00689994 0.00519995 -0.00659994 0.00549995 -0.00629994 0.00579995 -0.00609995 0.00609995 -0.00579995 0.00639994 -0.00549995 0.00659994 -0.00519995 0.00689994 -0.00479996 0.00709994 -0.00459996 0.00729994 -0.00419996 0.00759993 -0.00389997 0.00779993 -0.00349997 0.00789993 -0.00309997 0.00819993 -0.00269998 0.00829993 -0.00239998 0.00849993 -0.00189998 0.00859992 -0.00159999 0.00879992 -0.00109999 0.00889992 -0.000699994 0.00899992 -0.000199998 0.00899992 0.000199998 0.00889992 0.000699994 0.00879992 0.00109999 0.00859992 0.00159999 0.00849993 0.00189998 0.00829993 0.00239998 0.00819993 0.00269998 0.00789993 0.00309997 0.00779993 0.00349997 0.00759993 0.00389997 0.00729994 0.00419996 0.00709994 0.00459996 0.00689994 0.00479996 0.00659994 0.00519995 0.00639994 0.00549995 0.00609995 0.00579995 0.00579995 0.00609995 0.00549995 0.00629994 0.00519995 0.00659994 0.00489996 0.00689994 0.00459996 0.00699994 0.00419996 0.00739994 0.00389997 0.00749993 0.00349997 0.00769993 0.00309997 0.00799993 0.00279998 0.00809993 0.00239998 0.00829993 0.00189998 0.00839993 0.00159999 0.00859992 0.00109999 0.00879992 0.000699994 0.00879992 0.000199998 0.00899992z"/>
   </g>
   <polygon class="fil0" points="17.4565,6.06495 18.1905,6.06495 18.1905,7.92213 18.6149,7.92213 18.6149,6.06495 19.349,6.06495 19.349,9.11592 18.6149,9.11592 18.6149,8.41343 18.1905,8.41343 18.1905,9.11592 17.4565,9.11592 "/>
   <rect class="fil2" x="15.655" y="10.7346" width="5.55385" height="0.440561"/>
   <path class="fil1" d="M6.42044 5.06996c-0.0682994,0.0647994 -0.173898,0.0591995 -0.235698,-0.0122999 -0.0618995,-0.0714994 -0.0565995,-0.181998 0.0116999,-0.246698l5.04316 -4.76576c0.0644994,-0.0610995 0.162199,-0.0595995 0.224998,0.000999991l0.000199998 -0.000299997 4.87556 4.67806c0.0678994,0.0653994 0.0722994,0.176198 0.00979991,0.247398 -0.0625995,0.0710994 -0.168399,0.0756993 -0.236398,0.0101999l-4.76336 -4.57046 -4.92996 4.65886z"/>
  </g>
 </g>
</svg>
