<?xml version="1.0" encoding="UTF-8" standalone="no"?>
<svg xmlns:dc="http://purl.org/dc/elements/1.1/" xmlns:cc="http://creativecommons.org/ns#" xmlns:rdf="http://www.w3.org/1999/02/22-rdf-syntax-ns#" xmlns:svg="http://www.w3.org/2000/svg" xmlns="http://www.w3.org/2000/svg" xmlns:sodipodi="http://sodipodi.sourceforge.net/DTD/sodipodi-0.dtd" xmlns:inkscape="http://www.inkscape.org/namespaces/inkscape" inkscape:version="1.0 (4035a4fb49, 2020-05-01)" sodipodi:docname="01.svg" id="svg65" version="1.1" viewBox="0 0 292.4 194.1" xml:space="preserve">
	<metadata id="metadata69">
		<RDF>
			<Work rdf:about="">
				<format>
					image/svg+xml
				</format>
				<type rdf:resource="http://purl.org/dc/dcmitype/StillImage" />
			</Work>
		</RDF>
	</metadata>
	<namedview inkscape:current-layer="svg65" inkscape:window-maximized="1" inkscape:window-y="-6" inkscape:window-x="-6" inkscape:cy="84.520157" inkscape:cx="-2.5692267" inkscape:zoom="1.2622359" showgrid="false" id="namedview67" inkscape:window-height="658" inkscape:window-width="1280" inkscape:pageshadow="2" inkscape:pageopacity="0" guidetolerance="10" gridtolerance="10" objecttolerance="10" borderopacity="1" bordercolor="#666666" pagecolor="#ffffff" />
	<defs id="defs4">
		<style id="style2" type="text/css">
			<![CDATA[
			.str0 {stroke:#DEDEDD;stroke-width:0.254498}
			.str1 {stroke:#C9CCCE;stroke-width:0.254498}
			.str2 {stroke:#C9CCCE;stroke-width:0.254498;stroke-linecap:round;stroke-linejoin:round}
			.fil0 {fill:none}
			.fil4 {fill:#15202A}
			.fil6 {fill:#DEDEDD}
			.fil2 {fill:#D9DBDD}
			.fil3 {fill:#3F4446;fill-rule:nonzero}
			.fil5 {fill:#00ACEE;fill-rule:nonzero}
			.fil1 {fill:#C9CCCE;fill-rule:nonzero}
			]]>
		</style>
	</defs>
	<g transform="matrix(13.822437,0,0,13.822437,47.437589,4.9332239)" id="Layer_x0020_1">
		<metadata id="CorelCorpID_0Corel-Layer" />
		<g id="_308117976">
			<line y2="13.2664" x2="4.8166699" y1="9.6156301" x1="4.8166699" class="fil0 str0" id="_96296096" />
			<g id="g9">
				<path d="M 12.8774,0.920194 12.750701,1.047393 H 1.645101 V 0.792995 h 11.1056 z M 12.750701,0.792995 H 12.8774 v 0.127199 z m 0,12.728 -0.126699,-0.127199 V 0.920196 H 12.8774 v 12.4736 z M 12.8774,13.393796 v 0.127199 h -0.126699 z m -11.359,0 0.126699,-0.127199 h 11.1056 v 0.254398 h -11.1056 z m 0.126699,0.127199 H 1.5184 v -0.127199 z m 0,-12.728 0.126699,0.127199 v 12.4736 H 1.5184 V 0.920194 Z M 1.5184,0.920194 V 0.792995 h 0.126699 z" class="fil1" id="_96294080" />
			</g>
			<rect id="rect11" height="0.56196803" width="10.8639" y="0.92019397" x="1.76594" class="fil2" />
			<rect id="rect13" ry="1.66949" rx="1.66949" height="0.80281198" width="12.0957" y="0.12719201" x="1.15004" class="fil2 str1" />
			<g id="g17">
				<path id="path15" d="M 12.8793,5.15156 12.750701,5.278759 H 1.645101 V 5.024361 h 11.1056 z M 12.750701,5.024361 H 12.8793 V 5.15156 Z m 0,4.72337 -0.128599,-0.127199 V 5.151562 H 12.8793 v 4.46897 z M 12.8793,9.620532 v 0.127199 h -0.128599 z m -11.3628,0 0.128599,-0.127199 h 11.1056 V 9.747731 H 1.645099 Z M 1.645099,9.747731 H 1.5165 V 9.620532 Z m 0,-4.72337 0.128599,0.127199 V 9.62053 H 1.5165 V 5.15156 Z M 1.5165,5.15156 V 5.024361 h 0.128599 z" class="fil3" />
			</g>
			<line id="line19" y2="13.3937" x2="14.2687" y1="13.3937" x1="0.12709901" class="fil0 str2" />
			<rect id="rect21" ry="0.77399498" rx="0.77399498" height="2.3076" width="1.5353" y="1.8132401" x="3.5604501" class="fil2" />
			<path id="path23" d="m 3.74657,1.68599 h 1.16309 c 0.083999,0 0.161199,0.033 0.217898,0.085999 0.0589,0.0551 0.095399,0.131299 0.095399,0.215399 v 1.95929 c 0,0.084099 -0.0365,0.160399 -0.095399,0.215399 -0.0567,0.0531 -0.133899,0.085999 -0.217898,0.085999 H 3.74657 c -0.083999,0 -0.161299,-0.0329 -0.217898,-0.085999 -0.0589,-0.055 -0.095499,-0.131299 -0.095499,-0.215399 v -1.95929 c 0,-0.084099 0.0366,-0.160299 0.095499,-0.215399 0.0566,-0.053 0.133899,-0.085999 0.217898,-0.085999 z M 4.90966,1.940488 H 3.74657 c -0.0183,0 -0.0342,0.0063 -0.045,0.0164 -0.0085,0.008 -0.0139,0.0188 -0.0139,0.0305 v 1.95929 c 0,0.0117 0.0054,0.0225 0.0139,0.0306 0.0108,0.0101 0.0267,0.0163 0.045,0.0163 h 1.16309 c 0.0183,0 0.0342,-0.0063 0.0449,-0.0163 0.0086,-0.0081 0.0139,-0.0189 0.0139,-0.0306 v -1.95929 c 0,-0.0117 -0.0053,-0.0225 -0.0139,-0.0305 -0.0107,-0.0101 -0.0266,-0.0164 -0.0449,-0.0164 z" class="fil1" />
			<rect id="rect25" ry="0.77399498" rx="0.77399498" height="2.3076" width="1.5353" y="1.8132401" x="6.4302602" class="fil2" />
			<path id="path27" d="m 6.61635,1.68599 h 1.16309 c 0.083999,0 0.161299,0.033 0.217898,0.085999 0.0589,0.0551 0.095399,0.131299 0.095399,0.215399 v 1.95929 c 0,0.084099 -0.0365,0.160399 -0.095399,0.215399 -0.0566,0.0531 -0.133899,0.085999 -0.217898,0.085999 H 6.61635 c -0.083999,0 -0.161299,-0.0329 -0.217898,-0.085999 -0.0589,-0.055 -0.095399,-0.131299 -0.095399,-0.215399 v -1.95929 c 0,-0.084099 0.0365,-0.160299 0.095399,-0.215399 0.0566,-0.053 0.133899,-0.085999 0.217898,-0.085999 z M 7.77944,1.940488 H 6.61635 c -0.0183,0 -0.0341,0.0063 -0.0449,0.0164 -0.0086,0.008 -0.014,0.0188 -0.014,0.0305 v 1.95929 c 0,0.0117 0.0054,0.0225 0.014,0.0306 0.0108,0.0101 0.0266,0.0163 0.0449,0.0163 h 1.16309 c 0.0183,0 0.0342,-0.0063 0.0449,-0.0163 0.0086,-0.0081 0.014,-0.0189 0.014,-0.0306 v -1.95929 c 0,-0.0117 -0.0054,-0.0225 -0.014,-0.0305 -0.0107,-0.0101 -0.0266,-0.0164 -0.0449,-0.0164 z" class="fil1" />
			<rect id="rect29" ry="0.77399498" rx="0.77399498" height="2.3076" width="1.5353" y="1.8132401" x="9.3000402" class="fil2" />
			<path id="path31" d="m 9.48613,1.68599 h 1.16309 c 0.084,0 0.161299,0.033 0.217898,0.085999 0.0589,0.0551 0.0954,0.131299 0.0954,0.215399 v 1.95929 c 0,0.084099 -0.0365,0.160399 -0.0954,0.215399 -0.0566,0.0531 -0.133899,0.085999 -0.217898,0.085999 H 9.48613 c -0.083999,0 -0.161299,-0.0329 -0.217898,-0.085999 -0.0589,-0.055 -0.095399,-0.131299 -0.095399,-0.215399 v -1.95929 c 0,-0.084099 0.0365,-0.160299 0.095399,-0.215399 0.0566,-0.053 0.133899,-0.085999 0.217898,-0.085999 z m 1.16309,0.254498 H 9.48613 c -0.0183,0 -0.0341,0.0063 -0.0449,0.0164 -0.0086,0.008 -0.014,0.0188 -0.014,0.0305 v 1.95929 c 0,0.0117 0.0054,0.0225 0.014,0.0306 0.0108,0.0101 0.0266,0.0163 0.0449,0.0163 h 1.16309 c 0.0183,0 0.0342,-0.0063 0.0449,-0.0163 0.0086,-0.0081 0.014,-0.0189 0.014,-0.0306 v -1.95929 c 0,-0.0117 -0.0054,-0.0225 -0.014,-0.0305 -0.0107,-0.0101 -0.0266,-0.0164 -0.0449,-0.0164 z" class="fil1" />
			<g id="g37">
				<rect id="rect33" ry="0.77399498" rx="0.77399498" height="2.41752" width="1.5787899" y="6.2304401" x="3.5387199" class="fil4" />
				<path id="path35" d="m 3.73007,6.14566 h 1.19609 c 0.074999,0 0.143599,0.0295 0.193499,0.0771 0.051,0.0486 0.082699,0.115899 0.082699,0.190099 v 2.05269 c 0,0.074199 -0.0317,0.141499 -0.082699,0.190099 -0.0499,0.0476 -0.118499,0.077099 -0.193499,0.077099 H 3.73007 c -0.075,0 -0.143599,-0.0295 -0.193499,-0.077099 -0.051,-0.0486 -0.082699,-0.115899 -0.082699,-0.190099 v -1.57189 c 0,-0.0247 -0.0012,-0.054 0.0199,-0.0728 0.0153,-0.0138 0.0391,-0.0226 0.0656,-0.0226 h 10e-5 c 0.0301,0 0.0567,0.0114 0.0713,0.0284 0.0164,0.019 0.0128,0.0482 0.0128,0.071299 v 1.56759 c 0,0.0261 0.0114,0.0501 0.0297,0.0675 0.0194,0.0186 0.0467,0.0301 0.076799,0.0301 h 1.19609 c 0.0302,0 0.0573,-0.0115 0.076799,-0.0301 0.0183,-0.0174 0.0297,-0.0414 0.0297,-0.0675 v -2.05269 c 0,-0.0261 -0.0114,-0.05 -0.0297,-0.067499 -0.0195,-0.0186 -0.0466,-0.0301 -0.076799,-0.0301 h -1.19609 c -0.0301,0 -0.0574,0.0115 -0.076799,0.0301 -0.0183,0.0175 -0.0297,0.0414 -0.0297,0.067499 v 0.090599 c 0,0.017 0.0014,0.0368 -0.0089,0.0518 -0.0135,0.0197 -0.0422,0.0334 -0.0752,0.0334 h -10e-5 c -0.0337,0 -0.0629,-0.0143 -0.0761,-0.0347 -0.0085,-0.0133 -0.0094,-0.0342 -0.0094,-0.0487 V 6.412858 c 0,-0.074199 0.0317,-0.141499 0.082699,-0.190099 0.0499,-0.0476 0.118499,-0.0771 0.193499,-0.077099 z" class="fil5" />
			</g>
			<g id="g43">
				<rect id="rect39" ry="0.77399498" rx="0.77399498" height="2.41752" width="1.5787899" y="6.2304401" x="6.4085002" class="fil4" />
				<path id="path41" d="m 6.59985,6.14566 h 1.19609 c 0.075,0 0.143599,0.0295 0.193499,0.0771 0.051,0.0486 0.082699,0.115899 0.082699,0.190099 v 2.05269 c 0,0.074199 -0.0317,0.141499 -0.082699,0.190099 -0.0499,0.0476 -0.118499,0.077099 -0.193499,0.077099 H 6.59985 c -0.074999,0 -0.143599,-0.0295 -0.193499,-0.077099 -0.051,-0.0486 -0.082699,-0.115899 -0.082699,-0.190099 v -1.57189 c 0,-0.0247 -0.0012,-0.054 0.0199,-0.0728 0.0153,-0.0138 0.0391,-0.0226 0.065599,-0.0226 h 1e-4 c 0.0301,0 0.0567,0.0114 0.071299,0.0284 0.0164,0.019 0.0128,0.0482 0.0128,0.071299 v 1.56759 c 0,0.0261 0.0114,0.0501 0.0297,0.0675 0.0194,0.0186 0.0467,0.0301 0.076799,0.0301 h 1.19609 c 0.0302,0 0.0573,-0.0115 0.076799,-0.0301 0.0183,-0.0174 0.0297,-0.0414 0.0297,-0.0675 v -2.05269 c 0,-0.0261 -0.0114,-0.05 -0.0297,-0.067499 -0.0195,-0.0186 -0.0466,-0.0301 -0.076799,-0.0301 h -1.19609 c -0.0301,0 -0.0574,0.0115 -0.076799,0.0301 -0.0183,0.0175 -0.0297,0.0414 -0.0297,0.067499 v 0.090599 c 0,0.017 0.0014,0.0368 -0.0089,0.0518 -0.0135,0.0197 -0.0422,0.0334 -0.0752,0.0334 h -10e-5 c -0.0337,0 -0.0629,-0.0143 -0.076099,-0.0347 -0.0085,-0.0133 -0.0094,-0.0342 -0.0094,-0.0487 V 6.412858 c 0,-0.074199 0.0317,-0.141499 0.082699,-0.190099 0.0499,-0.0476 0.118499,-0.0771 0.1935,-0.077099 z" class="fil5" />
			</g>
			<g id="g49">
				<rect id="rect45" ry="0.77399498" rx="0.77399498" height="2.41752" width="1.5787899" y="6.2304401" x="9.2782803" class="fil4" />
				<path id="path47" d="m 9.46963,6.14566 h 1.19609 c 0.075,0 0.143599,0.0295 0.193499,0.0771 0.051,0.0486 0.0827,0.115899 0.0827,0.190099 v 2.05269 c 0,0.074199 -0.0317,0.141499 -0.0827,0.190099 -0.0499,0.0476 -0.118499,0.077099 -0.193499,0.077099 H 9.46963 c -0.075,0 -0.143599,-0.0295 -0.193499,-0.077099 -0.051,-0.0486 -0.082699,-0.115899 -0.082699,-0.190099 v -1.57189 c 0,-0.0247 -0.0012,-0.054 0.0199,-0.0728 0.0153,-0.0138 0.0391,-0.0226 0.065599,-0.0226 h 10e-5 c 0.0301,0 0.0567,0.0114 0.0713,0.0284 0.0164,0.019 0.0128,0.0482 0.0128,0.071299 v 1.56759 c 0,0.0261 0.0114,0.0501 0.0297,0.0675 0.0194,0.0186 0.0467,0.0301 0.076799,0.0301 h 1.19609 c 0.0302,0 0.0573,-0.0115 0.0768,-0.0301 0.0183,-0.0174 0.0297,-0.0414 0.0297,-0.0675 v -2.05269 c 0,-0.0261 -0.0114,-0.05 -0.0297,-0.067499 -0.0195,-0.0186 -0.0466,-0.0301 -0.0768,-0.0301 H 9.4696297 c -0.0301,0 -0.0574,0.0115 -0.076799,0.0301 -0.0183,0.0175 -0.0297,0.0414 -0.0297,0.067499 v 0.090599 c 0,0.017 0.0014,0.0368 -0.0089,0.0518 -0.0135,0.0197 -0.0422,0.0334 -0.0752,0.0334 h -10e-5 c -0.0337,0 -0.0629,-0.0143 -0.076099,-0.0347 -0.0085,-0.0133 -0.0094,-0.0342 -0.0094,-0.0487 V 6.412858 c 0,-0.074199 0.0317,-0.141499 0.082699,-0.190099 0.0499,-0.0476 0.118499,-0.0771 0.1934993,-0.077099 z" class="fil5" />
			</g>
			<rect id="rect51" ry="0.77399498" rx="0.77399498" height="2.3076" width="1.5353" y="10.4836" x="9.1394796" class="fil2" />
			<path id="path53" d="m 9.32554,10.3563 h 1.16309 c 0.0841,0 0.161299,0.033 0.217998,0.086 0.0588,0.0551 0.0954,0.131299 0.0954,0.215499 v 1.95919 c 0,0.0841 -0.0366,0.160399 -0.0954,0.215499 -0.0567,0.053 -0.133899,0.0859 -0.217998,0.0859 H 9.32554 c -0.083999,0 -0.161199,-0.0329 -0.217898,-0.0859 -0.0588,-0.0551 -0.095399,-0.131399 -0.095399,-0.215499 v -1.95919 c 0,-0.0842 0.0366,-0.160399 0.095399,-0.215499 0.0567,-0.053 0.133899,-0.086 0.217898,-0.086 z m 1.16309,0.254498 H 9.32554 c -0.0182,0 -0.0341,0.0063 -0.0449,0.0164 -0.0086,0.008 -0.0139,0.0189 -0.0139,0.0306 v 1.95919 c 0,0.0117 0.0053,0.0226 0.0139,0.0306 0.0108,0.0101 0.0267,0.0164 0.0449,0.0164 h 1.16309 c 0.0183,0 0.0342,-0.0063 0.045,-0.0164 0.0085,-0.008 0.0139,-0.0189 0.0139,-0.0306 v -1.95919 c 0,-0.0117 -0.0053,-0.0226 -0.0139,-0.0306 -0.0108,-0.0101 -0.0267,-0.0164 -0.045,-0.0164 z" class="fil1" />
			<rect id="rect55" ry="0.77399498" rx="0.77399498" height="2.3076" width="1.5353" y="10.4836" x="6.27599" class="fil2" />
			<path id="path57" d="m 6.46206,10.3563 h 1.16309 c 0.084099,0 0.161299,0.033 0.217998,0.086 0.0588,0.0551 0.095399,0.131299 0.095399,0.215499 v 1.95919 c 0,0.0841 -0.0366,0.160399 -0.095399,0.215499 -0.0567,0.053 -0.133899,0.0859 -0.217998,0.0859 H 6.46206 c -0.083999,0 -0.161199,-0.0329 -0.217898,-0.0859 -0.0588,-0.0551 -0.095399,-0.131399 -0.095399,-0.215499 v -1.95919 c 0,-0.0842 0.0366,-0.160399 0.095399,-0.215499 0.0567,-0.053 0.133899,-0.086 0.217898,-0.086 z m 1.16309,0.254498 H 6.46206 c -0.0182,0 -0.0341,0.0063 -0.0449,0.0164 -0.0086,0.008 -0.0139,0.0189 -0.0139,0.0306 v 1.95919 c 0,0.0117 0.0053,0.0226 0.0139,0.0306 0.0108,0.0101 0.0267,0.0164 0.0449,0.0164 h 1.16309 c 0.0183,0 0.0342,-0.0063 0.045,-0.0164 0.0085,-0.008 0.0139,-0.0189 0.0139,-0.0306 v -1.95919 c 0,-0.0117 -0.0053,-0.0226 -0.0139,-0.0306 -0.0108,-0.0101 -0.0267,-0.0164 -0.045,-0.0164 z" class="fil1" />
			<path id="path59" d="m 2.86918,11.1955 h 0.934994 c 0.079599,0 0.144699,0.0651 0.144699,0.144699 v 1.96679 h -1.22439 v -1.96679 c 0,-0.0796 0.065099,-0.144699 0.144699,-0.144699 z" class="fil6" />
			<path id="path61" d="m 2.86918,11.0683 h 0.934994 c 0.074999,0 0.142999,0.0306 0.192199,0.0798 0.0492,0.0492 0.079799,0.117199 0.079799,0.192099 v 1.96679 0.127199 H 3.948873 2.724483 2.597184 v -0.127199 -1.96679 c 0,-0.0749 0.0306,-0.142899 0.079799,-0.192099 0.0493,-0.0492 0.117299,-0.0798 0.192199,-0.0798 z m 0.934994,0.254498 H 2.86918 c -0.0047,0 -0.0091,0.002 -0.0123,0.0052 -0.0032,0.0032 -0.0052,0.0075 -0.0052,0.0122 v 1.83959 h 0.969993 v -1.83959 c 0,-0.0047 -0.002,-0.009 -0.0052,-0.0122 -0.0032,-0.0032 -0.0076,-0.0052 -0.012299,-0.0052 z" class="fil1" />
		</g>
	</g>
</svg>
