<?xml version="1.0" encoding="UTF-8"?>
<!DOCTYPE svg PUBLIC "-//W3C//DTD SVG 1.1//EN" "http://www.w3.org/Graphics/SVG/1.1/DTD/svg11.dtd">
<!-- Creator: CorelDRAW -->
<svg xmlns="http://www.w3.org/2000/svg" xml:space="preserve" viewBox="0 0 292.4 194.1"
 xmlns:xlink="http://www.w3.org/1999/xlink">
 <defs>
  <style type="text/css">
   <![CDATA[
    .str0 {stroke:#3F4446;stroke-width:0.2551;stroke-linecap:round;stroke-linejoin:round}
    .fil1 {fill:none}
    .fil3 {fill:#15202A}
    .fil2 {fill:#00ACEE}
    .fil0 {fill:#D9DBDD}
    .fil5 {fill:#3F4446;fill-rule:nonzero}
    .fil4 {fill:#D9DBDD;fill-opacity:0.501961}
   ]]>
  </style>
 </defs>
 <g id="Layer_x0020_1">
  <metadata id="CorelCorpID_0Corel-Layer"/>
  <g id="_13.cdr">
   <polygon id="_311038384" class="fil0" points="12.6298,9.1666 13.3871,13.0409 14.3862,13.0409 13.6856,9.1666 "/>
   <polygon id="_311038312" class="fil0" points="1.1798,3.983 3.8515,3.983 3.8515,13.2274 4.787,13.2274 4.787,2.9832 1.1797,2.9832 "/>
   <rect id="_311038240" class="fil0" x="4.72156" y="0.122483" width="8.51067" height="0.837395"/>
   <rect id="_311038168" class="fil0" x="12.4803" y="0.105393" width="3.11032" height="8.93791"/>
   <polygon id="_311038096" class="fil0" points="14.7631,9.1412 15.5103,13.1637 15.5103,9.0523 "/>
   <polygon id="_311038024" class="fil0" points="10.515,9.1666 11.2544,13.0409 12.3828,13.0409 11.5282,9.1666 "/>
   <line id="_311037952" class="fil1 str0" x1="0.5935" y1="3.0216" x2="4.7805" y2= "3.0216" />
   <line id="_311037880" class="fil1 str0" x1="4.7804" y1="0.1764" x2="4.7804" y2= "13.143" />
   <line id="_311037808" class="fil1 str0" x1="1.1506" y1="3.059" x2="1.1506" y2= "13.143" />
   <line id="_311037736" class="fil1 str0" x1="4.2435" y1="0.1276" x2="16.0355" y2= "0.1276" />
   <rect id="_309680312" class="fil2" x="2.08165" y="5.08449" width="1.74474" height="2.4667" rx="0.8552" ry="0.8552"/>
   <rect id="_310022832" class="fil3" x="2.33782" y="5.34554" width="1.23239" height="1.94461"/>
   <rect id="_310609664" class="fil2" x="2.08165" y="8.63414" width="1.74474" height="2.4667" rx="0.8552" ry="0.8552"/>
   <rect id="_310609472" class="fil3" x="2.33782" y="8.89518" width="1.23239" height="1.94461"/>
   <rect id="_310610264" class="fil2" x="5.97222" y="9.17561" width="1.95249" height="2.4667" rx="0.8552" ry="0.8552"/>
   <rect id="_310610120" class="fil3" x="6.2589" y="9.43665" width="1.37913" height="1.94461"/>
   <rect id="_310609376" class="fil2" x="5.71134" y="11.444" width="2.47422" height="0.296117" rx="0.6142" ry="0.6142"/>
   <rect id="_310609544" class="fil2" x="9.38148" y="5.36526" width="1.95249" height="2.4667" rx="0.8552" ry="0.8552"/>
   <rect id="_310609736" class="fil3" x="9.66816" y="5.6263" width="1.37913" height="1.94461"/>
   <rect id="_310610024" class="fil2" x="9.1206" y="7.63361" width="2.47422" height="0.296117" rx="0.6142" ry="0.6142"/>
   <rect id="_310610336" class="fil2" x="9.38148" y="1.55202" width="1.95249" height="2.4667" rx="0.8552" ry="0.8552"/>
   <rect id="_310609616" class="fil3" x="9.66816" y="1.81306" width="1.37913" height="1.94461"/>
   <rect id="_310029496" class="fil2" x="9.1206" y="3.82036" width="2.47422" height="0.296117" rx="0.6142" ry="0.6142"/>
   <rect id="_310029376" class="fil3" x="6.12572" y="1.81306" width="1.51327" height="2.09362"/>
   <path id="_310029448" class="fil2" d="M5.8603 3.8204l1.7787 0 0 -2.0073 -1.3791 0 0 1.3829c0,0.0935 -0.0085,0.216 -0.146,0.216l0 0c-0.1292,0 -0.1407,-0.1165 -0.1407,-0.2144l0 -0.1979 0 -1.2415c0,-0.1134 0.1038,-0.2062 0.2307,-0.2062l1.4911 0c0.1269,0 0.2307,0.0928 0.2307,0.2062l0 2.0622 0.1128 0c0.0814,0 0.148,0.0666 0.148,0.148l0 0c0,0.0815 -0.0666,0.1481 -0.148,0.1481l-2.1782 0c-0.0814,0 -0.148,-0.0666 -0.148,-0.1481l0 0c0,-0.0814 0.0666,-0.148 0.148,-0.148z"/>
   <polygon id="_310028776" class="fil4" points="9.2812,9.1418 9.5745,9.1418 10.116,9.1418 15.5194,9.1418 15.5194,10.0104 10.116,10.0104 10.116,13.2141 9.2812,13.2141 "/>
   <path id="_310028824" class="fil1 str0" d="M12.4808 0.1764l0 8.0829m0 0.849l0 1.5856m0 0.6417l0 1.8074"/>
   <line id="_310028920" class="fil1 str0" x1="15.5194" y1="0.1764" x2="15.5194" y2= "13.143" />
   <g>
    <path id="_310029112" class="fil5" d="M15.5194 9.2176l0 -0.255 0.0066 0.0002 0.0064 0.0005 0.0064 0.0008 0.0063 0.0011 0.0062 0.0014 0.006 0.0017 0.0059 0.002 0.0058 0.0023 0.0057 0.0026 0.0055 0.0028 0.0053 0.0031 0.0052 0.0033 0.005 0.0035 0.0048 0.0038 0.0046 0.004 0.0045 0.0043 0.0042 0.0044 0.004 0.0046 0.0038 0.0048 0.0035 0.005 0.0033 0.0052 0.0031 0.0053 0.0028 0.0055 0.0026 0.0057 0.0023 0.0058 0.002 0.0059 0.0017 0.006 0.0014 0.0062 0.0011 0.0063 0.0008 0.0064 0.0005 0.0064 0.0002 0.0066 -0.0002 0.0066 -0.0005 0.0064 -0.0008 0.0064 -0.0011 0.0063 -0.0014 0.0062 -0.0017 0.006 -0.002 0.0059 -0.0023 0.0058 -0.0026 0.0057 -0.0028 0.0055 -0.0031 0.0053 -0.0033 0.0052 -0.0035 0.005 -0.0038 0.0048 -0.004 0.0046 -0.0042 0.0044 -0.0045 0.0043 -0.0046 0.004 -0.0048 0.0038 -0.005 0.0035 -0.0052 0.0033 -0.0053 0.0031 -0.0055 0.0028 -0.0057 0.0026 -0.0058 0.0023 -0.0059 0.002 -0.006 0.0017 -0.0062 0.0014 -0.0063 0.0011 -0.0064 0.0008 -0.0064 0.0005 -0.0066 0.0002zm-6.3753 -0.1275l0.1275 -0.1275 6.2478 0 0 0.255 -6.2478 0 -0.1275 -0.1275zm0.1275 -0.1275l0 0.255 -0.0066 -0.0002 -0.0064 -0.0005 -0.0064 -0.0008 -0.0063 -0.0011 -0.0062 -0.0014 -0.006 -0.0017 -0.0059 -0.002 -0.0058 -0.0023 -0.0057 -0.0026 -0.0055 -0.0028 -0.0053 -0.0031 -0.0052 -0.0033 -0.005 -0.0035 -0.0048 -0.0038 -0.0046 -0.004 -0.0045 -0.0043 -0.0042 -0.0044 -0.004 -0.0046 -0.0038 -0.0048 -0.0035 -0.005 -0.0033 -0.0052 -0.0031 -0.0053 -0.0028 -0.0055 -0.0026 -0.0057 -0.0023 -0.0058 -0.002 -0.0059 -0.0017 -0.006 -0.0014 -0.0062 -0.0011 -0.0063 -0.0008 -0.0064 -0.0005 -0.0064 -0.0002 -0.0066 0.0002 -0.0066 0.0005 -0.0064 0.0008 -0.0064 0.0011 -0.0063 0.0014 -0.0062 0.0017 -0.006 0.002 -0.0059 0.0023 -0.0058 0.0026 -0.0057 0.0028 -0.0055 0.0031 -0.0053 0.0033 -0.0052 0.0035 -0.005 0.0038 -0.0048 0.004 -0.0046 0.0042 -0.0044 0.0045 -0.0043 0.0046 -0.004 0.0048 -0.0038 0.005 -0.0035 0.0052 -0.0033 0.0053 -0.0031 0.0055 -0.0028 0.0057 -0.0026 0.0058 -0.0023 0.0059 -0.002 0.006 -0.0017 0.0062 -0.0014 0.0063 -0.0011 0.0064 -0.0008 0.0064 -0.0005 0.0066 -0.0002zm-0.1275 4.1382l0 -4.0107 0.255 0 0 4.0107 -0.255 0zm0 0l0.255 0 -0.0002 0.0066 -0.0005 0.0064 -0.0008 0.0064 -0.0011 0.0063 -0.0014 0.0062 -0.0017 0.006 -0.002 0.0059 -0.0023 0.0058 -0.0026 0.0057 -0.0028 0.0055 -0.0031 0.0053 -0.0033 0.0052 -0.0035 0.005 -0.0038 0.0048 -0.004 0.0046 -0.0042 0.0045 -0.0045 0.0042 -0.0046 0.004 -0.0048 0.0038 -0.005 0.0035 -0.0052 0.0033 -0.0053 0.0031 -0.0055 0.0028 -0.0057 0.0026 -0.0058 0.0023 -0.0059 0.002 -0.006 0.0017 -0.0062 0.0014 -0.0063 0.0011 -0.0064 0.0008 -0.0064 0.0005 -0.0066 0.0002 -0.0066 -0.0002 -0.0064 -0.0005 -0.0064 -0.0008 -0.0063 -0.0011 -0.0062 -0.0014 -0.006 -0.0017 -0.0059 -0.002 -0.0058 -0.0023 -0.0057 -0.0026 -0.0055 -0.0028 -0.0053 -0.0031 -0.0052 -0.0033 -0.005 -0.0035 -0.0048 -0.0038 -0.0046 -0.004 -0.0045 -0.0042 -0.0042 -0.0045 -0.004 -0.0046 -0.0038 -0.0048 -0.0035 -0.005 -0.0033 -0.0052 -0.0031 -0.0053 -0.0028 -0.0055 -0.0026 -0.0057 -0.0023 -0.0058 -0.002 -0.0059 -0.0017 -0.006 -0.0014 -0.0062 -0.0011 -0.0063 -0.0008 -0.0064 -0.0005 -0.0064 -0.0002 -0.0066z"/>
   </g>
   <rect class="fil3" x="6.12767" y="5.60661" width="1.51132" height="2.1552"/>
   <path class="fil2" d="M5.8603 7.6139l1.7787 0 0 -2.0073 -1.3791 0 0 1.3829c0,0.0936 -0.0085,0.216 -0.146,0.216l0 0c-0.1292,0 -0.1407,-0.1164 -0.1407,-0.2143l0 -0.198 0 -1.2415c0,-0.1134 0.1038,-0.2061 0.2307,-0.2061l1.4911 0c0.1269,0 0.2307,0.0927 0.2307,0.2061l0 2.0622 0.1128 0c0.0814,0 0.148,0.0666 0.148,0.1481l0 0c0,0.0814 -0.0666,0.148 -0.148,0.148l-2.1782 0c-0.0814,0 -0.148,-0.0666 -0.148,-0.148l0 0c0,-0.0815 0.0666,-0.1481 0.148,-0.1481z"/>
   <line class="fil1 str0" x1="0.1275" y1="13.1429" x2="16.7157" y2= "13.1429" />
  </g>
 </g>
</svg>
