<?xml version="1.0" encoding="UTF-8" standalone="no"?>
<svg
   xmlns:dc="http://purl.org/dc/elements/1.1/"
   xmlns:cc="http://creativecommons.org/ns#"
   xmlns:rdf="http://www.w3.org/1999/02/22-rdf-syntax-ns#"
   xmlns:svg="http://www.w3.org/2000/svg"
   xmlns="http://www.w3.org/2000/svg"
   xmlns:sodipodi="http://sodipodi.sourceforge.net/DTD/sodipodi-0.dtd"
   xmlns:inkscape="http://www.inkscape.org/namespaces/inkscape"
   inkscape:version="1.0 (4035a4fb49, 2020-05-01)"
   sodipodi:docname="camera_unchecked.svg"
   id="svg16"
   version="1.1"
   viewBox="0 0 292.4 194.1"
   xml:space="preserve"><metadata
   id="metadata20"><rdf:RDF><cc:Work
       rdf:about=""><dc:format>image/svg+xml</dc:format><dc:type
         rdf:resource="http://purl.org/dc/dcmitype/StillImage" /></cc:Work></rdf:RDF></metadata><sodipodi:namedview
   inkscape:current-layer="svg16"
   inkscape:window-maximized="1"
   inkscape:window-y="-6"
   inkscape:window-x="-6"
   inkscape:cy="43.206644"
   inkscape:cx="146.2"
   inkscape:zoom="2.5244718"
   showgrid="false"
   id="namedview18"
   inkscape:window-height="658"
   inkscape:window-width="1280"
   inkscape:pageshadow="2"
   inkscape:pageopacity="0"
   guidetolerance="10"
   gridtolerance="10"
   objecttolerance="10"
   borderopacity="1"
   bordercolor="#666666"
   pagecolor="#ffffff" />
 <defs
   id="defs4">
  <style
   id="style2"
   type="text/css">
   <![CDATA[
    .fil1 {fill:white}
    .fil2 {fill:#3F4446}
    .fil0 {fill:#3F4446;fill-rule:nonzero}
   ]]>
  </style>
 </defs>
 <g
   transform="matrix(14.245625,0,0,14.230006,32.879508,3.1694292)"
   id="Layer_x0020_1">
  <metadata
   id="CorelCorpID_0Corel-Layer" />
  <g
   id="_08.cdr">
   <path
   d="M 2.06,7.6116 C 1.3869,7.473 0.8735,7.0115 0.5271,6.3933 0.12,5.6663 -0.0554,4.7194 0.0151,3.834 0.1074,2.6742 0.7185,1.9381 1.5555,1.4315 2.3735,0.9365 3.4045,0.6665 4.3705,0.4308 5.5656,0.1393 6.8237,0.0025 8.0515,0 c 1.295,-0.0026 2.5569,0.1441 3.6765,0.4158 0.4159,0.101 0.916,0.242 1.4193,0.4338 0.5077,0.1934 1.0217,0.4392 1.4625,0.7488 0.6653,0.4673 1.0319,1.0953 1.1847,1.7887 0.1791,0.8133 0.0616,1.7145 -0.2128,2.5473 -0.1376,0.4178 -0.3361,0.7664 -0.6093,1.0299 -0.2526,0.2436 -0.5667,0.4121 -0.9529,0.4929 -0.0317,0.8731 -0.2636,1.6813 -0.6402,2.3999 -0.4248,0.8106 -1.0332,1.5069 -1.7454,2.0536 C 10.4482,12.821 9.1914,13.2254 7.9354,13.1959 6.6109,13.1648 5.2917,12.6503 4.0616,11.7375 3.332,11.196 2.817,10.5929 2.4914,9.895 h -5e-4 C 2.1797,9.2277 2.0434,8.4763 2.06,7.6116 Z"
   class="fil0"
   id="_309496080" />
   <path
   d="M 2.0609,6.7667 C 2.0391,6.2363 2.378,6.0902 2.7823,5.8942 3.1832,5.6999 4.4969,5.1221 4.8197,5.4331 4.8701,5.4818 4.8985,5.5503 4.9013,5.6253 4.9146,5.9824 4.5254,6.0831 4.2541,6.1325 3.8715,6.2022 3.1787,6.3962 2.6909,6.7012 2.794,8.3787 3.0623,9.7453 4.0557,10.5847 3.8502,9.621 3.895,8.826 4.2971,8.2718 5.0387,7.2498 6.6884,7.3872 7.8066,7.3909 c 1.8882,0.0065 3.4511,0.2932 3.4991,1.8854 -9e-4,0.7128 -0.1041,1.3438 -0.236,1.9519 1.3526,-1.0329 2.2948,-2.3698 2.1021,-4.5473 C 12.7658,6.4315 12.2397,6.3979 11.7903,6.258 11.5677,6.1886 11.3671,6.0806 11.318,5.8677 11.2936,5.762 11.3224,5.6585 11.396,5.5863 11.595,5.391 11.932,5.5359 12.1641,5.5944 12.8514,5.7673 13.9744,6.0597 13.9225,6.6595 14.6061,6.2566 15.1096,5.8243 14.3301,5.2867 11.9098,3.7492 6.24,3.506 2.3398,4.8362 0.6699,5.4798 0.9274,6.1232 2.0609,6.7667 Z"
   class="fil1"
   id="_309496200" />
   <ellipse
   cy="0"
   cx="0"
   ry="1.2903"
   rx="1.7582999"
   transform="matrix(0.250872,0.0189013,0,0.250872,10.1182,5.60701)"
   class="fil2"
   id="_309496104" />
   <path
   d="M 10.5593,10.2328 C 10.8132,8.9204 10.3606,8.1547 9.0158,8.0793 7.9392,8.1064 6.8625,8.1334 5.7858,8.1605 5.1481,8.2073 4.6564,8.4836 4.5684,9.3941 c 0.0058,0.8168 0.1774,1.5056 0.5696,2.024 0.7158,0.9463 2.1502,1.1701 3.2606,1.0418 1.4878,-0.1719 1.9031,-0.8952 2.1607,-2.2271 z"
   class="fil1"
   id="_309750664" />
   <circle
   r="1.10351"
   cy="9.8502398"
   cx="7.11836"
   class="fil2"
   id="_309750568" />
   <circle
   r="0.41687399"
   cy="9.8502598"
   cx="7.1183701"
   class="fil1"
   id="_309750496" />
   <path
   d="M 1.0058,4.8791 C 3.998,2.5665 12.8495,2.9017 14.9695,4.8791 15.0429,4.4022 15.0766,3.9526 15.025,3.5616 14.897,2.5909 13.9862,2.1065 13.1745,1.7363 10.527,0.5291 5.797,0.1653 2.2767,1.9999 1.507,2.4009 0.8269,2.7415 0.8303,3.7274 c 0.0012,0.3409 0.0665,0.73 0.1755,1.1517 z"
   class="fil1"
   id="_309750424" />
  </g>
 </g>
</svg>
