<?xml version="1.0" encoding="UTF-8" standalone="no"?>
<svg
   xmlns:dc="http://purl.org/dc/elements/1.1/"
   xmlns:cc="http://creativecommons.org/ns#"
   xmlns:rdf="http://www.w3.org/1999/02/22-rdf-syntax-ns#"
   xmlns:svg="http://www.w3.org/2000/svg"
   xmlns="http://www.w3.org/2000/svg"
   xmlns:sodipodi="http://sodipodi.sourceforge.net/DTD/sodipodi-0.dtd"
   xmlns:inkscape="http://www.inkscape.org/namespaces/inkscape"
   xml:space="preserve"
   viewBox="0 0 292.4 194.1"
   version="1.1"
   id="svg64"
   sodipodi:docname="duplex_unchecked.svg"
   inkscape:version="1.0 (4035a4fb49, 2020-05-01)"><metadata
   id="metadata68"><rdf:RDF><cc:Work
       rdf:about=""><dc:format>image/svg+xml</dc:format><dc:type
         rdf:resource="http://purl.org/dc/dcmitype/StillImage" /></cc:Work></rdf:RDF></metadata><sodipodi:namedview
   inkscape:document-rotation="0"
   pagecolor="#ffffff"
   bordercolor="#666666"
   borderopacity="1"
   objecttolerance="10"
   gridtolerance="10"
   guidetolerance="10"
   inkscape:pageopacity="0"
   inkscape:pageshadow="2"
   inkscape:window-width="1280"
   inkscape:window-height="658"
   id="namedview66"
   showgrid="false"
   inkscape:zoom="2.5244718"
   inkscape:cx="146.2"
   inkscape:cy="109.55907"
   inkscape:window-x="-6"
   inkscape:window-y="-6"
   inkscape:window-maximized="1"
   inkscape:current-layer="svg64" />
 <defs
   id="defs4">
  <style
   type="text/css"
   id="style2">
   <![CDATA[
    .str1 {stroke:#C9CCCE;stroke-width:1.05829}
    .str3 {stroke:#3F4446;stroke-width:0.259498}
    .str2 {stroke:#3F4446;stroke-width:0.259498;stroke-linecap:round;stroke-linejoin:round}
    .str0 {stroke:#C9CCCE;stroke-width:0.259498}
    .str4 {stroke:#C9CCCE;stroke-width:0.259498;stroke-linecap:round;stroke-linejoin:round}
    .fil2 {fill:none}
    .fil5 {fill:white}
    .fil4 {fill:#3F4446}
    .fil6 {fill:#C9CCCE}
    .fil1 {fill:#D9DBDD}
    .fil3 {fill:#3F4446;fill-rule:nonzero}
    .fil0 {fill:#C9CCCE;fill-rule:nonzero}
   ]]>
  </style>
 </defs>
 <g
   id="Layer_x0020_1"
   transform="matrix(12.89253,0,0,19.495135,1.7148422,4.3393514)">
  <metadata
   id="CorelCorpID_0Corel-Layer" />
  <g
   id="_05.cdr">
   <g
   id="g8">
    <path
   id="_309211640"
   class="fil0"
   d="m 21.3325,3.09587 2e-4,-0.0067 5e-4,-0.0066 8e-4,-0.0064 0.0011,-0.0064 0.0015,-0.0063 0.0017,-0.0062 0.0021,-0.006 0.0023,-0.0059 0.0026,-0.0057 0.0029,-0.0056 0.0031,-0.0054 0.0034,-0.0053 0.0036,-0.0051 0.0039,-0.0049 0.0041,-0.0047 0.0042,-0.0045 0.0046,-0.0043 0.0047,-0.0041 0.0049,-0.0038 0.0051,-0.0036 0.0052,-0.0034 0.0055,-0.0031 0.0056,-0.0029 0.0057,-0.0026 0.0059,-0.0023 0.006,-0.0021 0.0062,-0.0017 0.0063,-0.0015 0.0064,-0.0011 0.0064,-8e-4 0.0066,-5e-4 0.0067,-2e-4 0.0067,2e-4 0.0066,5e-4 0.0064,8e-4 0.0064,0.0011 0.0063,0.0015 0.0062,0.0017 0.006,0.0021 0.0059,0.0023 0.0057,0.0026 0.0056,0.0029 0.0055,0.0031 0.0052,0.0034 0.0051,0.0036 0.0049,0.0038 0.0047,0.0041 0.0046,0.0043 0.0042,0.0045 0.0041,0.0047 0.0039,0.0049 0.0036,0.0051 0.0034,0.0053 0.0031,0.0054 0.0029,0.0056 0.0026,0.0057 0.0023,0.0059 0.0021,0.006 0.0017,0.0062 0.0015,0.0063 0.0011,0.0064 8e-4,0.0064 5e-4,0.0066 2e-4,0.0067 z M 21.462299,9.56341 21.3325,9.433711 v -6.33784 h 0.259598 v 6.33784 z m 0.129799,-0.129699 -2e-4,0.0067 -5e-4,0.0066 -8e-4,0.0064 -0.0011,0.0064 -0.0015,0.0063 -0.0017,0.0062 -0.0021,0.006 -0.0023,0.0059 -0.0026,0.0057 -0.0029,0.0056 -0.0031,0.0054 -0.0034,0.0053 -0.0036,0.0051 -0.0039,0.0049 -0.0041,0.0047 -0.0042,0.0045 -0.0046,0.0043 -0.0047,0.0041 -0.0049,0.0038 -0.0051,0.0036 -0.0052,0.0034 -0.0055,0.0031 -0.0056,0.0029 -0.0057,0.0026 -0.0059,0.0023 -0.006,0.0021 -0.0062,0.0017 -0.0063,0.0015 -0.0064,0.0011 -0.0064,8e-4 -0.0066,5e-4 -0.0067,2e-4 -0.0067,-2e-4 -0.0066,-5e-4 -0.0064,-8e-4 -0.0064,-0.0011 -0.0063,-0.0015 -0.0062,-0.0017 -0.006,-0.0021 -0.0059,-0.0023 -0.0057,-0.0026 -0.0056,-0.0029 -0.0055,-0.0031 -0.0052,-0.0034 -0.0051,-0.0036 -0.0049,-0.0038 -0.0047,-0.0041 -0.0046,-0.0043 -0.0042,-0.0045 -0.0041,-0.0047 -0.0039,-0.0049 -0.0036,-0.0051 -0.0034,-0.0053 -0.0031,-0.0054 -0.0029,-0.0056 -0.0026,-0.0057 -0.0023,-0.0059 -0.0021,-0.006 -0.0017,-0.0062 -0.0015,-0.0063 -0.0011,-0.0064 -8e-4,-0.0064 -5e-4,-0.0066 -2e-4,-0.0067 z m -6.68574,0 0.129799,-0.129699 h 6.42614 V 9.56341 h -6.42614 z m 0.129799,0.129699 -0.0067,-2e-4 -0.0066,-5e-4 -0.0064,-8e-4 -0.0064,-0.0011 -0.0063,-0.0015 -0.0062,-0.0017 -0.006,-0.0021 -0.0059,-0.0023 -0.0057,-0.0026 -0.0056,-0.0029 -0.0055,-0.0031 -0.0052,-0.0034 -0.0051,-0.0036 -0.0049,-0.0038 -0.0047,-0.0041 -0.0046,-0.0043 -0.0042,-0.0045 -0.0041,-0.0047 -0.0039,-0.0049 -0.0036,-0.0051 -0.0034,-0.0053 -0.0031,-0.0054 -0.0029,-0.0056 -0.0026,-0.0057 -0.0023,-0.0059 -0.0021,-0.006 -0.0017,-0.0062 -0.0015,-0.0063 -0.0011,-0.0064 -8e-4,-0.0064 -5e-4,-0.0066 -2e-4,-0.0067 2e-4,-0.0067 5e-4,-0.0066 8e-4,-0.0064 0.0011,-0.0064 0.0015,-0.0063 0.0017,-0.0062 0.0021,-0.006 0.0023,-0.0059 0.0026,-0.0057 0.0029,-0.0056 0.0031,-0.0054 0.0034,-0.0053 0.0036,-0.0051 0.0039,-0.0049 0.0041,-0.0047 0.0042,-0.0045 0.0046,-0.0043 0.0047,-0.0041 0.0049,-0.0038 0.0051,-0.0036 0.0052,-0.0034 0.0055,-0.0031 0.0056,-0.0029 0.0057,-0.0026 0.0059,-0.0023 0.006,-0.0021 0.0062,-0.0017 0.0063,-0.0015 0.0064,-0.0011 0.0064,-8e-4 0.0066,-5e-4 0.0067,-2e-4 z M 14.906358,3.09587 h 0.259598 v 6.33784 h -0.259598 z m 0,0 2e-4,-0.0067 5e-4,-0.0066 8e-4,-0.0064 0.0011,-0.0064 0.0015,-0.0063 0.0017,-0.0062 0.0021,-0.006 0.0023,-0.0059 0.0026,-0.0057 0.0029,-0.0056 0.0031,-0.0054 0.0034,-0.0053 0.0036,-0.0051 0.0039,-0.0049 0.0041,-0.0047 0.0042,-0.0045 0.0046,-0.0043 0.0047,-0.0041 0.0049,-0.0038 0.0051,-0.0036 0.0052,-0.0034 0.0055,-0.0031 0.0056,-0.0029 0.0057,-0.0026 0.0059,-0.0023 0.006,-0.0021 0.0062,-0.0017 0.0063,-0.0015 0.0064,-0.0011 0.0064,-8e-4 0.0066,-5e-4 0.0067,-2e-4 0.0067,2e-4 0.0066,5e-4 0.0064,8e-4 0.0064,0.0011 0.0063,0.0015 0.0062,0.0017 0.006,0.0021 0.0059,0.0023 0.0057,0.0026 0.0056,0.0029 0.0055,0.0031 0.0052,0.0034 0.0051,0.0036 0.0049,0.0038 0.0047,0.0041 0.0046,0.0043 0.0042,0.0045 0.0041,0.0047 0.0039,0.0049 0.0036,0.0051 0.0034,0.0053 0.0031,0.0054 0.0029,0.0056 0.0026,0.0057 0.0023,0.0059 0.0021,0.006 0.0017,0.0062 0.0015,0.0063 0.0011,0.0064 8e-4,0.0064 5e-4,0.0066 2e-4,0.0067 z" />
   </g>
   <polygon
   class="fil1"
   points="14.6564,3.36367 17.1663,1.00519 11.2537,1.00519 11.2537,3.36367 "
   id="polygon10" />
   <polygon
   class="fil2 str0"
   points="14.6564,3.36367 17.1663,1.00519 11.2537,1.00519 11.2537,3.36367 "
   id="polygon12" />
   <polygon
   class="fil1"
   points="0.989691,3.08397 0.989691,3.73727 4.30806,0.767393 7.46603,3.69187 7.46603,3.03547 4.31176,0.122499 "
   id="polygon14" />
   <g
   id="g18">
    <path
   class="fil3"
   d="M 1.00599,9.56351 0.876191,9.433711 v -6.33784 h 0.259598 v 6.33784 z m 0,0 H 0.876191 V 9.433711 Z M 7.56183,9.433711 7.432031,9.56351 H 1.005991 V 9.303912 h 6.42604 z m 0,0 V 9.56351 H 7.432031 Z m 0,-6.40134 v 6.40134 H 7.302232 v -6.40134 z"
   id="path16" />
   </g>
   <line
   class="fil2 str1"
   x1="14.9302"
   y1="8.1739302"
   x2="11.2341"
   y2="8.1739302"
   id="line20" />
   <path
   class="fil3"
   d="m 8.27013,3.62247 c 0.0523,0.0484 0.055499,0.130099 0.0071,0.182398 -0.0484,0.0523 -0.130199,0.0555 -0.182498,0.0071 L 4.3066619,0.30389794 0.38520194,3.8134679 c -0.0531995,0.0476 -0.134899,0.043 -0.182498,-0.0101 C 0.15520434,3.7501685 0.15970434,3.668469 0.21280384,3.62087 L 4.2219638,0.03290004 v 1e-4 c 0.049,-0.0439996 0.124499,-0.0441996 0.173798,0.0015 L 8.2701318,3.62247 Z"
   id="path22" />
   <polygon
   class="fil1"
   points="7.81183,3.36367 5.30195,1.00519 11.2145,1.00519 11.2145,3.36367 "
   id="polygon24" />
   <circle
   class="fil4"
   cx="4.3165002"
   cy="3.48489"
   r="1.2207"
   id="circle26" />
   <path
   class="fil3"
   d="m 5.30195,0.875392 h 5.91255 0.129799 V 1.005191 3.363671 3.49347 H 11.2145 l -2.73268,0.0099 c -0.148099,5e-4 -0.184998,-0.200798 -0.0555,-0.259298 0.0197,-0.0089 0.0333,-0.0119 0.0555,-0.0119 h 0.0097 l 2.59328,0.0018 V 1.134892 H 5.6290499 l 2.12218,1.99428 0.372597,0.361497 -0.311997,0.0028 h -0.050899 l -0.0378,-0.0355 -2.50988,-2.35858 -0.238398,-0.22399804 z"
   id="path28" />
   <path
   class="fil5"
   d="m 4.48566,2.60628 c 0.413196,0.079099 0.725594,0.442396 0.725594,0.878592 0,0.436296 -0.312397,0.799593 -0.725594,0.878692 V 2.606284 Z M 4.147363,4.36356 C 3.734167,4.2844607 3.421769,3.921164 3.421769,3.484868 c 0,-0.436196 0.312397,-0.799493 0.725594,-0.878592 v 1.75728 z"
   id="path30" />
   <rect
   class="fil4"
   x="8.3386002"
   y="4.20474"
   width="1.85809"
   height="2.90203"
   rx="1.11429"
   ry="1.11429"
   id="rect32" />
   <path
   class="fil5"
   d="M 8.65862,4.51236 H 9.90111 V 6.80444 H 8.65862 V 5.73685 h 0.880592 c 0.099499,0 0.180998,-0.081499 0.180998,-0.180998 v 0 c 0,-0.099499 -0.081499,-0.180898 -0.180998,-0.180898 H 8.65862 V 4.512362 Z"
   id="path34" />
   <polyline
   class="fil2 str2"
   points="7.43353,9.43372 11.2341,9.43372 11.2341,1.01569 "
   id="polyline36" />
   <line
   class="fil2 str3"
   x1="7.5380301"
   y1="8.1739302"
   x2="11.2341"
   y2="8.1739302"
   id="line38" />
   <path
   class="fil4"
   d="m 3.64287,6.26884 h 1.39079 c 0.193698,0 0.351997,0.158399 0.351997,0.351997 v 2.82877 h -2.10038 v -2.82307 c 0,-0.196798 0.160899,-0.357697 0.357597,-0.357697 z"
   id="path40" />
   <rect
   class="fil5"
   x="3.62989"
   y="6.5947499"
   width="1.4111201"
   height="2.6136601"
   id="rect42" />
   <polyline
   class="fil2 str4"
   points="14.2859,3.71717 18.1601,0.129199 22.1692,3.71717 "
   id="polyline44" />
   <rect
   class="fil6"
   x="12.2716"
   y="4.20474"
   width="1.85809"
   height="2.90203"
   rx="1.11429"
   ry="1.11429"
   id="rect46" />
   <path
   class="fil1"
   d="M 13.8097,4.51236 H 12.56711 V 6.19844 H 13.8097 Z M 12.56711,6.45824 V 6.804437 H 13.8097 V 6.45824 Z"
   id="path48" />
   <path
   class="fil6"
   d="m 18.8253,6.26884 h -1.39079 c -0.193598,0 -0.351997,0.158399 -0.351997,0.351997 v 2.82877 h 2.10048 v -2.82307 c 0,-0.196798 -0.160999,-0.357697 -0.357697,-0.357697 z"
   id="path50" />
   <rect
   class="fil1"
   x="17.4272"
   y="6.5947499"
   width="1.4111201"
   height="2.6136601"
   id="rect52" />
   <circle
   class="fil6"
   cx="18.1518"
   cy="3.48489"
   r="1.2207"
   id="circle54" />
   <path
   class="fil1"
   d="m 17.9826,2.60628 c -0.413296,0.079099 -0.725594,0.442396 -0.725594,0.878592 0,0.436296 0.312297,0.799593 0.725594,0.878692 v -1.75728 z m 0.338197,1.75728 c 0.413196,-0.079099 0.725594,-0.442396 0.725594,-0.878692 0,-0.436196 -0.312397,-0.799493 -0.725594,-0.878592 v 1.75728 z"
   id="path56" />
   <line
   class="fil2 str2"
   x1="0.12969901"
   y1="9.4495201"
   x2="11.1943"
   y2="9.4495201"
   id="line58" />
   <line
   class="fil2 str4"
   x1="11.1448"
   y1="9.4495201"
   x2="22.209299"
   y2="9.4495201"
   id="line60" />
  </g>
 </g>
</svg>
