<?xml version="1.0" encoding="UTF-8" standalone="no"?>
<svg
   xmlns:dc="http://purl.org/dc/elements/1.1/"
   xmlns:cc="http://creativecommons.org/ns#"
   xmlns:rdf="http://www.w3.org/1999/02/22-rdf-syntax-ns#"
   xmlns:svg="http://www.w3.org/2000/svg"
   xmlns="http://www.w3.org/2000/svg"
   xmlns:sodipodi="http://sodipodi.sourceforge.net/DTD/sodipodi-0.dtd"
   xmlns:inkscape="http://www.inkscape.org/namespaces/inkscape"
   inkscape:version="1.0 (4035a4fb49, 2020-05-01)"
   sodipodi:docname="kidslives_checked.svg"
   id="svg42"
   version="1.1"
   viewBox="0 0 292.4 194.1"
   xml:space="preserve"><metadata
   id="metadata46"><rdf:RDF><cc:Work
       rdf:about=""><dc:format>image/svg+xml</dc:format><dc:type
         rdf:resource="http://purl.org/dc/dcmitype/StillImage" /></cc:Work></rdf:RDF></metadata><sodipodi:namedview
   inkscape:current-layer="svg42"
   inkscape:window-maximized="1"
   inkscape:window-y="-6"
   inkscape:window-x="-6"
   inkscape:cy="92.155152"
   inkscape:cx="146.2"
   inkscape:zoom="2.5244718"
   showgrid="false"
   id="namedview44"
   inkscape:window-height="658"
   inkscape:window-width="1280"
   inkscape:pageshadow="2"
   inkscape:pageopacity="0"
   guidetolerance="10"
   gridtolerance="10"
   objecttolerance="10"
   borderopacity="1"
   bordercolor="#666666"
   pagecolor="#ffffff" />
 <defs
   id="defs4">
  <style
   id="style2"
   type="text/css">
   <![CDATA[
    .str0 {stroke:#3F4446;stroke-width:0.230658;stroke-linecap:round;stroke-linejoin:round}
    .fil0 {fill:none}
    .fil3 {fill:#15202A}
    .fil5 {fill:white}
    .fil4 {fill:#3F4446}
    .fil2 {fill:#00ACEE}
    .fil1 {fill:#3F4446;fill-rule:nonzero}
   ]]>
  </style>
 </defs>
 <g
   transform="matrix(15.164598,0,0,15.164598,87.543075,3.5651022)"
   id="Layer_x0020_1">
  <metadata
   id="CorelCorpID_0Corel-Layer" />
  <g
   id="_14.cdr">
   <line
   y2="10.434"
   x2="0.85311103"
   y1="6.2167301"
   x1="0.231152"
   class="fil0 str0"
   id="_310772496" />
   <path
   d="m 0.940089,10.9281 c 0.0303732,0.282036 0.0752426,0.566144 0.121394,0.852125 1.20891,0.819878 5.73451,0.569102 5.84032,-0.04152 C 7.183248,9.8934384 7.395465,8.0481684 7.676812,6.2029084"
   class="fil0 str0"
   id="_310772424" />
   <path
   d="m 1.00448,7.20297 c 0.104827,0.025442 0.209752,0.049307 0.315072,0.071495 m 0.316256,0.061732 c 1.37981,0.248212 2.7967,0.228686 4.23548,0.0498"
   class="fil0 str0"
   id="_310772352" />
   <g
   id="g11">
    <path
   d="M 0.23056,5.99012 H 0 v 0 L 0.0076919,5.919216 0.0291898,5.851172 0.0621269,5.787862 0.1053199,5.729778 0.157684,5.675639 0.2174442,5.624655 0.2848963,5.576827 0.3599417,5.530873 0.4421859,5.486793 0.5318262,5.444783 0.6282708,5.404844 0.7321118,5.365497 0.8421648,5.328418 0.9592198,5.292621 1.0824878,5.258303 1.2121658,5.22576 1.3475628,5.194302 1.4890738,5.164816 1.6357128,5.1375 l 0.15226,-0.026231 0.157388,-0.024555 0.162319,-0.022188 0.16725,-0.020808 0.171687,-0.018441 0.175435,-0.01706 0.179576,-0.014496 0.183718,-0.012425 0.186972,-0.010355 0.190227,-0.00809 0.193284,-0.00592 0.196045,-0.00355 0.198707,-0.00158 v 0.23056 L 3.7546348,5.18315 3.5611538,5.1867 3.3706308,5.19262 3.1831658,5.20071 2.9989548,5.211065 2.8187868,5.22349 2.6419718,5.237986 2.4691008,5.25406 2.3009638,5.272501 2.1374618,5.29252 1.9786928,5.314708 1.8248548,5.338277 1.6763418,5.363522 1.5332528,5.390838 1.3962778,5.419535 1.2654168,5.449218 1.1410648,5.480774 1.0231218,5.513317 0.9123778,5.547339 0.8086358,5.582643 0.7128815,5.618243 0.6247205,5.655618 0.5449417,5.693091 0.4735451,5.73086 0.4111223,5.768728 0.3580679,5.806694 0.3144804,5.84328 0.2810502,5.878485 0.2567911,5.911323 0.2410128,5.940316 l -0.008086,0.02564 -0.002367,0.02416 z m 3.72002,0.807748 v 0.23056 0 L 3.751873,7.0268502 3.555828,7.0233001 3.362544,7.0173832 3.172317,7.0092968 2.985345,6.9989423 2.801627,6.986517 2.622051,6.9720206 2.446616,6.9549604 2.274929,6.9365196 2.107679,6.915712 1.94536,6.8935238 1.787972,6.8689689 1.635712,6.8427375 1.489073,6.8153228 1.347562,6.7859358 1.212165,6.7544779 1.082487,6.7219352 0.959219,6.6875189 0.842164,6.6518206 0.732111,6.6147417 0.62827,6.5753947 0.5318254,6.535456 0.4421851,6.4933478 0.3599409,6.4493659 0.2848955,6.4034117 0.2174434,6.3555838 0.1576832,6.3046003 0.1053191,6.2504611 0.0621261,6.1923774 0.029189,6.1290671 0.0076911,6.0610233 -8e-7,5.9901197 h 0.23056 l 0.002367,0.02416 0.008086,0.02564 0.0157783,0.028993 0.0242591,0.032839 0.0334302,0.035205 0.0435875,0.036586 0.0530544,0.037966 0.0624228,0.037868 0.0713966,0.037671 0.0797788,0.037572 0.088161,0.037375 0.0957543,0.0356 0.103742,0.035304 0.110744,0.033923 0.117943,0.032641 0.124352,0.031557 0.130861,0.029683 0.136975,0.028598 0.143089,0.027415 0.148513,0.025245 0.153838,0.023569 0.158769,0.022188 0.163502,0.020019 0.168137,0.018441 0.172871,0.016074 0.176815,0.014496 0.180168,0.012425 0.184211,0.010355 0.187465,0.00809 0.190523,0.00592 0.193481,0.00355 0.195946,7.889e-4 z M 7.6706,5.99012 h 0.23056 v 0 L 7.89347,6.061024 7.871972,6.129068 7.839035,6.192378 7.795842,6.250462 7.743478,6.304601 7.683718,6.355585 7.616266,6.403413 7.541221,6.449367 7.458977,6.493349 7.369337,6.535457 7.272892,6.575396 7.169051,6.614743 7.058998,6.651822 6.941943,6.68752 6.818675,6.721936 6.688997,6.754479 6.5536,6.785937 6.412089,6.815324 6.26545,6.842739 6.11319,6.86897 5.955802,6.893525 5.793483,6.915713 5.626233,6.936521 5.454546,6.954962 5.279111,6.972022 5.099535,6.986518 4.915817,6.998943 4.728845,7.009298 4.538618,7.017388 4.345334,7.023308 4.149289,7.026858 3.950582,7.028438 V 6.797878 L 4.146528,6.797089 4.340009,6.793539 4.530532,6.787619 4.717997,6.779529 4.902208,6.769174 5.082376,6.756749 5.259191,6.742253 5.432062,6.726179 5.600199,6.707738 5.763701,6.687719 5.92247,6.665531 6.076308,6.641962 6.224821,6.616717 6.36791,6.589302 6.504885,6.560704 6.635746,6.531021 6.760098,6.499464 6.878041,6.466823 6.988785,6.4329 7.092527,6.397596 7.188281,6.361996 7.276442,6.324621 7.356221,6.287049 7.427618,6.249378 7.490041,6.21151 7.543095,6.173544 7.586683,6.136958 7.620113,6.101753 7.644372,6.068914 7.66015,6.039921 7.66824,6.014281 7.67061,5.990121 Z M 3.95058,5.182372 v -0.23056 0 l 0.198707,0.00158 0.196045,0.00355 0.193284,0.00592 0.190227,0.00809 0.186972,0.010355 0.183718,0.012425 0.179576,0.014496 0.175435,0.01706 0.171687,0.018441 0.16725,0.020808 0.162319,0.022188 0.157388,0.024555 0.15226,0.026231 0.146639,0.027316 0.141511,0.029486 0.135397,0.031458 0.129678,0.032543 0.123268,0.034318 0.117055,0.035797 0.110053,0.037079 0.103841,0.039347 0.096445,0.039939 0.08964,0.04201 0.082244,0.04408 0.075045,0.045954 0.067452,0.047828 0.05976,0.050983 0.052364,0.054139 0.043193,0.058084 0.032937,0.06331 0.021498,0.068044 0.00769,0.070904 H 7.670598 L 7.668228,5.96597 7.660138,5.94033 7.6443694,5.9113275 7.6201103,5.878489 7.5866801,5.8432838 7.5430926,5.806698 7.4900382,5.7687316 7.4276154,5.7308638 7.3562188,5.6930946 7.27644,5.6556212 7.188279,5.6182464 7.0925247,5.5826467 6.9887827,5.5473428 6.8780387,5.5133209 6.7600957,5.4807782 6.6357437,5.4492217 6.5048827,5.4195388 6.3679077,5.3908421 6.2248187,5.363526 6.0763057,5.3382808 5.9224677,5.314712 5.7636987,5.2925238 5.6001967,5.2725051 5.4320597,5.2540643 5.2591887,5.2379902 5.0823737,5.2234939 4.9022057,5.2110685 4.7179947,5.200714 4.5305297,5.192624 4.3400067,5.186704 4.1465257,5.183154 3.9505797,5.1823651 Z"
   class="fil1"
   id="_310772280" />
   </g>
   <path
   id="path13"
   d="M 3.29795,6.80467 V 4.25155 c 0,-0.401951 -0.32878,-0.730731 -0.730731,-0.730731 H 1.944471 c -0.365365,0 -0.664265,0.298899 -0.664265,0.664265 v 2.3484 c 0.668801,0.15226 1.34135,0.233518 2.01774,0.271189 z"
   class="fil2" />
   <g
   id="_310772040">
    <path
   d="m 2.25471,3.71184 h 0.129776 c 0.351658,0 0.639513,0.257777 0.639513,0.572948 v 2.50145 C 2.543156,6.7482716 2.064385,6.6956116 1.587389,6.599463 v -1.80434 c 0.061437,0.034515 0.132143,0.054336 0.207583,0.054336 0.233913,0 0.423548,-0.189635 0.423548,-0.423548 0,-0.233814 -0.189635,-0.423449 -0.423548,-0.423449 -0.043094,0 -0.08471,0.00641 -0.123958,0.018441 C 1.785111,3.836988 2.004428,3.711846 2.254711,3.711846 Z"
   class="fil3"
   id="_310772136" />
    <path
   d="m 1.74517,4.25984 c 0.105517,0 0.191016,0.085499 0.191016,0.191016 0,0.105419 -0.085498,0.190917 -0.191016,0.190917 -0.105419,0 -0.191016,-0.085498 -0.191016,-0.190917 0,-0.105517 0.085597,-0.191016 0.191016,-0.191016 z"
   class="fil3"
   id="_310772064" />
   </g>
   <path
   id="path18"
   d="M 4.64413,4.2198 4.158554,6.82114 C 4.46978,6.81572 4.781795,6.797966 5.094599,6.76779 l 0.57068,-2.87943 -1.02115,0.331442 z"
   class="fil2" />
   <polygon
   id="polygon20"
   points="4.97558,4.30046 4.46495,6.79067 4.84117,6.77272 5.27112,4.25569 "
   class="fil3" />
   <path
   id="path22"
   d="M 5.63629,6.7031 6.69541,3.71815 7.77928,3.368859 6.67628,6.524609 C 6.331229,6.6083324 5.986869,6.66119 5.6363,6.703101 Z"
   class="fil2" />
   <path
   id="path24"
   d="M 5.96783,6.66119 6.955155,3.87948 7.322394,3.906303 6.351834,6.595613 C 6.224622,6.6213513 6.094747,6.6395949 5.967831,6.6611914 Z"
   class="fil3" />
   <rect
   id="rect26"
   height="3.0973101"
   width="0.88850403"
   y="0.44842601"
   x="1.795"
   class="fil2" />
   <rect
   id="rect28"
   height="2.0510299"
   width="0.37367001"
   y="1.33691"
   x="2.03581"
   class="fil3" />
   <path
   id="path30"
   d="m 1.38809,0 h 0.772247 c 0.287756,0 0.523148,0.193678 0.523148,0.481336 v 0.365661 c 0,0.356194 -0.291503,0.647698 -0.647698,0.647698 H 1.388089 C 0.971148,1.162957 0.97391,0.303835 1.388089,5e-6 Z"
   class="fil4" />
   <path
   id="path32"
   d="m 1.46284,1.1459 c 0.052857,0 0.105714,0 0.15867,0 C 1.529503,0.749668 1.669535,0.567923 1.791422,0.601155 1.93885,0.6413896 1.931257,0.863962 1.918634,0.980228 1.909064,1.0673043 1.886387,1.149844 1.853154,1.228933 2.425806,1.210196 2.527083,0.469801 2.09397,0.315569 c -0.171884,0 -0.34367,0 -0.515456,0 C 1.4241832,0.3748361 1.4319732,0.738624 1.46284,1.1459 Z"
   class="fil5" />
   <g
   id="_310771296">
    <path
   d="M 5.66647,3.82445 5.904525,2.40529 C 5.9642852,2.049293 5.721793,1.709074 5.365796,1.649413 L 4.52728,1.508691 C 4.4585459,1.4971531 4.392869,1.5439949 4.381331,1.612729 L 3.969814,4.065559 C 3.956402,4.145436 4.010838,4.221862 4.090715,4.235274 L 4.899548,4.370967 C 5.260772,4.4315161 5.605822,4.185572 5.66647,3.824447 Z"
   class="fil4"
   id="_310771392" />
    <path
   d="M 5.40534,3.62358 5.581268,2.47463 C 5.6254471,2.186479 5.5179577,1.91105 5.254855,1.862631 L 4.635164,1.74883 C 4.584378,1.73946 4.535564,1.777329 4.52728,1.833046 L 4.492666,2.065874 c 0.013609,-0.00197 0.027612,-0.00227 0.041911,-5.917e-4 l 0.382721,0.044869 c 0.09536,0.011242 0.164981,0.105912 0.154824,0.210344 v 0 C 5.061866,2.4250263 4.97548,2.5012553 4.88012,2.4901113 L 4.4973,2.4450443 c -0.020808,-0.00247 -0.040432,-0.00888 -0.058281,-0.01854 l -0.045165,0.303337 c 0.021794,-0.0072 0.045067,-0.00996 0.06903,-0.0071 l 0.382721,0.044968 c 0.09536,0.011143 0.16508,0.105813 0.154824,0.210245 v 0 C 4.990173,3.0824853 4.903787,3.1588123 4.808526,3.1475703 L 4.425706,3.1026023 C 4.395037,3.0989523 4.367031,3.0867253 4.34356,3.0683833 l -0.043982,0.295547 c 0.017849,-0.00434 0.036684,-0.00562 0.055816,-0.00335 l 0.382721,0.044968 c 0.09536,0.011242 0.16508,0.105813 0.154824,0.210245 v 9.86e-5 c -0.010256,0.104432 -0.096642,0.18076 -0.191903,0.169518 l -0.38282,-0.044968 c -0.025837,-0.00306 -0.0498,-0.012228 -0.070805,-0.026034 l -0.024259,0.163305 c -0.00957,0.064691 0.030274,0.126522 0.089344,0.137369 l 0.597799,0.109856 c 0.266948,0.049011 0.450272,-0.208963 0.495043,-0.501354 z"
   class="fil5"
   id="_310771320" />
   </g>
   <g
   id="_311041264">
    <path
   d="M 7.74535,3.46471 8.173434,2.09102 C 8.280825,1.746364 8.0866536,1.376462 7.741997,1.269071 L 6.930304,1.016126 C 6.86374,0.995417 6.792244,1.03289 6.771535,1.099455 L 6.031633,3.473885 C 6.007571,3.551297 6.051159,3.63433 6.128472,3.658392 L 6.911468,3.902363 C 7.261154,4.011332 7.636381,3.814399 7.745349,3.464713 Z"
   class="fil4"
   id="_310771224" />
    <path
   d="M 7.51775,3.24874 7.834104,2.13558 C 7.9134884,1.856305 7.841007,1.567267 7.586385,1.480289 L 6.986417,1.27527 C 6.937307,1.258506 6.884154,1.28878 6.869165,1.342821 L 6.806052,1.568549 c 0.013707,0 0.027711,0.00187 0.041615,0.00562 L 7.221316,1.675643 C 7.314408,1.700888 7.371703,1.805025 7.348725,1.90709 v 9.86e-5 c -0.023076,0.102066 -0.11814,0.164883 -0.211133,0.139539 L 6.763844,1.9453526 C 6.743431,1.9397326 6.724793,1.9304616 6.708324,1.9182336 L 6.62608,2.2123006 c 0.022484,-0.00394 0.045954,-0.00316 0.069227,0.00325 l 0.373748,0.101375 c 0.093092,0.025245 0.150387,0.12948 0.127311,0.231546 v 0 C 7.173389,2.6505376 7.078325,2.7133546 6.985233,2.6881096 L 6.611485,2.5866356 C 6.581605,2.5785456 6.555374,2.5622776 6.534369,2.5404846 l -0.080075,0.286573 c 0.018244,-0.00158 0.03698,-9.86e-5 0.055717,0.00503 l 0.373649,0.101375 c 0.093092,0.025344 0.150387,0.12948 0.127409,0.231546 v 0 c -0.023076,0.102066 -0.11814,0.164981 -0.211133,0.139638 L 6.426188,3.2031726 C 6.400943,3.1963726 6.37836,3.1836466 6.359328,3.1668826 L 6.31505,3.3252566 c -0.017553,0.062719 0.014398,0.129973 0.071594,0.149499 l 0.578668,0.197623 c 0.258369,0.08826 0.471967,-0.140229 0.552436,-0.423646 z"
   class="fil5"
   id="_311041624" />
   </g>
  </g>
 </g>
</svg>
