<?xml version="1.0" encoding="UTF-8" standalone="no"?>
<svg
   xmlns:dc="http://purl.org/dc/elements/1.1/"
   xmlns:cc="http://creativecommons.org/ns#"
   xmlns:rdf="http://www.w3.org/1999/02/22-rdf-syntax-ns#"
   xmlns:svg="http://www.w3.org/2000/svg"
   xmlns="http://www.w3.org/2000/svg"
   xmlns:sodipodi="http://sodipodi.sourceforge.net/DTD/sodipodi-0.dtd"
   xmlns:inkscape="http://www.inkscape.org/namespaces/inkscape"
   inkscape:version="1.0 (4035a4fb49, 2020-05-01)"
   sodipodi:docname="patnerlives_checked.svg"
   id="svg45"
   version="1.1"
   viewBox="0 0 292.4 194.1"
   xml:space="preserve"><metadata
   id="metadata49"><rdf:RDF><cc:Work
       rdf:about=""><dc:format>image/svg+xml</dc:format><dc:type
         rdf:resource="http://purl.org/dc/dcmitype/StillImage" /></cc:Work></rdf:RDF></metadata><sodipodi:namedview
   inkscape:current-layer="svg45"
   inkscape:window-maximized="1"
   inkscape:window-y="-6"
   inkscape:window-x="-6"
   inkscape:cy="42.118899"
   inkscape:cx="146.2"
   inkscape:zoom="2.5244718"
   showgrid="false"
   id="namedview47"
   inkscape:window-height="658"
   inkscape:window-width="1280"
   inkscape:pageshadow="2"
   inkscape:pageopacity="0"
   guidetolerance="10"
   gridtolerance="10"
   objecttolerance="10"
   borderopacity="1"
   bordercolor="#666666"
   pagecolor="#ffffff" />
 <defs
   id="defs4">
  <style
   id="style2"
   type="text/css">
   <![CDATA[
    .str0 {stroke:#3F4446;stroke-width:0.2401;stroke-linecap:round;stroke-linejoin:round}
    .fil0 {fill:none}
    .fil4 {fill:#15202A}
    .fil2 {fill:white}
    .fil5 {fill:#3F4446}
    .fil3 {fill:#00ACEE}
    .fil1 {fill:#3F4446;fill-rule:nonzero}
   ]]>
  </style>
 </defs>
 <g
   transform="matrix(14.909932,0,0,14.909932,100.61511,2.3982516)"
   id="Layer_x0020_1">
  <metadata
   id="CorelCorpID_0Corel-Layer" />
  <g
   id="_21.cdr">
   <path
   d="M 5.9733,6.9294 C 5.8916,7.6591 5.8099,8.3049 5.7281,9.0345 M 5.6768,9.4921 c -0.1013,0.9041 -0.2025,1.8082 -0.3039,2.7123 -1.0315,0.5386 -3.2454,0.6122 -4.4804,0 C 0.7109,10.4626 0.5293,8.7208 0.3477,6.9791"
   class="fil0 str0"
   id="_312591688" />
   <g
   id="g9">
    <path
   d="M 0.2396,6.6066 H 0 v 0 L 0.0063,6.5432 0.0241,6.4822 0.0519,6.4251 0.0875,6.3728 0.1303,6.3241 0.1798,6.2784 0.235,6.2358 0.2961,6.1954 0.3631,6.1565 0.4353,6.1199 0.5128,6.0843 0.5962,6.0506 0.6846,6.018 0.7782,5.9866 0.877,5.9568 0.9806,5.9288 1.0885,5.9014 1.2016,5.8761 1.3184,5.852 1.4399,5.8293 1.5652,5.8086 1.6948,5.789 1.8278,5.771 1.9639,5.7551 2.1039,5.7408 2.247,5.7278 2.3927,5.7171 2.5417,5.7083 2.6928,5.7013 2.8468,5.6962 3.0026,5.6931 3.1605,5.6916 V 5.9318 L 3.0054,5.9323 2.8524,5.9354 2.7022,5.9405 2.5539,5.9475 2.4087,5.9563 2.2658,5.967 2.1263,5.979 1.9901,5.9933 1.8568,6.0092 1.7276,6.0264 1.6026,6.045 1.4811,6.0657 1.3642,6.0874 1.2512,6.1105 1.1437,6.135 1.0404,6.1604 0.9426,6.1876 0.8502,6.2154 0.7632,6.244 0.6822,6.2738 0.6074,6.3047 0.5383,6.3357 0.4763,6.3675 0.4215,6.399 0.3736,6.4308 0.3332,6.4622 0.3007,6.4919 0.2757,6.52 0.2577,6.5461 0.2469,6.5684 0.2413,6.5882 Z m 2.9209,0.6748 v 0.2402 0 L 3.0026,7.5201 2.8468,7.517 2.6928,7.5119 2.5417,7.505 2.3927,7.4961 2.247,7.4854 2.1039,7.4724 1.9639,7.4581 1.8278,7.4422 1.6948,7.4243 1.5652,7.4046 1.4399,7.3839 1.3188,7.3613 1.2016,7.3372 1.0885,7.3118 0.9806,7.2845 0.877,7.2565 0.7782,7.2266 0.6846,7.1952 0.5962,7.1626 0.5133,7.129 0.4353,7.0934 0.3631,7.0567 0.2961,7.0178 0.235,6.9774 0.1798,6.9349 0.1303,6.8892 0.0875,6.8404 0.0519,6.7882 0.0241,6.731 0.0063,6.67 0,6.6066 h 0.2396 l 0.0017,0.0184 0.0056,0.0198 0.0108,0.0224 0.018,0.026 0.025,0.0282 0.0325,0.0297 0.0404,0.0313 0.0479,0.0318 0.0548,0.0315 0.062,0.0319 0.0686,0.031 0.0753,0.0308 0.081,0.0298 0.087,0.0286 0.0924,0.0279 0.0978,0.0272 0.1033,0.0253 0.1075,0.0246 0.1126,0.0231 0.1173,0.0216 0.1215,0.0207 0.125,0.0187 0.1292,0.0171 0.1333,0.0159 0.1362,0.0143 0.1395,0.012 0.1429,0.0107 0.1452,0.0089 0.1483,0.0069 0.1502,0.0051 0.153,0.0031 z M 6.0814,6.6066 H 6.321 v 0 L 6.3147,6.67 6.2969,6.731 6.2691,6.7882 6.2335,6.8404 6.1907,6.8892 6.1412,6.9349 6.086,6.9774 6.0249,7.0178 5.9579,7.0567 5.8857,7.0934 5.8077,7.129 5.7248,7.1626 5.6364,7.1952 5.5428,7.2266 5.444,7.2565 5.3404,7.2845 5.2325,7.3118 5.1194,7.3372 5.0022,7.3613 4.8811,7.3839 4.7558,7.4046 4.6262,7.4243 4.4932,7.4422 4.3571,7.4581 4.2171,7.4724 4.074,7.4854 3.9283,7.4961 3.7793,7.505 3.6282,7.5119 3.4742,7.517 3.3184,7.5201 3.1605,7.5216 V 7.2814 L 3.3156,7.2809 3.4686,7.2778 3.6188,7.2727 3.7671,7.2658 3.9123,7.2569 4.0552,7.2462 4.1947,7.2342 4.3309,7.2199 4.4642,7.204 4.5934,7.1869 4.7184,7.1682 4.8399,7.1475 4.9572,7.1259 5.0698,7.1028 5.1773,7.0782 5.2806,7.0529 5.3784,7.0257 5.4708,6.9978 5.5578,6.9692 5.6388,6.9394 5.7141,6.9086 5.7827,6.8776 5.8447,6.8457 5.8995,6.8142 5.9474,6.7824 5.9878,6.7511 6.0203,6.7214 6.0453,6.6932 6.0633,6.6672 6.0741,6.6448 6.0797,6.625 Z M 3.1605,5.9318 v -0.2402 0 l 0.1579,0.0015 0.1558,0.0031 0.154,0.0051 0.1511,0.007 0.149,0.0088 0.1457,0.0107 0.1431,0.013 0.14,0.0143 L 4.4932,5.771 4.6262,5.789 4.7558,5.8086 4.8811,5.8293 5.0026,5.852 5.1194,5.8761 5.2325,5.9014 5.3404,5.9288 5.444,5.9568 5.5428,5.9866 5.6364,6.018 5.7248,6.0506 5.8082,6.0843 5.8857,6.1199 5.9579,6.1565 6.0249,6.1954 6.086,6.2358 6.1412,6.2784 6.1907,6.3241 6.2335,6.3728 6.2691,6.4251 6.2969,6.4822 6.3147,6.5432 6.321,6.6066 H 6.0814 L 6.0797,6.5882 6.0741,6.5684 6.0633,6.5461 6.0453,6.52 6.0203,6.4919 5.9878,6.4622 5.9474,6.4308 5.8995,6.399 5.8447,6.3675 5.7827,6.3357 5.7136,6.3047 5.6388,6.2738 5.5578,6.244 5.4708,6.2154 5.3784,6.1876 5.2806,6.1604 5.1773,6.135 5.0698,6.1105 4.9568,6.0874 4.8399,6.0657 4.7184,6.045 4.5934,6.0264 4.4642,6.0092 4.3309,5.9933 4.1947,5.979 4.0552,5.967 3.9123,5.9563 3.7671,5.9475 3.6188,5.9405 3.4686,5.9354 3.3156,5.9323 Z"
   class="fil1"
   id="_312591616" />
   </g>
   <ellipse
   id="ellipse11"
   ry="0.60018897"
   rx="2.74054"
   cy="6.6066098"
   cx="3.1605"
   class="fil2" />
   <path
   id="path13"
   d="M 3.2046,7.9726 C 3.0696,7.9849 2.9359,7.9929 2.8037,7.9968 M 2.5163,7.9989 C 1.9621,7.9902 1.4322,7.9078 0.9253,7.7565"
   class="fil0 str0" />
   <path
   id="path15"
   d="M 2.9267,7.2804 V 4.4261 C 2.9267,4.0077 2.5843,3.6653 2.1659,3.6653 H 1.5176 c -0.3803,0 -0.6916,0.3113 -0.6916,0.6916 v 2.6347 c 0.4915,0.171 1.3842,0.2839 2.1007,0.2888 z"
   class="fil3" />
   <path
   id="path17"
   d="m 1.8406,3.8642 h 0.1351 c 0.3661,0 0.6657,0.2684 0.6657,0.5964 V 7.2754 C 2.1224,7.2555 1.6205,7.1989 1.1459,7.0834 V 4.9919 c 0.0639,0.036 0.1376,0.0566 0.2161,0.0566 0.2434,0 0.4409,-0.1974 0.4409,-0.4409 0,-0.2435 -0.1975,-0.4409 -0.4409,-0.4409 -0.0449,0 -0.0883,0.0068 -0.1291,0.0192 C 1.3517,3.9945 1.58,3.8642 1.8406,3.8642 Z"
   class="fil4" />
   <path
   id="path19"
   d="m 1.3101,4.4347 c 0.1098,0 0.1988,0.089 0.1988,0.1988 0,0.1098 -0.089,0.1989 -0.1988,0.1989 -0.1098,0 -0.1988,-0.0891 -0.1988,-0.1989 0,-0.1098 0.089,-0.1988 0.1988,-0.1988 z"
   class="fil4" />
   <rect
   id="rect21"
   height="3.2244599"
   width="0.92497897"
   y="0.46683401"
   x="1.36198"
   class="fil3" />
   <rect
   id="rect23"
   height="2.1352301"
   width="0.38901001"
   y="1.39179"
   x="1.6126699"
   class="fil4" />
   <path
   id="path25"
   d="M 0.9384,0 H 1.7423 C 2.0419,0 2.287,0.2016 2.287,0.5011 V 0.8818 C 2.287,1.2526 1.9835,1.556 1.6127,1.556 H 0.9384 C 0.5043,1.2107 0.5072,0.3163 0.9384,0 Z"
   class="fil5" />
   <path
   id="path27"
   d="m 1.0162,1.193 c 0.055,0 0.1101,0 0.1651,0 C 1.0856,0.7804 1.2314,0.5912 1.3583,0.6258 1.5118,0.6677 1.5039,0.8994 1.4907,1.0205 1.4808,1.1111 1.4571,1.1971 1.4225,1.2794 2.0187,1.2599 2.1241,0.489 1.6732,0.3285 c -0.1789,0 -0.3578,0 -0.5366,0 C 0.9759,0.3902 0.984,0.769 1.0162,1.193 Z"
   class="fil2" />
   <path
   id="path29"
   d="M 5.3104,7.0499 5.6387,5.066 C 5.7071,4.6531 5.4252,4.2595 5.0125,4.1912 L 4.3728,4.0853 C 3.9976,4.0232 3.6381,4.2792 3.5776,4.6547 l -0.4242,2.6307 0.0031,0.001 c 0.0234,9e-4 0.0469,0.0017 0.0703,0.0024 l 0.0351,10e-4 0.0031,1e-4 0.0319,7e-4 0.0018,10e-5 0.0317,6e-4 h 0.0021 l 0.0327,5e-4 0.0031,10e-5 0.0325,3e-4 H 3.404 c 0.0225,2e-4 0.0449,2e-4 0.0673,2e-4 l 0.0348,-10e-5 0.0314,-2e-4 0.005,-10e-5 0.0296,-4e-4 H 3.577 l 0.0326,-6e-4 h 0.0011 l 0.0337,-7e-4 9e-4,-1e-4 0.0338,-8e-4 0.0344,-0.0011 0.0329,-0.0012 h 0.0019 l 0.0298,-0.0012 0.0057,-3e-4 c 0.022,-9e-4 0.044,-0.0019 0.066,-0.0031 L 3.854,7.2823 3.885,7.2806 h 1e-4 L 3.9167,7.2788 3.9193,7.2786 3.9534,7.2764 C 3.9737,7.2751 3.994,7.2737 4.0143,7.2722 L 4.0261,7.2713 4.0553,7.269 h 3e-4 L 4.0884,7.2663 4.0925,7.2659 4.1233,7.2632 4.1567,7.2602 4.1571,7.2601 4.1909,7.2568 C 4.2346,7.2525 4.2782,7.2477 4.3216,7.2426 L 4.3341,7.2411 4.359,7.238 4.3925,7.2338 C 4.425,7.2296 4.4573,7.2252 4.4896,7.2206 L 4.4966,7.2196 4.5235,7.2156 4.5323,7.2143 4.5576,7.2105 4.5593,7.2102 4.5904,7.2054 4.5925,7.205 C 4.6353,7.1982 4.6781,7.191 4.7207,7.1834 L 4.7303,7.1816 C 4.7504,7.178 4.7705,7.1743 4.7906,7.1705 L 4.8235,7.1641 v 0 L 4.8563,7.1576 4.8887,7.1511 4.8892,7.151 4.9204,7.1445 4.9227,7.144 C 4.9442,7.1394 4.9656,7.1348 4.987,7.1301 L 5.0159,7.1237 5.0196,7.1228 C 5.0403,7.1181 5.0611,7.1133 5.0818,7.1084 L 5.0856,7.1075 5.112,7.1012 5.1188,7.0995 5.1491,7.0921 5.1495,7.092 C 5.171,7.0866 5.1924,7.0812 5.2139,7.0757 L 5.2445,7.0677 5.2461,7.0672 5.2783,7.0587 5.2824,7.0576 Z"
   class="fil3" />
   <path
   id="path31"
   d="M 4.659,4.3342 4.7923,4.3563 C 5.1535,4.4161 5.4052,4.7298 5.3517,5.0535 L 5.0087,7.1252 4.9842,7.1307 4.9351,7.1414 4.9105,7.1465 4.8862,7.1516 h -3e-4 l -0.0238,0.0049 -8e-4,10e-5 -0.0247,0.0049 -5e-4,10e-5 -0.022,0.0043 -0.0074,0.0015 C 4.7277,7.1826 4.6482,7.1964 4.5683,7.2088 L 4.561,7.2099 4.5385,7.2134 h -2e-4 l -0.025,0.0037 -0.0011,2e-4 -0.024,0.0035 h -5e-4 L 4.4631,7.2243 4.438,7.2278 4.4153,7.2308 4.4103,7.2315 4.3886,7.2343 4.3877,7.2344 4.3625,7.2376 4.3433,7.24 4.3373,7.2407 4.3154,7.2433 4.312,7.2437 4.2867,7.2466 4.2842,7.2469 4.2614,7.2494 4.2362,7.2522 H 4.2361 L 4.2107,7.2548 4.1965,7.2563 4.192,7.2567 4.1664,7.2592 l -0.0065,6e-4 -0.0032,4e-4 -0.0104,9e-4 -0.0245,0.0023 -0.0049,4e-4 -0.0079,7e-4 -0.0255,0.0022 -0.0189,0.0016 -0.0067,5e-4 -0.0209,0.0017 -0.0046,3e-4 -0.035,0.0026 -9e-4,1e-4 -0.0297,0.0021 -0.0113,7e-4 -0.0256,0.0017 -0.0132,8e-4 -0.0125,7e-4 -0.0257,0.0015 -0.002,1e-4 -0.0238,0.0013 -0.0165,9e-4 -0.0093,4e-4 -0.0258,0.0012 -0.0053,2e-4 -0.0364,0.0016 -0.004,1e-4 -0.006,2e-4 -0.0258,0.001 -0.0087,3e-4 -0.0065,2e-4 -0.0279,8e-4 -0.0062,2e-4 -0.0026,10e-5 C 3.6474,7.2903 3.623,7.2908 3.5986,7.2912 l -0.0049,10e-5 -7e-4,1e-4 H 3.5864 c -0.0236,4e-4 -0.0473,7e-4 -0.0709,9e-4 h -0.0041 -8e-4 c -0.042,3e-4 -0.0093,2e-4 -0.0513,-2e-4 L 3.7895,5.3334 C 3.8466,5.3793 3.916,5.4117 3.9934,5.4245 4.2336,5.4643 4.4606,5.3017 4.5004,5.0615 4.5401,4.8213 4.3776,4.5943 4.1374,4.5546 4.0931,4.5473 4.0492,4.5468 4.0069,4.5525 4.1554,4.383 4.4019,4.2917 4.659,4.3342 Z"
   class="fil4" />
   <path
   id="path33"
   d="M 4.0425,4.8105 C 4.1508,4.8284 4.2241,4.9308 4.2062,5.0391 4.1882,5.1475 4.0859,5.2207 3.9775,5.2028 3.8692,5.1849 3.7959,5.0825 3.8139,4.9742 3.8318,4.8659 3.9342,4.7926 4.0425,4.8105 Z"
   class="fil4" />
   <polygon
   id="polygon35"
   points="4.2151,4.0855 5.1276,4.2365 5.6542,1.0554 4.7416,0.9043 "
   class="fil3" />
   <polygon
   id="polygon37"
   points="4.8379,1.8578 5.2217,1.9214 4.873,4.0279 4.4892,3.9644 "
   class="fil4" />
   <path
   id="path39"
   d="M 4.3999,0.3746 5.1931,0.5059 C 5.4886,0.5548 5.6974,0.7937 5.6486,1.0892 L 5.5864,1.4647 C 5.5258,1.8306 5.1769,2.0804 4.811,2.0199 L 4.1458,1.9098 C 3.7739,1.4981 3.9229,0.6162 4.3999,0.3746 Z"
   class="fil5" />
   <path
   id="path41"
   d="M 4.2819,1.5643 C 4.3362,1.5733 4.3905,1.5822 4.4448,1.5912 4.4177,1.1686 4.5924,1.0057 4.712,1.0606 4.8566,1.127 4.8109,1.3543 4.7781,1.4716 4.7536,1.5594 4.7162,1.6404 4.6686,1.7159 5.26,1.794 5.4898,1.0507 5.0712,0.8187 4.8947,0.7895 4.7183,0.7603 4.5418,0.7311 4.3732,0.7657 4.3194,1.1407 4.2819,1.5643 Z"
   class="fil2" />
  </g>
 </g>
</svg>
