<?xml version="1.0" encoding="UTF-8" standalone="no"?>
<svg
   xmlns:dc="http://purl.org/dc/elements/1.1/"
   xmlns:cc="http://creativecommons.org/ns#"
   xmlns:rdf="http://www.w3.org/1999/02/22-rdf-syntax-ns#"
   xmlns:svg="http://www.w3.org/2000/svg"
   xmlns="http://www.w3.org/2000/svg"
   xmlns:sodipodi="http://sodipodi.sourceforge.net/DTD/sodipodi-0.dtd"
   xmlns:inkscape="http://www.inkscape.org/namespaces/inkscape"
   inkscape:version="1.0 (4035a4fb49, 2020-05-01)"
   sodipodi:docname="patnerkidslives_checked.svg"
   id="svg35"
   version="1.1"
   viewBox="0 0 292.4 194.1"
   xml:space="preserve"><metadata
   id="metadata39"><rdf:RDF><cc:Work
       rdf:about=""><dc:format>image/svg+xml</dc:format><dc:type
         rdf:resource="http://purl.org/dc/dcmitype/StillImage" /></cc:Work></rdf:RDF></metadata><sodipodi:namedview
   inkscape:current-layer="svg35"
   inkscape:window-maximized="1"
   inkscape:window-y="-6"
   inkscape:window-x="-6"
   inkscape:cy="46.469877"
   inkscape:cx="146.2"
   inkscape:zoom="2.5244718"
   showgrid="false"
   id="namedview37"
   inkscape:window-height="658"
   inkscape:window-width="1280"
   inkscape:pageshadow="2"
   inkscape:pageopacity="0"
   guidetolerance="10"
   gridtolerance="10"
   objecttolerance="10"
   borderopacity="1"
   bordercolor="#666666"
   pagecolor="#ffffff" />
 <defs
   id="defs4">
  <style
   id="style2"
   type="text/css">
   <![CDATA[
    .str0 {stroke:#3F4446;stroke-width:0.2489;stroke-linecap:round;stroke-linejoin:round}
    .fil1 {fill:none}
    .fil4 {fill:#15202A}
    .fil2 {fill:white}
    .fil5 {fill:#3F4446}
    .fil3 {fill:#00ACEE}
    .fil0 {fill:#EEF0F2}
   ]]>
  </style>
 </defs>
 <g
   transform="matrix(13.814496,0,0,13.814496,78.828779,2.3767348)"
   id="Layer_x0020_1">
  <metadata
   id="CorelCorpID_0Corel-Layer" />
  <g
   id="_23.cdr">
   <polygon
   points="8.1265,10.6822 8.4663,8.6009 8.6433,7.3408 8.707,7.0576 7.4894,7.5461 5.8692,7.7799 5.5547,13.6255 7.0009,13.3794 7.7584,13.075 "
   class="fil0"
   id="_312049088" />
   <path
   d="m 0.6626,7.0226 c 0.2277,1.5613 0.3969,3.0446 0.5953,4.5669 m 0.0824,0.6209 c 0.0411,0.3037 0.084,0.6097 0.129,0.9187 2.0804,0.6703 4.1838,0.6703 6.3104,0 0.3035,-2.0492 0.6084,-4.006 0.912,-6.0552"
   class="fil1 str0"
   id="_312049016" />
   <path
   d="m 1.4268,8.1021 c 0.1,0.021 0.2392,0.049 0.341,0.0675 M 2.1264,8.227 c 1.3961,0.2083 2.9434,0.2076 4.5898,0.0695"
   class="fil1 str0"
   id="_312048944" />
   <ellipse
   ry="1.01714"
   rx="4.1645999"
   cy="6.7786498"
   cx="4.6839499"
   class="fil2 str0"
   id="_312048872" />
   <path
   d="M 5.5559,7.6681 V 4.9369 C 5.5559,4.5032 5.201,4.1483 4.7674,4.1483 H 4.0953 c -0.3942,0 -0.7157,0.3227 -0.7169,0.7169 L 3.3705,7.6395 c 0.7053,0.062 1.4642,0.0695 2.1854,0.0286 z"
   class="fil3"
   id="_312048800" />
   <path
   d="m 4.4301,4.3544 h 0.14 c 0.3796,0 0.6911,0.2783 0.6901,0.6183 L 5.2523,7.6823 C 4.7265,7.702 4.188,7.6961 3.6704,7.6624 L 3.71,5.5234 c 0.0662,0.0373 0.1426,0.0587 0.224,0.0587 0.2524,0 0.457,-0.2047 0.457,-0.457 C 4.391,4.8727 4.1864,4.668 3.934,4.668 3.8875,4.668 3.8425,4.675 3.8002,4.688 3.9234,4.4895 4.16,4.3544 4.4301,4.3544 Z"
   class="fil4"
   id="_312048728" />
   <path
   d="m 3.8803,4.9458 c 0.1138,0 0.2061,0.0923 0.2061,0.2061 0,0.1138 -0.0923,0.2061 -0.2061,0.2061 -0.1139,0 -0.2061,-0.0923 -0.2061,-0.2061 0,-0.1138 0.0922,-0.2061 0.2061,-0.2061 z"
   class="fil4"
   id="_312048656" />
   <polygon
   points="3.934,4.1752 4.8928,4.1752 4.8928,0.8328 3.934,0.8328 "
   class="fil3"
   id="_312048584" />
   <polygon
   points="4.1939,1.7916 4.5971,1.7916 4.5971,4.0049 4.1939,4.0049 "
   class="fil4"
   id="_312048512" />
   <path
   d="m 3.4949,0.3489 h 0.8334 c 0.3105,0 0.5645,0.209 0.5645,0.5194 v 0.3946 c 0,0.3844 -0.3145,0.699 -0.6989,0.699 h -0.699 c -0.45,-0.358 -0.4469,-1.2851 0,-1.613 z"
   class="fil5"
   id="_312048440" />
   <path
   d="m 3.5756,1.5855 c 0.057,0 0.1141,0 0.1712,0 C 3.6475,1.1579 3.7986,0.9617 3.9302,0.9977 4.0893,1.041 4.0811,1.2812 4.0674,1.4067 4.0571,1.5006 4.0326,1.5898 3.9967,1.6751 4.6148,1.6549 4.724,0.8559 4.2566,0.6894 c -0.1854,0 -0.3708,0 -0.5562,0 C 3.5338,0.7534 3.5422,1.146 3.5756,1.5855 Z"
   class="fil2"
   id="_312048368" />
   <path
   d="M 6.4345,4.6395 5.88,7.6462 5.8964,7.6449 5.9129,7.6436 C 5.9513,7.6405 5.9896,7.6373 6.0277,7.6339 L 6.044,7.6324 6.0603,7.6309 C 6.0983,7.6275 6.1361,7.6239 6.1737,7.6202 L 6.1898,7.6185 6.2059,7.6169 6.222,7.6153 C 6.2541,7.612 6.286,7.6086 6.3178,7.6051 L 6.3337,7.6033 6.3495,7.6015 6.3654,7.5998 C 6.4023,7.5955 6.439,7.5912 6.4755,7.5867 L 6.4911,7.5848 6.5067,7.5829 6.5222,7.5809 C 6.5528,7.5771 6.5832,7.5731 6.6135,7.569 L 6.6633,7.5622 C 6.6914,7.5583 6.7195,7.5543 6.7473,7.5503 6.7702,7.5469 6.7931,7.5435 6.8158,7.54 6.8394,7.5364 6.8629,7.5327 6.8863,7.529 L 7.5365,4.2819 Z"
   class="fil3"
   id="_312048296" />
   <path
   d="m 6.7922,4.7265 -0.5976,2.8916 0.0065,-7e-4 0.0065,-6e-4 0.0065,-7e-4 0.0065,-7e-4 C 6.2531,7.6121 6.2854,7.6087 6.3176,7.6051 l 0.0064,-7e-4 0.0065,-7e-4 0.0064,-7e-4 0.0064,-7e-4 0.0064,-8e-4 0.0128,-0.0014 0.0064,-7e-4 0.0064,-8e-4 h 2e-4 C 6.401,7.5957 6.4265,7.5927 6.4518,7.5897 l 0.0064,-8e-4 0.0063,-8e-4 0.0063,-8e-4 0.0064,-7e-4 0.0504,-0.0063 0.0063,-8e-4 0.0685,-0.009 h 3e-4 L 7.1112,4.6782 Z"
   class="fil4"
   id="_312048224" />
   <path
   d="M 7.5377,4.2128 7.7946,2.6814 C 7.8591,2.2973 7.5975,1.9302 7.2133,1.8657 L 6.3084,1.7139 C 6.2342,1.7015 6.1633,1.752 6.1509,1.8262 L 5.7068,4.4731 C 5.6924,4.5593 5.7511,4.6417 5.8373,4.6562 L 6.7102,4.8026 C 7.1,4.868 7.4724,4.6026 7.5377,4.2128 Z"
   class="fil5"
   id="_312048152" />
   <path
   d="M 7.256,3.9961 7.4458,2.7563 C 7.4935,2.4452 7.3775,2.1481 7.0936,2.0959 L 6.4248,1.973 C 6.37,1.9629 6.3173,2.0038 6.3084,2.0639 L 6.271,2.3152 C 6.2857,2.313 6.3009,2.3127 6.3163,2.3145 l 0.413,0.0485 c 0.1029,0.0121 0.1781,0.1142 0.1671,0.2269 v 0 C 6.8853,2.7027 6.7921,2.785 6.6892,2.7729 L 6.2761,2.7244 C 6.2536,2.7217 6.2324,2.7148 6.2132,2.7043 L 6.1645,3.0317 C 6.1879,3.0238 6.2131,3.0209 6.2389,3.024 L 6.652,3.0725 c 0.1029,0.0121 0.1781,0.1142 0.167,0.2269 v 1e-4 C 6.808,3.4122 6.7148,3.4945 6.6119,3.4824 L 6.1988,3.4339 C 6.1657,3.43 6.1355,3.4168 6.1101,3.397 L 6.0627,3.7159 C 6.082,3.7112 6.1023,3.7099 6.1229,3.7123 L 6.536,3.7608 c 0.1029,0.0121 0.1781,0.1142 0.167,0.227 v 0 C 6.692,4.1005 6.5988,4.1829 6.4959,4.1707 L 6.0828,4.1222 C 6.0549,4.1189 6.0291,4.109 6.0064,4.0941 L 5.9802,4.2703 C 5.9699,4.3402 6.013,4.4069 6.0767,4.4186 L 6.7218,4.5371 C 7.0098,4.59 7.2077,4.3117 7.256,3.9961 Z"
   class="fil2"
   id="_312048080" />
   <path
   d="M 7.5973,7.3859 8.8395,3.9069 10.0091,3.5299 8.7029,6.8825 C 8.5137,7.0855 8.1176,7.255 7.5973,7.3859 Z"
   class="fil3"
   id="_312048008" />
   <path
   d="M 7.9163,7.2956 9.1198,4.0809 9.5161,4.1099 8.3719,7.1143 C 8.2427,7.1798 8.0897,7.2404 7.9163,7.2956 Z"
   class="fil4"
   id="_312047936" />
   <path
   d="M 9.9725,3.6334 10.4344,2.1509 C 10.5503,1.779 10.3408,1.3798 9.9689,1.2639 L 9.0929,0.991 C 9.0211,0.9686 8.944,1.009 8.9217,1.0809 L 8.1232,3.6432 c -0.026,0.0835 0.021,0.1731 0.1045,0.1991 l 0.845,0.2633 C 9.45,4.2232 9.8549,4.0107 9.9725,3.6334 Z"
   class="fil5"
   id="_312047864" />
   <path
   d="M 9.7269,3.4003 10.0683,2.1991 C 10.1539,1.8977 10.0757,1.5858 9.8009,1.4919 L 9.1535,1.2707 C 9.1005,1.2526 9.0432,1.2853 9.027,1.3435 L 8.9589,1.5872 c 0.0148,0 0.0298,0.0019 0.0449,0.006 L 9.407,1.7027 c 0.1005,0.0272 0.1623,0.1397 0.1375,0.2498 v 0 C 9.5196,2.0627 9.417,2.1305 9.3166,2.1032 L 8.9133,1.9937 C 8.8913,1.9877 8.8712,1.9777 8.8534,1.9645 L 8.7647,2.2819 C 8.7889,2.2776 8.8142,2.2784 8.8394,2.2853 L 9.2427,2.3947 C 9.3431,2.422 9.405,2.5344 9.3801,2.6446 v 0 C 9.3553,2.7548 9.2527,2.8226 9.1523,2.7953 L 8.749,2.6858 C 8.7167,2.677 8.6884,2.6595 8.6657,2.636 L 8.5793,2.9453 C 8.599,2.9435 8.6192,2.9452 8.6394,2.9506 L 9.0427,3.0601 C 9.1431,3.0874 9.205,3.1998 9.1801,3.3099 V 3.31 C 9.1552,3.4201 9.0527,3.4879 8.9522,3.4606 L 8.5489,3.3511 C 8.5217,3.3438 8.4973,3.3301 8.4768,3.312 L 8.429,3.4828 C 8.4101,3.5505 8.4446,3.6231 8.5063,3.6441 L 9.1307,3.8575 C 9.4096,3.9527 9.64,3.7061 9.7269,3.4003 Z"
   class="fil2"
   id="_312047792" />
   <path
   d="M 0.3795,6.7169 0.0568,4.8747 C -0.018,4.4475 0.2704,4.0367 0.6975,3.9619 L 1.3595,3.846 C 1.7479,3.778 2.1213,4.0402 2.1893,4.4285 l 0.5483,3.133 C 1.6597,7.4791 0.7661,7.1371 0.3795,6.7169 Z"
   class="fil3"
   id="_312047720" />
   <path
   d="M 1.0653,4.1068 0.9274,4.1309 C 0.5535,4.1963 0.2965,4.5239 0.3543,4.859 l 0.367,2.1293 C 1.117,7.2645 1.7269,7.448 2.4126,7.5309 L 1.9763,5.134 C 1.9175,5.1822 1.8459,5.2164 1.7657,5.2304 1.5172,5.274 1.2803,5.1077 1.2367,4.8591 1.1932,4.6105 1.3595,4.3736 1.6081,4.3301 1.6539,4.3221 1.6994,4.3212 1.7433,4.3266 1.5878,4.1524 1.3314,4.0601 1.0653,4.1068 Z"
   class="fil4"
   id="_312047648" />
   <path
   d="M 1.7089,4.5945 C 1.5968,4.6141 1.5218,4.7209 1.5415,4.833 1.5611,4.9451 1.6679,5.0201 1.78,5.0005 1.8921,4.9808 1.9671,4.874 1.9475,4.7619 1.9279,4.6498 1.821,4.5748 1.7089,4.5945 Z"
   class="fil4"
   id="_312046376" />
   <rect
   y="0"
   x="0"
   height="14.2113"
   width="4.0767002"
   transform="matrix(-0.231667,0.0405713,0.0405713,0.231667,0.946472,0.552385)"
   class="fil3"
   id="_312046352" />
   <rect
   y="0"
   x="0"
   height="9.4106998"
   width="1.7145"
   transform="matrix(-0.231667,0.0405713,0.0405713,0.231667,0.855896,1.54163)"
   class="fil4"
   id="_312046208" />
   <path
   d="M 1.2955,0 0.4746,0.1437 C 0.1688,0.1973 -0.0454,0.447 0.0082,0.7528 l 0.068,0.3886 C 0.1425,1.52 0.5067,1.7756 0.8853,1.7093 L 1.5737,1.5888 C 1.9552,1.1585 1.7923,0.2458 1.2955,0 Z"
   class="fil5"
   id="_312046184" />
   <path
   d="M 1.4294,1.232 C 1.3732,1.2418 1.317,1.2516 1.2607,1.2615 1.2848,0.8231 1.1021,0.656 0.9787,0.7141 0.8294,0.7843 0.8789,1.0194 0.9141,1.1407 0.9404,1.2314 0.9799,1.315 1.03,1.3929 0.4177,1.4795 0.1723,0.7113 0.604,0.4668 0.7866,0.4348 0.9693,0.4028 1.1519,0.3708 1.327,0.4051 1.3864,0.7933 1.4294,1.232 Z"
   class="fil2"
   id="_312046112" />
  </g>
 </g>
</svg>
