<?xml version="1.0" encoding="UTF-8" standalone="no"?>
<svg
   xmlns:dc="http://purl.org/dc/elements/1.1/"
   xmlns:cc="http://creativecommons.org/ns#"
   xmlns:rdf="http://www.w3.org/1999/02/22-rdf-syntax-ns#"
   xmlns:svg="http://www.w3.org/2000/svg"
   xmlns="http://www.w3.org/2000/svg"
   xmlns:sodipodi="http://sodipodi.sourceforge.net/DTD/sodipodi-0.dtd"
   xmlns:inkscape="http://www.inkscape.org/namespaces/inkscape"
   inkscape:version="1.0 (4035a4fb49, 2020-05-01)"
   sodipodi:docname="patnerkidslives_unchecked.svg"
   id="svg35"
   version="1.1"
   viewBox="0 0 292.4 194.1"
   xml:space="preserve"><metadata
   id="metadata39"><rdf:RDF><cc:Work
       rdf:about=""><dc:format>image/svg+xml</dc:format><dc:type
         rdf:resource="http://purl.org/dc/dcmitype/StillImage" /></cc:Work></rdf:RDF></metadata><sodipodi:namedview
   inkscape:current-layer="svg35"
   inkscape:window-maximized="1"
   inkscape:window-y="-6"
   inkscape:window-x="-6"
   inkscape:cy="29.065963"
   inkscape:cx="146.2"
   inkscape:zoom="2.5244718"
   showgrid="false"
   id="namedview37"
   inkscape:window-height="658"
   inkscape:window-width="1280"
   inkscape:pageshadow="2"
   inkscape:pageopacity="0"
   guidetolerance="10"
   gridtolerance="10"
   objecttolerance="10"
   borderopacity="1"
   bordercolor="#666666"
   pagecolor="#ffffff" />
 <defs
   id="defs4">
  <style
   id="style2"
   type="text/css">
   <![CDATA[
    .str0 {stroke:#3F4446;stroke-width:0.2571;stroke-linecap:round;stroke-linejoin:round}
    .fil1 {fill:none}
    .fil2 {fill:white}
    .fil3 {fill:#3F4446}
    .fil0 {fill:#EEF0F2}
   ]]>
  </style>
 </defs>
 <g
   transform="matrix(13.307177,0,0,13.307177,73.679841,2.603071)"
   id="Layer_x0020_1">
  <metadata
   id="CorelCorpID_0Corel-Layer" />
  <g
   id="_24.cdr">
   <polygon
   points="8.3936,11.0332 8.7446,8.8835 8.9274,7.582 8.9932,7.2895 7.7355,7.7941 6.0621,8.0355 5.7373,14.0733 7.231,13.8191 8.0134,13.5047 "
   class="fil0"
   id="_312053960" />
   <path
   d="m 0.6844,7.2534 c 0.2351,1.6126 0.4099,3.1447 0.6149,4.717 m 0.0851,0.6412 c 0.0425,0.3138 0.0867,0.6299 0.1332,0.949 2.1488,0.6923 4.3213,0.6923 6.5178,0 0.3135,-2.1165 0.6284,-4.1377 0.9419,-6.2543"
   class="fil1 str0"
   id="_312053888" />
   <path
   d="M 1.4737,8.3684 C 1.577,8.39 1.7208,8.4189 1.8259,8.4381 m 0.3703,0.0593 c 1.4421,0.2151 3.0402,0.2144 4.7407,0.0717"
   class="fil1 str0"
   id="_312053816" />
   <ellipse
   ry="1.05057"
   rx="4.3014698"
   cy="7.00142"
   cx="4.8379002"
   class="fil2 str0"
   id="_312053744" />
   <path
   d="M 5.7385,7.9201 V 5.0991 C 5.7385,4.6511 5.372,4.2847 4.9241,4.2847 H 4.2299 c -0.4072,0 -0.7393,0.3332 -0.7404,0.7404 L 3.4813,7.8905 c 0.7285,0.0641 1.5123,0.0719 2.2572,0.0296 z"
   class="fil3"
   id="_312053672" />
   <path
   d="m 4.5757,4.4975 h 0.1447 c 0.392,0 0.7137,0.2874 0.7127,0.6386 L 5.4249,7.9348 C 4.8818,7.9552 4.3256,7.9491 3.791,7.9142 L 3.832,5.7049 c 0.0683,0.0386 0.1472,0.0606 0.2313,0.0606 0.2607,0 0.472,-0.2114 0.472,-0.472 0,-0.2607 -0.2113,-0.472 -0.472,-0.472 -0.0481,0 -0.0945,0.0072 -0.1382,0.0205 C 4.0523,4.6371 4.2967,4.4975 4.5757,4.4975 Z"
   class="fil2"
   id="_312053600" />
   <path
   d="m 4.0078,5.1084 c 0.1175,0 0.2129,0.0953 0.2129,0.2128 0,0.1176 -0.0954,0.2129 -0.2129,0.2129 -0.1176,0 -0.2129,-0.0953 -0.2129,-0.2129 0,-0.1175 0.0953,-0.2128 0.2129,-0.2128 z"
   class="fil2"
   id="_312053528" />
   <polygon
   points="4.0633,4.3124 5.0536,4.3124 5.0536,0.8602 4.0633,0.8602 "
   class="fil3"
   id="_312053456" />
   <polygon
   points="4.3317,1.8505 4.7482,1.8505 4.7482,4.1366 4.3317,4.1366 "
   class="fil2"
   id="_312053384" />
   <path
   d="m 3.6098,0.3604 h 0.8608 c 0.3207,0 0.583,0.2158 0.583,0.5365 v 0.4075 c 0,0.397 -0.3249,0.7219 -0.7219,0.7219 H 3.6098 C 3.145,1.6566 3.1482,0.699 3.6098,0.3604 Z"
   class="fil3"
   id="_312053312" />
   <path
   d="m 3.6931,1.6376 c 0.0589,0 0.1179,0 0.1768,0 C 3.7674,1.1959 3.9235,0.9933 4.0594,1.0304 4.2237,1.0753 4.2152,1.3233 4.2011,1.453 4.1905,1.55 4.1652,1.642 4.1281,1.7302 4.7664,1.7092 4.8792,0.884 4.3965,0.7121 c -0.1915,0 -0.383,0 -0.5745,0 C 3.65,0.7782 3.6587,1.1837 3.6931,1.6376 Z"
   class="fil2"
   id="_312053240" />
   <path
   d="M 6.646,4.792 6.0732,7.8975 6.0902,7.8962 6.1073,7.8948 C 6.1469,7.8916 6.1864,7.8883 6.2258,7.8848 L 6.2427,7.8833 6.2595,7.8817 C 6.2987,7.8782 6.3377,7.8744 6.3766,7.8706 L 6.3932,7.8689 6.4099,7.8672 6.4264,7.8656 C 6.4596,7.8622 6.4926,7.8586 6.5255,7.855 L 6.5419,7.8532 6.5582,7.8514 6.5746,7.8495 C 6.6127,7.8452 6.6506,7.8407 6.6883,7.8361 L 6.7044,7.8341 6.7205,7.8321 6.7366,7.8301 C 6.7682,7.8261 6.7996,7.822 6.8308,7.8178 L 6.8823,7.8107 C 6.9114,7.8067 6.9403,7.8026 6.969,7.7984 6.9927,7.7949 7.0163,7.7914 7.0398,7.7878 7.0642,7.7841 7.0885,7.7803 7.1127,7.7764 L 7.7842,4.4226 Z"
   class="fil3"
   id="_312053168" />
   <path
   d="m 7.0154,4.8819 -0.6173,2.9865 0.0068,-6e-4 0.0067,-7e-4 0.0067,-7e-4 0.0067,-7e-4 C 6.4586,7.8623 6.492,7.8587 6.5252,7.855 l 0.0067,-7e-4 0.0066,-7e-4 0.0067,-8e-4 0.0066,-7e-4 0.0066,-7e-4 0.0133,-0.0015 0.0066,-8e-4 0.0066,-7e-4 10e-5,-10e-5 C 6.6114,7.8453 6.6377,7.8422 6.6639,7.8391 l 0.0065,-8e-4 0.0066,-8e-4 0.0065,-8e-4 0.0065,-8e-4 0.0522,-0.0065 0.0065,-8e-4 0.0707,-0.0093 h 3e-4 L 7.3449,4.832 Z"
   class="fil2"
   id="_312053096" />
   <path
   d="M 7.7855,4.3513 8.0508,2.7696 C 8.1174,2.3728 7.8472,1.9936 7.4504,1.927 L 6.5158,1.7702 C 6.4391,1.7574 6.3659,1.8096 6.3531,1.8862 L 5.8944,4.6201 C 5.8795,4.7092 5.9401,4.7943 6.0292,4.8092 L 6.9307,4.9605 C 7.3333,5.028 7.7179,4.7539 7.7855,4.3513 Z"
   class="fil3"
   id="_312053024" />
   <path
   d="M 7.4945,4.1274 7.6906,2.8469 C 7.7398,2.5256 7.6199,2.2186 7.3267,2.1648 L 6.636,2.0378 C 6.5794,2.0274 6.525,2.0696 6.5157,2.1317 L 6.4771,2.3912 C 6.4923,2.389 6.508,2.3887 6.5239,2.3905 L 6.9505,2.4407 C 7.0568,2.4532 7.1344,2.5586 7.123,2.675 v 0 C 7.1116,2.7915 7.0153,2.8765 6.9091,2.864 L 6.4824,2.8139 C 6.4591,2.8112 6.4373,2.804 6.4174,2.7932 L 6.3671,3.1313 C 6.3913,3.1232 6.4173,3.1202 6.444,3.1234 L 6.8706,3.1735 C 6.9769,3.186 7.0545,3.2914 7.0432,3.4079 v 0 C 7.0318,3.5243 6.9355,3.6094 6.8292,3.5969 L 6.4025,3.5467 C 6.3684,3.5427 6.3372,3.5291 6.311,3.5086 L 6.262,3.838 C 6.2819,3.8332 6.3028,3.8318 6.3242,3.8343 l 0.4266,0.0501 c 0.1063,0.0125 0.1839,0.118 0.1725,0.2344 v 0 C 6.9119,4.2353 6.8157,4.3203 6.7094,4.3078 L 6.2827,4.2577 C 6.2539,4.2543 6.2272,4.244 6.2039,4.2287 L 6.1768,4.4107 C 6.1661,4.4828 6.2106,4.5517 6.2764,4.5638 L 6.9427,4.6863 C 7.2402,4.7409 7.4446,4.4534 7.4945,4.1274 Z"
   class="fil2"
   id="_312052952" />
   <path
   d="M 7.847,7.6286 9.13,4.0353 10.3381,3.6459 8.9889,7.1087 C 8.7935,7.3183 8.3844,7.4935 7.847,7.6286 Z"
   class="fil3"
   id="_312052880" />
   <path
   d="M 8.1765,7.5353 9.4195,4.215 9.8289,4.2449 8.6471,7.3481 C 8.5137,7.4157 8.3556,7.4783 8.1765,7.5353 Z"
   class="fil2"
   id="_312052808" />
   <path
   d="M 10.3002,3.7528 10.7774,2.2216 C 10.8971,1.8374 10.6807,1.4252 10.2965,1.3055 L 9.3918,1.0235 C 9.3176,1.0004 9.238,1.0422 9.2149,1.1164 L 8.3902,3.763 C 8.3633,3.8492 8.4119,3.9417 8.4981,3.9686 l 0.8728,0.272 C 9.7606,4.362 10.1788,4.1425 10.3002,3.7528 Z"
   class="fil3"
   id="_312052736" />
   <path
   d="M 10.0466,3.5121 10.3992,2.2713 C 10.4877,1.9601 10.4069,1.6379 10.123,1.5409 L 9.4544,1.3124 C 9.3996,1.2937 9.3404,1.3275 9.3236,1.3877 L 9.2533,1.6393 c 0.0153,0 0.0309,0.0021 0.0464,0.0063 l 0.4165,0.113 c 0.1037,0.0282 0.1676,0.1443 0.1419,0.2581 v 0 C 9.8325,2.1305 9.7265,2.2005 9.6228,2.1723 L 9.2062,2.0592 C 9.1836,2.0531 9.1628,2.0427 9.1444,2.029 L 9.0528,2.3569 C 9.0777,2.3524 9.1039,2.3533 9.1299,2.3604 l 0.4166,0.113 c 0.1037,0.0282 0.1676,0.1443 0.1419,0.2581 v 0 C 9.6627,2.8453 9.5568,2.9153 9.4531,2.8871 L 9.0365,2.7741 C 9.0032,2.765 8.9739,2.7469 8.9505,2.7227 L 8.8612,3.0421 c 0.0204,-0.0019 0.0413,-2e-4 0.0621,0.0055 l 0.4166,0.113 c 0.1037,0.0282 0.1676,0.1443 0.1419,0.2581 v 0 C 9.4561,3.5325 9.3502,3.6025 9.2465,3.5744 L 8.8299,3.4613 C 8.8018,3.4537 8.7766,3.4395 8.7554,3.4208 L 8.7061,3.5973 c -0.0196,0.0699 0.016,0.1448 0.0797,0.1666 l 0.645,0.2204 c 0.288,0.0983 0.5261,-0.1564 0.6158,-0.4722 z"
   class="fil2"
   id="_312052664" />
   <path
   d="M 0.4088,7.0008 0.0587,5.0349 C -0.0198,4.5938 0.2792,4.1694 0.7205,4.0921 L 1.4042,3.9724 C 1.8053,3.9022 2.1911,4.1729 2.2613,4.574 L 2.8276,7.81 C 1.7143,7.7249 0.8082,7.4348 0.4088,7.0008 Z"
   class="fil3"
   id="_312052592" />
   <path
   d="M 1.1003,4.2417 0.9579,4.2667 C 0.5718,4.3343 0.3063,4.6726 0.3659,5.0187 L 0.745,7.218 C 1.1538,7.5032 1.7836,7.6927 2.4919,7.7784 L 2.0412,5.3027 C 1.9805,5.3525 1.9066,5.3878 1.8238,5.4023 1.567,5.4473 1.3224,5.2755 1.2774,5.0188 1.2324,4.762 1.4042,4.5174 1.6609,4.4724 1.7083,4.4641 1.7552,4.4632 1.8006,4.4688 1.64,4.2889 1.3752,4.1936 1.1003,4.2417 Z"
   class="fil2"
   id="_312052520" />
   <path
   d="M 1.7651,4.7455 C 1.6493,4.7657 1.5719,4.8761 1.5921,4.9918 1.6124,5.1076 1.7228,5.1851 1.8385,5.1648 1.9543,5.1445 2.0318,5.0342 2.0115,4.9184 1.9912,4.8026 1.8809,4.7252 1.7651,4.7455 Z"
   class="fil2"
   id="_312051344" />
   <rect
   y="0"
   x="0"
   height="14.2113"
   width="4.0767002"
   transform="matrix(-0.239281,0.0419047,0.0419047,0.239281,0.97759,0.570537)"
   class="fil3"
   id="_312051200" />
   <rect
   y="0"
   x="0"
   height="9.4106998"
   width="1.7145"
   transform="matrix(-0.239281,0.0419047,0.0419047,0.239281,0.884037,1.59229)"
   class="fil2"
   id="_312051152" />
   <path
   d="M 1.3381,0 0.4902,0.1485 C 0.1743,0.2038 -0.0469,0.4617 0.0084,0.7775 L 0.0787,1.1789 C 0.1472,1.57 0.5233,1.834 0.9144,1.7655 L 1.6255,1.641 C 2.0195,1.1966 1.8512,0.2539 1.3381,0 Z"
   class="fil3"
   id="_312051008" />
   <path
   d="M 1.4764,1.2724 C 1.4183,1.2826 1.3603,1.2928 1.3022,1.3029 1.327,0.8502 1.1383,0.6776 1.0109,0.7375 0.8567,0.81 0.9078,1.0529 0.9441,1.1782 0.9713,1.2719 1.0121,1.3582 1.0638,1.4386 0.4315,1.5281 0.178,0.7347 0.6238,0.4821 0.8125,0.4491 1.0011,0.4161 1.1897,0.383 1.3706,0.4184 1.432,0.8194 1.4764,1.2724 Z"
   class="fil2"
   id="_312051944" />
  </g>
 </g>
</svg>
