<?xml version="1.0" encoding="UTF-8" standalone="no"?>
<svg
   xmlns:dc="http://purl.org/dc/elements/1.1/"
   xmlns:cc="http://creativecommons.org/ns#"
   xmlns:rdf="http://www.w3.org/1999/02/22-rdf-syntax-ns#"
   xmlns:svg="http://www.w3.org/2000/svg"
   xmlns="http://www.w3.org/2000/svg"
   xmlns:sodipodi="http://sodipodi.sourceforge.net/DTD/sodipodi-0.dtd"
   xmlns:inkscape="http://www.inkscape.org/namespaces/inkscape"
   inkscape:version="1.0 (4035a4fb49, 2020-05-01)"
   sodipodi:docname="singlelives_checked.svg"
   id="svg31"
   version="1.1"
   viewBox="0 0 292.4 194.1"
   xml:space="preserve"><metadata
   id="metadata35"><rdf:RDF><cc:Work
       rdf:about=""><dc:format>image/svg+xml</dc:format><dc:type
         rdf:resource="http://purl.org/dc/dcmitype/StillImage" /></cc:Work></rdf:RDF></metadata><sodipodi:namedview
   inkscape:current-layer="svg31"
   inkscape:window-maximized="1"
   inkscape:window-y="-6"
   inkscape:window-x="-6"
   inkscape:cy="35.592431"
   inkscape:cx="146.2"
   inkscape:zoom="2.5244718"
   showgrid="false"
   id="namedview33"
   inkscape:window-height="658"
   inkscape:window-width="1280"
   inkscape:pageshadow="2"
   inkscape:pageopacity="0"
   guidetolerance="10"
   gridtolerance="10"
   objecttolerance="10"
   borderopacity="1"
   bordercolor="#666666"
   pagecolor="#ffffff" />
 <defs
   id="defs4">
  <style
   id="style2"
   type="text/css">
   <![CDATA[
    .str0 {stroke:#3F4446;stroke-width:0.2709;stroke-linecap:round;stroke-linejoin:round}
    .fil0 {fill:none}
    .fil4 {fill:#15202A}
    .fil2 {fill:white}
    .fil5 {fill:#3F4446}
    .fil3 {fill:#00ACEE}
    .fil1 {fill:#3F4446;fill-rule:nonzero}
   ]]>
  </style>
 </defs>
 <g
   transform="matrix(13.596484,0,0,13.596484,94.673268,3.0892557)"
   id="Layer_x0020_1">
  <metadata
   id="CorelCorpID_0Corel-Layer" />
  <g
   id="_17.cdr">
   <path
   d="M 6.74,7.3405 C 6.6478,8.1638 6.5556,8.883 6.4633,9.7063 m -0.0578,0.5163 c -0.1143,1.0201 -0.2286,2.0403 -0.3429,3.0604 -1.164,0.6078 -3.662,0.6908 -5.0555,0 C 0.8022,11.3177 0.5973,9.3524 0.3924,7.3871"
   class="fil0 str0"
   id="_311415584" />
   <g
   id="g9">
    <path
   d="M 0.2704,6.9668 H 0 v 0 L 0.0072,6.8952 0.0272,6.8264 0.0585,6.7619 0.0988,6.7025 0.1471,6.648 0.2029,6.5964 0.2653,6.5483 0.3341,6.5029 0.4097,6.4589 0.4913,6.4176 0.5792,6.3773 0.6726,6.3395 0.7725,6.3027 0.8781,6.2672 0.9896,6.2336 1.1064,6.2019 1.2282,6.1711 1.3559,6.1424 1.4882,6.1153 1.6248,6.0897 1.7661,6.0664 1.9124,6.0443 2.0624,6.024 2.216,6.006 2.3739,5.9899 2.5354,5.9753 2.6998,5.9632 2.8679,5.9532 3.0385,5.9453 3.2122,5.9396 3.3881,5.9362 3.5662,5.9344 v 0.271 L 3.3913,6.206 3.2186,6.2094 3.0491,6.2151 2.8817,6.223 2.7178,6.233 2.5566,6.2451 2.3993,6.2587 2.2456,6.2748 2.0952,6.2928 1.9494,6.3121 1.8083,6.3332 1.6712,6.3565 1.5388,6.3809 1.4119,6.407 1.2906,6.4347 1.174,6.4633 1.0636,6.494 0.9595,6.5254 0.8613,6.5577 0.7698,6.5913 0.6848,6.6261 0.6075,6.661 0.5375,6.6971 0.4757,6.7325 0.4215,6.7685 0.3761,6.8038 0.3393,6.8374 0.311,6.8697 0.2909,6.8985 0.2786,6.9238 0.2722,6.946 Z m 3.2958,0.7615 v 0.271 0 L 3.3881,7.9975 3.2122,7.9941 3.0385,7.9884 2.8679,7.9805 2.6998,7.9705 2.5354,7.9584 2.3739,7.9438 2.216,7.9277 2.0624,7.9097 1.9124,7.8894 1.7661,7.8673 1.6248,7.844 1.4876,7.8184 1.3559,7.7912 1.2282,7.7625 1.1064,7.7317 0.9896,7.7001 0.8781,7.6664 0.7725,7.6309 0.6726,7.5942 0.5787,7.5563 0.4913,7.516 0.4097,7.4747 0.3341,7.4307 0.2653,7.3853 0.2029,7.3372 0.1471,7.2856 0.0988,7.2311 0.0585,7.1717 0.0272,7.1072 0.0072,7.0384 0,6.9668 h 0.2704 l 0.0018,0.0208 0.0064,0.0222 0.0123,0.0253 0.0201,0.0288 0.0283,0.0323 0.0368,0.0336 0.0454,0.0353 0.0542,0.036 0.0618,0.0354 0.07,0.0361 0.0778,0.0349 0.0845,0.0349 0.0915,0.0335 0.0982,0.0323 0.1041,0.0315 0.1104,0.0306 0.1166,0.0286 0.1213,0.0277 0.1275,0.0262 0.1318,0.0244 0.1371,0.0233 0.1411,0.0211 0.1458,0.0193 0.1504,0.018 0.1537,0.0161 0.1573,0.0136 0.1612,0.0121 0.1639,0.01 0.1674,0.0079 0.1695,0.0057 0.1727,0.0034 z M 6.862,6.9668 h 0.2704 v 0 L 7.1252,7.0384 7.1052,7.1072 7.0739,7.1717 7.0336,7.2311 6.9853,7.2856 6.9295,7.3372 6.8671,7.3853 6.7983,7.4307 6.7227,7.4747 6.6411,7.516 6.5537,7.5563 6.4597,7.5942 6.3599,7.6309 6.2543,7.6664 6.1428,7.7001 6.0259,7.7317 5.9042,7.7625 5.7765,7.7912 5.6448,7.8184 5.5075,7.844 5.3662,7.8673 5.2199,7.8894 5.0699,7.9097 4.9163,7.9277 4.7584,7.9438 4.5969,7.9584 4.4325,7.9705 4.2645,7.9805 4.0939,7.9884 3.9201,7.9941 3.7443,7.9975 3.5662,7.9993 V 7.7283 L 3.7411,7.7277 3.9137,7.7243 4.0833,7.7186 4.2507,7.7107 4.4145,7.7007 4.5757,7.6886 4.733,7.675 4.8867,7.6589 5.0371,7.6409 5.1829,7.6216 5.324,7.6005 5.4611,7.5772 5.593,7.5528 5.7205,7.5266 5.8418,7.4989 5.9583,7.4703 6.0688,7.4397 6.1729,7.4082 6.2711,7.3759 6.3625,7.3424 6.4471,7.3075 6.5249,7.2726 6.5949,7.2365 6.6567,7.2011 6.7109,7.1651 6.7563,7.1298 6.7931,7.0962 6.8214,7.0639 6.8415,7.0351 6.8538,7.0098 6.8602,6.9876 Z M 3.5662,6.2054 v -0.271 0 l 0.1781,0.0018 0.1758,0.0034 0.1738,0.0057 0.1706,0.0079 0.168,0.01 0.1644,0.0121 0.1615,0.0146 0.1579,0.0161 0.1536,0.018 0.15,0.0203 0.1463,0.0221 0.1413,0.0233 0.1367,0.0256 0.1323,0.0271 0.1277,0.0287 0.1217,0.0308 0.1169,0.0317 0.1115,0.0336 0.1056,0.0355 0.0998,0.0368 0.0935,0.0378 0.0879,0.0403 0.0816,0.0413 0.0756,0.044 0.0688,0.0454 0.0624,0.0481 0.0558,0.0516 0.0483,0.0545 0.0403,0.0594 0.0313,0.0645 0.02,0.0688 0.0072,0.0716 H 6.862 L 6.8602,6.946 6.8538,6.9238 6.8415,6.8985 6.8214,6.8697 6.7931,6.8374 6.7563,6.8038 6.7109,6.7685 6.6567,6.7325 6.5949,6.6971 6.5249,6.661 6.4476,6.6261 6.3625,6.5913 6.2711,6.5577 6.1729,6.5254 6.0688,6.494 5.9583,6.4633 5.8418,6.4347 5.7205,6.407 5.5936,6.3809 5.4611,6.3565 5.324,6.3332 5.1829,6.3121 5.0371,6.2928 4.8867,6.2748 4.733,6.2587 4.5757,6.2451 4.4145,6.233 4.2507,6.223 4.0833,6.2151 3.9137,6.2094 3.7411,6.206 Z"
   class="fil1"
   id="_311415512" />
   </g>
   <ellipse
   id="ellipse11"
   ry="0.67721599"
   rx="3.0922501"
   cy="6.9668102"
   cx="3.56619"
   class="fil2" />
   <path
   id="path13"
   d="M 4.9468,7.6598 5.686,5.6282 C 5.8521,5.1717 5.6464,4.6606 5.1957,4.4795 L 4.4973,4.199 C 4.0876,4.0345 3.6112,4.2326 3.4531,4.6448 L 2.2915,7.6727 C 3.1802,7.7821 4.0654,7.7812 4.9468,7.6598 Z"
   class="fil3" />
   <path
   id="path15"
   d="M 4.7592,4.553 4.9047,4.6114 C 5.2991,4.7698 5.5057,5.1886 5.3638,5.542 L 4.4923,7.7117 C 4.4708,7.7137 4.4492,7.7155 4.4277,7.7174 L 4.4062,7.7192 C 4.3417,7.7245 4.2771,7.7292 4.2125,7.7332 L 4.191,7.7345 4.1479,7.737 4.1264,7.7382 C 4.0905,7.7401 4.0546,7.7419 4.0187,7.7435 l -0.0216,8e-4 -0.0215,9e-4 -0.0431,0.0016 -0.0216,7e-4 -0.0431,0.0013 -0.0215,6e-4 -0.0025,1e-4 -0.0406,9e-4 -0.0216,5e-4 -0.0216,4e-4 H 3.7577 l -0.0308,5e-4 -0.0352,5e-4 -0.0389,3e-4 h -6e-4 L 3.6307,7.7527 H 3.6285 l -0.041,2e-4 -0.0216,-1e-4 H 3.5444 L 3.5128,7.7526 3.479,7.7524 3.4449,7.752 3.4365,7.7518 3.4149,7.7515 3.4104,7.7514 3.3735,7.7507 3.3299,7.7498 3.3058,7.7492 3.2593,7.7478 3.2422,7.7473 3.2206,7.7465 3.1872,7.7453 3.1651,7.7444 3.1126,7.7422 v 0 C 3.0787,7.722 3.036,7.7235 2.9892,7.7358 2.8674,7.7288 2.7455,7.7197 2.6235,7.7085 L 3.5229,5.4672 C 3.5761,5.5336 3.6466,5.5877 3.7312,5.6217 3.9935,5.727 4.2916,5.5997 4.3969,5.3375 4.5022,5.0752 4.375,4.7772 4.1127,4.6718 4.0643,4.6524 4.0147,4.6409 3.9653,4.6367 4.1762,4.4818 4.4785,4.4402 4.7592,4.553 Z"
   class="fil4" />
   <path
   id="path17"
   d="M 3.9409,4.9381 C 4.0592,4.9855 4.1166,5.12 4.0691,5.2383 4.0216,5.3565 3.8871,5.4139 3.7689,5.3664 3.6506,5.3189 3.5932,5.1845 3.6407,5.0662 3.6882,4.9479 3.8226,4.8905 3.9409,4.9381 Z"
   class="fil4" />
   <rect
   y="0"
   x="0"
   id="rect19"
   height="14.2113"
   width="4.0767002"
   transform="matrix(0.244417,0.0981708,-0.0981708,0.244417,5.71356,0.686173)"
   class="fil3" />
   <rect
   y="0"
   x="0"
   id="rect21"
   height="9.4106998"
   width="1.7145"
   transform="matrix(0.244417,0.0981708,-0.0981708,0.244417,5.58341,1.79103)"
   class="fil4" />
   <path
   id="path23"
   d="M 5.4592,0 6.3253,0.3479 C 6.648,0.4775 6.8247,0.8007 6.6952,1.1233 L 6.5305,1.5334 C 6.37,1.9328 5.9118,2.1284 5.5123,1.968 L 4.786,1.6762 C 4.4678,1.1163 4.8579,0.1541 5.4592,0 Z"
   class="fil5" />
   <path
   id="path25"
   d="M 5.0269,1.3188 C 5.0862,1.3426 5.1455,1.3664 5.2048,1.3902 5.2801,0.9044 5.5191,0.7636 5.6408,0.8559 5.788,0.9674 5.6793,1.2136 5.6126,1.3382 5.5628,1.4316 5.5001,1.514 5.4272,1.5877 6.0779,1.8246 6.5249,1.0398 6.1087,0.6718 5.916,0.5944 5.7233,0.517 5.5306,0.4396 5.3308,0.4366 5.1757,0.8481 5.0269,1.3188 Z"
   class="fil2" />
   <path
   id="path27"
   d="M 3.616,8.5082 C 3.4636,8.5219 3.3128,8.531 3.1636,8.5354 M 2.8393,8.5377 C 2.214,8.5279 1.6161,8.4349 1.0442,8.2643"
   class="fil0 str0" />
  </g>
 </g>
</svg>
