<?xml version="1.0" encoding="UTF-8" standalone="no"?>
<svg
   xmlns:dc="http://purl.org/dc/elements/1.1/"
   xmlns:cc="http://creativecommons.org/ns#"
   xmlns:rdf="http://www.w3.org/1999/02/22-rdf-syntax-ns#"
   xmlns:svg="http://www.w3.org/2000/svg"
   xmlns="http://www.w3.org/2000/svg"
   xmlns:sodipodi="http://sodipodi.sourceforge.net/DTD/sodipodi-0.dtd"
   xmlns:inkscape="http://www.inkscape.org/namespaces/inkscape"
   inkscape:version="1.0 (4035a4fb49, 2020-05-01)"
   sodipodi:docname="singlefamilyhome_unchecked.svg"
   id="svg45"
   version="1.1"
   viewBox="0 0 292.4 194.1"
   xml:space="preserve"><metadata
   id="metadata49"><rdf:RDF><cc:Work
       rdf:about=""><dc:format>image/svg+xml</dc:format><dc:type
         rdf:resource="http://purl.org/dc/dcmitype/StillImage" /></cc:Work></rdf:RDF></metadata><sodipodi:namedview
   inkscape:current-layer="svg45"
   inkscape:window-maximized="1"
   inkscape:window-y="-6"
   inkscape:window-x="-6"
   inkscape:cy="61.698302"
   inkscape:cx="146.2"
   inkscape:zoom="2.5244718"
   showgrid="false"
   id="namedview47"
   inkscape:window-height="658"
   inkscape:window-width="1280"
   inkscape:pageshadow="2"
   inkscape:pageopacity="0"
   guidetolerance="10"
   gridtolerance="10"
   objecttolerance="10"
   borderopacity="1"
   bordercolor="#666666"
   pagecolor="#ffffff" />
 <defs
   id="defs4">
  <style
   id="style2"
   type="text/css">
   <![CDATA[
    .fil2 {fill:#3F4446}
    .fil0 {fill:#D9DBDD}
    .fil1 {fill:#3F4446;fill-rule:nonzero}
   ]]>
  </style>
 </defs>
 <g
   transform="matrix(12.69606,0,0,13.964517,0.79224492,7.9216692)"
   id="Layer_x0020_1">
  <metadata
   id="CorelCorpID_0Corel-Layer" />
  <g
   id="_312041984">
   <path
   d="m 0.668894,4.44346 5.96575,0.064499 3.42367,-3.13457 h -4.76006 z m 15.2022,0.090199 6.15635,-0.090199 -4.60136,-3.07007 h -4.78986 z"
   class="fil0"
   id="_312043712" />
   <path
   d="M 1.25019,4.26796 H 6.75724 L 6.357144,4.618857 h -5.68825 v -4e-4 C 0.6121945,4.618357 0.556595,4.590857 0.522995,4.540058 0.4695955,4.459459 0.4916953,4.35086 0.5722946,4.29746 l 4.61966,-3.06347 c 0.0295,-0.0226 0.066299,-0.036 0.106299,-0.036 H 10.258414 L 9.8583176,1.548887 h -4.50786 l -4.10026,2.71908 z m 14.5333,0 h 5.66595 L 17.37398,1.54888 H 12.82692 L 12.445423,1.197983 h 4.98066 v 6e-4 c 0.0335,0 0.0674,0.0096 0.0973,0.0296 l 4.58896,3.06177 c 0.054,0.0299 0.0905,0.087399 0.0905,0.153499 0,0.096799 -0.0786,0.175398 -0.175398,0.175398 h -5.86245 L 15.783498,4.267953 Z"
   class="fil1"
   id="_312043640" />
   <rect
   height="0.880624"
   width="5.3220301"
   y="4.4814901"
   x="1.55559"
   class="fil0"
   id="_312043568" />
   <polygon
   points="16.6475,5.37485 16.6475,12.6761 15.5107,12.6761 15.5107,4.30216 16.6475,4.30216 16.6475,4.39816 21.1947,4.39816 21.1947,5.37485 "
   class="fil0"
   id="_312043496" />
   <polygon
   points="11.3701,0.142199 6.66064,4.40496 7.03144,4.46616 7.06524,5.50415 11.3828,1.55889 15.508,5.56415 15.7888,4.55346 16.0668,4.44316 "
   class="fil0"
   id="_312043424" />
   <ellipse
   ry="1.37419"
   rx="1.33764"
   cy="4.4288201"
   cx="11.3774"
   class="fil2"
   id="_312043352" />
   <ellipse
   ry="0.93865001"
   rx="0.91368502"
   cy="4.4288101"
   cx="11.3774"
   class="fil0"
   id="_312043280" />
   <g
   id="g15">
    <path
   d="M 7.19144,4.44276 7.016042,4.617458 H 1.490492 V 4.268061 h 5.52555 z M 7.016042,4.617458 V 4.268061 l 0.009,2e-4 0.0089,7e-4 0.0088,0.0011 0.0086,0.0016 0.0085,0.0019 0.0083,0.0024 0.0082,0.0027 0.0079,0.0031 0.0078,0.0035 0.0076,0.0039 0.0073,0.0042 0.0071,0.0046 0.0069,0.0048 0.0066,0.0052 0.0064,0.0055 0.0061,0.0058 0.0058,0.0061 0.0055,0.0063 0.0052,0.0066 0.0049,0.0069 0.0046,0.007 0.0042,0.0074 0.0039,0.0075 0.0035,0.0077 0.0031,0.008 0.0028,0.0081 0.0024,0.0083 0.0019,0.0084 0.0016,0.0086 0.0011,0.0088 7e-4,0.0088 2e-4,0.009 -2e-4,0.009 -7e-4,0.0088 -0.0011,0.0088 -0.0016,0.0086 -0.0019,0.0084 -0.0024,0.0083 -0.0028,0.0081 -0.0031,0.008 -0.0035,0.0077 -0.0039,0.0075 -0.0042,0.0074 -0.0046,0.007 -0.0049,0.0069 -0.0052,0.0066 -0.0055,0.0063 -0.0058,0.0061 -0.0061,0.0058 -0.0064,0.0055 -0.0066,0.0052 -0.0069,0.0048 -0.0071,0.0046 -0.0073,0.0042 -0.0076,0.0039 -0.0078,0.0035 -0.0079,0.0031 -0.0082,0.0027 -0.0083,0.0024 -0.0085,0.0019 -0.0086,0.0016 -0.0088,0.0011 -0.0089,7e-4 z m 0,8.21543 L 6.840644,12.65819 V 4.44276 h 0.350797 v 8.21543 z M 6.840644,12.65819 h 0.350797 l -2e-4,0.009 -7e-4,0.0088 -0.0011,0.0088 -0.0016,0.0086 -0.0019,0.0084 -0.0024,0.0083 -0.0028,0.0081 -0.0031,0.008 -0.0035,0.0077 -0.0039,0.0075 -0.0042,0.0074 -0.0046,0.007 -0.0049,0.0069 -0.0052,0.0066 -0.0055,0.0063 -0.0058,0.0061 -0.0061,0.0058 -0.0064,0.0055 -0.0066,0.0052 -0.0069,0.0048 -0.0071,0.0046 -0.0073,0.0042 -0.0076,0.0039 -0.0078,0.0035 -0.0079,0.0031 -0.0082,0.0027 -0.0083,0.0024 -0.0085,0.0019 -0.0086,0.0016 -0.0088,0.0011 -0.0089,7e-4 -0.009,2e-4 -0.009,-2e-4 -0.0089,-7e-4 -0.0088,-0.0011 -0.0086,-0.0016 -0.0085,-0.0019 -0.0083,-0.0024 -0.0082,-0.0027 -0.0079,-0.0031 -0.0078,-0.0035 -0.0076,-0.0039 -0.0073,-0.0042 -0.0071,-0.0046 -0.0069,-0.0048 -0.0066,-0.0052 -0.0064,-0.0055 -0.0061,-0.0058 -0.0058,-0.0061 -0.0055,-0.0063 -0.0052,-0.0066 -0.0049,-0.0069 -0.0046,-0.007 -0.0042,-0.0074 -0.0039,-0.0075 -0.0035,-0.0077 -0.0031,-0.008 -0.0028,-0.0081 -0.0024,-0.0083 -0.0019,-0.0084 -0.0016,-0.0086 -0.0011,-0.0088 -7e-4,-0.0088 z m -5.52555,0 0.175398,-0.174698 h 5.52555 v 0.349397 H 1.490492 L 1.315094,12.658191 Z m 0.175398,-0.174698 v 0.349397 l -0.009,-2e-4 -0.0089,-7e-4 -0.0088,-0.0011 -0.0086,-0.0016 -0.0085,-0.0019 -0.0083,-0.0024 -0.0082,-0.0027 -0.0079,-0.0031 -0.0078,-0.0035 -0.0076,-0.0039 -0.0073,-0.0042 -0.0071,-0.0046 -0.0069,-0.0048 -0.0066,-0.0052 -0.0064,-0.0055 -0.0061,-0.0058 -0.0058,-0.0061 -0.0055,-0.0063 -0.0052,-0.0066 -0.0049,-0.0069 -0.0046,-0.007 -0.0042,-0.0074 -0.0039,-0.0075 -0.0035,-0.0077 -0.0031,-0.008 -0.0028,-0.0081 -0.0024,-0.0083 -0.0019,-0.0084 -0.0016,-0.0086 -0.0011,-0.0088 -7e-4,-0.0088 -2e-4,-0.009 2e-4,-0.009 7e-4,-0.0088 0.0011,-0.0088 0.0016,-0.0086 0.0019,-0.0084 0.0024,-0.0083 0.0028,-0.0081 0.0031,-0.008 0.0035,-0.0077 0.0039,-0.0075 0.0042,-0.0074 0.0046,-0.007 0.0049,-0.0069 0.0052,-0.0066 0.0055,-0.0063 0.0058,-0.0061 0.0061,-0.0058 0.0064,-0.0055 0.0066,-0.0052 0.0069,-0.0048 0.0071,-0.0046 0.0073,-0.0042 0.0076,-0.0039 0.0078,-0.0035 0.0079,-0.0031 0.0082,-0.0027 0.0083,-0.0024 0.0085,-0.0019 0.0086,-0.0016 0.0088,-0.0011 0.0089,-7e-4 z m 0,-8.21543 0.175398,0.174698 v 8.21543 H 1.315093 V 4.44276 L 1.490491,4.268062 Z M 1.66589,4.44276 H 1.315093 l 2e-4,-0.009 7e-4,-0.0088 0.0011,-0.0088 0.0016,-0.0086 0.0019,-0.0084 0.0024,-0.0083 0.0028,-0.0081 0.0031,-0.008 0.0035,-0.0077 0.0039,-0.0075 0.0042,-0.0074 0.0046,-0.007 0.0049,-0.0069 0.0052,-0.0066 0.0055,-0.0063 0.0058,-0.0061 0.0061,-0.0058 0.0064,-0.0055 0.0066,-0.0052 0.0069,-0.0048 0.0071,-0.0046 0.0073,-0.0042 0.0076,-0.0039 0.0078,-0.0035 0.0079,-0.0031 0.0082,-0.0027 0.0083,-0.0024 0.0085,-0.0019 0.0086,-0.0016 0.0088,-0.0011 0.0089,-7e-4 0.009,-2e-4 0.009,2e-4 0.0089,7e-4 0.0088,0.0011 0.0086,0.0016 0.0085,0.0019 0.0083,0.0024 0.0082,0.0027 0.0079,0.0031 0.0078,0.0035 0.0076,0.0039 0.0073,0.0042 0.0071,0.0046 0.0069,0.0048 0.0066,0.0052 0.0064,0.0055 0.0061,0.0058 0.0058,0.0061 0.0055,0.0063 0.0052,0.0066 0.0049,0.0069 0.0046,0.007 0.0042,0.0074 0.0039,0.0075 0.0035,0.0077 0.0031,0.008 0.0028,0.0081 0.0024,0.0083 0.0019,0.0084 0.0016,0.0086 0.0011,0.0088 7e-4,0.0088 z"
   class="fil1"
   id="_312043208" />
   </g>
   <rect
   id="rect17"
   ry="1.07259"
   rx="1.07259"
   height="3.9112101"
   width="2.7183499"
   y="5.6348701"
   x="2.9628899"
   class="fil2" />
   <rect
   id="rect19"
   height="3.0509701"
   width="0.73406899"
   y="6.06499"
   x="3.3758099"
   class="fil0" />
   <rect
   id="rect21"
   height="3.0509701"
   width="0.73406899"
   y="6.06499"
   x="4.5342598"
   class="fil0" />
   <rect
   id="rect23"
   height="0.440561"
   width="5.5538502"
   y="10.7346"
   x="1.47633"
   class="fil2" />
   <rect
   x="0"
   id="rect25"
   ry="0.66919398"
   rx="0.66919398"
   height="0.44367701"
   width="22.8018"
   y="12.383"
   class="fil2" />
   <path
   id="path27"
   d="m 10.4269,7.69263 h 1.87828 c 0.265198,0 0.482196,0.216998 0.482196,0.482196 v 4.35076 h -2.85217 v -4.34116 c 0,-0.270498 0.221298,-0.491796 0.491696,-0.491796 z"
   class="fil2" />
   <rect
   id="rect29"
   height="4.2157602"
   width="1.8903"
   y="8.1655197"
   x="10.4162"
   class="fil0" />
   <rect
   id="rect31"
   ry="1.07259"
   rx="1.07259"
   height="3.9112101"
   width="2.7183499"
   y="5.6348701"
   x="17.0436"
   class="fil2" />
   <g
   id="g35">
    <path
   id="path33"
   d="m 21.3701,4.44276 -0.175398,0.174698 h -5.52555 V 4.268061 h 5.52555 z M 21.194702,4.617458 V 4.268061 l 0.009,2e-4 0.0089,7e-4 0.0088,0.0011 0.0086,0.0016 0.0085,0.0019 0.0083,0.0024 0.0082,0.0027 0.0079,0.0031 0.0078,0.0035 0.0076,0.0039 0.0073,0.0042 0.0071,0.0046 0.0069,0.0048 0.0066,0.0052 0.0064,0.0055 0.0061,0.0058 0.0058,0.0061 0.0055,0.0063 0.0052,0.0066 0.0049,0.0069 0.0046,0.007 0.0042,0.0074 0.0039,0.0075 0.0035,0.0077 0.0031,0.008 0.0028,0.0081 0.0024,0.0083 0.0019,0.0084 0.0016,0.0086 0.0011,0.0088 7e-4,0.0088 2e-4,0.009 -2e-4,0.009 -7e-4,0.0088 -0.0011,0.0088 -0.0016,0.0086 -0.0019,0.0084 -0.0024,0.0083 -0.0028,0.0081 -0.0031,0.008 -0.0035,0.0077 -0.0039,0.0075 -0.0042,0.0074 -0.0046,0.007 -0.0049,0.0069 -0.0052,0.0066 -0.0055,0.0063 -0.0058,0.0061 -0.0061,0.0058 -0.0064,0.0055 -0.0066,0.0052 -0.0069,0.0048 -0.0071,0.0046 -0.0073,0.0042 -0.0076,0.0039 -0.0078,0.0035 -0.0079,0.0031 -0.0082,0.0027 -0.0083,0.0024 -0.0085,0.0019 -0.0086,0.0016 -0.0088,0.0011 -0.0089,7e-4 z m 0,8.21543 -0.175398,-0.174698 V 4.44276 h 0.350797 v 8.21543 z M 21.019304,12.65819 h 0.350797 l -2e-4,0.009 -7e-4,0.0088 -0.0011,0.0088 -0.0016,0.0086 -0.0019,0.0084 -0.0024,0.0083 -0.0028,0.0081 -0.0031,0.008 -0.0035,0.0077 -0.0039,0.0075 -0.0042,0.0074 -0.0046,0.007 -0.0049,0.0069 -0.0052,0.0066 -0.0055,0.0063 -0.0058,0.0061 -0.0061,0.0058 -0.0064,0.0055 -0.0066,0.0052 -0.0069,0.0048 -0.0071,0.0046 -0.0073,0.0042 -0.0076,0.0039 -0.0078,0.0035 -0.0079,0.0031 -0.0082,0.0027 -0.0083,0.0024 -0.0085,0.0019 -0.0086,0.0016 -0.0088,0.0011 -0.0089,7e-4 -0.009,2e-4 -0.009,-2e-4 -0.0089,-7e-4 -0.0088,-0.0011 -0.0086,-0.0016 -0.0085,-0.0019 -0.0083,-0.0024 -0.0082,-0.0027 -0.0079,-0.0031 -0.0078,-0.0035 -0.0076,-0.0039 -0.0073,-0.0042 -0.0071,-0.0046 -0.0069,-0.0048 -0.0066,-0.0052 -0.0064,-0.0055 -0.0061,-0.0058 -0.0058,-0.0061 -0.0055,-0.0063 -0.0052,-0.0066 -0.0049,-0.0069 -0.0046,-0.007 -0.0042,-0.0074 -0.0039,-0.0075 -0.0035,-0.0077 -0.0031,-0.008 -0.0028,-0.0081 -0.0024,-0.0083 -0.0019,-0.0084 -0.0016,-0.0086 -0.0011,-0.0088 -7e-4,-0.0088 z m -5.52555,0 0.175398,-0.174698 h 5.52555 v 0.349397 h -5.52555 l -0.175398,-0.174698 z m 0.175398,-0.174698 v 0.349397 l -0.009,-2e-4 -0.0089,-7e-4 -0.0088,-0.0011 -0.0086,-0.0016 -0.0085,-0.0019 -0.0083,-0.0024 -0.0082,-0.0027 -0.0079,-0.0031 -0.0078,-0.0035 -0.0076,-0.0039 -0.0073,-0.0042 -0.0071,-0.0046 -0.0069,-0.0048 -0.0066,-0.0052 -0.0064,-0.0055 -0.0061,-0.0058 -0.0058,-0.0061 -0.0055,-0.0063 -0.0052,-0.0066 -0.0049,-0.0069 -0.0046,-0.007 -0.0042,-0.0074 -0.0039,-0.0075 -0.0035,-0.0077 -0.0031,-0.008 -0.0028,-0.0081 -0.0024,-0.0083 -0.0019,-0.0084 -0.0016,-0.0086 -0.0011,-0.0088 -7e-4,-0.0088 -2e-4,-0.009 2e-4,-0.009 7e-4,-0.0088 0.0011,-0.0088 0.0016,-0.0086 0.0019,-0.0084 0.0024,-0.0083 0.0028,-0.0081 0.0031,-0.008 0.0035,-0.0077 0.0039,-0.0075 0.0042,-0.0074 0.0046,-0.007 0.0049,-0.0069 0.0052,-0.0066 0.0055,-0.0063 0.0058,-0.0061 0.0061,-0.0058 0.0064,-0.0055 0.0066,-0.0052 0.0069,-0.0048 0.0071,-0.0046 0.0073,-0.0042 0.0076,-0.0039 0.0078,-0.0035 0.0079,-0.0031 0.0082,-0.0027 0.0083,-0.0024 0.0085,-0.0019 0.0086,-0.0016 0.0088,-0.0011 0.0089,-7e-4 z m 0,-8.21543 0.175398,0.174698 v 8.21543 H 15.493753 V 4.44276 L 15.669151,4.268062 Z M 15.84455,4.44276 h -0.350797 l 2e-4,-0.009 7e-4,-0.0088 0.0011,-0.0088 0.0016,-0.0086 0.0019,-0.0084 0.0024,-0.0083 0.0028,-0.0081 0.0031,-0.008 0.0035,-0.0077 0.0039,-0.0075 0.0042,-0.0074 0.0046,-0.007 0.0049,-0.0069 0.0052,-0.0066 0.0055,-0.0063 0.0058,-0.0061 0.0061,-0.0058 0.0064,-0.0055 0.0066,-0.0052 0.0069,-0.0048 0.0071,-0.0046 0.0073,-0.0042 0.0076,-0.0039 0.0078,-0.0035 0.0079,-0.0031 0.0082,-0.0027 0.0083,-0.0024 0.0085,-0.0019 0.0086,-0.0016 0.0088,-0.0011 0.0089,-7e-4 0.009,-2e-4 0.009,2e-4 0.0089,7e-4 0.0088,0.0011 0.0086,0.0016 0.0085,0.0019 0.0083,0.0024 0.0082,0.0027 0.0079,0.0031 0.0078,0.0035 0.0076,0.0039 0.0073,0.0042 0.0071,0.0046 0.0069,0.0048 0.0066,0.0052 0.0064,0.0055 0.0061,0.0058 0.0058,0.0061 0.0055,0.0063 0.0052,0.0066 0.0049,0.0069 0.0046,0.007 0.0042,0.0074 0.0039,0.0075 0.0035,0.0077 0.0031,0.008 0.0028,0.0081 0.0024,0.0083 0.0019,0.0084 0.0016,0.0086 0.0011,0.0088 7e-4,0.0088 z"
   class="fil1" />
   </g>
   <polygon
   id="polygon37"
   points="19.349,6.06495 19.349,9.11592 18.6149,9.11592 18.6149,8.41343 18.1905,8.41343 18.1905,9.11592 17.4565,9.11592 17.4565,6.06495 18.1905,6.06495 18.1905,7.92213 18.6149,7.92213 18.6149,6.06495 "
   class="fil0" />
   <rect
   id="rect39"
   height="0.440561"
   width="5.5538502"
   y="10.7346"
   x="15.655"
   class="fil2" />
   <path
   id="path41"
   d="M 6.42044,5.06996 C 6.352141,5.134759 6.246542,5.12916 6.184742,5.05766 6.122843,4.986161 6.128143,4.875662 6.196442,4.810962 l 5.04316,-4.76576 c 0.0645,-0.0610995 0.162199,-0.0595995 0.224998,9.9999e-4 l 2e-4,-3e-4 4.87556,4.67806001 c 0.0679,0.065399 0.0723,0.176198 0.0098,0.247398 -0.0626,0.071099 -0.168399,0.075699 -0.236398,0.0102 L 11.350402,0.41109999 6.4204418,5.06996 Z"
   class="fil1" />
  </g>
 </g>
</svg>
