<?xml version="1.0" encoding="UTF-8" standalone="no"?>
<svg
   xmlns:dc="http://purl.org/dc/elements/1.1/"
   xmlns:cc="http://creativecommons.org/ns#"
   xmlns:rdf="http://www.w3.org/1999/02/22-rdf-syntax-ns#"
   xmlns:svg="http://www.w3.org/2000/svg"
   xmlns="http://www.w3.org/2000/svg"
   xmlns:sodipodi="http://sodipodi.sourceforge.net/DTD/sodipodi-0.dtd"
   xmlns:inkscape="http://www.inkscape.org/namespaces/inkscape"
   inkscape:version="1.0 (4035a4fb49, 2020-05-01)"
   sodipodi:docname="singlelives_unchecked.svg"
   id="svg31"
   version="1.1"
   viewBox="0 0 292.4 194.1"
   xml:space="preserve"><metadata
   id="metadata35"><rdf:RDF><cc:Work
       rdf:about=""><dc:format>image/svg+xml</dc:format><dc:type
         rdf:resource="http://purl.org/dc/dcmitype/StillImage" /></cc:Work></rdf:RDF></metadata><sodipodi:namedview
   inkscape:current-layer="svg31"
   inkscape:window-maximized="1"
   inkscape:window-y="-6"
   inkscape:window-x="-6"
   inkscape:cy="50.820856"
   inkscape:cx="146.2"
   inkscape:zoom="2.5244718"
   showgrid="false"
   id="namedview33"
   inkscape:window-height="658"
   inkscape:window-width="1280"
   inkscape:pageshadow="2"
   inkscape:pageopacity="0"
   guidetolerance="10"
   gridtolerance="10"
   objecttolerance="10"
   borderopacity="1"
   bordercolor="#666666"
   pagecolor="#ffffff" />
 <defs
   id="defs4">
  <style
   id="style2"
   type="text/css">
   <![CDATA[
    .str0 {stroke:#3F4446;stroke-width:0.2805;stroke-linecap:round;stroke-linejoin:round}
    .fil0 {fill:none}
    .fil2 {fill:white}
    .fil3 {fill:#3F4446}
    .fil1 {fill:#3F4446;fill-rule:nonzero}
   ]]>
  </style>
 </defs>
 <g
   transform="matrix(13.056975,0,0,13.056975,94.277146,3.0893572)"
   id="Layer_x0020_1">
  <metadata
   id="CorelCorpID_0Corel-Layer" />
  <g
   id="_18.cdr">
   <path
   d="M 6.9778,7.6105 C 6.8823,8.4628 6.7869,9.1966 6.6914,10.0489 m -0.0599,0.5345 c -0.1184,1.0561 -0.2367,2.1123 -0.355,3.1685 -1.205,0.6291 -3.7912,0.7151 -5.2339,0 C 0.8304,11.7171 0.6183,9.6824 0.4062,7.6478"
   class="fil0 str0"
   id="_311902528" />
   <g
   id="g9">
    <path
   d="M 0.2798,7.2127 H 0 v 0 L 0.0073,7.1386 0.0281,7.0674 0.0605,7.0006 0.1022,6.939 0.1523,6.8825 0.21,6.8292 0.2746,6.7794 0.3459,6.7324 0.4241,6.6868 0.5086,6.6441 0.599,6.6025 0.6963,6.5631 0.7998,6.5251 0.909,6.4883 1.0245,6.4536 1.1454,6.4208 1.2715,6.389 1.4037,6.3592 1.5401,6.3311 1.6821,6.3046 1.8284,6.2804 1.9799,6.2576 2.1353,6.2365 2.2942,6.2179 2.4577,6.2013 2.625,6.1862 2.7951,6.1736 2.9691,6.1633 3.1456,6.1551 3.3256,6.1492 3.5076,6.1456 3.692,6.1439 V 6.4243 L 3.5108,6.425 3.3322,6.4286 3.1566,6.4345 2.9833,6.4427 2.8137,6.453 2.6468,6.4656 2.4839,6.4797 2.3248,6.4963 2.1691,6.5149 2.0181,6.5348 1.8722,6.5566 1.7303,6.5808 1.5937,6.6061 1.4617,6.6332 1.3361,6.6618 1.2154,6.6914 1.1011,6.7232 0.9932,6.7557 0.8916,6.7891 0.7969,6.8239 0.7094,6.8599 0.6288,6.8961 0.5563,6.9334 0.4923,6.9702 0.4364,7.0074 0.3892,7.044 0.3513,7.0787 0.322,7.1122 0.3011,7.142 0.2883,7.1682 0.2817,7.1912 Z M 3.692,8.0011 v 0.2804 0 L 3.5076,8.2798 3.3256,8.2762 3.1456,8.2703 2.9691,8.2621 2.7951,8.2518 2.625,8.2392 2.4577,8.2241 2.2942,8.2075 2.1353,8.1889 1.9799,8.1678 1.8284,8.145 1.6821,8.1208 1.5401,8.0943 1.4037,8.0662 1.2715,8.0364 1.1454,8.0046 1.0245,7.9718 0.909,7.9371 0.7998,7.9003 0.6963,7.8623 0.599,7.8229 0.5086,7.7813 0.4241,7.7386 0.3459,7.693 0.2746,7.646 0.21,7.5962 0.1523,7.5429 0.1022,7.4864 0.0605,7.4248 0.0281,7.358 0.0073,7.2868 0,7.2127 h 0.2798 l 0.0019,0.0215 0.0066,0.023 0.0128,0.0262 0.0209,0.0298 0.0293,0.0335 0.0379,0.0347 0.0472,0.0366 0.0559,0.0372 0.064,0.0368 0.0725,0.0373 0.0806,0.0362 0.0875,0.036 0.0947,0.0348 0.1016,0.0334 0.1079,0.0325 0.1143,0.0318 0.1207,0.0296 0.1256,0.0286 0.132,0.0271 0.1366,0.0253 0.1419,0.0242 0.1459,0.0218 0.151,0.0199 0.1557,0.0186 0.1591,0.0166 0.1629,0.0141 0.1669,0.0126 0.1696,0.0103 0.1733,0.0082 0.1756,0.0059 0.1786,0.0036 z M 7.1041,7.2127 h 0.2798 v 0 L 7.3766,7.2868 7.3558,7.358 7.3234,7.4248 7.2817,7.4858 7.2317,7.5429 7.1739,7.5962 7.1093,7.646 7.038,7.693 6.9598,7.7386 6.8753,7.7813 6.7849,7.8229 6.6876,7.8623 6.5842,7.9003 6.4749,7.9371 6.3594,7.9718 6.2385,8.0046 6.1125,8.0364 5.9803,8.0662 5.8439,8.0943 5.7019,8.1208 5.5556,8.145 5.4041,8.1678 5.2487,8.1889 5.0898,8.2075 4.9263,8.2241 4.759,8.2392 4.5889,8.2518 4.4149,8.2621 4.2384,8.2703 4.0584,8.2762 3.8764,8.2798 3.692,8.2815 V 8.0011 L 3.8732,8.0004 4.0518,7.9968 4.2274,7.9909 4.4007,7.9827 4.5703,7.9724 4.7372,7.9598 4.9001,7.9457 5.0592,7.9291 5.2149,7.9105 5.3659,7.8906 5.5118,7.8688 5.6537,7.8446 5.7903,7.8193 5.9223,7.7922 6.0479,7.7636 6.1685,7.734 6.2828,7.7022 6.3907,7.6697 6.4924,7.6363 6.587,7.6015 6.6745,7.5655 6.7551,7.5293 6.8276,7.492 6.8916,7.4552 6.9475,7.418 6.9947,7.3814 7.0327,7.3467 7.0619,7.3138 7.0828,7.2834 7.0956,7.2572 7.1022,7.2342 Z M 3.692,6.4243 v -0.2804 0 l 0.1844,0.0017 0.182,0.0036 0.18,0.0059 0.1765,0.0082 0.174,0.0103 0.1701,0.0126 0.1673,0.0151 0.1635,0.0166 0.1589,0.0186 0.1554,0.0211 0.1515,0.0228 0.1463,0.0242 0.142,0.0265 0.1364,0.0281 0.1322,0.0298 0.126,0.0318 0.1209,0.0328 0.1155,0.0347 0.1093,0.0368 0.1034,0.038 0.0973,0.0394 0.0904,0.0416 0.0845,0.0427 0.0782,0.0456 0.0713,0.047 0.0646,0.0498 0.0578,0.0533 0.05,0.0571 0.0417,0.061 0.0324,0.0668 0.0208,0.0712 0.0073,0.0741 H 7.1041 L 7.1022,7.1912 7.0956,7.1682 7.0828,7.142 7.0619,7.1116 7.0327,7.0787 6.9947,7.044 6.9475,7.0074 6.8916,6.9702 6.8276,6.9334 6.7551,6.8961 6.6745,6.8599 6.587,6.8239 6.4924,6.7891 6.3907,6.7557 6.2828,6.7232 6.1685,6.6914 6.0479,6.6618 5.9223,6.6332 5.7903,6.6061 5.6537,6.5808 5.5118,6.5566 5.3659,6.5348 5.2149,6.5149 5.0592,6.4963 4.9001,6.4797 4.7372,6.4656 4.5703,6.453 4.4007,6.4427 4.2274,6.4345 4.0518,6.4286 3.8732,6.425 Z"
   class="fil1"
   id="_311902456" />
   </g>
   <ellipse
   id="ellipse11"
   ry="0.70111799"
   rx="3.20139"
   cy="7.2126999"
   cx="3.6919899"
   class="fil2" />
   <path
   id="path13"
   d="M 5.1214,7.9302 5.8867,5.8268 C 6.0586,5.3543 5.8456,4.8251 5.379,4.6376 L 4.6559,4.3472 C 4.2318,4.1769 3.7386,4.3819 3.5749,4.8087 L 2.3723,7.9435 C 3.2924,8.0567 4.2088,8.0558 5.1214,7.9302 Z"
   class="fil3" />
   <path
   id="path15"
   d="M 4.9271,4.7137 5.0777,4.7741 C 5.4861,4.9382 5.7,5.3717 5.553,5.7376 L 4.6508,7.9839 C 4.6285,7.9859 4.6062,7.9879 4.5839,7.9897 L 4.5617,7.9916 C 4.4949,7.9971 4.428,8.002 4.3611,8.0061 L 4.3388,8.0075 4.2942,8.0101 4.2719,8.0113 C 4.2348,8.0133 4.1976,8.0151 4.1604,8.0167 L 4.1382,8.0177 4.1158,8.0186 4.0712,8.0202 4.0489,8.021 4.0043,8.0223 3.982,8.0229 3.9794,8.023 3.9373,8.024 3.915,8.0245 3.8927,8.0249 H 3.8903 l -0.0319,5e-4 -0.0365,5e-4 -0.0403,3e-4 h -5e-4 l -0.0224,2e-4 H 3.7565 L 3.7141,8.0265 H 3.6917 L 3.6694,8.0264 3.6367,8.0263 3.6017,8.026 3.5664,8.0255 3.5577,8.0254 3.5353,8.0251 3.5307,8.025 3.4925,8.0243 3.4474,8.0233 3.4224,8.0227 3.3743,8.0213 3.3565,8.0207 3.3342,8.0199 3.2997,8.0187 3.2768,8.0178 3.2224,8.0154 v 0 C 3.1873,7.9945 3.1431,7.9961 3.0946,8.0088 2.9685,8.0016 2.8423,7.9922 2.7161,7.9805 L 3.6471,5.6602 C 3.7023,5.7289 3.7752,5.7849 3.8628,5.8201 4.1344,5.9291 4.443,5.7974 4.552,5.5259 4.6611,5.2544 4.5293,4.9458 4.2578,4.8367 4.2077,4.8166 4.1564,4.8046 4.1052,4.8003 4.3235,4.64 4.6365,4.5969 4.9271,4.7137 Z"
   class="fil2" />
   <path
   id="path17"
   d="M 4.0799,5.1123 C 4.2024,5.1615 4.2618,5.3007 4.2126,5.4231 4.1634,5.5456 4.0242,5.605 3.9018,5.5558 3.7794,5.5067 3.7199,5.3675 3.7691,5.245 3.8183,5.1225 3.9575,5.0631 4.0799,5.1123 Z"
   class="fil2" />
   <rect
   y="0"
   x="0"
   id="rect19"
   height="14.2113"
   width="4.0767002"
   transform="matrix(0.253043,0.101636,-0.101636,0.253043,5.91515,0.710392)"
   class="fil3" />
   <rect
   y="0"
   x="0"
   id="rect21"
   height="9.4106998"
   width="1.7145"
   transform="matrix(0.253043,0.101636,-0.101636,0.253043,5.78041,1.85425)"
   class="fil2" />
   <path
   id="path23"
   d="m 5.6519,0 0.8966,0.3601 c 0.334,0.1342 0.517,0.4688 0.3829,0.8028 L 6.7609,1.5875 C 6.5948,2.001 6.1204,2.2035 5.7068,2.0374 L 4.9548,1.7354 C 4.6254,1.1557 5.0293,0.1596 5.6519,0 Z"
   class="fil3" />
   <path
   id="path25"
   d="M 5.2042,1.3653 C 5.2656,1.39 5.327,1.4146 5.3884,1.4393 5.4664,0.9363 5.7138,0.7906 5.8398,0.8861 5.9922,1.0015 5.8796,1.2564 5.8106,1.3855 5.759,1.4821 5.6941,1.5674 5.6186,1.6437 6.2923,1.889 6.7551,1.0765 6.3242,0.6955 6.1247,0.6154 5.9252,0.5353 5.7257,0.4551 5.5189,0.452 5.3583,0.878 5.2042,1.3653 Z"
   class="fil2" />
   <path
   id="path27"
   d="M 3.7435,8.8084 C 3.5858,8.8227 3.4297,8.8321 3.2752,8.8367 M 2.9394,8.8391 C 2.292,8.8289 1.6731,8.7326 1.081,8.556"
   class="fil0 str0" />
  </g>
 </g>
</svg>
