<?xml version="1.0" encoding="UTF-8" standalone="no"?>
<svg
   xmlns:dc="http://purl.org/dc/elements/1.1/"
   xmlns:cc="http://creativecommons.org/ns#"
   xmlns:rdf="http://www.w3.org/1999/02/22-rdf-syntax-ns#"
   xmlns:svg="http://www.w3.org/2000/svg"
   xmlns="http://www.w3.org/2000/svg"
   xmlns:sodipodi="http://sodipodi.sourceforge.net/DTD/sodipodi-0.dtd"
   xmlns:inkscape="http://www.inkscape.org/namespaces/inkscape"
   inkscape:version="1.0 (4035a4fb49, 2020-05-01)"
   sodipodi:docname="stars.svg"
   id="svg24"
   version="1.1"
   viewBox="0 0 292.4 194.1"
   xml:space="preserve"><metadata
   id="metadata28"><rdf:RDF><cc:Work
       rdf:about=""><dc:format>image/svg+xml</dc:format><dc:type
         rdf:resource="http://purl.org/dc/dcmitype/StillImage" /></cc:Work></rdf:RDF></metadata><sodipodi:namedview
   inkscape:current-layer="svg24"
   inkscape:window-maximized="1"
   inkscape:window-y="-6"
   inkscape:window-x="-6"
   inkscape:cy="85.628684"
   inkscape:cx="146.2"
   inkscape:zoom="2.5244718"
   showgrid="false"
   id="namedview26"
   inkscape:window-height="658"
   inkscape:window-width="1280"
   inkscape:pageshadow="2"
   inkscape:pageopacity="0"
   guidetolerance="10"
   gridtolerance="10"
   objecttolerance="10"
   borderopacity="1"
   bordercolor="#666666"
   pagecolor="#ffffff" />
 <defs
   id="defs7">
  <style
   id="style2"
   type="text/css">
   <![CDATA[
    .fil2 {fill:none}
    .fil0 {fill:#15202A}
    .fil1 {fill:#D9DBDD}
   ]]>
  </style>
    <clipPath
   id="id0">
     <path
   id="path4"
   d="M16.615 1.3266c0,0.0461 0.0394,0.103 0.0641,0.1275 0.0267,0.0266 0.0674,0.0715 0.0953,0.0933 0.0249,0.0196 0.0753,0.0708 0.097,0.0946 0.0148,0.0161 0.0893,0.0813 0.0927,0.0958 0.0134,0.0011 0.1083,0.1005 0.1244,0.1167 0.034,0.0345 0.0876,0.0895 0.1229,0.1183 0.0264,0.0216 0.1001,0.0959 0.1147,0.1263 0.0313,0.0652 0.0355,0.1146 0.0131,0.1965 -0.004,0.0146 -0.0018,0.041 -0.006,0.0558 -0.0047,0.0163 -0.01,0.0267 -0.0107,0.048 -0.0002,0.006 -0.0144,0.0997 -0.016,0.1047 -0.0075,0.0237 -0.0066,0.0223 -0.0086,0.0531 -0.0013,0.0191 -0.0096,0.0319 -0.0118,0.047 -0.0061,0.0404 -0.0096,0.0681 -0.0153,0.1052 -0.004,0.0257 -0.0083,0.0272 -0.0101,0.0518 -0.001,0.014 -0.0035,0.0388 -0.0083,0.0504 -0.0001,0.0002 -0.0191,0.1004 -0.0192,0.1014 -0.0079,0.073 -0.0281,0.134 -0.0281,0.21 0,0.0163 0.0013,0.0304 0.0032,0.0463 0.0023,0.0186 0.0123,0.0094 0.0123,0.0372 0.0106,0.0071 0.0318,0.047 0.0596,0.0671 0.0179,0.0129 0.0576,0.038 0.0856,0.038l0.068 0c0.047,0 0.3035,-0.1524 0.3619,-0.1789 0.0479,-0.0218 0.3389,-0.1824 0.358,-0.1828 0.0053,-0.01 0.0489,-0.0327 0.0613,-0.0376 0.0196,-0.0077 0.0457,-0.0274 0.0685,-0.0274 0.0133,-0.0198 0.1226,-0.0199 0.136,0 0.0217,0 0.0656,0.0257 0.0815,0.036 0.0177,0.0114 0.0649,0.0261 0.073,0.0413 0.0138,0.0004 0.3143,0.1595 0.3441,0.1782 0.0112,0.0071 0.0336,0.0145 0.0458,0.0222 0.0124,0.0077 0.0297,0.0155 0.0426,0.0223 0.027,0.0142 0.0576,0.0293 0.0847,0.0452 0.0276,0.0161 0.1475,0.0815 0.178,0.0815l0.071 0c0.0224,0 0.0469,-0.0174 0.0622,-0.0243 0.0224,-0.0101 0.0324,-0.0214 0.0484,-0.0382 0.0281,-0.0297 0.047,-0.0689 0.047,-0.1261 0,-0.0257 -0.0018,-0.0747 -0.0083,-0.0937 -0.0093,-0.0273 -0.007,-0.0552 -0.0158,-0.0831 -0.0038,-0.012 -0.0043,-0.0315 -0.0061,-0.0434 -0.0033,-0.0227 -0.0073,-0.0272 -0.0094,-0.04 -0.0025,-0.0153 -0.0021,-0.0302 -0.0038,-0.0457 -0.0016,-0.0145 -0.0067,-0.0167 -0.0094,-0.0401 -0.0066,-0.0581 -0.0236,-0.1141 -0.0275,-0.1735 -0.0011,-0.0162 -0.0065,-0.0256 -0.01,-0.0394 -0.0029,-0.0111 -0.0026,-0.0327 -0.0047,-0.0448 -0.005,-0.0297 -0.0131,-0.0478 -0.0131,-0.0858l-0.0384 -0.2038 0.0013 -0.0528c0,-0.0476 0.0422,-0.1096 0.0672,-0.1338 0.0302,-0.0293 0.0702,-0.072 0.1005,-0.0973 0.0309,-0.0258 0.0734,-0.0682 0.1009,-0.0969 0.0325,-0.0341 0.0655,-0.0647 0.1003,-0.0976 0.0342,-0.0323 0.0661,-0.0647 0.0994,-0.0983 0.0334,-0.0336 0.0685,-0.0639 0.1008,-0.097 0.0507,-0.0519 0.1663,-0.1378 0.1663,-0.2294l0 -0.0371c0,-0.0478 -0.0375,-0.1044 -0.064,-0.1277 -0.0393,-0.0346 -0.0719,-0.0442 -0.1366,-0.0519 -0.0134,-0.0016 -0.023,-0.0086 -0.0403,-0.0091 -0.0188,-0.0006 -0.0257,-0.0018 -0.0434,-0.003 -0.0203,-0.0015 -0.0477,-0.0119 -0.0804,-0.0124 -0.0264,-0.0003 -0.0456,-0.012 -0.0834,-0.0123 -0.0297,-0.0002 -0.0429,-0.0128 -0.0803,-0.0124 -0.0353,0.0003 -0.0481,-0.0127 -0.0834,-0.0124 -0.0365,0.0003 -0.0498,-0.0127 -0.0834,-0.0124 -0.0354,0.0004 -0.055,-0.0124 -0.0835,-0.0123 -0.0323,0 -0.0573,-0.0113 -0.0803,-0.0124 -0.0465,-0.0023 -0.1225,-0.0151 -0.1639,-0.0246 -0.0387,-0.0089 -0.0397,-0.0061 -0.0704,-0.0254 -0.0245,-0.0154 -0.0329,-0.0176 -0.0523,-0.0405 -0.0326,-0.0386 -0.045,-0.0782 -0.0687,-0.1229 -0.0106,-0.02 -0.0207,-0.0436 -0.0329,-0.0629 -0.0046,-0.0074 -0.027,-0.0543 -0.03,-0.0627 -0.0032,-0.0089 -0.0269,-0.0562 -0.0321,-0.0638 -0.0031,-0.0046 -0.0285,-0.0568 -0.0304,-0.0623 -0.0134,-0.0369 -0.045,-0.0909 -0.0632,-0.1254 -0.0214,-0.0407 -0.0385,-0.0879 -0.0617,-0.1269 -0.0057,-0.0095 -0.0276,-0.055 -0.0309,-0.0649 -0.0004,-0.0012 -0.0306,-0.0614 -0.0309,-0.0618 -0.0045,-0.0059 -0.0274,-0.0532 -0.0321,-0.0637 -0.0098,-0.0219 -0.0245,-0.0379 -0.039,-0.0538 -0.0328,-0.0361 -0.0708,-0.0496 -0.139,-0.0496 -0.0642,0 -0.1116,0.0148 -0.1404,0.0514 -0.0162,0.0207 -0.0275,0.032 -0.0388,0.057 -0.0053,0.0117 -0.0247,0.0517 -0.0315,0.0612 -0.0004,0.0006 -0.0308,0.0624 -0.0315,0.0643 -0.0029,0.008 -0.0259,0.0563 -0.03,0.0628 -0.0214,0.0343 -0.0438,0.0872 -0.0619,0.1266 -0.0182,0.0396 -0.0482,0.0873 -0.064,0.1277 -0.0157,0.0397 -0.0474,0.0858 -0.0627,0.1258 -0.0152,0.0395 -0.0435,0.086 -0.0624,0.1262 -0.0229,0.0487 -0.0372,0.0794 -0.0688,0.1198 -0.0543,0.0696 -0.1801,0.0764 -0.2916,0.0886 -0.0155,0.0017 -0.0185,0.0085 -0.0403,0.0091 -0.0139,0.0003 -0.0267,0.0019 -0.0433,0.003 -0.0219,0.0014 -0.0431,0.0112 -0.0804,0.0123 -0.0257,0.0008 -0.0447,0.012 -0.0834,0.0124 -0.0297,0.0003 -0.0427,0.0126 -0.0803,0.0124 -0.0343,-0.0002 -0.0465,0.012 -0.0835,0.0123 -0.032,0.0003 -0.0512,0.0121 -0.0803,0.0125 -0.0473,0.0006 -0.1175,0.0194 -0.1638,0.0247 -0.0686,0.0077 -0.0925,0.0174 -0.134,0.0544 -0.0252,0.0224 -0.0636,0.0811 -0.0636,0.125l0 0.0371z" />
    </clipPath>
 </defs>
 <g
   transform="matrix(14.322923,0,0,14.068732,2.4462734,84.374084)"
   id="Layer_x0020_1">
  <metadata
   id="CorelCorpID_0Corel-Layer" />
  <g
   id="_16.cdr">
   <path
   d="M 0,1.3266 C 0,1.3727 0.0395,1.4296 0.0641,1.4541 0.0908,1.4807 0.1315,1.5256 0.1594,1.5474 0.1844,1.567 0.2348,1.6182 0.2565,1.642 0.2712,1.6581 0.3458,1.7233 0.3492,1.7378 0.3625,1.7389 0.4575,1.8383 0.4735,1.8545 0.5075,1.889 0.5611,1.944 0.5964,1.9728 0.6229,1.9944 0.6965,2.0687 0.7111,2.0991 0.7424,2.1643 0.7466,2.2137 0.7242,2.2956 0.7202,2.3102 0.7224,2.3366 0.7182,2.3514 0.7135,2.3677 0.7082,2.3781 0.7075,2.3994 0.7073,2.4054 0.6932,2.4991 0.6916,2.5041 0.684,2.5278 0.6849,2.5264 0.6829,2.5572 0.6816,2.5763 0.6734,2.5891 0.6711,2.6042 0.665,2.6446 0.6615,2.6723 0.6558,2.7094 0.6518,2.7351 0.6475,2.7366 0.6457,2.7612 0.6447,2.7752 0.6423,2.8 0.6374,2.8116 c 0,2e-4 -0.0191,0.1004 -0.0192,0.1014 -0.0079,0.073 -0.028,0.134 -0.028,0.21 0,0.0163 0.0012,0.0304 0.0032,0.0463 0.0022,0.0186 0.0122,0.0094 0.0122,0.0372 0.0106,0.0071 0.0318,0.047 0.0597,0.0671 0.0178,0.0129 0.0576,0.038 0.0855,0.038 h 0.068 c 0.047,0 0.3036,-0.1524 0.3619,-0.1789 C 1.2286,3.1109 1.5196,2.9503 1.5388,2.9499 1.5441,2.9399 1.5876,2.9172 1.6001,2.9123 1.6196,2.9046 1.6457,2.8849 1.6685,2.8849 c 0.0133,-0.0198 0.1226,-0.0199 0.136,0 0.0218,0 0.0657,0.0257 0.0815,0.036 0.0177,0.0114 0.0649,0.0261 0.073,0.0413 0.0138,4e-4 0.3143,0.1595 0.3441,0.1782 0.0112,0.0071 0.0336,0.0145 0.0459,0.0222 0.0123,0.0077 0.0296,0.0155 0.0425,0.0223 0.027,0.0142 0.0576,0.0293 0.0847,0.0452 0.0276,0.0161 0.1475,0.0815 0.178,0.0815 h 0.0711 c 0.0224,0 0.0468,-0.0174 0.0622,-0.0243 C 2.8098,3.2772 2.8199,3.2659 2.8358,3.2491 2.8639,3.2194 2.8829,3.1802 2.8829,3.123 2.8829,3.0973 2.8811,3.0483 2.8746,3.0293 2.8652,3.002 2.8676,2.9741 2.8587,2.9462 2.8549,2.9342 2.8544,2.9147 2.8527,2.9028 2.8493,2.8801 2.8453,2.8756 2.8432,2.8628 2.8408,2.8475 2.8411,2.8326 2.8394,2.8171 2.8379,2.8026 2.8327,2.8004 2.83,2.777 2.8234,2.7189 2.8065,2.6629 2.8026,2.6035 2.8015,2.5873 2.7961,2.5779 2.7925,2.5641 2.7896,2.553 2.7899,2.5314 2.7879,2.5193 2.7829,2.4896 2.7747,2.4715 2.7747,2.4335 L 2.7363,2.2297 2.7376,2.1769 C 2.7376,2.1293 2.7798,2.0673 2.8048,2.0431 2.835,2.0138 2.8751,1.9711 2.9053,1.9458 2.9362,1.92 2.9787,1.8776 3.0062,1.8489 3.0387,1.8148 3.0717,1.7842 3.1065,1.7513 3.1408,1.719 3.1726,1.6866 3.2059,1.653 3.2393,1.6194 3.2744,1.5891 3.3067,1.556 3.3574,1.5041 3.473,1.4182 3.473,1.3266 V 1.2895 C 3.473,1.2417 3.4355,1.1851 3.4091,1.1618 3.3697,1.1272 3.3371,1.1176 3.2724,1.1099 3.2591,1.1083 3.2494,1.1013 3.2321,1.1008 3.2133,1.1002 3.2064,1.099 3.1888,1.0978 3.1685,1.0963 3.141,1.0859 3.1084,1.0854 3.082,1.0851 3.0627,1.0734 3.0249,1.0731 2.9952,1.0729 2.982,1.0603 2.9446,1.0607 2.9094,1.061 2.8966,1.048 2.8612,1.0483 2.8247,1.0486 2.8114,1.0356 2.7778,1.0359 2.7424,1.0363 2.7228,1.0235 2.6944,1.0236 2.662,1.0236 2.6371,1.0123 2.6141,1.0112 2.5675,1.0089 2.4916,0.9961 2.4502,0.9866 2.4114,0.9777 2.4104,0.9805 2.3797,0.9612 2.3553,0.9458 2.3468,0.9436 2.3275,0.9207 2.2949,0.8821 2.2825,0.8425 2.2588,0.7978 2.2482,0.7778 2.2381,0.7542 2.2259,0.7349 2.2212,0.7275 2.1988,0.6806 2.1958,0.6722 2.1926,0.6633 2.1689,0.616 2.1638,0.6084 2.1607,0.6038 2.1352,0.5516 2.1333,0.5461 2.12,0.5092 2.0884,0.4552 2.0702,0.4207 2.0487,0.38 2.0316,0.3328 2.0084,0.2938 2.0028,0.2843 1.9809,0.2388 1.9776,0.2289 1.9772,0.2277 1.947,0.1675 1.9466,0.1671 1.9422,0.1612 1.9192,0.1139 1.9145,0.1034 1.9047,0.0815 1.8901,0.0655 1.8756,0.0496 1.8428,0.0135 1.8048,0 1.7365,0 1.6723,0 1.6249,0.0148 1.5962,0.0514 1.5799,0.0721 1.5686,0.0834 1.5573,0.1084 1.5521,0.1201 1.5326,0.1601 1.5258,0.1696 1.5254,0.1702 1.495,0.232 1.4943,0.2339 1.4914,0.2419 1.4684,0.2902 1.4643,0.2967 1.4429,0.331 1.4205,0.3839 1.4024,0.4233 1.3843,0.4629 1.3543,0.5106 1.3384,0.551 1.3228,0.5907 1.2911,0.6368 1.2757,0.6768 1.2605,0.7163 1.2322,0.7628 1.2133,0.803 1.1904,0.8517 1.1761,0.8824 1.1446,0.9228 1.0902,0.9924 0.9644,0.9992 0.853,1.0114 0.8374,1.0131 0.8345,1.0199 0.8126,1.0205 0.7988,1.0208 0.7859,1.0224 0.7693,1.0235 0.7474,1.0249 0.7262,1.0347 0.6889,1.0358 0.6633,1.0366 0.6442,1.0478 0.6055,1.0482 0.5759,1.0485 0.5628,1.0608 0.5252,1.0606 0.4909,1.0604 0.4787,1.0726 0.4417,1.0729 0.4097,1.0732 0.3906,1.085 0.3615,1.0854 0.3141,1.086 0.244,1.1048 0.1977,1.1101 0.129,1.1178 0.1051,1.1275 0.0636,1.1645 0.0384,1.1869 0,1.2456 0,1.2895 Z"
   class="fil0"
   id="_311453944" />
   <path
   d="m 4.1537,1.3266 c 0,0.0461 0.0395,0.103 0.0642,0.1275 C 4.2446,1.4807 4.2853,1.5256 4.3131,1.5474 4.3381,1.567 4.3885,1.6182 4.4102,1.642 4.425,1.6581 4.4995,1.7233 4.5029,1.7378 4.5163,1.7389 4.6112,1.8383 4.6273,1.8545 4.6613,1.889 4.7148,1.944 4.7501,1.9728 4.7766,1.9944 4.8503,2.0687 4.8649,2.0991 4.8962,2.1643 4.9004,2.2137 4.878,2.2956 4.874,2.3102 4.8761,2.3366 4.8719,2.3514 4.8673,2.3677 4.862,2.3781 4.8612,2.3994 4.861,2.4054 4.8469,2.4991 4.8453,2.5041 4.8378,2.5278 4.8387,2.5264 4.8366,2.5572 4.8354,2.5763 4.8271,2.5891 4.8248,2.6042 4.8187,2.6446 4.8153,2.6723 4.8095,2.7094 4.8055,2.7351 4.8012,2.7366 4.7995,2.7612 4.7985,2.7752 4.796,2.8 4.7912,2.8116 4.7911,2.8118 4.772,2.912 4.7719,2.913 c -0.0078,0.073 -0.028,0.134 -0.028,0.21 0,0.0163 0.0013,0.0304 0.0032,0.0463 0.0022,0.0186 0.0123,0.0094 0.0123,0.0372 0.0106,0.0071 0.0318,0.047 0.0596,0.0671 0.0179,0.0129 0.0576,0.038 0.0856,0.038 h 0.068 c 0.047,0 0.3035,-0.1524 0.3619,-0.1789 C 5.3824,3.1109 5.6733,2.9503 5.6925,2.9499 5.6978,2.9399 5.7414,2.9172 5.7538,2.9123 5.7734,2.9046 5.7995,2.8849 5.8223,2.8849 c 0.0133,-0.0198 0.1226,-0.0199 0.1359,0 0.0218,0 0.0657,0.0257 0.0816,0.036 0.0176,0.0114 0.0649,0.0261 0.0729,0.0413 0.0139,4e-4 0.3144,0.1595 0.3441,0.1782 C 6.468,3.1475 6.4905,3.1549 6.5027,3.1626 6.515,3.1703 6.5323,3.1781 6.5453,3.1849 6.5722,3.1991 6.6029,3.2142 6.6299,3.2301 6.6576,3.2462 6.7775,3.3116 6.808,3.3116 h 0.071 c 0.0224,0 0.0469,-0.0174 0.0622,-0.0243 C 6.9636,3.2772 6.9736,3.2659 6.9896,3.2491 7.0177,3.2194 7.0366,3.1802 7.0366,3.123 7.0366,3.0973 7.0348,3.0483 7.0283,3.0293 7.019,3.002 7.0213,2.9741 7.0124,2.9462 7.0086,2.9342 7.0082,2.9147 7.0064,2.9028 7.003,2.8801 6.999,2.8756 6.997,2.8628 6.9945,2.8475 6.9948,2.8326 6.9932,2.8171 6.9916,2.8026 6.9864,2.8004 6.9838,2.777 6.9772,2.7189 6.9602,2.6629 6.9563,2.6035 6.9552,2.5873 6.9498,2.5779 6.9462,2.5641 6.9433,2.553 6.9436,2.5314 6.9416,2.5193 6.9366,2.4896 6.9285,2.4715 6.9285,2.4335 L 6.89,2.2297 6.8914,2.1769 C 6.8914,2.1293 6.9335,2.0673 6.9585,2.0431 6.9888,2.0138 7.0288,1.9711 7.0591,1.9458 7.09,1.92 7.1325,1.8776 7.16,1.8489 7.1925,1.8148 7.2255,1.7842 7.2602,1.7513 7.2945,1.719 7.3263,1.6866 7.3597,1.653 7.393,1.6194 7.4281,1.5891 7.4605,1.556 7.5111,1.5041 7.6268,1.4182 7.6268,1.3266 V 1.2895 C 7.6268,1.2417 7.5893,1.1851 7.5628,1.1618 7.5235,1.1272 7.4909,1.1176 7.4261,1.1099 7.4128,1.1083 7.4032,1.1013 7.3859,1.1008 7.367,1.1002 7.3602,1.099 7.3425,1.0978 7.3222,1.0963 7.2948,1.0859 7.2621,1.0854 7.2357,1.0851 7.2164,1.0734 7.1786,1.0731 7.149,1.0729 7.1357,1.0603 7.0984,1.0607 7.0631,1.061 7.0503,1.048 7.015,1.0483 6.9785,1.0486 6.9652,1.0356 6.9315,1.0359 6.8961,1.0363 6.8765,1.0235 6.8481,1.0236 6.8158,1.0236 6.7908,1.0123 6.7678,1.0112 6.7212,1.0089 6.6453,0.9961 6.6039,0.9866 6.5652,0.9777 6.5641,0.9805 6.5335,0.9612 6.509,0.9458 6.5005,0.9436 6.4812,0.9207 6.4486,0.8821 6.4362,0.8425 6.4125,0.7978 6.4019,0.7778 6.3918,0.7542 6.3796,0.7349 6.3749,0.7275 6.3526,0.6806 6.3496,0.6722 6.3464,0.6633 6.3226,0.616 6.3175,0.6084 6.3144,0.6038 6.289,0.5516 6.287,0.5461 6.2737,0.5092 6.2421,0.4552 6.2239,0.4207 6.2025,0.38 6.1853,0.3328 6.1622,0.2938 6.1565,0.2843 6.1346,0.2388 6.1313,0.2289 6.1309,0.2277 6.1007,0.1675 6.1004,0.1671 6.0959,0.1612 6.0729,0.1139 6.0682,0.1034 6.0584,0.0815 6.0438,0.0655 6.0293,0.0496 5.9965,0.0135 5.9585,0 5.8903,0 5.8261,0 5.7786,0.0148 5.7499,0.0514 5.7336,0.0721 5.7224,0.0834 5.7111,0.1084 5.7058,0.1201 5.6864,0.1601 5.6796,0.1696 5.6791,0.1702 5.6487,0.232 5.648,0.2339 5.6452,0.2419 5.6221,0.2902 5.6181,0.2967 5.5966,0.331 5.5743,0.3839 5.5562,0.4233 5.538,0.4629 5.508,0.5106 5.4921,0.551 5.4765,0.5907 5.4448,0.6368 5.4294,0.6768 5.4143,0.7163 5.3859,0.7628 5.3671,0.803 5.3442,0.8517 5.3298,0.8824 5.2983,0.9228 5.244,0.9924 5.1181,0.9992 5.0067,1.0114 4.9912,1.0131 4.9882,1.0199 4.9664,1.0205 4.9525,1.0208 4.9397,1.0224 4.9231,1.0235 4.9012,1.0249 4.88,1.0347 4.8427,1.0358 4.817,1.0366 4.7979,1.0478 4.7592,1.0482 4.7296,1.0485 4.7165,1.0608 4.679,1.0606 4.6447,1.0604 4.6324,1.0726 4.5955,1.0729 4.5635,1.0732 4.5443,1.085 4.5152,1.0854 4.4679,1.086 4.3977,1.1048 4.3514,1.1101 4.2827,1.1178 4.2589,1.1275 4.2173,1.1645 4.1922,1.1869 4.1537,1.2456 4.1537,1.2895 Z"
   class="fil0"
   id="_311453872" />
   <path
   d="m 8.3075,1.3266 c 0,0.0461 0.0394,0.103 0.0641,0.1275 C 8.3983,1.4807 8.439,1.5256 8.4669,1.5474 8.4919,1.567 8.5422,1.6182 8.5639,1.642 8.5787,1.6581 8.6533,1.7233 8.6566,1.7378 8.67,1.7389 8.765,1.8383 8.781,1.8545 8.815,1.889 8.8686,1.944 8.9039,1.9728 8.9303,1.9944 9.004,2.0687 9.0186,2.0991 9.0499,2.1643 9.0541,2.2137 9.0317,2.2956 9.0277,2.3102 9.0299,2.3366 9.0257,2.3514 9.021,2.3677 9.0157,2.3781 9.015,2.3994 9.0148,2.4054 9.0006,2.4991 8.9991,2.5041 8.9915,2.5278 8.9924,2.5264 8.9904,2.5572 8.9891,2.5763 8.9808,2.5891 8.9786,2.6042 8.9725,2.6446 8.969,2.6723 8.9633,2.7094 8.9593,2.7351 8.955,2.7366 8.9532,2.7612 8.9522,2.7752 8.9498,2.8 8.9449,2.8116 c 0,2e-4 -0.0191,0.1004 -0.0192,0.1014 -0.0079,0.073 -0.028,0.134 -0.028,0.21 0,0.0163 0.0012,0.0304 0.0031,0.0463 0.0023,0.0186 0.0123,0.0094 0.0123,0.0372 0.0106,0.0071 0.0318,0.047 0.0597,0.0671 0.0178,0.0129 0.0575,0.038 0.0855,0.038 h 0.068 c 0.047,0 0.3035,-0.1524 0.3619,-0.1789 C 9.5361,3.1109 9.8271,2.9503 9.8462,2.9499 9.8515,2.9399 9.8951,2.9172 9.9076,2.9123 9.9271,2.9046 9.9532,2.8849 9.976,2.8849 c 0.0133,-0.0198 0.1226,-0.0199 0.136,0 0.0217,0 0.0656,0.0257 0.0815,0.036 0.0177,0.0114 0.0649,0.0261 0.073,0.0413 0.0138,4e-4 0.3143,0.1595 0.3441,0.1782 0.0112,0.0071 0.0336,0.0145 0.0458,0.0222 0.0124,0.0077 0.0297,0.0155 0.0426,0.0223 0.027,0.0142 0.0576,0.0293 0.0847,0.0452 0.0276,0.0161 0.1475,0.0815 0.178,0.0815 h 0.0711 c 0.0223,0 0.0468,-0.0174 0.0622,-0.0243 0.0223,-0.0101 0.0323,-0.0214 0.0483,-0.0382 0.0281,-0.0297 0.047,-0.0689 0.047,-0.1261 0,-0.0257 -0.0018,-0.0747 -0.0083,-0.0937 C 11.1727,3.002 11.175,2.9741 11.1662,2.9462 11.1624,2.9342 11.1619,2.9147 11.1601,2.9028 11.1568,2.8801 11.1528,2.8756 11.1507,2.8628 11.1482,2.8475 11.1486,2.8326 11.1469,2.8171 11.1453,2.8026 11.1402,2.8004 11.1375,2.777 11.1309,2.7189 11.114,2.6629 11.11,2.6035 11.109,2.5873 11.1036,2.5779 11.1,2.5641 11.0971,2.553 11.0974,2.5314 11.0953,2.5193 11.0903,2.4896 11.0822,2.4715 11.0822,2.4335 L 11.0438,2.2297 11.0451,2.1769 c 0,-0.0476 0.0422,-0.1096 0.0672,-0.1338 0.0302,-0.0293 0.0703,-0.072 0.1005,-0.0973 C 11.2437,1.92 11.2862,1.8776 11.3137,1.8489 11.3462,1.8148 11.3792,1.7842 11.414,1.7513 11.4483,1.719 11.4801,1.6866 11.5134,1.653 11.5468,1.6194 11.5819,1.5891 11.6142,1.556 11.6649,1.5041 11.7805,1.4182 11.7805,1.3266 V 1.2895 c 0,-0.0478 -0.0375,-0.1044 -0.064,-0.1277 C 11.6772,1.1272 11.6446,1.1176 11.5799,1.1099 11.5665,1.1083 11.5569,1.1013 11.5396,1.1008 11.5208,1.1002 11.5139,1.099 11.4963,1.0978 11.476,1.0963 11.4485,1.0859 11.4159,1.0854 11.3894,1.0851 11.3702,1.0734 11.3324,1.0731 11.3027,1.0729 11.2895,1.0603 11.2521,1.0607 11.2169,1.061 11.2041,1.048 11.1687,1.0483 11.1322,1.0486 11.1189,1.0356 11.0853,1.0359 11.0499,1.0363 11.0303,1.0235 11.0019,1.0236 10.9695,1.0236 10.9446,1.0123 10.9215,1.0112 10.875,1.0089 10.7991,0.9961 10.7576,0.9866 10.7189,0.9777 10.7179,0.9805 10.6872,0.9612 10.6628,0.9458 10.6543,0.9436 10.635,0.9207 10.6023,0.8821 10.5899,0.8425 10.5662,0.7978 10.5556,0.7778 10.5455,0.7542 10.5333,0.7349 10.5287,0.7275 10.5063,0.6806 10.5033,0.6722 10.5001,0.6633 10.4764,0.616 10.4712,0.6084 10.4681,0.6038 10.4427,0.5516 10.4408,0.5461 10.4275,0.5092 10.3958,0.4552 10.3777,0.4207 10.3562,0.38 10.3391,0.3328 10.3159,0.2938 10.3102,0.2843 10.2884,0.2388 10.2851,0.2289 10.2847,0.2277 10.2544,0.1675 10.2541,0.1671 10.2496,0.1612 10.2267,0.1139 10.222,0.1034 10.2122,0.0815 10.1975,0.0655 10.1831,0.0496 10.1502,0.0135 10.1123,0 10.044,0 9.9798,0 9.9324,0.0148 9.9036,0.0514 9.8874,0.0721 9.8761,0.0834 9.8648,0.1084 9.8595,0.1201 9.8401,0.1601 9.8333,0.1696 9.8329,0.1702 9.8025,0.232 9.8018,0.2339 9.7989,0.2419 9.7759,0.2902 9.7718,0.2967 9.7504,0.331 9.728,0.3839 9.7099,0.4233 9.6918,0.4629 9.6618,0.5106 9.6459,0.551 9.6302,0.5907 9.5985,0.6368 9.5832,0.6768 9.568,0.7163 9.5397,0.7628 9.5208,0.803 9.4979,0.8517 9.4836,0.8824 9.452,0.9228 9.3977,0.9924 9.2719,0.9992 9.1604,1.0114 9.1449,1.0131 9.1419,1.0199 9.1201,1.0205 9.1062,1.0208 9.0934,1.0224 9.0768,1.0235 9.0549,1.0249 9.0337,1.0347 8.9964,1.0358 8.9708,1.0366 8.9517,1.0478 8.913,1.0482 8.8833,1.0485 8.8703,1.0608 8.8327,1.0606 8.7984,1.0604 8.7862,1.0726 8.7492,1.0729 8.7172,1.0732 8.6981,1.085 8.669,1.0854 8.6216,1.086 8.5514,1.1048 8.5052,1.1101 8.4365,1.1178 8.4126,1.1275 8.3711,1.1645 8.3459,1.1869 8.3075,1.2456 8.3075,1.2895 Z"
   class="fil0"
   id="_311453800" />
   <path
   d="m 12.4612,1.3266 c 0,0.0461 0.0395,0.103 0.0641,0.1275 0.0268,0.0266 0.0674,0.0715 0.0953,0.0933 0.025,0.0196 0.0754,0.0708 0.0971,0.0946 0.0148,0.0161 0.0893,0.0813 0.0927,0.0958 0.0134,0.0011 0.1083,0.1005 0.1243,0.1167 0.0341,0.0345 0.0876,0.0895 0.1229,0.1183 0.0265,0.0216 0.1002,0.0959 0.1148,0.1263 0.0312,0.0652 0.0354,0.1146 0.0131,0.1965 -0.004,0.0146 -0.0019,0.041 -0.0061,0.0558 -0.0046,0.0163 -0.01,0.0267 -0.0107,0.048 -2e-4,0.006 -0.0143,0.0997 -0.0159,0.1047 -0.0075,0.0237 -0.0066,0.0223 -0.0087,0.0531 -0.0012,0.0191 -0.0095,0.0319 -0.0118,0.047 -0.0061,0.0404 -0.0095,0.0681 -0.0153,0.1052 -0.004,0.0257 -0.0083,0.0272 -0.01,0.0518 -10e-4,0.014 -0.0035,0.0388 -0.0084,0.0504 0,2e-4 -0.0191,0.1004 -0.0192,0.1014 -0.0078,0.073 -0.028,0.134 -0.028,0.21 0,0.0163 0.0013,0.0304 0.0032,0.0463 0.0022,0.0186 0.0122,0.0094 0.0122,0.0372 0.0106,0.0071 0.0318,0.047 0.0597,0.0671 0.0178,0.0129 0.0576,0.038 0.0856,0.038 H 13.28 c 0.0471,0 0.3036,-0.1524 0.3619,-0.1789 0.048,-0.0218 0.3389,-0.1824 0.3581,-0.1828 0.0053,-0.01 0.0489,-0.0327 0.0613,-0.0376 0.0196,-0.0077 0.0456,-0.0274 0.0685,-0.0274 0.0132,-0.0198 0.1226,-0.0199 0.1359,0 0.0218,0 0.0657,0.0257 0.0815,0.036 0.0177,0.0114 0.0649,0.0261 0.073,0.0413 0.0139,4e-4 0.3143,0.1595 0.3441,0.1782 0.0112,0.0071 0.0336,0.0145 0.0459,0.0222 0.0123,0.0077 0.0296,0.0155 0.0425,0.0223 0.027,0.0142 0.0576,0.0293 0.0847,0.0452 0.0276,0.0161 0.1476,0.0815 0.178,0.0815 h 0.0711 c 0.0224,0 0.0469,-0.0174 0.0622,-0.0243 0.0224,-0.0101 0.0324,-0.0214 0.0483,-0.0382 0.0282,-0.0297 0.0471,-0.0689 0.0471,-0.1261 0,-0.0257 -0.0018,-0.0747 -0.0083,-0.0937 C 15.3264,3.002 15.3288,2.9741 15.3199,2.9462 15.3161,2.9342 15.3156,2.9147 15.3139,2.9028 15.3105,2.8801 15.3065,2.8756 15.3045,2.8628 15.302,2.8475 15.3023,2.8326 15.3007,2.8171 15.2991,2.8026 15.2939,2.8004 15.2913,2.777 15.2847,2.7189 15.2677,2.6629 15.2638,2.6035 15.2627,2.5873 15.2573,2.5779 15.2537,2.5641 15.2508,2.553 15.2511,2.5314 15.2491,2.5193 15.2441,2.4896 15.2359,2.4715 15.2359,2.4335 L 15.1975,2.2297 15.1989,2.1769 c 0,-0.0476 0.0421,-0.1096 0.0671,-0.1338 0.0302,-0.0293 0.0703,-0.072 0.1005,-0.0973 C 15.3974,1.92 15.44,1.8776 15.4674,1.8489 15.5,1.8148 15.533,1.7842 15.5677,1.7513 15.602,1.719 15.6338,1.6866 15.6672,1.653 15.7005,1.6194 15.7356,1.5891 15.768,1.556 15.8186,1.5041 15.9343,1.4182 15.9343,1.3266 V 1.2895 c 0,-0.0478 -0.0375,-0.1044 -0.064,-0.1277 C 15.8309,1.1272 15.7983,1.1176 15.7336,1.1099 15.7203,1.1083 15.7106,1.1013 15.6934,1.1008 15.6745,1.1002 15.6676,1.099 15.65,1.0978 15.6297,1.0963 15.6023,1.0859 15.5696,1.0854 15.5432,1.0851 15.5239,1.0734 15.4861,1.0731 15.4564,1.0729 15.4432,1.0603 15.4059,1.0607 15.3706,1.061 15.3578,1.048 15.3225,1.0483 15.2859,1.0486 15.2727,1.0356 15.239,1.0359 15.2036,1.0363 15.184,1.0235 15.1556,1.0236 15.1232,1.0236 15.0983,1.0123 15.0753,1.0112 15.0287,1.0089 14.9528,0.9961 14.9114,0.9866 14.8726,0.9777 14.8716,0.9805 14.841,0.9612 14.8165,0.9458 14.808,0.9436 14.7887,0.9207 14.7561,0.8821 14.7437,0.8425 14.72,0.7978 14.7094,0.7778 14.6993,0.7542 14.6871,0.7349 14.6824,0.7275 14.6601,0.6806 14.657,0.6722 14.6539,0.6633 14.6301,0.616 14.625,0.6084 14.6219,0.6038 14.5965,0.5516 14.5945,0.5461 14.5812,0.5092 14.5496,0.4552 14.5314,0.4207 14.51,0.38 14.4928,0.3328 14.4697,0.2938 14.464,0.2843 14.4421,0.2388 14.4388,0.2289 14.4384,0.2277 14.4082,0.1675 14.4079,0.1671 14.4034,0.1612 14.3804,0.1139 14.3757,0.1034 14.3659,0.0815 14.3513,0.0655 14.3368,0.0496 14.304,0.0135 14.266,0 14.1977,0 c -0.0641,0 -0.1116,0.0148 -0.1403,0.0514 -0.0163,0.0207 -0.0275,0.032 -0.0388,0.057 -0.0053,0.0117 -0.0247,0.0517 -0.0315,0.0612 -5e-4,6e-4 -0.0309,0.0624 -0.0316,0.0643 -0.0029,0.008 -0.0259,0.0563 -0.0299,0.0628 -0.0215,0.0343 -0.0439,0.0872 -0.0619,0.1266 -0.0182,0.0396 -0.0482,0.0873 -0.0641,0.1277 -0.0156,0.0397 -0.0473,0.0858 -0.0627,0.1258 -0.0151,0.0395 -0.0435,0.086 -0.0624,0.1262 -0.0228,0.0487 -0.0372,0.0794 -0.0687,0.1198 -0.0543,0.0696 -0.1802,0.0764 -0.2916,0.0886 -0.0155,0.0017 -0.0185,0.0085 -0.0403,0.0091 -0.0139,3e-4 -0.0267,0.0019 -0.0433,0.003 -0.022,0.0014 -0.0431,0.0112 -0.0804,0.0123 -0.0257,8e-4 -0.0448,0.012 -0.0835,0.0124 -0.0296,3e-4 -0.0427,0.0126 -0.0803,0.0124 -0.0343,-2e-4 -0.0465,0.012 -0.0834,0.0123 -0.032,3e-4 -0.0512,0.0121 -0.0803,0.0125 -0.0474,6e-4 -0.1175,0.0194 -0.1638,0.0247 -0.0687,0.0077 -0.0925,0.0174 -0.1341,0.0544 -0.0252,0.0224 -0.0636,0.0811 -0.0636,0.125 z"
   class="fil0"
   id="_311452912" />
   <path
   d="m 16.615,1.3266 c 0,0.0461 0.0394,0.103 0.0641,0.1275 0.0267,0.0266 0.0674,0.0715 0.0953,0.0933 0.0249,0.0196 0.0753,0.0708 0.097,0.0946 0.0148,0.0161 0.0893,0.0813 0.0927,0.0958 0.0134,0.0011 0.1083,0.1005 0.1244,0.1167 0.034,0.0345 0.0876,0.0895 0.1229,0.1183 0.0264,0.0216 0.1001,0.0959 0.1147,0.1263 0.0313,0.0652 0.0355,0.1146 0.0131,0.1965 -0.004,0.0146 -0.0018,0.041 -0.006,0.0558 -0.0047,0.0163 -0.01,0.0267 -0.0107,0.048 -2e-4,0.006 -0.0144,0.0997 -0.016,0.1047 -0.0075,0.0237 -0.0066,0.0223 -0.0086,0.0531 -0.0013,0.0191 -0.0096,0.0319 -0.0118,0.047 -0.0061,0.0404 -0.0096,0.0681 -0.0153,0.1052 -0.004,0.0257 -0.0083,0.0272 -0.0101,0.0518 -0.001,0.014 -0.0035,0.0388 -0.0083,0.0504 -10e-5,2e-4 -0.0191,0.1004 -0.0192,0.1014 -0.0079,0.073 -0.0281,0.134 -0.0281,0.21 0,0.0163 0.0013,0.0304 0.0032,0.0463 0.0023,0.0186 0.0123,0.0094 0.0123,0.0372 0.0106,0.0071 0.0318,0.047 0.0596,0.0671 0.0179,0.0129 0.0576,0.038 0.0856,0.038 h 0.068 c 0.047,0 0.3035,-0.1524 0.3619,-0.1789 0.0479,-0.0218 0.3389,-0.1824 0.358,-0.1828 0.0053,-0.01 0.0489,-0.0327 0.0613,-0.0376 0.0196,-0.0077 0.0457,-0.0274 0.0685,-0.0274 0.0133,-0.0198 0.1226,-0.0199 0.136,0 0.0217,0 0.0656,0.0257 0.0815,0.036 0.0177,0.0114 0.0649,0.0261 0.073,0.0413 0.0138,4e-4 0.3143,0.1595 0.3441,0.1782 0.0112,0.0071 0.0336,0.0145 0.0458,0.0222 0.0124,0.0077 0.0297,0.0155 0.0426,0.0223 0.027,0.0142 0.0576,0.0293 0.0847,0.0452 0.0276,0.0161 0.1475,0.0815 0.178,0.0815 h 0.071 c 0.0224,0 0.0469,-0.0174 0.0622,-0.0243 0.0224,-0.0101 0.0324,-0.0214 0.0484,-0.0382 0.0281,-0.0297 0.047,-0.0689 0.047,-0.1261 0,-0.0257 -0.0018,-0.0747 -0.0083,-0.0937 C 19.4802,3.002 19.4825,2.9741 19.4737,2.9462 19.4699,2.9342 19.4694,2.9147 19.4676,2.9028 19.4643,2.8801 19.4603,2.8756 19.4582,2.8628 19.4557,2.8475 19.4561,2.8326 19.4544,2.8171 19.4528,2.8026 19.4477,2.8004 19.445,2.777 19.4384,2.7189 19.4214,2.6629 19.4175,2.6035 19.4164,2.5873 19.411,2.5779 19.4075,2.5641 19.4046,2.553 19.4049,2.5314 19.4028,2.5193 19.3978,2.4896 19.3897,2.4715 19.3897,2.4335 L 19.3513,2.2297 19.3526,2.1769 c 0,-0.0476 0.0422,-0.1096 0.0672,-0.1338 C 19.45,2.0138 19.49,1.9711 19.5203,1.9458 19.5512,1.92 19.5937,1.8776 19.6212,1.8489 19.6537,1.8148 19.6867,1.7842 19.7215,1.7513 19.7557,1.719 19.7876,1.6866 19.8209,1.653 19.8543,1.6194 19.8894,1.5891 19.9217,1.556 19.9724,1.5041 20.088,1.4182 20.088,1.3266 V 1.2895 C 20.088,1.2417 20.0505,1.1851 20.024,1.1618 19.9847,1.1272 19.9521,1.1176 19.8874,1.1099 19.874,1.1083 19.8644,1.1013 19.8471,1.1008 19.8283,1.1002 19.8214,1.099 19.8037,1.0978 19.7834,1.0963 19.756,1.0859 19.7233,1.0854 19.6969,1.0851 19.6777,1.0734 19.6399,1.0731 19.6102,1.0729 19.597,1.0603 19.5596,1.0607 19.5243,1.061 19.5115,1.048 19.4762,1.0483 19.4397,1.0486 19.4264,1.0356 19.3928,1.0359 19.3574,1.0363 19.3378,1.0235 19.3093,1.0236 19.277,1.0236 19.252,1.0123 19.229,1.0112 19.1825,1.0089 19.1065,0.9961 19.0651,0.9866 19.0264,0.9777 19.0254,0.9805 18.9947,0.9612 18.9702,0.9458 18.9618,0.9436 18.9424,0.9207 18.9098,0.8821 18.8974,0.8425 18.8737,0.7978 18.8631,0.7778 18.853,0.7542 18.8408,0.7349 18.8362,0.7275 18.8138,0.6806 18.8108,0.6722 18.8076,0.6633 18.7839,0.616 18.7787,0.6084 18.7756,0.6038 18.7502,0.5516 18.7483,0.5461 18.7349,0.5092 18.7033,0.4552 18.6851,0.4207 18.6637,0.38 18.6466,0.3328 18.6234,0.2938 18.6177,0.2843 18.5958,0.2388 18.5925,0.2289 18.5921,0.2277 18.5619,0.1675 18.5616,0.1671 18.5571,0.1612 18.5342,0.1139 18.5295,0.1034 18.5197,0.0815 18.505,0.0655 18.4905,0.0496 18.4577,0.0135 18.4197,0 18.3515,0 c -0.0642,0 -0.1116,0.0148 -0.1404,0.0514 -0.0162,0.0207 -0.0275,0.032 -0.0388,0.057 -0.0053,0.0117 -0.0247,0.0517 -0.0315,0.0612 -4e-4,6e-4 -0.0308,0.0624 -0.0315,0.0643 -0.0029,0.008 -0.0259,0.0563 -0.03,0.0628 -0.0214,0.0343 -0.0438,0.0872 -0.0619,0.1266 -0.0182,0.0396 -0.0482,0.0873 -0.064,0.1277 -0.0157,0.0397 -0.0474,0.0858 -0.0627,0.1258 -0.0152,0.0395 -0.0435,0.086 -0.0624,0.1262 -0.0229,0.0487 -0.0372,0.0794 -0.0688,0.1198 -0.0543,0.0696 -0.1801,0.0764 -0.2916,0.0886 -0.0155,0.0017 -0.0185,0.0085 -0.0403,0.0091 -0.0139,3e-4 -0.0267,0.0019 -0.0433,0.003 -0.0219,0.0014 -0.0431,0.0112 -0.0804,0.0123 -0.0257,8e-4 -0.0447,0.012 -0.0834,0.0124 -0.0297,3e-4 -0.0427,0.0126 -0.0803,0.0124 -0.0343,-2e-4 -0.0465,0.012 -0.0835,0.0123 -0.032,3e-4 -0.0512,0.0121 -0.0803,0.0125 -0.0473,6e-4 -0.1175,0.0194 -0.1638,0.0247 -0.0686,0.0077 -0.0925,0.0174 -0.134,0.0544 -0.0252,0.0224 -0.0636,0.0811 -0.0636,0.125 z"
   class="fil1"
   id="_311453008" />
   <g
   id="g18"
   clip-path="url(#id0)">
    <g
   id="g16">
     <rect
   height="4.7930002"
   width="3.2006199"
   y="-0.320418"
   x="16.478901"
   class="fil0"
   id="_311453416" />
    </g>
   </g>
   <path
   id="path20"
   d="m 16.615,1.3266 c 0,0.0461 0.0394,0.103 0.0641,0.1275 0.0267,0.0266 0.0674,0.0715 0.0953,0.0933 0.0249,0.0196 0.0753,0.0708 0.097,0.0946 0.0148,0.0161 0.0893,0.0813 0.0927,0.0958 0.0134,0.0011 0.1083,0.1005 0.1244,0.1167 0.034,0.0345 0.0876,0.0895 0.1229,0.1183 0.0264,0.0216 0.1001,0.0959 0.1147,0.1263 0.0313,0.0652 0.0355,0.1146 0.0131,0.1965 -0.004,0.0146 -0.0018,0.041 -0.006,0.0558 -0.0047,0.0163 -0.01,0.0267 -0.0107,0.048 -2e-4,0.006 -0.0144,0.0997 -0.016,0.1047 -0.0075,0.0237 -0.0066,0.0223 -0.0086,0.0531 -0.0013,0.0191 -0.0096,0.0319 -0.0118,0.047 -0.0061,0.0404 -0.0096,0.0681 -0.0153,0.1052 -0.004,0.0257 -0.0083,0.0272 -0.0101,0.0518 -0.001,0.014 -0.0035,0.0388 -0.0083,0.0504 -10e-5,2e-4 -0.0191,0.1004 -0.0192,0.1014 -0.0079,0.073 -0.0281,0.134 -0.0281,0.21 0,0.0163 0.0013,0.0304 0.0032,0.0463 0.0023,0.0186 0.0123,0.0094 0.0123,0.0372 0.0106,0.0071 0.0318,0.047 0.0596,0.0671 0.0179,0.0129 0.0576,0.038 0.0856,0.038 h 0.068 c 0.047,0 0.3035,-0.1524 0.3619,-0.1789 0.0479,-0.0218 0.3389,-0.1824 0.358,-0.1828 0.0053,-0.01 0.0489,-0.0327 0.0613,-0.0376 0.0196,-0.0077 0.0457,-0.0274 0.0685,-0.0274 0.0133,-0.0198 0.1226,-0.0199 0.136,0 0.0217,0 0.0656,0.0257 0.0815,0.036 0.0177,0.0114 0.0649,0.0261 0.073,0.0413 0.0138,4e-4 0.3143,0.1595 0.3441,0.1782 0.0112,0.0071 0.0336,0.0145 0.0458,0.0222 0.0124,0.0077 0.0297,0.0155 0.0426,0.0223 0.027,0.0142 0.0576,0.0293 0.0847,0.0452 0.0276,0.0161 0.1475,0.0815 0.178,0.0815 h 0.071 c 0.0224,0 0.0469,-0.0174 0.0622,-0.0243 0.0224,-0.0101 0.0324,-0.0214 0.0484,-0.0382 0.0281,-0.0297 0.047,-0.0689 0.047,-0.1261 0,-0.0257 -0.0018,-0.0747 -0.0083,-0.0937 C 19.4802,3.002 19.4825,2.9741 19.4737,2.9462 19.4699,2.9342 19.4694,2.9147 19.4676,2.9028 19.4643,2.8801 19.4603,2.8756 19.4582,2.8628 19.4557,2.8475 19.4561,2.8326 19.4544,2.8171 19.4528,2.8026 19.4477,2.8004 19.445,2.777 19.4384,2.7189 19.4214,2.6629 19.4175,2.6035 19.4164,2.5873 19.411,2.5779 19.4075,2.5641 19.4046,2.553 19.4049,2.5314 19.4028,2.5193 19.3978,2.4896 19.3897,2.4715 19.3897,2.4335 L 19.3513,2.2297 19.3526,2.1769 c 0,-0.0476 0.0422,-0.1096 0.0672,-0.1338 C 19.45,2.0138 19.49,1.9711 19.5203,1.9458 19.5512,1.92 19.5937,1.8776 19.6212,1.8489 19.6537,1.8148 19.6867,1.7842 19.7215,1.7513 19.7557,1.719 19.7876,1.6866 19.8209,1.653 19.8543,1.6194 19.8894,1.5891 19.9217,1.556 19.9724,1.5041 20.088,1.4182 20.088,1.3266 V 1.2895 C 20.088,1.2417 20.0505,1.1851 20.024,1.1618 19.9847,1.1272 19.9521,1.1176 19.8874,1.1099 19.874,1.1083 19.8644,1.1013 19.8471,1.1008 19.8283,1.1002 19.8214,1.099 19.8037,1.0978 19.7834,1.0963 19.756,1.0859 19.7233,1.0854 19.6969,1.0851 19.6777,1.0734 19.6399,1.0731 19.6102,1.0729 19.597,1.0603 19.5596,1.0607 19.5243,1.061 19.5115,1.048 19.4762,1.0483 19.4397,1.0486 19.4264,1.0356 19.3928,1.0359 19.3574,1.0363 19.3378,1.0235 19.3093,1.0236 19.277,1.0236 19.252,1.0123 19.229,1.0112 19.1825,1.0089 19.1065,0.9961 19.0651,0.9866 19.0264,0.9777 19.0254,0.9805 18.9947,0.9612 18.9702,0.9458 18.9618,0.9436 18.9424,0.9207 18.9098,0.8821 18.8974,0.8425 18.8737,0.7978 18.8631,0.7778 18.853,0.7542 18.8408,0.7349 18.8362,0.7275 18.8138,0.6806 18.8108,0.6722 18.8076,0.6633 18.7839,0.616 18.7787,0.6084 18.7756,0.6038 18.7502,0.5516 18.7483,0.5461 18.7349,0.5092 18.7033,0.4552 18.6851,0.4207 18.6637,0.38 18.6466,0.3328 18.6234,0.2938 18.6177,0.2843 18.5958,0.2388 18.5925,0.2289 18.5921,0.2277 18.5619,0.1675 18.5616,0.1671 18.5571,0.1612 18.5342,0.1139 18.5295,0.1034 18.5197,0.0815 18.505,0.0655 18.4905,0.0496 18.4577,0.0135 18.4197,0 18.3515,0 c -0.0642,0 -0.1116,0.0148 -0.1404,0.0514 -0.0162,0.0207 -0.0275,0.032 -0.0388,0.057 -0.0053,0.0117 -0.0247,0.0517 -0.0315,0.0612 -4e-4,6e-4 -0.0308,0.0624 -0.0315,0.0643 -0.0029,0.008 -0.0259,0.0563 -0.03,0.0628 -0.0214,0.0343 -0.0438,0.0872 -0.0619,0.1266 -0.0182,0.0396 -0.0482,0.0873 -0.064,0.1277 -0.0157,0.0397 -0.0474,0.0858 -0.0627,0.1258 -0.0152,0.0395 -0.0435,0.086 -0.0624,0.1262 -0.0229,0.0487 -0.0372,0.0794 -0.0688,0.1198 -0.0543,0.0696 -0.1801,0.0764 -0.2916,0.0886 -0.0155,0.0017 -0.0185,0.0085 -0.0403,0.0091 -0.0139,3e-4 -0.0267,0.0019 -0.0433,0.003 -0.0219,0.0014 -0.0431,0.0112 -0.0804,0.0123 -0.0257,8e-4 -0.0447,0.012 -0.0834,0.0124 -0.0297,3e-4 -0.0427,0.0126 -0.0803,0.0124 -0.0343,-2e-4 -0.0465,0.012 -0.0835,0.0123 -0.032,3e-4 -0.0512,0.0121 -0.0803,0.0125 -0.0473,6e-4 -0.1175,0.0194 -0.1638,0.0247 -0.0686,0.0077 -0.0925,0.0174 -0.134,0.0544 -0.0252,0.0224 -0.0636,0.0811 -0.0636,0.125 z"
   class="fil2" />
  </g>
 </g>
</svg>
