<?xml version="1.0" encoding="utf-8"?>
<!-- Generator: Adobe Illustrator 23.0.1, SVG Export Plug-In . SVG Version: 6.00 Build 0)  -->
<svg version="1.1" id="Layer_1" xmlns="http://www.w3.org/2000/svg" xmlns:xlink="http://www.w3.org/1999/xlink" x="0px" y="0px"
	 viewBox="0 0 126 210" style="enable-background:new 0 0 126 210;" xml:space="preserve">
<style type="text/css">
	.st0{fill:#4A4A4A;}
	.st1{fill:#4C4C4C;}
	.st2{fill:#4C4B4C;}
	.st3{fill:#F9F9F9;}
	.st4{fill:#FAFAFA;}
	.st5{fill:#4F4F4F;}
	.st6{fill:#5D5D5D;}
	.st7{opacity:0.5;}
	.st8{fill:#FE0082;}
</style>
<title>Brush &amp;amp; Bucket_1.1-01</title>
<g>
	<path class="st0" d="M96.8,138.1c2.1,1.2,1.8,3.1,1.5,5.1c-1.3,11.1-2.7,22.1-3.8,33.3c-0.4,3.6-2.5,5.5-5.4,6.7
		c-4.3,1.7-8.8,2.7-13.4,3.1c-13.7,1.3-27.3,1.5-40.8-1.6c-6.3-1.4-9.5-4.4-10.2-11.6c-2.4-24-5.6-47.8-8.7-71.6
		c-0.7-5.7,1.8-8.7,6.5-10.7c9.4-4,19.3-4.8,29.3-5.4c1.6,2.6,0,4.1-2,5.4c-6.3,2.2-13.3,1.6-19.6,3.9c-1.7,0.5-3.3,1-4.9,1.6
		c-0.9,0.4-1.8,0.9-1.9,2c-0.2,1.4,1,2,2.1,2.4c5.9,2.4,12.1,3.7,18.5,3.8c2.5,0,4.8,1.3,7.4,0.9c6.9-0.1,13.8,0.5,20.6-0.7
		c1.5-0.2,3.1-0.3,4.6-0.3c5.6,0.2,10.9-1.3,16.1-3.1c1.6-0.5,3.8-0.9,3.7-3s-2.4-2.2-3.9-2.9c-3.1-1.5-6.7-1.3-9.7-3.2
		c-0.9-2.4-0.4-4.2,2.3-4.9c0.4,0,0.8,0.1,1.1,0.2c16.7,3.5,18.1,5.2,16.3,21.8c-0.5,4.3-1,8.6-1.7,12.8c-0.3,2.1-0.6,4.3-0.9,6.4
		c-0.1,1.6-0.3,3.1-0.6,4.7c-0.1,0.3-0.2,0.7-0.5,0.9c-0.3,0.1-0.6,0.2-0.9,0.2c-0.7,0.1-1.5-0.1-2.1-0.4c-0.7-0.4-1.1-1.1-1.3-1.8
		c-1.7-6.4,1.1-13.7,1.2-20.2c0-3.7-2.8-2.4-5.5-1.7c-5.9,1.6-12.1,1.6-18,2.8c-14.4,1.3-28.9,0.4-43-2.8c-5.6-1.3-5.6-1.3-5,4.3
		c2.1,18.1,4.5,36.3,6.5,54.4c0.9,8.2,2,8.9,10.3,10.5c5.6,1,11.3,1.4,17,1.2c8.4,0,16.3-0.1,24.5-2c1.3-0.2,2.6-0.7,3.7-1.4
		c1.4-1.2,2.3-2.9,2.5-4.8c1.6-9.3,2.1-18.8,3.4-28.2C92.4,141.5,91.9,137.4,96.8,138.1z"/>
	<path class="st1" d="M50.5,106.7c-1.7,0-3.4-0.2-5-0.5c-0.5,0-0.9-0.1-1.3-0.3c-1.7-0.8-0.5-3.1-0.1-4.4c0.4-1.3,0.9-2.6,1.5-3.8
		c3.7-8.4,8.6-16.2,12-24.8c2.3-5.8,5.1-11.2,11.6-13.3c2-0.7,2.2-2.5,2.8-4.1c3.1-8,6.2-16,9.3-24c2-1.1,3.4-0.3,4.6,1.4
		c0.9,3.5-1.1,6.3-2.2,9.3c-1.7,4.8-3.9,9.4-4.7,14.5c5-7.6,6.6-16.7,10.9-24.6c1.9-1.8,4-3.1,6.8-2.1c-3.7,9.7-7.3,19.4-11.1,29
		c-0.9,2.4-1.3,4.3,0.6,6.8c4.2,5.6,2.1,11.2,0.3,17.2l-4.8,15.3c-0.7,2.2-1,4.5-2.7,6.1c-1.5,1.3-3.4,1.8-5.3,1.6
		c-0.3,0-0.6-0.1-0.9-0.2c-0.4-0.3-0.6-0.7-0.7-1.1c-0.4-1.8,0.8-3.8,1.5-5.4c0.8-2,1.7-4.1,2.5-6.2c1.6-4.1,3.1-8.1,4.7-12.2
		c0.8-1.9,1.4-3.9,1.8-6c0.3-2.1-0.2-4.2-1.4-5.9c-1.7-2.1-4.4-2.8-7.1-3.2c-0.7-0.1-1.6-0.1-1.9,0.5s0.1,1.2,0.4,1.8
		c1.2,2.1,1.5,4.5,0.9,6.8c-0.7,2.3-2.4,4.1-4.7,4.9c-2.1,0.6-4.6,0.2-6.5,1.3s-2.8,3.2-3.5,5.2c-2.1,5.3-4.4,10.6-6.9,15.8
		C50.8,103.5,50.5,105.1,50.5,106.7z"/>
	<path class="st2" d="M85.3,33l-4.1-1.4c-6.5-3.2-7.4-5.8-4.5-13.9c2.6-7.3,6.2-10.6,10.1-9.2C98,12.2,101.2,17,98.2,25.8
		c-0.5,1.5-1.1,2.9-1.7,4.3l-6.6,3C88.6,34.2,86.6,34.2,85.3,33z"/>
	<path class="st3" d="M50.5,106.8c-2.1-1.2-1.4-2.6-0.7-4.3c3.1-7,6-14.1,9-21.2c0.7-1.5,1.2-3.8,3.5-2.9c4.1,1.5,7.1,0.5,9.2-3.3
		c2.2-4.1-0.4-6.8-3.3-9.7c4.3-2.8,8.5-2.1,11.8,0.6c3.3,2.8,4.9,6.7,3.1,11.4c-3.7,9.5-7.2,19-10.7,28.5
		C65.3,107.8,57.9,106.8,50.5,106.8z"/>
	<path class="st3" d="M85.3,33h4.6C88,41.5,84,49.2,81.2,57.3c-0.6,1.6-1.7,2.8-3.5,2.1c-2.7-1-1.1-2.8-0.5-4.3
		C79.8,47.7,82.6,40.4,85.3,33z"/>
	<path class="st3" d="M67.6,72.3c0,1.1-0.9,1.9-1.9,1.9c0,0,0,0,0,0h-0.3c-1-0.1-1.7-0.9-1.7-1.9c0,0,0,0,0-0.1l0,0
		c-0.1-1,0.7-1.9,1.8-2c0,0,0,0,0,0c0.1,0,0.3,0,0.4,0C66.9,70.4,67.7,71.3,67.6,72.3z"/>
	<path class="st4" d="M81.7,17.8c0.8-2,2.1-5.8,4.9-4.4c3.3,0.8,6.9,1.7,7.8,5.8c0.8,3.1-0.5,6.3-3.3,8c-2.2,1.5-7.3,1.7-5.7-2.2
		c0.8-2,3.8-4.7,1-6.5c-0.8-0.6-2-0.5-2.6,0.4v0c-0.6,0.6-1.4,2.1-2.4,0.9c-0.3-0.4-0.2-1,0-1.5C81.6,18.2,81.6,18,81.7,17.8z"/>
	<path class="st5" d="M42.9,119.9c-4.4-0.2-8.8-1-13-2.4c-1.6-0.5-3-1.3-2.6-3.1c0.5-2.1,2.3-1.9,3.7-1.4c5.1,1.8,10.5,2.2,15.9,2.5
		c1.8,0.1,4.6-0.1,4.4,2.5c-0.1,3.1-3,2.2-5,2.2C45.3,120.1,44.4,120,42.9,119.9z"/>
	<path class="st6" d="M57.3,115.4c1.7,0,3.3,0.7,3.2,2.5c-0.1,2.2-2.2,2.3-3.9,2.5s-3.3-0.6-3.2-2.4
		C53.5,115.9,55.5,115.7,57.3,115.4z"/>
	<g class="st7">
		<path class="st8" d="M89.8,33.1c-1.9,8.5-5.9,16.2-8.8,24.3c-0.6,1.6-1.7,2.8-3.5,2.1c-2.7-1-1.1-2.8-0.5-4.3
			c2.7-7.4,5.5-14.8,8.2-22.2L81,31.5c0,0,0,0,0,0c0,0,0,0-0.1,0c-3.1,8-6.2,16.1-9.3,24.1c-0.6,1.5-0.8,3.4-2.8,4.1
			c-6.5,2.1-9.3,7.5-11.7,13.3c-3.4,8.5-8.4,16.4-12.1,24.8c-0.6,1.3-1.1,2.6-1.5,3.9c-0.4,1.3-1.6,3.6,0.1,4.4
			c0.4,0.2,0.9,0.3,1.3,0.3c1.6,0.3,3.3,0.5,4.9,0.5c-2-1.1-1.2-2.6-0.5-4.2c3.1-7,6-14.2,9-21.2c0.7-1.5,1.2-3.8,3.5-2.9
			c4.1,1.5,7.2,0.5,9.3-3.3c2.2-4.1-0.4-6.8-3.3-9.7c4.3-2.8,8.5-2.1,11.9,0.6c3.3,2.8,4.9,6.8,3.1,11.4c-3.7,9.5-7.2,19-10.7,28.5
			c0.2,0.1,0.5,0.2,0.8,0.2c1.9,0.2,3.9-0.4,5.3-1.6c1.7-1.6,2.1-3.9,2.7-6.1l4.8-15.3c1.9-6,3.9-11.7-0.3-17.2
			c-1.9-2.4-1.5-4.4-0.6-6.8c3.8-9.6,7.4-19.4,11.1-29.1L89.8,33.1C89.8,33,89.8,33,89.8,33.1z M65.4,74.4
			C65.4,74.4,65.4,74.4,65.4,74.4l-0.4,0c-1-0.1-1.8-1-1.7-2c0,0,0,0,0-0.1c-0.1-1.1,0.8-1.9,1.8-2c0,0,0,0,0,0c0.1,0,0.3,0,0.4,0
			c1,0.1,1.8,1.1,1.7,2.1C67.4,73.5,66.5,74.4,65.4,74.4z"/>
		<path class="st8" d="M86.7,8.3c-3.9-1.3-7.6,2-10.2,9.3c-2.9,8.1-2.1,10.8,4.5,14c0,0,0,0,0,0l4.1,1.4h4.6c0,0,0,0,0,0.1
			c0,0,0,0,0,0l6.6-3l0.1,0c0.6-1.4,1.2-2.8,1.7-4.3C101.1,17,98,12.1,86.7,8.3z M85.3,25c0.8-2,3.8-4.7,1-6.5
			c-0.8-0.6-2-0.5-2.6,0.4v0.1c-0.6,0.6-1.4,2.1-2.4,0.9c-0.3-0.4-0.2-1,0-1.5c0.1-0.2,0.2-0.4,0.3-0.6c0.8-2,2.1-5.8,4.9-4.4
			c3.3,0.8,7,1.7,7.8,5.8c0.8,3.1-0.5,6.4-3.3,8C88.9,28.7,83.7,28.9,85.3,25z"/>
		<path class="st8" d="M80,66.2c-3.3-2.8-7.5-3.4-11.9-0.6c2.9,2.9,5.5,5.6,3.3,9.7c-2.1,3.8-5.1,4.8-9.3,3.3
			c-2.4-0.9-2.9,1.4-3.5,2.9c-3,7.1-6,14.2-9,21.2c-0.7,1.6-1.4,3.1,0.5,4.2c0,0,0.1,0.1,0.1,0.1c7.4,0,14.8,1.1,22.1-0.8
			c0,0,0-0.1,0-0.1c3.6-9.5,7.1-19,10.7-28.5C84.9,72.9,83.3,68.9,80,66.2z"/>
		<path class="st8" d="M77.5,59.4c1.8,0.7,3-0.5,3.5-2.1c2.8-8.1,6.9-15.8,8.8-24.3c0,0,0,0,0-0.1h-4.6c-2.8,7.4-5.5,14.8-8.2,22.2
			C76.4,56.7,74.8,58.4,77.5,59.4z"/>
		<path class="st8" d="M65.7,70.3c-0.1,0-0.3,0-0.4,0c0,0,0,0,0,0c-1.1,0.1-1.9,1-1.8,2c0,0,0,0,0,0.1c-0.1,1,0.7,1.9,1.7,2h0.4
			c0,0,0,0,0,0c1.1,0,1.9-0.9,1.9-1.9C67.5,71.4,66.7,70.5,65.7,70.3z"/>
		<path class="st8" d="M94.3,19.2c-0.9-4.1-4.6-5-7.8-5.8c-2.8-1.4-4.1,2.4-4.9,4.4c-0.1,0.2-0.2,0.4-0.3,0.6
			c-0.2,0.5-0.3,1.1,0,1.5c1,1.2,1.8-0.3,2.4-0.9v-0.1c0.6-0.8,1.8-1,2.6-0.4c2.8,1.8-0.2,4.5-1,6.5c-1.6,3.9,3.5,3.7,5.7,2.2
			C93.8,25.6,95.1,22.3,94.3,19.2z"/>
	</g>
</g>
</svg>
