<?xml version="1.0" encoding="utf-8"?>
<!-- Generator: Adobe Illustrator 23.0.1, SVG Export Plug-In . SVG Version: 6.00 Build 0)  -->
<svg version="1.1" id="Layer_1" xmlns="http://www.w3.org/2000/svg" xmlns:xlink="http://www.w3.org/1999/xlink" x="0px" y="0px" viewBox="0 0 292.4 194.1" style="enable-background:new 0 0 292.4 194.1;" xml:space="preserve">
<defs>
	<ref id="colSel" param="sel" default="#00000000"/>
</defs>
<style type="text/css">
	.st0{fill:#DBDADA;}
	.st1{fill:#4B4B4B;}
	.st2{fill:#FFFFFF;}
	.st3{fill:#ECECEC;}
	.st4{fill:#DCDBDB;}
	.st5{fill:#DCDBDA;}
	.st6{fill:#4C4C4C;}
	.st7{fill:#EBEBEB;}
	.st8{fill:#E9E9EA;}
	.st9{opacity:0.5;}
	.st10{fill:#colSel;}
</style>
<title>Double Sided Home</title>
<path class="st0" d="M140.4,65.8c18.8,0,37.7-0.5,56.4,0.2c7.8,0.3,13.5-2.3,18.3-7.5c3.1-3.4,5.4-3.1,8.7,0 c12.5,11.9,25.3,23.5,38,35.2c0.9,0.8,1.7,1.6,2.5,2.5s1.3,1.6,0.5,2.6c-1,1.2-2,0.7-3-0.1s-1.9-3-3.5-2.2s-0.8,3-0.8,4.6 c0,18.5,0.1,37-0.1,55.5c0,4,0.9,5.9,5.2,5.4c1.6-0.2,4.3-0.6,4.3,1.9s-2.6,2-4.3,2c-41.5,0-82.9,0-124.4-0.1 c-1.5-1.2-1.9-2.4,0.2-3.3c1.5-0.7,3-1.3,4.6-1.7c8.8-0.7,17.6-0.2,26.4-0.3c1.5,0,3,0,4.5,0c2.2-0.1,3.9-0.6,3.9-3.4 s-1.7-3.4-3.9-3.5c-7.1-0.2-14.3,0.1-21.4-0.1c-3.8-0.1-7.7,0.9-11.2-1.3c-1-1.3-1-3.1,0.1-4.4c2-1.5,4.4-1.3,6.7-1.3 c7.7-0.1,15.3,0,23,0c6.6,0,6.8-0.3,6.8-6.7c0.1-12.3-0.1-24.7,0.1-37c0.2-2.3-0.6-3.3-3.1-4c-7-2-14.1-1.1-21.1-1.4 c-4.2-0.2-8.6,1-12.6-1.2c-0.9-1.2-0.9-2.9-0.1-4.2c1.9-1.8,4.3-1.4,6.6-1.4c7.8-0.1,15.6-0.1,23.4,0c3.5,0,6.6-0.7,9.2-3.2 c5.6-5.2,11.4-10.1,17.2-15.2c-1.6-1.3-3.3-0.7-4.9-0.7c-14.6,0-29.2,0-43.8,0c-2.3,0-4.7,0.2-6.9-0.7 C140.3,69.5,139.7,67.6,140.4,65.8z"/>
<path class="st1" d="M141.6,161.7c-0.5,1-1,2.2-2.4,1.9c-3.1-0.6-1,1.2-1,2c-41,0-81.9,0.1-122.9,0.1c-1.6,0-3.8,0.4-3.7-2.1 c0.1-2.1,2-2.1,3.5-1.8c4.1,0.7,4.5-1.4,4.4-4.7c-0.2-20.5-0.2-41-0.2-61.4c0.5-2.8,1.4-4.9,4.9-3.1c1.1,2.6,0.4,5.3,0.8,7.9 c0.1,17.6,0,35.3,0,52.9c0,6.5,0.4,6.8,6.7,6.9c2.7,0,5.3,0,8,0c5.7-0.1,6.1-0.6,6.2-6.4c0.1-6.3-0.1-12.6,0.1-19s2.2-8.3,8.5-8.6 c3.7-0.2,7.3-0.2,11,0c5.1,0.3,7.2,2.3,7.4,7.5c0.3,6.8,0,13.6,0.2,20.5c0.1,5.2,0.7,5.9,5.7,5.9c15,0,13,1.7,13.2-12.9 c0.1-16,0-31.9,0-47.9c0.3-2.4-0.3-5,1-7.2c4-1.3,4.5,1.9,5.7,4.3c0.8,13.1,0.2,26.2,0.3,39.3c0,1.8,0.1,3.6,0,5.5 c-0.1,3.6,1.4,5.3,5,5c1.2-0.1,2.3,0.1,3.5,0.1c7.6-0.2,15.3-0.2,22.9,0c4.1,0.1,5.5-1.6,5.5-5.6c-0.1-12.8-0.2-25.6,0.1-38.3 c0-2.1-0.1-4.3,0-6.4c-0.1-1.5,0-3,0-4.5c-0.1-6.9-0.2-13.9,0-20.8c0.2-1.8,0.3-3.7,2.3-4.6l2-0.2c1.1,1.1,1.1,2.6,1.3,4 c2.2,7.2,2.2,14.8,0,22v4c1.6,1.9,1.3,4.2,1.3,6.5c0.3,13.4,0.1,26.9,0.1,40.3c0,1.8-0.1,3.7-1.4,5.2v4.1 C143.4,154.8,143.5,158.7,141.6,161.7z"/>
<path class="st1" d="M138.4,66l-1,3.8c-2.1,1.8-4.7,1.3-7.1,1.3c-16.4,0-32.8,0-50.2,0c6.8,6.4,12.9,12.3,19.6,17.7 c1.9,1.5,4.4,1.4,6.7,1.4c8.3,0,16.6,0,24.9,0c2.1,0,4.4-0.3,6.2,1.3c0,1.4,0,2.7,0,4.1c-1.8,1.7-4,1.4-6.1,1.4 c-7.8,0-15.6,0.1-23.4,0c-1,0-2.1-0.7-2.3,1.5c-0.2,1.9-2.3,1.9-4.1,1s-2.7-2.5-3.8-3.9c-0.9-1.7-2.4-3.1-4.1-4.1 c-2.2-0.2-3.7-1.5-5.1-2.9C80.3,80.6,71,73.6,62.9,65.3c-3-3-5-2.6-7.9,0.1C45.9,74,36,81.9,26.9,90.5c-0.9,0.9-1.9,2-3.5,1.4 c-1.6,0.9-3,2.2-4,3.7c-0.6,0.3-1.1,0.6-1.7,1c-1.1,0.8-2.3,1.6-3.4,0s0.2-2.5,1.1-3.3c4.6-4.3,9.3-8.6,14-12.8 c8.6-7.7,17.3-15.2,25.7-23c2.8-2.6,5.1-3,7.4,0c5.6,7.5,13.1,8.6,22,8.4C102.4,65.4,120.4,65.9,138.4,66z"/>
<path class="st2" d="M253.5,99.8c0,19-0.1,38,0.1,57c0,3.9-1,5.4-5,5.1c-4.2-0.3-8.3-0.3-12.5,0c-3.4,0.2-4.7-0.9-4.6-4.4 c0.2-7.8-0.1-15.7,0.1-23.5c0.1-4.6-1.9-6.4-6.3-6.1c-3.8,0.2-7.7,0.2-11.5,0c-4.4-0.2-6.4,1.6-6.3,6.1c0.2,7.8-0.1,15.7,0.1,23.5 c0.1,3.6-1.2,4.6-4.6,4.5c-5-0.2-10-0.3-15,0c-3.5,0.2-4.6-1.1-4.5-4.6c0.1-19.2,0.1-38.3,0.1-57.5c7.2-8,15.9-14.4,23.9-21.6 c2.9-2.6,5.6-5.6,9-7.8c2.6-1.7,4.9-1.8,7.2,0.4c8.6,8.2,17.4,16.2,26.3,24.2C251.4,96.4,252.6,98,253.5,99.8z"/>
<path class="st3" d="M141.6,91.8v-22h60.3c-4.9,4.4-9,8.1-13.1,11.8c-0.5,0.4-1.3,0.6-1.6,1.1c-6.3,9.3-15.6,9.9-25.6,9.2 C155,91.4,148.3,91.8,141.6,91.8z"/>
<path class="st2" d="M141.6,147.7v-46c1.4-1.4,3.2-1.5,5.1-1.6c9.2-0.1,18.4-0.1,27.7,0c1.8,0,3.6,0.2,5.1,1.6 c0,13.6-0.1,27.3,0.1,40.9c0.1,3.8-0.9,5.3-5,5.1C163.6,147.6,152.6,147.8,141.6,147.7z"/>
<path class="st3" d="M253.5,99.8c-9.8-9-19.8-17.7-29.3-27c-3.4-3.3-5.7-3.1-8.8-0.4c-6.5,5.7-12.8,11.6-19.4,17.1 c-4.1,3.4-7.6,7.9-12.6,10.3c-1-6.1,1.8-9.9,6.6-13.6c9.3-7.3,18-15.5,26.8-23.5c1.9-1.7,3-1.8,4.9,0c8.6,8.2,17.3,16.4,26.3,24.2 C252.2,90.4,254.4,94.4,253.5,99.8z"/>
<path class="st2" d="M141.6,161.7v-9.9c11.1,0,22.3,0.2,33.4-0.1c4.1-0.1,4.5,1.8,4.5,5.1s-0.4,5.2-4.5,5.1 C163.9,161.6,152.8,161.8,141.6,161.7z"/>
<path class="st2" d="M93.3,98.8c0.1,19.8,0.1,39.7,0.2,59.5c0,2.3-0.6,3.3-3.1,3.2c-5.3-0.1-10.7-0.2-16,0c-2.6,0.1-3-1-3-3.3 c0.1-8-0.1-16,0.1-24c0.1-4.8-1.9-6.7-6.6-6.4c-3.8,0.2-7.7,0.2-11.5,0c-4.2-0.2-6.1,1.7-6,5.9c0.1,7.8-0.1,15.7,0.1,23.5 c0.1,3.1-0.5,4.5-4,4.3c-5.5-0.3-11-0.2-16.5-0.1c-2.4,0.1-3.6-0.3-3.6-3.2c0.2-19.5,0.2-39,0.2-58.5c2.5-5.4,7.8-8,11.9-11.9 c6-5.8,12.6-11.3,18.8-17.1c2.5-2.3,5.2-3.3,7.9-0.8C72.6,79.6,83.9,88.2,93.3,98.8z"/>
<path class="st2" d="M137.3,91.7c-11.3,0-22.6,0-33.9,0.1c-1.3,0-2.8,0.4-3.8-0.6C92,84.4,84.5,77.5,76.1,69.8h61.3V91.7z"/>
<path class="st2" d="M137.3,101.8c0.1,14.3,0.1,28.6,0.2,42.9c0,2.4-0.7,3.1-3.1,3.1c-9-0.2-18-0.2-27-0.2c-2.2-3.2-1.8-6.5-0.4-9.9 c3.8-2.5,8-1.2,12.1-1.4c5.8-0.3,6.7-1,6.8-6.7c0.1-6.1,0.1-12.3,0-18.4c-0.1-4.8-1-5.7-5.9-5.9c-2.5-0.1-5,0-7.4-0.1 c-1.9-0.1-4,0.2-5.4-1.8c-0.2-2,1.2-2.8,2.7-2.9c8.6-0.7,17.2-0.7,25.8,0.1C136.3,100.9,136.9,101.3,137.3,101.8z"/>
<path class="st2" d="M106.6,152.2c0.4-0.2,0.9-0.2,1.4-0.2l24.6-0.2c4.8,0,4.4,4,4,7.8c0,0.6-0.2,1.2-0.6,1.7 c-0.6,0.4-1.2,0.5-1.9,0.5l-26.2-0.2c-0.4,0-0.9,0-1.3-0.2c-0.5-0.3-0.8-0.8-0.9-1.3c-0.8-2.1-0.8-4.5,0-6.7 c0.1-0.5,0.4-0.9,0.8-1.1C106.5,152.3,106.6,152.2,106.6,152.2z"/>
<path class="st4" d="M219.7,81.8c7.4,0.1,14,7,13.8,14.3s-7.1,14-14.4,13.7s-13.6-6.8-13.6-14C205.5,88.3,212.3,81.7,219.7,81.8z"/>
<path class="st5" d="M173.8,120.6c0,4,0,8,0,11.9c0,3.5-1.6,5.3-5.1,5.2c-3.8,0-7.6-0.1-11.5,0s-5.5-1.6-5.5-5.4 c0.1-7.8,0-15.6,0-23.4c0-3.5,1.6-5.3,5.1-5.2c3.8,0,7.6,0.1,11.4,0s5.6,1.6,5.5,5.4S173.8,116.8,173.8,120.6z"/>
<path class="st6" d="M73.5,95.6c0.1,7.7-6.1,14.1-13.8,14.2c-7.7,0.1-14.1-6.1-14.2-13.8s6.1-14.1,13.8-14.2c0,0,0,0,0,0 C67,81.8,73.2,87.9,73.5,95.6z"/>
<path class="st1" d="M107.6,137.4c-1.5-1.3-2.3-3.3-2.1-5.3c0.1-7.6,0.1-15.2,0-22.8c-0.2-2,0.6-3.9,2.1-5.3c5-0.1,9.9-0.3,14.9-0.3 c3.2-0.1,5,1.6,5,4.8c0,8.1,0,16.2,0,24.3c0,3.3-1.8,4.9-5,4.8C117.5,137.7,112.6,137.5,107.6,137.4z"/>
<path class="st7" d="M217.5,96.2c0.1,0.8,0.1,1.6,0,2.5c-0.4,2,1.3,5-1.3,5.7s-3.9-2.1-5.2-3.9c-3.1-4.2-1-11,3.6-13.2 c2-0.9,2.8,0,2.8,1.9C217.5,91.5,217.5,93.8,217.5,96.2L217.5,96.2z"/>
<path class="st7" d="M221.5,95.6c-0.1-1.2-0.1-2.3,0-3.5c0.2-1.7-1-4.1,1-5c2.3-1,3.4,1.5,4.7,2.9c3.3,3.7,3,9.4-0.7,12.7 c-0.6,0.5-1.2,0.9-1.9,1.3c-1.8,1-2.9,0.6-3-1.5C221.4,100.3,221.5,97.9,221.5,95.6L221.5,95.6z"/>
<path class="st8" d="M57.2,105.4c-5.1-1.7-7.6-4.9-7.6-9.7s2.5-8,7.6-9.6V105.4z"/>
<path class="st8" d="M61.7,105.1V86.8c4.3,0.4,7.7,3.9,7.8,8.3C69.8,100,67.1,103.5,61.7,105.1z"/>
<rect x="97.5" y="152" class="st3" width="9.6" height="9.6"/>
<rect x="141.7" y="95.1" class="st3" width="37.8" height="6.3"/>
<rect x="211.2" y="130.8" class="st3" width="17.3" height="31"/>
<rect x="50.4" y="131" class="st3" width="17.3" height="31"/>
<rect x="121.8" y="113.7" class="st3" width="3.1" height="10.6"/>
<rect x="110.3" y="122.7" class="st3" width="14.5" height="10.6"/>
<rect x="110.4" y="107.7" class="st3" width="14.5" height="10.6"/>
<rect x="155.1" y="106.1" class="st3" width="15.3" height="18.7"/>
<rect x="155.1" y="128.9" class="st3" width="15.3" height="6.4"/>
<g class="st9">
	<path class="st10" d="M137.3,91.7c-11.3,0-22.6,0-33.9,0c-1.3,0-2.8,0.4-3.8-0.6C92,84.4,84.5,77.5,76.1,69.9h61.3v0c0,0,0,0,0,0 l1-3.8c-18-0.1-36-0.5-53.9-0.1c-8.9,0.3-16.4-0.9-22-8.4c-2.3-3-4.6-2.6-7.4,0c-8.4,7.8-17.1,15.3-25.7,23 c-4.7,4.2-9.4,8.5-14,12.8c-0.9,0.9-2.2,1.7-1.1,3.3c1.1,1.6,2.3,0.8,3.4,0c0.5-0.4,1.1-0.7,1.7-1c1-1.5,2.4-2.8,4-3.7 c1.6,0.5,2.5-0.6,3.5-1.5C36,81.9,45.9,74,55,65.3c2.9-2.7,4.9-3.1,7.9-0.1c8.1,8.3,17.4,15.4,25.6,23.5c1.4,1.4,2.9,2.7,5.1,2.9 c1.7,0.9,3.1,2.3,4.1,4.1c1.1,1.4,2,3,3.8,3.9c1.7,0.9,3.9,0.9,4.1-1c0.2-2.2,1.3-1.5,2.3-1.5c7.8,0.1,15.6,0,23.4,0 c2.1,0,4.4,0.2,6.1-1.4C137.4,94.4,137.4,93,137.3,91.7c0-0.1,0-0.1,0-0.1V91.7z"/>
	<path class="st10" d="M76.1,69.9c8.5,7.7,15.9,14.5,23.6,21.3c1.1,1,2.5,0.6,3.8,0.6c11.3,0,22.6,0,33.9,0v-0.1V69.9v0H76.1z"/>
</g>
<path class="st3" d="M93.3,98.8c-5.6-2.8-9.1-8.1-13.9-11.8c-5.5-4.2-10.3-9.3-15.3-14.1c-4.9-4.6-5.3-4.4-10.1-0.1 c-10,9.1-20.2,18-30.3,27c-0.1-2.6-0.2-5.2-0.3-7.8c10.8-9.6,21.7-19.1,32.4-28.8c2.5-2.3,4-2.3,6.5,0c10.3,9.6,20.8,19.1,31.3,28.6 C93.5,94.1,93.4,96.4,93.3,98.8z"/>
<path class="st3" d="M137.3,101.8c-8.6,0-17.2,0-25.8,0c-1.7,0-3.9-0.6-3.9,2.3c-1,11.1-1,22.2,0,33.3c0,3.4-0.1,6.8-0.1,10.2 c-10,0.5-10,0.5-10-9.4c0-14.1,0.1-28.3,0.2-42.4c1.8,0.2,2.7,1.8,4,2.8s3,1.5,3.3-0.1c0.6-4,3.3-2.7,5.4-2.7c9-0.1,18,0,27,0 C137.3,97.8,137.3,99.8,137.3,101.8z"/>
</svg>
