<?xml version="1.0" encoding="utf-8"?>
<!-- Generator: Adobe Illustrator 23.0.1, SVG Export Plug-In . SVG Version: 6.00 Build 0)  -->
<svg version="1.1" id="Layer_1" xmlns="http://www.w3.org/2000/svg" xmlns:xlink="http://www.w3.org/1999/xlink" x="0px" y="0px"
	 viewBox="0 0 595.3 841.9" style="enable-background:new 0 0 595.3 841.9;" xml:space="preserve">
<style type="text/css">
	.st0{fill:#4B4B4B;}
	.st1{fill:#FFFFFF;}
	.st2{fill:#ECECEC;}
	.st3{fill:#4D4D4D;}
	.st4{fill:#EAEAEA;}
	.st5{opacity:0.5;}
	.st6{fill:#ED2183;}
</style>
<title>Single Home</title>
<path class="st0" d="M367.6,319.5c0,20.3,0.1,40.6-0.1,60.9c-0.1,4.4,1.3,5.6,5.3,5c0.8-0.1,1.7-0.1,2.5,0c1.7,0.2,4.3-0.7,4.1,2.1
	s-2.7,1.9-4.4,1.9c-62.3,0-124.5,0-186.8,0c-1.7,0-4.4,0.8-4.4-1.9c0-3.1,2.9-2,4.6-2.1c7.1-0.2,7.1-0.1,7.1-7.5c0-19.5,0-39,0-58.4
	c1.4-1.4,2.8-1.3,4.3-0.3c1.4,2,1.1,4.2,1.1,6.4c0.3,12.5,0,24.9,0.1,37.4c0,6.5,0.3,6.7,6.8,6.7c9,0,18,0,26.9,0
	c5.8,0,6.1-0.4,6.1-6.3c0.1-12.5-0.1-24.9,0.1-37.4c-0.1-2.2,0-4.3,0.4-6.4c1.3-2.2,1.9-5.7,5.9-3.4c0.6,1.6,0.8,3.2,0.7,4.9
	c-0.2,18.6,0,37.3-0.1,55.9c0,2.1-0.6,4.4,1.4,6c5.1,1.6,10.2,0.8,15.3,0.6c3.3-0.1,3.2-2.8,3.3-5.1c0.1-7.5,0-15,0-22.4
	c0-1.8,0-3.7,0.1-5.5c0.4-4.1,2.6-6.4,6.7-6.6c4.1-0.3,8.3-0.3,12.5,0c5.4,0.3,7.4,2.3,7.6,7.8c0.3,8.3,0.1,16.6,0.1,24.9
	c0,6.9,0.3,7.3,7.4,7.1c3.8-0.1,7.6,0.8,11.3-0.9c1.9-1.7,1.3-4,1.3-6.1c0-18.3,0.1-36.5,0-54.8c-0.1-1.7,0.1-3.3,0.7-4.9
	c3.5-2.3,4.2,0.9,5.7,2.7c1.3,7.7,0.4,15.5,0.6,23.2c0.1,6.9,0.1,13.9,0,20.8c-0.1,4.1,1.3,6.4,5.6,6c7.8-0.2,15.6,0,23.4-0.1
	c12-0.1,10.8,1.2,10.9-11.1c0.1-11-0.2-21.9,0.1-32.9c0-2.2-0.3-4.5,1.1-6.5C364.8,318.2,366.2,318,367.6,319.5z"/>
<path class="st0" d="M199.6,319.5h-4c-2.5-0.9-6.7,1.6-7.5-1.8c-0.8-3.1,3.5-3.9,5.7-5.3c10.5-7,21.2-13.7,31.8-20.6
	c2.4-1.7,5.4-2.6,8.3-2.5c8.5,0.2,17-0.4,25.4,0.2c7.1,0.5,12.3-1.5,17.1-6.6s5.4-5,10.2,0.1c4.5,4.9,9.5,6.9,16.2,6.4
	c8.8-0.6,17.6,0,26.4-0.2c3-0.1,5.9,0.8,8.4,2.5c11.1,7.3,22.4,14.4,33.5,21.6c1.7,1.1,4.8,1.7,4.1,4.3c-0.7,2.8-3.7,1.3-5.6,1.6
	c-0.7,0.1-1.3,0.1-2,0.2h-4c-2,1.6-4.4,1.3-6.6,1.3c-8.7,0-17.5,0-26.2,0c-1,0-2.2-0.5-2.9,0c-4.4,2.9-4.3,3-7.3-1.2l-3.9-3.5
	c-7.5-3.5-12.5-10.2-18.6-15.5c-4.6-4-9.5-7.8-13.6-12.4c-2.1-2.3-3.7-1.6-5.9,0.2c-9.3,7.9-18,16.6-27.4,24.5
	c-1.4,1.1-2.3,2.9-4.5,2.6c-1.7,0.9-3.1,2.2-4.1,3.9c-3.1,5.1-3.2,5.2-8.7,2.3c-1.7-0.7-3.5-1-5.3-0.9c-7.6,0-15.2,0-22.8,0
	C203.6,320.7,201.4,320.9,199.6,319.5z"/>
<path class="st1" d="M315.6,385.1c-6.1,0.1-12.3,0-18.4,0.3c-2.8,0.1-3.7-0.7-3.6-3.5c0.2-10,0.1-19.9,0.1-29.9c0-5.6-1-6.6-6.8-6.6
	c-3.5,0-7,0-10.5,0c-5.8,0-6.7,1-6.8,6.6c0,10-0.1,19.9,0,29.9c0,2.9-0.8,3.7-3.6,3.6c-6.1-0.2-12.3-0.2-18.4-0.2
	c-1-1.9-0.5-3.9-0.5-5.9c-0.1-17.5,0-35-0.1-52.4c-0.2-3,1-5.9,3.3-7.9c8.5-7.8,17.2-15.2,25.5-23.1c4.6-4.4,6.4-4.1,11,0.2
	c8.5,8,17.4,15.5,25.9,23.5c2.1,1.9,3.5,3.7,3.5,6.8c-0.1,18.8,0,37.6,0,56.4C316.2,383.5,316.1,384.4,315.6,385.1z"/>
<path class="st1" d="M242.5,325.3c0.1,14.3,0.1,28.6,0.2,43c0,2.4-0.7,3.1-3.1,3.1c-12.3-0.1-24.7-0.1-37,0c-2.4,0-3.1-0.7-3.1-3.1
	c0.1-14.3,0.2-28.6,0.2-43c1.6-1.6,3.6-1.6,5.6-1.6c11.3,0,22.6-0.4,33.9,0.4C240.5,324.1,241.6,324.5,242.5,325.3z"/>
<path class="st1" d="M363.4,324.3c0.1,14.3,0.1,28.6,0.2,43c0,2.4-0.7,3.1-3.1,3.1c-11-0.2-22-0.2-33-0.2c-1.6-1.6-1.6-3.6-1.6-5.6
	c-0.1-11.5-0.1-22.9,0-34.4c0.1-6.1,1.3-7.3,7.4-7.4c8.1-0.1,16.3-0.1,24.4,0C359.8,322.7,361.9,322.7,363.4,324.3z"/>
<path class="st2" d="M289.6,367.3c0,5-0.1,10,0,14.9c0.1,2.4-0.7,3-3.1,3.1c-13,0.6-13,0.7-13-12.1c0-7,0.1-14,0-20.9
	c0-2.4,0.7-3,3.1-3.1c13-0.6,13-0.7,13,12.1L289.6,367.3z"/>
<path class="st1" d="M221.1,375.3h19c1.1-0.4,2.3,0.2,2.6,1.2c0.1,0.4,0.2,0.7,0.1,1.1v5.4c0.1,0.5-0.1,1-0.3,1.5
	c-0.6,0.6-1.4,0.9-2.2,0.7h-38.7c-0.4,0-0.9,0-1.3-0.3c-0.5-0.4-0.7-1.1-0.7-1.7c-0.1-1.8-0.1-3.7,0-5.5c0-0.7-0.1-1.4,0.5-1.9
	c0.6-0.4,1.2-0.6,1.9-0.5L221.1,375.3z"/>
<path class="st1" d="M326.8,375.7l0.1-0.1c0.6-0.2,1.2-0.2,1.8-0.2l31.2-0.1c0.9-0.1,1.8,0.1,2.4,0.7c0.4,0.7,0.5,1.5,0.4,2.3
	c-0.1,1.4-0.1,2.9,0,4.3c0.2,0.7,0,1.5-0.4,2.2c-0.5,0.4-1.2,0.6-1.9,0.5l-32.8-0.2c-0.3,0-0.6,0-0.9-0.2c-0.3-0.2-0.4-0.4-0.6-0.7
	c-0.7-1.4-1-3-0.9-4.6C325.2,378.3,325.4,376.4,326.8,375.7z"/>
<path class="st1" d="M298.3,293.3c11.8,0,22.3,0,32.9,0c1,0,1.9,0.3,2.8,0.9c10.6,6.7,21.1,13.5,32.9,21h-43.4c-1,0-1.9-0.5-2.6-1.2
	L298.3,293.3z"/>
<path class="st1" d="M264.4,293.3c-7.6,7.2-14.6,13.6-21.4,20.1c-1.3,1.3-3,2-4.9,2c-13.5-0.1-26.9,0-41.8,0
	c12-7.7,22.9-14.7,33.8-21.7c0.8-0.5,1.9-0.3,2.9-0.3C243.2,293.3,253.3,293.3,264.4,293.3z"/>
<path class="st3" d="M281.5,305.3c6.6,0,12,5.3,12.1,11.9s-5.3,12-11.9,12.1c-6.6,0-12-5.2-12.1-11.8
	C269.7,310.9,275,305.5,281.5,305.3z"/>
<path class="st0" d="M233.6,344.1c0,4,0,8,0,12c0,3.5-1.7,5.2-5.2,5.2c-4.5,0-9,0-13.5,0c-3.4,0-5.3-1.5-5.3-5.1c0-8,0-16,0-24
	c0-3.2,1.7-4.9,4.9-5c4.7,0,9.3,0,14,0c3.5,0,5.1,1.9,5.1,5.3C233.6,336.4,233.6,340.3,233.6,344.1z"/>
<path class="st0" d="M353.6,343.2c0,3.8,0,7.7,0,11.5s-1.5,5.6-5.3,5.6c-4.5,0-9,0-13.5,0c-3.5,0-5.2-1.7-5.2-5.2
	c0-7.8,0-15.7,0-23.5c0-3.5,1.5-5.3,5.1-5.3c4.7,0,9.3,0,14,0c3.3,0,4.9,1.7,4.9,4.9C353.6,335.3,353.6,339.2,353.6,343.2z"/>
<path class="st4" d="M281.5,309.3c4.4,0,8,3.5,8.1,7.9s-3.5,8-7.9,8.1s-8-3.5-8.1-7.9c0,0,0-0.1,0-0.1
	C273.7,312.9,277.2,309.4,281.5,309.3z"/>
<path class="st2" d="M219.6,344.8c0,3.1-0.1,6.3,0,9.5c0.1,2.3-0.6,3.1-3,3.1s-3.1-0.8-3.1-3.1c0.1-6.6,0.1-13.3,0-19.9
	c-0.1-2.3,0.6-3.1,3-3.1s3.2,0.8,3.1,3.1C219.5,337.8,219.6,341.3,219.6,344.8z"/>
<path class="st2" d="M229.6,344.3c0,3.3-0.1,6.6,0,10c0.1,2.4-0.7,3.1-3.1,3.1s-3-0.9-3-3.2c0.1-6.6,0.1-13.3,0-19.9
	c-0.1-2.4,0.7-3.1,3.1-3.1s3.1,0.9,3,3.2C229.5,337.7,229.6,341,229.6,344.3z"/>
<path class="st2" d="M333.6,344.4c0-3.3,0.1-6.7,0-10c-0.1-2.4,0.6-3.1,3.1-3.1s3.1,0.9,3,3.2c-0.2,3.3,0,6.7,0,10
	c0,1.4,0.2,2.8,2,2.8s2-1.4,2-2.8c0-3.3,0.1-6.7,0-10c-0.1-2.3,0.5-3.2,3-3.2s3.1,0.8,3.1,3.1c-0.1,6.6-0.1,13.3,0,20
	c0,1.9-0.2,3.2-2.6,3c-1.9-0.1-3.8,0.3-3.4-2.7c0.2-1.6-0.2-3.3-2.2-3.1c-1.6,0.1-1.9,1.7-1.7,3.1c0.4,2.9-1.5,2.5-3.4,2.7
	c-2.4,0.2-2.7-1-2.6-3C333.7,351,333.6,347.7,333.6,344.4z"/>
<rect x="320.4" y="375.5" class="st2" width="7.4" height="9.6"/>
<g class="st5">
	<path class="st6" d="M371.2,313.4c-11.1-7.3-22.4-14.4-33.5-21.6c-2.4-1.7-5.4-2.6-8.4-2.5c-8.8,0.2-17.7-0.4-26.4,0.2
		c-6.7,0.5-11.7-1.5-16.2-6.4c-4.8-5.1-5.3-5.2-10.2-0.1s-10.1,7.1-17.1,6.6c-8.4-0.7-17,0-25.4-0.2c-3-0.1-5.9,0.8-8.3,2.5
		c-10.6,6.9-21.3,13.6-31.8,20.6c-2.2,1.5-6.5,2.2-5.7,5.3c0.9,3.4,5,0.9,7.5,1.8h4c1.8,1.5,4,1.3,6.2,1.3c7.6,0,15.2,0,22.8,0
		c1.8-0.1,3.6,0.2,5.3,0.9c5.5,2.9,5.6,2.9,8.7-2.3c1-1.6,2.4-2.9,4.1-3.9c2.2,0.3,3.2-1.5,4.5-2.6c9.4-7.9,18.1-16.6,27.4-24.5
		c2.1-1.8,3.8-2.5,5.9-0.2c4.1,4.6,9,8.4,13.6,12.4c6.1,5.3,11.1,11.9,18.6,15.5l3.9,3.5c3,4.2,3,4.1,7.3,1.2c0.7-0.5,1.9,0,2.9,0
		c8.7,0,17.5,0,26.2,0c2.3,0,4.6,0.3,6.6-1.3h4c0.7,0,1.3-0.1,2-0.2c2-0.3,5,1.2,5.7-1.6C376,315.1,372.9,314.5,371.2,313.4z
		 M243.1,313.4c-1.3,1.3-3,2-4.9,2c-13.5-0.1-26.9,0-41.8,0c12-7.7,22.9-14.7,33.8-21.7c0.8-0.5,1.9-0.3,2.9-0.3
		c10.1-0.1,20.3-0.1,31.3-0.1C256.8,300.5,249.9,306.9,243.1,313.4z M323.6,315.2c-1,0-1.9-0.5-2.6-1.2l-22.6-20.6
		c11.8,0,22.3,0,32.9,0c1,0,1.9,0.3,2.8,0.9c10.6,6.7,21.2,13.5,32.9,21H323.6z"/>
	<path class="st6" d="M331.3,293.3c-10.6,0-21.1,0-32.9,0l22.6,20.6c0.7,0.7,1.6,1.2,2.6,1.2H367c-11.8-7.5-22.3-14.3-32.9-21
		C333.2,293.7,332.2,293.4,331.3,293.3z"/>
	<path class="st6" d="M233.1,293.4c-1,0-2.2-0.1-2.9,0.3c-11,6.9-21.8,14-33.8,21.7c14.9,0,28.3-0.1,41.8,0c1.8,0,3.6-0.7,4.9-2
		c6.8-6.5,13.8-12.9,21.4-20.1C253.4,293.3,243.3,293.3,233.1,293.4z"/>
</g>
<path class="st2" d="M242.5,325.3h-42.7l-0.1-5.9l32.7-0.1c0.8,0,2.3-0.1,2.4,0.2c2.8,7.7,5.2,0.3,7.8-0.1
	C242.5,321.4,242.5,323.3,242.5,325.3z"/>
<path class="st2" d="M315.6,385c0-17.8,0-35.6,0-53.3c0.2-2.5-0.2-4.9-1-7.3c-1.2-2.7-3.5-4.7-5.8-6.6c-7.9-6.5-15.4-13.5-22.6-20.8
	c-1.5-1.5-3.3-3.2-5.4-2.9c-1.3,0.3-2.4,1-3.3,2l-25.6,23.3c-3.1,2.1-4.8,5.8-4.3,9.5l0.1,56.2c-0.9-0.4-1-1.6-1-2.6V317
	c0-0.5-0.2-1.2,0.2-1.6c1.8-1.7,3.7-3.3,5.6-5l11.1-10l11.1-10l5.1-4.6c0.4-0.4,0.9-0.7,1.5-0.9c0.8,0,1.6,0.4,2.1,1.1l31.2,28.5
	c0.7,0.5,1.3,1.2,1.6,2c0.2,0.7,0.3,1.4,0.3,2.1c0,5,0,10,0,14.9v15v15v15v3.6C316.7,383.2,316.3,384.3,315.6,385z"/>
<path class="st2" d="M363.4,324.3c-10.5,0-20.9,0.1-31.4-0.1c-3.5-0.1-4.6,1.1-4.5,4.6c0.2,13.8,0.1,27.6,0.1,41.3
	c-1.3,0.1-2.7,0-4,0.2c-2.6,0.4-3.4-0.7-3.4-3.3c0.2-16.1,0.2-32.3,0.2-48.4c1.2,0.9,2.3,1.8,3.5,2.8s2.7,1.2,2.9,0
	c0.7-4.4,3.9-2.9,6.3-2.9c10.1-0.1,20.3,0,30.4,0.1C363.5,320.4,363.5,322.4,363.4,324.3z"/>
</svg>
