<?xml version="1.0" encoding="utf-8"?>
<!-- Generator: Adobe Illustrator 23.0.1, SVG Export Plug-In . SVG Version: 6.00 Build 0)  -->
<svg version="1.1" id="Layer_1" xmlns="http://www.w3.org/2000/svg" xmlns:xlink="http://www.w3.org/1999/xlink" x="0px" y="0px"
	 viewBox="0 0 183.8 198.9" style="enable-background:new 0 0 183.8 198.9;" xml:space="preserve">
<style type="text/css">
	.st0{fill:#ECECEC;}
	.st1{fill:#4C4B4C;}
	.st2{fill:#4D4C4C;}
	.st3{fill:#4C4C4C;}
	.st4{fill:#4D4D4D;}
	.st5{fill:#4D4C4D;}
	.st6{fill:#545051;}
	.st7{fill:#565556;}
	.st8{fill:#FFFFFF;}
	.st9{fill:#FCFCFC;}
	.st10{fill:#F7F6F6;}
	.st11{opacity:0.5;}
	.st12{fill:#ED2183;}
	.st13{fill:#E8E6E7;}
	.st14{fill:#EBEBEC;}
	.st15{fill:#EAEAEA;}
	.st16{fill:#EBEAEB;}
</style>
<title>Three Brushes &amp;amp;  one bucket-01</title>
<path class="st0" d="M100.7,171.3c0.4-0.3,0.8-0.5,1.3-0.7c7.3-1,7.7-1.4,7.7-9.1c0-14.5,1.2-29,2-43.5c0.1-2.5,0-4.8-3.3-4.7
	c0.7-2.3,2.8-1.9,4.5-2c2.4-0.2,4.9-0.1,7.8-1.5c-3.3-0.8-6.5,1-8.9-1.3v-3c1-2.2,3.1-2.3,5.1-2.4c7.5-0.5,14.8-2,21.9-4.4
	c5.3-1.7,6.3-0.8,5.6,4.8c-2.6,19.3-5.8,38.4-8.6,57.7c-0.7,4.6-3.3,7.4-7.8,8.5c-6.8,1.7-13.7,2.7-20.7,3.1
	C104.9,173,102.5,173.4,100.7,171.3z"/>
<path class="st1" d="M100.7,171.3c9,0.4,17.9-1,26.7-2.9c4.2-0.9,6.4-3,7-7.6c2.8-20.6,6-41.1,9.2-62.5c-10.4,4.8-21.3,5.4-31.9,7.1
	c-15.8,0-31.6,0.6-47.1-3c-4.4-1-8.6-2.4-12.8-4.1c1.8,12.1,3.6,23.8,5.4,35.6c0.6,4.1,1.2,8.2,1.8,12.3c0.3,1.7,0.7,3.7-1.7,3.9
	c-2,0.2-2-2-2.3-3.3c-1.5-9.5-2.9-19-4.3-28.6c-1.1-7.6-2.2-15.1-3.5-22.7c-1-6-0.1-8.4,5.4-11.2c3.1-1.6,6.4-2.7,9.9-3.3
	c1.2,0.9,1.2,2.2,0.9,3.5c-1.7,2.9-5.2,2.5-7.6,4.1c-1.1,0.7-2.6,1.1-2.7,2.6c-0.1,1.9,1.6,2.3,3,2.8c2.3,1,4.6,1.6,7,2.3
	c1.4,0.4,2.9,0.8,4.3,1c4.7,1,9.5,1.5,14.2,2c2.4,0.8,4.9,0.4,7.4,0.6c3.7-0.1,7.4-0.1,11.1,0c1.4,0,2.8,0,4.2,0c1.1,0,2.1,0,3.2,0
	c1.8-0.1,3.6-0.3,5.4-0.8c2.1-0.2,4.1-0.3,6.2-0.3c1.8,0,3.4-0.8,5.1-0.8c1.4-0.1,2.8-0.4,4.2-0.7c1.4-0.3,2.7-0.6,4-1.1
	c2.4-0.8,4.8-1.5,7-2.4c1.2-0.5,2.7-1,2.8-2.5s-1.4-2.1-2.5-2.7s-2.4-1.1-3.3-2.2c-0.2-1.8-0.3-3.5,1.9-4.1c2.2,1.1,4.6,2.1,6.7,3.3
	c3,1.8,4,4.6,3.5,8.1c-3.6,23.1-7.3,46.3-10.6,69.4c-0.7,4.6-3,6.7-6.9,8c-7.8,2.5-15.9,3.5-24,3.9c-13.3,0.6-26.6,0.3-39.7-2.9
	c-8.5-2.1-12.3-8.2-10.8-16.7c0.2-1.1,0.5-2,1.7-2c1.1,0,2,0.8,2.1,1.8c0.5,1.9,0.8,3.9,0.9,5.9c-0.1,4.4,2.6,6.1,6.3,6.9
	C78.4,170.8,89.5,171.9,100.7,171.3z"/>
<path class="st2" d="M62.5,85.4c0-1.4,0-2.8,0-4.2c0.1-3.3,0.2-6.7,0.1-10c0-2.9,0.3-6.2,2.4-7.9c4.2-3.4,3.6-7.8,3.6-12.2
	c0-5.8,0-11.6,0-17.5c1.2-1.3,2.6-1.2,4-0.5c2.2,2.8,1.2,6,1.4,9.1c0.2,3.8-0.1,7.6,0.6,11.4c0.7-6.8,0.5-13.5,0.5-20.3
	c0.5-3.1,2.5-5.7,5.4-6.9c0,9.4,0.1,18.9,0.2,28.3c0,1.4-0.7,3.2,0.9,4.1c6.9,3.9,7.4,10.4,7.1,17.3c0,0.5,0.1,1,0.1,1.5
	c1.2,1.3,1.2,2.8,1.2,4.4c0.3,4.7,0.1,9.3,0.1,14c0,1.8,0,3.7-1.4,5.2c-2.4,0.2-4.9,0.8-7.2-0.4c0.9-1.8,1.8-3.5,1.8-5.6
	c-0.1-7.8,0.2-15.6-0.1-23.4c-0.2-5.2-3.6-8.7-7.8-8.6c-1,0-2.1,0.1-2.7,1c-0.8,1.1,0.4,1.7,0.9,2.5c3.2,4.9,2.7,8.3-2.2,11.2
	c-2.7,1.6-3.3,3.7-3.4,6.5c-0.3,4.7,1.3,9.6-1.3,14.1c-1.5,0.2-2.9-0.2-4.1-1.1C60.5,93.7,60.5,89.2,62.5,85.4z"/>
<path class="st2" d="M105.7,70.6c-9.4-2.4-9.5-2.4-8-12c1.2-7.2,2.7-14.4,3.8-21.6c0.5-3.2,1.9-3.9,4.7-3.3c3.3,0.7,6.6,1.1,9.8,1.9
	c4.2,1,7.1,3.8,6.5,8.1c-1.1,8.2-1.7,16.5-4.7,24.3C114.9,72.3,111.5,73,105.7,70.6z"/>
<path class="st3" d="M131.8,63.8c-10.4-3.6-9.7-1.5-6.2-12.3c2.3-7.1,4.8-14.1,6.9-21.2c0.9-3,2.4-3.6,5.1-2.6
	c3.1,1.1,6.3,1.9,9.4,3.1c4.2,1.7,6.7,5,5.4,9.4c-2.3,7.6-4.1,15.3-7.6,22.5c-1.4,1.7-2.7,3.5-5.1,3.9c-1,0.2-2,0.1-2.9-0.1
	C135.1,65.7,132.9,65.7,131.8,63.8z"/>
<path class="st2" d="M72.8,33.6l-4.1,0.1c-6.4-0.3-8.2-2.8-8-11.1c0.2-6.2,1.9-8.9,5.9-9c9.2-0.3,13.3,2.4,14,9c0.1,1.3,0,2.7-0.1,4
	c-1.4,2.2-2.5,4.6-4.9,6C75.1,33.9,74.2,34.5,72.8,33.6z"/>
<path class="st2" d="M105.7,70.6c4.2-0.3,8.8,1.2,12.2-2.6c-0.4,3.5-0.8,6.9-1.2,10.4c0.8,1.6,0.3,3.2,0.2,4.8
	c-1.6,5.7-1.3,12-4.4,17.3c-1.5,0.8-3.2,1-4.9,0.7c-1.3-3.9,0.7-7.5,1.2-11.2c0.7-5.3,2.6-10.5,2.2-16c-3.3,8.8-3.2,18.4-6.2,27.2
	h-4.4c-1.8-4.2,0.4-8.1,0.7-12.1c0.2-2.5,0.7-4.9,1.3-7.3c0.2-1.6,0.9-3.2,2.1-4.3C104.8,75.3,105.3,72.9,105.7,70.6z"/>
<path class="st4" d="M111.7,108.5c2.9-0.2,5.9-0.5,8.8-0.7c1.5-0.1,2.8,0.3,2.8,1.9c0.1,1.4-1.1,1.8-2.3,2
	c-4.2,0.5-8.4,1.1-12.6,1.7c-12.5,0.3-25,0.3-37.4-1.7c-1.8-0.3-4.8,0.3-4.2-2.7c0.6-2.7,3.4-1.4,5.1-1.1
	c12.5,1.8,25.2,2.2,37.9,1.1C110.4,108.9,111.1,108.7,111.7,108.5z"/>
<path class="st2" d="M131.8,63.8l5,1.6c-3.9,11.4-6.8,23.2-12.1,34.1l-5.1,0.6c-0.7-5.9,2.9-10.7,4.2-16.2c0.6-1.6,1.5-3,2.8-4.2
	L131.8,63.8z"/>
<path class="st2" d="M139.6,65.6l5.2-3l-6.4,20l-1.5,3.9c0.2,4-1.2,8-3.9,11c-1.3,0.8-2.9,1.1-4.4,1c-0.6-0.6-0.7-1.5-0.5-2.3
	c3-9.7,5.9-19.4,9.9-28.7C138.4,66.7,139,66.1,139.6,65.6z"/>
<path class="st5" d="M104.4,77.6c-0.3,1.3-0.6,2.7-0.9,4c-4.7,2.2-10,2.2-14.7,0.1c0-1.3,0-2.7,0-4L104.4,77.6z"/>
<path class="st6" d="M126.5,79.6c-0.1,1.5-0.6,2.9-1.7,4c-3.2,1.5-6.2,0.7-9.1-1.1c-0.2-1.4,0.1-2.8,0.9-4L126.5,79.6z"/>
<path class="st7" d="M63.9,108.5c-0.1,1.1-1.1,1.9-2.2,1.8c-0.2,0-0.5-0.1-0.7-0.2c-1.2-0.3-2.8-0.4-2.5-2.3s1.5-1.9,2.9-1.6
	S64,106.6,63.9,108.5z"/>
<path class="st8" d="M66.7,98.5c0-4.3,0-8.6,0-13c-0.1-4-0.7-7.5,4.9-9.3c5.1-1.7,3.8-7.3-2.5-11.3c1.9-3.1,5.8-4.3,9.1-3
	c3.7,1.2,6.3,3.9,6.4,8c0.2,9.1,0,18.3,0.1,27.4c0,2.5-1.1,3.2-3.2,3.3C76.6,100.6,71.6,99.9,66.7,98.5z"/>
<path class="st8" d="M139.6,65.6c-3.7,11-7.3,21.9-11,32.9c-1.1,0.7-2.5,1.1-3.9,1c3.3-11.6,6.2-23.4,12.1-34.1L139.6,65.6z"/>
<path class="st8" d="M104.8,101.3c-0.2-8.1,2-15.8,3.6-23.6c0.4-2-1.4-7.1,3.5-5.8c3.3,0.8,0.8,4.6,0.5,6.7
	c-1.3,7.7-3.1,15.2-4.8,22.8L104.8,101.3z"/>
<path class="st8" d="M72.8,33.6l2.9-1.1c2.3,4.9,0.5,10,1,15c0.2,2.3,0,4.6,0,6.9c0,1.5,0,3.1-2.2,3c-2-0.2-1.7-1.7-1.7-3
	C72.7,47.5,72.7,40.5,72.8,33.6z"/>
<path class="st8" d="M70.5,71.2c-0.1,1.3-0.7,2-1.8,2c-0.8,0-1.5-0.6-1.6-1.4c-0.2-0.9,0.4-1.8,1.3-2c0.1,0,0.2,0,0.2,0
	C69.7,69.6,70.2,70.5,70.5,71.2z"/>
<path class="st9" d="M107.8,46.4c1-0.1,3.2,1.1,3.8-1.2c0.6-2.8-1.9-2.4-3.6-2.9c-1.3-0.4-3.3-0.1-2.6-2.6c0.5-2,1.9-1.5,3.2-1.3
	c2.1,0.3,4.3,0.6,6.4,1.1c2.9,0.7,4.2,2.6,3.6,5.5c-1.1,5.7-2.3,11.4-3.2,17.1c-0.6,4.1-2.7,5.3-6.6,4.4c-1.9-0.4-3.9-0.7-5.9-0.9
	c-1.2-0.2-2.3-0.2-1.9-2c0.4-1.6,1.1-2.3,2.8-1.8c1,0.3,1.9,0.4,2.9,0.5c1,0.2,2-0.5,2.1-1.5c0,0,0-0.1,0-0.1c0.3-1-0.3-2-1.3-2.2
	c0,0-0.1,0-0.1,0c-1.3-0.3-2.6-0.7-3.9-0.9c-1.5-0.3-1-1.4-1-2.3c0.1-1.2,0.7-1.8,2-1.3c0.3,0.1,0.7,0.2,1,0.2
	c1.7,0.1,4.1,1.2,4.7-1.2c0.7-2.7-2.1-2.3-3.7-2.8c-1.2-0.4-3.3,0-2.8-2.5S105.9,46.3,107.8,46.4z"/>
<path class="st9" d="M137.7,61.3l-8.7-2.8c-1.6-0.5-0.8-1.5-0.6-2.4s0.5-1.7,1.6-1.4c0.6,0.2,1.2,0.5,1.9,0.7
	c1.6,0.3,3.8,1.9,4.6-0.9c0.6-2.2-1.7-2.4-3.2-3c-1.4-0.5-3.2-0.6-2.5-2.8s2.4-1.3,3.7-0.9c1.6,0.4,3.4,1.7,4.3-0.6
	c1-2.7-1.7-2.7-3.2-3.4c-1.2-0.6-3.2-0.2-2.3-2.7c0.8-2.3,2.1-1.3,3.5-0.9c1.6,0.4,4,1.8,4.6-0.8s-2.1-2.4-3.6-3.1
	c-1.1-0.5-2.7-0.6-2.1-2.6c0.6-2.4,2.1-1.4,3.5-1c1,0.3,1.9,0.6,2.8,0.9c7.2,2.3,7.5,2.8,5.1,9.9c-1.6,4.7-3.1,9.5-4.7,14.1
	C141.8,59.5,140.8,61.5,137.7,61.3z"/>
<path class="st10" d="M65.6,27.2c-2.2-7.9,0.1-11.1,6.5-9.6c3,0.7,4.4,2.9,4.5,5.8c0.2,2.6-1.3,5-3.7,5.9c-1.4,0.5-2.9,0.9-2.5-1.9
	c0.3-1.9,1.5-5.1-1.3-5.5C65.4,21.2,67.5,25.4,65.6,27.2z"/>
<g class="st11">
	<path class="st12" d="M88.8,77.6c-0.1-0.5-0.1-1-0.1-1.5c0.3-6.8-0.1-13.3-7.1-17.3c-1.6-0.9-0.9-2.7-0.9-4.1
		c-0.1-9.4-0.2-18.8-0.2-28.2c-1.4,2.2-2.5,4.6-4.9,6c2.2,4.9,0.5,10,1,15c0.2,2.3,0,4.6,0,6.9c0,1.5,0,3.1-2.2,3
		c-2-0.1-1.7-1.7-1.7-3c0-6.9,0-13.9,0.1-20.8l-4,0.1c0,5.8,0,11.6,0,17.4c0,4.4,0.6,8.8-3.6,12.2c-2.1,1.7-2.4,5-2.4,7.9
		c0,3.3-0.1,6.7-0.1,10c0,1.4,0,2.8,0,4.2c-2.1,3.8-2.1,8.3,0.1,12.1c1.2,0.8,2.7,1.2,4.1,1.1c0,0,0,0,0,0c0,0,0,0,0,0
		c0-4.3,0-8.6,0-13c-0.1-4-0.7-7.5,4.9-9.3c5.1-1.7,3.8-7.3-2.5-11.3c1.9-3.1,5.8-4.3,9.1-3c3.7,1.2,6.3,3.9,6.4,8
		c0.2,9.1,0,18.3,0.1,27.4c0,2.5-1.1,3.2-3.2,3.3c0,0,0,0.1-0.1,0.1c2.3,1.3,4.8,0.7,7.2,0.4c1.4-1.5,1.4-3.3,1.4-5.2
		c0-4.7,0.2-9.3-0.1-14C90,80.4,90,78.8,88.8,77.6z M70.4,71.2c-0.1,1.3-0.7,2-1.8,2c-0.8,0-1.5-0.6-1.6-1.4c-0.2-0.9,0.4-1.8,1.3-2
		c0.1,0,0.2,0,0.2,0C69.6,69.6,70.1,70.4,70.4,71.2z"/>
	<path class="st12" d="M117.6,68.2c0-0.1,0.1-0.1,0.1-0.2c3-7.8,3.5-16.1,4.7-24.3c0.6-4.4-2.3-7.1-6.5-8.1
		c-3.2-0.8-6.5-1.2-9.8-1.9c-2.8-0.6-4.2,0.2-4.7,3.3c-1.1,7.2-2.6,14.4-3.8,21.6c-1.5,9.5-1.4,9.5,8,12
		C109.7,70.3,114.2,71.7,117.6,68.2z"/>
	<path class="st12" d="M152.3,40.1c1.3-4.4-1.2-7.7-5.4-9.4c-3.1-1.2-6.3-2-9.4-3.1c-2.7-0.9-4.2-0.3-5.1,2.7
		c-2.1,7.1-4.6,14.2-6.8,21.2c-3.5,10.8-4.2,8.7,6.2,12.3l5,1.6c0,0,0,0,0,0.1l2.8,0.2l5.2-3c0,0,0,0,0,0
		C148.3,55.4,150,47.6,152.3,40.1z"/>
	<path class="st12" d="M75.6,32.4C75.6,32.4,75.6,32.5,75.6,32.4c2.4-1.3,3.5-3.7,4.9-5.9c0,0,0,0,0,0c0.1-1.3,0.1-2.7,0.1-4
		c-0.7-6.7-4.8-9.3-14-9c-4,0.1-5.8,2.8-6,9c-0.2,8.3,1.6,10.8,8,11.1l0,0l4-0.1L75.6,32.4z"/>
	<path class="st12" d="M117.6,68.2c-3.4,3.5-7.9,2.1-12,2.4c-0.4,2.3-0.8,4.6-1.3,7c-1.2,1.2-1.9,2.7-2.1,4.3
		c-0.6,2.4-1.1,4.8-1.3,7.3c-0.3,4-2.5,8-0.7,12.1h4.4c0,0,0,0,0,0l0,0c-0.2-8.1,2-15.8,3.6-23.6c0.4-2-1.4-7.1,3.5-5.8
		c3.3,0.9,0.8,4.6,0.5,6.7c-1.3,7.7-3.1,15.2-4.8,22.8c1.7,0.3,3.4,0,4.9-0.7c3.2-5.3,2.8-11.6,4.4-17.3c0.1-1.6,0.7-3.2-0.2-4.8
		c0.4-3.5,0.8-6.9,1.2-10.4C117.8,68.1,117.7,68.1,117.6,68.2z"/>
	<path class="st12" d="M136.8,65.4L136.8,65.4C136.8,65.3,136.8,65.3,136.8,65.4l-5-1.6l-5.3,15.9c-1.2,1.2-2.2,2.6-2.8,4.2
		c-1.2,5.4-4.8,10.3-4.2,16.2l5.1-0.6C128,87.8,130.9,76,136.8,65.4z"/>
	<path class="st12" d="M128.5,98.4c1.5,0.1,3.1-0.2,4.4-1c2.7-3,4.1-7,3.9-11l1.5-3.9l6.4-20l0,0l-5.2,3
		C135.9,76.5,132.2,87.5,128.5,98.4z"/>
	<path class="st12" d="M84.7,97.2c-0.1-9.1,0-18.3-0.1-27.4c-0.1-4.1-2.7-6.8-6.4-8c-3.4-1.3-7.2-0.1-9.1,3c6.3,4,7.6,9.6,2.5,11.3
		c-5.6,1.8-5,5.3-4.9,9.3c0,4.4,0,8.7,0,13c0,0,0,0,0,0c4.8,1.4,9.8,2.1,14.8,2.1c0,0,0,0,0,0C83.6,100.4,84.7,99.7,84.7,97.2z"/>
	<path class="st12" d="M139.5,65.5l-2.8-0.2l0,0c-5.9,10.7-8.7,22.4-12.1,34c0,0,0,0,0,0c1.4,0.1,2.7-0.3,3.9-1
		C132.2,87.5,135.9,76.5,139.5,65.5z"/>
	<path class="st12" d="M111.8,71.8c-4.9-1.3-3.1,3.8-3.5,5.8c-1.6,7.8-3.8,15.5-3.6,23.6l0,0l2.8-0.1c1.6-7.6,3.5-15.1,4.8-22.8
		C112.6,76.4,115,72.7,111.8,71.8z"/>
	<path class="st12" d="M72.7,33.6c0,6.9-0.1,13.9-0.1,20.8c0,1.3-0.3,2.9,1.7,3c2.2,0.1,2.2-1.5,2.2-3c0-2.3,0.2-4.6,0-6.9
		c-0.5-5,1.3-10.1-1-15c0,0,0,0,0,0L72.7,33.6z"/>
	<path class="st12" d="M68.5,69.8c-0.1,0-0.2,0-0.2,0c-0.9,0.2-1.5,1.1-1.3,2c0.1,0.8,0.8,1.4,1.6,1.4c1.1,0,1.7-0.7,1.8-2
		C70.1,70.4,69.6,69.6,68.5,69.8z"/>
</g>
<path class="st13" d="M133,97.5c1.3-3.7,2.6-7.3,3.9-11c2.8,1.2,7.3,1.6,7.3,5s-4.5,3.8-7.3,5C135.6,96.9,134.3,97.2,133,97.5z"/>
<path class="st14" d="M88.8,81.7l14.7-0.1c-1.1,6.6-2.2,13.2-3.2,19.8l-11.6-0.2C88.8,94.6,88.8,88.2,88.8,81.7z"/>
<path class="st15" d="M62.5,85.4c0,4,0,8,0,12c-3.3-0.5-6.4-1.6-9.3-3.3c-3-1.7-3.3-3.6-0.1-5.4C56.1,87,59.2,85.9,62.5,85.4z"/>
<path class="st16" d="M115.8,82.5l9.1,1.1c-1,5.7-3.4,11-5.3,16.4l-7.2,0.5C113.1,94.4,114.2,88.4,115.8,82.5z"/>
</svg>
