<?xml version="1.0" encoding="utf-8"?>
<!-- Generator: Adobe Illustrator 23.0.1, SVG Export Plug-In . SVG Version: 6.00 Build 0)  -->
<svg version="1.1" id="Layer_1" xmlns="http://www.w3.org/2000/svg" xmlns:xlink="http://www.w3.org/1999/xlink" x="0px" y="0px"
	 viewBox="0 0 232.4 343.6" style="enable-background:new 0 0 232.4 343.6;" xml:space="preserve">
<style type="text/css">
	.st0{fill:#4C4B4C;}
	.st1{fill:#ECECEC;}
	.st2{fill:#4D4D4D;}
	.st3{fill:#4D4C4C;}
	.st4{fill:#4C4C4C;}
	.st5{fill:#FFFFFF;}
	.st6{fill:#F6F5F5;}
	.st7{fill:#F9F9F9;}
	.st8{fill:#D3D0D0;}
	.st9{fill:#504F50;}
	.st10{fill:#525252;}
	.st11{opacity:0.5;}
	.st12{fill:#B42063;}
	.st13{fill:#DDD6DA;}
	.st14{fill:#EBEAEB;}
	.st15{fill:#E5E5E5;}
</style>
<title>Two Brushes &amp;amp;  one bucket</title>
<path class="st0" d="M139.6,198.9c7.8,3.4,8,3.9,6.9,12.1c-1.1,8.3-1.5,16.7-3.2,24.9c-4.1,1.8-4.1-1.4-4.2-3.8
	c-0.2-4.6,0.9-9.2,1.2-13.8c0.1-1.1,0.8-2.2-0.3-3.6c-4.5,1.3-9.2,2.2-13.9,2.7c-14.8,1.9-29.5,1.8-44-1.9c-3.3-0.9-4.4-0.8-3.9,3.1
	c2,15.7,3.9,31.3,5.7,47c0.9,7.9,1.8,8.7,9.8,9.9c9.7,1.4,19.6,1.5,29.3,0.3c1.3-0.2,2.6-0.3,3.9-0.6c5.8-1.1,7.1-2.2,7.6-8.1
	c0.7-7.4,1.8-14.8,2.6-22.2c0.3-2.4-0.1-6.8,5-4.8c1.4,3.3,0.1,6.6-0.2,9.8c-0.7,7.5-2,14.8-2.6,22.3c-0.3,3.6-2,5.4-5,6.6
	c-3.6,1.4-7.3,2.2-11.2,2.5c-12,1-23.9,1.4-35.7-1.4c-5.2-1.2-8-3.6-8.6-9.7c-2.1-20.8-4.9-41.6-7.6-62.4c-0.4-3.2,0.7-5.6,3.5-7
	c2.1-1.1,4.2-1.9,6.4-2.8c1.4,1.2,1.3,2.6,0.9,4.2c-0.2,0.5-0.5,0.8-0.9,1.1c-3.7,2.5-3.7,2.5,0.6,4.7c1.5,0.7,3.2,1.1,4.8,1.3
	c5.5,0.9,11.1,1.1,16.6,2c1.3,0,2.7,0,4.1,0s2.7,0,4.1,0s2.7,0,4.1,0c5.6-0.4,11.1-1,16.6-2c1.7-0.2,3.3-0.7,4.9-1.4
	c4.2-1,4.3-3.1,1.6-6C138.3,200.9,138.3,199.7,139.6,198.9z"/>
<path class="st1" d="M142.3,240.1c-3.9-0.7-3.3,2.5-3.6,4.5c-1,7.7-2.2,15.5-2.5,23.2c-0.3,6.2-3.5,8.3-8.8,8.9
	c-1.3,0.1-2.6,0.1-4,0.2c-1.1-1.1-1.5-2.6-1.3-4.1c1.2-17.5,1.7-35.1,2.8-52.6c-0.1-1.5,0.5-3,1.5-4.1c5.6-0.6,11-2,16.2-4.1
	c-0.8,7.2-1.5,13.9-2.3,20.6c-0.3,2.4,0.2,4,3.1,3.3L142.3,240.1z"/>
<path class="st0" d="M81.2,202.6c0-1.5,0-3,0-4.4c0-5.8,0.1-11.6,0.1-17.5c0-3.5,0.8-6.8,3.3-9.1c2.3-2.2,2.9-4.5,2.8-7.5
	c-0.1-7,0-14,0-21c1.2-1.3,2.6-1.2,4-0.5c2.2,2.8,1.2,6.1,1.4,9.1c0.2,3.8-0.3,7.6,0.7,11.4c0.5-6.7,0.6-13.5,0.4-20.3
	c0.5-3.1,2.5-5.7,5.4-6.9c0,9.4,0.1,18.9,0.1,28.3c0,2-0.1,3.7,2.1,5c4.3,2.6,5.9,6.9,5.9,11.8c0,4.6,0.1,9.3,0.1,13.9
	c0.9,1.3,1.4,2.8,1.2,4.3c-0.3,4.5,1.3,9.2-1.4,13.5h-4c-1.8-1.9-1.3-4.4-1.3-6.6c-0.1-8.3,0.2-16.6-0.1-24.9
	c-0.3-6.9-4.8-9.8-11-7.3c-0.1,1.4,1.3,1.8,1.9,2.7c2.7,3.8,2.2,8-1.8,10.3c-3.5,2-4.3,4.6-4.2,8.2s0.1,7,0,10.4
	c0,1.8,0.2,3.7-1.2,5.2c-1.5-0.5-3.2-0.4-4.3-1.7C79.7,206.8,79.9,204.7,81.2,202.6z"/>
<path class="st0" d="M137.9,208.9l-4.7,1.7c-1.3-1.9-0.4-3.9,0-5.8c1-5.9,2.1-11.7,2.8-17.7c0.7-5.7-3.8-10.7-9.9-8.1
	c-0.7,1.4,0.8,2,1.3,2.9c2.3,4.1,1.1,8.4-3.3,9.6c-3.9,1.1-4.5,3.6-5.3,6.8c-1.1,4.8-0.3,10-3.3,14.4h-4.2
	c-2.3-4.8,0.5-9.3,0.7-13.9c-0.1-1.4,0.5-2.9,1.6-3.8c1.3-2.9,1.4-6,1.8-9.1c0.6-4.4,2.1-8.4,6-10.9c1.5-1,2.5-2.6,2.7-4.4
	c1.2-7.5,2.3-15,3.4-22.5c1.9-2,4.1-1.6,6.3-0.9c0.7,0.3,1,1.1,0.7,1.7c-0.1,0.1-0.1,0.2-0.2,0.3c-4.1,6.3-2.9,13.7-4.3,20.5
	c3-6.8,2.4-14.5,4.9-21.4c0.6-2.7,2.7-4.9,5.4-5.4c-1.4,9.5-2.8,19-4.3,28.6c-0.2,1.5-0.7,2.8,0.8,4c5.3,4.3,5.4,9.9,4,15.9
	c-0.5,2.4-0.8,4.9-1.2,7.4c-0.1,1.4-0.2,2.7-0.3,4.1C139.8,205.2,139.6,207.2,137.9,208.9z"/>
<path class="st2" d="M140.3,143l-4.9,4.9c-0.3,0.5-0.6,0.5-1,0.1l-7,0.1c-4.4,0.2-6.4-2.1-6.3-6.4c0-1.3,0-2.7,0.1-4
	c0.8-8.2,3.3-10.7,9.6-9.7c8.3,1.3,11.5,5.8,9.8,13.4C140.5,142,140.4,142.5,140.3,143z"/>
<path class="st3" d="M91.4,143l-4.1,0.1c-6.4-0.3-8.2-2.8-8-11.1c0.2-6.2,1.9-8.9,6-9c9.1-0.3,13.3,2.3,14,9c0.1,1.3,0,2.7-0.1,4
	c-1.4,2.2-2.5,4.6-4.9,6C93.8,143.3,92.9,143.9,91.4,143z"/>
<path class="st4" d="M113.6,195c-0.1,1.3-0.3,2.6-0.4,4c-1.6,1.5-4.1,1.5-5.7-0.1v-4L113.6,195z"/>
<path class="st5" d="M126.3,216.1c-0.7,17.5-1.3,35-2.1,52.5c-0.1,2.8-1.2,5.5-0.9,8.3c-12.3,2.1-24.9,1.5-37-1.6
	c-1.7-0.5-2.8-1.2-3.1-3.3c-2.2-19.3-4.6-38.6-6.9-57.8c0-0.6,0-1.3,0.1-1.9C92.9,217.9,109.6,217.6,126.3,216.1z"/>
<path class="st5" d="M85.5,210.6c-0.1-6.8-0.1-13.6-0.2-20.5c0-1.5-0.2-3,2-3.3c3.3-0.4,5.6-2.3,5.8-5.8s-2.5-5.1-5.6-6.6
	c1.8-3.2,5.7-4.5,9.1-3.2c4,1,6.8,4.8,6.6,8.9v32.4C97.4,212.2,91.4,211.9,85.5,210.6z"/>
<path class="st5" d="M115.5,212.7c1-6.5,2-13.1,2.9-19.6c0.2-1.8,1.1-2.2,2.7-2.1c3,0.2,5.3-1,6.2-4c0.8-2.8-0.4-5-2.7-6.4
	c-2.6-1.6-1.2-2.6,0.4-3.3c5.6-2.7,12.6,1.6,12.4,7.9c-0.3,8.6-2.3,17-4.2,25.4C127.4,211.9,121.4,212.6,115.5,212.7z"/>
<path class="st5" d="M91.4,143l2.9-1.1c2.3,4.9,0.5,10,1,15c0.2,2.3,0,4.6,0,6.9c0,1.5,0,3.1-2.2,3c-1.9-0.1-1.7-1.7-1.7-3
	C91.4,156.9,91.4,150,91.4,143z"/>
<path class="st5" d="M87.4,182.7c-1,0-1.8-0.8-1.8-1.7c0,0,0-0.1,0-0.1c0-0.8,0.6-1.6,1.4-1.7c0.9-0.2,1.8,0.4,2,1.3
	c0,0.1,0,0.2,0,0.3C89.2,181.9,88.5,182.5,87.4,182.7z"/>
<path class="st5" d="M134.4,148c0.3-0.1,0.7-0.1,1-0.1c-1,7.5-2,15-3.1,22.5c-0.2,1.5-0.9,2.5-2.6,2.3c-1.4-0.2-1.8-1-1.6-2.5
	c1-6.2,2-12.4,2.8-18.6C131.2,149.4,133,149,134.4,148z"/>
<path class="st5" d="M121.8,187.6c-1.2,0-1.9-0.6-2-1.4c-0.2-1.4,0.7-2.1,2-2.2c0.8-0.1,1.4,0.5,1.5,1.2c0,0.1,0,0.2,0,0.3
	C123.3,186.4,122.7,187.3,121.8,187.6z"/>
<path class="st6" d="M125.3,141.6c0-2-0.3-3.5,0.1-4.9c0.5-1.9,0.3-4.9,3.3-4.6s6.9,0.3,7.9,4.5c0.9,2.8-0.3,5.8-2.8,7.3
	c-1,0.7-2.3,0.8-3.3,0.2c-1.1-0.6-0.3-1.4-0.3-2.1c0-1.9,2.4-4.8-0.7-5.5S127.4,139.7,125.3,141.6z"/>
<path class="st7" d="M83.5,133.9c0-2.5-1.2-5.8,2.1-6.8c2.5-0.7,5.7-1,7.9,1.5c2,1.9,2.3,5,0.9,7.4c-1,1.9-2.6,3.5-4.7,2.8
	s-0.1-2.5-0.4-3.8s0.4-3.3-1.5-3.8s-2.4,1.2-2.6,2.8c-0.3,0.5-0.9,0.6-1.4,0.3C83.7,134.1,83.6,134,83.5,133.9z"/>
<path class="st8" d="M83.5,133.9h1.7c0.1,1,0.6,2.6-0.8,2.6S83.4,134.9,83.5,133.9z"/>
<path class="st9" d="M95.2,224.1c-3.8-0.1-7.6-0.8-11.2-2c-1.5-0.5-3.1-0.9-2.7-2.8c0.5-2.1,2.2-1.5,3.6-1c4.3,1.5,8.7,1.6,13.1,2.1
	c1.5,0.1,4-0.2,3.9,2c-0.1,2.7-2.7,1.7-4.3,1.8C96.8,224.2,96,224.1,95.2,224.1z"/>
<path class="st10" d="M109.8,222.2c-0.1,1.9-1.5,1.9-2.9,2s-2.9,0.1-3-1.7s1.5-1.9,2.8-2.1S109.5,220.5,109.8,222.2z"/>
<g class="st11">
	<path class="st12" d="M108.7,199.2c0.1-1.5-0.3-3.1-1.2-4.3c0-4.6-0.1-9.3-0.1-13.9c0-5-1.6-9.2-5.9-11.8c-2.2-1.3-2.1-3-2.1-5
		c0-9.4-0.1-18.8-0.1-28.2c-1.4,2.2-2.5,4.6-4.9,6c0,0,0,0,0,0c2.2,4.8,0.5,9.9,1,14.9c0.2,2.3,0,4.6,0,6.9c0,1.5,0,3.2-2.2,3
		c-1.9-0.1-1.7-1.7-1.7-3c0-6.9,0.1-13.8,0.1-20.8l-4,0.1c0,7-0.1,14,0,21c0.1,3-0.4,5.3-2.8,7.5c-2.5,2.3-3.3,5.7-3.3,9.1
		c0,5.8-0.1,11.7-0.1,17.5c0,1.4,0,3,0,4.4c-1.4,2.1-1.5,4.3,0.1,6.4c1.1,1.3,2.8,1.2,4.2,1.6c-0.1-6.8-0.1-13.6-0.2-20.4
		c0-1.5-0.2-3,2-3.3c3.4-0.4,5.6-2.3,5.8-5.8c0.2-3.5-2.5-5.2-5.6-6.6c1.8-3.2,5.7-4.5,9.1-3.2c4,1,6.8,4.8,6.6,8.9v32.3
		c0,0,0,0.1,0.1,0.1h4C110.1,208.4,108.4,203.7,108.7,199.2z M89,180.5c0,0.1,0,0.2,0,0.3c0.2,1.1-0.5,1.8-1.6,2
		c-1,0-1.8-0.8-1.8-1.7c0,0,0-0.1,0-0.1c0-0.8,0.6-1.6,1.4-1.7C87.9,179.1,88.8,179.6,89,180.5z"/>
	<path class="st12" d="M115.5,212.8C115.5,212.8,115.5,212.8,115.5,212.8C115.5,212.8,115.5,212.8,115.5,212.8L115.5,212.8z"/>
	<path class="st12" d="M136.8,175.6c-1.5-1.2-1-2.5-0.8-4c1.5-9.6,2.9-19,4.3-28.6c0,0-0.1,0-0.1,0l-4.9,4.9c0,0,0,0,0,0
		c-1,7.5-2,15-3.1,22.5c-0.2,1.5-0.9,2.5-2.6,2.3c-1.4-0.2-1.8-1-1.6-2.5c1-6.2,2-12.3,2.8-18.6c0.3-2.2,2-2.7,3.4-3.7l-6.9,0.1
		c-1.1,7.5-2.2,15-3.4,22.5c-0.1,1.8-1.1,3.5-2.6,4.4c-3.9,2.5-5.5,6.4-6,10.9c-0.4,3.1-0.5,6.2-1.8,9.1c-1.1,0.9-1.7,2.4-1.6,3.8
		c-0.2,4.7-3,9.2-0.7,13.9h4.2c1-6.5,2-13.1,2.9-19.6c0.2-1.8,1.1-2.2,2.7-2.1c3,0.2,5.3-1,6.2-4c0.8-2.8-0.4-5-2.7-6.4
		c-2.6-1.6-1.2-2.6,0.4-3.3c5.6-2.7,12.6,1.5,12.4,7.9c-0.3,8.6-2.3,17-4.2,25.4c0,0,0,0,0,0c0,0,0,0,0,0l4.7-1.7
		c1.7-1.7,1.9-3.8,1.5-6c0.1-1.4,0.2-2.7,0.3-4.1c0.4-2.5,0.7-4.9,1.2-7.4C142.2,185.5,142.1,179.9,136.8,175.6z M123.3,185.2
		c0,0.1,0,0.2,0,0.3c0,0.9-0.6,1.8-1.5,2c-1.2,0-1.9-0.6-2-1.4c-0.2-1.4,0.7-2.1,2-2.2C122.5,183.9,123.2,184.5,123.3,185.2z"/>
	<path class="st12" d="M134.3,148c0.3-0.1,0.7-0.1,1-0.1l4.9-4.9l0,0c0.1-0.5,0.2-1,0.2-1.5c1.7-7.6-1.5-12.1-9.8-13.4
		c-6.3-1-8.8,1.5-9.6,9.7c-0.1,1.3-0.1,2.7-0.1,4c-0.1,4.3,1.9,6.6,6.3,6.4l0.1,0L134.3,148C134.3,148,134.3,148,134.3,148z"/>
	<path class="st12" d="M94.3,141.9C94.3,141.9,94.3,141.9,94.3,141.9C94.3,142,94.3,142,94.3,141.9c2.4-1.3,3.6-3.7,4.9-5.9
		c0,0,0,0,0,0c0.1-1.3,0.1-2.7,0.1-4c-0.7-6.7-4.9-9.3-14-9c-4.1,0.1-5.8,2.8-6,9c-0.2,8.3,1.6,10.8,8,11.1l0.1,0l4-0.1L94.3,141.9z
		"/>
	<path class="st12" d="M96.7,171.3c-3.4-1.3-7.3,0-9.1,3.2c3.1,1.5,5.8,3.2,5.6,6.6c-0.2,3.4-2.5,5.4-5.8,5.8c-2.2,0.3-2,1.8-2,3.3
		c0,6.8,0.1,13.6,0.2,20.4c0,0,0,0,0,0c5.9,1.3,11.8,1.6,17.8,2.1v-0.1v-32.3C103.5,176.1,100.7,172.4,96.7,171.3z"/>
	<path class="st12" d="M137.3,185.2c0.2-6.3-6.8-10.5-12.4-7.9c-1.6,0.8-3,1.7-0.4,3.3c2.3,1.4,3.5,3.6,2.7,6.4
		c-0.9,3-3.2,4.2-6.2,4c-1.5-0.1-2.4,0.4-2.7,2.1c-0.9,6.5-1.9,13.1-2.9,19.6v0c0,0,0,0,0,0c0,0,0,0,0.1,0
		c5.9-0.1,11.8-0.8,17.6-2.2c0,0,0,0,0,0C135,202.2,137,193.8,137.3,185.2z"/>
	<path class="st12" d="M91.4,143c0,7-0.1,13.9-0.1,20.8c0,1.3-0.2,2.9,1.7,3c2.2,0.2,2.2-1.5,2.2-3c0-2.3,0.2-4.6,0-6.9
		c-0.5-5,1.3-10.1-1-14.9c0,0,0-0.1,0-0.1L91.4,143z"/>
	<path class="st12" d="M87,179.2c-0.8,0.1-1.5,0.8-1.4,1.7c0,0,0,0.1,0,0.1c0,1,0.8,1.7,1.8,1.7c1.1-0.2,1.8-0.8,1.6-2
		c0-0.1,0-0.2,0-0.3C88.8,179.6,87.9,179.1,87,179.2z"/>
	<path class="st12" d="M134.3,148C134.3,148,134.3,148,134.3,148c-1.4,1-3.2,1.5-3.4,3.7c-0.8,6.2-1.8,12.4-2.8,18.6
		c-0.2,1.5,0.1,2.3,1.6,2.5c1.7,0.2,2.4-0.8,2.6-2.3c1.1-7.5,2.1-15,3.1-22.5c0,0,0,0,0,0C135,147.9,134.7,147.9,134.3,148z"/>
	<path class="st12" d="M121.8,184c-1.3,0-2.2,0.8-2,2.2c0.1,0.8,0.8,1.4,2,1.4c0.9-0.3,1.5-1.1,1.5-2c0-0.1,0-0.2,0-0.3
		C123.2,184.5,122.5,183.9,121.8,184z"/>
</g>
<path class="st13" d="M137.9,208.9c0.6-2-0.1-4.3,1.4-6c1.3,0.8,3.8,1.1,3.6,2.8C142.5,208,140,208.5,137.9,208.9z"/>
<path class="st14" d="M107.5,198.9l5.7,0.1c-0.7,4.6-1.3,9.2-1.9,13.8h-3.9C107.4,208.1,107.5,203.5,107.5,198.9z"/>
<path class="st15" d="M81.2,202.6c0,2.1,0,4.2,0,6.4c-2.4-0.3-5.3-1-5.3-3.4C76,203.7,79.1,203,81.2,202.6z"/>
</svg>
