<?xml version="1.0" encoding="UTF-8"?>
<!DOCTYPE svg PUBLIC "-//W3C//DTD SVG 1.1//EN" "http://www.w3.org/Graphics/SVG/1.1/DTD/svg11.dtd">
<!-- Creator: CorelDRAW -->
<svg xmlns="http://www.w3.org/2000/svg" xml:space="preserve" width="59.875mm" height="56.2359mm" style="shape-rendering:geometricPrecision; text-rendering:geometricPrecision; image-rendering:optimizeQuality; fill-rule:evenodd; clip-rule:evenodd"
viewBox="0 0 6.1339 5.76109"
 xmlns:xlink="http://www.w3.org/1999/xlink">
 <defs>
  <style type="text/css">
   <![CDATA[
    .str0 {stroke:#DEDEDD;stroke-width:0.108418}
    .str2 {stroke:#3F4446;stroke-width:0.108418}
    .str1 {stroke:#C9CCCE;stroke-width:0.108418}
    .str3 {stroke:#C9CCCE;stroke-width:0.108418;stroke-linecap:round;stroke-linejoin:round}
    .fil0 {fill:none}
    .fil3 {fill:#DD137B}
    .fil5 {fill:#DEDEDD}
    .fil1 {fill:#D9DBDD}
    .fil4 {fill:#B01B69;fill-rule:nonzero}
    .fil2 {fill:#C9CCCE;fill-rule:nonzero}
   ]]>
  </style>
 </defs>
 <g id="Layer_x0020_1">
  <metadata id="CorelCorpID_0Corel-Layer"/>
  <line class="fil0 str0" x1="2.05233" y1="4.09709" x2="2.05233" y2= "5.65262" />
  <rect class="fil0 str1" x="0.701001" y="0.392098" width="4.73189" height="5.31478"/>
  <rect class="fil1" x="0.752479" y="0.392098" width="4.62893" height="0.239445"/>
  <rect class="fil1 str1" x="0.490056" y="0.0542139" width="5.15377" height="0.342064" rx="0.171032" ry="0.171032"/>
  <rect class="fil0 str2" x="0.701001" y="2.19502" width="4.73189" height="1.90415"/>
  <line class="fil0 str3" x1="0.0542139" y1="5.70686" x2="6.07968" y2= "5.70686" />
  <rect class="fil1" x="1.51709" y="0.77261" width="0.654163" height="0.983227" rx="0.0792925" ry="0.0792925"/>
  <path class="fil2" d="M1.59638 0.718396l0.495578 0c0.0357943,0 0.0687099,0.014035 0.092846,0.0366241 0.0250786,0.0234702 0.0406604,0.0559657 0.0406604,0.091801l0 0.834815c0,0.0358353 -0.0155819,0.0683206 -0.0406604,0.0917908 -0.0241361,0.0225891 -0.0570517,0.0366241 -0.092846,0.0366241l-0.495578 0c-0.0357943,0 -0.0687099,-0.014035 -0.092846,-0.0366241 -0.0250786,-0.0234702 -0.0406604,-0.0559555 -0.0406604,-0.0917908l0 -0.834815c0,-0.0358353 0.0155819,-0.0683309 0.0406604,-0.091801 0.0241361,-0.0225891 0.0570517,-0.0366241 0.092846,-0.0366241zm0.495578 0.108428l-0.495578 0c-0.00778582,0 -0.0145472,0.00267382 -0.019147,0.00697651 -0.00365729,0.00342167 -0.00593157,0.00804194 -0.00593157,0.0130208l0 0.834815c0,0.00497883 0.00228452,0.0095991 0.00593157,0.0130105 0.00459978,0.00430269 0.0113612,0.00697651 0.019147,0.00697651l0.495578 0c0.00779607,0 0.0145574,-0.00268406 0.019147,-0.00697651 0.00364704,-0.00341142 0.00593157,-0.00803169 0.00593157,-0.0130105l0 -0.834815c0,-0.00497883 -0.00227428,-0.0095991 -0.00593157,-0.0130208 -0.00458954,-0.00429245 -0.0113509,-0.00697651 -0.019147,-0.00697651z"/>
  <rect class="fil1" x="2.73986" y="0.77261" width="0.654163" height="0.983227" rx="0.0792925" ry="0.0792925"/>
  <path class="fil2" d="M2.81915 0.718396l0.495578 0c0.0357943,0 0.0687099,0.014035 0.092846,0.0366241 0.0250786,0.0234702 0.0406604,0.0559657 0.0406604,0.091801l0 0.834815c0,0.0358353 -0.0155819,0.0683206 -0.0406604,0.0917908 -0.0241361,0.0225891 -0.0570517,0.0366241 -0.092846,0.0366241l-0.495578 0c-0.0357943,0 -0.0687099,-0.014035 -0.092846,-0.0366241 -0.0250786,-0.0234702 -0.0406604,-0.0559555 -0.0406604,-0.0917908l0 -0.834815c0,-0.0358353 0.0155819,-0.0683309 0.0406604,-0.091801 0.0241361,-0.0225891 0.0570517,-0.0366241 0.092846,-0.0366241zm0.495578 0.108428l-0.495578 0c-0.00778582,0 -0.0145472,0.00267382 -0.019147,0.00697651 -0.00365729,0.00342167 -0.00593157,0.00804194 -0.00593157,0.0130208l0 0.834815c0,0.00497883 0.00228452,0.0095991 0.00593157,0.0130105 0.00459978,0.00430269 0.0113612,0.00697651 0.019147,0.00697651l0.495578 0c0.00779607,0 0.0145574,-0.00268406 0.019147,-0.00697651 0.00364704,-0.00341142 0.00593157,-0.00803169 0.00593157,-0.0130105l0 -0.834815c0,-0.00497883 -0.00227428,-0.0095991 -0.00593157,-0.0130208 -0.00458954,-0.00429245 -0.0113509,-0.00697651 -0.019147,-0.00697651z"/>
  <rect class="fil1" x="3.96263" y="0.77261" width="0.654163" height="0.983227" rx="0.0792925" ry="0.0792925"/>
  <path class="fil2" d="M4.04192 0.718396l0.495578 0c0.0357943,0 0.0687099,0.014035 0.092846,0.0366241 0.0250786,0.0234702 0.0406604,0.0559657 0.0406604,0.091801l0 0.834815c0,0.0358353 -0.0155819,0.0683206 -0.0406604,0.0917908 -0.0241361,0.0225891 -0.0570517,0.0366241 -0.092846,0.0366241l-0.495578 0c-0.0357943,0 -0.0687099,-0.014035 -0.092846,-0.0366241 -0.0250786,-0.0234702 -0.0406604,-0.0559555 -0.0406604,-0.0917908l0 -0.834815c0,-0.0358353 0.0155819,-0.0683309 0.0406604,-0.091801 0.0241361,-0.0225891 0.0570517,-0.0366241 0.092846,-0.0366241zm0.495578 0.108428l-0.495578 0c-0.00778582,0 -0.0145472,0.00267382 -0.019147,0.00697651 -0.00365729,0.00342167 -0.00593157,0.00804194 -0.00593157,0.0130208l0 0.834815c0,0.00497883 0.00228452,0.0095991 0.00593157,0.0130105 0.00459978,0.00430269 0.0113612,0.00697651 0.019147,0.00697651l0.495578 0c0.00779607,0 0.0145574,-0.00268406 0.019147,-0.00697651 0.00364704,-0.00341142 0.00593157,-0.00803169 0.00593157,-0.0130105l0 -0.834815c0,-0.00497883 -0.00227428,-0.0095991 -0.00593157,-0.0130208 -0.00458954,-0.00429245 -0.0113509,-0.00697651 -0.019147,-0.00697651z"/>
  <g id="_100445648">
   <rect id="_100445744" class="fil3" x="1.50783" y="2.6547" width="0.672695" height="1.03007" rx="0.0792925" ry="0.0792925"/>
   <path id="_100445672" class="fil4" d="M1.58937 2.61856l0.509603 0c0.0319833,0 0.0611904,0.0126007 0.0824478,0.0328541 0.0217388,0.0207349 0.0352411,0.0494195 0.0352411,0.081034l0 0.874584c0,0.0316145 -0.0135125,0.0603094 -0.0352411,0.0810238 -0.0212574,0.0202534 -0.0504644,0.0328541 -0.0824478,0.0328541l-0.509603 0c-0.0319833,0 -0.0611904,-0.0126007 -0.0824478,-0.0328541 -0.0217286,-0.0207144 -0.0352411,-0.0494093 -0.0352411,-0.0810238l0 -0.669745c0,-0.0105314 -0.000501981,-0.0230092 0.00846196,-0.0310306 0.00652575,-0.00584961 0.0166576,-0.00961959 0.0279777,-0.00961959l1.02445e-005 0c0.0128466,0 0.0241565,0.00487638 0.0304159,0.012109 0.00698675,0.0081034 0.00541934,0.0205402 0.00541934,0.0303545l0 0.667932c0,0.0111358 0.0048559,0.0213393 0.0126622,0.0287768 0.00828781,0.00789851 0.0198846,0.0128159 0.0327414,0.0128159l0.509603 0c0.0128671,0 0.0244536,-0.00491736 0.0327414,-0.0128159 0.00780631,-0.00743751 0.0126622,-0.017641 0.0126622,-0.0287768l0 -0.874584c0,-0.0111358 -0.0048559,-0.0213393 -0.0126622,-0.0287871 -0.00828781,-0.00789851 -0.0198743,-0.0128159 -0.0327414,-0.0128159l-0.509603 0c-0.0128569,0 -0.0244536,0.00491736 -0.0327414,0.0128159 -0.00780631,0.00744776 -0.0126622,0.0176513 -0.0126622,0.0287871l0 0.0385706c0,0.00725311 0.000604426,0.0157048 -0.00376998,0.0220769 -0.00575741,0.00841074 -0.0179996,0.0142399 -0.0320653,0.0142399l-1.02445e-005 0c-0.014373,0 -0.0268304,-0.00609548 -0.0324341,-0.0147931 -0.00362656,-0.00565497 -0.0040056,-0.0145779 -0.0040056,-0.0207656l0 -0.0393287c0,-0.0316145 0.0135023,-0.0602992 0.0352411,-0.081034 0.0212574,-0.0202534 0.0504644,-0.0328541 0.0824478,-0.0328541z"/>
  </g>
  <g id="_100445480">
   <rect id="_100445576" class="fil3" x="2.73059" y="2.6547" width="0.672695" height="1.03007" rx="0.0792925" ry="0.0792925"/>
   <path id="_100445504" class="fil4" d="M2.81214 2.61856l0.509603 0c0.0319833,0 0.0611904,0.0126007 0.0824478,0.0328541 0.0217388,0.0207349 0.0352411,0.0494195 0.0352411,0.081034l0 0.874584c0,0.0316145 -0.0135125,0.0603094 -0.0352411,0.0810238 -0.0212574,0.0202534 -0.0504644,0.0328541 -0.0824478,0.0328541l-0.509603 0c-0.0319833,0 -0.0611904,-0.0126007 -0.0824478,-0.0328541 -0.0217286,-0.0207144 -0.0352411,-0.0494093 -0.0352411,-0.0810238l0 -0.669745c0,-0.0105314 -0.000501981,-0.0230092 0.00846196,-0.0310306 0.00652575,-0.00584961 0.0166576,-0.00961959 0.0279777,-0.00961959l1.02445e-005 0c0.0128466,0 0.0241565,0.00487638 0.0304159,0.012109 0.00698675,0.0081034 0.00541934,0.0205402 0.00541934,0.0303545l0 0.667932c0,0.0111358 0.0048559,0.0213393 0.0126622,0.0287768 0.00828781,0.00789851 0.0198846,0.0128159 0.0327414,0.0128159l0.509603 0c0.0128671,0 0.0244536,-0.00491736 0.0327414,-0.0128159 0.00780631,-0.00743751 0.0126622,-0.017641 0.0126622,-0.0287768l0 -0.874584c0,-0.0111358 -0.0048559,-0.0213393 -0.0126622,-0.0287871 -0.00828781,-0.00789851 -0.0198743,-0.0128159 -0.0327414,-0.0128159l-0.509603 0c-0.0128569,0 -0.0244536,0.00491736 -0.0327414,0.0128159 -0.00780631,0.00744776 -0.0126622,0.0176513 -0.0126622,0.0287871l0 0.0385706c0,0.00725311 0.000604426,0.0157048 -0.00376998,0.0220769 -0.00575741,0.00841074 -0.0179996,0.0142399 -0.0320653,0.0142399l-1.02445e-005 0c-0.014373,0 -0.0268304,-0.00609548 -0.0324341,-0.0147931 -0.00362656,-0.00565497 -0.0040056,-0.0145779 -0.0040056,-0.0207656l0 -0.0393287c0,-0.0316145 0.0135023,-0.0602992 0.0352411,-0.081034 0.0212574,-0.0202534 0.0504644,-0.0328541 0.0824478,-0.0328541z"/>
  </g>
  <g id="_100445312">
   <rect id="_100445408" class="fil3" x="3.95335" y="2.6547" width="0.672695" height="1.03007" rx="0.0792925" ry="0.0792925"/>
   <path id="_100445336" class="fil4" d="M4.0349 2.61856l0.509603 0c0.0319833,0 0.0611904,0.0126007 0.0824478,0.0328541 0.0217388,0.0207349 0.0352411,0.0494195 0.0352411,0.081034l0 0.874584c0,0.0316145 -0.0135125,0.0603094 -0.0352411,0.0810238 -0.0212574,0.0202534 -0.0504644,0.0328541 -0.0824478,0.0328541l-0.509603 0c-0.0319833,0 -0.0611904,-0.0126007 -0.0824478,-0.0328541 -0.0217286,-0.0207144 -0.0352411,-0.0494093 -0.0352411,-0.0810238l0 -0.669745c0,-0.0105314 -0.000501981,-0.0230092 0.00846196,-0.0310306 0.00652575,-0.00584961 0.0166576,-0.00961959 0.0279777,-0.00961959l1.02445e-005 0c0.0128466,0 0.0241565,0.00487638 0.0304159,0.012109 0.00698675,0.0081034 0.00541934,0.0205402 0.00541934,0.0303545l0 0.667932c0,0.0111358 0.0048559,0.0213393 0.0126622,0.0287768 0.00828781,0.00789851 0.0198846,0.0128159 0.0327414,0.0128159l0.509603 0c0.0128671,0 0.0244536,-0.00491736 0.0327414,-0.0128159 0.00780631,-0.00743751 0.0126622,-0.017641 0.0126622,-0.0287768l0 -0.874584c0,-0.0111358 -0.0048559,-0.0213393 -0.0126622,-0.0287871 -0.00828781,-0.00789851 -0.0198743,-0.0128159 -0.0327414,-0.0128159l-0.509603 0c-0.0128569,0 -0.0244536,0.00491736 -0.0327414,0.0128159 -0.00780631,0.00744776 -0.0126622,0.0176513 -0.0126622,0.0287871l0 0.0385706c0,0.00725311 0.000604426,0.0157048 -0.00376998,0.0220769 -0.00575741,0.00841074 -0.0179996,0.0142399 -0.0320653,0.0142399l-1.02445e-005 0c-0.014373,0 -0.0268304,-0.00609548 -0.0324341,-0.0147931 -0.00362656,-0.00565497 -0.0040056,-0.0145779 -0.0040056,-0.0207656l0 -0.0393287c0,-0.0316145 0.0135023,-0.0602992 0.0352411,-0.081034 0.0212574,-0.0202534 0.0504644,-0.0328541 0.0824478,-0.0328541z"/>
  </g>
  <rect class="fil1" x="3.89421" y="4.4669" width="0.654163" height="0.983227" rx="0.0792925" ry="0.0792925"/>
  <path class="fil2" d="M3.97351 4.41269l0.495578 0c0.0357943,0 0.0687099,0.014035 0.092846,0.0366241 0.0250786,0.0234702 0.0406604,0.0559657 0.0406604,0.091801l0 0.834815c0,0.0358353 -0.0155819,0.0683206 -0.0406604,0.0917908 -0.0241361,0.0225891 -0.0570517,0.0366241 -0.092846,0.0366241l-0.495578 0c-0.0357943,0 -0.0687099,-0.014035 -0.092846,-0.0366241 -0.0250786,-0.0234702 -0.0406604,-0.0559555 -0.0406604,-0.0917908l0 -0.834815c0,-0.0358353 0.0155819,-0.0683309 0.0406604,-0.091801 0.0241361,-0.0225891 0.0570517,-0.0366241 0.092846,-0.0366241zm0.495578 0.108428l-0.495578 0c-0.00778582,0 -0.0145472,0.00267382 -0.019147,0.00697651 -0.00365729,0.00342167 -0.00593157,0.00804194 -0.00593157,0.0130208l0 0.834815c0,0.00497883 0.00228452,0.0095991 0.00593157,0.0130105 0.00459978,0.00430269 0.0113612,0.00697651 0.019147,0.00697651l0.495578 0c0.00779607,0 0.0145574,-0.00268406 0.019147,-0.00697651 0.00364704,-0.00341142 0.00593157,-0.00803169 0.00593157,-0.0130105l0 -0.834815c0,-0.00497883 -0.00227428,-0.0095991 -0.00593157,-0.0130208 -0.00458954,-0.00429245 -0.0113509,-0.00697651 -0.019147,-0.00697651z"/>
  <rect class="fil1" x="2.67413" y="4.4669" width="0.654163" height="0.983227" rx="0.0792925" ry="0.0792925"/>
  <path class="fil2" d="M2.75343 4.41269l0.495578 0c0.0357943,0 0.0687099,0.014035 0.092846,0.0366241 0.0250786,0.0234702 0.0406604,0.0559657 0.0406604,0.091801l0 0.834815c0,0.0358353 -0.0155819,0.0683206 -0.0406604,0.0917908 -0.0241361,0.0225891 -0.0570517,0.0366241 -0.092846,0.0366241l-0.495578 0c-0.0357943,0 -0.0687099,-0.014035 -0.092846,-0.0366241 -0.0250786,-0.0234702 -0.0406604,-0.0559555 -0.0406604,-0.0917908l0 -0.834815c0,-0.0358353 0.0155819,-0.0683309 0.0406604,-0.091801 0.0241361,-0.0225891 0.0570517,-0.0366241 0.092846,-0.0366241zm0.495578 0.108428l-0.495578 0c-0.00778582,0 -0.0145472,0.00267382 -0.019147,0.00697651 -0.00365729,0.00342167 -0.00593157,0.00804194 -0.00593157,0.0130208l0 0.834815c0,0.00497883 0.00228452,0.0095991 0.00593157,0.0130105 0.00459978,0.00430269 0.0113612,0.00697651 0.019147,0.00697651l0.495578 0c0.00779607,0 0.0145574,-0.00268406 0.019147,-0.00697651 0.00364704,-0.00341142 0.00593157,-0.00803169 0.00593157,-0.0130105l0 -0.834815c0,-0.00497883 -0.00227428,-0.0095991 -0.00593157,-0.0130208 -0.00458954,-0.00429245 -0.0113509,-0.00697651 -0.019147,-0.00697651z"/>
  <path class="fil5" d="M1.22255 4.77024l0.398399 0c0.0339196,0 0.0616617,0.0277421 0.0616617,0.0616617l0 0.838001 -0.521722 0 0 -0.838001c0,-0.0339196 0.0277421,-0.0616617 0.0616617,-0.0616617z"/>
  <path class="fil2" d="M1.22255 4.71603l0.398399 0c0.0319219,0 0.0609036,0.013031 0.0818741,0.0340015 0.0209705,0.0209705 0.0340015,0.0499522 0.0340015,0.0818741l0 0.838001 0 0.0542139 -0.0542139 0 -0.521722 0 -0.0542139 0 0 -0.0542139 0 -0.838001c0,-0.0319219 0.013031,-0.0609036 0.0340015,-0.0818741 0.0209705,-0.0209705 0.0499727,-0.0340015 0.0818741,-0.0340015zm0.398399 0.108428l-0.398399 0c-0.00199768,0 -0.00386218,0.000860539 -0.0052247,0.00222306 -0.00136252,0.00136252 -0.00222306,0.00322702 -0.00222306,0.0052247l0 0.783787 0.413294 0 0 -0.783787c0,-0.00199768 -0.000860539,-0.00386218 -0.00222306,-0.0052247 -0.00136252,-0.00136252 -0.00322702,-0.00222306 -0.0052247,-0.00222306z"/>
 </g>
</svg>
