<?xml version="1.0" encoding="UTF-8"?>
<!DOCTYPE svg PUBLIC "-//W3C//DTD SVG 1.1//EN" "http://www.w3.org/Graphics/SVG/1.1/DTD/svg11.dtd">
<!-- Creator: CorelDRAW -->
<svg xmlns="http://www.w3.org/2000/svg" xml:space="preserve" width="91.1073mm" height="39.2533mm" style="shape-rendering:geometricPrecision; text-rendering:geometricPrecision; image-rendering:optimizeQuality; fill-rule:evenodd; clip-rule:evenodd"
viewBox="0 0 125.459 54.0534"
 xmlns:xlink="http://www.w3.org/1999/xlink">
 <defs>
  <style type="text/css">
   <![CDATA[
    .str1 {stroke:#3F4446;stroke-width:1.45732}
    .str2 {stroke:#3F4446;stroke-width:1.45732;stroke-linecap:round;stroke-linejoin:round}
    .str0 {stroke:#C9CCCE;stroke-width:1.45732}
    .str3 {stroke:#C9CCCE;stroke-width:1.45732;stroke-linecap:round;stroke-linejoin:round}
    .fil0 {fill:none}
    .fil4 {fill:white}
    .fil3 {fill:#3F4446}
    .fil5 {fill:#C9CCCE}
    .fil1 {fill:#D9DBDD}
    .fil2 {fill:#3F4446;fill-rule:nonzero}
   ]]>
  </style>
 </defs>
 <g id="Layer_x0020_1">
  <metadata id="CorelCorpID_0Corel-Layer"/>
  <g id="_100420616">
   <polyline id="_100422392" class="fil0 str0" points="120.535,17.6421 120.535,53.2359 84.445,53.2359 84.445,17.6421 "/>
   <polygon id="_100422320" class="fil1" points="96.4079,5.90021 63.2022,5.90021 63.2022,19.146 82.3121,19.146 "/>
   <polygon id="_100422248" class="fil0 str0" points="96.4079,5.90021 63.2022,5.90021 63.2022,19.146 82.3121,19.146 "/>
   <polygon id="_100422176" class="fil1" points="5.55815,21.2439 24.1949,4.56476 41.93,20.989 41.93,17.3024 24.2157,0.942998 5.55815,17.5752 "/>
   <polyline id="_100422104" class="fil0 str1" points="5.64987,17.6421 5.64987,53.2359 41.7394,53.2359 41.7394,17.2852 "/>
   <line id="_100422032" class="fil0 str0" x1="83.8497" y1="46.1607" x2="63.0922" y2= "46.1607" />
   <polyline id="_100421960" class="fil0 str0" points="84.4368,53.2359 63.0922,53.2359 63.0922,18.8743 "/>
   <path id="_100421888" class="fil2" d="M46.446 20.599c0.293861,0.271828 0.311625,0.730796 0.0397965,1.02466 -0.271828,0.293861 -0.730796,0.311625 -1.02466,0.0397965l-21.2742 -19.7018 -22.0236 19.7103c-0.298543,0.267146 -0.757511,0.241671 -1.02466,-0.0568718 -0.267146,-0.298543 -0.241671,-0.757511 0.0568718,-1.02466l22.5155 -20.1504 0.000275408 0.000413113c0.275271,-0.247041 0.699124,-0.248005 0.976047,0.00812455l21.7586 20.1504z"/>
   <polygon id="_100421816" class="fil1" points="29.7765,5.90021 62.9822,5.90021 62.9822,19.146 43.8723,19.146 "/>
   <circle id="_100421744" class="fil3" cx="24.2421" cy="19.8266" r="6.85558"/>
   <path id="_100421672" class="fil2" d="M29.7765 5.17148l33.2057 0 0.728731 0 0 0.728731 0 13.2458 0 0.728731 -0.728731 0 -15.3473 0.0556325c-0.831458,0.00289179 -1.03898,-1.12766 -0.311625,-1.45608 0.110439,-0.0498489 0.18714,-0.0670619 0.311625,-0.0670619l0.0545309 0 14.564 0.0100524 0 -11.7883 -30.64 0 11.9187 11.1999 2.09255 2.03031 -1.75242 0.0155606 -0.286149 0 -0.211927 -0.199258 -14.0958 -13.2458 -1.33904 -1.2582 1.83711 0z"/>
   <path id="_100421600" class="fil4" d="M25.1922 14.8922c2.32059,0.444234 4.0748,2.48487 4.0748,4.93463 0,2.44976 -1.75421,4.4904 -4.0748,4.93463l0 -9.86926zm-1.8999 9.86926c-2.32045,-0.444234 -4.0748,-2.48487 -4.0748,-4.93463 0,-2.44976 1.75435,-4.4904 4.0748,-4.93463l0 9.86926z"/>
   <g>
    <rect id="_100421528" class="fil3" x="46.8306" y="23.8694" width="10.4352" height="16.2981" rx="1.53444" ry="1.53444"/>
    <path id="_100421456" class="fil4" d="M48.6276 25.597l6.9783 0 0 12.8726 -6.9783 0 0 -5.99592 4.94578 0c0.558941,0 1.01626,-0.457316 1.01626,-1.01626l0 0c0,-0.558941 -0.457316,-1.01626 -1.01626,-1.01626l-4.94578 0 0 -4.84416z"/>
   </g>
   <polyline id="_100421360" class="fil0 str2" points="41.7476,53.2359 63.0922,53.2359 63.0922,5.71087 "/>
   <line id="_100421288" class="fil0 str1" x1="42.3347" y1="46.1607" x2="63.0922" y2= "46.1607" />
   <path id="_100421216" class="fil3" d="M20.4591 35.4616l7.81086 0c1.08731,0 1.97674,0.889431 1.97674,1.97674l0 15.8867 -11.7963 0 0 -15.8547c0,-1.1048 0.90389,-2.00869 2.00869,-2.00869z"/>
   <rect id="_100421144" class="fil4" x="20.386" y="37.2919" width="7.92501" height="14.6786"/>
   <polyline id="_100421072" class="fil0 str0" points="80.2309,21.1313 101.99,0.980867 124.505,21.1313 "/>
   <rect id="_100421000" class="fil5" x="68.9186" y="23.8694" width="10.4352" height="16.2981" rx="1.53444" ry="1.53444"/>
   <path id="_100420928" class="fil1" d="M77.5568 25.597l-6.9783 0 0 9.46895 6.9783 0 0 -9.46895zm-6.9783 10.9283l0 1.94425 6.9783 0 0 -1.94425 -6.9783 0z"/>
   <path id="_100420856" class="fil5" d="M105.725 35.4616l-7.81086 0c-1.08731,0 -1.97674,0.889431 -1.97674,1.97674l0 15.8867 11.7963 0 0 -15.8547c0,-1.1048 -0.90389,-2.00869 -2.00869,-2.00869z"/>
   <rect id="_100420784" class="fil1" x="97.8734" y="37.2919" width="7.92501" height="14.6786"/>
   <circle id="_100420712" class="fil5" cx="101.942" cy="19.8266" r="6.85558"/>
   <path id="_100420640" class="fil1" d="M100.992 14.8922c-2.32059,0.444234 -4.0748,2.48487 -4.0748,4.93463 0,2.44976 1.75421,4.4904 4.0748,4.93463l0 -9.86926zm1.8999 9.86926c2.32045,-0.444234 4.0748,-2.48487 4.0748,-4.93463 0,-2.44976 -1.75435,-4.4904 -4.0748,-4.93463l0 9.86926z"/>
  </g>
  <g id="_100340824">
   <line id="_100340920" class="fil0 str2" x1="0.728731" y1="53.3247" x2="62.8683" y2= "53.3247" />
   <line id="_100340848" class="fil0 str3" x1="62.5903" y1="53.3247" x2="124.73" y2= "53.3247" />
  </g>
 </g>
</svg>
