<?xml version="1.0" encoding="UTF-8"?>
<!DOCTYPE svg PUBLIC "-//W3C//DTD SVG 1.1//EN" "http://www.w3.org/Graphics/SVG/1.1/DTD/svg11.dtd">
<!-- Creator: CorelDRAW -->
<svg xmlns="http://www.w3.org/2000/svg" xml:space="preserve" width="77.8697mm" height="55.5315mm" style="shape-rendering:geometricPrecision; text-rendering:geometricPrecision; image-rendering:optimizeQuality; fill-rule:evenodd; clip-rule:evenodd"
viewBox="0 0 44.1303 31.4708"
 xmlns:xlink="http://www.w3.org/1999/xlink">
 <defs>
  <style type="text/css">
   <![CDATA[
    .str1 {stroke:#3F4446;stroke-width:0.59976}
    .str0 {stroke:#3F4446;stroke-width:0.59976;stroke-linecap:round;stroke-linejoin:round}
    .fil1 {fill:none}
    .fil3 {fill:white}
    .fil2 {fill:#3F4446}
    .fil0 {fill:#EEF0F2}
    .fil4 {fill:white;fill-opacity:0.501961}
   ]]>
  </style>
   <clipPath id="id0">
    <path d="M7.56537 7.93572c1.28844,0 2.3333,1.04486 2.3333,2.3333 0,1.28844 -1.04486,2.3333 -2.3333,2.3333 -1.28844,0 -2.3333,-1.04486 -2.3333,-2.3333 0,-1.28844 1.04486,-2.3333 2.3333,-2.3333z"/>
   </clipPath>
 </defs>
 <g id="Layer_x0020_1">
  <metadata id="CorelCorpID_0Corel-Layer"/>
  <polygon class="fil0" points="35.416,16.3753 41.3237,16.3753 41.3237,31.0953 35.416,31.0953 "/>
  <g id="_100467040">
   <rect id="_100467280" class="fil0" x="22.598" y="17.492" width="12.1917" height="2.54106"/>
   <rect id="_100467208" class="fil0" x="22.598" y="20.8981" width="12.1917" height="2.54106"/>
   <rect id="_100467136" class="fil0" x="22.598" y="24.3042" width="12.1917" height="2.54106"/>
   <rect id="_100467064" class="fil0" x="22.598" y="27.7103" width="12.1917" height="2.54106"/>
  </g>
  <g id="_100466872">
   <polygon id="_100466968" class="fil0" points="6.87035,16.425 10.2485,27.8253 7.06892,27.7936 3.89167,16.3257 "/>
   <polygon id="_100466896" class="fil0" points="11.1398,16.4746 14.2178,27.7575 18.0433,27.7575 18.0433,16.5241 "/>
  </g>
  <polygon class="fil0" points="25.332,5.69423 26.6069,10.9316 24.9186,10.7593 "/>
  <polygon class="fil0" points="15.7071,3.0209 17.4943,10.6662 19.3312,10.6165 17.2461,2.22659 "/>
  <polygon class="fil0" points="20.514,1.58835 22.3573,10.5686 25.0277,10.6631 25.0041,0.170413 "/>
  <polygon class="fil0" points="14.7022,10.7637 12.9794,10.5698 13.0224,4.45385 "/>
  <polygon class="fil0" points="27.1582,0.353463 29.6047,10.7938 31.8811,10.7938 29.2256,0.112267 "/>
  <rect class="fil0" x="25.1219" y="10.5404" width="7.90574" height="5.69554"/>
  <polyline class="fil1 str0" points="0.299285,7.2335 24.897,0.299908 34.8578,0.299908 "/>
  <polyline class="fil1 str0" points="2.55545,6.57316 2.55545,16.3682 7.83819,16.3682 "/>
  <polyline class="fil1 str0" points="9.92927,16.3681 18.1285,16.3681 18.1285,27.7592 2.66511,27.7592 2.66511,31.1623 "/>
  <line class="fil1 str1" x1="3.87614" y1="16.4071" x2="3.87614" y2= "27.6716" />
  <line class="fil1 str0" x1="1.12471" y1="31.1709" x2="43.8304" y2= "31.1709" />
  <circle class="fil2" cx="7.56537" cy="10.269" r="2.97868"/>
  <path class="fil3" d="M7.56537 7.93572c1.28844,0 2.3333,1.04486 2.3333,2.3333 0,1.28844 -1.04486,2.3333 -2.3333,2.3333 -1.28844,0 -2.3333,-1.04486 -2.3333,-2.3333 0,-1.28844 1.04486,-2.3333 2.3333,-2.3333z"/>
  <g style="clip-path:url(#id0)">
   <g id="_99633848">
    <polygon id="_996339921" class="fil0" points="8.34648,7.79285 9.49109,12.0991 10.244,11.0803 9.60579,8.2511 "/>
    <polygon id="_99633920" class="fil0" points="5.68601,8.36484 6.8878,12.8846 7.90671,12.8585 6.62654,7.63332 "/>
   </g>
  </g>
  <path class="fil1" d="M7.56537 7.93572c1.28844,0 2.3333,1.04486 2.3333,2.3333 0,1.28844 -1.04486,2.3333 -2.3333,2.3333 -1.28844,0 -2.3333,-1.04486 -2.3333,-2.3333 0,-1.28844 1.04486,-2.3333 2.3333,-2.3333z"/>
  <polyline class="fil1 str1" points="12.9487,3.66962 12.9487,10.6172 33.0057,10.6172 "/>
  <line class="fil1 str1" x1="33.1324" y1="0.340089" x2="33.1324" y2= "16.2686" />
  <line class="fil1 str1" x1="19.3924" y1="1.85255" x2="19.3924" y2= "10.4985" />
  <line class="fil1 str1" x1="25.0539" y1="0.308636" x2="25.0539" y2= "16.3066" />
  <line class="fil1 str0" x1="29.1343" y1="0.325807" x2="29.1343" y2= "6.046" />
  <line class="fil1 str0" x1="29.1343" y1="10.5234" x2="29.1343" y2= "8.06034" />
  <line class="fil1 str0" x1="20.5226" y1="16.3768" x2="42.0188" y2= "16.3768" />
  <polygon class="fil1 str0" points="35.416,16.3753 41.3237,16.3753 41.3237,31.0953 35.416,31.0953 "/>
  <line class="fil1 str1" x1="21.6645" y1="31.153" x2="21.6645" y2= "16.3753" />
  <polygon class="fil4" points="5.46244,18.9341 16.238,18.9341 16.238,26.5878 5.46244,26.5878 "/>
 </g>
</svg>
