<?xml version="1.0" encoding="UTF-8"?>
<!DOCTYPE svg PUBLIC "-//W3C//DTD SVG 1.1//EN" "http://www.w3.org/Graphics/SVG/1.1/DTD/svg11.dtd">
<!-- Creator: CorelDRAW -->
<svg xmlns="http://www.w3.org/2000/svg" xml:space="preserve" width="63.2983mm" height="52.606mm" style="shape-rendering:geometricPrecision; text-rendering:geometricPrecision; image-rendering:optimizeQuality; fill-rule:evenodd; clip-rule:evenodd"
viewBox="0 0 7.02227 5.83608"
 xmlns:xlink="http://www.w3.org/1999/xlink">
 <defs>
  <style type="text/css">
   <![CDATA[
    .fil1 {fill:white}
    .fil2 {fill:#3F4446}
    .fil0 {fill:#3F4446;fill-rule:nonzero}
   ]]>
  </style>
 </defs>
 <g id="Layer_x0020_1">
  <metadata id="CorelCorpID_0Corel-Layer"/>
  <path class="fil0" d="M0.910945 3.36594c-0.297661,-0.0612718 -0.524699,-0.265334 -0.67784,-0.538755 -0.180032,-0.321458 -0.25759,-0.740187 -0.226438,-1.13173 0.0408035,-0.512906 0.311041,-0.838424 0.681201,-1.06243 0.36174,-0.218917 0.817668,-0.33831 1.24481,-0.442515 0.528526,-0.128934 1.08485,-0.189407 1.62781,-0.190516 0.572658,-0.00116486 1.13069,0.0637125 1.62581,0.183882 0.183926,0.0446309 0.405062,0.107023 0.627617,0.191814 0.22453,0.0855343 0.451812,0.194233 0.646754,0.331154 0.294189,0.206647 0.456327,0.48435 0.523878,0.790976 0.0792218,0.359665 0.0272689,0.758182 -0.0940655,1.12646 -0.0608613,0.184736 -0.148637,0.33892 -0.269472,0.455439 -0.111683,0.1077 -0.250612,0.182251 -0.421392,0.217951 -0.0140005,0.386113 -0.116564,0.743516 -0.283084,1.06129 -0.187854,0.358467 -0.456926,0.666368 -0.771838,0.908116 -0.524366,0.402544 -1.08014,0.581389 -1.63556,0.568342 -0.585682,-0.0137565 -1.16909,-0.241249 -1.71303,-0.644924 -0.322645,-0.239452 -0.550392,-0.506139 -0.69437,-0.814794l-0.000221879 0c-0.13762,-0.295077 -0.197894,-0.62734 -0.190572,-1.00976z"/>
  <path class="fil1" d="M0.911367 2.99233c-0.00966282,-0.234559 0.140205,-0.299137 0.319017,-0.385836 0.177248,-0.0859114 0.758204,-0.341427 0.900939,-0.203884 0.0223099,0.0215001 0.0348682,0.0518309 0.0360997,0.0849796 0.00590197,0.157933 -0.166209,0.202453 -0.286224,0.224308 -0.169171,0.030819 -0.475553,0.116597 -0.69123,0.251455 0.0455517,0.741818 0.164212,1.34616 0.603532,1.71736 -0.0908704,-0.426174 -0.0710678,-0.777752 0.106735,-1.02279 0.327948,-0.451945 1.05745,-0.391217 1.55194,-0.389541 0.834985,0.00285114 1.52615,0.129633 1.54736,0.833732 -0.000399382,0.315223 -0.0460398,0.594258 -0.104338,0.863164 0.598141,-0.456748 1.01476,-1.04796 0.929561,-2.01089 -0.179555,-0.110296 -0.412173,-0.125151 -0.610899,-0.187022 -0.0984365,-0.0306636 -0.187166,-0.0784563 -0.208888,-0.172566 -0.0107944,-0.0467831 0.00194144,-0.0925123 0.0345021,-0.124474 0.087986,-0.0863552 0.237044,-0.0222544 0.339685,0.00358334 0.303907,0.0764927 0.800516,0.20577 0.777585,0.470993 0.302288,-0.178146 0.524932,-0.369317 0.180221,-0.60706 -1.07027,-0.679914 -3.57756,-0.787437 -5.30229,-0.199192 -0.738446,0.284571 -0.624578,0.56913 -0.123309,0.853678z"/>
  <ellipse class="fil2" transform="matrix(1 0.0753425 -0 1 4.47442 2.4795)" rx="0.195065" ry="0.143145"/>
  <path class="fil1" d="M4.66949 4.52508c0.11226,-0.580357 -0.0879084,-0.918944 -0.682566,-0.952281 -0.476119,0.0119704 -0.952248,0.0239296 -1.42838,0.0358889 -0.281997,0.0207013 -0.499405,0.142879 -0.538333,0.545511 0.00255161,0.361207 0.0784452,0.665803 0.251888,0.89507 0.316543,0.418463 0.950861,0.517399 1.44186,0.460687 0.657926,-0.0760046 0.841597,-0.395876 0.955532,-0.984875z"/>
  <circle class="fil2" cx="3.14784" cy="4.35592" r="0.487989"/>
  <circle class="fil1" cx="3.14785" cy="4.35593" r="0.184348"/>
  <path class="fil1" d="M0.444767 2.15763c1.3232,-1.02267 5.23746,-0.874457 6.17495,0 0.032472,-0.210907 0.04736,-0.409732 0.0245509,-0.582631 -0.0566013,-0.429247 -0.459378,-0.643493 -0.818311,-0.807162 -1.17077,-0.533851 -3.26243,-0.694736 -4.81918,0.116542 -0.340351,0.177348 -0.641119,0.327959 -0.639599,0.763951 0.000532509,0.150756 0.02941,0.3228 0.077591,0.5093z"/>
 </g>
</svg>
