<?xml version="1.0" encoding="UTF-8"?>
<!DOCTYPE svg PUBLIC "-//W3C//DTD SVG 1.1//EN" "http://www.w3.org/Graphics/SVG/1.1/DTD/svg11.dtd">
<!-- Creator: CorelDRAW -->
<svg xmlns="http://www.w3.org/2000/svg" xml:space="preserve" width="78.7236mm" height="60.3086mm" style="shape-rendering:geometricPrecision; text-rendering:geometricPrecision; image-rendering:optimizeQuality; fill-rule:evenodd; clip-rule:evenodd"
viewBox="0 0 24.5945 18.8413"
 xmlns:xlink="http://www.w3.org/1999/xlink">
 <defs>
  <style type="text/css">
   <![CDATA[
    .str1 {stroke:#3F4446;stroke-width:0.22044;stroke-linecap:round;stroke-linejoin:round}
    .str0 {stroke:#3F4446;stroke-width:0.330629;stroke-linecap:round;stroke-linejoin:round}
    .fil0 {fill:none}
    .fil1 {fill:#3F4446}
    .fil2 {fill:#3F4446;fill-rule:nonzero}
    .fil3 {fill:#D9DBDD;fill-rule:nonzero}
   ]]>
  </style>
 </defs>
 <g id="Layer_x0020_1">
  <metadata id="CorelCorpID_0Corel-Layer"/>
  <path class="fil0 str0" d="M12.2688 9.13259c3.67972,-3.05061 0.277831,-8.22459 -3.64439,-5.8208 -0.867141,0.53145 -1.47566,1.27778 -1.65283,2.1433 -0.268584,1.31199 0.59359,3.05049 1.73384,3.71018 0.700279,0.405203 1.55589,0.493335 2.53616,0.326849"/>
  <path class="fil0 str0" d="M6.93456 6.6029c-1.43517,-1.15906 -2.38542,-2.21987 -1.83769,-2.97695 0.628924,-0.869328 2.16001,-0.350936 2.84042,0.206694"/>
  <path class="fil0 str0" d="M12.4847 3.22285c-0.277769,-1.82241 -0.694344,-3.14912 -1.59641,-3.05333 -0.994512,0.105628 -1.25332,1.74112 -1.12213,2.56321"/>
  <path class="fil0 str0" d="M6.2371 3.9852c-0.32963,0.534324 0.527514,0.833181 0.765449,1.02013"/>
  <path class="fil0 str0" d="M10.6705 1.20464c0.627737,-0.0104972 0.469686,0.719462 0.467811,0.987546"/>
  <ellipse class="fil1" transform="matrix(-0.620703 -0.784046 0.784046 -0.620703 11.0361 4.44638)" rx="0.201758" ry="0.15677"/>
  <ellipse class="fil1" transform="matrix(-0.620703 -0.784046 0.784046 -0.620703 8.50481 6.04164)" rx="0.201758" ry="0.15677"/>
  <path class="fil0 str0" d="M11.953 5.35174c0.892196,1.14285 -0.434945,2.16251 -1.50984,1.00413 0.793036,1.27684 -0.48137,2.17785 -1.54939,1.00413"/>
  <path class="fil2" d="M10.4 6.20714c0.131058,-0.308667 0.197634,-0.553569 0.201008,-0.735239 0.00281174,-0.151334 -0.0418949,-0.248152 -0.132995,-0.291015 -0.019401,-0.00912253 -0.0391144,-0.0165893 -0.0588591,-0.022369 -0.170891,-0.0500802 -0.3704,0.0129028 -0.549039,0.129621 -0.191011,0.124779 -0.352967,0.30698 -0.43582,0.482963 -0.0153084,0.0325537 -0.0277113,0.0645138 -0.0366776,0.0951618l-0.00184325 0.00581093c-0.012809,0.0460188 -0.0159957,0.0848833 -0.011247,0.117187 0.00587341,0.0398017 0.0266178,0.0720743 0.0573907,0.0980048 0.0423011,0.0356779 0.103191,0.0631392 0.17439,0.0839773l0.000562348 0.000187449 6.24831e-005 -0.000187449c0.246246,0.072168 0.585342,0.0585154 0.793067,0.0358965zm0.530357 -0.730053c-0.00449878,0.241185 -0.0912253,0.554131 -0.261992,0.93934 -0.0203383,0.0547352 -0.0691063,0.0970363 -0.130933,0.106065 -0.2096,0.0309291 -0.679879,0.0658572 -1.02347,-0.0348343l6.24831e-005 -0.000156208c-0.112438,-0.0329911 -0.213911,-0.0809469 -0.293921,-0.148366 -0.091694,-0.0772916 -0.153771,-0.176327 -0.172297,-0.302075 -0.011247,-0.0763856 -0.00537355,-0.161175 0.0210881,-0.255119l0.00231188 -0.00865391c0.0139025,-0.0474247 0.0323663,-0.0954117 0.0547352,-0.142961 0.10744,-0.228188 0.313103,-0.461594 0.55335,-0.618552 0.252619,-0.165049 0.548321,-0.250151 0.82284,-0.169673 0.0362402,0.0106221 0.0718868,0.024056 0.106659,0.0404266 0.21891,0.103035 0.327037,0.300919 0.321569,0.594558z"/>
  <path class="fil3" d="M10.3301 6.11847c0.108877,-0.256431 0.164174,-0.459876 0.166986,-0.610804 0.00231188,-0.125716 -0.0348031,-0.206163 -0.110501,-0.241778 -0.0161206,-0.00756046 -0.0324912,-0.0137775 -0.048893,-0.0185575 -0.141962,-0.0416138 -0.307698,0.0107159 -0.456127,0.107658 -0.158676,0.103659 -0.293233,0.255025 -0.362058,0.401235 -0.0127153,0.0270552 -0.023025,0.0536105 -0.0304605,0.0790724l-0.00153084 0.0048112c-0.0106534,0.0382397 -0.0132777,0.0705122 -0.00934123,0.0973487 0.00487368,0.0330848 0.022119,0.0598901 0.0476746,0.0814155 0.0351468,0.0296482 0.0857268,0.0524546 0.144867,0.0697624l0.000468623 0.000156208 6.24831e-005 -0.000156208c0.20457,0.0599525 0.486275,0.0486119 0.658853,0.0298357z"/>
  <path class="fil0 str0" d="M23.2001 18.6599c-0.36209,-1.19177 -2.5126,-1.44789 -4.0864,-1.47538"/>
  <path class="fil0 str0" d="M18.7255 18.2061c1.40674,-3.68138 -1.31396,-8.25808 -4.22942,-10.3386 -0.238373,-0.30648 -0.523608,-0.520672 -0.761982,-0.827151"/>
  <path class="fil0 str0" d="M11.2524 9.50121c-0.734333,0.150053 -1.44639,0.176796 -2.10946,-0.124373 0.0812905,0.435882 0.194854,0.853957 0.347344,1.28984 1.87787,0.602806 5.05042,-0.739769 4.84922,-2.99563 -0.212849,-0.188324 -0.443505,-0.376648 -0.656354,-0.564972 -0.279362,0.87592 -0.768292,1.55477 -1.45133,2.0746"/>
  <path class="fil0 str0" d="M9.51068 10.6816c0.0272426,2.03639 0.0544853,4.0768 0.0817279,6.11319 -0.69853,0.35984 -0.998168,0.947025 -0.899007,1.88121 1.01479,0 2.02961,0 3.04443,0 0,-1.89343 0,-3.78685 0,-5.68025"/>
  <path class="fil0 str0" d="M11.2069 12.8434c0.365308,0.0603899 0.728616,0.0663258 1.08946,0"/>
  <path class="fil0 str0" d="M14.5693 12.7477c-0.219191,1.36613 -0.317414,2.98541 -0.323069,4.04434"/>
  <path class="fil0 str0" d="M14.3511 14.7658c0.470654,-0.650106 1.14747,-0.913191 2.09675,-0.797566"/>
  <path class="fil0 str0" d="M13.5319 16.8232c0.247402,0 0.494804,0 0.742237,0 0.426041,0.594246 0.635828,1.09489 0.199352,1.81692"/>
  <line class="fil0 str0" x1="0.398017" y1="18.676" x2="24.4291" y2= "18.676" />
  <path class="fil0 str0" d="M6.64102 13.8396c-0.564066,1.01032 -0.718743,2.18029 -0.599494,3.32623"/>
  <path class="fil0 str0" d="M8.03339 16.3923c-0.792879,1.88227 -3.81091,-0.583467 -4.46842,2.24642"/>
  <path class="fil0 str0" d="M2.54956 13.2165c0.0632642,1.52456 0.126497,3.02671 0.189824,4.51509"/>
  <path class="fil0 str0" d="M2.71227 17.3113c-0.528795,0.23503 -0.80447,0.668882 -0.827089,1.30165"/>
  <path class="fil0 str0" d="M3.51224 13.8266c0.519766,0.189824 1.0395,0.216941 1.55927,0.081353"/>
  <line class="fil0 str0" x1="4.24442" y1="17.4148" x2="4.17662" y2= "14.0436" />
  <path class="fil0 str0" d="M6.97049 11.0749c1.22476,0.540635 2.17163,1.71472 2.57131,3.44154"/>
  <path class="fil0 str0" d="M3.85627 12.2345c-0.750141,0.0373649 -1.31952,-0.4635 -1.32892,-0.210787l-0.0247746 0.663102c2.33399,1.27316 5.3364,-1.21498 4.06781,-2.34215 -0.362152,0.671943 -0.786381,1.27831 -1.45979,1.58373"/>
  <path class="fil0 str0" d="M6.52555 10.3998c0.337752,-1.32755 -0.246496,-2.50335 -1.30087,-3.04262 -1.72728,-0.883449 -3.79235,0.244122 -3.96533,2.20887 -0.0579218,0.658103 0.151334,1.36969 0.774541,2.04345"/>
  <path class="fil0 str0" d="M5.83536 7.75212c-0.042551,-1.62872 -1.10573,-2.73888 -1.98046,-0.77804"/>
  <path class="fil0 str0" d="M1.26569 10.1766c-1.38922,-0.851207 -1.69398,-2.32703 0.441537,-2.10415"/>
  <ellipse class="fil1" transform="matrix(0.982155 -0.188072 0.188072 0.982155 4.47766 12.2023)" rx="0.266116" ry="0.178483"/>
  <ellipse class="fil1" transform="matrix(0.67637 0.736562 -0.736562 0.67637 2.70594 10.0908)" rx="0.171016" ry="0.124997"/>
  <ellipse class="fil1" transform="matrix(0.67637 0.736562 -0.736562 0.67637 4.91922 8.65607)" rx="0.171016" ry="0.124997"/>
  <path class="fil0 str1" d="M3.5312 9.98449c0.286766,0.0224314 0.360496,-0.147679 0.359465,-0.43507 0.277019,0.107783 0.459813,0.110501 0.535605,-0.166986"/>
  <path class="fil1" d="M3.96777 9.53011c0.018495,-0.121561 0.0358653,-0.243059 0.022369,-0.36462 -0.0291796,-0.17414 -0.59309,0.109377 -0.442131,0.297326 0.0926312,0.0715744 0.190417,0.107471 0.291015,0.123404 0.0429259,-0.0187137 0.0858518,-0.0374274 0.128746,-0.0561098z"/>
 </g>
</svg>
