<?xml version="1.0" encoding="UTF-8"?>
<!DOCTYPE svg PUBLIC "-//W3C//DTD SVG 1.1//EN" "http://www.w3.org/Graphics/SVG/1.1/DTD/svg11.dtd">
<!-- Creator: CorelDRAW -->
<svg xmlns="http://www.w3.org/2000/svg" xml:space="preserve" width="78.7236mm" height="60.3086mm" style="shape-rendering:geometricPrecision; text-rendering:geometricPrecision; image-rendering:optimizeQuality; fill-rule:evenodd; clip-rule:evenodd"
viewBox="0 0 78.3193 59.9989"
 xmlns:xlink="http://www.w3.org/1999/xlink">
 <defs>
  <style type="text/css">
   <![CDATA[
    .str2 {stroke:#3F4446;stroke-width:0.526482;stroke-linecap:round;stroke-linejoin:round}
    .str1 {stroke:#1F1A17;stroke-width:1.05286;stroke-linecap:round;stroke-linejoin:round}
    .str0 {stroke:#3F4446;stroke-width:1.05286;stroke-linecap:round;stroke-linejoin:round}
    .fil1 {fill:none}
    .fil0 {fill:#DD137B}
    .fil2 {fill:#3F4446}
    .fil6 {fill:#B01B69}
    .fil3 {fill:#3F4446;fill-rule:nonzero}
    .fil5 {fill:#B01B69;fill-rule:nonzero}
    .fil4 {fill:#D9DBDD;fill-rule:nonzero}
   ]]>
  </style>
 </defs>
 <g id="Layer_x0020_1">
  <metadata id="CorelCorpID_0Corel-Layer"/>
  <path class="fil0" d="M38.9512 29.1524c2.17507,-1.65535 3.73203,-3.73432 4.62164,-6.52362 0.677801,0.599704 1.41231,1.19941 2.09011,1.79911 0.640693,7.18362 -9.46205,11.4589 -15.442,9.53935 -0.485593,-1.38803 -0.847226,-2.71936 -1.10609,-4.1074 3.07731,1.25393 7.33881,0.682278 9.83632,-0.707448z"/>
  <path class="fil1 str0" d="M39.0691 29.0821c11.7178,-9.71445 0.884733,-26.1906 -11.6053,-18.5359 -2.76134,1.69236 -4.69914,4.06899 -5.26333,6.82517 -0.855285,4.17793 1.89024,9.71405 5.5213,11.8148 2.22999,1.29034 4.95462,1.57099 8.07621,1.04083"/>
  <path class="fil1 str0" d="M22.0826 21.0265c-4.57021,-3.69095 -7.59619,-7.06901 -5.85199,-9.47986 2.00276,-2.76831 6.87839,-1.11753 9.04511,0.658202"/>
  <path class="fil1 str0" d="M39.7565 10.2629c-0.884534,-5.80334 -2.21109,-10.0281 -5.08366,-9.72311 -3.16695,0.336364 -3.9911,5.54448 -3.57335,8.16236"/>
  <path class="fil1 str0" d="M19.8616 12.6906c-1.04968,1.70152 1.67983,2.6532 2.43752,3.24853"/>
  <path class="fil1 str0" d="M33.9795 3.8361c1.99898,-0.0334274 1.49568,2.29107 1.48971,3.14477"/>
  <ellipse class="fil2" transform="matrix(-0.620703 -0.784046 0.784046 -0.620703 35.1437 14.1592)" rx="0.642483" ry="0.499223"/>
  <ellipse class="fil2" transform="matrix(-0.620703 -0.784046 0.784046 -0.620703 27.0829 19.2391)" rx="0.642483" ry="0.499223"/>
  <path class="fil1 str0" d="M38.0633 17.0422c2.84113,3.63931 -1.38505,6.88635 -4.80798,3.19759 2.52536,4.06601 -1.53289,6.9352 -4.93393,3.19759"/>
  <path class="fil3" d="M33.1181 19.7662c0.417346,-0.982926 0.629351,-1.7628 0.640096,-2.34131 0.00895378,-0.481912 -0.133411,-0.790221 -0.423514,-0.926716 -0.0617811,-0.02905 -0.124557,-0.0528273 -0.187432,-0.0712323 -0.544191,-0.159477 -1.17951,0.0410879 -1.74837,0.412769 -0.60826,0.397349 -1.124,0.977554 -1.38784,1.53796 -0.0487483,0.103665 -0.0882444,0.205439 -0.116797,0.303036l-0.0058697 0.0185045c-0.0407894,0.146543 -0.050937,0.270305 -0.0358151,0.373174 0.0187034,0.126746 0.0847624,0.229515 0.182757,0.312089 0.134705,0.113613 0.328604,0.201062 0.555333,0.267419l0.00179076 0.000596918 0.000198973 -0.000596918c0.784152,0.229814 1.86398,0.186338 2.52546,0.11431zm1.68888 -2.3248c-0.014326,0.768035 -0.2905,1.76459 -0.834293,2.99126 -0.0647657,0.1743 -0.220064,0.309005 -0.416948,0.337756 -0.667454,0.0984916 -2.16502,0.209717 -3.25917,-0.110927l0.000198973 -0.000497432c-0.358052,-0.105058 -0.681183,-0.257769 -0.935968,-0.472461 -0.291993,-0.246129 -0.489672,-0.561501 -0.548668,-0.961934 -0.0358151,-0.243244 -0.0171117,-0.51325 0.0671533,-0.812406l0.00736199 -0.0275577c0.0442715,-0.15102 0.103068,-0.303832 0.1743,-0.45525 0.342134,-0.726649 0.997053,-1.46991 1.7621,-1.96973 0.804447,-0.525587 1.74609,-0.796588 2.62027,-0.540311 0.115404,0.0338254 0.228918,0.0766045 0.339647,0.128735 0.697101,0.328106 1.04142,0.958253 1.02401,1.89333z"/>
  <path class="fil4" d="M32.8955 19.4838c0.34671,-0.816584 0.522801,-1.46444 0.531755,-1.94506 0.00736199,-0.400333 -0.110828,-0.656511 -0.351883,-0.769925 -0.051335,-0.0240757 -0.103466,-0.0438735 -0.155696,-0.0590949 -0.452066,-0.132516 -0.979842,0.0341238 -1.4525,0.34283 -0.505292,0.330096 -0.933779,0.812108 -1.15295,1.2777 -0.040491,0.0861552 -0.0733215,0.170719 -0.0969993,0.2518l-0.00487483 0.0153209c-0.0339249,0.121771 -0.0422817,0.224541 -0.0297464,0.31 0.0155199,0.105356 0.0704364,0.190715 0.151816,0.259262 0.111922,0.0944126 0.272991,0.167038 0.461319,0.222153l0.0014923 0.000497432 0.000198973 -0.000497432c0.651437,0.190914 1.54851,0.154801 2.09807,0.0950095z"/>
  <path class="fil1 str0" d="M73.879 59.4209c-1.15305,-3.79511 -8.00119,-4.6107 -13.0128,-4.69825"/>
  <path class="fil1 str0" d="M59.63 57.9759c4.47967,-11.7231 -4.1842,-26.2972 -13.4683,-32.9224 -0.759081,-0.975962 -1.66739,-1.65804 -2.42647,-2.634"/>
  <path class="fil1 str0" d="M30.2861 34.0148c0.0867522,6.48472 0.173504,12.9823 0.260256,19.467 -2.22442,1.14588 -3.17859,3.01573 -2.86282,5.99057 3.23152,0 6.46313,0 9.69475,0 0,-6.02947 0,-12.0589 0,-18.0883"/>
  <path class="fil1 str0" d="M35.6877 40.899c1.16329,0.192307 2.32022,0.21121 3.46929,0"/>
  <path class="fil1 str0" d="M46.3947 40.5941c-0.697997,4.35034 -1.01078,9.50682 -1.02879,12.8789"/>
  <path class="fil1 str0" d="M45.7 47.0205c1.49876,-2.07021 3.65404,-2.90799 6.67693,-2.53979"/>
  <path class="fil1 str0" d="M43.0914 53.5721c0.787833,0 1.57567,0 2.3636,0 1.3567,1.89233 2.02475,3.4866 0.634823,5.78583"/>
  <line class="fil1 str0" x1="1.26746" y1="59.4722" x2="77.7928" y2= "59.4722" />
  <path class="fil1 str0" d="M21.1478 44.0711c-1.79623,3.21729 -2.28878,6.94296 -1.90904,10.5921"/>
  <path class="fil1 str0" d="M25.5817 52.1999c-2.52487,5.99396 -12.1356,-1.85801 -14.2293,7.15357"/>
  <path class="fil1 str0" d="M8.11889 42.0869c0.20146,4.85484 0.40282,9.63834 0.604479,14.378"/>
  <path class="fil1 str0" d="M8.63701 55.1264c-1.68391,0.748436 -2.56178,2.13 -2.6338,4.145"/>
  <line class="fil1 str0" x1="13.516" y1="55.4562" x2="13.3001" y2= "44.7207" />
  <path class="fil1 str0" d="M20.7801 33.1175c1.07555,-4.22748 -0.784948,-7.97175 -4.14251,-9.68898 -5.5004,-2.81328 -12.0765,0.777387 -12.6273,7.03399 -0.184448,2.09568 0.481912,4.36168 2.46647,6.50721"/>
  <path class="fil1 str0" d="M18.5823 24.6861c-0.1355,-5.18653 -3.52112,-8.72178 -6.30664,-2.47761"/>
  <path class="fil1 str0" d="M4.03049 32.4067c-4.42386,-2.71061 -5.39435,-7.41025 1.40604,-6.70051"/>
  <ellipse class="fil2" transform="matrix(0.67637 0.736562 -0.736562 0.67637 8.61686 32.1334)" rx="0.544589" ry="0.398045"/>
  <ellipse class="fil2" transform="matrix(0.67637 0.736562 -0.736562 0.67637 15.6649 27.5646)" rx="0.544589" ry="0.398045"/>
  <path class="fil5" d="M36.0687 29.7208c0.137888,0.0696405 0.244339,0.266823 0.277667,0.430279 0.0579011,0.283835 -0.125353,0.561004 -0.409188,0.618905 -1.20617,0.246328 -2.39752,0.391479 -3.5651,0.351187 -0.866925,-0.0299454 -1.71823,-0.161168 -2.54964,-0.426598 0.0810814,0.360041 0.17042,0.720481 0.268315,1.08331 0.159278,0.590452 0.338453,1.17573 0.538918,1.76489 1.18061,0.336861 2.52158,0.430478 3.90136,0.307513 2.19835,-0.195988 4.48375,-0.940147 6.37638,-2.12602 1.86278,-1.16717 3.33727,-2.75985 3.95051,-4.67029 0.238369,-0.742865 0.347307,-1.53627 0.298161,-2.37325 -0.267519,-0.233296 -0.572345,-0.492259 -0.87757,-0.751321 -0.153707,-0.130626 -0.307413,-0.261052 -0.464701,-0.395856 -0.431174,1.14877 -0.978946,2.18791 -1.63993,3.12596 -0.803751,1.14061 -1.77404,2.13329 -2.90391,2.99315 -0.23051,0.175991 -0.560208,0.131819 -0.736199,-0.0986905 -0.175991,-0.23051 -0.152214,-0.586572 0.0782958,-0.762563 0.937262,-0.903138 1.83552,-1.77315 2.63878,-2.76174 0.740179,-1.05058 1.3951,-2.2862 1.87791,-3.72179 0.166142,-0.474849 0.643478,-0.547474 0.92791,-0.293286 0.667852,0.590352 1.22289,1.3748 1.92745,1.99729l0.0389987 0.0352182c0.0901347,0.0850609 0.150622,0.202256 0.162163,0.335568 0.0923234,1.03426 -0.0230808,2.01281 -0.307115,2.92639l-0.0412869 0.128536c-0.666758,2.01719 -2.15716,3.70199 -4.04313,4.96089l-0.664768 0.416749c-1.87164,1.10141 -4.06203,1.81195 -6.19343,2.04823l-0.797284 0.0663574c-1.30785,0.0720282 -2.57968,-0.0408889 -3.72686,-0.358052 -0.411874,-0.113315 -0.545683,-0.176389 -0.730728,-0.560606 -0.180866,-0.523597 -0.343626,-1.03645 -0.489175,-1.54353l-0.257869 -0.964919c-0.115603,-0.467785 -0.219368,-0.94144 -0.311691,-1.42544l-0.0324326 -0.204345c-0.00198973,-0.0763061 0.0127343,-0.154502 0.0462612,-0.228918 0.104262,-0.231505 0.348202,-0.409884 0.586671,-0.356261l0.182856 0.0703369c1.00959,0.405407 1.90507,0.494646 2.77,0.540908l0.444008 0.0154204c0.935769,0.0118389 1.90357,-0.00596918 2.87934,-0.193899 0.19181,-0.0369095 0.384515,-0.0934177 0.570057,0.000298459z"/>
  <path class="fil0" d="M9.74818 38.5874c2.2276,0.358251 5.06207,0.470073 6.99389,-0.699389l4.21474 -4.52763 0.773009 1.23025 -0.81161 2.42826 -1.8203 2.6147 -4.52763 1.84338 -3.6808 0.108838 -2.9634 -0.955468 0.128835 -1.8405 0.40491 -0.791414 1.28835 0.58896z"/>
  <path class="fil1 str0" d="M11.1845 44.0299c1.65516,0.604479 3.31021,0.690834 4.96537,0.259063"/>
  <path class="fil1 str0" d="M22.197 35.2671c3.90017,1.72161 6.9154,5.46041 8.18813,10.9593"/>
  <path class="fil1 str1" d="M12.28 38.9598c-2.38877,0.118986 -4.20191,-1.47598 -4.23185,-0.671235l-0.0788927 2.1116c7.43243,4.05427 16.9934,-3.86903 12.9536,-7.4584 -1.15325,2.13975 -2.50417,4.07069 -4.6486,5.04326"/>
  <path class="fil5" d="M12.2553 38.4354c0.289605,-0.0135302 0.535535,0.210115 0.549066,0.49972 0.0135302,0.289605 -0.210115,0.535535 -0.49972,0.549066 -1.36854,0.0681482 -2.52914,-0.369095 -3.33319,-0.671931 -0.156393,-0.058896 -0.296668,-0.111723 -0.412172,-0.151617l-0.0533247 1.42803c3.06786,1.52921 6.48771,0.966411 9.04093,-0.43008 1.0067,-0.550558 1.87671,-1.23134 2.53491,-1.96406 0.634922,-0.706851 1.06431,-1.45379 1.21562,-2.16492 0.126348,-0.594033 0.0498427,-1.17086 -0.277866,-1.68023 -0.492259,0.857175 -1.02879,1.67038 -1.65038,2.39305 -0.797583,0.927213 -1.73047,1.70082 -2.87904,2.22173 -0.264534,0.119185 -0.575827,0.00129332 -0.695012,-0.263241 -0.119185,-0.264534 -0.00129332,-0.575827 0.263241,-0.695012 0.995362,-0.451469 1.81075,-1.12987 2.51293,-1.94615 0.716004,-0.832303 1.31969,-1.81264 1.87781,-2.84641 0.0207927,-0.0429781 0.0477535,-0.0837676 0.0809819,-0.121174 0.193004,-0.21688 0.525487,-0.236181 0.742368,-0.0431771 1.01009,0.897367 1.30277,2.02445 1.05306,3.19869 -0.190616,0.895875 -0.706751,1.80906 -1.46235,2.65022 -0.73222,0.815192 -1.69823,1.57139 -2.81447,2.18194 -2.89545,1.58382 -6.81731,2.18601 -10.3093,0.292192 -0.180568,-0.0880455 -0.302041,-0.276572 -0.294579,-0.490369l0.0788927 -2.1116c0.0204942,-0.549264 0.296072,-0.751719 0.79042,-0.733314 0.278164,0.0102471 0.606867,0.134207 1.0274,0.29259 0.720879,0.271498 1.76121,0.663375 2.91376,0.606071z"/>
  <ellipse class="fil6" transform="matrix(0.982155 -0.188072 0.188072 0.982155 14.2588 38.8574)" rx="0.847425" ry="0.568366"/>
  <path class="fil1 str2" d="M11.2448 31.7949c0.913186,0.0714312 1.14797,-0.470272 1.14469,-1.38545 0.882146,0.343228 1.46424,0.351883 1.7056,-0.531755"/>
  <path class="fil2" d="M12.6351 30.3479c0.058896,-0.387102 0.11421,-0.774004 0.0712323,-1.16111 -0.0929203,-0.554537 -1.88865,0.348302 -1.40793,0.946812 0.294977,0.227923 0.60637,0.342233 0.926716,0.392971 0.136694,-0.0595924 0.273389,-0.119185 0.409984,-0.178678z"/>
 </g>
</svg>
