<?xml version="1.0" encoding="UTF-8"?>
<!DOCTYPE svg PUBLIC "-//W3C//DTD SVG 1.1//EN" "http://www.w3.org/Graphics/SVG/1.1/DTD/svg11.dtd">
<!-- Creator: CorelDRAW -->
<svg xmlns="http://www.w3.org/2000/svg" xml:space="preserve"
viewBox="0 0 49.0054 38.6103"
 xmlns:xlink="http://www.w3.org/1999/xlink">
 <defs>
  <style type="text/css">
   <![CDATA[
    .str0 {stroke:#3F4446;stroke-width:0.742185;stroke-linecap:round;stroke-linejoin:round}
    .fil1 {fill:none}
    .fil3 {fill:white}
    .fil2 {fill:#3F4446}
    .fil0 {fill:#D9DBDD}
    .fil4 {fill:#D9DBDD;fill-opacity:0.501961}
   ]]>
  </style>
   <clipPath id="id0">
    <path d="M6.80211 15.5527l3.5856 0 0 5.6578 -3.5856 0 0 -5.6578z"/>
   </clipPath>
   <clipPath id="id1">
    <path d="M6.80211 25.8803l3.5856 0 0 5.6578 -3.5856 0 0 -5.6578z"/>
   </clipPath>
   <clipPath id="id2">
    <path d="M18.2104 27.4557l4.01248 0 0 5.6578 -4.01248 0 0 -5.6578z"/>
   </clipPath>
   <clipPath id="id3">
    <path d="M28.1296 16.3696l4.01248 0 0 5.6578 -4.01248 0 0 -5.6578z"/>
   </clipPath>
   <clipPath id="id4">
    <path d="M28.1296 5.27503l4.01248 0 0 5.6578 -4.01248 0 0 -5.6578z"/>
   </clipPath>
   <clipPath id="id5">
    <path d="M18.2132 5.27503l4.01248 0 0 5.6578 -4.01248 0 0 -5.6578z"/>
   </clipPath>
   <clipPath id="id6">
    <path d="M18.2132 16.3123l4.01248 0 0 5.6578 -4.01248 0 0 -5.6578z"/>
   </clipPath>
 </defs>
 <g id="Layer_x0020_1">
  <metadata id="CorelCorpID_0Corel-Layer"/>
  <polygon class="fil0" points="36.7464,26.67 38.9499,37.9423 41.8568,37.9423 39.8184,26.67 "/>
  <polygon class="fil0" points="3.43272,11.5885 11.2061,11.5885 11.2061,38.4848 13.9279,38.4848 13.9279,8.67949 3.43258,8.67949 "/>
  <rect class="fil0" x="13.7375" y="0.35633" width="24.7616" height="2.43638"/>
  <rect class="fil0" x="36.3114" y="0.306608" width="9.04942" height="26.0047"/>
  <polygon class="fil0" points="42.9532,26.5961 45.1271,38.2993 45.1271,26.3374 "/>
  <polygon class="fil0" points="30.5935,26.67 32.7446,37.9423 36.0278,37.9423 33.5413,26.67 "/>
  <line class="fil1 str0" x1="1.72716" y1="8.79113" x2="13.9089" y2= "8.79113" />
  <line class="fil1 str0" x1="13.9088" y1="0.513211" x2="13.9088" y2= "38.2392" />
  <line class="fil1 str0" x1="3.34786" y1="8.90005" x2="3.34786" y2= "38.2392" />
  <line class="fil1 str0" x1="12.3465" y1="0.371127" x2="46.6552" y2= "0.371127" />
  <rect class="fil2" x="6.05677" y="14.7932" width="5.07628" height="7.17681" rx="0.599751" ry="0.599751"/>
  <polygon class="fil3" points="6.80211,15.5527 10.3877,15.5527 10.3877,21.2105 6.80211,21.2105 "/>
  <g style="clip-path:url(#id0)">
   <g id="_99632552">
    <polygon id="_996326961" class="fil0" points="9.02425,14.9659 10.8712,22.247 10.8712,14.9659 "/>
    <path id="_99632624" class="fil0" d="M7.06236 15.1809l1.75556 6.41471 -2.13959 0 0 -6.41471 0.384031 0zm-1.14985 -1.68431l0 -0.000490909 0.000701299 0.000490909 -0.000701299 0z"/>
   </g>
  </g>
  <polygon class="fil1" points="6.80211,15.5527 10.3877,15.5527 10.3877,21.2105 6.80211,21.2105 "/>
  <rect class="fil2" x="6.05677" y="25.1208" width="5.07628" height="7.17681" rx="0.599751" ry="0.599751"/>
  <polygon class="fil3" points="6.80211,25.8803 10.3877,25.8803 10.3877,31.5381 6.80211,31.5381 "/>
  <g style="clip-path:url(#id1)">
   <g id="_99632336">
    <polygon id="_996324801" class="fil0" points="6.62784,24.989 8.54042,31.6656 6.53499,31.6656 6.53499,25.0509 "/>
    <polygon id="_99632408" class="fil0" points="10.7278,32.5352 9.07888,25.5018 10.7278,25.5018 "/>
   </g>
  </g>
  <polygon class="fil1" points="6.80211,25.8803 10.3877,25.8803 10.3877,31.5381 6.80211,31.5381 "/>
  <rect class="fil2" x="17.3763" y="26.6962" width="5.68073" height="7.17681" rx="0.599751" ry="0.599751"/>
  <polygon class="fil3" points="18.2104,27.4557 22.2229,27.4557 22.2229,33.1135 18.2104,33.1135 "/>
  <g style="clip-path:url(#id2)">
   <g id="_99632768">
    <polygon id="_996328401" class="fil0" points="18.0654,27.2678 19.448,33.6321 21.8312,33.6321 20.5042,27.2678 "/>
   </g>
  </g>
  <polygon class="fil1" points="18.2104,27.4557 22.2229,27.4557 22.2229,33.1135 18.2104,33.1135 "/>
  <rect class="fil2" x="16.6173" y="33.2959" width="7.19869" height="0.861546" rx="0.430738" ry="0.430738"/>
  <rect class="fil2" x="27.2955" y="15.6101" width="5.68073" height="7.17681" rx="0.599751" ry="0.599751"/>
  <polygon class="fil3" points="28.1296,16.3696 32.1421,16.3696 32.1421,22.0274 28.1296,22.0274 "/>
  <g style="clip-path:url(#id3)">
   <g id="_99632912">
    <polygon id="_996329841" class="fil0" points="28.2649,15.9068 29.6668,22.5867 31.2215,22.5867 30.1037,15.9068 "/>
   </g>
  </g>
  <polygon class="fil1" points="28.1296,16.3696 32.1421,16.3696 32.1421,22.0274 28.1296,22.0274 "/>
  <rect class="fil2" x="26.5365" y="22.2098" width="7.19869" height="0.861546" rx="0.430738" ry="0.430738"/>
  <rect class="fil2" x="27.2955" y="4.51552" width="5.68073" height="7.17681" rx="0.599751" ry="0.599751"/>
  <polygon class="fil3" points="28.1296,5.27503 32.1421,5.27503 32.1421,10.9328 28.1296,10.9328 "/>
  <g style="clip-path:url(#id4)">
   <g id="_99633200">
    <polygon id="_996332721" class="fil0" points="27.9207,5.04543 29.408,11.436 31.0424,11.436 29.8252,5.04543 "/>
   </g>
  </g>
  <polygon class="fil1" points="28.1296,5.27503 32.1421,5.27503 32.1421,10.9328 28.1296,10.9328 "/>
  <rect class="fil2" x="26.5365" y="11.1152" width="7.19869" height="0.861546" rx="0.430738" ry="0.430738"/>
  <polygon class="fil3" points="18.2132,5.27503 22.2257,5.27503 22.2257,10.9328 18.2132,10.9328 "/>
  <g style="clip-path:url(#id5)">
   <g id="_99633344">
    <polygon id="_996334161" class="fil0" points="19.0555,11.5149 17.66,4.86133 20.2229,4.86133 21.2174,11.5149 "/>
   </g>
  </g>
  <polygon class="fil1" points="18.2132,5.27503 22.2257,5.27503 22.2257,10.9328 18.2132,10.9328 "/>
  <path class="fil2" d="M17.0508 11.1152l5.17489 0 0 -5.84021 -4.01248 0 0 4.02349c0,0.272314 -0.0245455,0.628574 -0.424777,0.628574l0 0c-0.375826,0 -0.409348,-0.338938 -0.409348,-0.623735l0 -0.575907 0 -3.61218c0,-0.329891 0.301979,-0.599751 0.671143,-0.599751l4.33845 0c0.369164,0 0.671143,0.26993 0.671143,0.599751l0 5.99996 0.328208 0c0.236969,0 0.430738,0.193769 0.430738,0.430738l0 7.01299e-005c0,0.236969 -0.193769,0.430738 -0.430738,0.430738l-6.33722 0c-0.236969,0 -0.430738,-0.193769 -0.430738,-0.430738l0 -7.01299e-005c0,-0.236969 0.193769,-0.430738 0.430738,-0.430738z"/>
  <polygon class="fil4" points="27.0038,26.5977 27.8571,26.5977 29.4325,26.5977 45.1537,26.5977 45.1537,29.125 29.4325,29.125 29.4325,38.4461 27.0038,38.4461 "/>
  <path class="fil1 str0" d="M36.3128 0.513211l0 23.5169m0 2.47026l0 4.61336m0 1.867l0 5.25841"/>
  <line class="fil1 str0" x1="45.1536" y1="0.513211" x2="45.1536" y2= "38.2392" />
  <polyline class="fil1 str0" points="45.1537,26.4475 26.9758,26.4475 26.9758,38.1166 "/>
  <polygon class="fil3" points="18.2132,16.3123 22.2257,16.3123 22.2257,21.9701 18.2132,21.9701 "/>
  <g style="clip-path:url(#id6)">
   <g id="_99633056">
    <polygon id="_996331281" class="fil0" points="17.8954,16.3956 19.2461,22.613 21.6374,22.613 20.2885,16.1435 18.222,16.1435 "/>
   </g>
  </g>
  <polygon class="fil1" points="18.2132,16.3123 22.2257,16.3123 22.2257,21.9701 18.2132,21.9701 "/>
  <path class="fil2" d="M17.0508 22.1525l5.17489 0 0 -5.84021 -4.01248 0 0 4.02349c0,0.272314 -0.0245455,0.628574 -0.424777,0.628574l0 0c-0.375826,0 -0.409348,-0.338938 -0.409348,-0.623735l0 -0.575907 0 -3.61218c0,-0.329891 0.301979,-0.599751 0.671143,-0.599751l4.33845 0c0.369164,0 0.671143,0.26993 0.671143,0.599751l0 5.99996 0.328208 0c0.236969,0 0.430738,0.193769 0.430738,0.430738l0 7.01299e-005c0,0.236969 -0.193769,0.430738 -0.430738,0.430738l-6.33722 0c-0.236969,0 -0.430738,-0.193769 -0.430738,-0.430738l0 -7.01299e-005c0,-0.236969 0.193769,-0.430738 0.430738,-0.430738z"/>
  <line class="fil1 str0" x1="0.371127" y1="38.239" x2="48.6342" y2= "38.239" />
 </g>
</svg>
