<?xml version="1.0" encoding="UTF-8"?>
<!DOCTYPE svg PUBLIC "-//W3C//DTD SVG 1.1//EN" "http://www.w3.org/Graphics/SVG/1.1/DTD/svg11.dtd">
<!-- Creator: CorelDRAW -->
<svg xmlns="http://www.w3.org/2000/svg" xml:space="preserve" width="69.878mm" height="55.0554mm" style="shape-rendering:geometricPrecision; text-rendering:geometricPrecision; image-rendering:optimizeQuality; fill-rule:evenodd; clip-rule:evenodd"
viewBox="0 0 19.7106 15.5295"
 xmlns:xlink="http://www.w3.org/1999/xlink">
 <defs>
  <style type="text/css">
   <![CDATA[
    .str0 {stroke:#3F4446;stroke-width:0.298516;stroke-linecap:round;stroke-linejoin:round}
    .fil1 {fill:none}
    .fil3 {fill:#DD137B}
    .fil2 {fill:#B01B69}
    .fil0 {fill:#D9DBDD}
    .fil4 {fill:#D9DBDD;fill-opacity:0.501961}
   ]]>
  </style>
 </defs>
 <g id="Layer_x0020_1">
  <metadata id="CorelCorpID_0Corel-Layer"/>
  <polygon class="fil0" points="14.7799,10.727 15.6661,15.2609 16.8353,15.2609 16.0154,10.727 "/>
  <polygon class="fil0" points="1.38068,4.66106 4.50722,4.66106 4.50722,15.4791 5.60199,15.4791 5.60199,3.491 1.38063,3.491 "/>
  <rect class="fil0" x="5.52541" y="0.14332" width="9.95943" height="0.979943"/>
  <rect class="fil0" x="14.6049" y="0.123322" width="3.63979" height="10.4594"/>
  <polygon class="fil0" points="17.2763,10.6973 18.1507,15.4045 18.1507,10.5932 "/>
  <polygon class="fil0" points="12.3051,10.727 13.1703,15.2609 14.4908,15.2609 13.4907,10.727 "/>
  <line class="fil1 str0" x1="0.694685" y1="3.5359" x2="5.59435" y2= "3.5359" />
  <line class="fil1 str0" x1="5.59429" y1="0.20642" x2="5.59429" y2= "15.3803" />
  <line class="fil1 str0" x1="1.34655" y1="3.57971" x2="1.34655" y2= "15.3803" />
  <line class="fil1 str0" x1="4.96592" y1="0.149272" x2="18.7653" y2= "0.149272" />
  <rect class="fil2" x="2.43611" y="5.95001" width="2.04174" height="2.8866" rx="0.241227" ry="0.241227"/>
  <rect class="fil3" x="2.73589" y="6.25549" width="1.44217" height="2.27564"/>
  <rect class="fil2" x="2.43611" y="10.1039" width="2.04174" height="2.8866" rx="0.241227" ry="0.241227"/>
  <rect class="fil3" x="2.73589" y="10.4094" width="1.44217" height="2.27564"/>
  <rect class="fil2" x="6.98896" y="10.7375" width="2.28486" height="2.8866" rx="0.241227" ry="0.241227"/>
  <rect class="fil3" x="7.32444" y="11.043" width="1.6139" height="2.27564"/>
  <rect class="fil2" x="6.68368" y="13.392" width="2.8954" height="0.346524" rx="0.173248" ry="0.173248"/>
  <rect class="fil2" x="10.9786" y="6.27857" width="2.28486" height="2.8866" rx="0.241227" ry="0.241227"/>
  <rect class="fil3" x="11.3141" y="6.58405" width="1.6139" height="2.27564"/>
  <rect class="fil2" x="10.6733" y="8.93305" width="2.8954" height="0.346524" rx="0.173248" ry="0.173248"/>
  <rect class="fil2" x="10.9786" y="1.8162" width="2.28486" height="2.8866" rx="0.241227" ry="0.241227"/>
  <rect class="fil3" x="11.3141" y="2.12168" width="1.6139" height="2.27564"/>
  <rect class="fil2" x="10.6733" y="4.47069" width="2.8954" height="0.346524" rx="0.173248" ry="0.173248"/>
  <rect class="fil3" x="7.1686" y="2.12168" width="1.77087" height="2.45001"/>
  <path class="fil2" d="M6.85805 4.47069l2.0814 0 0 -2.349 -1.61387 0 0 1.6183c0,0.109528 -0.00987249,0.25282 -0.170851,0.25282l0 0c-0.151162,0 -0.164645,-0.136325 -0.164645,-0.250874l0 -0.231637 0 -1.45286c0,-0.132686 0.12146,-0.241227 0.269942,-0.241227l1.74498 0c0.148482,0 0.269942,0.108569 0.269942,0.241227l0 2.41326 0.132009 0c0.0953119,0 0.173248,0.0779363 0.173248,0.173248l0 2.82071e-005c0,0.0953119 -0.0779363,0.173248 -0.173248,0.173248l-2.54891 0c-0.0953119,0 -0.173248,-0.0779363 -0.173248,-0.173248l0 -2.82071e-005c0,-0.0953119 0.0779363,-0.173248 0.173248,-0.173248z"/>
  <polygon class="fil4" points="10.8613,10.6979 11.2045,10.6979 11.8381,10.6979 18.1614,10.6979 18.1614,11.7144 11.8381,11.7144 11.8381,15.4635 10.8613,15.4635 "/>
  <path class="fil1 str0" d="M14.6054 0.20642l0 9.45881m0 0.993568l0 1.85555m0 0.75093l0 2.115"/>
  <line class="fil1 str0" x1="18.1613" y1="0.20642" x2="18.1613" y2= "15.3803" />
  <polyline class="fil1 str0" points="18.1614,10.6375 10.85,10.6375 10.85,15.331 "/>
  <rect class="fil3" x="7.17088" y="6.561" width="1.76859" height="2.52208"/>
  <path class="fil2" d="M6.85805 8.91001l2.0814 0 0 -2.349 -1.61387 0 0 1.6183c0,0.109528 -0.00987249,0.25282 -0.170851,0.25282l0 0c-0.151162,0 -0.164645,-0.136325 -0.164645,-0.250874l0 -0.231637 0 -1.45286c0,-0.132686 0.12146,-0.241227 0.269942,-0.241227l1.74498 0c0.148482,0 0.269942,0.108569 0.269942,0.241227l0 2.41326 0.132009 0c0.0953119,0 0.173248,0.0779363 0.173248,0.173248l0 2.82071e-005c0,0.0953119 -0.0779363,0.173248 -0.173248,0.173248l-2.54891 0c-0.0953119,0 -0.173248,-0.0779363 -0.173248,-0.173248l0 -2.82071e-005c0,-0.0953119 0.0779363,-0.173248 0.173248,-0.173248z"/>
  <line class="fil1 str0" x1="0.149272" y1="15.3802" x2="19.5613" y2= "15.3802" />
 </g>
</svg>
