<?xml version="1.0" encoding="UTF-8"?>
<!DOCTYPE svg PUBLIC "-//W3C//DTD SVG 1.1//EN" "http://www.w3.org/Graphics/SVG/1.1/DTD/svg11.dtd">
<!-- Creator: CorelDRAW -->
<svg xmlns="http://www.w3.org/2000/svg" xml:space="preserve" width="37.6379mm" height="56.968mm" style="shape-rendering:geometricPrecision; text-rendering:geometricPrecision; image-rendering:optimizeQuality; fill-rule:evenodd; clip-rule:evenodd"
viewBox="0 0 2.83827 4.29595"
 xmlns:xlink="http://www.w3.org/1999/xlink">
 <defs>
  <style type="text/css">
   <![CDATA[
    .str0 {stroke:#3F4446;stroke-width:0.0798062;stroke-linecap:round;stroke-linejoin:round}
    .fil1 {fill:none}
    .fil3 {fill:white}
    .fil2 {fill:#3F4446}
    .fil0 {fill:#EEF0F2}
   ]]>
  </style>
 </defs>
 <g id="Layer_x0020_1">
  <metadata id="CorelCorpID_0Corel-Layer"/>
  <polygon class="fil0" points="1.86304,2.38631 2.12647,2.34112 2.66016,2.17523 2.3733,4.1344 1.65615,4.23002 1.80898,2.38796 "/>
  <line class="fil1 str0" x1="0.0799872" y1="2.151" x2="0.295184" y2= "3.61015" />
  <path class="fil1 str0" d="M0.325295 3.78115c0.010497,0.0975878 0.026039,0.195869 0.0420033,0.294837 0.418261,0.283677 1.98415,0.19691 2.02076,-0.0143656 0.0973616,-0.638465 0.170788,-1.27694 0.268157,-1.91541"/>
  <path class="fil1 str0" d="M0.347579 2.49223c0.0362495,0.00881541 0.072582,0.0170577 0.10899,0.0247344m0.10945 0.0213711c0.477412,0.0858692 0.967636,0.0791351 1.46546,0.0172387"/>
  <ellipse class="fil0 str0" cx="1.36693" cy="2.07258" rx="1.32702" ry="0.319361"/>
  <path class="fil2" d="M1.14112 2.35441l0 -0.883373c0,-0.139063 -0.113778,-0.252834 -0.252834,-0.252834l-0.215484 0c-0.126409,0 -0.229849,0.10344 -0.229849,0.229849l0 0.812541c0.231418,0.0526888 0.464132,0.0807865 0.698167,0.0938174z"/>
  <path class="fil3" d="M0.780152 1.28428l0.044899 0c0.121689,0 0.22126,0.0892098 0.22126,0.198245l0 0.865531c-0.166347,-0.0131364 -0.332022,-0.0313856 -0.497041,-0.0646338l0 -0.624325c0.0212279,0.01196 0.045721,0.0187997 0.0718203,0.0187997 0.0809147,0 0.146529,-0.0656141 0.146529,-0.146529 0,-0.0809147 -0.0656141,-0.146529 -0.146529,-0.146529 -0.0149236,0 -0.0293344,0.00223967 -0.0429006,0.00638721 0.0394846,-0.0636308 0.115347,-0.106946 0.201963,-0.106946z"/>
  <path class="fil3" d="M0.603852 1.47391c0.0364908,0 0.0660816,0.0295908 0.0660816,0.0660816 0,0.0364908 -0.0295908,0.0660816 -0.0660816,0.0660816 -0.0364908,0 -0.0660816,-0.0295908 -0.0660816,-0.0660816 0,-0.0364908 0.0295908,-0.0660816 0.0660816,-0.0660816z"/>
  <path class="fil2" d="M1.60689 1.46006l-0.168013 0.900069c0.107685,-0.00187016 0.215642,-0.0080236 0.323878,-0.0184754l0.197461 -0.996269 -0.353325 0.114676z"/>
  <polygon class="fil3" points="1.72156,1.48796 1.5449,2.34957 1.67507,2.34338 1.82384,1.47246 "/>
  <path class="fil2" d="M1.95017 2.31927l0.366469 -1.03278 0.375021 -0.120874 -0.381642 1.09189c-0.119396,0.0289725 -0.238551,0.0472669 -0.359848,0.0617606z"/>
  <path class="fil3" d="M2.06488 2.30477l0.341637 -0.962478 0.127073 0.00929803 -0.335845 0.930497c-0.0440167,0.00889836 -0.0889383,0.0152102 -0.132865,0.0226833z"/>
  <rect class="fil2" x="0.62109" y="0.155156" width="0.307423" height="1.07167"/>
  <rect class="fil3" x="0.704411" y="0.462571" width="0.12929" height="0.709659"/>
  <path class="fil2" d="M0.480308 -5.75928e-016l0.2672 0c0.099556,0 0.181006,0.0670016 0.181006,0.166543l0 0.126515c0,0.123242 -0.100861,0.224103 -0.224103,0.224103l-0.224103 0c-0.144282,-0.114789 -0.143309,-0.412047 0,-0.517161z"/>
  <path class="fil3" d="M0.506166 0.39649c0.0182944,0 0.0365888,0 0.0548908,0 -0.031838,-0.13711 0.0166279,-0.200002 0.0588046,-0.188487 0.0510147,0.0139131 0.0483905,0.0909216 0.0439941,0.13116 -0.00328787,0.0301111 -0.0111456,0.058699 -0.0226531,0.0860577 0.198154,-0.00650033 0.233175,-0.262683 0.0833203,-0.316043 -0.0594531,0 -0.118899,0 -0.178344,0 -0.0534052,0.0205115 -0.0507056,0.146393 -0.0400124,0.287311z"/>
  <path class="fil2" d="M1.96061 1.32325l0.0823701 -0.491008c0.0206698,-0.123182 -0.0632085,-0.240882 -0.186398,-0.261544l-0.290124 -0.048677c-0.0237918,-0.00398918 -0.0465203,0.0122088 -0.0505095,0.0360006l-0.142381 0.84867c-0.0046377,0.0276528 0.0141921,0.0540688 0.0418449,0.0587065l0.279861 0.0469577c0.124977,0.0209639 0.244373,-0.0641285 0.265337,-0.189105z"/>
  <path class="fil3" d="M1.87028 1.25376l0.0608708 -0.397523c0.0152705,-0.0997295 -0.0219292,-0.195017 -0.112956,-0.211751l-0.214413 -0.0394016c-0.0175705,-0.00323508 -0.0344698,0.00987869 -0.0373279,0.0291459l-0.0119826 0.0805678c0.00471311,-0.000701311 0.00956951,-0.000799344 0.0145013,-0.000226229l0.132442 0.015557c0.0329918,0.00388361 0.0570928,0.0366265 0.0535561,0.0727705l0 7.54098e-006c-0.00353672,0.0361364 -0.0334292,0.0625449 -0.0664134,0.0586613l-0.132457 -0.0155646c-0.00721672,-0.000852131 -0.0140111,-0.00308426 -0.0201872,-0.00642492l-0.0156098 0.104955c0.00751836,-0.00251115 0.0155948,-0.00344623 0.0238747,-0.00247344l0.132442 0.015557c0.0329918,0.00388361 0.0570928,0.0366265 0.0535561,0.0727629l0 1.5082e-005c-0.00353672,0.0361364 -0.0334292,0.0625449 -0.0664134,0.0586613l-0.132457 -0.0155646c-0.0106026,-0.0012518 -0.0202852,-0.00547475 -0.028422,-0.0118393l-0.0152102 0.102263c0.00618361,-0.00149311 0.0126839,-0.00193049 0.0193125,-0.00115377l0.132442 0.015557c0.0329918,0.00388361 0.0570928,0.036619 0.0535561,0.0727629l0 7.54098e-006c-0.00353672,0.0361439 -0.0334292,0.0625449 -0.0664134,0.0586613l-0.132457 -0.0155646c-0.00893606,-0.0010482 -0.0172236,-0.00423049 -0.024478,-0.00900393l-0.00840065 0.056497c-0.00332557,0.0223967 0.0104895,0.0437905 0.0309256,0.0475383l0.206827 0.0380065c0.0923544,0.0169597 0.155797,-0.0722803 0.171293,-0.173465z"/>
  <path class="fil2" d="M2.67991 1.1988l0.148112 -0.475323c0.037162,-0.119253 -0.0300056,-0.247224 -0.149259,-0.284386l-0.280856 -0.0875206c-0.0230377,-0.00717901 -0.0477495,0.00579147 -0.054921,0.0288292l-0.256009 0.821567c-0.00834033,0.0267629 0.0067341,0.0554941 0.0335046,0.0638344l0.270925 0.0844213c0.12098,0.0376974 0.250806,-0.0304354 0.288503,-0.151423z"/>
  <path class="fil3" d="M2.60118 1.12409l0.109457 -0.385163c0.0274567,-0.0966226 0.00238295,-0.196646 -0.085741,-0.22675l-0.207566 -0.0709154c-0.0170049,-0.0058141 -0.0353747,0.00467541 -0.0405856,0.0233544l-0.0218311 0.078117c0.00475836,7.54098e-006 0.00957705,0.000625901 0.0143957,0.00193803l0.129298 0.0350882c0.0322075,0.00874754 0.0520403,0.0447934 0.044062,0.0801079l0 7.54098e-006c-0.00797082,0.035322 -0.0408495,0.0570626 -0.0730495,0.0483151l-0.129313 -0.0351033c-0.00704328,-0.00191541 -0.0135059,-0.00513541 -0.0192069,-0.00937344l-0.0284446 0.101766c0.00775967,-0.00138 0.0158813,-0.00110098 0.0239577,0.00109344l0.129305 0.0350957c0.0322075,0.00874754 0.0520328,0.0447934 0.044062,0.0801079l0 7.54098e-006c-0.00797082,0.0353144 -0.0408495,0.0570551 -0.073057,0.0483075l-0.129313 -0.0351033c-0.0103462,-0.00281279 -0.019418,-0.0084459 -0.0266951,-0.0159567l-0.0277131 0.0991488c0.0063118,-0.000565574 0.0128046,-3.01639e-005 0.0192823,0.00171934l0.129298 0.0350957c0.0322075,0.00874754 0.0520403,0.0447934 0.044062,0.0801079l0 7.54098e-006c-0.00797082,0.0353144 -0.0408495,0.0570626 -0.0730495,0.0483151l-0.129313 -0.0351108c-0.00872492,-0.00236787 -0.0165449,-0.00674918 -0.0231433,-0.0125633l-0.0153082 0.0547777c-0.00606295,0.021718 0.00498459,0.044982 0.0247646,0.0517311l0.200221 0.0684042c0.0894059,0.0305334 0.1633,-0.0485413 0.191164,-0.146574z"/>
 </g>
</svg>
