<?xml version="1.0" encoding="UTF-8"?>
<!DOCTYPE svg PUBLIC "-//W3C//DTD SVG 1.1//EN" "http://www.w3.org/Graphics/SVG/1.1/DTD/svg11.dtd">
<!-- Creator: CorelDRAW -->
<svg xmlns="http://www.w3.org/2000/svg" xml:space="preserve" width="27.8614mm" height="54.3133mm" style="shape-rendering:geometricPrecision; text-rendering:geometricPrecision; image-rendering:optimizeQuality; fill-rule:evenodd; clip-rule:evenodd"
viewBox="0 0 1.65035 3.2172"
 xmlns:xlink="http://www.w3.org/1999/xlink">
 <defs>
  <style type="text/css">
   <![CDATA[
    .str0 {stroke:#3F4446;stroke-width:0.0626875;stroke-linecap:round;stroke-linejoin:round}
    .fil0 {fill:none}
    .fil1 {fill:white}
    .fil2 {fill:#3F4446}
   ]]>
  </style>
 </defs>
 <g id="Layer_x0020_1">
  <metadata id="CorelCorpID_0Corel-Layer"/>
  <path class="fil0 str0" d="M1.5595 1.70082c-0.0213361,0.190479 -0.0426723,0.354457 -0.0640143,0.544936m-0.0133869 0.119457c-0.0264421,0.23603 -0.0528842,0.47206 -0.0793323,0.708097 -0.269302,0.14061 -0.847267,0.159814 -1.1697,0 -0.0474051,-0.454723 -0.0948101,-0.909445 -0.142221,-1.36416"/>
  <ellipse class="fil0 str0" cx="0.825173" cy="1.61191" rx="0.793826" ry="0.207527"/>
  <ellipse class="fil1" cx="0.825173" cy="1.61191" rx="0.715459" ry="0.156688"/>
  <path class="fil2" d="M1.14462 1.77226l0.171027 -0.47007c0.0384311,-0.105609 -0.00917537,-0.223875 -0.113451,-0.26576l-0.161591 -0.0649028c-0.0947924,-0.0380757 -0.205015,0.00775967 -0.241604,0.103133l-0.268757 0.70058c0.205625,0.0252989 0.410439,0.0251034 0.614376,-0.00297948z"/>
  <path class="fil1" d="M1.1012 1.05342l0.0336687 0.0135172c0.0912561,0.03666 0.139052,0.133549 0.106213,0.215316l-0.201639 0.502009c-0.00497567,0.000456103 -0.00995726,0.000888512 -0.0149329,0.00130907l-0.00497567 0.000414639c-0.0149329,0.00123207 -0.0298777,0.00231605 -0.0448225,0.00324603l-0.00498159 0.000308017 -0.00996318 0.000580494 -0.00498159 0.000272477c-0.00830462,0.000450179 -0.0166092,0.000852971 -0.0249198,0.0012143l-0.00498159 0.000207319 -0.00498751 0.000201396 -0.0099691 0.000367252 -0.00498751 0.000165856 -0.00997503 0.000302094 -0.00498751 0.000136238 -0.000562724 1.18468e-005 -0.0094123 0.00022509 -0.00498751 0.000106621 -0.00498751 9.47746e-005 -0.000533107 5.92341e-006 -0.00713771 0.000112545 -0.00813877 0.000100698 -0.00901543 8.29278e-005 -0.000118468 0 -0.00499344 2.96171e-005 -0.000491643 0 -0.00948931 2.96171e-005 -0.00499344 -5.92341e-006 -0.00498751 -1.18468e-005 -0.00730949 -3.55405e-005 -0.00782483 -6.51575e-005 -0.00787814 -9.47746e-005 -0.00195473 -2.36937e-005 -0.00499344 -7.70044e-005 -0.00103067 -1.77702e-005 -0.00854748 -0.000159932 -0.0100876 -0.00022509 -0.00557393 -0.000142162 -0.0107569 -0.000313941 -0.00396276 -0.000124392 -0.00499344 -0.000171779 -0.00771821 -0.000284324 -0.00511783 -0.000201396 -0.0121548 -0.00052126 -5.92341e-006 0c-0.0078426,-0.00467357 -0.0177051,-0.00432409 -0.0285449,-0.00147493 -0.0281895,-0.00161709 -0.0563909,-0.00372583 -0.0846041,-0.0063262l0.208084 -0.518553c0.0123207,0.0153594 0.0286279,0.0278637 0.0481988,0.03573 0.0606854,0.0243689 0.129652,-0.00507636 0.154021,-0.065744 0.0243748,-0.0606854 -0.00506452,-0.129652 -0.065744,-0.154021 -0.0111953,-0.00449587 -0.0226748,-0.00716733 -0.0341011,-0.00813285 0.0487793,-0.0358248 0.118723,-0.0454622 0.183673,-0.0193696z"/>
  <path class="fil1" d="M0.911868 1.14252c0.0273662,0.0109879 0.0406465,0.0420918 0.0296526,0.0694579 -0.0109879,0.0273662 -0.0420977,0.0406405 -0.0694579,0.0296526 -0.0273662,-0.0109879 -0.0406524,-0.0420977 -0.0296526,-0.0694579 0.0109879,-0.0273721 0.0420918,-0.0406465 0.0694579,-0.0296526z"/>
  <rect class="fil2" transform="matrix(0.954704 0.38346 -0.38346 0.954704 1.32201 0.158755)" width="0.24148" height="0.841794"/>
  <rect class="fil1" transform="matrix(0.954704 0.38346 -0.38346 0.954704 1.2919 0.414388)" width="0.101557" height="0.557435"/>
  <path class="fil2" d="M1.26317 -5.92341e-006l0.200377 0.0804873c0.0746587,0.0299843 0.115554,0.104761 0.0855755,0.179408l-0.0381112 0.0948753c-0.037122,0.092423 -0.143139,0.137684 -0.235556,0.100562l-0.168059 -0.0675032c-0.0736221,-0.129539 0.0166389,-0.352165 0.155774,-0.38783z"/>
  <path class="fil1" d="M1.16314 0.305121c0.0137186,0.00550877 0.0274372,0.0110175 0.0411618,0.0165322 0.0174208,-0.112409 0.0727099,-0.144976 0.10087,-0.123639 0.0340655,0.0258024 0.00890289,0.0827619 -0.00650983,0.111615 -0.0115388,0.0215908 -0.0260393,0.0406583 -0.0429092,0.0577118 0.150555,0.0548093 0.253978,-0.126755 0.157675,-0.21191 -0.0445855,-0.0179065 -0.0891651,-0.035813 -0.133745,-0.0537194 -0.0462263,-0.000704886 -0.0821163,0.0945081 -0.116543,0.20341z"/>
  <path class="fil0 str0" d="M0.836694 1.96854c-0.0352502,0.0031868 -0.0701451,0.00528961 -0.104679,0.00630843m-0.0750259 0.000533107c-0.144685,-0.00226867 -0.283009,-0.0237825 -0.415338,-0.063268"/>
 </g>
</svg>
