<?xml version="1.0" encoding="UTF-8"?>
<!DOCTYPE svg PUBLIC "-//W3C//DTD SVG 1.1//EN" "http://www.w3.org/Graphics/SVG/1.1/DTD/svg11.dtd">
<!-- Creator: CorelDRAW -->
<svg xmlns="http://www.w3.org/2000/svg" xml:space="preserve" width="58.1428mm" height="54.3133mm" style="shape-rendering:geometricPrecision; text-rendering:geometricPrecision; image-rendering:optimizeQuality; fill-rule:evenodd; clip-rule:evenodd"
viewBox="0 0 8.88046 8.29556"
 xmlns:xlink="http://www.w3.org/1999/xlink">
 <defs>
  <style type="text/css">
   <![CDATA[
    .str0 {stroke:#3F4446;stroke-width:0.16164;stroke-linecap:round;stroke-linejoin:round}
    .fil0 {fill:none}
    .fil3 {fill:#DD137B}
    .fil1 {fill:white}
    .fil4 {fill:#3F4446}
    .fil2 {fill:#B01B69}
   ]]>
  </style>
 </defs>
 <g id="Layer_x0020_1">
  <metadata id="CorelCorpID_0Corel-Layer"/>
  <path class="fil0 str0" d="M4.02117 4.38456c-0.0550153,0.491151 -0.110031,0.914976 -0.165061,1.40613m-0.0345182 0.308021c-0.0681811,0.608605 -0.136362,1.21721 -0.204558,1.82583 -0.694396,0.362563 -2.18468,0.41208 -3.01606,0 -0.122234,-1.1725 -0.244468,-2.34501 -0.366718,-3.51749"/>
  <ellipse class="fil0 str0" cx="2.12771" cy="4.15633" rx="2.04688" ry="0.535108"/>
  <ellipse class="fil1" cx="2.12771" cy="4.15633" rx="1.84481" ry="0.404021"/>
  <path class="fil2" d="M2.9514 4.56978l0.440993 -1.21208c0.0990947,-0.272312 -0.0236587,-0.577263 -0.292534,-0.685262l-0.416662 -0.167352c-0.244422,-0.0981783 -0.528632,0.0200083 -0.622977,0.265927l-0.692991 1.80645c0.530205,0.0652333 1.05832,0.0647292 1.58417,-0.00768259z"/>
  <path class="fil3" d="M2.83944 2.71625l0.0868148 0.0348542c0.235304,0.0945279 0.358546,0.344357 0.27387,0.555193l-0.519926 1.29443c-0.0128298,0.00117606 -0.0256748,0.00229103 -0.0385046,0.00337545l-0.0128298 0.00106915c-0.0385046,0.0031769 -0.0770397,0.00597195 -0.115575,0.0083699l-0.012845 0.000794224 -0.0256901 0.00149681 -0.012845 0.000702583c-0.0214135,0.00116079 -0.042827,0.00219939 -0.0642558,0.00313107l-0.012845 0.000534574 -0.0128603 0.0005193 -0.0257054 0.000946959 -0.0128603 0.000427659 -0.0257206 0.00077895 -0.0128603 0.000351291 -0.00145099 3.05471e-005 -0.0242696 0.000580394 -0.0128603 0.000274924 -0.0128603 0.000244377 -0.00137462 1.52735e-005 -0.0184046 0.000290197 -0.0209858 0.00025965 -0.0232463 0.000213829 -0.000305471 0 -0.0128756 7.63677e-005 -0.0012677 0 -0.0244682 7.63677e-005 -0.0128756 -1.52735e-005 -0.0128603 -3.05471e-005 -0.0188475 -9.16412e-005 -0.0201763 -0.000168009 -0.0203138 -0.000244377 -0.00504027 -6.10941e-005 -0.0128756 -0.000198556 -0.00265759 -4.58206e-005 -0.0220397 -0.000412385 -0.0260108 -0.000580394 -0.0143724 -0.000366565 -0.0277367 -0.000809497 -0.010218 -0.000320744 -0.0128756 -0.000442932 -0.0199014 -0.00073313 -0.0131963 -0.0005193 -0.0313413 -0.00134407 -1.52735e-005 0c-0.0202222,-0.0120508 -0.0456526,-0.0111497 -0.0736032,-0.00380311 -0.0726867,-0.00416967 -0.145404,-0.00960705 -0.218152,-0.0163121l0.536544 -1.33709c0.031769,0.0396043 0.073817,0.0718467 0.124281,0.09213 0.156477,0.0628353 0.334307,-0.0130894 0.397142,-0.169521 0.0628506,-0.156477 -0.0130589,-0.334307 -0.169521,-0.397142 -0.028867,-0.0115926 -0.0584671,-0.018481 -0.0879297,-0.0209706 0.125778,-0.0923743 0.306127,-0.117224 0.473602,-0.0499445z"/>
  <path class="fil3" d="M2.35125 2.94599c0.0705637,0.0283324 0.104807,0.108534 0.0764593,0.179097 -0.0283324,0.0705637 -0.108549,0.104792 -0.179097,0.0764593 -0.0705637,-0.0283324 -0.104822,-0.108549 -0.0764593,-0.179097 0.0283324,-0.070579 0.108534,-0.104807 0.179097,-0.0764593z"/>
  <rect class="fil2" transform="matrix(0.954704 0.38346 -0.38346 0.954704 3.40881 0.40935)" width="0.622656" height="2.17057"/>
  <rect class="fil3" transform="matrix(0.954704 0.38346 -0.38346 0.954704 3.33117 1.0685)" width="0.261865" height="1.43735"/>
  <path class="fil4" d="M3.2571 -1.52735e-005l0.516673 0.207537c0.192508,0.0773146 0.297956,0.270128 0.220657,0.462605l-0.0982699 0.244636c-0.0957192,0.238313 -0.369085,0.355018 -0.607383,0.259299l-0.433341 -0.174057c-0.189835,-0.334017 0.0429034,-0.908057 0.401663,-1.00002z"/>
  <path class="fil1" d="M2.99916 0.786755c0.0353735,0.0142044 0.070747,0.0284088 0.106136,0.0426284 0.0449195,-0.289846 0.187483,-0.37382 0.260093,-0.318804 0.0878381,0.0665315 0.0229561,0.213402 -0.0167856,0.287799 -0.0297528,0.055672 -0.0671425,0.104838 -0.110641,0.14881 0.388207,0.141326 0.654883,-0.326838 0.406566,-0.546411 -0.114964,-0.0461719 -0.229913,-0.0923438 -0.344861,-0.138516 -0.119195,-0.00181755 -0.211737,0.243689 -0.300507,0.524493z"/>
  <path class="fil0 str0" d="M2.15742 5.07588c-0.0908928,0.00821716 -0.180869,0.0136393 -0.269914,0.0162663m-0.193455 0.00137462c-0.373071,-0.00584976 -0.729739,-0.0613232 -1.07095,-0.163137"/>
  <path class="fil0 str0" d="M8.64621 4.38433c-0.0550153,0.491151 -0.110031,0.915205 -0.165061,1.40636m-0.0345182 0.308021c-0.0681811,0.608605 -0.136362,1.21721 -0.204558,1.82583 -0.694396,0.362563 -2.18468,0.41208 -3.01606,0 -0.122234,-1.1725 -0.244468,-2.34501 -0.366718,-3.51749"/>
  <ellipse class="fil0 str0" cx="6.75275" cy="4.15633" rx="2.04688" ry="0.535108"/>
  <ellipse class="fil1" cx="6.75275" cy="4.15633" rx="1.84481" ry="0.404021"/>
  <path class="fil2" d="M7.20691 4.60037l0 -1.59187c0,-0.281659 -0.230447,-0.512091 -0.512091,-0.512091l-0.436441 0c-0.25603,0 -0.465537,0.209507 -0.465537,0.465537l0 1.58632c0.458298,0.0693418 0.935397,0.0837753 1.41407,0.052098z"/>
  <path class="fil3" d="M6.4758 2.63026l0.0909386 0c0.246469,0 0.448141,0.180686 0.448141,0.401526l0 1.57881c-0.339592,0.013624 -0.677213,0.00337545 -1.00671,-0.0339072l0 -1.18727c0.042995,0.0242238 0.0926034,0.0380769 0.145465,0.0380769 0.163885,0 0.29678,-0.132895 0.29678,-0.29678 0,-0.163885 -0.132895,-0.29678 -0.29678,-0.29678 -0.0302263,0 -0.059414,0.00453624 -0.0868911,0.0129367 0.0799722,-0.128878 0.233624,-0.216609 0.409056,-0.216609z"/>
  <path class="fil3" d="M6.11872 3.01432c0.0739086,0 0.133842,0.0599333 0.133842,0.133842 0,0.0739086 -0.0599333,0.133842 -0.133842,0.133842 -0.0739086,0 -0.133842,-0.0599333 -0.133842,-0.133842 0,-0.0739086 0.0599333,-0.133842 0.133842,-0.133842z"/>
  <rect class="fil2" x="6.15363" y="0.343318" width="0.622656" height="2.17057"/>
  <rect class="fil3" x="6.32239" y="0.965959" width="0.261865" height="1.43735"/>
  <path class="fil4" d="M5.86849 0.0290655l0.541187 0c0.201641,0 0.366611,0.135705 0.366611,0.337316l0 0.256244c0,0.249615 -0.204284,0.453899 -0.453899,0.453899l-0.453899 0c-0.292229,-0.232494 -0.290258,-0.834561 0,-1.04746z"/>
  <path class="fil1" d="M5.92086 0.832117c0.0370536,0 0.0741072,0 0.111176,0 -0.0644849,-0.277703 0.0336781,-0.405085 0.119103,-0.381762 0.103325,0.0281797 0.0980103,0.184153 0.0891058,0.265653 -0.00665926,0.0609872 -0.0225743,0.118889 -0.0458817,0.174302 0.401343,-0.0131658 0.472273,-0.532038 0.168757,-0.640114 -0.120417,0 -0.240818,0 -0.361219,0 -0.108167,0.041544 -0.102699,0.296505 -0.0810414,0.581922z"/>
  <path class="fil0 str0" d="M6.78246 5.07588c-0.0908928,0.00821716 -0.180869,0.0136393 -0.269914,0.0162663m-0.193455 0.00137462c-0.373071,-0.00584976 -0.729739,-0.0613232 -1.07095,-0.163137"/>
 </g>
</svg>
