<?xml version="1.0" encoding="UTF-8"?>
<!DOCTYPE svg PUBLIC "-//W3C//DTD SVG 1.1//EN" "http://www.w3.org/Graphics/SVG/1.1/DTD/svg11.dtd">
<!-- Creator: CorelDRAW -->
<svg xmlns="http://www.w3.org/2000/svg" xml:space="preserve" width="58.1428mm" height="54.3133mm" style="shape-rendering:geometricPrecision; text-rendering:geometricPrecision; image-rendering:optimizeQuality; fill-rule:evenodd; clip-rule:evenodd"
viewBox="0 0 13.3124 12.4356"
 xmlns:xlink="http://www.w3.org/1999/xlink">
 <defs>
  <style type="text/css">
   <![CDATA[
    .str0 {stroke:#3F4446;stroke-width:0.242309;stroke-linecap:round;stroke-linejoin:round}
    .fil0 {fill:none}
    .fil1 {fill:white}
    .fil2 {fill:#3F4446}
   ]]>
  </style>
 </defs>
 <g id="Layer_x0020_1">
  <metadata id="CorelCorpID_0Corel-Layer"/>
  <path class="fil0 str0" d="M6.02801 6.54411c-0.0824716,0.736269 -0.164943,1.40025 -0.247438,2.13652m-0.0517451 0.461745c-0.102208,0.912339 -0.204416,1.82468 -0.306647,2.73704 -1.04095,0.543507 -3.27498,0.617736 -4.52128,0 -0.183237,-1.75766 -0.366474,-3.51532 -0.549734,-5.27296"/>
  <ellipse class="fil0 str0" cx="3.18958" cy="6.23061" rx="3.06842" ry="0.802163"/>
  <ellipse class="fil1" cx="3.18958" cy="6.23061" rx="2.7655" ry="0.605655"/>
  <path class="fil2" d="M4.42434 6.85041l0.661078 -1.81699c0.14855,-0.408214 -0.035466,-0.865357 -0.438528,-1.02725l-0.624604 -0.250872c-0.366406,-0.147176 -0.792455,0.0299938 -0.933884,0.398643l-1.03884 2.70799c0.794814,0.0977891 1.58649,0.0970335 2.37478,-0.0115167z"/>
  <path class="fil1" d="M4.25651 4.07184l0.130141 0.0522488c0.352737,0.141704 0.537485,0.516215 0.410549,0.832272l-0.779405 1.94044c-0.0192327,0.001763 -0.0384883,0.00343441 -0.057721,0.00506003l-0.0192327 0.00160272c-0.057721,0.00476238 -0.115488,0.00895236 -0.173254,0.012547l-0.0192556 0.0011906 -0.0385112 0.00224381 -0.0192556 0.00105322c-0.0321003,0.0017401 -0.0642005,0.00329703 -0.0963237,0.00469369l-0.0192556 0.000801362 -0.0192785 0.000778466 -0.0385341 0.00141956 -0.0192785 0.00064109 -0.038557 0.0011677 -0.0192785 0.000526609 -0.00217513 4.57921e-005 -0.0363818 0.00087005 -0.0192785 0.000412129 -0.0192785 0.000366337 -0.00206065 2.28961e-005 -0.0275898 0.000435025 -0.0314592 0.000389233 -0.0348478 0.000320545 -0.000457921 0 -0.0193014 0.00011448 -0.00190037 0 -0.0366795 0.00011448 -0.0193014 -2.28961e-005 -0.0192785 -4.57921e-005 -0.0282537 -0.000137376 -0.0302457 -0.000251857 -0.0304518 -0.000366337 -0.0075557 -9.15842e-005 -0.0193014 -0.000297649 -0.00398391 -6.86882e-005 -0.033039 -0.000618194 -0.038992 -0.00087005 -0.0215452 -0.000549505 -0.0415792 -0.00121349 -0.0153175 -0.000480817 -0.0193014 -0.000663986 -0.0298336 -0.00109901 -0.0197822 -0.000778466 -0.0469827 -0.00201485 -2.28961e-005 0c-0.0303144,-0.018065 -0.0684363,-0.0167141 -0.110336,-0.00570112 -0.108962,-0.00625062 -0.21797,-0.0144016 -0.327024,-0.024453l0.804316 -2.00439c0.0476238,0.0593695 0.110657,0.107703 0.186305,0.138109 0.23457,0.0941944 0.501149,-0.0196219 0.595343,-0.254123 0.0942173,-0.23457 -0.0195761,-0.501149 -0.254123,-0.595343 -0.0432736,-0.0173781 -0.0876461,-0.0277042 -0.131813,-0.0314363 0.188549,-0.138475 0.458906,-0.175727 0.709961,-0.0748701z"/>
  <path class="fil1" d="M3.52469 4.41624c0.10578,0.0424722 0.157113,0.162699 0.114618,0.268479 -0.0424722,0.10578 -0.162722,0.15709 -0.268479,0.114618 -0.10578,-0.0424722 -0.157136,-0.162722 -0.114618,-0.268479 0.0424722,-0.105803 0.162699,-0.157113 0.268479,-0.114618z"/>
  <rect class="fil2" transform="matrix(0.954704 0.38346 -0.38346 0.954704 5.11004 0.613644)" width="0.933404" height="3.25383"/>
  <rect class="fil1" transform="matrix(0.954704 0.38346 -0.38346 0.954704 4.99364 1.60175)" width="0.392553" height="2.15468"/>
  <path class="fil2" d="M4.88261 -2.28961e-005l0.774528 0.311112c0.288582,0.1159 0.446656,0.40494 0.330779,0.693476l-0.147313 0.366726c-0.14349,0.357247 -0.553283,0.532196 -0.910508,0.388706l-0.649607 -0.260923c-0.284575,-0.500714 0.064315,-1.36124 0.602121,-1.4991z"/>
  <path class="fil1" d="M4.49594 1.1794c0.0530273,0.0212933 0.106055,0.0425867 0.159105,0.0639029 0.0673373,-0.434498 0.281049,-0.560381 0.389897,-0.477909 0.131675,0.0997352 0.0344128,0.319904 -0.0251628,0.43143 -0.0446015,0.0834561 -0.100651,0.157159 -0.165859,0.223076 0.581949,0.211857 0.981714,-0.489953 0.60947,-0.819106 -0.172339,-0.0692148 -0.344654,-0.13843 -0.51697,-0.207644 -0.178681,-0.00272463 -0.317408,0.365307 -0.45048,0.786251z"/>
  <path class="fil0 str0" d="M3.23411 7.60909c-0.136254,0.0123181 -0.271135,0.0204462 -0.404619,0.0243843m-0.290001 0.00206065c-0.559259,-0.00876919 -1.09393,-0.0919277 -1.60543,-0.244553"/>
  <path class="fil0 str0" d="M12.9444 6.57779c-0.0824716,0.736269 -0.148137,1.36657 -0.230632,2.10284m-0.0517451 0.461745c-0.102208,0.912339 -0.204416,1.82468 -0.306647,2.73704 -1.04095,0.543507 -3.27498,0.617736 -4.52128,0 -0.183237,-1.75766 -0.366474,-3.51532 -0.549734,-5.27296"/>
  <ellipse class="fil0 str0" cx="10.1228" cy="6.23061" rx="3.06842" ry="0.802163"/>
  <ellipse class="fil1" cx="10.1228" cy="6.23061" rx="2.7655" ry="0.605655"/>
  <path class="fil2" d="M10.8036 6.89627l0 -2.38632c0,-0.422226 -0.345456,-0.767659 -0.767659,-0.767659l-0.654255 0c-0.383807,0 -0.697872,0.314065 -0.697872,0.697872l0 2.37801c0.687019,0.103948 1.40222,0.125585 2.11979,0.0780985z"/>
  <path class="fil1" d="M9.70765 3.94293l0.136323 0c0.369474,0 0.671793,0.27086 0.671793,0.601914l0 2.36674c-0.509071,0.0204233 -1.01519,0.00506003 -1.50912,-0.0508292l0 -1.7798c0.0644524,0.0363131 0.138819,0.0570799 0.218062,0.0570799 0.245675,0 0.444893,-0.199219 0.444893,-0.444893 0,-0.245675 -0.199219,-0.444893 -0.444893,-0.444893 -0.0453113,0 -0.0890657,0.00680013 -0.130256,0.019393 0.119884,-0.193197 0.350218,-0.324712 0.613202,-0.324712z"/>
  <path class="fil1" d="M9.17237 4.51867c0.110794,0 0.200638,0.0898441 0.200638,0.200638 0,0.110794 -0.0898441,0.200638 -0.200638,0.200638 -0.110794,0 -0.200638,-0.0898441 -0.200638,-0.200638 0,-0.110794 0.0898441,-0.200638 0.200638,-0.200638z"/>
  <rect class="fil2" x="9.22471" y="0.514658" width="0.933404" height="3.25383"/>
  <rect class="fil1" x="9.47769" y="1.44804" width="0.392553" height="2.15468"/>
  <path class="fil2" d="M8.79726 0.0435712l0.811276 0c0.302274,0 0.549574,0.203431 0.549574,0.505659l0 0.384127c0,0.37419 -0.306235,0.680425 -0.680425,0.680425l-0.680425 0c-0.43807,-0.348524 -0.435117,-1.25106 0,-1.57021z"/>
  <path class="fil1" d="M8.87577 1.2474c0.0555458,0 0.111092,0 0.16666,0 -0.0966672,-0.416296 0.0504858,-0.607249 0.178543,-0.572287 0.154892,0.0422432 0.146924,0.276058 0.133576,0.398231 -0.00998268,0.091424 -0.0338404,0.178223 -0.0687798,0.26129 0.60164,-0.0197364 0.707969,-0.797561 0.252979,-0.959574 -0.180513,0 -0.361002,0 -0.541492,0 -0.16215,0.0622773 -0.153953,0.444481 -0.121486,0.87234z"/>
  <path class="fil0 str0" d="M10.1674 7.60909c-0.136254,0.0123181 -0.271135,0.0204462 -0.404619,0.0243843m-0.290001 0.00206065c-0.559259,-0.00876919 -1.09393,-0.0919277 -1.60543,-0.244553"/>
 </g>
</svg>
