<?xml version="1.0" encoding="UTF-8"?>
<!DOCTYPE svg PUBLIC "-//W3C//DTD SVG 1.1//EN" "http://www.w3.org/Graphics/SVG/1.1/DTD/svg11.dtd">
<!-- Creator: CorelDRAW -->
<svg xmlns="http://www.w3.org/2000/svg" xml:space="preserve" width="27.8614mm" height="56.2183mm" style="shape-rendering:geometricPrecision; text-rendering:geometricPrecision; image-rendering:optimizeQuality; fill-rule:evenodd; clip-rule:evenodd"
viewBox="0 0 7.7333 15.6041"
 xmlns:xlink="http://www.w3.org/1999/xlink">
 <defs>
  <style type="text/css">
   <![CDATA[
    .str0 {stroke:#3F4446;stroke-width:0.293745;stroke-linecap:round;stroke-linejoin:round}
    .fil0 {fill:none}
    .fil3 {fill:#DD137B}
    .fil1 {fill:white}
    .fil4 {fill:#3F4446}
    .fil2 {fill:#B01B69}
   ]]>
  </style>
 </defs>
 <g id="Layer_x0020_1">
  <metadata id="CorelCorpID_0Corel-Layer"/>
  <path class="fil0 str0" d="M7.3076 8.47689c-0.0999782,0.89256 -0.199956,1.68262 -0.299962,2.57518m-0.0627293 0.559762c-0.123904,1.10601 -0.247808,2.21201 -0.37174,3.31805 -1.26191,0.658879 -3.97018,0.748865 -5.48104,0 -0.222134,-2.13077 -0.444268,-4.26154 -0.666429,-6.39228"/>
  <ellipse class="fil0 str0" cx="3.86665" cy="8.08197" rx="3.71976" ry="0.972442"/>
  <ellipse class="fil1" cx="3.86665" cy="8.08197" rx="3.35255" ry="0.734221"/>
  <path class="fil0 str0" d="M3.92063 9.75307c-0.165178,0.0149329 -0.32869,0.0247864 -0.49051,0.0295605m-0.351561 0.00249807c-0.677976,-0.0106307 -1.32614,-0.111442 -1.94622,-0.296465"/>
  <path class="fil2" d="M3.58059 8.90625l0 -3.49177c0,-0.511854 -0.418843,-0.930614 -0.930614,-0.930614l-0.793137 0c-0.465224,0 -0.846012,0.380789 -0.846012,0.846012l0 3.22301c0.60123,0.209227 1.6933,0.347398 2.56976,0.353366z"/>
  <path class="fil3" d="M2.25195 4.72709l0.165261 0c0.447904,0 0.814398,0.328385 0.814398,0.729686l0 3.44331c-0.634842,-0.0243145 -1.24884,-0.0935665 -1.82947,-0.234791l0 -2.5586c0.078134,0.0440215 0.168287,0.0691965 0.264351,0.0691965 0.297825,0 0.539333,-0.241508 0.539333,-0.539333 0,-0.297825 -0.241508,-0.539333 -0.539333,-0.539333 -0.0549297,0 -0.107972,0.00824363 -0.157906,0.0235096 0.145332,-0.234208 0.424561,-0.39364 0.74337,-0.39364z"/>
  <path class="fil3" d="M1.60304 5.42505c0.134313,0 0.243229,0.108916 0.243229,0.243229 0,0.134313 -0.108916,0.243229 -0.243229,0.243229 -0.134313,0 -0.243229,-0.108916 -0.243229,-0.243229 0,-0.134313 0.108916,-0.243229 0.243229,-0.243229z"/>
  <rect class="fil2" x="1.66649" y="0.571086" width="1.13154" height="3.94453"/>
  <rect class="fil3" x="1.97317" y="1.7026" width="0.475882" height="2.61206"/>
  <path class="fil4" d="M1.14831 4.66207e-017l0.983489 0c0.366439,0 0.666235,0.246615 0.666235,0.612998l0 0.465668c0,0.453621 -0.371241,0.824862 -0.824862,0.824862l-0.824862 0c-0.531062,-0.422507 -0.527481,-1.51663 0,-1.90353z"/>
  <path class="fil1" d="M1.24348 1.45937c0.0673368,0 0.134674,0 0.202038,0 -0.117187,-0.504665 0.0612027,-0.736153 0.216444,-0.693769 0.187771,0.0512104 0.178112,0.334658 0.16193,0.482766 -0.0121018,0.110831 -0.0410238,0.216055 -0.08338,0.316755 0.729353,-0.0239259 0.858253,-0.966863 0.30668,-1.16327 -0.218831,0 -0.437634,0 -0.656437,0 -0.19657,0.0754972 -0.186633,0.538833 -0.147275,1.05752z"/>
  <path class="fil2" d="M6.49662 8.62428l0.401717 -2.42701c0.0835743,-0.504998 -0.261215,-0.986515 -0.766158,-1.07009l-0.782506 -0.129511c-0.458978,-0.075969 -0.898749,0.237205 -0.972803,0.696489l-0.51896 3.21823 0.00380262 0.00119352c0.0287,0.00111025 0.0573723,0.00210948 0.0860168,0.00296993l0.0429113 0.00122128 0.00385813 0.000111025 0.0389976 0.000888202 0.00219275 2.77563e-005 0.0387756 0.00074942 0.00263685 2.77563e-005 0.0399968 0.000610639 0.00377486 5.55126e-005 0.0397748 0.000416345 0.00385813 2.77563e-005c0.0275065,0.000222051 0.0549575,0.000277563 0.0823807,0.000249807l0.0424949 -0.000138782 0.0384703 -0.000305319 0.00613415 -5.55126e-005 0.0361387 -0.000444101 0.00605088 -8.32689e-005 0.0399136 -0.000693908 0.0013323 -2.77563e-005 0.0411349 -0.000888202 0.00111025 -2.77563e-005 0.0413569 -0.0010825 0.0421618 -0.00127679 0.0402189 -0.00144333 0.00227602 -8.32689e-005 0.0365273 -0.00147108 0.00688357 -0.000277563c0.0269514,-0.00113801 0.053875,-0.0024148 0.0807431,-0.00380262l0.00513492 -0.000249807 0.0379706 -0.00208172 0.000138782 0 0.0386923 -0.00224826 0.00308095 -0.000194294 0.0417455 -0.00266461c0.0248697,-0.00163762 0.0497393,-0.00338627 0.0745535,-0.00524594l0.0144055 -0.0010825 0.0356946 -0.00277563 0.000416345 -5.55126e-005 0.0400801 -0.00327525 0.00499614 -0.000444101 0.0376653 -0.003303 0.0409406 -0.0037471 0.000444101 -5.55126e-005 0.0413292 -0.00402467c0.0534587,-0.00532921 0.106779,-0.0111303 0.159932,-0.017431l0.0153215 -0.00183192 0.0304764 -0.00371935 0.0409683 -0.00519043c0.0396638,-0.00510716 0.079272,-0.0105196 0.118769,-0.0161819l0.00852119 -0.00122128 0.032919 -0.0048296 0.010825 -0.00160987 0.0308373 -0.00469082 0.00208172 -0.000305319 0.0381094 -0.00593985 0.00249807 -0.000416345c0.0524317,-0.00835465 0.104725,-0.0171812 0.156851,-0.0265073l0.0117687 -0.00213724c0.0246199,-0.00444101 0.0492119,-0.00896529 0.0737763,-0.0136284l0.0401911 -0.00774401 8.32689e-005 0 0.0400524 -0.00793831 0.039636 -0.00804933 0.000610639 -0.000111025 0.038276 -0.00796606 0.00280339 -0.000610639c0.0262297,-0.00552351 0.0524317,-0.0111858 0.0786059,-0.0169591l0.0353615 -0.00788279 0.00446877 -0.00102698c0.0254248,-0.00577331 0.0507941,-0.0116577 0.0761633,-0.017653l0.00457979 -0.0010825 0.0323084 -0.00774401 0.00841016 -0.00205397 0.0369714 -0.00907631 0.00052737 -0.000111025c0.0262852,-0.00652273 0.0525149,-0.0131842 0.0787447,-0.0199568l0.0374988 -0.00977022 0.00191519 -0.00052737 0.0393585 -0.0104919 0.00505165 -0.00136006 0.0342235 -0.00935388z"/>
  <path class="fil3" d="M5.69976 5.30212l0.163041 0.0270069c0.441908,0.0731379 0.749865,0.456924 0.684332,0.852868l-0.419509 2.53443 -0.0299768 0.00668927 -0.0600647 0.0130177 -0.0300878 0.00632844 -0.0297548 0.0061619 -0.000360832 8.32689e-005 -0.0290886 0.00593985 -0.00105474 0.000194294 -0.0301989 0.00599536 -0.000555126 0.000111025 -0.0269791 0.0052737 -0.00899305 0.00172089c-0.096703,0.0186245 -0.193906,0.0355003 -0.291636,0.050683l-0.00899305 0.00141557 -0.0275065 0.0041912 -0.000194294 2.77563e-005 -0.030643 0.00457979 -0.00136006 0.000222051 -0.0292829 0.00421896 -0.000610639 8.32689e-005 -0.0300878 0.00424672 -0.0307262 0.00424672 -0.0277841 0.00371935 -0.00607863 0.000804933 -0.0265628 0.00346954 -0.00113801 0.000138782 -0.0308373 0.00388588 -0.0234263 0.00288666 -0.00743869 0.000915958 -0.0267848 0.00319198 -0.00410793 0.000471857 -0.0309205 0.00358056 -0.00308095 0.000333076 -0.0278951 0.00310871 -0.030865 0.00335851 -0.000111025 0 -0.0310316 0.00321973 -0.0174032 0.0017764 -0.00552351 0.00052737 -0.0313369 0.00308095 -0.00791055 0.00074942 -0.00388588 0.000388588 -0.0127679 0.00116577 -0.0299491 0.00274788 -0.00599536 0.000555126 -0.00968695 0.000860446 -0.0311981 0.00266461 -0.0230933 0.00191519 -0.00816036 0.000666152 -0.0255636 0.00202621 -0.00569004 0.000444101 -0.0428002 0.00319198 -0.00111025 8.32689e-005 -0.0363608 0.00252582 -0.0137394 0.000915958 -0.0313924 0.00202621 -0.0160709 0.000999227 -0.0153492 0.000915958 -0.0314757 0.00180416 -0.00238704 0.000138782 -0.0291164 0.00155435 -0.0201788 0.00105474 -0.0113523 0.000555126 -0.0315589 0.00147108 -0.00646722 0.000277563 -0.0446044 0.00185967 -0.00488511 0.000194294 -0.00727215 0.000277563 -0.03167 0.00116577 -0.0106029 0.000360832 -0.00793831 0.000249807 -0.0340848 0.00102698 -0.00757747 0.000222051 -0.00324749 8.32689e-005c-0.0297548,0.000832689 -0.0595651,0.00149884 -0.0894308,0.00202621l-0.00596761 0.000111025 -0.000860446 2.77563e-005 -0.00807709 0.000111025c-0.0288943,0.000471857 -0.0578164,0.000832689 -0.0867662,0.00102698l-0.00499614 2.77563e-005 -0.000915958 0c-0.0514047,0.000305319 -0.0113801,0.000277563 -0.062757,-0.000305319l0.403854 -2.39604c0.0698904,0.0561788 0.154741,0.0957315 0.249502,0.111442 0.293828,0.0486291 0.57153,-0.150217 0.620159,-0.444046 0.0486291,-0.293828 -0.150189,-0.57153 -0.444018,-0.620159 -0.0541803,-0.00896529 -0.107861,-0.00949266 -0.159627,-0.00258134 0.181637,-0.20734 0.483154,-0.319031 0.797661,-0.266988z"/>
  <path class="fil3" d="M4.94559 5.88476c0.132509,0.0219275 0.222189,0.147192 0.200234,0.2797 -0.0219275,0.132509 -0.147164,0.222162 -0.279673,0.200234 -0.132509,-0.0219275 -0.222162,-0.147164 -0.200234,-0.279673 0.0219275,-0.132509 0.147164,-0.222189 0.279673,-0.200262z"/>
  <polygon class="fil2" points="5.15671,4.99786 6.27307,5.18263 6.91718,1.29106 5.80082,1.10628 "/>
  <polygon class="fil3" points="5.91862,2.27271 6.38809,2.35043 5.96156,4.92741 5.49209,4.84972 "/>
  <path class="fil4" d="M5.38284 0.458285l0.970277 0.16057c0.361526,0.0598426 0.617023,0.352117 0.557208,0.713587l-0.0760523 0.459395c-0.0740538,0.447543 -0.500946,0.753168 -0.948489,0.679114l-0.813787 -0.134701c-0.454926,-0.503555 -0.272734,-1.58242 0.310843,-1.87796z"/>
  <path class="fil1" d="M5.23842 1.9136c0.0664486,0.0109915 0.132869,0.021983 0.199346,0.0329745 -0.0332243,-0.517017 0.180583,-0.716279 0.326803,-0.649109 0.176891,0.0811872 0.121101,0.35925 0.0809374,0.502722 -0.0300323,0.107389 -0.075747,0.206479 -0.13398,0.298908 0.723468,0.0954817 1.00461,-0.81376 0.492508,-1.0976 -0.215889,-0.0357224 -0.431749,-0.0714448 -0.64761,-0.107167 -0.206285,0.0423839 -0.272123,0.501113 -0.318004,1.01927z"/>
 </g>
</svg>
