<?xml version="1.0" encoding="UTF-8"?>
<!DOCTYPE svg PUBLIC "-//W3C//DTD SVG 1.1//EN" "http://www.w3.org/Graphics/SVG/1.1/DTD/svg11.dtd">
<!-- Creator: CorelDRAW -->
<svg xmlns="http://www.w3.org/2000/svg" xml:space="preserve" width="44.5012mm" height="58.4894mm" style="shape-rendering:geometricPrecision; text-rendering:geometricPrecision; image-rendering:optimizeQuality; fill-rule:evenodd; clip-rule:evenodd"
viewBox="0 0 47.7466 62.7549"
 xmlns:xlink="http://www.w3.org/1999/xlink">
 <defs>
  <style type="text/css">
   <![CDATA[
    .str0 {stroke:#3F4446;stroke-width:1.13548;stroke-linecap:round;stroke-linejoin:round}
    .fil1 {fill:none}
    .fil4 {fill:#DD137B}
    .fil2 {fill:white}
    .fil5 {fill:#3F4446}
    .fil3 {fill:#B01B69}
    .fil0 {fill:#EEF0F2}
   ]]>
  </style>
 </defs>
 <g id="Layer_x0020_1">
  <metadata id="CorelCorpID_0Corel-Layer"/>
  <polygon class="fil0" points="26.7746,35.4911 25.3401,62.1583 31.9373,61.0357 35.3929,59.647 37.0722,48.7312 38.6224,39.2364 39.4298,33.4879 39.7204,32.1961 34.1657,34.4245 "/>
  <path class="fil1 str0" d="M3.02255 32.0365c1.0387,7.12253 1.81067,13.8893 2.7158,20.8338m0.376061 2.83232c0.187548,1.3859 0.382928,2.78178 0.588501,4.19139 9.49037,3.05752 19.086,3.05752 28.7873,0 1.38472,-9.34832 2.77556,-18.2753 4.16039,-27.6236"/>
  <path class="fil1 str0" d="M6.50881 36.9611c0.456316,0.0957052 1.09138,0.223384 1.55553,0.30793m1.63579 0.261902c6.36912,0.950185 13.4277,0.946859 20.9383,0.316943"/>
  <ellipse class="fil2 str0" cx="21.3677" cy="30.9236" rx="18.9986" ry="4.64009"/>
  <path class="fil3" d="M25.3456 34.9811l0 -12.4595c0,-1.97859 -1.61894,-3.59731 -3.59731,-3.59731l-3.06589 0c-1.79844,0 -3.26524,1.47184 -3.27029,3.27029l-0.0363723 12.6559c3.21782,0.283038 6.67962,0.317372 9.96986,0.130575z"/>
  <path class="fil4" d="M20.2097 19.8645l0.638821 0c1.73138,0 3.15258,1.26938 3.14808,2.82062l-0.0363723 12.3611c-2.39853,0.0898041 -4.85521,0.0628736 -7.21641,-0.0910916l0.180896 -9.75775c0.302029,0.170166 0.650516,0.267481 1.02186,0.267481 1.15125,0 2.08481,-0.933555 2.08481,-2.08481 0,-1.15125 -0.933555,-2.08481 -2.08481,-2.08481 -0.212332,0 -0.417369,0.031866 -0.610389,0.090877 0.561785,-0.905337 1.64115,-1.52163 2.87352,-1.52163z"/>
  <path class="fil4" d="M17.7013 22.5625c0.51919,0 0.940207,0.421017 0.940207,0.940207 0,0.51919 -0.421017,0.940207 -0.940207,0.940207 -0.51919,0 -0.940207,-0.421017 -0.940207,-0.940207 0,-0.51919 0.421017,-0.940207 0.940207,-0.940207z"/>
  <polygon class="fil3" points="17.9465,19.0469 22.3206,19.0469 22.3206,3.79924 17.9465,3.79924 "/>
  <polygon class="fil4" points="19.132,8.17325 20.9716,8.17325 20.9716,18.2703 19.132,18.2703 "/>
  <path class="fil5" d="M15.9435 1.5918l3.80171 0c1.41648,0 2.57535,0.953297 2.57535,2.36956l0 1.80005c0,1.75349 -1.43504,3.18853 -3.18853,3.18853l-3.18853 0c-2.05283,-1.63321 -2.03899,-5.86259 0,-7.35814z"/>
  <path class="fil2" d="M16.3114 7.23304c0.260292,0 0.520585,0 0.780984,0 -0.45299,-1.9508 0.236581,-2.84562 0.836669,-2.68178 0.725836,0.197955 0.688498,1.29363 0.625946,1.86614 -0.0467797,0.42842 -0.158579,0.835167 -0.322308,1.22443 2.81933,-0.0924864 3.3176,-3.73744 1.18548,-4.49664 -0.845897,0 -1.69169,0 -2.53748,0 -0.759848,0.291836 -0.721437,2.08288 -0.569296,4.08786z"/>
  <path class="fil3" d="M29.3536 21.1652l-2.52986 13.7161 0.0752123 -0.00590111 0.0752123 -0.0060084c0.175209,-0.0141627 0.349667,-0.0288618 0.523482,-0.0443119l0.0744612 -0.00665215 0.0742466 -0.00675945c0.173278,-0.015772 0.345697,-0.0321878 0.517366,-0.0491401l0.0734956 -0.0074032 0.0733883 -0.0074032 0.073281 -0.0074032c0.146455,-0.015021 0.292266,-0.0306857 0.437326,-0.0465651l0.0724227 -0.00804696 0.0723154 -0.00815425 0.0723154 -0.00815425c0.168342,-0.0192054 0.335827,-0.0389473 0.50213,-0.0593329l0.0712424 -0.00879801 0.0711351 -0.00879801 0.0710278 -0.0090126c0.139481,-0.017596 0.27821,-0.0357285 0.416082,-0.0541829l0.227353 -0.0311149c0.12843,-0.0178106 0.256323,-0.0359431 0.383143,-0.0545048 0.104718,-0.0153429 0.208899,-0.0309003 0.312651,-0.0467797 0.107722,-0.0165231 0.215015,-0.0331535 0.321664,-0.050213l2.966 -14.8131 -5.0271 1.6316z"/>
  <path class="fil4" d="M30.9852 21.5621l-2.72631 13.1909 0.0297201 -0.0030042 0.0297201 -0.0030042 0.0296128 -0.0030042 0.0296128 -0.0030042c0.148279,-0.0152356 0.295914,-0.0309003 0.44269,-0.0471015l0.0292909 -0.00321878 0.0293982 -0.00321878 0.0292909 -0.00332608 0.0292909 -0.00321878 0.0292909 -0.00332608 0.0584746 -0.00654486 0.0291836 -0.00332608 0.0291836 -0.00332608 0.000643757 -0.000107293c0.11652,-0.0133043 0.232718,-0.0269305 0.348273,-0.0408786l0.0288618 -0.00354066 0.0289691 -0.00354066 0.0288618 -0.00354066 0.0288618 -0.00354066 0.23025 -0.0286472 0.0286472 -0.00364796 0.312437 -0.0407713 0.0015021 -0.000214586 2.31946 -13.1943 -1.45521 0.220487z"/>
  <path class="fil5" d="M34.3864 19.2186l1.17196 -6.98605c0.29409,-1.75263 -0.899328,-3.42725 -2.65206,-3.72124l-4.12788 -0.692575c-0.338509,-0.0567579 -0.661889,0.173707 -0.718647,0.512216l-2.0258 12.0748c-0.0659851,0.393443 0.201925,0.76929 0.595368,0.835275l3.98185 0.668112c1.77816,0.298274 3.47693,-0.912418 3.77521,-2.69058z"/>
  <path class="fil2" d="M33.1011 18.2298l0.866068 -5.65583c0.217268,-1.41895 -0.312008,-2.7747 -1.60714,-3.01268l-3.05066 -0.560712c-0.249992,-0.0460286 -0.490435,0.140554 -0.531099,0.414687l-0.170488 1.14632c0.067058,-0.00997823 0.136155,-0.011373 0.206324,-0.00321878l1.88438 0.221452c0.469406,0.0552558 0.812314,0.521014 0.761994,1.03516l0 0.000107293c-0.0503203,0.514362 -0.475629,0.889887 -0.944928,0.834738l-1.8846 -0.221452c-0.102679,-0.0121241 -0.19935,-0.0437755 -0.287223,-0.0914135l-0.222096 1.4933c0.106971,-0.0357285 0.221882,-0.0490328 0.339689,-0.0350848l1.88438 0.221238c0.469406,0.0552558 0.812314,0.521014 0.761994,1.03538l0 0.000107293c-0.0503203,0.514147 -0.475629,0.889887 -0.944928,0.834631l-1.8846 -0.221452c-0.150854,-0.0178106 -0.288618,-0.0780019 -0.404387,-0.16845l-0.21641 1.455c0.0879801,-0.021244 0.180467,-0.027467 0.274777,-0.0165231l1.88438 0.221452c0.469406,0.0552558 0.812314,0.521014 0.761994,1.03527l0 0.000107293c-0.0503203,0.514254 -0.475629,0.889994 -0.944928,0.834631l-1.8846 -0.221452c-0.127142,-0.0149137 -0.245057,-0.0601913 -0.348273,-0.128l-0.119524 0.803731c-0.0473161,0.31866 0.149244,0.622942 0.440008,0.676374l2.94272 0.540863c1.31402,0.241302 2.21667,-1.02851 2.43716,-2.46827z"/>
  <path class="fil3" d="M34.6579 33.6937l5.66688 -15.8709 5.33578 -1.7198 -5.95904 15.2944c-0.862956,0.925937 -2.66998,1.69941 -5.04362,2.29628z"/>
  <path class="fil4" d="M36.1136 33.2817l5.49007 -14.6651 1.80799 0.132292 -5.21969 13.7061c-0.589359,0.298596 -1.28762,0.574875 -2.07837,0.826691z"/>
  <path class="fil5" d="M45.4934 16.5751l2.10734 -6.76288c0.528739,-1.69673 -0.426918,-3.51749 -2.12365,-4.04623l-3.99601 -1.24524c-0.32778,-0.102143 -0.679378,0.0824009 -0.781414,0.41018l-3.64248 11.6892c-0.118666,0.380782 0.0958125,0.789568 0.476702,0.908234l3.85471 1.20114c1.7213,0.536357 3.56845,-0.433034 4.10481,-2.15444z"/>
  <path class="fil2" d="M44.3733 15.5121l1.55736 -5.48009c0.390653,-1.37474 0.0339045,-2.79787 -1.21992,-3.22619l-2.95323 -1.00898c-0.241945,-0.0827228 -0.503311,0.0665215 -0.57745,0.332286l-0.310613 1.11145c0.0677018,0.000107293 0.136262,0.0089053 0.204822,0.0275743l1.83964 0.499234c0.458248,0.12446 0.740428,0.637319 0.626912,1.13977l0 0.000107293c-0.113409,0.50256 -0.581205,0.811885 -1.03935,0.687425l-1.83986 -0.499448c-0.100211,-0.0272524 -0.192161,-0.0730664 -0.273275,-0.133365l-0.404709 1.44792c0.110404,-0.0196346 0.225959,-0.0156648 0.340869,0.0155575l1.83975 0.499341c0.458248,0.12446 0.74032,0.637319 0.626912,1.13977l0 0.000107293c-0.113409,0.502452 -0.581205,0.811777 -1.03945,0.687318l-1.83986 -0.499448c-0.147206,-0.0400202 -0.276279,-0.120168 -0.379817,-0.227032l-0.394301 1.41069c0.0898041,-0.00804696 0.182183,-0.000429171 0.274348,0.0244628l1.83964 0.499341c0.458248,0.12446 0.740428,0.637319 0.626912,1.13977l0 0.000107293c-0.113409,0.502452 -0.581205,0.811885 -1.03935,0.687425l-1.83986 -0.499555c-0.124138,-0.0336899 -0.2354,-0.0960271 -0.329282,-0.17875l-0.217804 0.779375c-0.0862634,0.309003 0.0709206,0.640002 0.35235,0.736029l2.84873 0.973253c1.27206,0.434429 2.32343,-0.690644 2.71987,-2.08545z"/>
  <path class="fil3" d="M1.73096 30.642l-1.47184 -8.40403c-0.341298,-1.94897 0.974112,-3.82263 2.92287,-4.16393l3.01997 -0.528846c1.77151,-0.310184 3.47532,0.885702 3.7854,2.65711l2.50121 14.2926c-4.91723,-0.375954 -8.99393,-1.93588 -10.7576,-3.85289z"/>
  <path class="fil4" d="M4.85972 18.7347l-0.629272 0.11019c-1.70531,0.298489 -2.87781,1.79265 -2.6143,3.32136l1.6742 9.71397c1.80542,1.25962 4.58741,2.09672 7.71575,2.47503l-1.99071 -10.9343c-0.268125,0.219736 -0.594617,0.375739 -0.960378,0.439793 -1.13398,0.198599 -2.21463,-0.559961 -2.41323,-1.69394 -0.198599,-1.13398 0.559961,-2.21463 1.69394,-2.41323 0.209114,-0.0365869 0.416618,-0.0405567 0.616934,-0.015772 -0.709527,-0.794825 -1.87902,-1.21573 -3.09293,-1.00308z"/>
  <path class="fil4" d="M7.7959 20.9595c-0.511358,0.0895895 -0.853514,0.576914 -0.763925,1.08827 0.0895895,0.511465 0.576914,0.853514 1.08827,0.763925 0.511358,-0.0895895 0.853514,-0.576914 0.764032,-1.08827 -0.0895895,-0.511465 -0.576914,-0.853514 -1.08838,-0.763925z"/>
  <rect class="fil3" transform="matrix(-0.985009 0.172502 0.172502 0.985009 4.31762 2.51997)" width="4.37401" height="15.2477"/>
  <rect class="fil4" transform="matrix(-0.985009 0.172502 0.172502 0.985009 3.90442 7.0328)" width="1.83954" height="10.097"/>
  <path class="fil5" d="M5.9098 -4.7011e-016l-3.74463 0.655774c-1.39534,0.244306 -2.37235,1.38322 -2.12805,2.77835l0.310505 1.77301c0.302458,1.7272 1.96357,2.89315 3.69077,2.59069l3.14078 -0.549983c1.74029,-1.96292 0.997072,-6.12642 -1.26938,-7.24784z"/>
  <path class="fil2" d="M6.52061 5.62011c-0.25643,0.0449557 -0.51286,0.0898041 -0.76929,0.13476 0.109653,-1.99972 -0.723905,-2.76215 -1.28676,-2.49724 -0.680773,0.320162 -0.455029,1.39298 -0.294626,1.94608 0.119953,0.413936 0.300205,0.795362 0.528632,1.1505 -2.79294,0.395267 -3.91254,-3.10913 -1.94339,-4.22476 0.833236,-0.145918 1.66636,-0.291836 2.49949,-0.437647 0.798795,0.156326 1.06992,1.92719 1.26595,3.92831z"/>
 </g>
</svg>
