<?xml version="1.0" encoding="UTF-8"?>
<!DOCTYPE svg PUBLIC "-//W3C//DTD SVG 1.1//EN" "http://www.w3.org/Graphics/SVG/1.1/DTD/svg11.dtd">
<!-- Creator: CorelDRAW -->
<svg xmlns="http://www.w3.org/2000/svg" xml:space="preserve" width="59.875mm" height="56.2359mm" style="shape-rendering:geometricPrecision; text-rendering:geometricPrecision; image-rendering:optimizeQuality; fill-rule:evenodd; clip-rule:evenodd"
viewBox="0 0 7.82405 7.34851"
 xmlns:xlink="http://www.w3.org/1999/xlink">
 <defs>
  <style type="text/css">
   <![CDATA[
    .str1 {stroke:#3F4446;stroke-width:0.138291}
    .str0 {stroke:#C9CCCE;stroke-width:0.138291}
    .str2 {stroke:#C9CCCE;stroke-width:0.138291;stroke-linecap:round;stroke-linejoin:round}
    .fil0 {fill:none}
    .fil1 {fill:#D9DBDD}
    .fil2 {fill:#C9CCCE;fill-rule:nonzero}
   ]]>
  </style>
 </defs>
 <g id="Layer_x0020_1">
  <metadata id="CorelCorpID_0Corel-Layer"/>
  <line class="fil0 str0" x1="2.61785" y1="5.22601" x2="2.61785" y2= "7.21016" />
  <rect class="fil0 str0" x="0.894169" y="0.500138" width="6.03572" height="6.77922"/>
  <rect class="fil1" x="0.959832" y="0.500138" width="5.90439" height="0.305422"/>
  <rect class="fil1 str0" x="0.6251" y="0.0691522" width="6.57385" height="0.436317" rx="0.218159" ry="0.218159"/>
  <rect class="fil0 str1" x="0.894169" y="2.79984" width="6.03572" height="2.42883"/>
  <line class="fil0 str2" x1="0.0691522" y1="7.27934" x2="7.75489" y2= "7.27934" />
  <rect class="fil1" x="1.93512" y="0.985497" width="0.834412" height="1.25415" rx="0.101141" ry="0.101141"/>
  <path class="fil2" d="M2.03626 0.916344l0.632131 0c0.0456571,0 0.0876424,0.0179022 0.118429,0.0467156 0.0319888,0.0299372 0.0518641,0.0713867 0.0518641,0.117096l0 1.06484c0,0.0457094 -0.0198754,0.0871458 -0.0518641,0.117083 -0.0307866,0.0288134 -0.0727718,0.0467156 -0.118429,0.0467156l-0.632131 0c-0.0456571,0 -0.0876424,-0.0179022 -0.118429,-0.0467156 -0.0319888,-0.0299372 -0.0518641,-0.0713736 -0.0518641,-0.117083l0 -1.06484c0,-0.0457094 0.0198754,-0.0871589 0.0518641,-0.117096 0.0307866,-0.0288134 0.0727718,-0.0467156 0.118429,-0.0467156zm0.632131 0.138304l-0.632131 0c-0.00993115,0 -0.0185556,0.00341057 -0.0244228,0.00889883 -0.00466503,0.00436448 -0.00756597,0.0102578 -0.00756597,0.0166085l0 1.06484c0,0.00635071 0.00291401,0.0122441 0.00756597,0.0165955 0.00586722,0.00548827 0.0144916,0.00889883 0.0244228,0.00889883l0.632131 0c0.00994422,0 0.0185686,-0.00342363 0.0244228,-0.00889883 0.00465196,-0.00435141 0.00756597,-0.0102448 0.00756597,-0.0165955l0 -1.06484c0,-0.00635071 -0.00290094,-0.0122441 -0.00756597,-0.0166085 -0.00585415,-0.0054752 -0.0144786,-0.00889883 -0.0244228,-0.00889883z"/>
  <rect class="fil1" x="3.49482" y="0.985497" width="0.834412" height="1.25415" rx="0.101141" ry="0.101141"/>
  <path class="fil2" d="M3.59596 0.916344l0.632131 0c0.0456571,0 0.0876424,0.0179022 0.118429,0.0467156 0.0319888,0.0299372 0.0518641,0.0713867 0.0518641,0.117096l0 1.06484c0,0.0457094 -0.0198754,0.0871458 -0.0518641,0.117083 -0.0307866,0.0288134 -0.0727718,0.0467156 -0.118429,0.0467156l-0.632131 0c-0.0456571,0 -0.0876424,-0.0179022 -0.118429,-0.0467156 -0.0319888,-0.0299372 -0.0518641,-0.0713736 -0.0518641,-0.117083l0 -1.06484c0,-0.0457094 0.0198754,-0.0871589 0.0518641,-0.117096 0.0307866,-0.0288134 0.0727718,-0.0467156 0.118429,-0.0467156zm0.632131 0.138304l-0.632131 0c-0.00993115,0 -0.0185556,0.00341057 -0.0244228,0.00889883 -0.00466503,0.00436448 -0.00756597,0.0102578 -0.00756597,0.0166085l0 1.06484c0,0.00635071 0.00291401,0.0122441 0.00756597,0.0165955 0.00586722,0.00548827 0.0144916,0.00889883 0.0244228,0.00889883l0.632131 0c0.00994422,0 0.0185686,-0.00342363 0.0244228,-0.00889883 0.00465196,-0.00435141 0.00756597,-0.0102448 0.00756597,-0.0165955l0 -1.06484c0,-0.00635071 -0.00290094,-0.0122441 -0.00756597,-0.0166085 -0.00585415,-0.0054752 -0.0144786,-0.00889883 -0.0244228,-0.00889883z"/>
  <rect class="fil1" x="5.05451" y="0.985497" width="0.834412" height="1.25415" rx="0.101141" ry="0.101141"/>
  <path class="fil2" d="M5.15565 0.916344l0.632131 0c0.0456571,0 0.0876424,0.0179022 0.118429,0.0467156 0.0319888,0.0299372 0.0518641,0.0713867 0.0518641,0.117096l0 1.06484c0,0.0457094 -0.0198754,0.0871458 -0.0518641,0.117083 -0.0307866,0.0288134 -0.0727718,0.0467156 -0.118429,0.0467156l-0.632131 0c-0.0456571,0 -0.0876424,-0.0179022 -0.118429,-0.0467156 -0.0319888,-0.0299372 -0.0518641,-0.0713736 -0.0518641,-0.117083l0 -1.06484c0,-0.0457094 0.0198754,-0.0871589 0.0518641,-0.117096 0.0307866,-0.0288134 0.0727718,-0.0467156 0.118429,-0.0467156zm0.632131 0.138304l-0.632131 0c-0.00993115,0 -0.0185556,0.00341057 -0.0244228,0.00889883 -0.00466503,0.00436448 -0.00756597,0.0102578 -0.00756597,0.0166085l0 1.06484c0,0.00635071 0.00291401,0.0122441 0.00756597,0.0165955 0.00586722,0.00548827 0.0144916,0.00889883 0.0244228,0.00889883l0.632131 0c0.00994422,0 0.0185686,-0.00342363 0.0244228,-0.00889883 0.00465196,-0.00435141 0.00756597,-0.0102448 0.00756597,-0.0165955l0 -1.06484c0,-0.00635071 -0.00290094,-0.0122441 -0.00756597,-0.0166085 -0.00585415,-0.0054752 -0.0144786,-0.00889883 -0.0244228,-0.00889883z"/>
  <g id="_100443992">
   <rect id="_100444016" class="fil0 str1" x="1.92331" y="3.38618" width="0.858051" height="1.31389" rx="0.101141" ry="0.101141"/>
  </g>
  <g id="_100443896">
   <rect id="_100443920" class="fil0 str1" x="3.483" y="3.38618" width="0.858051" height="1.31389" rx="0.101141" ry="0.101141"/>
  </g>
  <rect class="fil0 str1" x="5.04268" y="3.38618" width="0.858051" height="1.31389" rx="0.101141" ry="0.101141"/>
  <rect class="fil1" x="4.96725" y="5.69772" width="0.834412" height="1.25415" rx="0.101141" ry="0.101141"/>
  <path class="fil2" d="M5.06839 5.62857l0.632131 0c0.0456571,0 0.0876424,0.0179022 0.118429,0.0467156 0.0319888,0.0299372 0.0518641,0.0713867 0.0518641,0.117096l0 1.06484c0,0.0457094 -0.0198754,0.0871458 -0.0518641,0.117083 -0.0307866,0.0288134 -0.0727718,0.0467156 -0.118429,0.0467156l-0.632131 0c-0.0456571,0 -0.0876424,-0.0179022 -0.118429,-0.0467156 -0.0319888,-0.0299372 -0.0518641,-0.0713736 -0.0518641,-0.117083l0 -1.06484c0,-0.0457094 0.0198754,-0.0871589 0.0518641,-0.117096 0.0307866,-0.0288134 0.0727718,-0.0467156 0.118429,-0.0467156zm0.632131 0.138304l-0.632131 0c-0.00993115,0 -0.0185556,0.00341057 -0.0244228,0.00889883 -0.00466503,0.00436448 -0.00756597,0.0102578 -0.00756597,0.0166085l0 1.06484c0,0.00635071 0.00291401,0.0122441 0.00756597,0.0165955 0.00586722,0.00548827 0.0144916,0.00889883 0.0244228,0.00889883l0.632131 0c0.00994422,0 0.0185686,-0.00342363 0.0244228,-0.00889883 0.00465196,-0.00435141 0.00756597,-0.0102448 0.00756597,-0.0165955l0 -1.06484c0,-0.00635071 -0.00290094,-0.0122441 -0.00756597,-0.0166085 -0.00585415,-0.0054752 -0.0144786,-0.00889883 -0.0244228,-0.00889883z"/>
  <rect class="fil1" x="3.41098" y="5.69772" width="0.834412" height="1.25415" rx="0.101141" ry="0.101141"/>
  <path class="fil2" d="M3.51212 5.62857l0.632131 0c0.0456571,0 0.0876424,0.0179022 0.118429,0.0467156 0.0319888,0.0299372 0.0518641,0.0713867 0.0518641,0.117096l0 1.06484c0,0.0457094 -0.0198754,0.0871458 -0.0518641,0.117083 -0.0307866,0.0288134 -0.0727718,0.0467156 -0.118429,0.0467156l-0.632131 0c-0.0456571,0 -0.0876424,-0.0179022 -0.118429,-0.0467156 -0.0319888,-0.0299372 -0.0518641,-0.0713736 -0.0518641,-0.117083l0 -1.06484c0,-0.0457094 0.0198754,-0.0871589 0.0518641,-0.117096 0.0307866,-0.0288134 0.0727718,-0.0467156 0.118429,-0.0467156zm0.632131 0.138304l-0.632131 0c-0.00993115,0 -0.0185556,0.00341057 -0.0244228,0.00889883 -0.00466503,0.00436448 -0.00756597,0.0102578 -0.00756597,0.0166085l0 1.06484c0,0.00635071 0.00291401,0.0122441 0.00756597,0.0165955 0.00586722,0.00548827 0.0144916,0.00889883 0.0244228,0.00889883l0.632131 0c0.00994422,0 0.0185686,-0.00342363 0.0244228,-0.00889883 0.00465196,-0.00435141 0.00756597,-0.0102448 0.00756597,-0.0165955l0 -1.06484c0,-0.00635071 -0.00290094,-0.0122441 -0.00756597,-0.0166085 -0.00585415,-0.0054752 -0.0144786,-0.00889883 -0.0244228,-0.00889883z"/>
  <path class="fil1" d="M1.55943 6.08464l0.508174 0c0.0432658,0 0.0786521,0.0353863 0.0786521,0.0786521l0 1.06891 -0.665478 0 0 -1.06891c0,-0.0432658 0.0353863,-0.0786521 0.0786521,-0.0786521z"/>
  <path class="fil2" d="M1.55943 6.01549l0.508174 0c0.0406916,0 0.0776851,0.0166216 0.104434,0.0433704 0.0267488,0.0267488 0.0433704,0.0637162 0.0433704,0.104434l0 1.06891 0 0.0691522 -0.0691522 0 -0.665478 0 -0.0691522 0 0 -0.0691522 0 -1.06891c0,-0.0407177 0.0166216,-0.0776851 0.0433704,-0.104434 0.0267488,-0.0267488 0.0637162,-0.0433704 0.104434,-0.0433704zm0.508174 0.138304l-0.508174 0c-0.00254812,0 -0.00492637,0.00109765 -0.00666432,0.0028356 -0.00173795,0.00173795 -0.0028356,0.0041162 -0.0028356,0.00666432l0 0.999753 0.527174 0 0 -0.999753c0,-0.00254812 -0.00109765,-0.00492637 -0.0028356,-0.00666432 -0.00173795,-0.00173795 -0.0041162,-0.0028356 -0.00666432,-0.0028356z"/>
 </g>
</svg>
