<?xml version="1.0" encoding="UTF-8"?>
<!DOCTYPE svg PUBLIC "-//W3C//DTD SVG 1.1//EN" "http://www.w3.org/Graphics/SVG/1.1/DTD/svg11.dtd">
<!-- Creator: CorelDRAW -->
<svg xmlns="http://www.w3.org/2000/svg" xml:space="preserve" width="30.7688mm" height="30.2372mm" style="shape-rendering:geometricPrecision; text-rendering:geometricPrecision; image-rendering:optimizeQuality; fill-rule:evenodd; clip-rule:evenodd"
viewBox="0 0 2.88881 2.8389"
 xmlns:xlink="http://www.w3.org/1999/xlink">
 <defs>
  <style type="text/css">
   <![CDATA[
    .str0 {stroke:#3F4446;stroke-width:0.0993614}
    .str1 {stroke:#B01B69;stroke-width:0.0993614;stroke-linecap:round;stroke-linejoin:round}
    .fil0 {fill:none}
    .fil4 {fill:#DD137B}
    .fil2 {fill:white}
    .fil1 {fill:#3F4446}
    .fil3 {fill:#B01B69}
   ]]>
  </style>
 </defs>
 <g id="Layer_x0020_1">
  <metadata id="CorelCorpID_0Corel-Layer"/>
  <path class="fil0 str0" d="M0.475983 1.3127c0.0290207,0.166191 0.0580414,0.332381 0.0870527,0.498572 0.057863,0.331461 0.103765,0.591005 0.398723,0.808355 0.337883,0.249009 0.808693,0.235752 1.15182,-0.116702 0.231856,-0.238146 0.240578,-0.416007 0.269571,-0.728372 0.0137358,-0.147854 0.0274716,-0.295737 0.0412073,-0.443601 -0.649459,-0.00608393 -1.29892,-0.0121679 -1.94838,-0.0182518z"/>
  <path class="fil1" d="M0.84914 1.51732c0.132842,0.0361186 0.259778,0.0722842 0.39262,0.108403 0.099521,0.0270584 0.0901698,0.0664256 0.0457703,0.16497 -0.027772,0.0616091 -0.0732324,0.116693 -0.126392,0.142315 -0.176424,0.0850247 -0.438888,-0.0803585 -0.474584,-0.281306 -0.00821518,-0.0462303 -0.00682564,-0.0912307 0.0124307,-0.1232 0.0363909,-0.0603792 0.0959627,-0.025913 0.150155,-0.011182z"/>
  <path class="fil2" d="M0.839291 1.63351c0.0460332,0.233236 0.273918,0.251507 0.344606,0.108215 -0.114872,-0.0360717 -0.229743,-0.0721433 -0.344606,-0.108215z"/>
  <path class="fil1" d="M2.1047 1.51732c-0.132842,0.0361186 -0.259778,0.0722842 -0.39262,0.108403 -0.099521,0.0270584 -0.0901698,0.0664256 -0.0457703,0.16497 0.027772,0.0616091 0.0732324,0.116693 0.126392,0.142315 0.176424,0.0850247 0.438888,-0.0803585 0.474584,-0.281306 0.00821518,-0.0462303 0.00682564,-0.0912307 -0.0124307,-0.1232 -0.0363909,-0.0603792 -0.0959627,-0.025913 -0.150155,-0.011182z"/>
  <path class="fil2" d="M2.11455 1.63351c-0.0460332,0.233236 -0.273918,0.251507 -0.344606,0.108215 0.114872,-0.0360717 0.229743,-0.0721433 0.344606,-0.108215z"/>
  <path class="fil0 str0" d="M0.679381 2.19532c0.257431,0.0523236 0.516974,-0.00937939 0.786685,-0.165618 0.302103,0.15452 0.593455,0.225791 0.846492,0.147216"/>
  <path class="fil3" d="M0.468321 0.871222c0.236513,-0.686404 0.523988,-1.12971 0.99352,-0.704862 0.368096,-0.329508 0.692535,-0.171739 0.953242,0.698149 0.655299,0.0894844 0.670659,0.428541 -0.205896,0.544727 -0.544455,0.0721433 -1.16871,0.0785559 -1.70567,-0.0316026 -0.618054,-0.126795 -0.710064,-0.385841 -0.0351985,-0.506412z"/>
  <path class="fil4" d="M0.454896 1.01219c-0.0420993,0.16989 0.0734766,0.208365 0.0950707,0.0335649 0.194657,-0.729254 0.451168,-1.21994 0.925414,-0.695755 0.155074,0.144831 0.285578,-0.00641253 0.107295,-0.0762369 0.332222,-0.386667 0.547854,0.159562 0.765279,0.691436 1.151,0.282142 -0.761467,0.47326 -1.9309,0.264369 -0.0451506,-0.00805557 -0.341545,-0.0453008 -0.249366,-0.140541 0.0506994,-0.0523988 0.203004,-0.0925358 0.287212,-0.0768377z"/>
  <path class="fil0 str1" d="M1.13476 1.09706c0.0723687,0.0114449 0.144728,0.0152568 0.217106,0.00229086"/>
  <path class="fil0 str1" d="M1.54612 1.09935c0.230044,0.00780207 0.447892,-0.00172753 0.653609,-0.0733076"/>
 </g>
</svg>
