<?xml version="1.0" encoding="UTF-8"?>
<!DOCTYPE svg PUBLIC "-//W3C//DTD SVG 1.1//EN" "http://www.w3.org/Graphics/SVG/1.1/DTD/svg11.dtd">
<!-- Creator: CorelDRAW -->
<svg xmlns="http://www.w3.org/2000/svg" xml:space="preserve" 
viewBox="0 0 32.7239 14.099"
 xmlns:xlink="http://www.w3.org/1999/xlink">
 <defs>
  <style type="text/css">
   <![CDATA[
    .str1 {stroke:#3F4446;stroke-width:0.38012}
    .str2 {stroke:#3F4446;stroke-width:0.38012;stroke-linecap:round;stroke-linejoin:round}
    .str0 {stroke:#C9CCCE;stroke-width:0.38012}
    .str3 {stroke:#C9CCCE;stroke-width:0.38012;stroke-linecap:round;stroke-linejoin:round}
    .fil0 {fill:none}
    .fil3 {fill:#DD137B}
    .fil5 {fill:white}
    .fil4 {fill:#3F4446}
    .fil6 {fill:#C9CCCE}
    .fil1 {fill:#D9DBDD}
    .fil2 {fill:#B01B69;fill-rule:nonzero}
   ]]>
  </style>
 </defs>
 <g id="Layer_x0020_1">
  <metadata id="CorelCorpID_0Corel-Layer"/>
  <g id="_100422464">
   <polyline id="_100442600" class="fil0 str0" points="31.4395,4.60167 31.4395,13.8857 22.0261,13.8857 22.0261,4.60167 "/>
   <polygon id="_100442528" class="fil1" points="25.1465,1.53898 16.4853,1.53898 16.4853,4.99393 21.4698,4.99393 "/>
   <polygon id="_100442456" class="fil0 str0" points="25.1465,1.53898 16.4853,1.53898 16.4853,4.99393 21.4698,4.99393 "/>
   <polygon id="_100424024" class="fil1" points="1.44972,5.54114 6.31082,1.19064 10.9367,5.47465 10.9367,4.51306 6.31625,0.245966 1.44972,4.58421 "/>
   <polyline id="_100423952" class="fil0 str1" points="1.47364,4.60167 1.47364,13.8857 10.887,13.8857 10.887,4.50857 "/>
   <line id="_100423880" class="fil0 str0" x1="21.8708" y1="12.0403" x2="16.4566" y2= "12.0403" />
   <polyline id="_100423808" class="fil0 str0" points="22.024,13.8857 16.4566,13.8857 16.4566,4.92306 "/>
   <path id="_100423736" class="fil2" d="M12.1147 5.37293c0.076649,0.0709021 0.0812824,0.190617 0.0103803,0.267266 -0.0709021,0.076649 -0.190617,0.0812824 -0.267266,0.0103803l-5.54904 -5.13889 -5.7445 5.14112c-0.0778702,0.0696809 -0.197585,0.063036 -0.267266,-0.0148341 -0.0696809,-0.0778702 -0.063036,-0.197585 0.0148341,-0.267266l5.8728 -5.25591 7.18359e-005 0.000107754c0.0718,-0.0644368 0.182356,-0.0646883 0.254587,0.00211916l5.6754 5.25591z"/>
   <polygon id="_100423664" class="fil3" points="7.76669,1.53898 16.4279,1.53898 16.4279,4.99393 11.4434,4.99393 "/>
   <circle id="_100423592" class="fil4" cx="6.32314" cy="5.17146" r="1.78817"/>
   <path id="_100423520" class="fil2" d="M7.76669 1.3489l8.66119 0 0.190078 0 0 0.190078 0 3.45495 0 0.190078 -0.190078 0 -4.98452 0 -0.0746375 0 -0.0552778 -0.0519733 -3.67667 -3.45495 -0.349266 -0.328183 0.479182 0zm8.47111 0.380156l-7.99196 0 3.27213 3.07479 4.71984 0 0 -3.07479z"/>
   <path id="_100423448" class="fil5" d="M6.57094 3.88438c0.60529,0.115871 1.06285,0.64814 1.06285,1.28712 0,0.638981 -0.457559,1.17125 -1.06285,1.28712l0 -2.57424zm-0.49556 2.57424c-0.605254,-0.115871 -1.06285,-0.64814 -1.06285,-1.28712 0,-0.638981 0.457595,-1.17125 1.06285,-1.28712l0 2.57424z"/>
   <g>
    <rect id="_100423376" class="fil4" x="12.215" y="6.22595" width="2.72186" height="4.25111" rx="0.400234" ry="0.400234"/>
    <path id="_100423304" class="fil5" d="M12.6837 6.67658l1.82018 0 0 3.35761 -1.82018 0 0 -1.56394 1.29003 0c0.145791,0 0.265075,-0.119284 0.265075,-0.265075l0 0c0,-0.145791 -0.119284,-0.265075 -0.265075,-0.265075l-1.29003 0 0 -1.26352z"/>
   </g>
   <polyline id="_100423208" class="fil0 str2" points="10.8892,13.8857 16.4566,13.8857 16.4566,1.48959 "/>
   <line id="_100423136" class="fil0 str1" x1="11.0423" y1="12.0403" x2="16.4566" y2= "12.0403" />
   <path id="_100423064" class="fil4" d="M5.3364 9.2496l2.03734 0c0.283608,0 0.515602,0.231994 0.515602,0.515602l0 4.14378 -3.07688 0 0 -4.13545c0,-0.28817 0.235766,-0.523935 0.523935,-0.523935z"/>
   <rect id="_100422992" class="fil5" x="5.31733" y="9.72702" width="2.06712" height="3.82868"/>
   <polyline id="_100422920" class="fil0 str0" points="20.9269,5.51176 26.6023,0.255844 32.4751,5.51176 "/>
   <rect id="_100422848" class="fil6" x="17.9763" y="6.22595" width="2.72186" height="4.25111" rx="0.400234" ry="0.400234"/>
   <path id="_100422776" class="fil1" d="M20.2294 6.67658l-1.82018 0 0 2.46983 1.82018 0 0 -2.46983zm-1.82018 2.85049l0 0.507126 1.82018 0 0 -0.507126 -1.82018 0z"/>
   <path id="_100422704" class="fil6" d="M27.5767 9.2496l-2.03734 0c-0.283608,0 -0.515602,0.231994 -0.515602,0.515602l0 4.14378 3.07688 0 0 -4.13545c0,-0.28817 -0.235766,-0.523935 -0.523935,-0.523935z"/>
   <rect id="_100422632" class="fil1" x="25.5287" y="9.72702" width="2.06712" height="3.82868"/>
   <circle id="_100422560" class="fil6" cx="26.59" cy="5.17146" r="1.78817"/>
   <path id="_100422488" class="fil1" d="M26.3422 3.88438c-0.60529,0.115871 -1.06285,0.64814 -1.06285,1.28712 0,0.638981 0.457559,1.17125 1.06285,1.28712l0 -2.57424zm0.49556 2.57424c0.605254,-0.115871 1.06285,-0.64814 1.06285,-1.28712 0,-0.638981 -0.457595,-1.17125 -1.06285,-1.28712l0 2.57424z"/>
  </g>
  <g id="_100420088">
   <line id="_100420184" class="fil0 str2" x1="0.190078" y1="13.9089" x2="16.3982" y2= "13.9089" />
   <line id="_100420112" class="fil0 str3" x1="16.3257" y1="13.9089" x2="32.5338" y2= "13.9089" />
  </g>
 </g>
</svg>
