<?xml version="1.0" encoding="UTF-8"?>
<!DOCTYPE svg PUBLIC "-//W3C//DTD SVG 1.1//EN" "http://www.w3.org/Graphics/SVG/1.1/DTD/svg11.dtd">
<!-- Creator: CorelDRAW -->
<svg xmlns="http://www.w3.org/2000/svg" xml:space="preserve" width="77.8697mm" height="55.5315mm" style="shape-rendering:geometricPrecision; text-rendering:geometricPrecision; image-rendering:optimizeQuality; fill-rule:evenodd; clip-rule:evenodd"
viewBox="0 0 19.3639 13.8091"
 xmlns:xlink="http://www.w3.org/1999/xlink">
 <defs>
  <style type="text/css">
   <![CDATA[
    .str0 {stroke:#3F4446;stroke-width:0.263169}
    .str1 {stroke:#3F4446;stroke-width:0.263169;stroke-linecap:round;stroke-linejoin:round}
    .fil2 {fill:none}
    .fil0 {fill:#DD137B}
    .fil5 {fill:white}
    .fil4 {fill:#3F4446}
    .fil1 {fill:#EEF0F2}
    .fil3 {fill:#B01B69;fill-rule:nonzero}
   ]]>
  </style>
   <clipPath id="id0">
    <path d="M3.31961 3.48212c0.565354,0 1.02383,0.458475 1.02383,1.02383 0,0.565354 -0.458475,1.02383 -1.02383,1.02383 -0.565354,0 -1.02383,-0.458475 -1.02383,-1.02383 0,-0.565354 0.458475,-1.02383 1.02383,-1.02383z"/>
   </clipPath>
 </defs>
 <g id="Layer_x0020_1">
  <metadata id="CorelCorpID_0Corel-Layer"/>
  <rect class="fil0" x="1.70253" y="7.17364" width="6.26184" height="5.01734"/>
  <rect class="fil1" x="11.0232" y="4.62501" width="3.46896" height="2.49914"/>
  <line class="fil2 str0" x1="10.9934" y1="0.135426" x2="10.9934" y2= "7.15516" />
  <polygon class="fil0" points="5.68176,1.61019 5.68176,4.65873 14.4826,4.65873 14.4826,0.141991 10.9519,0.141991 "/>
  <polygon class="fil3" points="5.81336,1.61019 5.81336,4.52713 14.4826,4.52713 14.4826,4.79032 5.68176,4.79032 5.55016,4.79032 5.55016,4.65873 5.55016,1.61019 "/>
  <line class="fil2 str0" x1="14.5382" y1="0.149228" x2="14.5382" y2= "7.1385" />
  <polygon class="fil3" points="8.64077,0.812881 8.64077,4.60663 8.37758,4.60663 8.37758,0.812881 "/>
  <polygon class="fil3" points="11.125,0.135426 11.125,4.60022 10.8618,4.60022 10.8618,0.135426 "/>
  <path class="fil3" d="M12.6522 0.142961c0,-0.0726617 0.058935,-0.131597 0.131597,-0.131597 0.0726617,0 0.131597,0.058935 0.131597,0.131597l0 2.50996c0,0.0726617 -0.058935,0.131597 -0.131597,0.131597 -0.0726617,0 -0.131597,-0.058935 -0.131597,-0.131597l0 -2.50996z"/>
  <path class="fil3" d="M12.9154 4.61755c0,0.0726617 -0.058935,0.131597 -0.131597,0.131597 -0.0726617,0 -0.131597,-0.058935 -0.131597,-0.131597l0 -1.08075c0,-0.0726617 0.058935,-0.131597 0.131597,-0.131597 0.0726617,0 0.131597,0.058935 0.131597,0.131597l0 1.08075z"/>
  <polygon class="fil1" points="15.5402,7.18533 18.1324,7.18533 18.1324,13.6443 15.5402,13.6443 "/>
  <g id="_100339576">
   <rect id="_100339816" class="fil1" x="9.91578" y="7.67531" width="5.34959" height="1.11499"/>
   <rect id="_100339744" class="fil1" x="9.91578" y="9.16987" width="5.34959" height="1.11499"/>
   <rect id="_100339672" class="fil1" x="9.91578" y="10.6644" width="5.34959" height="1.11499"/>
   <rect id="_100339600" class="fil1" x="9.91578" y="12.159" width="5.34959" height="1.11499"/>
  </g>
  <polyline class="fil2 str1" points="0.131323,3.17399 10.9246,0.131597 15.2953,0.131597 "/>
  <polyline class="fil2 str1" points="1.12131,2.88424 1.12131,7.18222 3.43932,7.18222 "/>
  <polyline class="fil2 str1" points="4.35687,7.18217 7.95461,7.18217 7.95461,12.1805 1.16943,12.1805 1.16943,13.6737 "/>
  <line class="fil2 str1" x1="0.493513" y1="13.6775" x2="19.2323" y2= "13.6775" />
  <circle class="fil4" cx="3.31961" cy="4.50594" r="1.30702"/>
  <path class="fil5" d="M3.31961 3.48212c0.565354,0 1.02383,0.458475 1.02383,1.02383 0,0.565354 -0.458475,1.02383 -1.02383,1.02383 -0.565354,0 -1.02383,-0.458475 -1.02383,-1.02383 0,-0.565354 0.458475,-1.02383 1.02383,-1.02383z"/>
  <g style="clip-path:url(#id0)">
   <g id="_99633632">
    <polygon id="_996337761" class="fil1" points="3.66235,3.41943 4.16459,5.30898 4.49498,4.86192 4.21492,3.6205 "/>
    <polygon id="_99633704" class="fil1" points="2.49497,3.67041 3.0223,5.65364 3.46938,5.64217 2.90766,3.34943 "/>
   </g>
  </g>
  <path class="fil2" d="M3.31961 3.48212c0.565354,0 1.02383,0.458475 1.02383,1.02383 0,0.565354 -0.458475,1.02383 -1.02383,1.02383 -0.565354,0 -1.02383,-0.458475 -1.02383,-1.02383 0,-0.565354 0.458475,-1.02383 1.02383,-1.02383z"/>
  <line class="fil2 str1" x1="9.00512" y1="7.186" x2="18.4374" y2= "7.186" />
  <polygon class="fil2 str0" points="15.5402,7.18533 18.1324,7.18533 18.1324,13.6443 15.5402,13.6443 "/>
  <line class="fil2 str1" x1="9.50617" y1="13.6696" x2="9.50617" y2= "7.18533" />
  <path class="fil3" d="M4.35687 7.31376c-0.0726617,0 -0.131597,-0.058935 -0.131597,-0.131597 0,-0.0726617 0.058935,-0.131597 0.131597,-0.131597l3.59775 0c0.0726617,0 0.131597,0.058935 0.131597,0.131597l0 4.99831c0,0.0726617 -0.058935,0.131597 -0.131597,0.131597l-6.25542 0c-0.0726617,0 -0.131597,-0.058935 -0.131597,-0.131597l0 -5.00239c0,-0.0726617 0.058935,-0.131597 0.131597,-0.131597 0.00415281,0 0.00825588,0.000198937 0.0123092,0.000571943l1.74112 0.00681359c0.0723881,0.000273538 0.130826,0.0592086 0.130552,0.131597 -0.000273538,0.0723881 -0.0592086,0.130826 -0.131597,0.130552l-1.62079 -0.00634111 0 4.7392 5.99223 0 0 -4.73512 -3.46615 0z"/>
 </g>
</svg>
