<?xml version="1.0" encoding="UTF-8"?>
<!DOCTYPE svg PUBLIC "-//W3C//DTD SVG 1.1//EN" "http://www.w3.org/Graphics/SVG/1.1/DTD/svg11.dtd">
<!-- Creator: CorelDRAW -->
<svg xmlns="http://www.w3.org/2000/svg" xml:space="preserve" width="63.2983mm" height="52.606mm" style="shape-rendering:geometricPrecision; text-rendering:geometricPrecision; image-rendering:optimizeQuality; fill-rule:evenodd; clip-rule:evenodd"
viewBox="0 0 9.45655 7.85915"
 xmlns:xlink="http://www.w3.org/1999/xlink">
 <defs>
  <style type="text/css">
   <![CDATA[
    .fil1 {fill:#DD137B}
    .fil3 {fill:white}
    .fil2 {fill:#B01B69}
    .fil0 {fill:#B01B69;fill-rule:nonzero}
   ]]>
  </style>
 </defs>
 <g id="Layer_x0020_1">
  <metadata id="CorelCorpID_0Corel-Layer"/>
  <path class="fil0" d="M1.22672 4.53275c-0.400846,-0.0825117 -0.706586,-0.357312 -0.912813,-0.725514 -0.242441,-0.432891 -0.346884,-0.996774 -0.304933,-1.52404 0.054948,-0.690705 0.418863,-1.12906 0.91734,-1.43073 0.487137,-0.294804 1.10111,-0.455585 1.67632,-0.595913 0.71174,-0.173629 1.46092,-0.255065 2.1921,-0.256559 0.77117,-0.00156866 1.52265,0.0857984 2.18939,0.247625 0.247685,0.0601022 0.545477,0.144123 0.845181,0.258307 0.302364,0.115185 0.608432,0.261563 0.870952,0.445949 0.39617,0.278281 0.614513,0.65225 0.70548,1.06517 0.106684,0.484344 0.0367217,1.02101 -0.126673,1.51694 -0.0819589,0.248775 -0.200161,0.456406 -0.362884,0.613318 -0.150398,0.145034 -0.337487,0.245429 -0.567468,0.293504 -0.0188538,0.51996 -0.156971,1.00126 -0.381215,1.42919 -0.252973,0.48273 -0.61532,0.897365 -1.0394,1.22292 -0.706138,0.542085 -1.45457,0.782928 -2.20252,0.765358 -0.788709,-0.0185252 -1.57436,-0.324878 -2.30685,-0.868487 -0.43449,-0.322458 -0.741186,-0.681592 -0.935073,-1.09724l-0.000298793 0c-0.185326,-0.397365 -0.266494,-0.844808 -0.256633,-1.35979z"/>
  <path class="fil1" d="M1.22729 4.02963c-0.0130124,-0.315869 0.188807,-0.402833 0.429605,-0.519586 0.238691,-0.115693 1.02104,-0.459783 1.21325,-0.274561 0.0300436,0.0289531 0.0469553,0.0697981 0.0486136,0.114438 0.0079479,0.212681 -0.223826,0.272634 -0.385443,0.302065 -0.227815,0.0415024 -0.640403,0.157016 -0.930845,0.338622 0.0613422,0.99897 0.221137,1.81281 0.812747,2.31269 -0.122371,-0.573907 -0.0957034,-1.04736 0.143734,-1.37735 0.441631,-0.608612 1.42402,-0.526832 2.08992,-0.524576 1.12443,0.00383949 2.05519,0.17457 2.08375,1.12274 -0.000537828,0.424495 -0.0619996,0.800258 -0.140507,1.16238 0.805486,-0.615081 1.36653,-1.41123 1.25179,-2.70796 -0.241798,-0.14853 -0.555053,-0.168534 -0.822667,-0.251853 -0.13256,-0.0412932 -0.252047,-0.105653 -0.281299,-0.232386 -0.0145363,-0.0630005 0.00261444,-0.124582 0.0464623,-0.167623 0.118486,-0.11629 0.319216,-0.0299689 0.457437,0.00482551 0.409257,0.103009 1.07802,0.277101 1.04714,0.634263 0.407076,-0.239901 0.7069,-0.497341 0.242695,-0.817498 -1.44127,-0.915607 -4.81772,-1.0604 -7.14033,-0.268241 -0.994428,0.383217 -0.841088,0.766419 -0.166054,1.14961z"/>
  <ellipse class="fil2" transform="matrix(1 0.0753425 -0 1 6.02548 3.33902)" rx="0.262684" ry="0.192766"/>
  <path class="fil1" d="M6.28818 6.09371c0.151174,-0.781538 -0.118382,-1.2375 -0.919177,-1.28239 -0.641165,0.0161199 -1.28235,0.0322248 -1.92353,0.0483298 -0.379751,0.0278774 -0.672523,0.192408 -0.724947,0.734613 0.00343612,0.48642 0.105638,0.896603 0.339205,1.20535 0.426273,0.563524 1.28048,0.696756 1.94168,0.620384 0.885996,-0.102352 1.13334,-0.533107 1.28677,-1.32628z"/>
  <circle class="fil2" cx="4.23904" cy="5.86591" r="0.657151"/>
  <circle class="fil3" cx="4.23905" cy="5.86592" r="0.248252"/>
  <path class="fil1" d="M0.598946 2.90557c1.78188,-1.37718 7.05303,-1.17759 8.3155,0 0.0437284,-0.284018 0.0637774,-0.551766 0.0330615,-0.784601 -0.0762221,-0.578045 -0.618621,-0.86656 -1.10198,-1.08696 -1.57661,-0.718911 -4.39335,-0.935566 -6.48976,0.156941 -0.458334,0.238825 -0.863363,0.441646 -0.861316,1.02877 0.000717103,0.203015 0.039605,0.434699 0.104488,0.68585z"/>
 </g>
</svg>
