<?xml version="1.0" encoding="UTF-8"?>
<!DOCTYPE svg PUBLIC "-//W3C//DTD SVG 1.1//EN" "http://www.w3.org/Graphics/SVG/1.1/DTD/svg11.dtd">
<!-- Creator: CorelDRAW -->
<svg xmlns="http://www.w3.org/2000/svg" xml:space="preserve" width="37.6379mm" height="56.968mm" style="shape-rendering:geometricPrecision; text-rendering:geometricPrecision; image-rendering:optimizeQuality; fill-rule:evenodd; clip-rule:evenodd"
viewBox="0 0 3.50922 5.31149"
 xmlns:xlink="http://www.w3.org/1999/xlink">
 <defs>
  <style type="text/css">
   <![CDATA[
    .str0 {stroke:#3F4446;stroke-width:0.098672;stroke-linecap:round;stroke-linejoin:round}
    .fil0 {fill:none}
    .fil2 {fill:#DD137B}
    .fil4 {fill:white}
    .fil3 {fill:#3F4446}
    .fil1 {fill:#B01B69}
   ]]>
  </style>
 </defs>
 <g id="Layer_x0020_1">
  <metadata id="CorelCorpID_0Corel-Layer"/>
  <line class="fil0 str0" x1="0.0988958" y1="2.65949" x2="0.364964" y2= "4.46357" />
  <path class="fil0 str0" d="M0.402194 4.675c0.0129785,0.120657 0.0321945,0.242172 0.0519327,0.364536 0.517136,0.350737 2.4532,0.243459 2.49845,-0.0177615 0.120377,-0.789395 0.211162,-1.5788 0.331549,-2.3682"/>
  <path class="fil0 str0" d="M0.429745 3.08139c0.0448187,0.0108993 0.08974,0.0210901 0.134755,0.0305815m0.135323 0.0264232c0.59027,0.106168 1.19638,0.0978422 1.81189,0.0213138"/>
  <ellipse class="fil0 str0" cx="1.69007" cy="2.56253" rx="1.64073" ry="0.394856"/>
  <path class="fil1" d="M1.41088 2.91098l0 -1.0922c0,-0.171937 -0.140675,-0.312603 -0.312603,-0.312603l-0.266423 0c-0.156292,0 -0.284184,0.127892 -0.284184,0.284184l0 1.00462c0.286124,0.0651443 0.573851,0.0998841 0.86321,0.115995z"/>
  <g id="_100258632">
   <path id="_100258728" class="fil2" d="M0.964577 1.58788l0.0555129 0c0.150456,0 0.273565,0.110299 0.273565,0.245109l0 1.07014c-0.20567,-0.0162418 -0.41051,-0.038805 -0.61454,-0.0799129l0 -0.771913c0.026246,0.0147873 0.0565292,0.0232438 0.0887983,0.0232438 0.100043,0 0.181168,-0.081125 0.181168,-0.181168 0,-0.100043 -0.081125,-0.181168 -0.181168,-0.181168 -0.0184515,0 -0.0362689,0.00276912 -0.0530422,0.00789712 0.0488186,-0.0786728 0.142614,-0.132228 0.249706,-0.132228z"/>
   <path id="_100258656" class="fil2" d="M0.7466 1.82233c0.0451171,0 0.081703,0.036586 0.081703,0.081703 0,0.0451171 -0.036586,0.081703 -0.081703,0.081703 -0.0451171,0 -0.081703,-0.036586 -0.081703,-0.081703 0,-0.0451171 0.036586,-0.081703 0.081703,-0.081703z"/>
  </g>
  <path class="fil1" d="M1.98675 1.80521l-0.207731 1.11284c0.133142,-0.00231226 0.266619,-0.00992035 0.400441,-0.0228429l0.244139 -1.23178 -0.43685 0.141785z"/>
  <polygon class="fil2" points="2.12853,1.8397 1.91011,2.905 2.07105,2.89734 2.25499,1.82054 "/>
  <path class="fil1" d="M2.41118 2.86754l0.453101 -1.27692 0.463674 -0.149449 -0.47186 1.35001c-0.147621,0.0358214 -0.294944,0.0584406 -0.444915,0.0763606z"/>
  <path class="fil2" d="M2.55301 2.8496l0.422398 -1.19 0.157113 0.011496 -0.415237 1.15046c-0.0544221,0.0110019 -0.109963,0.0188058 -0.164273,0.0280455z"/>
  <rect class="fil1" x="0.767913" y="0.191834" width="0.380097" height="1.32501"/>
  <rect class="fil2" x="0.87093" y="0.571921" width="0.159854" height="0.87742"/>
  <path class="fil3" d="M0.59385 -1.63064e-016l0.330364 0c0.123091,0 0.223795,0.0828405 0.223795,0.205913l0 0.156423c0,0.152376 -0.124704,0.27708 -0.27708,0.27708l-0.27708 0c-0.178389,-0.141924 -0.177186,-0.509453 0,-0.639415z"/>
  <path class="fil4" d="M0.625821 0.490218c0.0226191,0 0.0452383,0 0.0678668,0 -0.0393644,-0.169522 0.0205586,-0.247281 0.0727057,-0.233044 0.0630744,0.0172021 0.0598298,0.112415 0.0543941,0.162166 -0.00406511,0.0372293 -0.0137803,0.0725752 -0.0280082,0.106401 0.244997,-0.00803698 0.288296,-0.32478 0.103017,-0.390754 -0.0735076,0 -0.147006,0 -0.220504,0 -0.06603,0.0253603 -0.0626921,0.181 -0.0494712,0.355231z"/>
  <g id="_100257888">
   <path id="_100257984" class="fil3" d="M2.42409 1.63606l0.101842 -0.607081c0.0255561,-0.152302 -0.0781507,-0.297825 -0.230462,-0.323372l-0.358708 -0.0601841c-0.0294161,-0.0049322 -0.0575175,0.015095 -0.0624497,0.044511l-0.17604 1.04929c-0.00573404,0.0341898 0.0175471,0.0668505 0.0517369,0.0725845l0.346019 0.0580583c0.154521,0.0259197 0.302142,-0.0792882 0.328061,-0.233809z"/>
   <path id="_100257912" class="fil4" d="M2.3124 1.55014l0.0752604 -0.491496c0.0188804,-0.123305 -0.0271131,-0.241119 -0.139659,-0.261808l-0.265099 -0.048716c-0.0217241,-0.00399984 -0.0426183,0.012214 -0.046152,0.0360359l-0.0148153 0.0996137c0.00582727,-0.000867098 0.0118317,-0.000988306 0.0179294,-0.000279709l0.163751 0.0192347c0.0407909,0.00480167 0.0705893,0.0452849 0.0662165,0.0899731l0 9.32364e-006c-0.00437279,0.0446789 -0.0413317,0.0773302 -0.0821133,0.0725286l-0.16377 -0.019244c-0.00892272,-0.00105357 -0.0173233,-0.00381337 -0.0249594,-0.00794374l-0.0192999 0.129766c0.00929567,-0.00310477 0.0192813,-0.0042609 0.0295186,-0.00305815l0.163751 0.0192347c0.0407909,0.00480167 0.0705893,0.0452849 0.0662165,0.0899638l0 1.86473e-005c-0.00437279,0.0446789 -0.0413317,0.0773302 -0.0821133,0.0725286l-0.16377 -0.019244c-0.013109,-0.00154772 -0.0250806,-0.00676896 -0.0351408,-0.0146381l-0.0188058 0.126438c0.00764538,-0.00184608 0.0156824,-0.00238685 0.0238778,-0.00142652l0.163751 0.0192347c0.0407909,0.00480167 0.0705893,0.0452756 0.0662165,0.0899638l0 9.32364e-006c-0.00437279,0.0446882 -0.0413317,0.0773302 -0.0821133,0.0725286l-0.16377 -0.019244c-0.0110485,-0.00129599 -0.0212952,-0.00523056 -0.0302645,-0.0111324l-0.0103865 0.0698527c-0.00411172,0.0276912 0.0129692,0.0541424 0.0382362,0.0587762l0.255719 0.0469911c0.114187,0.0209689 0.192626,-0.0893671 0.211786,-0.214472z"/>
  </g>
  <g id="_100257720">
   <path id="_100257816" class="fil3" d="M3.31342 1.4822l0.183126 -0.587687c0.0459469,-0.147444 -0.0370988,-0.305666 -0.184543,-0.351613l-0.34725 -0.10821c-0.0284837,-0.0088761 -0.0590373,0.00716055 -0.067904,0.0356443l-0.316528 1.01578c-0.0103119,0.0330896 0.00832601,0.0686126 0.0414249,0.0789246l0.33497 0.104378c0.149579,0.0466089 0.310095,-0.0376302 0.356704,-0.187219z"/>
   <path id="_100257744" class="fil4" d="M3.21609 1.38982l0.135333 -0.476214c0.0339474,-0.119464 0.00294627,-0.243132 -0.10601,-0.280352l-0.256633 -0.0876795c-0.0210248,-0.00718852 -0.0437372,0.00578065 -0.0501798,0.0288753l-0.0269919 0.0965836c0.00588321,9.32364e-006 0.011841,0.000773862 0.0177988,0.00239617l0.159863 0.0433829c0.0398213,0.0108154 0.0643424,0.0553824 0.054478,0.099045l0 9.32364e-006c-0.00985508,0.0436719 -0.0505061,0.070552 -0.0903181,0.0597365l-0.159882 -0.0434015c-0.00870828,-0.0023682 -0.0166986,-0.0063494 -0.0237473,-0.0115893l-0.0351688 0.125822c0.00959402,-0.00170623 0.0196356,-0.00136125 0.0296212,0.00135193l0.159872 0.0433922c0.0398213,0.0108154 0.0643331,0.0553824 0.054478,0.099045l0 9.32364e-006c-0.00985508,0.0436626 -0.0505061,0.0705426 -0.0903274,0.0597272l-0.159882 -0.0434015c-0.012792,-0.00347772 -0.0240084,-0.0104425 -0.0330057,-0.0197288l-0.0342644 0.122587c0.00780388,-0.000699273 0.0158315,-3.72945e-005 0.0238405,0.00212579l0.159863 0.0433922c0.0398213,0.0108154 0.0643424,0.0553824 0.054478,0.099045l0 9.32364e-006c-0.00985508,0.0436626 -0.0505061,0.070552 -0.0903181,0.0597365l-0.159882 -0.0434109c-0.0107874,-0.00292762 -0.0204561,-0.00834466 -0.0286142,-0.0155332l-0.018927 0.0677269c-0.0074962,0.0268521 0.00616292,0.0556155 0.0306188,0.0639601l0.247552 0.0845747c0.110541,0.0377514 0.201903,-0.0600163 0.236354,-0.181224z"/>
  </g>
 </g>
</svg>
