<?xml version="1.0" encoding="UTF-8"?>
<!DOCTYPE svg PUBLIC "-//W3C//DTD SVG 1.1//EN" "http://www.w3.org/Graphics/SVG/1.1/DTD/svg11.dtd">
<!-- Creator: CorelDRAW -->
<svg xmlns="http://www.w3.org/2000/svg" xml:space="preserve" width="27.8614mm" height="54.3133mm" style="shape-rendering:geometricPrecision; text-rendering:geometricPrecision; image-rendering:optimizeQuality; fill-rule:evenodd; clip-rule:evenodd"
viewBox="0 0 1.42466 2.77724"
 xmlns:xlink="http://www.w3.org/1999/xlink">
 <defs>
  <style type="text/css">
   <![CDATA[
    .str0 {stroke:#3F4446;stroke-width:0.0541148;stroke-linecap:round;stroke-linejoin:round}
    .fil0 {fill:none}
    .fil3 {fill:#DD137B}
    .fil1 {fill:white}
    .fil4 {fill:#3F4446}
    .fil2 {fill:#B01B69}
   ]]>
  </style>
 </defs>
 <g id="Layer_x0020_1">
  <metadata id="CorelCorpID_0Corel-Layer"/>
  <path class="fil0 str0" d="M1.34623 1.46613c-0.0184184,0.164431 -0.0368367,0.308086 -0.0552602,0.472516m-0.0115562 0.103121c-0.0228261,0.203753 -0.0456522,0.407505 -0.0684834,0.611263 -0.232474,0.121381 -0.731401,0.137959 -1.00974,0 -0.0409223,-0.392538 -0.0818446,-0.785076 -0.122772,-1.17761"/>
  <ellipse class="fil0 str0" cx="0.712328" cy="1.39148" rx="0.685268" ry="0.179147"/>
  <ellipse class="fil1" cx="0.712328" cy="1.39148" rx="0.617619" ry="0.135261"/>
  <path class="fil2" d="M0.988087 1.5299l0.147638 -0.405787c0.0331756,-0.0911663 -0.00792061,-0.19326 -0.0979364,-0.229417l-0.139493 -0.0560272c-0.0818293,-0.0328688 -0.176979,0.00669852 -0.208564,0.0890289l-0.232004 0.604774c0.177506,0.0218392 0.354311,0.0216705 0.530359,-0.00257203z"/>
  <path class="fil3" d="M0.950606 0.909362l0.0290644 0.0116687c0.0787766,0.0316467 0.120036,0.115286 0.0916879,0.185871l-0.174064 0.433358c-0.00429523,0.00039373 -0.00859558,0.000767006 -0.0128908,0.00113006l-0.00429523 0.000357936c-0.0128908,0.00106358 -0.0257918,0.00199933 -0.0386929,0.00280213l-0.00430035 0.000265895 -0.00860069 0.00050111 -0.00430035 0.000235215c-0.00716895,0.000388616 -0.0143379,0.000736325 -0.021512,0.00104824l-0.00430035 0.000178968 -0.00430546 0.000173855 -0.0086058 0.000317029 -0.00430546 0.000143174 -0.00861092 0.000260782 -0.00430546 0.000117608 -0.00048577 1.02267e-005 -0.00812515 0.000194308 -0.00430546 9.20407e-005 -0.00430546 8.18139e-005 -0.000460203 5.11337e-006 -0.00616161 9.71541e-005 -0.00702577 8.69273e-005 -0.00778255 7.15872e-005 -0.000102267 0 -0.00431057 2.55669e-005 -0.00042441 0 -0.00819162 2.55669e-005 -0.00431057 -5.11337e-006 -0.00430546 -1.02267e-005 -0.0063099 -3.06802e-005 -0.00675476 -5.62471e-005 -0.00680078 -8.18139e-005 -0.00168741 -2.04535e-005 -0.00431057 -6.64738e-005 -0.000889727 -1.53401e-005 -0.00737859 -0.000138061 -0.00870807 -0.000194308 -0.00481168 -0.000122721 -0.00928588 -0.000271009 -0.00342085 -0.000107381 -0.00431057 -0.000148288 -0.00666272 -0.000245442 -0.00441795 -0.000173855 -0.0104926 -0.000449977 -5.11337e-006 0c-0.0067701,-0.00403445 -0.0152839,-0.00373276 -0.0246413,-0.00127323 -0.0243345,-0.00139595 -0.0486793,-0.00321631 -0.0730343,-0.00546108l0.179628 -0.44764c0.0106358,0.013259 0.0247129,0.0240533 0.0416075,0.0308439 0.0523865,0.0210364 0.111921,-0.00438216 0.132958,-0.0567533 0.0210415,-0.0523865 -0.00437193,-0.111921 -0.0567533,-0.132958 -0.00966427,-0.00388105 -0.019574,-0.00618718 -0.0294377,-0.00702066 0.0421086,-0.0309257 0.102487,-0.0392451 0.158555,-0.0167207z"/>
  <path class="fil3" d="M0.787168 0.986277c0.0236238,0.0094853 0.035088,0.0363356 0.0255975,0.0599594 -0.0094853,0.0236238 -0.0363407,0.0350828 -0.0599594,0.0255975 -0.0236238,-0.0094853 -0.0350931,-0.0363407 -0.0255975,-0.0599594 0.0094853,-0.0236289 0.0363356,-0.035088 0.0599594,-0.0255975z"/>
  <rect class="fil2" transform="matrix(0.954704 0.38346 -0.38346 0.954704 1.14122 0.137045)" width="0.208457" height="0.726677"/>
  <rect class="fil3" transform="matrix(0.954704 0.38346 -0.38346 0.954704 1.11523 0.357719)" width="0.0876688" height="0.481204"/>
  <path class="fil4" d="M1.09043 -5.11337e-006l0.172975 0.0694805c0.0644489,0.0258839 0.0997516,0.0904351 0.0738729,0.154874l-0.0328994 0.0819009c-0.0320455,0.0797839 -0.123565,0.118855 -0.203343,0.0868097l-0.145077 -0.058272c-0.0635541,-0.111824 0.0143635,-0.304005 0.134471,-0.334793z"/>
  <path class="fil1" d="M1.00408 0.263395c0.0118426,0.00475544 0.0236851,0.00951087 0.0355328,0.0142714 0.0150384,-0.0970364 0.0627666,-0.12515 0.0870756,-0.106731 0.029407,0.0222738 0.0076854,0.071444 -0.0056196,0.0963513 -0.00996085,0.0186382 -0.0224784,0.0350982 -0.0370413,0.0498196 0.129967,0.047314 0.219246,-0.109421 0.136113,-0.182931 -0.0384883,-0.0154577 -0.0769716,-0.0309154 -0.115455,-0.0463732 -0.0399047,-0.000608491 -0.0708867,0.0815838 -0.100606,0.175593z"/>
  <path class="fil0 str0" d="M0.722274 1.69934c-0.0304297,0.00275099 -0.0605525,0.00456624 -0.0903635,0.00544574m-0.064766 0.000460203c-0.124899,-0.00195842 -0.244307,-0.0205302 -0.358539,-0.0546159"/>
 </g>
</svg>
