<?xml version="1.0" encoding="UTF-8"?>
<!DOCTYPE svg PUBLIC "-//W3C//DTD SVG 1.1//EN" "http://www.w3.org/Graphics/SVG/1.1/DTD/svg11.dtd">
<!-- Creator: CorelDRAW -->
<svg xmlns="http://www.w3.org/2000/svg" xml:space="preserve" width="27.8614mm" height="56.2183mm" style="shape-rendering:geometricPrecision; text-rendering:geometricPrecision; image-rendering:optimizeQuality; fill-rule:evenodd; clip-rule:evenodd"
viewBox="0 0 19.4739 39.2942"
 xmlns:xlink="http://www.w3.org/1999/xlink">
 <defs>
  <style type="text/css">
   <![CDATA[
    .str0 {stroke:#3F4446;stroke-width:0.739706;stroke-linecap:round;stroke-linejoin:round}
    .fil0 {fill:none}
    .fil1 {fill:white}
    .fil2 {fill:#3F4446}
   ]]>
  </style>
 </defs>
 <g id="Layer_x0020_1">
  <metadata id="CorelCorpID_0Corel-Layer"/>
  <path class="fil0 str0" d="M18.4019 21.3464c-0.251764,2.24764 -0.503529,4.23715 -0.755363,6.48478m-0.157964 1.40959c-0.312014,2.78513 -0.624029,5.57027 -0.936113,8.35547 -3.17774,1.65918 -9.99767,1.88579 -13.8023,0 -0.559375,-5.36568 -1.11875,-10.7314 -1.6782,-16.097"/>
  <ellipse class="fil0 str0" cx="9.73696" cy="20.3519" rx="9.36707" ry="2.4488"/>
  <ellipse class="fil1" cx="9.73696" cy="20.3519" rx="8.44235" ry="1.84891"/>
  <path class="fil0 str0" d="M9.87291 24.5601c-0.415949,0.0376039 -0.827705,0.0624168 -1.2352,0.0744389m-0.885299 0.00629061c-1.70727,-0.02677 -3.33948,-0.280631 -4.90095,-0.746556"/>
  <path class="fil2" d="M9.01661 22.4276l0 -8.79295c0,-1.28895 -1.05473,-2.34346 -2.34346,-2.34346l-1.99727 0c-1.17152,0 -2.13042,0.958899 -2.13042,2.13042l0 8.11615c1.51401,0.526874 4.26406,0.874814 6.47115,0.889842z"/>
  <path class="fil1" d="M5.67085 11.9037l0.416159 0c1.12791,0 2.05081,0.826936 2.05081,1.83749l0 8.67091c-1.59865,-0.0612286 -3.14482,-0.235618 -4.60696,-0.591248l0 -6.44305c0.196756,0.110855 0.423778,0.17425 0.665687,0.17425 0.749981,0 1.35814,-0.608162 1.35814,-1.35814 0,-0.749981 -0.608162,-1.35814 -1.35814,-1.35814 -0.138324,0 -0.271894,0.020759 -0.397637,0.0592016 0.365974,-0.58978 1.06912,-0.991261 1.87195,-0.991261z"/>
  <path class="fil1" d="M4.03676 13.6613c0.338225,0 0.612496,0.274271 0.612496,0.612496 0,0.338225 -0.274271,0.612496 -0.612496,0.612496 -0.338225,0 -0.612496,-0.274271 -0.612496,-0.612496 0,-0.338225 0.274271,-0.612496 0.612496,-0.612496z"/>
  <rect class="fil2" x="4.19654" y="1.4381" width="2.84944" height="9.93309"/>
  <rect class="fil1" x="4.96881" y="4.28747" width="1.19836" height="6.57767"/>
  <path class="fil2" d="M2.89165 4.15033e-016l2.47661 0c0.922763,0 1.67771,0.621023 1.67771,1.54365l0 1.17264c0,1.14231 -0.934855,2.07716 -2.07716,2.07716l-2.07716 0c-1.33731,-1.06395 -1.3283,-3.81917 0,-4.79345z"/>
  <path class="fil1" d="M3.13133 3.67498c0.169567,0 0.339134,0 0.508771,0 -0.2951,-1.27084 0.15412,-1.85377 0.545047,-1.74704 0.472844,0.128958 0.448521,0.842732 0.407771,1.2157 -0.0304745,0.279093 -0.103306,0.544068 -0.209967,0.79765 1.83665,-0.0602501 2.16124,-2.43475 0.772277,-2.92933 -0.551058,0 -1.10205,0 -1.65303,0 -0.495001,0.190116 -0.469979,1.35689 -0.370867,2.66303z"/>
  <path class="fil2" d="M16.3597 21.7176l1.0116 -6.11168c0.210456,-1.27168 -0.657788,-2.48423 -1.92933,-2.69469l-1.9705 -0.326133c-1.1558,-0.191304 -2.26322,0.597329 -2.4497,1.75389l-1.30684 8.10413 0.00957571 0.00300551c0.0722721,0.00279583 0.144474,0.00531207 0.216607,0.00747884l0.108059 0.00307541 0.0097155 0.000279583 0.0982034 0.00223666 0.00552176 6.98957e-005 0.0976443 0.00188718 0.00664009 6.98957e-005 0.10072 0.00153771 0.00950581 0.000139791 0.100161 0.00104844 0.0097155 6.98957e-005c0.0692666,0.000559166 0.138393,0.000698957 0.20745,0.000629061l0.10701 -0.000349478 0.0968754 -0.000768853 0.0154469 -0.000139791 0.0910042 -0.00111833 0.0152373 -0.000209687 0.10051 -0.00174739 0.00335499 -6.98957e-005 0.103585 -0.00223666 0.00279583 -6.98957e-005 0.104145 -0.00272593 0.106172 -0.0032152 0.101279 -0.00363458 0.00573145 -0.000209687 0.0919827 -0.00370447 0.0173341 -0.000698957c0.0678687,-0.00286572 0.135668,-0.00608092 0.203327,-0.00957571l0.0129307 -0.000629061 0.0956173 -0.00524218 0.000349478 0 0.0974346 -0.00566155 0.00775842 -0.00048927 0.105123 -0.00670999c0.0626265,-0.00412385 0.125253,-0.00852727 0.18774,-0.0132103l0.0362759 -0.00272593 0.0898859 -0.00698957 0.00104844 -0.000139791 0.100929 -0.00824769 0.0125812 -0.00111833 0.0948484 -0.00831759 0.103096 -0.00943592 0.00111833 -0.000139791 0.104075 -0.0101349c0.134619,-0.01342 0.268889,-0.0280282 0.402739,-0.0438945l0.0385824 -0.00461312 0.0767455 -0.00936602 0.103166 -0.0130705c0.0998809,-0.0128608 0.199622,-0.0264905 0.299084,-0.0407492l0.021458 -0.00307541 0.0828963 -0.0121618 0.0272593 -0.00405395 0.0776541 -0.0118124 0.00524218 -0.000768853 0.0959668 -0.0149577 0.00629061 -0.00104844c0.132033,-0.0210386 0.263716,-0.0432654 0.394981,-0.0667504l0.0296358 -0.00538197c0.0619975,-0.0111833 0.123925,-0.0225763 0.185783,-0.0343188l0.101209 -0.0195009 0.000209687 0 0.100859 -0.0199902 0.099811 -0.0202697 0.00153771 -0.000279583 0.0963862 -0.0200601 0.00705946 -0.00153771c0.0660514,-0.0139092 0.132033,-0.028168 0.197945,-0.0427063l0.0890471 -0.0198504 0.0112532 -0.00258614c0.0640245,-0.0145383 0.127909,-0.0293562 0.191794,-0.0444537l0.0115328 -0.00272593 0.0813586 -0.0195009 0.0211784 -0.00517228 0.0931011 -0.0228559 0.00132802 -0.000279583c0.0661912,-0.0164255 0.132243,-0.0332005 0.198294,-0.050255l0.0944291 -0.0246033 0.0048228 -0.00132802 0.0991121 -0.0264206 0.012721 -0.00342489 0.0861814 -0.0235548z"/>
  <path class="fil1" d="M14.3531 13.3518l0.410567 0.0680085c1.11281,0.184175 1.8883,1.15062 1.72328,2.14768l-1.0564 6.38218 -0.0754873 0.0168449 -0.151254 0.0327811 -0.0757669 0.0159362 -0.0749282 0.0155168 -0.000908644 0.000209687 -0.0732507 0.0149577 -0.00265604 0.00048927 -0.0760465 0.0150975 -0.00139791 0.000279583 -0.0679386 0.0132802 -0.0226462 0.00433353c-0.243517,0.0469 -0.488291,0.0893966 -0.734394,0.12763l-0.0226462 0.00356468 -0.0692666 0.0105542 -0.00048927 6.98957e-005 -0.0771648 0.0115328 -0.00342489 0.000559166 -0.07374 0.0106241 -0.00153771 0.000209687 -0.0757669 0.010694 -0.0773745 0.010694 -0.0699656 0.00936602 -0.0153072 0.00202697 -0.0668902 0.00873696 -0.00286572 0.000349478 -0.0776541 0.0097854 -0.058992 0.00726915 -0.018732 0.00230656 -0.0674493 0.008038 -0.0103446 0.00118823 -0.0778638 0.00901654 -0.00775842 0.000838748 -0.0702452 0.00782832 -0.077724 0.00845738 -0.000279583 0 -0.0781434 0.0081079 -0.0438246 0.00447332 -0.0139092 0.00132802 -0.0789122 0.00775842 -0.0199203 0.00188718 -0.0097854 0.00097854 -0.032152 0.00293562 -0.0754174 0.00691967 -0.0150975 0.00139791 -0.0243936 0.00216677 -0.0785628 0.00670999 -0.0581532 0.0048228 -0.0205493 0.0016775 -0.0643739 0.00510239 -0.0143286 0.00111833 -0.107779 0.008038 -0.00279583 0.000209687 -0.0915634 0.00636051 -0.0345984 0.00230656 -0.079052 0.00510239 -0.0404696 0.00251624 -0.0386523 0.00230656 -0.0792617 0.00454322 -0.00601103 0.000349478 -0.0733206 0.00391416 -0.0508142 0.00265604 -0.0285873 0.00139791 -0.0794714 0.00370447 -0.0162857 0.000698957 -0.112322 0.00468301 -0.0123016 0.00048927 -0.0183127 0.000698957 -0.079751 0.00293562 -0.0267002 0.000908644 -0.0199902 0.000629061 -0.0858319 0.00258614 -0.0190815 0.000559166 -0.0081778 0.000209687c-0.0749282,0.00209687 -0.149996,0.00377437 -0.225204,0.00510239l-0.0150276 0.000279583 -0.00216677 6.98957e-005 -0.0203396 0.000279583c-0.0727614,0.00118823 -0.145593,0.00209687 -0.218494,0.00258614l-0.0125812 6.98957e-005 -0.00230656 0c-0.129447,0.000768853 -0.0286572,0.000698957 -0.158034,-0.000768853l1.01698 -6.03368c0.175997,0.141469 0.389668,0.24107 0.628292,0.280631 0.739916,0.122457 1.43922,-0.378275 1.56168,-1.11819 0.122457,-0.739916 -0.378206,-1.43922 -1.11812,-1.56168 -0.136436,-0.0225763 -0.271615,-0.0239043 -0.40197,-0.0065003 0.457397,-0.522121 1.21667,-0.803381 2.00866,-0.672327z"/>
  <path class="fil1" d="M12.4539 14.8189c0.333682,0.0552176 0.559515,0.370657 0.504227,0.704339 -0.0552176,0.333682 -0.370587,0.559445 -0.704269,0.504227 -0.333682,-0.0552176 -0.559445,-0.370587 -0.504227,-0.704269 0.0552176,-0.333682 0.370587,-0.559515 0.704269,-0.504297z"/>
  <polygon class="fil2" points="12.9856,12.5856 15.7968,13.0509 17.4188,3.25113 14.6076,2.78583 "/>
  <polygon class="fil1" points="14.9042,5.72313 16.0864,5.91884 15.0123,12.4082 13.8301,12.2125 "/>
  <path class="fil2" d="M13.555 1.15405l2.44334 0.404347c0.910391,0.150695 1.55378,0.886697 1.40316,1.79695l-0.191514 1.15684c-0.186482,1.127 -1.26148,1.89662 -2.38848,1.71014l-2.04927 -0.339204c-1.14559,-1.26805 -0.686795,-3.98482 0.782762,-4.72907z"/>
  <path class="fil1" d="M13.1913 4.81882c0.16733,0.0276787 0.334591,0.0553574 0.501991,0.0830361 -0.0836651,-1.30195 0.454741,-1.80373 0.822952,-1.63458 0.445445,0.204445 0.304955,0.90466 0.203816,1.26595 -0.0756271,0.270426 -0.190745,0.519954 -0.337386,0.752707 1.82183,0.240441 2.5298,-2.0492 1.24023,-2.76396 -0.543649,-0.0899558 -1.08723,-0.179912 -1.63081,-0.269867 -0.519465,0.106731 -0.685257,1.2619 -0.800795,2.56671z"/>
 </g>
</svg>
