<?xml version="1.0" encoding="UTF-8"?>
<!DOCTYPE svg PUBLIC "-//W3C//DTD SVG 1.1//EN" "http://www.w3.org/Graphics/SVG/1.1/DTD/svg11.dtd">
<!-- Creator: CorelDRAW -->
<svg xmlns="http://www.w3.org/2000/svg" xml:space="preserve" width="44.5012mm" height="58.4894mm" style="shape-rendering:geometricPrecision; text-rendering:geometricPrecision; image-rendering:optimizeQuality; fill-rule:evenodd; clip-rule:evenodd"
viewBox="0 0 12.1717 15.9977"
 xmlns:xlink="http://www.w3.org/1999/xlink">
 <defs>
  <style type="text/css">
   <![CDATA[
    .str0 {stroke:#3F4446;stroke-width:0.28946;stroke-linecap:round;stroke-linejoin:round}
    .fil1 {fill:none}
    .fil2 {fill:white}
    .fil3 {fill:#3F4446}
    .fil0 {fill:#EEF0F2}
   ]]>
  </style>
 </defs>
 <g id="Layer_x0020_1">
  <metadata id="CorelCorpID_0Corel-Layer"/>
  <polygon class="fil0" points="6.82547,9.04749 6.45978,15.8456 8.14156,15.5594 9.02247,15.2054 9.45057,12.4227 9.84575,10.0023 10.0516,8.53684 10.1257,8.20753 8.70962,8.77559 "/>
  <path class="fil1 str0" d="M0.770517 8.16683c0.264789,1.8157 0.461583,3.5407 0.692319,5.31102m0.0958667 0.722023c0.0478103,0.353298 0.0976172,0.70914 0.150023,1.06848 2.41932,0.779433 4.86546,0.779433 7.33855,0 0.352997,-2.3831 0.707554,-4.65879 1.06058,-7.0419"/>
  <path class="fil1 str0" d="M1.65925 9.42224c0.116326,0.0243975 0.278219,0.0569457 0.396541,0.0784986m0.417 0.0667648c1.62364,0.242224 3.42303,0.241376 5.33766,0.0807961"/>
  <ellipse class="fil2 str0" cx="5.44712" cy="7.88314" rx="4.84317" ry="1.18287"/>
  <path class="fil3" d="M6.46117 8.91749l0 -3.17621c0,-0.504388 -0.412706,-0.917038 -0.917038,-0.917038l-0.781567 0c-0.458465,0 -0.832386,0.375207 -0.833671,0.833671l-0.00927213 3.22629c0.820296,0.072153 1.70279,0.0809055 2.54155,0.0332867z"/>
  <path class="fil2" d="M5.15191 5.06392l0.16285 0c0.44137,0 0.803667,0.323595 0.802518,0.719042l-0.00927213 3.15113c-0.611441,0.0228931 -1.23771,0.0160279 -1.83963,-0.0232214l0.0461145 -2.48748c0.0769943,0.0433794 0.165832,0.0681871 0.260495,0.0681871 0.293481,0 0.531465,-0.237985 0.531465,-0.531465 0,-0.293481 -0.237985,-0.531465 -0.531465,-0.531465 -0.0541285,0 -0.106397,0.00812337 -0.155602,0.0231667 0.143212,-0.230791 0.418367,-0.387898 0.732526,-0.387898z"/>
  <path class="fil2" d="M4.51246 5.7517c0.132354,0 0.239681,0.107327 0.239681,0.239681 0,0.132354 -0.107327,0.239681 -0.239681,0.239681 -0.132354,0 -0.239681,-0.107327 -0.239681,-0.239681 0,-0.132354 0.107327,-0.239681 0.239681,-0.239681z"/>
  <polygon class="fil3" points="4.57499,4.85551 5.69003,4.85551 5.69003,0.968514 4.57499,0.968514 "/>
  <polygon class="fil2" points="4.8772,2.08355 5.34614,2.08355 5.34614,4.65751 4.8772,4.65751 "/>
  <path class="fil3" d="M4.06437 0.405786l0.969143 0c0.361093,0 0.656516,0.243017 0.656516,0.604056l0 0.458875c0,0.447004 -0.365825,0.81283 -0.81283,0.81283l-0.81283 0c-0.523315,-0.416343 -0.519786,-1.49451 0,-1.87576z"/>
  <path class="fil2" d="M4.15815 1.84387c0.0663545,0 0.132709,0 0.199091,0 -0.115478,-0.497304 0.0603099,-0.725414 0.213286,-0.683649 0.185032,0.0504634 0.175514,0.329776 0.159568,0.475723 -0.0119252,0.109214 -0.0404254,0.212903 -0.0821637,0.312134 0.718713,-0.0235769 0.845733,-0.952759 0.302206,-1.1463 -0.215639,0 -0.43125,0 -0.646861,0 -0.193703,0.0743959 -0.183911,0.530973 -0.145127,1.04209z"/>
  <path class="fil3" d="M7.48291 5.39551l-0.644919 3.49655 0.0191733 -0.00150433 0.0191733 -0.00153168c0.0446649,-0.00361039 0.0891383,-0.00735753 0.133448,-0.0112961l0.0189819 -0.00169579 0.0189272 -0.00172314c0.0441725,-0.00402066 0.0881263,-0.00820543 0.131889,-0.012527l0.0187357 -0.00188725 0.0187084 -0.00188725 0.018681 -0.00188725c0.0373347,-0.0038292 0.0745053,-0.00782251 0.111484,-0.0118705l0.0184622 -0.00205136 0.0184349 -0.00207871 0.0184349 -0.00207871c0.0429144,-0.0048959 0.0856099,-0.00992857 0.128005,-0.0151253l0.0181613 -0.00224282 0.018134 -0.00224282 0.0181066 -0.00229752c0.0355568,-0.00448563 0.0709222,-0.00910802 0.106069,-0.0138125l0.0579577 -0.00793191c0.0327397,-0.00454034 0.0653425,-0.00916273 0.0976719,-0.0138945 0.026695,-0.00391125 0.0532532,-0.00787721 0.079702,-0.0119252 0.0274608,-0.00421212 0.0548122,-0.00845159 0.0819996,-0.0128005l0.756103 -3.77619 -1.28152 0.415933z"/>
  <path class="fil2" d="M7.89884 5.49668l-0.695 3.36267 0.00757634 -0.00076584 0.00757634 -0.00076584 0.00754899 -0.00076584 0.00754899 -0.00076584c0.0377997,-0.0038839 0.0754352,-0.00787721 0.112852,-0.0120073l0.00746694 -0.000820543 0.00749429 -0.000820543 0.00746694 -0.000847894 0.00746694 -0.000820543 0.00746694 -0.000847894 0.0149065 -0.00166844 0.00743959 -0.000847894 0.00743959 -0.000847894 0.000164109 -2.73514e-005c0.0297036,-0.00339158 0.0593252,-0.00686521 0.0887827,-0.0104209l0.00735753 -0.000902597 0.00738488 -0.000902597 0.00735753 -0.000902597 0.00735753 -0.000902597 0.0586962 -0.00730283 0.00730283 -0.000929948 0.0796473 -0.0103935 0.00038292 -5.47028e-005 0.591283 -3.36354 -0.370967 0.0562072z"/>
  <path class="fil3" d="M8.76588 4.89927l0.29876 -1.78091c0.0749702,-0.446785 -0.22926,-0.873686 -0.676072,-0.948629l-1.05229 -0.176553c-0.0862937,-0.0144689 -0.168731,0.044282 -0.1832,0.130576l-0.516422 3.07816c-0.0168211,0.100298 0.0514754,0.19611 0.151773,0.212931l1.01507 0.170317c0.453295,0.076037 0.88635,-0.232596 0.962387,-0.685892z"/>
  <path class="fil2" d="M8.43824 4.6472l0.220781 -1.4418c0.0553866,-0.361723 -0.0795379,-0.707335 -0.409697,-0.768001l-0.777683 -0.142939c-0.0637288,-0.0117338 -0.125023,0.0358304 -0.13539,0.105713l-0.0434614 0.292223c0.0170946,-0.00254368 0.034709,-0.00289925 0.0525968,-0.000820543l0.480373 0.0564533c0.119662,0.014086 0.207078,0.132819 0.19425,0.263887l0 2.73514e-005c-0.0128278,0.131123 -0.121249,0.226853 -0.240884,0.212794l-0.480428 -0.0564533c-0.0261753,-0.00309071 -0.0508189,-0.0111594 -0.0732198,-0.0233034l-0.0566174 0.380677c0.0272694,-0.00910802 0.0565627,-0.0124996 0.0865946,-0.00894391l0.480373 0.0563986c0.119662,0.014086 0.207078,0.132819 0.19425,0.263941l0 2.73514e-005c-0.0128278,0.131068 -0.121249,0.226853 -0.240884,0.212767l-0.480428 -0.0564533c-0.0384561,-0.00454034 -0.0735753,-0.0198845 -0.103088,-0.0429417l-0.0551678 0.370913c0.0224282,-0.00541558 0.0460051,-0.00700196 0.070047,-0.00421212l0.480373 0.0564533c0.119662,0.014086 0.207078,0.132819 0.19425,0.263914l0 2.73514e-005c-0.0128278,0.131095 -0.121249,0.22688 -0.240884,0.212767l-0.480428 -0.0564533c-0.0324114,-0.00380185 -0.0624706,-0.0153441 -0.0887827,-0.0326302l-0.0304695 0.204889c-0.012062,0.0812337 0.0380458,0.158802 0.112168,0.172423l0.750167 0.137879c0.334973,0.0615133 0.56508,-0.262191 0.621288,-0.629219z"/>
  <path class="fil3" d="M8.83511 8.5893l1.44462 -4.04585 1.36021 -0.438416 -1.5191 3.89889c-0.219987,0.236043 -0.68064,0.433219 -1.28574,0.585375z"/>
  <path class="fil2" d="M9.20619 8.48427l1.39954 -3.73847 0.460899 0.0337243 -1.33062 3.49401c-0.150241,0.076119 -0.328244,0.146549 -0.529824,0.210743z"/>
  <path class="fil3" d="M11.5973 4.22538l0.537209 -1.72401c0.134788,-0.432535 -0.108831,-0.896689 -0.541367,-1.03148l-1.01868 -0.317441c-0.0835586,-0.0260386 -0.173189,0.0210059 -0.1992,0.104564l-0.928553 2.97986c-0.0302507,0.0970702 0.0244248,0.201279 0.121522,0.23153l0.982655 0.306199c0.438799,0.13673 0.909681,-0.11039 1.04641,-0.549217z"/>
  <path class="fil2" d="M11.3118 3.95439l0.397006 -1.397c0.0995865,-0.350454 0.00864305,-0.713243 -0.310986,-0.82243l-0.752848 -0.257213c-0.0616775,-0.0210879 -0.128306,0.0169579 -0.147205,0.0847074l-0.0791824 0.283333c0.0172587,2.73514e-005 0.0347363,0.00227017 0.0522139,0.00702932l0.468967 0.127266c0.116818,0.0317276 0.188752,0.162467 0.159814,0.290554l0 2.73514e-005c-0.0289105,0.128114 -0.148163,0.206968 -0.264953,0.175241l-0.469022 -0.127321c-0.0255462,-0.00694726 -0.0489864,-0.0186263 -0.0696641,-0.0339978l-0.10317 0.369107c0.0281446,-0.00500531 0.0576021,-0.00399331 0.0868955,0.00396596l0.468995 0.127294c0.116818,0.0317276 0.188725,0.162467 0.159814,0.290554l0 2.73514e-005c-0.0289105,0.128087 -0.148163,0.206941 -0.264981,0.175213l-0.469022 -0.127321c-0.0375261,-0.0102021 -0.0704299,-0.0306336 -0.096824,-0.0578756l-0.100516 0.359616c0.0228931,-0.00205136 0.0464427,-0.000109406 0.0699376,0.00623612l0.468967 0.127294c0.116818,0.0317276 0.188752,0.162467 0.159814,0.290554l0 2.73514e-005c-0.0289105,0.128087 -0.148163,0.206968 -0.264953,0.175241l-0.469022 -0.127348c-0.0316456,-0.00858835 -0.060009,-0.0244795 -0.0839415,-0.0455675l-0.0555234 0.198681c-0.0219905,0.0787721 0.0180793,0.163151 0.0898221,0.187631l0.726208 0.248105c0.324278,0.110746 0.592295,-0.176061 0.693359,-0.53163z"/>
  <path class="fil3" d="M0.460297 7.88246l-0.394243 -2.2135c-0.0884271,-0.496592 0.248324,-0.974476 0.745107,-1.06148l0.76986 -0.134815c0.451599,-0.079073 0.88594,0.225786 0.964985,0.677358l0.637616 3.64351c-1.25352,-0.0958394 -2.27372,-0.422388 -2.72333,-0.911076z"/>
  <path class="fil2" d="M1.23886 4.77591l-0.160416 0.0280899c-0.434723,0.0760917 -0.73362,0.456988 -0.666445,0.846691l0.426792 2.47632c0.460242,0.321106 1.16944,0.534501 1.96692,0.630943l-0.507478 -2.78741c-0.0683512,0.0560157 -0.151582,0.0957847 -0.244823,0.112113 -0.289077,0.0506275 -0.564561,-0.142747 -0.615188,-0.431824 -0.0506275,-0.289077 0.142747,-0.564561 0.431824,-0.615188 0.0533079,-0.00932683 0.106206,-0.0103388 0.157271,-0.00402066 -0.180875,-0.202619 -0.479005,-0.309919 -0.788459,-0.255708z"/>
  <path class="fil2" d="M1.98735 5.34307c-0.130357,0.0228384 -0.217581,0.147069 -0.194742,0.277425 0.0228384,0.130384 0.147069,0.217581 0.277425,0.194742 0.130357,-0.0228384 0.217581,-0.147069 0.194769,-0.277425 -0.0228384,-0.130384 -0.147069,-0.217581 -0.277453,-0.194742z"/>
  <rect class="fil3" transform="matrix(-0.985009 0.172502 0.172502 0.985009 1.10066 0.642399)" width="1.11504" height="3.88699"/>
  <rect class="fil2" transform="matrix(-0.985009 0.172502 0.172502 0.985009 0.995328 1.79282)" width="0.46894" height="2.57396"/>
  <path class="fil3" d="M1.50654 9.34582e-017l-0.954592 0.167172c-0.355705,0.0622792 -0.604767,0.352615 -0.542488,0.708265l0.079155 0.451982c0.0771037,0.440303 0.500558,0.737531 0.940862,0.660427l0.800658 -0.140203c0.44364,-0.500394 0.254177,-1.56177 -0.323595,-1.84764z"/>
  <path class="fil2" d="M1.66226 1.43269c-0.0653699,0.0114602 -0.13074,0.0228931 -0.19611,0.0343534 0.0279532,-0.509776 -0.18454,-0.704135 -0.328026,-0.636604 -0.173545,0.0816166 -0.115997,0.355104 -0.075107,0.4961 0.0305789,0.105522 0.0765293,0.202756 0.13476,0.293289 -0.711985,0.100763 -0.997397,-0.792589 -0.495416,-1.07699 0.212411,-0.0371979 0.424795,-0.0743959 0.637179,-0.111566 0.203631,0.039851 0.272748,0.491286 0.322719,1.00142z"/>
 </g>
</svg>
