<?xml version="1.0" encoding="UTF-8"?>
<!DOCTYPE svg PUBLIC "-//W3C//DTD SVG 1.1//EN" "http://www.w3.org/Graphics/SVG/1.1/DTD/svg11.dtd">
<!-- Creator: CorelDRAW -->
<svg xmlns="http://www.w3.org/2000/svg" xml:space="preserve"
viewBox="0 0 9.15174 5.15089"
 xmlns:xlink="http://www.w3.org/1999/xlink">
 <defs>
  <style type="text/css">
   <![CDATA[
    .str0 {stroke:#3F4446;stroke-width:0.140807;stroke-linecap:round;stroke-linejoin:round}
    .fil4 {fill:none}
    .fil0 {fill:#DD137B}
    .fil3 {fill:#3F4446}
    .fil2 {fill:#D9DBDD}
    .fil1 {fill:#B01B69;fill-rule:nonzero}
   ]]>
  </style>
 </defs>
 <g id="Layer_x0020_1">
  <metadata id="CorelCorpID_0Corel-Layer"/>
  <path class="fil0" d="M0.268482 1.7834l2.39438 0.0258782 1.37415 -1.25805 -1.91051 0 -1.85803 1.23218zm6.10152 0.0362295l2.47091 -0.0362295 -1.84679 -1.23218 -1.92247 0 1.29834 1.26841z"/>
  <path class="fil1" d="M0.501758 1.71299l2.21035 0 -0.160591 0.14082 -2.28303 0 0 -0.00015966c-0.0227649,-2.661e-005 -0.0450774,-0.0110831 -0.0585819,-0.0314796 -0.0214078,-0.0323445 -0.0125333,-0.075945 0.0198112,-0.0973527l1.85413 -1.22958c0.0118415,-0.0090341 0.0266233,-0.0144226 0.0426692,-0.0144226l1.9908 0 -0.160591 0.14082 -1.80928 0 -1.64568 1.09136zm5.83309 0l2.27411 0 -1.63573 -1.09136 -1.82501 0 -0.153114 -0.14082 1.99902 0 0 0.00023949c0.0134381,-1.3305e-005 0.0270358,0.00383184 0.0390502,0.0118681l1.84183 1.22886c0.0216606,0.0120144 0.0363227,0.0350986 0.0363227,0.0616155 0,0.0388772 -0.0315329,0.0704101 -0.0704101,0.0704101l-2.35295 0 -0.153114 -0.14082z"/>
  <rect class="fil2" x="0.624351" y="1.79868" width="2.13605" height="0.353448"/>
  <polygon class="fil2" points="6.22537,1.72668 6.68164,1.72668 6.68164,1.76524 8.50672,1.76524 8.50672,2.15725 6.68164,2.15725 6.68164,5.08765 6.22537,5.08765 "/>
  <polygon class="fil2" points="2.83571,2.20914 4.56862,0.625641 6.2243,2.23322 6.33698,1.82758 6.44855,1.78331 4.5635,0.0570519 2.67332,1.76794 2.82214,1.79253 "/>
  <ellipse class="fil3" cx="4.56643" cy="1.77754" rx="0.536877" ry="0.551546"/>
  <ellipse class="fil2" cx="4.56643" cy="1.77753" rx="0.366717" ry="0.376737"/>
  <rect class="fil4 str0" x="0.59822" y="1.78315" width="2.21773" height="3.29733"/>
  <rect class="fil3" x="1.18919" y="2.2616" width="1.09104" height="1.5698" rx="0.14271" ry="0.14271"/>
  <rect class="fil2" x="1.35492" y="2.43423" width="0.294626" height="1.22454"/>
  <rect class="fil2" x="1.81987" y="2.43423" width="0.294626" height="1.22454"/>
  <rect class="fil3" x="0.592538" y="4.30844" width="2.22909" height="0.176824"/>
  <rect class="fil3" y="4.97002" width="9.15174" height="0.178074" rx="0.0890371" ry="0.0890371"/>
  <path class="fil3" d="M4.18496 3.08752l0.753862 0c0.106453,0 0.193535,0.0870813 0.193535,0.193535l0 1.7462 -1.14476 0 0 -1.74237c0,-0.108556 0.0888109,-0.197366 0.197366,-0.197366z"/>
  <rect class="fil2" x="4.18063" y="3.2773" width="0.758691" height="1.69204"/>
  <rect class="fil3" x="6.84062" y="2.2616" width="1.09104" height="1.5698" rx="0.14271" ry="0.14271"/>
  <rect class="fil4 str0" x="6.28898" y="1.78315" width="2.21773" height="3.29733"/>
  <polygon class="fil2" points="7.00635,2.43423 7.30098,2.43423 7.30098,3.17963 7.47131,3.17963 7.47131,2.43423 7.76593,2.43423 7.76593,3.65877 7.47131,3.65877 7.47131,3.37681 7.30098,3.37681 7.30098,3.65877 7.00635,3.65877 "/>
  <rect class="fil3" x="6.2833" y="4.30844" width="2.22909" height="0.176824"/>
  <path class="fil1" d="M2.57691 2.03488c-0.0274216,0.0259714 -0.0697981,0.0237494 -0.0946119,-0.00494946 -0.0248271,-0.0286989 -0.0226983,-0.0730445 0.00472328,-0.0990159l2.0241 -1.91281c0.0258915,-0.0245211 0.0651147,-0.0239091 0.0903011,0.00039915l0.00010644 -0.000119745 1.95682 1.8776c0.0272753,0.0262641 0.0290315,0.0707294 0.00393828,0.099282 -0.0250932,0.0285525 -0.0675894,0.0303886 -0.094878,0.00412455l-1.91181 -1.83441 -1.97869 1.8699z"/>
 </g>
</svg>
