<?xml version="1.0" encoding="UTF-8"?>
<!DOCTYPE svg PUBLIC "-//W3C//DTD SVG 1.1//EN" "http://www.w3.org/Graphics/SVG/1.1/DTD/svg11.dtd">
<!-- Creator: CorelDRAW -->
<svg xmlns="http://www.w3.org/2000/svg" xml:space="preserve" width="68.7842mm" height="38.7139mm" style="shape-rendering:geometricPrecision; text-rendering:geometricPrecision; image-rendering:optimizeQuality; fill-rule:evenodd; clip-rule:evenodd"
viewBox="0 0 12.9665 7.29795"
 xmlns:xlink="http://www.w3.org/1999/xlink">
 <defs>
  <style type="text/css">
   <![CDATA[
    .str0 {stroke:#3F4446;stroke-width:0.1995;stroke-linecap:round;stroke-linejoin:round}
    .fil3 {fill:none}
    .fil2 {fill:#3F4446}
    .fil0 {fill:#D9DBDD}
    .fil1 {fill:#3F4446;fill-rule:nonzero}
   ]]>
  </style>
 </defs>
 <g id="Layer_x0020_1">
  <metadata id="CorelCorpID_0Corel-Layer"/>
  <path class="fil0" d="M0.380394 2.52678l3.39244 0.0366652 1.94695 -1.78245 -2.70687 0 -2.63252 1.74579zm8.64483 0.0513312l3.50087 -0.0513312 -2.61659 -1.74579 -2.72382 0 1.83953 1.79712z"/>
  <path class="fil1" d="M0.710908 2.42703l3.13169 0 -0.227531 0.199519 -3.23468 0 0 -0.000226212c-0.032254,-3.7702e-005 -0.0638671,-0.0157029 -0.0830009,-0.0446014 -0.0303312,-0.0458267 -0.0177576,-0.107601 0.0280691,-0.137933l2.627 -1.74211c0.0167774,-0.0127998 0.0377208,-0.0204345 0.0604551,-0.0204345l2.82063 0 -0.227531 0.199519 -2.56345 0 -2.33166 1.54627zm8.26451 0l3.22203 0 -2.31756 -1.54627 -2.58573 0 -0.216937 -0.199519 2.83228 0 0 0.000339318c0.0190395,-1.8851e-005 0.0383052,0.00542908 0.0553276,0.0168151l2.60956 1.7411c0.0306894,0.0170224 0.0514632,0.0497289 0.0514632,0.0872989 0,0.0550826 -0.0446768,0.0997594 -0.0997594,0.0997594l-3.33374 0 -0.216937 -0.199519z"/>
  <rect class="fil0" x="0.884601" y="2.54843" width="3.02643" height="0.500776"/>
  <polygon class="fil0" points="8.82032,2.44642 9.46677,2.44642 9.46677,2.50105 12.0526,2.50105 12.0526,3.05646 9.46677,3.05646 9.46677,7.20835 8.82032,7.20835 "/>
  <polygon class="fil0" points="4.01773,3.12998 6.47297,0.88643 8.81879,3.1641 8.97844,2.58937 9.13652,2.52665 6.46572,0.080833 3.78765,2.50488 3.9985,2.53972 "/>
  <ellipse class="fil2" cx="6.46987" cy="2.51847" rx="0.760665" ry="0.781448"/>
  <ellipse class="fil0" cx="6.46987" cy="2.51847" rx="0.519577" ry="0.533773"/>
  <rect class="fil3 str0" x="0.847578" y="2.52643" width="3.14216" height="4.67176"/>
  <rect class="fil2" x="1.68488" y="3.20431" width="1.54582" height="2.22415" rx="0.202196" ry="0.202196"/>
  <rect class="fil0" x="1.91969" y="3.4489" width="0.417436" height="1.73497"/>
  <rect class="fil0" x="2.57846" y="3.4489" width="0.417436" height="1.73497"/>
  <rect class="fil2" x="0.839528" y="6.10434" width="3.15826" height="0.250529"/>
  <rect class="fil2" y="7.04169" width="12.9665" height="0.252301" rx="0.126151" ry="0.126151"/>
  <path class="fil2" d="M5.92939 4.3745l1.0681 0c0.150827,0 0.274206,0.12338 0.274206,0.274206l0 2.47408 -1.62194 0 0 -2.46865c0,-0.153805 0.12583,-0.279635 0.279635,-0.279635z"/>
  <rect class="fil0" x="5.92326" y="4.64339" width="1.07494" height="2.39734"/>
  <rect class="fil2" x="9.69202" y="3.20431" width="1.54582" height="2.22415" rx="0.202196" ry="0.202196"/>
  <rect class="fil3 str0" x="8.91044" y="2.52643" width="3.14216" height="4.67176"/>
  <polygon class="fil0" points="9.92683,3.4489 10.3443,3.4489 10.3443,4.50501 10.5856,4.50501 10.5856,3.4489 11.003,3.4489 11.003,5.18387 10.5856,5.18387 10.5856,4.78438 10.3443,4.78438 10.3443,5.18387 9.92683,5.18387 "/>
  <rect class="fil2" x="8.90239" y="6.10434" width="3.15826" height="0.250529"/>
  <path class="fil1" d="M3.65106 2.88309c-0.0388519,0.0367971 -0.0988922,0.033649 -0.134049,-0.00701256 -0.0351759,-0.0406616 -0.0321598,-0.103492 0.0066921,-0.140289l2.86782 -2.71013c0.036684,-0.0347424 0.0922567,-0.0338752 0.127942,0.000565529l0.000150808 -0.000169659 2.77249 2.66025c0.0386445,0.0372118 0.0411328,0.100212 0.00557989,0.140666 -0.0355529,0.0404542 -0.095763,0.0430556 -0.134426,0.0058438l-2.70872 -2.59906 -2.80348 2.64934z"/>
 </g>
</svg>
