<?xml version="1.0" encoding="UTF-8"?>
<!DOCTYPE svg PUBLIC "-//W3C//DTD SVG 1.1//EN" "http://www.w3.org/Graphics/SVG/1.1/DTD/svg11.dtd">
<!-- Creator: CorelDRAW -->
<svg xmlns="http://www.w3.org/2000/svg" xml:space="preserve" width="128.49mm" height="21.1826mm" style="shape-rendering:geometricPrecision; text-rendering:geometricPrecision; image-rendering:optimizeQuality; fill-rule:evenodd; clip-rule:evenodd"
viewBox="0 0 29.0526 4.78955"
 xmlns:xlink="http://www.w3.org/1999/xlink">
 <defs>
  <style type="text/css">
   <![CDATA[
    .fil2 {fill:none}
    .fil0 {fill:#DD137B}
    .fil1 {fill:#D9DBDD}
   ]]>
  </style>
   <clipPath id="id0">
    <path d="M24.0297 1.91864c0,0.0667696 0.0570696,0.14896 0.0927268,0.184459 0.0386418,0.0384383 0.0974751,0.103309 0.13779,0.134919 0.036132,0.0283539 0.108984,0.102404 0.14039,0.13675 0.0213672,0.0233569 0.129175,0.117621 0.134059,0.138627 0.0193548,0.00160537 0.15667,0.145342 0.179869,0.168812 0.0492011,0.0498116 0.126666,0.129334 0.177698,0.170983 0.0382801,0.0312255 0.144822,0.138717 0.165941,0.18274 0.0452442,0.0943322 0.0513265,0.165714 0.0189704,0.284127 -0.00578836,0.0211411 -0.00266807,0.0593533 -0.00875037,0.0806979 -0.00673801,0.0235604 -0.0144257,0.0386192 -0.0154658,0.0694829 -0.000271329,0.00865993 -0.0207341,0.144144 -0.0230404,0.151357 -0.0108984,0.0343458 -0.00960958,0.032243 -0.012549,0.0768767 -0.00180886,0.0275173 -0.0137926,0.0460808 -0.0170711,0.0678776 -0.0087956,0.0584715 -0.0137926,0.0986282 -0.0221133,0.152261 -0.00576575,0.0371947 -0.0120289,0.0393428 -0.0145613,0.0748869 -0.00142448,0.0201688 -0.00499698,0.0560974 -0.0120289,0.0729198 -6.78324e-005,0.000180886 -0.027653,0.145161 -0.0278113,0.146586 -0.011328,0.105615 -0.0405185,0.193797 -0.0405185,0.303776 0,0.0235378 0.00185408,0.043978 0.0046126,0.0669279 0.00325595,0.0268616 0.0177495,0.0135665 0.0177495,0.0538137 0.0153075,0.0102653 0.0459677,0.0679906 0.0862601,0.0970229 0.0258215,0.0186087 0.0832755,0.055012 0.123749,0.055012l0.0983343 0c0.0679906,0 0.438988,-0.220433 0.523372,-0.258826 0.0693247,-0.0315194 0.490134,-0.263755 0.517855,-0.264365 0.00764245,-0.0144709 0.0706813,-0.0473244 0.0886795,-0.0543563 0.0282635,-0.0110567 0.0660009,-0.0395463 0.09899,-0.0395463 0.0192192,-0.0287157 0.177314,-0.0288966 0.196646,0 0.0314742,0 0.0949653,0.0371269 0.117893,0.051937 0.0255954,0.0165285 0.0938574,0.03776 0.105547,0.0598507 0.0200332,0.000429605 0.45459,0.230585 0.497686,0.257718 0.0161667,0.0101749 0.0485906,0.0209828 0.0663174,0.0320169 0.0178399,0.0111019 0.0428474,0.0225203 0.0615466,0.0323108 0.0390262,0.0204628 0.0832981,0.04235 0.12246,0.0652773 0.0399533,0.0234022 0.213378,0.117983 0.257446,0.117983l0.102789 0c0.0323786,0 0.0677871,-0.0251658 0.0899457,-0.035205 0.0323334,-0.0146292 0.0468495,-0.0308863 0.0699125,-0.0552381 0.0406994,-0.0429605 0.0680585,-0.0996005 0.0680585,-0.182333 0,-0.0371721 -0.00262285,-0.108125 -0.0120063,-0.135552 -0.0135212,-0.0395237 -0.0101296,-0.0798387 -0.0229273,-0.120154 -0.00551703,-0.0173651 -0.00621797,-0.0455607 -0.00875037,-0.0627901 -0.00486132,-0.0328309 -0.0106271,-0.0394106 -0.0136343,-0.0579288 -0.0035725,-0.0220003 -0.00307507,-0.0435936 -0.00549442,-0.0660461 -0.00226108,-0.0209828 -0.00974525,-0.0241257 -0.0135891,-0.0579514 -0.00954175,-0.0841121 -0.0340745,-0.164991 -0.0397498,-0.250889 -0.00156014,-0.0235378 -0.00936086,-0.0370139 -0.0145387,-0.0570018 -0.004183,-0.0161215 -0.00375339,-0.0472792 -0.0067154,-0.0648251 -0.00723545,-0.0429379 -0.0190157,-0.069189 -0.0190157,-0.124088l-0.0555321 -0.294799 0.00192192 -0.0763566c0,-0.0687594 0.0609813,-0.158456 0.0971133,-0.19348 0.0437293,-0.0423274 0.101658,-0.104168 0.145387,-0.14073 0.0447015,-0.037353 0.106203,-0.098583 0.14593,-0.140164 0.047053,-0.0492237 0.0947392,-0.093586 0.145026,-0.141069 0.0495855,-0.0467817 0.095621,-0.0936539 0.14385,-0.142244 0.0482288,-0.0485906 0.09899,-0.0924555 0.145772,-0.140323 0.0732589,-0.075 0.240488,-0.199314 0.240488,-0.331745l0 -0.0536554c0,-0.0690533 -0.0542207,-0.150995 -0.0925233,-0.184685 -0.0568887,-0.0500151 -0.104032,-0.0639433 -0.197641,-0.075 -0.019287,-0.00228369 -0.0332379,-0.0125264 -0.0582454,-0.0132725 -0.027246,-0.000791377 -0.0371721,-0.00255502 -0.0626997,-0.00434127 -0.0293714,-0.00201236 -0.0690307,-0.0171842 -0.116265,-0.0177947 -0.0382122,-0.000497437 -0.0660913,-0.0173425 -0.120764,-0.0177947 -0.0429153,-0.000339162 -0.062044,-0.0185408 -0.116061,-0.0179982 -0.0509873,0.000497437 -0.0695056,-0.0184052 -0.120629,-0.0179304 -0.0527962,0.000497437 -0.0719927,-0.01836 -0.120651,-0.0178851 -0.0512134,0.000497437 -0.0795674,-0.0179077 -0.120651,-0.0178851 -0.0468269,2.26108e-005 -0.0828911,-0.0162798 -0.116174,-0.0179077 -0.0673123,-0.00327856 -0.177133,-0.0218872 -0.237051,-0.0355668 -0.0560069,-0.0128203 -0.0574992,-0.0087956 -0.101839,-0.0367199 -0.0353859,-0.0222942 -0.0476409,-0.0253919 -0.0755652,-0.0585167 -0.0471887,-0.0559165 -0.0651191,-0.113235 -0.099397,-0.177811 -0.0153301,-0.0288966 -0.0299367,-0.0630163 -0.0475957,-0.0910084 -0.00673801,-0.0107175 -0.0390714,-0.0784142 -0.0434353,-0.0906692 -0.00458999,-0.0128429 -0.0389132,-0.0811953 -0.0463521,-0.0922294 -0.00449955,-0.00664757 -0.0412647,-0.0821902 -0.044091,-0.0900588 -0.0192418,-0.0534519 -0.0649608,-0.131459 -0.0912797,-0.181429 -0.0309994,-0.0588559 -0.0558034,-0.12714 -0.0892674,-0.183464 -0.00820771,-0.0138378 -0.0398628,-0.0796126 -0.0446563,-0.0939478 -0.00056527,-0.00171842 -0.0442719,-0.0888378 -0.0447241,-0.089403 -0.0064893,-0.00843382 -0.0397045,-0.0769219 -0.0464878,-0.0920937 -0.0141996,-0.0317003 -0.0353407,-0.0547633 -0.0563009,-0.0778037 -0.04746,-0.0522083 -0.102404,-0.0717666 -0.2011,-0.0717666 -0.0928173,0 -0.161464,0.021435 -0.203,0.0743443 -0.0235152,0.0299593 -0.039795,0.0463295 -0.0561426,0.0824389 -0.00766506,0.0169355 -0.035725,0.0747739 -0.0455833,0.0885438 -0.000633102,0.000904431 -0.0446111,0.0902396 -0.0455833,0.0930208 -0.004183,0.0116219 -0.0374661,0.0813988 -0.0433449,0.0907823 -0.031022,0.0496307 -0.063378,0.126078 -0.0895387,0.18317 -0.0262511,0.0572957 -0.0696412,0.126281 -0.0925912,0.184594 -0.0226334,0.0574766 -0.0684655,0.124065 -0.0907145,0.182017 -0.0218872,0.0571375 -0.0628806,0.124382 -0.0901944,0.182514 -0.0331022,0.0704326 -0.0538589,0.114885 -0.0994422,0.173289 -0.0785725,0.100641 -0.260544,0.110386 -0.421714,0.128022 -0.0224751,0.00246458 -0.0267712,0.0123907 -0.0583132,0.0132047 -0.020101,0.000497437 -0.0386192,0.00282635 -0.0626545,0.00438649 -0.0317003,0.00203497 -0.0623153,0.0161215 -0.116287,0.0177947 -0.0371043,0.00115315 -0.0646895,0.0173425 -0.120651,0.0178851 -0.04287,0.000406994 -0.0617501,0.0182017 -0.116106,0.017953 -0.0496081,-0.000226108 -0.0673123,0.0173651 -0.120719,0.0178399 -0.0463069,0.000406994 -0.0740277,0.0173877 -0.116106,0.0179756 -0.0684881,0.000972264 -0.169965,0.0281278 -0.236893,0.035725 -0.0993066,0.0112376 -0.133811,0.0252336 -0.193933,0.0787081 -0.0364034,0.0323786 -0.0919581,0.11726 -0.0919581,0.180773l0 0.0536554z"/>
   </clipPath>
 </defs>
 <g id="Layer_x0020_1">
  <metadata id="CorelCorpID_0Corel-Layer"/>
  <path class="fil0" d="M4.33681e-015 1.91864c0,0.0667696 0.0570696,0.14896 0.0927268,0.184459 0.0386418,0.0384383 0.0974751,0.103309 0.137768,0.134919 0.0361546,0.0283539 0.109007,0.102404 0.140413,0.13675 0.0213672,0.0233569 0.129175,0.117621 0.134059,0.138627 0.0193548,0.00160537 0.15667,0.145342 0.179869,0.168812 0.0492011,0.0498116 0.126666,0.129334 0.177698,0.170983 0.0382801,0.0312255 0.144822,0.138717 0.165941,0.18274 0.0452442,0.0943322 0.0513265,0.165714 0.0189704,0.284127 -0.00578836,0.0211411 -0.00266807,0.0593533 -0.00875037,0.0806979 -0.00673801,0.0235604 -0.0144257,0.0386192 -0.0154658,0.0694829 -0.00029394,0.00865993 -0.0207341,0.144144 -0.0230404,0.151357 -0.0108984,0.0343458 -0.00960958,0.032243 -0.012549,0.0768767 -0.00180886,0.0275173 -0.0137926,0.0460808 -0.0170711,0.0678776 -0.0087956,0.0584715 -0.0137926,0.0986282 -0.022136,0.152261 -0.00576575,0.0371947 -0.0120063,0.0393428 -0.0145387,0.0748869 -0.00142448,0.0201688 -0.00499698,0.0560974 -0.0120289,0.0729198 -6.78324e-005,0.000180886 -0.027653,0.145161 -0.0278113,0.146586 -0.011328,0.105615 -0.0405185,0.193797 -0.0405185,0.303776 0,0.0235378 0.00185408,0.043978 0.0046126,0.0669279 0.00325595,0.0268616 0.0177269,0.0135665 0.0177269,0.0538137 0.0153301,0.0102653 0.0459903,0.0679906 0.0862828,0.0970229 0.0258215,0.0186087 0.0832755,0.055012 0.123749,0.055012l0.0983343 0c0.0679906,0 0.438988,-0.220433 0.523372,-0.258826 0.0693247,-0.0315194 0.490134,-0.263755 0.517855,-0.264365 0.00764245,-0.0144709 0.0706813,-0.0473244 0.0886795,-0.0543563 0.0282635,-0.0110567 0.0660009,-0.0395463 0.09899,-0.0395463 0.0192192,-0.0287157 0.177314,-0.0288966 0.196646,0 0.0314742,0 0.0949653,0.0371269 0.117893,0.051937 0.0255954,0.0165285 0.0938574,0.03776 0.105547,0.0598507 0.0200332,0.000429605 0.45459,0.230585 0.497663,0.257718 0.0161893,0.0101749 0.0486132,0.0209828 0.0663174,0.0320169 0.0178625,0.0111019 0.04287,0.0225203 0.0615692,0.0323108 0.0390262,0.0204628 0.0832981,0.04235 0.12246,0.0652773 0.0399533,0.0234022 0.213378,0.117983 0.257446,0.117983l0.102789 0c0.0323786,0 0.0677871,-0.0251658 0.0899457,-0.035205 0.0323334,-0.0146292 0.0468495,-0.0308863 0.0699125,-0.0552381 0.0406994,-0.0429605 0.0680585,-0.0996005 0.0680585,-0.182333 0,-0.0371721 -0.00262285,-0.108125 -0.0120063,-0.135552 -0.0135212,-0.0395237 -0.0101296,-0.0798387 -0.0229273,-0.120154 -0.00551703,-0.0173651 -0.00621797,-0.0455607 -0.00875037,-0.0627901 -0.00486132,-0.0328309 -0.0106271,-0.0394106 -0.0136343,-0.0579288 -0.0035725,-0.0220003 -0.00307507,-0.0435936 -0.00549442,-0.0660461 -0.00226108,-0.0209828 -0.00976786,-0.0241257 -0.0135891,-0.0579514 -0.00954175,-0.0841121 -0.0340745,-0.164991 -0.0397498,-0.250889 -0.00156014,-0.0235378 -0.00936086,-0.0370139 -0.0145387,-0.0570018 -0.004183,-0.0161215 -0.00375339,-0.0472792 -0.0067154,-0.0648251 -0.00723545,-0.0429379 -0.0190157,-0.069189 -0.0190157,-0.124088l-0.0555321 -0.294799 0.00192192 -0.0763566c0,-0.0687594 0.0609813,-0.158456 0.0971133,-0.19348 0.0437066,-0.0423274 0.101658,-0.104168 0.145387,-0.14073 0.0447015,-0.037353 0.106203,-0.098583 0.14593,-0.140164 0.047053,-0.0492237 0.0947392,-0.093586 0.145026,-0.141069 0.0495855,-0.0467817 0.095621,-0.0936539 0.14385,-0.142244 0.0482288,-0.0485906 0.09899,-0.0924555 0.145772,-0.140323 0.0732589,-0.075 0.240488,-0.199314 0.240488,-0.331745l0 -0.0536554c0,-0.0690533 -0.0542207,-0.150995 -0.0925233,-0.184685 -0.0568887,-0.0500151 -0.104032,-0.0639433 -0.197641,-0.075 -0.019287,-0.00228369 -0.0332379,-0.0125264 -0.0582454,-0.0132725 -0.027246,-0.000791377 -0.0371721,-0.00255502 -0.0626997,-0.00434127 -0.0293714,-0.00201236 -0.0690307,-0.0171842 -0.116265,-0.0177947 -0.0382122,-0.000497437 -0.0660913,-0.0173425 -0.120764,-0.0177947 -0.0429153,-0.000339162 -0.062044,-0.0185408 -0.116061,-0.0179982 -0.0509873,0.000497437 -0.0695056,-0.0184052 -0.120629,-0.0179304 -0.0527962,0.000497437 -0.0719927,-0.01836 -0.120651,-0.0178851 -0.0512134,0.000497437 -0.0795674,-0.0179077 -0.120651,-0.0178851 -0.0468269,2.26108e-005 -0.0828911,-0.0162798 -0.116174,-0.0179077 -0.0673349,-0.00327856 -0.177133,-0.0218872 -0.237051,-0.0355668 -0.0560069,-0.0128203 -0.0574992,-0.0087956 -0.101839,-0.0367199 -0.0353859,-0.0222942 -0.0476409,-0.0253919 -0.0755879,-0.0585167 -0.0471661,-0.0559165 -0.0650964,-0.113235 -0.0993744,-0.177811 -0.0153301,-0.0288966 -0.0299367,-0.0630163 -0.0475957,-0.0910084 -0.00673801,-0.0107175 -0.0390714,-0.0784142 -0.0434353,-0.0906692 -0.00458999,-0.0128429 -0.0389358,-0.0811953 -0.0463747,-0.0922294 -0.00447694,-0.00664757 -0.0412421,-0.0821902 -0.0440684,-0.0900588 -0.0192418,-0.0534519 -0.0649608,-0.131459 -0.0912797,-0.181429 -0.0309994,-0.0588559 -0.0558034,-0.12714 -0.0892674,-0.183464 -0.00820771,-0.0138378 -0.0398628,-0.0796126 -0.0446563,-0.0939478 -0.00056527,-0.00171842 -0.0442719,-0.0888378 -0.0447241,-0.089403 -0.0064893,-0.00843382 -0.0397045,-0.0769219 -0.0464878,-0.0920937 -0.0141996,-0.0317003 -0.0353407,-0.0547633 -0.0563009,-0.0778037 -0.04746,-0.0522083 -0.102404,-0.0717666 -0.201123,-0.0717666 -0.0927947,0 -0.161441,0.021435 -0.202977,0.0743443 -0.0235152,0.0299593 -0.039795,0.0463295 -0.0561426,0.0824389 -0.00766506,0.0169355 -0.035725,0.0747739 -0.0455833,0.0885438 -0.000633102,0.000904431 -0.0446111,0.0902396 -0.0455833,0.0930208 -0.004183,0.0116219 -0.0374661,0.0813988 -0.0433449,0.0907823 -0.031022,0.0496307 -0.063378,0.126078 -0.0895387,0.18317 -0.0262511,0.0572957 -0.0696412,0.126281 -0.0925912,0.184594 -0.0226334,0.0574766 -0.0684655,0.124065 -0.0907145,0.182017 -0.0219099,0.0571375 -0.0628806,0.124382 -0.0901944,0.182514 -0.0331022,0.0704326 -0.0538589,0.114885 -0.0994422,0.173289 -0.0785951,0.100641 -0.260544,0.110386 -0.421736,0.128022 -0.0224525,0.00246458 -0.0267486,0.0123907 -0.0583132,0.0132047 -0.0200784,0.000497437 -0.0385966,0.00282635 -0.0626319,0.00438649 -0.0317003,0.00203497 -0.0623153,0.0161215 -0.116287,0.0177947 -0.0371043,0.00115315 -0.0646895,0.0173425 -0.120651,0.0178851 -0.04287,0.000406994 -0.0617727,0.0182017 -0.116106,0.017953 -0.0496081,-0.000226108 -0.0673123,0.0173651 -0.120719,0.0178399 -0.0463069,0.000406994 -0.0740277,0.0173877 -0.116106,0.0179756 -0.0684881,0.000972264 -0.169965,0.0281278 -0.236893,0.035725 -0.0993066,0.0112376 -0.133811,0.0252336 -0.193933,0.0787081 -0.0364034,0.0323786 -0.0919581,0.11726 -0.0919581,0.180773l0 0.0536554z"/>
  <path class="fil0" d="M6.00741 1.91864c0,0.0667696 0.0570696,0.14896 0.0927268,0.184459 0.0386418,0.0384383 0.0974751,0.103309 0.137768,0.134919 0.0361546,0.0283539 0.109007,0.102404 0.140413,0.13675 0.0213672,0.0233569 0.129175,0.117621 0.134059,0.138627 0.0193548,0.00160537 0.15667,0.145342 0.179869,0.168812 0.0492011,0.0498116 0.126666,0.129334 0.177698,0.170983 0.0382801,0.0312255 0.144822,0.138717 0.165941,0.18274 0.0452442,0.0943322 0.0513265,0.165714 0.0189704,0.284127 -0.00578836,0.0211411 -0.00266807,0.0593533 -0.00875037,0.0806979 -0.00673801,0.0235604 -0.0144257,0.0386192 -0.0154658,0.0694829 -0.00029394,0.00865993 -0.0207341,0.144144 -0.0230404,0.151357 -0.0108984,0.0343458 -0.00960958,0.032243 -0.012549,0.0768767 -0.00180886,0.0275173 -0.0137926,0.0460808 -0.0170711,0.0678776 -0.0087956,0.0584715 -0.0137926,0.0986282 -0.022136,0.152261 -0.00576575,0.0371947 -0.0120063,0.0393428 -0.0145387,0.0748869 -0.00142448,0.0201688 -0.00499698,0.0560974 -0.0120289,0.0729198 -6.78324e-005,0.000180886 -0.027653,0.145161 -0.0278113,0.146586 -0.011328,0.105615 -0.0405185,0.193797 -0.0405185,0.303776 0,0.0235378 0.00185408,0.043978 0.0046126,0.0669279 0.00325595,0.0268616 0.0177269,0.0135665 0.0177269,0.0538137 0.0153301,0.0102653 0.0459903,0.0679906 0.0862828,0.0970229 0.0258215,0.0186087 0.0832755,0.055012 0.123749,0.055012l0.0983343 0c0.0679906,0 0.438988,-0.220433 0.523372,-0.258826 0.0693247,-0.0315194 0.490134,-0.263755 0.517855,-0.264365 0.00764245,-0.0144709 0.0706813,-0.0473244 0.0886795,-0.0543563 0.0282635,-0.0110567 0.0660009,-0.0395463 0.09899,-0.0395463 0.0192192,-0.0287157 0.177314,-0.0288966 0.196646,0 0.0314742,0 0.0949653,0.0371269 0.117893,0.051937 0.0255954,0.0165285 0.0938574,0.03776 0.105547,0.0598507 0.0200332,0.000429605 0.45459,0.230585 0.497663,0.257718 0.0161893,0.0101749 0.0486132,0.0209828 0.0663174,0.0320169 0.0178625,0.0111019 0.04287,0.0225203 0.0615692,0.0323108 0.0390262,0.0204628 0.0832981,0.04235 0.12246,0.0652773 0.0399533,0.0234022 0.213378,0.117983 0.257446,0.117983l0.102789 0c0.0323786,0 0.0677871,-0.0251658 0.0899457,-0.035205 0.0323334,-0.0146292 0.0468495,-0.0308863 0.0699125,-0.0552381 0.0406994,-0.0429605 0.0680585,-0.0996005 0.0680585,-0.182333 0,-0.0371721 -0.00262285,-0.108125 -0.0120063,-0.135552 -0.0135212,-0.0395237 -0.0101296,-0.0798387 -0.0229273,-0.120154 -0.00551703,-0.0173651 -0.00621797,-0.0455607 -0.00875037,-0.0627901 -0.00486132,-0.0328309 -0.0106271,-0.0394106 -0.0136343,-0.0579288 -0.0035725,-0.0220003 -0.00307507,-0.0435936 -0.00549442,-0.0660461 -0.00226108,-0.0209828 -0.00976786,-0.0241257 -0.0135891,-0.0579514 -0.00954175,-0.0841121 -0.0340745,-0.164991 -0.0397498,-0.250889 -0.00156014,-0.0235378 -0.00936086,-0.0370139 -0.0145387,-0.0570018 -0.004183,-0.0161215 -0.00375339,-0.0472792 -0.0067154,-0.0648251 -0.00723545,-0.0429379 -0.0190157,-0.069189 -0.0190157,-0.124088l-0.0555321 -0.294799 0.00192192 -0.0763566c0,-0.0687594 0.0609813,-0.158456 0.0971133,-0.19348 0.0437066,-0.0423274 0.101658,-0.104168 0.145387,-0.14073 0.0447015,-0.037353 0.106203,-0.098583 0.14593,-0.140164 0.047053,-0.0492237 0.0947392,-0.093586 0.145026,-0.141069 0.0495855,-0.0467817 0.095621,-0.0936539 0.14385,-0.142244 0.0482288,-0.0485906 0.09899,-0.0924555 0.145772,-0.140323 0.0732589,-0.075 0.240488,-0.199314 0.240488,-0.331745l0 -0.0536554c0,-0.0690533 -0.0542207,-0.150995 -0.0925233,-0.184685 -0.0568887,-0.0500151 -0.104032,-0.0639433 -0.197641,-0.075 -0.019287,-0.00228369 -0.0332379,-0.0125264 -0.0582454,-0.0132725 -0.027246,-0.000791377 -0.0371721,-0.00255502 -0.0626997,-0.00434127 -0.0293714,-0.00201236 -0.0690307,-0.0171842 -0.116265,-0.0177947 -0.0382122,-0.000497437 -0.0660913,-0.0173425 -0.120764,-0.0177947 -0.0429153,-0.000339162 -0.062044,-0.0185408 -0.116061,-0.0179982 -0.0509873,0.000497437 -0.0695056,-0.0184052 -0.120629,-0.0179304 -0.0527962,0.000497437 -0.0719927,-0.01836 -0.120651,-0.0178851 -0.0512134,0.000497437 -0.0795674,-0.0179077 -0.120651,-0.0178851 -0.0468269,2.26108e-005 -0.0828911,-0.0162798 -0.116174,-0.0179077 -0.0673349,-0.00327856 -0.177133,-0.0218872 -0.237051,-0.0355668 -0.0560069,-0.0128203 -0.0574992,-0.0087956 -0.101839,-0.0367199 -0.0353859,-0.0222942 -0.0476409,-0.0253919 -0.0755879,-0.0585167 -0.0471661,-0.0559165 -0.0650964,-0.113235 -0.0993744,-0.177811 -0.0153301,-0.0288966 -0.0299367,-0.0630163 -0.0475957,-0.0910084 -0.00673801,-0.0107175 -0.0390714,-0.0784142 -0.0434353,-0.0906692 -0.00458999,-0.0128429 -0.0389358,-0.0811953 -0.0463747,-0.0922294 -0.00447694,-0.00664757 -0.0412421,-0.0821902 -0.0440684,-0.0900588 -0.0192418,-0.0534519 -0.0649608,-0.131459 -0.0912797,-0.181429 -0.0309994,-0.0588559 -0.0558034,-0.12714 -0.0892674,-0.183464 -0.00820771,-0.0138378 -0.0398628,-0.0796126 -0.0446563,-0.0939478 -0.00056527,-0.00171842 -0.0442719,-0.0888378 -0.0447241,-0.089403 -0.0064893,-0.00843382 -0.0397045,-0.0769219 -0.0464878,-0.0920937 -0.0141996,-0.0317003 -0.0353407,-0.0547633 -0.0563009,-0.0778037 -0.04746,-0.0522083 -0.102404,-0.0717666 -0.201123,-0.0717666 -0.0927947,0 -0.161441,0.021435 -0.202977,0.0743443 -0.0235152,0.0299593 -0.039795,0.0463295 -0.0561426,0.0824389 -0.00766506,0.0169355 -0.035725,0.0747739 -0.0455833,0.0885438 -0.000633102,0.000904431 -0.0446111,0.0902396 -0.0455833,0.0930208 -0.004183,0.0116219 -0.0374661,0.0813988 -0.0433449,0.0907823 -0.031022,0.0496307 -0.063378,0.126078 -0.0895387,0.18317 -0.0262511,0.0572957 -0.0696412,0.126281 -0.0925912,0.184594 -0.0226334,0.0574766 -0.0684655,0.124065 -0.0907145,0.182017 -0.0219099,0.0571375 -0.0628806,0.124382 -0.0901944,0.182514 -0.0331022,0.0704326 -0.0538589,0.114885 -0.0994422,0.173289 -0.0785725,0.100641 -0.260544,0.110386 -0.421736,0.128022 -0.0224525,0.00246458 -0.0267486,0.0123907 -0.0583132,0.0132047 -0.0200784,0.000497437 -0.0385966,0.00282635 -0.0626319,0.00438649 -0.0317003,0.00203497 -0.0623153,0.0161215 -0.116287,0.0177947 -0.0371043,0.00115315 -0.0646895,0.0173425 -0.120651,0.0178851 -0.04287,0.000406994 -0.0617727,0.0182017 -0.116106,0.017953 -0.0496081,-0.000226108 -0.0673123,0.0173651 -0.120719,0.0178399 -0.0463069,0.000406994 -0.0740277,0.0173877 -0.116106,0.0179756 -0.0684881,0.000972264 -0.169965,0.0281278 -0.236893,0.035725 -0.0993066,0.0112376 -0.133811,0.0252336 -0.193933,0.0787081 -0.0364034,0.0323786 -0.0919581,0.11726 -0.0919581,0.180773l0 0.0536554z"/>
  <path class="fil0" d="M12.0148 1.91864c0,0.0667696 0.0570696,0.14896 0.0927268,0.184459 0.0386418,0.0384383 0.0974751,0.103309 0.137768,0.134919 0.0361546,0.0283539 0.109007,0.102404 0.140413,0.13675 0.0213672,0.0233569 0.129175,0.117621 0.134059,0.138627 0.0193548,0.00160537 0.15667,0.145342 0.179869,0.168812 0.0492011,0.0498116 0.126666,0.129334 0.177698,0.170983 0.0382801,0.0312255 0.144822,0.138717 0.165941,0.18274 0.0452442,0.0943322 0.0513265,0.165714 0.0189704,0.284127 -0.00578836,0.0211411 -0.00266807,0.0593533 -0.00875037,0.0806979 -0.00673801,0.0235604 -0.0144257,0.0386192 -0.0154658,0.0694829 -0.00029394,0.00865993 -0.0207341,0.144144 -0.0230404,0.151357 -0.0108984,0.0343458 -0.00960958,0.032243 -0.012549,0.0768767 -0.00180886,0.0275173 -0.0137926,0.0460808 -0.0170711,0.0678776 -0.0087956,0.0584715 -0.0137926,0.0986282 -0.0221133,0.152261 -0.00576575,0.0371947 -0.0120289,0.0393428 -0.0145613,0.0748869 -0.00142448,0.0201688 -0.00499698,0.0560974 -0.0120289,0.0729198 -6.78324e-005,0.000180886 -0.027653,0.145161 -0.0278113,0.146586 -0.011328,0.105615 -0.0405185,0.193797 -0.0405185,0.303776 0,0.0235378 0.00185408,0.043978 0.0046126,0.0669279 0.00325595,0.0268616 0.0177269,0.0135665 0.0177269,0.0538137 0.0153301,0.0102653 0.0459903,0.0679906 0.0862828,0.0970229 0.0258215,0.0186087 0.0832755,0.055012 0.123749,0.055012l0.0983343 0c0.0679906,0 0.438988,-0.220433 0.523372,-0.258826 0.0693247,-0.0315194 0.490134,-0.263755 0.517855,-0.264365 0.00764245,-0.0144709 0.0706813,-0.0473244 0.0886795,-0.0543563 0.0282635,-0.0110567 0.0660009,-0.0395463 0.09899,-0.0395463 0.0192192,-0.0287157 0.177314,-0.0288966 0.196646,0 0.0314742,0 0.0949653,0.0371269 0.117893,0.051937 0.0255954,0.0165285 0.0938574,0.03776 0.105547,0.0598507 0.0200332,0.000429605 0.45459,0.230585 0.497663,0.257718 0.0161893,0.0101749 0.0486132,0.0209828 0.06634,0.0320169 0.0178399,0.0111019 0.0428474,0.0225203 0.0615466,0.0323108 0.0390262,0.0204628 0.0832981,0.04235 0.12246,0.0652773 0.0399533,0.0234022 0.213378,0.117983 0.257446,0.117983l0.102789 0c0.0323786,0 0.0677871,-0.0251658 0.0899457,-0.035205 0.0323334,-0.0146292 0.0468495,-0.0308863 0.0699125,-0.0552381 0.0406994,-0.0429605 0.0680585,-0.0996005 0.0680585,-0.182333 0,-0.0371721 -0.00262285,-0.108125 -0.0120063,-0.135552 -0.0135212,-0.0395237 -0.0101296,-0.0798387 -0.0229273,-0.120154 -0.00551703,-0.0173651 -0.00621797,-0.0455607 -0.00875037,-0.0627901 -0.00486132,-0.0328309 -0.0106271,-0.0394106 -0.0136343,-0.0579288 -0.0035725,-0.0220003 -0.00307507,-0.0435936 -0.00549442,-0.0660461 -0.00226108,-0.0209828 -0.00974525,-0.0241257 -0.0135891,-0.0579514 -0.00954175,-0.0841121 -0.0340745,-0.164991 -0.0397498,-0.250889 -0.00156014,-0.0235378 -0.00936086,-0.0370139 -0.0145387,-0.0570018 -0.004183,-0.0161215 -0.00375339,-0.0472792 -0.0067154,-0.0648251 -0.00723545,-0.0429379 -0.0190157,-0.069189 -0.0190157,-0.124088l-0.0555321 -0.294799 0.00192192 -0.0763566c0,-0.0687594 0.0609813,-0.158456 0.0971133,-0.19348 0.0437066,-0.0423274 0.101658,-0.104168 0.145387,-0.14073 0.0447015,-0.037353 0.106203,-0.098583 0.14593,-0.140164 0.047053,-0.0492237 0.0947392,-0.093586 0.145026,-0.141069 0.0495855,-0.0467817 0.095621,-0.0936539 0.14385,-0.142244 0.0482288,-0.0485906 0.09899,-0.0924555 0.145772,-0.140323 0.0732589,-0.075 0.240488,-0.199314 0.240488,-0.331745l0 -0.0536554c0,-0.0690533 -0.0542207,-0.150995 -0.0925233,-0.184685 -0.0568887,-0.0500151 -0.104032,-0.0639433 -0.197641,-0.075 -0.019287,-0.00228369 -0.0332379,-0.0125264 -0.0582454,-0.0132725 -0.027246,-0.000791377 -0.0371721,-0.00255502 -0.0626997,-0.00434127 -0.0293714,-0.00201236 -0.0690307,-0.0171842 -0.116265,-0.0177947 -0.0382122,-0.000497437 -0.0660913,-0.0173425 -0.120764,-0.0177947 -0.0429153,-0.000339162 -0.062044,-0.0185408 -0.116061,-0.0179982 -0.0509873,0.000497437 -0.0695056,-0.0184052 -0.120629,-0.0179304 -0.0527962,0.000497437 -0.0719927,-0.01836 -0.120651,-0.0178851 -0.0512134,0.000497437 -0.0795674,-0.0179077 -0.120651,-0.0178851 -0.0468269,2.26108e-005 -0.0828911,-0.0162798 -0.116174,-0.0179077 -0.0673123,-0.00327856 -0.177133,-0.0218872 -0.237051,-0.0355668 -0.0560069,-0.0128203 -0.0574992,-0.0087956 -0.101839,-0.0367199 -0.0353859,-0.0222942 -0.0476409,-0.0253919 -0.0755879,-0.0585167 -0.0471661,-0.0559165 -0.0650964,-0.113235 -0.0993744,-0.177811 -0.0153301,-0.0288966 -0.0299367,-0.0630163 -0.0475957,-0.0910084 -0.00673801,-0.0107175 -0.0390714,-0.0784142 -0.0434353,-0.0906692 -0.00458999,-0.0128429 -0.0389132,-0.0811953 -0.0463747,-0.0922294 -0.00447694,-0.00664757 -0.0412421,-0.0821902 -0.0440684,-0.0900588 -0.0192418,-0.0534519 -0.0649608,-0.131459 -0.0912797,-0.181429 -0.0309994,-0.0588559 -0.0558034,-0.12714 -0.0892674,-0.183464 -0.00820771,-0.0138378 -0.0398628,-0.0796126 -0.0446563,-0.0939478 -0.00056527,-0.00171842 -0.0442719,-0.0888378 -0.0447241,-0.089403 -0.0064893,-0.00843382 -0.0397045,-0.0769219 -0.0464878,-0.0920937 -0.0141996,-0.0317003 -0.0353407,-0.0547633 -0.0563009,-0.0778037 -0.04746,-0.0522083 -0.102404,-0.0717666 -0.201123,-0.0717666 -0.0927947,0 -0.161441,0.021435 -0.202977,0.0743443 -0.0235152,0.0299593 -0.039795,0.0463295 -0.0561426,0.0824389 -0.00766506,0.0169355 -0.035725,0.0747739 -0.0455833,0.0885438 -0.000633102,0.000904431 -0.0446111,0.0902396 -0.0455833,0.0930208 -0.004183,0.0116219 -0.0374661,0.0813988 -0.0433449,0.0907823 -0.031022,0.0496307 -0.063378,0.126078 -0.0895387,0.18317 -0.0262511,0.0572957 -0.0696412,0.126281 -0.0925912,0.184594 -0.0226334,0.0574766 -0.0684655,0.124065 -0.0907145,0.182017 -0.0219099,0.0571375 -0.0628806,0.124382 -0.0901944,0.182514 -0.0331022,0.0704326 -0.0538589,0.114885 -0.0994422,0.173289 -0.0785725,0.100641 -0.260544,0.110386 -0.421736,0.128022 -0.0224525,0.00246458 -0.0267486,0.0123907 -0.0583132,0.0132047 -0.0200784,0.000497437 -0.0385966,0.00282635 -0.0626319,0.00438649 -0.0317003,0.00203497 -0.0623153,0.0161215 -0.116287,0.0177947 -0.0371043,0.00115315 -0.0646895,0.0173425 -0.120651,0.0178851 -0.04287,0.000406994 -0.0617501,0.0182017 -0.116106,0.017953 -0.0496081,-0.000226108 -0.0673123,0.0173651 -0.120719,0.0178399 -0.0463069,0.000406994 -0.0740277,0.0173877 -0.116106,0.0179756 -0.0684881,0.000972264 -0.169965,0.0281278 -0.236893,0.035725 -0.0993066,0.0112376 -0.133811,0.0252336 -0.193933,0.0787081 -0.0364034,0.0323786 -0.0919581,0.11726 -0.0919581,0.180773l0 0.0536554z"/>
  <path class="fil0" d="M18.0222 1.91864c0,0.0667696 0.0570696,0.14896 0.0927268,0.184459 0.0386418,0.0384383 0.0974751,0.103309 0.13779,0.134919 0.036132,0.0283539 0.108984,0.102404 0.14039,0.13675 0.0213672,0.0233569 0.129175,0.117621 0.134059,0.138627 0.0193548,0.00160537 0.15667,0.145342 0.179869,0.168812 0.0492011,0.0498116 0.126666,0.129334 0.177698,0.170983 0.0382801,0.0312255 0.144822,0.138717 0.165941,0.18274 0.0452442,0.0943322 0.0513265,0.165714 0.0189704,0.284127 -0.00578836,0.0211411 -0.00266807,0.0593533 -0.00875037,0.0806979 -0.00673801,0.0235604 -0.0144257,0.0386192 -0.0154658,0.0694829 -0.000271329,0.00865993 -0.0207341,0.144144 -0.0230404,0.151357 -0.0108984,0.0343458 -0.00960958,0.032243 -0.012549,0.0768767 -0.00180886,0.0275173 -0.0137926,0.0460808 -0.0170711,0.0678776 -0.0087956,0.0584715 -0.0137926,0.0986282 -0.0221133,0.152261 -0.00576575,0.0371947 -0.0120289,0.0393428 -0.0145613,0.0748869 -0.00142448,0.0201688 -0.00499698,0.0560974 -0.0120289,0.0729198 -6.78324e-005,0.000180886 -0.027653,0.145161 -0.0278113,0.146586 -0.011328,0.105615 -0.0405185,0.193797 -0.0405185,0.303776 0,0.0235378 0.00185408,0.043978 0.0046126,0.0669279 0.00325595,0.0268616 0.0177269,0.0135665 0.0177269,0.0538137 0.0153301,0.0102653 0.0459903,0.0679906 0.0862828,0.0970229 0.0258215,0.0186087 0.0832755,0.055012 0.123749,0.055012l0.0983343 0c0.0679906,0 0.438988,-0.220433 0.523372,-0.258826 0.0693247,-0.0315194 0.490134,-0.263755 0.517855,-0.264365 0.00764245,-0.0144709 0.0706813,-0.0473244 0.0886795,-0.0543563 0.0282635,-0.0110567 0.0660009,-0.0395463 0.09899,-0.0395463 0.0192192,-0.0287157 0.177314,-0.0288966 0.196646,0 0.0314742,0 0.0949653,0.0371269 0.117893,0.051937 0.0255954,0.0165285 0.0938574,0.03776 0.105547,0.0598507 0.0200332,0.000429605 0.45459,0.230585 0.497686,0.257718 0.0161667,0.0101749 0.0485906,0.0209828 0.0663174,0.0320169 0.0178399,0.0111019 0.0428474,0.0225203 0.0615466,0.0323108 0.0390262,0.0204628 0.0832981,0.04235 0.12246,0.0652773 0.0399533,0.0234022 0.213378,0.117983 0.257446,0.117983l0.102789 0c0.0323786,0 0.0677871,-0.0251658 0.0899457,-0.035205 0.0323334,-0.0146292 0.0468495,-0.0308863 0.0699125,-0.0552381 0.0406994,-0.0429605 0.0680585,-0.0996005 0.0680585,-0.182333 0,-0.0371721 -0.00262285,-0.108125 -0.0120063,-0.135552 -0.0135212,-0.0395237 -0.0101296,-0.0798387 -0.0229273,-0.120154 -0.00551703,-0.0173651 -0.00621797,-0.0455607 -0.00875037,-0.0627901 -0.00486132,-0.0328309 -0.0106271,-0.0394106 -0.0136343,-0.0579288 -0.0035725,-0.0220003 -0.00307507,-0.0435936 -0.00549442,-0.0660461 -0.00226108,-0.0209828 -0.00974525,-0.0241257 -0.0135891,-0.0579514 -0.00954175,-0.0841121 -0.0340745,-0.164991 -0.0397498,-0.250889 -0.00156014,-0.0235378 -0.00936086,-0.0370139 -0.0145387,-0.0570018 -0.004183,-0.0161215 -0.00375339,-0.0472792 -0.0067154,-0.0648251 -0.00723545,-0.0429379 -0.0190157,-0.069189 -0.0190157,-0.124088l-0.0555321 -0.294799 0.00192192 -0.0763566c0,-0.0687594 0.0609813,-0.158456 0.0971133,-0.19348 0.0437293,-0.0423274 0.101658,-0.104168 0.145387,-0.14073 0.0447015,-0.037353 0.106203,-0.098583 0.14593,-0.140164 0.047053,-0.0492237 0.0947392,-0.093586 0.145026,-0.141069 0.0495855,-0.0467817 0.095621,-0.0936539 0.14385,-0.142244 0.0482288,-0.0485906 0.09899,-0.0924555 0.145772,-0.140323 0.0732589,-0.075 0.240488,-0.199314 0.240488,-0.331745l0 -0.0536554c0,-0.0690533 -0.0542207,-0.150995 -0.0925233,-0.184685 -0.0568887,-0.0500151 -0.104032,-0.0639433 -0.197641,-0.075 -0.019287,-0.00228369 -0.0332379,-0.0125264 -0.0582454,-0.0132725 -0.027246,-0.000791377 -0.0371721,-0.00255502 -0.0626997,-0.00434127 -0.0293714,-0.00201236 -0.0690307,-0.0171842 -0.116265,-0.0177947 -0.0382122,-0.000497437 -0.0660913,-0.0173425 -0.120764,-0.0177947 -0.0429153,-0.000339162 -0.062044,-0.0185408 -0.116061,-0.0179982 -0.0509873,0.000497437 -0.0695056,-0.0184052 -0.120629,-0.0179304 -0.0527962,0.000497437 -0.0719927,-0.01836 -0.120651,-0.0178851 -0.0512134,0.000497437 -0.0795674,-0.0179077 -0.120651,-0.0178851 -0.0468269,2.26108e-005 -0.0828911,-0.0162798 -0.116174,-0.0179077 -0.0673123,-0.00327856 -0.177133,-0.0218872 -0.237051,-0.0355668 -0.0560069,-0.0128203 -0.0574992,-0.0087956 -0.101839,-0.0367199 -0.0353859,-0.0222942 -0.0476409,-0.0253919 -0.0755879,-0.0585167 -0.0471661,-0.0559165 -0.0650964,-0.113235 -0.0993744,-0.177811 -0.0153301,-0.0288966 -0.0299367,-0.0630163 -0.0475957,-0.0910084 -0.00673801,-0.0107175 -0.0390714,-0.0784142 -0.0434353,-0.0906692 -0.00458999,-0.0128429 -0.0389132,-0.0811953 -0.0463747,-0.0922294 -0.00447694,-0.00664757 -0.0412421,-0.0821902 -0.0440684,-0.0900588 -0.0192418,-0.0534519 -0.0649608,-0.131459 -0.0912797,-0.181429 -0.0309994,-0.0588559 -0.0558034,-0.12714 -0.0892674,-0.183464 -0.00820771,-0.0138378 -0.0398628,-0.0796126 -0.0446563,-0.0939478 -0.00056527,-0.00171842 -0.0442719,-0.0888378 -0.0447241,-0.089403 -0.0064893,-0.00843382 -0.0397045,-0.0769219 -0.0464878,-0.0920937 -0.0141996,-0.0317003 -0.0353407,-0.0547633 -0.0563009,-0.0778037 -0.04746,-0.0522083 -0.102404,-0.0717666 -0.2011,-0.0717666 -0.0928173,0 -0.161464,0.021435 -0.203,0.0743443 -0.0235152,0.0299593 -0.039795,0.0463295 -0.0561426,0.0824389 -0.00766506,0.0169355 -0.035725,0.0747739 -0.0455833,0.0885438 -0.000633102,0.000904431 -0.0446111,0.0902396 -0.0455833,0.0930208 -0.004183,0.0116219 -0.0374661,0.0813988 -0.0433449,0.0907823 -0.031022,0.0496307 -0.063378,0.126078 -0.0895387,0.18317 -0.0262511,0.0572957 -0.0696412,0.126281 -0.0925912,0.184594 -0.0226334,0.0574766 -0.0684655,0.124065 -0.0907145,0.182017 -0.0218872,0.0571375 -0.0628806,0.124382 -0.0901944,0.182514 -0.0331022,0.0704326 -0.0538589,0.114885 -0.0994422,0.173289 -0.0785725,0.100641 -0.260544,0.110386 -0.421714,0.128022 -0.0224751,0.00246458 -0.0267712,0.0123907 -0.0583132,0.0132047 -0.020101,0.000497437 -0.0386192,0.00282635 -0.0626545,0.00438649 -0.0317003,0.00203497 -0.0623153,0.0161215 -0.116287,0.0177947 -0.0371043,0.00115315 -0.0646895,0.0173425 -0.120651,0.0178851 -0.04287,0.000406994 -0.0617501,0.0182017 -0.116106,0.017953 -0.0496081,-0.000226108 -0.0673123,0.0173651 -0.120719,0.0178399 -0.0463069,0.000406994 -0.0740277,0.0173877 -0.116106,0.0179756 -0.0684881,0.000972264 -0.169965,0.0281278 -0.236893,0.035725 -0.0993066,0.0112376 -0.133811,0.0252336 -0.193933,0.0787081 -0.0364034,0.0323786 -0.0919581,0.11726 -0.0919581,0.180773l0 0.0536554z"/>
  <path class="fil1" d="M24.0297 1.91864c0,0.0667696 0.0570696,0.14896 0.0927268,0.184459 0.0386418,0.0384383 0.0974751,0.103309 0.13779,0.134919 0.036132,0.0283539 0.108984,0.102404 0.14039,0.13675 0.0213672,0.0233569 0.129175,0.117621 0.134059,0.138627 0.0193548,0.00160537 0.15667,0.145342 0.179869,0.168812 0.0492011,0.0498116 0.126666,0.129334 0.177698,0.170983 0.0382801,0.0312255 0.144822,0.138717 0.165941,0.18274 0.0452442,0.0943322 0.0513265,0.165714 0.0189704,0.284127 -0.00578836,0.0211411 -0.00266807,0.0593533 -0.00875037,0.0806979 -0.00673801,0.0235604 -0.0144257,0.0386192 -0.0154658,0.0694829 -0.000271329,0.00865993 -0.0207341,0.144144 -0.0230404,0.151357 -0.0108984,0.0343458 -0.00960958,0.032243 -0.012549,0.0768767 -0.00180886,0.0275173 -0.0137926,0.0460808 -0.0170711,0.0678776 -0.0087956,0.0584715 -0.0137926,0.0986282 -0.0221133,0.152261 -0.00576575,0.0371947 -0.0120289,0.0393428 -0.0145613,0.0748869 -0.00142448,0.0201688 -0.00499698,0.0560974 -0.0120289,0.0729198 -6.78324e-005,0.000180886 -0.027653,0.145161 -0.0278113,0.146586 -0.011328,0.105615 -0.0405185,0.193797 -0.0405185,0.303776 0,0.0235378 0.00185408,0.043978 0.0046126,0.0669279 0.00325595,0.0268616 0.0177495,0.0135665 0.0177495,0.0538137 0.0153075,0.0102653 0.0459677,0.0679906 0.0862601,0.0970229 0.0258215,0.0186087 0.0832755,0.055012 0.123749,0.055012l0.0983343 0c0.0679906,0 0.438988,-0.220433 0.523372,-0.258826 0.0693247,-0.0315194 0.490134,-0.263755 0.517855,-0.264365 0.00764245,-0.0144709 0.0706813,-0.0473244 0.0886795,-0.0543563 0.0282635,-0.0110567 0.0660009,-0.0395463 0.09899,-0.0395463 0.0192192,-0.0287157 0.177314,-0.0288966 0.196646,0 0.0314742,0 0.0949653,0.0371269 0.117893,0.051937 0.0255954,0.0165285 0.0938574,0.03776 0.105547,0.0598507 0.0200332,0.000429605 0.45459,0.230585 0.497686,0.257718 0.0161667,0.0101749 0.0485906,0.0209828 0.0663174,0.0320169 0.0178399,0.0111019 0.0428474,0.0225203 0.0615466,0.0323108 0.0390262,0.0204628 0.0832981,0.04235 0.12246,0.0652773 0.0399533,0.0234022 0.213378,0.117983 0.257446,0.117983l0.102789 0c0.0323786,0 0.0677871,-0.0251658 0.0899457,-0.035205 0.0323334,-0.0146292 0.0468495,-0.0308863 0.0699125,-0.0552381 0.0406994,-0.0429605 0.0680585,-0.0996005 0.0680585,-0.182333 0,-0.0371721 -0.00262285,-0.108125 -0.0120063,-0.135552 -0.0135212,-0.0395237 -0.0101296,-0.0798387 -0.0229273,-0.120154 -0.00551703,-0.0173651 -0.00621797,-0.0455607 -0.00875037,-0.0627901 -0.00486132,-0.0328309 -0.0106271,-0.0394106 -0.0136343,-0.0579288 -0.0035725,-0.0220003 -0.00307507,-0.0435936 -0.00549442,-0.0660461 -0.00226108,-0.0209828 -0.00974525,-0.0241257 -0.0135891,-0.0579514 -0.00954175,-0.0841121 -0.0340745,-0.164991 -0.0397498,-0.250889 -0.00156014,-0.0235378 -0.00936086,-0.0370139 -0.0145387,-0.0570018 -0.004183,-0.0161215 -0.00375339,-0.0472792 -0.0067154,-0.0648251 -0.00723545,-0.0429379 -0.0190157,-0.069189 -0.0190157,-0.124088l-0.0555321 -0.294799 0.00192192 -0.0763566c0,-0.0687594 0.0609813,-0.158456 0.0971133,-0.19348 0.0437293,-0.0423274 0.101658,-0.104168 0.145387,-0.14073 0.0447015,-0.037353 0.106203,-0.098583 0.14593,-0.140164 0.047053,-0.0492237 0.0947392,-0.093586 0.145026,-0.141069 0.0495855,-0.0467817 0.095621,-0.0936539 0.14385,-0.142244 0.0482288,-0.0485906 0.09899,-0.0924555 0.145772,-0.140323 0.0732589,-0.075 0.240488,-0.199314 0.240488,-0.331745l0 -0.0536554c0,-0.0690533 -0.0542207,-0.150995 -0.0925233,-0.184685 -0.0568887,-0.0500151 -0.104032,-0.0639433 -0.197641,-0.075 -0.019287,-0.00228369 -0.0332379,-0.0125264 -0.0582454,-0.0132725 -0.027246,-0.000791377 -0.0371721,-0.00255502 -0.0626997,-0.00434127 -0.0293714,-0.00201236 -0.0690307,-0.0171842 -0.116265,-0.0177947 -0.0382122,-0.000497437 -0.0660913,-0.0173425 -0.120764,-0.0177947 -0.0429153,-0.000339162 -0.062044,-0.0185408 -0.116061,-0.0179982 -0.0509873,0.000497437 -0.0695056,-0.0184052 -0.120629,-0.0179304 -0.0527962,0.000497437 -0.0719927,-0.01836 -0.120651,-0.0178851 -0.0512134,0.000497437 -0.0795674,-0.0179077 -0.120651,-0.0178851 -0.0468269,2.26108e-005 -0.0828911,-0.0162798 -0.116174,-0.0179077 -0.0673123,-0.00327856 -0.177133,-0.0218872 -0.237051,-0.0355668 -0.0560069,-0.0128203 -0.0574992,-0.0087956 -0.101839,-0.0367199 -0.0353859,-0.0222942 -0.0476409,-0.0253919 -0.0755652,-0.0585167 -0.0471887,-0.0559165 -0.0651191,-0.113235 -0.099397,-0.177811 -0.0153301,-0.0288966 -0.0299367,-0.0630163 -0.0475957,-0.0910084 -0.00673801,-0.0107175 -0.0390714,-0.0784142 -0.0434353,-0.0906692 -0.00458999,-0.0128429 -0.0389132,-0.0811953 -0.0463521,-0.0922294 -0.00449955,-0.00664757 -0.0412647,-0.0821902 -0.044091,-0.0900588 -0.0192418,-0.0534519 -0.0649608,-0.131459 -0.0912797,-0.181429 -0.0309994,-0.0588559 -0.0558034,-0.12714 -0.0892674,-0.183464 -0.00820771,-0.0138378 -0.0398628,-0.0796126 -0.0446563,-0.0939478 -0.00056527,-0.00171842 -0.0442719,-0.0888378 -0.0447241,-0.089403 -0.0064893,-0.00843382 -0.0397045,-0.0769219 -0.0464878,-0.0920937 -0.0141996,-0.0317003 -0.0353407,-0.0547633 -0.0563009,-0.0778037 -0.04746,-0.0522083 -0.102404,-0.0717666 -0.2011,-0.0717666 -0.0928173,0 -0.161464,0.021435 -0.203,0.0743443 -0.0235152,0.0299593 -0.039795,0.0463295 -0.0561426,0.0824389 -0.00766506,0.0169355 -0.035725,0.0747739 -0.0455833,0.0885438 -0.000633102,0.000904431 -0.0446111,0.0902396 -0.0455833,0.0930208 -0.004183,0.0116219 -0.0374661,0.0813988 -0.0433449,0.0907823 -0.031022,0.0496307 -0.063378,0.126078 -0.0895387,0.18317 -0.0262511,0.0572957 -0.0696412,0.126281 -0.0925912,0.184594 -0.0226334,0.0574766 -0.0684655,0.124065 -0.0907145,0.182017 -0.0218872,0.0571375 -0.0628806,0.124382 -0.0901944,0.182514 -0.0331022,0.0704326 -0.0538589,0.114885 -0.0994422,0.173289 -0.0785725,0.100641 -0.260544,0.110386 -0.421714,0.128022 -0.0224751,0.00246458 -0.0267712,0.0123907 -0.0583132,0.0132047 -0.020101,0.000497437 -0.0386192,0.00282635 -0.0626545,0.00438649 -0.0317003,0.00203497 -0.0623153,0.0161215 -0.116287,0.0177947 -0.0371043,0.00115315 -0.0646895,0.0173425 -0.120651,0.0178851 -0.04287,0.000406994 -0.0617501,0.0182017 -0.116106,0.017953 -0.0496081,-0.000226108 -0.0673123,0.0173651 -0.120719,0.0178399 -0.0463069,0.000406994 -0.0740277,0.0173877 -0.116106,0.0179756 -0.0684881,0.000972264 -0.169965,0.0281278 -0.236893,0.035725 -0.0993066,0.0112376 -0.133811,0.0252336 -0.193933,0.0787081 -0.0364034,0.0323786 -0.0919581,0.11726 -0.0919581,0.180773l0 0.0536554z"/>
  <g style="clip-path:url(#id0)">
   <g id="_99633488">
    <rect id="_99633560" class="fil0" x="23.8328" y="-0.463359" width="4.62894" height="6.93196"/>
   </g>
  </g>
  <path class="fil2" d="M24.0297 1.91864c0,0.0667696 0.0570696,0.14896 0.0927268,0.184459 0.0386418,0.0384383 0.0974751,0.103309 0.13779,0.134919 0.036132,0.0283539 0.108984,0.102404 0.14039,0.13675 0.0213672,0.0233569 0.129175,0.117621 0.134059,0.138627 0.0193548,0.00160537 0.15667,0.145342 0.179869,0.168812 0.0492011,0.0498116 0.126666,0.129334 0.177698,0.170983 0.0382801,0.0312255 0.144822,0.138717 0.165941,0.18274 0.0452442,0.0943322 0.0513265,0.165714 0.0189704,0.284127 -0.00578836,0.0211411 -0.00266807,0.0593533 -0.00875037,0.0806979 -0.00673801,0.0235604 -0.0144257,0.0386192 -0.0154658,0.0694829 -0.000271329,0.00865993 -0.0207341,0.144144 -0.0230404,0.151357 -0.0108984,0.0343458 -0.00960958,0.032243 -0.012549,0.0768767 -0.00180886,0.0275173 -0.0137926,0.0460808 -0.0170711,0.0678776 -0.0087956,0.0584715 -0.0137926,0.0986282 -0.0221133,0.152261 -0.00576575,0.0371947 -0.0120289,0.0393428 -0.0145613,0.0748869 -0.00142448,0.0201688 -0.00499698,0.0560974 -0.0120289,0.0729198 -6.78324e-005,0.000180886 -0.027653,0.145161 -0.0278113,0.146586 -0.011328,0.105615 -0.0405185,0.193797 -0.0405185,0.303776 0,0.0235378 0.00185408,0.043978 0.0046126,0.0669279 0.00325595,0.0268616 0.0177495,0.0135665 0.0177495,0.0538137 0.0153075,0.0102653 0.0459677,0.0679906 0.0862601,0.0970229 0.0258215,0.0186087 0.0832755,0.055012 0.123749,0.055012l0.0983343 0c0.0679906,0 0.438988,-0.220433 0.523372,-0.258826 0.0693247,-0.0315194 0.490134,-0.263755 0.517855,-0.264365 0.00764245,-0.0144709 0.0706813,-0.0473244 0.0886795,-0.0543563 0.0282635,-0.0110567 0.0660009,-0.0395463 0.09899,-0.0395463 0.0192192,-0.0287157 0.177314,-0.0288966 0.196646,0 0.0314742,0 0.0949653,0.0371269 0.117893,0.051937 0.0255954,0.0165285 0.0938574,0.03776 0.105547,0.0598507 0.0200332,0.000429605 0.45459,0.230585 0.497686,0.257718 0.0161667,0.0101749 0.0485906,0.0209828 0.0663174,0.0320169 0.0178399,0.0111019 0.0428474,0.0225203 0.0615466,0.0323108 0.0390262,0.0204628 0.0832981,0.04235 0.12246,0.0652773 0.0399533,0.0234022 0.213378,0.117983 0.257446,0.117983l0.102789 0c0.0323786,0 0.0677871,-0.0251658 0.0899457,-0.035205 0.0323334,-0.0146292 0.0468495,-0.0308863 0.0699125,-0.0552381 0.0406994,-0.0429605 0.0680585,-0.0996005 0.0680585,-0.182333 0,-0.0371721 -0.00262285,-0.108125 -0.0120063,-0.135552 -0.0135212,-0.0395237 -0.0101296,-0.0798387 -0.0229273,-0.120154 -0.00551703,-0.0173651 -0.00621797,-0.0455607 -0.00875037,-0.0627901 -0.00486132,-0.0328309 -0.0106271,-0.0394106 -0.0136343,-0.0579288 -0.0035725,-0.0220003 -0.00307507,-0.0435936 -0.00549442,-0.0660461 -0.00226108,-0.0209828 -0.00974525,-0.0241257 -0.0135891,-0.0579514 -0.00954175,-0.0841121 -0.0340745,-0.164991 -0.0397498,-0.250889 -0.00156014,-0.0235378 -0.00936086,-0.0370139 -0.0145387,-0.0570018 -0.004183,-0.0161215 -0.00375339,-0.0472792 -0.0067154,-0.0648251 -0.00723545,-0.0429379 -0.0190157,-0.069189 -0.0190157,-0.124088l-0.0555321 -0.294799 0.00192192 -0.0763566c0,-0.0687594 0.0609813,-0.158456 0.0971133,-0.19348 0.0437293,-0.0423274 0.101658,-0.104168 0.145387,-0.14073 0.0447015,-0.037353 0.106203,-0.098583 0.14593,-0.140164 0.047053,-0.0492237 0.0947392,-0.093586 0.145026,-0.141069 0.0495855,-0.0467817 0.095621,-0.0936539 0.14385,-0.142244 0.0482288,-0.0485906 0.09899,-0.0924555 0.145772,-0.140323 0.0732589,-0.075 0.240488,-0.199314 0.240488,-0.331745l0 -0.0536554c0,-0.0690533 -0.0542207,-0.150995 -0.0925233,-0.184685 -0.0568887,-0.0500151 -0.104032,-0.0639433 -0.197641,-0.075 -0.019287,-0.00228369 -0.0332379,-0.0125264 -0.0582454,-0.0132725 -0.027246,-0.000791377 -0.0371721,-0.00255502 -0.0626997,-0.00434127 -0.0293714,-0.00201236 -0.0690307,-0.0171842 -0.116265,-0.0177947 -0.0382122,-0.000497437 -0.0660913,-0.0173425 -0.120764,-0.0177947 -0.0429153,-0.000339162 -0.062044,-0.0185408 -0.116061,-0.0179982 -0.0509873,0.000497437 -0.0695056,-0.0184052 -0.120629,-0.0179304 -0.0527962,0.000497437 -0.0719927,-0.01836 -0.120651,-0.0178851 -0.0512134,0.000497437 -0.0795674,-0.0179077 -0.120651,-0.0178851 -0.0468269,2.26108e-005 -0.0828911,-0.0162798 -0.116174,-0.0179077 -0.0673123,-0.00327856 -0.177133,-0.0218872 -0.237051,-0.0355668 -0.0560069,-0.0128203 -0.0574992,-0.0087956 -0.101839,-0.0367199 -0.0353859,-0.0222942 -0.0476409,-0.0253919 -0.0755652,-0.0585167 -0.0471887,-0.0559165 -0.0651191,-0.113235 -0.099397,-0.177811 -0.0153301,-0.0288966 -0.0299367,-0.0630163 -0.0475957,-0.0910084 -0.00673801,-0.0107175 -0.0390714,-0.0784142 -0.0434353,-0.0906692 -0.00458999,-0.0128429 -0.0389132,-0.0811953 -0.0463521,-0.0922294 -0.00449955,-0.00664757 -0.0412647,-0.0821902 -0.044091,-0.0900588 -0.0192418,-0.0534519 -0.0649608,-0.131459 -0.0912797,-0.181429 -0.0309994,-0.0588559 -0.0558034,-0.12714 -0.0892674,-0.183464 -0.00820771,-0.0138378 -0.0398628,-0.0796126 -0.0446563,-0.0939478 -0.00056527,-0.00171842 -0.0442719,-0.0888378 -0.0447241,-0.089403 -0.0064893,-0.00843382 -0.0397045,-0.0769219 -0.0464878,-0.0920937 -0.0141996,-0.0317003 -0.0353407,-0.0547633 -0.0563009,-0.0778037 -0.04746,-0.0522083 -0.102404,-0.0717666 -0.2011,-0.0717666 -0.0928173,0 -0.161464,0.021435 -0.203,0.0743443 -0.0235152,0.0299593 -0.039795,0.0463295 -0.0561426,0.0824389 -0.00766506,0.0169355 -0.035725,0.0747739 -0.0455833,0.0885438 -0.000633102,0.000904431 -0.0446111,0.0902396 -0.0455833,0.0930208 -0.004183,0.0116219 -0.0374661,0.0813988 -0.0433449,0.0907823 -0.031022,0.0496307 -0.063378,0.126078 -0.0895387,0.18317 -0.0262511,0.0572957 -0.0696412,0.126281 -0.0925912,0.184594 -0.0226334,0.0574766 -0.0684655,0.124065 -0.0907145,0.182017 -0.0218872,0.0571375 -0.0628806,0.124382 -0.0901944,0.182514 -0.0331022,0.0704326 -0.0538589,0.114885 -0.0994422,0.173289 -0.0785725,0.100641 -0.260544,0.110386 -0.421714,0.128022 -0.0224751,0.00246458 -0.0267712,0.0123907 -0.0583132,0.0132047 -0.020101,0.000497437 -0.0386192,0.00282635 -0.0626545,0.00438649 -0.0317003,0.00203497 -0.0623153,0.0161215 -0.116287,0.0177947 -0.0371043,0.00115315 -0.0646895,0.0173425 -0.120651,0.0178851 -0.04287,0.000406994 -0.0617501,0.0182017 -0.116106,0.017953 -0.0496081,-0.000226108 -0.0673123,0.0173651 -0.120719,0.0178399 -0.0463069,0.000406994 -0.0740277,0.0173877 -0.116106,0.0179756 -0.0684881,0.000972264 -0.169965,0.0281278 -0.236893,0.035725 -0.0993066,0.0112376 -0.133811,0.0252336 -0.193933,0.0787081 -0.0364034,0.0323786 -0.0919581,0.11726 -0.0919581,0.180773l0 0.0536554z"/>
 </g>
</svg>
