<svg id="Layer_1" data-name="Layer 1" xmlns="http://www.w3.org/2000/svg" viewBox="0 0 292.4 194.1"><defs><style>.cls-1{fill:#dbdada;}.cls-2{fill:#4b4b4b;}.cls-3{fill:#fff;}.cls-4{fill:#ececec;}.cls-5{fill:#dcdbdb;}.cls-6{fill:#dcdbda;}.cls-7{fill:#4c4c4c;}.cls-8{fill:#ebebeb;}.cls-9{fill:#e9e9ea;}.cls-10{opacity:0.5;}.cls-11{fill:#b42063;}</style></defs><title>7 windows-04-04</title><path class="cls-1" d="M153.86,56.52c18.8,0,37.7-.5,56.4.2,7.8.3,13.5-2.3,18.3-7.5,3.1-3.4,5.4-3.1,8.7,0,12.5,11.9,25.3,23.5,38,35.2a29.49,29.49,0,0,1,2.5,2.5c.8.9,1.3,1.6.5,2.6-1,1.2-2,.7-3-.1s-1.9-3-3.5-2.2-.8,3-.8,4.6c0,18.5.1,37-.1,55.5,0,4,.9,5.9,5.2,5.4,1.6-.2,4.3-.6,4.3,1.9s-2.6,2-4.3,2q-62.25,0-124.4-.1c-1.5-1.2-1.9-2.4.2-3.3a25.42,25.42,0,0,1,4.6-1.7c8.8-.7,17.6-.2,26.4-.3h4.5c2.2-.1,3.9-.6,3.9-3.4s-1.7-3.4-3.9-3.5c-7.1-.2-14.3.1-21.4-.1-3.8-.1-7.7.9-11.2-1.3a3.47,3.47,0,0,1,.1-4.4c2-1.5,4.4-1.3,6.7-1.3,7.7-.1,15.3,0,23,0,6.6,0,6.8-.3,6.8-6.7.1-12.3-.1-24.7.1-37,.2-2.3-.6-3.3-3.1-4-7-2-14.1-1.1-21.1-1.4-4.2-.2-8.6,1-12.6-1.2a3.78,3.78,0,0,1-.1-4.2c1.9-1.8,4.3-1.4,6.6-1.4q11.7-.15,23.4,0c3.5,0,6.6-.7,9.2-3.2,5.6-5.2,11.4-10.1,17.2-15.2-1.6-1.3-3.3-.7-4.9-.7h-43.8c-2.3,0-4.7.2-6.9-.7A4.31,4.31,0,0,1,153.86,56.52Z"/><path class="cls-2" d="M155.06,152.42c-.5,1-1,2.2-2.4,1.9-3.1-.6-1,1.2-1,2q-61.5,0-122.9.1c-1.6,0-3.8.4-3.7-2.1.1-2.1,2-2.1,3.5-1.8,4.1.7,4.5-1.4,4.4-4.7-.2-20.5-.2-41-.2-61.4.5-2.8,1.4-4.9,4.9-3.1,1.1,2.6.4,5.3.8,7.9.1,17.6,0,35.3,0,52.9,0,6.5.4,6.8,6.7,6.9h8c5.7-.1,6.1-.6,6.2-6.4.1-6.3-.1-12.6.1-19s2.2-8.3,8.5-8.6a100.91,100.91,0,0,1,11,0c5.1.3,7.2,2.3,7.4,7.5.3,6.8,0,13.6.2,20.5.1,5.2.7,5.9,5.7,5.9,15,0,13,1.7,13.2-12.9.1-16,0-31.9,0-47.9.3-2.4-.3-5,1-7.2,4-1.3,4.5,1.9,5.7,4.3.8,13.1.2,26.2.3,39.3,0,1.8.1,3.6,0,5.5-.1,3.6,1.4,5.3,5,5,1.2-.1,2.3.1,3.5.1,7.6-.2,15.3-.2,22.9,0,4.1.1,5.5-1.6,5.5-5.6-.1-12.8-.2-25.6.1-38.3,0-2.1-.1-4.3,0-6.4-.1-1.5,0-3,0-4.5-.1-6.9-.2-13.9,0-20.8.2-1.8.3-3.7,2.3-4.6l2-.2c1.1,1.1,1.1,2.6,1.3,4a37.49,37.49,0,0,1,0,22v4c1.6,1.9,1.3,4.2,1.3,6.5.3,13.4.1,26.9.1,40.3,0,1.8-.1,3.7-1.4,5.2v4.1A9,9,0,0,1,155.06,152.42Z"/><path class="cls-2" d="M151.86,56.72l-1,3.8c-2.1,1.8-4.7,1.3-7.1,1.3H93.56c6.8,6.4,12.9,12.3,19.6,17.7,1.9,1.5,4.4,1.4,6.7,1.4h24.9c2.1,0,4.4-.3,6.2,1.3v4.1c-1.8,1.7-4,1.4-6.1,1.4-7.8,0-15.6.1-23.4,0-1,0-2.1-.7-2.3,1.5-.2,1.9-2.3,1.9-4.1,1s-2.7-2.5-3.8-3.9a10.76,10.76,0,0,0-4.1-4.1c-2.2-.2-3.7-1.5-5.1-2.9-8.3-8-17.6-15-25.7-23.3-3-3-5-2.6-7.9.1-9.1,8.6-19,16.5-28.1,25.1-.9.9-1.9,2-3.5,1.4a11.83,11.83,0,0,0-4,3.7,15.05,15.05,0,0,0-1.7,1c-1.1.8-2.3,1.6-3.4,0s.2-2.5,1.1-3.3c4.6-4.3,9.3-8.6,14-12.8,8.6-7.7,17.3-15.2,25.7-23,2.8-2.6,5.1-3,7.4,0,5.6,7.5,13.1,8.6,22,8.4C115.86,56.12,133.86,56.62,151.86,56.72Z"/><path class="cls-3" d="M267,90.52c0,19-.1,38,.1,57,0,3.9-1,5.4-5,5.1a86.92,86.92,0,0,0-12.5,0c-3.4.2-4.7-.9-4.6-4.4.2-7.8-.1-15.7.1-23.5.1-4.6-1.9-6.4-6.3-6.1a110.28,110.28,0,0,1-11.5,0c-4.4-.2-6.4,1.6-6.3,6.1.2,7.8-.1,15.7.1,23.5.1,3.6-1.2,4.6-4.6,4.5-5-.2-10-.3-15,0-3.5.2-4.6-1.1-4.5-4.6.1-19.2.1-38.3.1-57.5,7.2-8,15.9-14.4,23.9-21.6,2.9-2.6,5.6-5.6,9-7.8,2.6-1.7,4.9-1.8,7.2.4,8.6,8.2,17.4,16.2,26.3,24.2A16.49,16.49,0,0,1,267,90.52Z"/><path class="cls-4" d="M155.06,82.52v-22h60.3c-4.9,4.4-9,8.1-13.1,11.8-.5.4-1.3.6-1.6,1.1-6.3,9.3-15.6,9.9-25.6,9.2C168.46,82.12,161.76,82.52,155.06,82.52Z"/><path class="cls-3" d="M155.06,138.42v-46c1.4-1.4,3.2-1.5,5.1-1.6,9.2-.1,18.4-.1,27.7,0a7,7,0,0,1,5.1,1.6c0,13.6-.1,27.3.1,40.9.1,3.8-.9,5.3-5,5.1C177.06,138.32,166.06,138.52,155.06,138.42Z"/><path class="cls-4" d="M267,90.52c-9.8-9-19.8-17.7-29.3-27-3.4-3.3-5.7-3.1-8.8-.4-6.5,5.7-12.8,11.6-19.4,17.1-4.1,3.4-7.6,7.9-12.6,10.3-1-6.1,1.8-9.9,6.6-13.6,9.3-7.3,18-15.5,26.8-23.5,1.9-1.7,3-1.8,4.9,0,8.6,8.2,17.3,16.4,26.3,24.2C265.66,81.12,267.86,85.12,267,90.52Z"/><path class="cls-3" d="M155.06,152.42v-9.9c11.1,0,22.3.2,33.4-.1,4.1-.1,4.5,1.8,4.5,5.1s-.4,5.2-4.5,5.1C177.36,152.32,166.26,152.52,155.06,152.42Z"/><path class="cls-3" d="M106.76,89.52c.1,19.8.1,39.7.2,59.5,0,2.3-.6,3.3-3.1,3.2-5.3-.1-10.7-.2-16,0-2.6.1-3-1-3-3.3.1-8-.1-16,.1-24,.1-4.8-1.9-6.7-6.6-6.4a110.28,110.28,0,0,1-11.5,0c-4.2-.2-6.1,1.7-6,5.9.1,7.8-.1,15.7.1,23.5.1,3.1-.5,4.5-4,4.3-5.5-.3-11-.2-16.5-.1-2.4.1-3.6-.3-3.6-3.2.2-19.5.2-39,.2-58.5,2.5-5.4,7.8-8,11.9-11.9,6-5.8,12.6-11.3,18.8-17.1,2.5-2.3,5.2-3.3,7.9-.8C86.06,70.32,97.36,78.92,106.76,89.52Z"/><path class="cls-3" d="M150.76,82.42c-11.3,0-22.6,0-33.9.1-1.3,0-2.8.4-3.8-.6-7.6-6.8-15.1-13.7-23.5-21.4h61.3v21.9Z"/><path class="cls-3" d="M150.76,92.52c.1,14.3.1,28.6.2,42.9,0,2.4-.7,3.1-3.1,3.1-9-.2-18-.2-27-.2-2.2-3.2-1.8-6.5-.4-9.9,3.8-2.5,8-1.2,12.1-1.4,5.8-.3,6.7-1,6.8-6.7.1-6.1.1-12.3,0-18.4-.1-4.8-1-5.7-5.9-5.9-2.5-.1-5,0-7.4-.1-1.9-.1-4,.2-5.4-1.8-.2-2,1.2-2.8,2.7-2.9a148.2,148.2,0,0,1,25.8.1A4.81,4.81,0,0,1,150.76,92.52Z"/><path class="cls-3" d="M120.06,142.92a3.18,3.18,0,0,1,1.4-.2l24.6-.2c4.8,0,4.4,4,4,7.8a2.72,2.72,0,0,1-.6,1.7,3.2,3.2,0,0,1-1.9.5l-26.2-.2a3,3,0,0,1-1.3-.2,2,2,0,0,1-.9-1.3,9.65,9.65,0,0,1,0-6.7,1.55,1.55,0,0,1,.8-1.1Z"/><path class="cls-5" d="M233.16,72.52c7.4.1,14,7,13.8,14.3s-7.1,14-14.4,13.7-13.6-6.8-13.6-14C219,79,225.76,72.42,233.16,72.52Z"/><path class="cls-6" d="M187.26,111.32v11.9c0,3.5-1.6,5.3-5.1,5.2-3.8,0-7.6-.1-11.5,0s-5.5-1.6-5.5-5.4c.1-7.8,0-15.6,0-23.4,0-3.5,1.6-5.3,5.1-5.2,3.8,0,7.6.1,11.4,0s5.6,1.6,5.5,5.4S187.26,107.52,187.26,111.32Z"/><path class="cls-7" d="M87,86.32a14,14,0,1,1-14.2-13.8h0A14.24,14.24,0,0,1,87,86.32Z"/><path class="cls-2" d="M121.06,128.12a6.24,6.24,0,0,1-2.1-5.3q.15-11.4,0-22.8a6.35,6.35,0,0,1,2.1-5.3c5-.1,9.9-.3,14.9-.3,3.2-.1,5,1.6,5,4.8v24.3c0,3.3-1.8,4.9-5,4.8C131,128.42,126.06,128.22,121.06,128.12Z"/><path class="cls-8" d="M231,86.92a10.44,10.44,0,0,1,0,2.5c-.4,2,1.3,5-1.3,5.7s-3.9-2.1-5.2-3.9c-3.1-4.2-1-11,3.6-13.2,2-.9,2.8,0,2.8,1.9.1,2.3.1,4.6.1,7Z"/><path class="cls-8" d="M235,86.32a20.45,20.45,0,0,1,0-3.5c.2-1.7-1-4.1,1-5,2.3-1,3.4,1.5,4.7,2.9a9,9,0,0,1-.7,12.7,12.74,12.74,0,0,1-1.9,1.3c-1.8,1-2.9.6-3-1.5s-.1-4.6-.1-6.9Z"/><path class="cls-9" d="M70.66,96.12c-5.1-1.7-7.6-4.9-7.6-9.7s2.5-8,7.6-9.6Z"/><path class="cls-9" d="M75.16,95.82V77.52a8.54,8.54,0,0,1,7.8,8.3C83.26,90.72,80.56,94.22,75.16,95.82Z"/><rect class="cls-4" x="110.96" y="142.72" width="9.6" height="9.6"/><rect class="cls-4" x="155.16" y="85.82" width="37.8" height="6.3"/><rect class="cls-4" x="224.66" y="121.52" width="17.3" height="31"/><rect class="cls-4" x="63.86" y="121.72" width="17.3" height="31"/><rect class="cls-4" x="135.26" y="104.42" width="3.1" height="10.6"/><rect class="cls-4" x="123.76" y="113.42" width="14.5" height="10.6"/><rect class="cls-4" x="123.86" y="98.42" width="14.5" height="10.6"/><rect class="cls-4" x="168.56" y="96.82" width="15.3" height="18.7"/><rect class="cls-4" x="168.56" y="119.62" width="15.3" height="6.4"/><g class="cls-10"><path class="cls-11" d="M150.76,82.42h-33.9c-1.3,0-2.8.4-3.8-.6-7.6-6.7-15.1-13.6-23.5-21.2h61.3l1-3.8c-18-.1-36-.5-53.9-.1-8.9.3-16.4-.9-22-8.4-2.3-3-4.6-2.6-7.4,0-8.4,7.8-17.1,15.3-25.7,23-4.7,4.2-9.4,8.5-14,12.8-.9.9-2.2,1.7-1.1,3.3s2.3.8,3.4,0a9.5,9.5,0,0,1,1.7-1,11.83,11.83,0,0,1,4-3.7c1.6.5,2.5-.6,3.5-1.5,9.1-8.6,19-16.5,28.1-25.2,2.9-2.7,4.9-3.1,7.9-.1,8.1,8.3,17.4,15.4,25.6,23.5,1.4,1.4,2.9,2.7,5.1,2.9a10.11,10.11,0,0,1,4.1,4.1c1.1,1.4,2,3,3.8,3.9s3.9.9,4.1-1c.2-2.2,1.3-1.5,2.3-1.5,7.8.1,15.6,0,23.4,0,2.1,0,4.4.2,6.1-1.4,0-1.3,0-2.7-.1-4v0Z"/><path class="cls-11" d="M89.56,60.62c8.5,7.7,15.9,14.5,23.6,21.3,1.1,1,2.5.6,3.8.6h33.9V60.62H89.56Z"/></g><path class="cls-4" d="M106.76,89.52c-5.6-2.8-9.1-8.1-13.9-11.8-5.5-4.2-10.3-9.3-15.3-14.1-4.9-4.6-5.3-4.4-10.1-.1-10,9.1-20.2,18-30.3,27l-.3-7.8c10.8-9.6,21.7-19.1,32.4-28.8,2.5-2.3,4-2.3,6.5,0,10.3,9.6,20.8,19.1,31.3,28.6C107,84.82,106.86,87.12,106.76,89.52Z"/><path class="cls-4" d="M150.76,92.52H125c-1.7,0-3.9-.6-3.9,2.3a185.19,185.19,0,0,0,0,33.3c0,3.4-.1,6.8-.1,10.2-10,.5-10,.5-10-9.4,0-14.1.1-28.3.2-42.4,1.8.2,2.7,1.8,4,2.8s3,1.5,3.3-.1c.6-4,3.3-2.7,5.4-2.7,9-.1,18,0,27,0C150.76,88.52,150.76,90.52,150.76,92.52Z"/></svg>