<svg id="Layer_1" data-name="Layer 1" xmlns="http://www.w3.org/2000/svg" viewBox="0 0 292.4 194.1"><defs><style>.cls-1{fill:#4c4b4c;}.cls-2{fill:#fff;}.cls-3{fill:#ebebeb;}.cls-4{fill:#fcfcfc;}.cls-5{fill:#ececec;}.cls-6{fill:#4e4d4e;}.cls-7{fill:#f7f6f6;}.cls-8{fill:#e9e9e9;}.cls-9{fill:#f7f8f8;}.cls-10{fill:#eeedee;}.cls-11{fill:#fefefe;}.cls-12{opacity:0.5;}.cls-13{fill:#ec1e81;}</style></defs><title>7 windows-04-04</title><path class="cls-1" d="M162.78,109.63c-.4,1.4,0,3.2,0,4.6Z"/><path class="cls-1" d="M166.68,171.23h-1.8A2.78,2.78,0,0,0,166.68,171.23Z"/><path class="cls-1" d="M267.88,174.93c-3.2-.1-4.4-.7-4.4-4.3.2-22,.1-44.1.1-66.1a8,8,0,0,1,.3-3.1c2.5-4.6,2.5-4.7-2.9-4.7-11.7,0-23.3-.1-34.9.1-3.8.1-5.3-.6-5.2-4.9.3-23.2.3-46.5.1-69.7,0-3.8.7-5.6,4.8-4.9,1.6.3,4,.3,3.9-2.1-.1-2.6-2.5-1.8-4.1-1.8-15.6-.1-31.2-.1-46.8-.1a26.18,26.18,0,0,0-5.6.9L53.48,47.83c-2.4.7-7.1.2-6.2,3.7,1,3.8,4.9.6,7.1,0,3.5-1,4.4-.5,4.4,3.3-.2,13.7.1,27.4-.2,41.1-.1,4.3,1.5,5.6,5.4,5.1,1.1-1.1.6-2.6,1.1-3.9H65c-2.7.1-2.4-1.8-2.4-3.6V52.93c0-2.5.7-3.5,3.3-4.2,15.4-4.2,30.8-8.7,46.2-13h0c1.6-.7,3.1-1.5,4.9-1.3l0,.27a2.68,2.68,0,0,1,.07-.27l11.4-3,0,0,0-.13L143.77,27a.13.13,0,0,0,0-.06c1.6-1.3,3.7-1,5.5-1.7h0l4.2-1,0,.1,20.37-5.74a.81.81,0,0,0,0-.16c1.6-1.3,3.6-1,5.4-.9v.28c.07-.09.12-.19.2-.28h16.6l.1.14v0h4.2c5.3-.1,12.1-2.2,15.6.7,3.3,2.8,1,9.8,1,14.9.1,11.4-.1,22.9-.2,34.3l-.09,0,.19,3.45c.1,7.4,0,14.8.2,22.3.1,2.6-.5,3.6-3.4,3.6-10.4-.2-20.7-.2-31.1,0-2.8,0-3.5-.9-3.5-3.5.1-7.3,0-14.5,0-21.8l0,0a4.79,4.79,0,0,0-3.82-.27h0c0,7.3-.1,14.6.1,21.8.1,2.9-.8,3.8-3.8,3.8-5.5-.2-11.1.1-16.6.1-1.4,0-3.1,0-3.4,1.7-.3,2.2,1.6,2.4,3.2,2.3,2.6-.2,2.7,1.3,2.7,3.2,0,22.4-.1,44.8,0,67.1,0,2.7-.8,3.6-3.5,3.6q-43.95-.15-87.9,0c-2.3,0-3.6-.4-3.4-3.1a76.6,76.6,0,0,0,0-8.3c-.1-2,.58-2.95,2.41-3.08v0c-.4-1.2-.8-2.3-1.3-3.5v-.09h0c-4-.5-5.8,1-5.3,5.2.3,2.9-.1,5.9.1,8.8.1,2.6-.1,4.5-3.5,4-1.3-.2-2.6.5-2.5,1.9s1.3,2,2.6,2c3.2.1,6.3.2,9.4.2q101.4.15,202.9-.2c2.6,0,7.3,1.9,7.3-2.1C274.88,173,270.28,174.93,267.88,174.93Zm-39.8-70v66.3h-.5c-.3.8-1.4,1-2.2,1h-59.8a3.87,3.87,0,0,1-3-.9,3,3,0,0,1-.6-1.8,75,75,0,0,1-.1-10.6c0-3.7,0-7.5.1-11.2v-22.5c0-6.5-.1-13-.1-19.5,0-1.4.1-3.2,1.3-4a4.34,4.34,0,0,1,2.5-.5h57.7c1.4,0,3.1.1,4,1.2a3.51,3.51,0,0,1,.7,2.5Zm27.3,69.4c-6-.3-12.1-.2-18.2,0-2.8.1-3.5-.9-3.5-3.6.1-22.4.1-44.7,0-67.1,0-2.9,1.1-3.4,3.7-3.3,6.2.1,12.5.2,18.7,0,3-.1,3.8.9,3.7,3.8-.2,11.2-.1,22.3-.1,33.3,0,10.8-.1,21.5.1,32.2C259.88,173,259.18,174.53,255.38,174.33Z"/><path class="cls-1" d="M162.78,161.36c0,1.93-.06,3.84-.1,5.77a3.35,3.35,0,0,0,.1,2.13Z"/><path class="cls-1" d="M64,101c-3.9.5-5.5-.8-5.4-5.1.3-13.7,0-27.4.2-41.1,0-3.8-.9-4.3-4.4-3.3-2.2.6-6.1,3.8-7.1,0-.9-3.5,3.8-3,6.2-3.7l119.7-33.6a26.18,26.18,0,0,1,5.6-.9c15.6,0,31.2,0,46.8.1,1.6,0,4-.8,4.1,1.8.1,2.4-2.3,2.4-3.9,2.1-4.1-.7-4.8,1.1-4.8,4.9.2,23.2.2,46.5-.1,69.7-.1,4.3,1.4,5,5.2,4.9,11.6-.2,23.2-.1,34.9-.1,5.4,0,5.4.1,2.9,4.7a8,8,0,0,0-.3,3.1c0,22,.1,44.1-.1,66.1,0,3.6,1.2,4.2,4.4,4.3,2.4,0,7-1.9,6.9,1.7,0,4-4.7,2.1-7.3,2.1q-101.4.3-202.9.2c-3.1,0-6.2-.1-9.4-.2-1.3,0-2.5-.6-2.6-2s1.2-2.1,2.5-1.9c3.4.5,3.6-1.4,3.5-4-.2-2.9.2-5.9-.1-8.8-.5-4.2,1.3-5.7,5.3-5.2,2.2.6,1.9,2.3,1.6,3.9a4.18,4.18,0,0,0-.4,1c-2.1,10.2-1,11.6,9.2,11.6h74.3c7,0,7.3-.3,7.3-7.3v-56.1c0-3.4-.2-6.3-3.6-8.5-2.9-1.9-1.8-4.9,2-5.7,4.3-.9,8.6-.3,13-.4,5.7-.2,6-.6,6.3-6.3.3-6-1.1-12.1,1.2-18,2-1.6,3.7-.9,5.1.8,2,5.7.7,11.7,1,17.5.3,5.4.6,5.9,6,6,7.8.1,15.6,0,23.3,0,3.5,0,5-1.4,5-4.9,0-6.4-.1-12.8.1-19.2v-3.8c-.2-13.8,0-27.6-.1-41.3,0-6.3-.5-6.6-6.8-6.7-2.6,0-5.2.1-7.7-.1-1.6,0-3.1.1-4.7,0-5.2.1-10.5.1-15.7,0a16.88,16.88,0,0,0-5.9.5c-6.7,1.8-13.5,3.6-20.2,5.5-1.5.4-3,.9-4.5,1.2-2,.6-4,.9-5.9,1.6-4.9,1.8-10.1,2.9-15.1,4.3-3.8,1-7.6,2.2-11.5,3.2-2.2.1-4.1,1.2-6.2,2-13.6,4.1-27.3,7.7-41,11.6-3.9,1.1-5.8,2.9-5.8,7.2.2,11.4,0,22.9,0,34.3a15.89,15.89,0,0,0,1.3,6.1C65.88,98.43,66.68,100.43,64,101Z"/><path class="cls-1" d="M64,101c1.1-1.1.6-2.6,1.1-3.9,1.1-1.7,2.9-1.8,4.6-1.8,5-.2,10-.2,15.1,0,2.4.1,5,.4,5.7,3.5-.5,3.2-3,3.4-5.5,3.7a64.62,64.62,0,0,1-8.8.1c-3.6-.1-5.4,1.2-5.4,5.1.1,13.9.1,27.7,0,41.6,0,3.7,1.4,5.3,5.2,5.3h56.1c3.8,0,5.2-1.6,5.2-5.3-.1-13.7-.1-27.4,0-41,0-4.4-2-5.7-6-5.6-9.2.1-18.4.2-27.5,0-2.9-.1-6.1.2-7-3.8.9-3.3,3.7-3.4,6.2-3.5q17.4-.3,34.8,0c5.8.1,7.6,2,7.8,8,.3,7.4.1,14.9.1,22.3,0,9.2.1,18.4-.1,27.5-.2,7.2-2.6,9.8-9.8,9.8-21.5.2-43,.1-64.4,0-2.4,0-5,.1-6.3-2.6-.4-1.2-.8-2.3-1.3-3.5C64.58,138.23,64.38,119.63,64,101Z"/><path class="cls-2" d="M65.18,160.43c1.6.9,3.4.6,5.1.6,22.3,0,44.7-.1,67,.1,5,0,6.6-1.6,6.5-6.6q-.3-26,0-51.9c.1-4.5-1.4-6-6-5.8-11.8.3-23.5.1-35.3.1-2,0-4.3-.6-5.3,2a5.26,5.26,0,0,1-7.2,0,3.77,3.77,0,0,0-3.8-2.1c-7.1.2-14.1.2-21.2.3-2.7.1-2.4-1.8-2.4-3.6V52.93c0-2.5.7-3.5,3.3-4.2,15.4-4.2,30.8-8.7,46.2-13,2.5,1.6,2.2,4.1,2.3,6.5V63c0,5.8.4,6.2,6.2,6.2,15.9,0,31.8-.1,47.7.1,2.5,0,5.3-.8,7,2,0,7.3-.1,14.6.1,21.8.1,2.9-.8,3.8-3.8,3.8-5.5-.2-11.1.1-16.6.1-1.4,0-3.1,0-3.4,1.7-.3,2.2,1.6,2.4,3.2,2.3,2.6-.2,2.7,1.3,2.7,3.2,0,22.4-.1,44.8,0,67.1,0,2.7-.8,3.6-3.5,3.6q-43.95-.15-87.9,0c-2.3,0-3.6-.4-3.4-3.1a76.6,76.6,0,0,0,0-8.3C62.58,161.53,63.28,160.53,65.18,160.43Z"/><path class="cls-3" d="M259.68,137.43c0,10.8-.1,21.5.1,32.2.1,3.4-.6,4.9-4.4,4.7-6-.3-12.1-.2-18.2,0-2.8.1-3.5-.9-3.5-3.6.1-22.4.1-44.7,0-67.1,0-2.9,1.1-3.4,3.7-3.3,6.2.1,12.5.2,18.7,0,3-.1,3.8.9,3.7,3.8-.2,11.2-.1,22.3-.1,33.3Z"/><path class="cls-4" d="M200.38,17.63c5.3-.1,12.1-2.2,15.6.7,3.3,2.8,1,9.8,1,14.9.1,11.4-.1,22.9-.2,34.3-4.8,3-10.1,2.1-15,.9-3.9-.9-2.5-5.2-3.5-8.7a22.39,22.39,0,0,0-.7,4.4c-.9,4.8-2.2,5.3-12.2,5-5.7-.2-7-1.1-7.4-5.8s-.1-9.3-.1-14V24.43c0-2.4-.1-4.9,1.6-6.9h16.6c1.8,2,1.5,4.5,1.5,6.9.1,5.8-.2,11.7.6,17.5.6-5.7.4-11.3.5-17C198.88,22.53,198.48,19.83,200.38,17.63Z"/><path class="cls-5" d="M216.88,71c.1,7.4,0,14.8.2,22.3.1,2.6-.5,3.6-3.4,3.6-10.4-.2-20.7-.2-31.1,0-2.8,0-3.5-.9-3.5-3.5.1-7.3,0-14.5,0-21.8.9-2.2,2.9-2.3,4.7-2.3,9.4-.2,18.9-.1,28.3,0A5.85,5.85,0,0,1,216.88,71Z"/><path class="cls-1" d="M216.88,71c-12.6.3-25.2-.8-37.7.6a4.82,4.82,0,0,0-3.9-.3c-18.9-.1-37.7-.4-56.6-.2-5,0-6.4-1.4-6.3-6.4.2-9.7.7-19.4-.3-29,1.6-.7,3.1-1.5,4.9-1.3,1.1,7.9.3,15.8.4,23.8.2,7.6.4,7.9,7.9,7.9,4.2,0,8.3,0,12.4.1,1.9.1,3.9.4,5.1-1.6,1.4-7.5.3-15.1.6-22.7.2-5-.5-10,.4-15,1.6-1.3,3.7-1,5.5-1.7,1.8,2,1.4,4.5,1.4,6.9.1,8.3,0,16.6,0,24.9,0,8.9,0,8.9,8.7,9,2.9,0,5.9.2,8.8.1,1.7,0,3.5.1,4.6-1.6,1.2-3.4.6-6.9.7-10.3.3-11.9-.4-23.8.4-35.8,1.6-1.3,3.6-1,5.4-.9,0,14.9.1,29.8-.2,44.6-.1,4.5,1.5,5.9,5.7,5.3a7.39,7.39,0,0,1,2.1,0c8.4,0,8.4,0,9.1-8.4.1-1.5,0-3.5,2.1-3.5s1.9,2.1,2,3.6c.6,8.4.6,8.4,9.3,8.3l7.3-.1Z"/><path class="cls-4" d="M174.08,18.53c1.4.9,1.2,2.4,1.2,3.7,0,14.8-.1,29.6-.1,44.4-3.4,1.2-6.9.2-10.3.5-2.2.2-3.1-1.3-3.6-3-3.4-12-5.8-24.3-8.6-36.4a3.78,3.78,0,0,1,.8-3.4Z"/><path class="cls-4" d="M145,66.63c-5.5,2.2-11.2.8-16.8.9-12.1.3-12.3.1-12.1-11.9.1-7.1-1.1-14.2,1-21.2l11.4-3c2.4,1.6,2.8,4.3,3.3,6.7,1.2,5.7,3,11.3,3.8,17.1S138.48,65.63,145,66.63Z"/><path class="cls-4" d="M145,66.63c-7.9,0-7.9,0-9.8-7.4-2.3-9.3-4.5-18.6-6.7-27.9l15.5-4.4c1.2.8,1.2,2,1.2,3.2C145.08,42.33,145,54.53,145,66.63Z"/><path class="cls-4" d="M153.48,24.23c2.8,12.4,5.8,24.8,8.4,37.3.9,4.2,2.8,5.8,7,5.2a43,43,0,0,1,6.2-.1c-8,2.2-16,.6-24.1.8-2.2,0-1.8-2.2-1.8-3.7,0-12.8,0-25.6.1-38.5Z"/><path class="cls-1" d="M200.38,17.63c0,8.3,0,16.6-.1,25,0,1.7.2,4-2.3,3.8-2-.2-1.8-2.2-1.8-3.8v-25Z"/><path class="cls-4" d="M90,98.93h7.2c1,2.6,3.3,2.1,5.3,2.1,10.6,0,21.2.1,31.7-.1,3.6-.1,4.8.9,4.8,4.6-.2,15.4-.2,30.9,0,46.3,0,3.5-1.1,4.4-4.5,4.4-20.3-.1-40.6-.2-60.9,0-3.8,0-4.6-1.4-4.6-4.9.1-15.3.1-30.5,0-45.8,0-3.6,1-5,4.7-4.7s7.6.1,11.4.1C87.08,101,89.08,101.13,90,98.93Z"/><path class="cls-6" d="M70.88,67.53a15.35,15.35,0,1,1,15.5,15.6h-.7A15.39,15.39,0,0,1,70.88,67.53Z"/><path class="cls-7" d="M97.38,67.73a11.18,11.18,0,0,1-11,11.4h0a11.46,11.46,0,1,1-.9-22.9H86a11.18,11.18,0,0,1,11.4,11Z"/><path class="cls-8" d="M95.38,74.33c-.5-5.6-3.4-10.7-3.4-16.4C98.48,62.43,99.58,67.73,95.38,74.33Z"/><path class="cls-3" d="M82.88,56.63c.2,6.6,2.4,12.6,3.8,18.9.4,2.1,1.5,3,3.4,2.8-3.3,1.9-6.4,1.3-9.4-.9-1.3-5.4-3.1-10.6-3.5-16.2A8.07,8.07,0,0,1,82.88,56.63Z"/><rect class="cls-9" x="162.78" y="104.93" width="65.3" height="66.3"/><path class="cls-10" d="M163,141.23c0,8.6-.1,17.2-.3,25.9a3.3,3.3,0,0,0,2.2,4.1,2.78,2.78,0,0,0,1.8,0h60.9c-.3.8-1.4,1-2.2,1h-59.8a3.87,3.87,0,0,1-3-.9,3,3,0,0,1-.6-1.8,75,75,0,0,1-.1-10.6c0-3.7,0-7.5.1-11.2v-22.5c0-6.5-.1-13-.1-19.5,0-1.4.1-3.2,1.3-4a4.34,4.34,0,0,1,2.5-.5h57.7c1.4,0,3.1.1,4,1.2,1.1,1.3.7,3.2.3,4.9h-60.1c-1.8,0-4.3.2-4.8,2.3-.4,1.4,0,3.2,0,4.6,0,2,.1,4,.1,6,0,3.9.1,7.8.1,11.7C163.08,134.83,163.08,138,163,141.23Z"/><path class="cls-2" d="M227.68,158.33h-55.9a26.8,26.8,0,0,1-4-.2,1.81,1.81,0,0,1-.1-3.6h.1a26.8,26.8,0,0,1,4-.2h55.9v4Z"/><path class="cls-2" d="M227.28,123.63h-35.4c-1.7,0-4.3.5-4.1-2.2.1-2.1,2.5-1.7,4.1-1.8h35.4v4Z"/><path class="cls-11" d="M162.78,141v-3.9c19.1,0,38.3-.1,57.4,0,1.7,0,4.8-1.3,5,1.5.2,3.1-3,2.4-5,2.4Z"/><path class="cls-2" d="M162.48,124.33v-3.9h14.4c1.4,0,2.9.2,2.9,2s-1.5,2-2.9,2C172.08,124.43,167.28,124.33,162.48,124.33Z"/><g class="cls-12"><path class="cls-13" d="M145.63,102.4c-.3-6-2-7.9-7.8-8q-17.4-.3-34.8,0c-2.6,0-5.3.2-6.2,3.5V98h.4c1,2.6,3.3,2.1,5.3,2.1,10.6,0,21.2.1,31.7-.1,3.6-.1,4.8.9,4.8,4.6-.2,15.4-.2,30.9,0,46.3,0,3.5-1.1,4.4-4.5,4.4-20.3-.1-40.6-.2-60.9,0-3.8,0-4.6-1.4-4.6-4.9.1-15.3.1-30.5,0-45.8,0-3.6,1-5,4.7-4.7s7.6.1,11.4.1c1.9,0,3.9.1,4.8-2.1h.4v-.1c-.7-3.1-3.2-3.4-5.7-3.5-5.1-.2-10.1-.2-15.1,0-1.7.1-3.5.2-4.6,1.8-.4,1.3,0,2.8-1.1,3.9.4,18.6.6,37.2-.1,55.8a36.16,36.16,0,0,0,1.3,3.5c1.3,2.8,3.9,2.6,6.3,2.6,21.4.1,43,.2,64.4,0,7.2-.1,9.6-2.6,9.8-9.8.2-9.2.1-18.3.1-27.5C145.63,117.3,145.93,109.8,145.63,102.4Z"/><path class="cls-13" d="M216.93,32.3c0-5.1,2.3-12.1-1-14.9-3.5-2.9-10.3-.8-15.6-.7-1.9,2.2-1.5,4.8-1.6,7.3-.1,5.7.1,11.3-.5,17-.8-5.8-.5-11.7-.6-17.5,0-2.4.3-4.9-1.5-6.9h-16.6c0,14.9.1,29.8-.2,44.6-.1,4.5,1.5,5.9,5.7,5.3a7.39,7.39,0,0,1,2.1,0c8.4,0,8.4,0,9.1-8.5.1-1.5,0-3.5,2.1-3.5s1.9,2.1,2,3.6c.6,8.4.6,8.4,9.3,8.3l7.2-.1C216.83,55.2,217,43.7,216.93,32.3Z"/><path class="cls-13" d="M200.23,58.3c-.1-1.5.1-3.5-2-3.6s-2,1.9-2.1,3.5c-.7,8.5-.7,8.5-9.1,8.5a7.39,7.39,0,0,0-2.1,0c-4.2.6-5.8-.8-5.7-5.3.3-14.9.2-29.8.2-44.6h0c-1.9-.1-3.8-.4-5.4.9h0c1.4.9,1.2,2.3,1.2,3.7,0,14.8-.1,29.6-.1,44.4a10.62,10.62,0,0,1-1.9.4c-7.4,1.5-14.8.2-22.2.3-2.2,0-1.8-2.2-1.8-3.7,0-12.8,0-25.6.1-38.4-1.8.7-3.9.4-5.5,1.7,1.2.8,1.2,2,1.2,3.2,0,12.1-.1,24.3-.1,36.4-5.5,2.2-11.2.8-16.8.9-12.1.3-12.3.1-12.1-11.9.1-7-1.1-14.1,1-21.1v-.1c-1.8-.2-3.3.7-4.9,1.3,1.1,9.6.5,19.3.3,29-.1,5,1.3,6.4,6.3,6.4,18.8-.2,37.7.1,56.5.2,1.3-.6,2.6-.1,3.9.3,12.5-1.4,25.1-.3,37.7-.6l-.1-3.5h0l-7.2.1C200.83,66.7,200.83,66.7,200.23,58.3Z"/><path class="cls-13" d="M168.83,65.7a43,43,0,0,1,6.2-.1,11.63,11.63,0,0,1-1.8.4,16.25,16.25,0,0,0,1.9-.4c.1-14.8.1-29.6.1-44.4,0-1.3.2-2.8-1.2-3.7h0l-20.5,5.7c2.8,12.4,5.8,24.8,8.4,37.2C162.73,64.7,164.63,66.4,168.83,65.7Z"/><path class="cls-13" d="M116,54.6c-.2,12-.1,12.2,12.1,11.9,5.6-.1,11.3,1.3,16.8-.9-7.8,0-7.9,0-9.8-7.4-2.3-9.3-4.5-18.6-6.7-27.9l-11.4,3v.1C114.93,40.5,116.13,47.6,116,54.6Z"/><path class="cls-13" d="M144.93,65.7c0-12.1.1-24.3.1-36.4,0-1.2.1-2.4-1.2-3.2h0l-15.5,4.4h0c2.2,9.3,4.4,18.6,6.7,27.9C137,65.7,137.13,65.7,144.93,65.7Z"/><path class="cls-13" d="M151,66.4c7.5-.2,14.8,1.2,22.2-.3.6-.1,1.2-.3,1.8-.4a42.55,42.55,0,0,0-6.2.1c-4.2.6-6.1-1-7-5.2-2.6-12.4-5.6-24.8-8.4-37.2h0l-4.1,1h0c-.1,12.8-.1,25.6-.1,38.4C149.23,64.2,148.83,66.4,151,66.4Z"/><path class="cls-13" d="M85.13,100.1c-3.8,0-7.7.2-11.4-.1s-4.7,1-4.7,4.7c.1,15.3.1,30.5,0,45.8,0,3.5.8,4.9,4.6,4.9,20.3-.2,40.6-.1,60.9,0,3.4,0,4.5-.9,4.5-4.4-.2-15.4-.2-30.9,0-46.3,0-3.7-1.2-4.7-4.8-4.6-10.6.2-21.2.1-31.7.1-2.1,0-4.3.4-5.3-2.1h-7.1C89,100.2,87,100.1,85.13,100.1Z"/></g></svg>