<svg id="Layer_1" data-name="Layer 1" xmlns="http://www.w3.org/2000/svg" viewBox="0 0 292.4 194.1"><defs><style>.cls-1{fill:#dcdbda;}.cls-2{fill:#4b4b4b;}.cls-3{fill:#dbdada;}.cls-4{fill:#fff;}.cls-5{fill:#ebecec;}.cls-6{fill:#ebebec;}.cls-7{fill:#ececec;}.cls-8{opacity:0.5;}.cls-9{fill:#ed2183;}</style></defs><title>7 windows-04-04</title><path class="cls-1" d="M85.08,68.47c0-14.2-.1-28.3,0-42.5,0-2.5-.2-4.4-2.9-5.6a5.15,5.15,0,0,1-2.9-6.3,6,6,0,0,1,5.3-4.6c1.1-.1,2.3-.1,3.5-.1H216a16,16,0,0,1,4.4.3,5.64,5.64,0,0,1,4.4,4.9c.4,2.3-.5,4.7-2.6,5.5-3.5,1.4-3.3,4-3.3,6.9v41.5c-2.1.6-3.7.1-4.8-1.9-1.4-6.5-.5-13.2-.6-19.8s-.2-12.9,0-19.3c0-4.3-2.9-4.6-6.1-4.6H97.28c-3.3,0-6.7-.2-6.7,4.5.2,11.4,0,22.8.1,34.2a13.48,13.48,0,0,1-.6,4.9A3.93,3.93,0,0,1,85.08,68.47Z"/><path class="cls-2" d="M215,67.27c1.4.2,2.9.1,4,1.3v53.8c-1,2.1-2.9,2.4-4.8,2.5q-43.8.45-87.6,0c-1.6,0-3.2.1-4.8,0-10.7.1-21.4.2-32,0-2-.1-3.8-.4-4.7-2.5V68.47c1.1-1.1,2.6-1.1,4-1.3,2-1.6,4.4-1.4,6.7-1.4h112.6C210.68,65.77,213,65.57,215,67.27Z"/><path class="cls-3" d="M85.08,122.27c1.1,1.1,2.6,1.1,4,1.3,1.8,1.9,1.4,4.4,1.5,6.6.1,8.8,0,17.6,0,26.4a17.06,17.06,0,0,0,.3,4.5c.2,1.3.8,2.2,2.3,2.2s2-1,2.2-2.3c.5-3,.2-6,.3-9v-2c0-11.2,4.9-14.8,15.9-11.8,3.4.9,4.8,3.3,5,6.6.3,4.2.1,8.3.1,12.5a13,13,0,0,0,.5,4.4,1.59,1.59,0,0,0,1.4,1.3,1.57,1.57,0,0,0,1.7-1.4,17.15,17.15,0,0,0,.4-4.5v-26.9c0-2.3-.3-4.7,1.5-6.6h4.1c1.9,2.1,1.5,4.7,1.5,7.1.1,9.2.1,18.3,0,27.5-.1,4,1.3,5.7,5.5,5.7q37.5-.15,74.9,0c4.2,0,5.5-1.7,5.5-5.7-.1-9.2-.1-18.3,0-27.5,0-2.4-.4-5,1.5-7.1,1.4-.2,2.9-.1,4-1.3,0,12.5.3,25-.1,37.5-.1,4.8,1.5,6.2,6,5.7a47,47,0,0,1,7.5,0c1.2.1,2.4.6,2.3,2.1a2.06,2.06,0,0,1-2.1,1.7c-1.3.1-2.7.1-4,.1q-78,0-155.9-.1c-2.1,0-5.8,1.2-5.9-1.8,0-3.6,3.9-2.1,6-2.1,12.3-.2,12.3-.1,12.3-12.2C85,143,85.08,132.67,85.08,122.27Z"/><path class="cls-4" d="M215,67.27l-113,.1c-4.3,0-8.7-.1-13-.2V27.37c6.1-2.3,12.2-2.7,18.2.3-1.1,8.1-.6,16.3-.6,24.4,0,3.9,1.6,5.7,5.6,5.9,13.3.7,13.4.6,13.4-12.6,0-5.8.3-11.6-.8-17.4,4.1-2.8,12.1-2.9,16.5-.1-1.3,7.9-.8,15.9-.7,23.9,0,5.2,1,6,6.2,6.3,12.9.5,12.9.5,12.9-12.1,0-6,.3-12-.8-17.9,4.1-2.8,12.1-2.9,16.5-.1-1.3,7.9-.8,15.8-.7,23.8,0,5.3,1,6.1,6,6.3,13,.6,13,.6,13-12.4,0-6,.2-11.9-.7-17.8a3.73,3.73,0,0,1,3.4-1.7c6.3.2,12.7-1.7,18.8,1.4Z"/><path class="cls-5" d="M107,28.07l-9.5-.1c-1.2,0-7.6.7-8.3-.5a4,4,0,0,1,1.1-5.2,8,8,0,0,1,4.5-.9h114.3c1.7,0,5.4,1,6.1,2.7,1.8,3.9-5,3.3-7.1,3.4-10.5.5-21.1.6-31.6.7-15,.1-30,.2-45,.1-7.6,0-15.2-.1-22.8-.2Z"/><path class="cls-6" d="M152,17.37H87.58c-1.6-.1-3.9.4-4-1.9,0-2.7,2.5-1.9,4.2-2.1h129c1.6.1,3.9-.2,3.7,2.1s-2.4,1.9-4,1.9Z"/><path class="cls-4" d="M151.58,119.37c-19.5,0-39-.1-58.4.1-3.3,0-4.2-.9-4.1-4.1.2-13.3.2-26.7,0-40,0-3.3,1-4.1,4.2-4.1q59,.15,117.9,0c3.3,0,4.1.9,4.1,4.1-.2,13.3-.2,26.7,0,40,.1,3.4-1,4.1-4.2,4.1C191.08,119.27,171.28,119.37,151.58,119.37Z"/><path class="cls-4" d="M215,123.57c0,12.3-.1,24.6.1,37,.1,3.5-.6,5-4.6,5-26.6-.2-53.3-.2-79.9,0-4,0-4.7-1.5-4.6-5,.2-12.3.1-24.6.1-37Z"/><path class="cls-4" d="M122,123.57V161c0,2.5,0,4.5-3.6,4.5s-3.5-2-3.5-4.5c.1-5.2-.1-10.3.1-15.5.1-4.1-1.4-6.1-5.8-6.1-12.7.1-12.4-1.1-12.3,12.1,0,3.3-.2,6.7,0,10,.2,3.1-1,4.1-4,4s-4.1-.9-4.1-4c.2-12.6.1-25.3.1-37.9Z"/><path class="cls-1" d="M106.28,28.87a34.35,34.35,0,0,1,18,0c1.8.9,2,2.4,2,4.2v21.5c0,3.4-1.4,5.3-5,5.3h-12c-2.9,0-4.9-1.3-5-4.3-.1-7.8,0-15.7,0-23.5A3.68,3.68,0,0,1,106.28,28.87Z"/><path class="cls-1" d="M139,28.37a34.35,34.35,0,0,1,18,0c1.8.9,2,2.4,2,4.2,0,7.2-.1,14.3,0,21.5,0,3.4-1.4,5.3-5,5.3H142c-2.9,0-4.9-1.3-5-4.3-.1-7.8,0-15.7,0-23.5A3.45,3.45,0,0,1,139,28.37Z"/><path class="cls-1" d="M174.88,28.57a34.35,34.35,0,0,1,18,0c1.8.9,2,2.4,2,4.2,0,7.2-.1,14.3,0,21.5,0,3.4-1.4,5.3-5,5.3h-12c-2.9,0-4.9-1.3-5-4.3-.1-7.8,0-15.7,0-23.5A3.3,3.3,0,0,1,174.88,28.57Z"/><path class="cls-2" d="M139.08,94.77c0-3.5.1-7,0-10.5-.1-3.7,1.6-5.6,5.4-5.5s7.6,0,11.5,0c3.5,0,5.2,1.6,5.2,5.1,0,7.1-.1,14.3,0,21.4,0,3.7-1.6,5.5-5.4,5.5s-7.6-.1-11.5,0c-3.5,0-5.2-1.6-5.2-5.1Z"/><path class="cls-2" d="M194.88,95.27c0,3.5-.1,7,0,10.5.1,3.7-1.5,5.6-5.3,5.5s-7.6-.1-11.5,0c-3.5.1-5.3-1.5-5.3-5.1V84.27c0-3.2,1.5-5,4.8-5h12.5c3.3,0,4.8,1.8,4.8,5.1Z"/><path class="cls-2" d="M106.48,88.57c2,.7,2.2,2.3,2.1,4v7c.1,9.1-1.3,7.5,8,8,4.7.3,6.6-1,6.1-6a116.93,116.93,0,0,1-.1-14.5c.1-2.9-1-4-3.8-3.7-4.2.4-8.7-1.3-12.4,2.1-2.5-3-1.8-5.7,1.9-5.9,4.6-.3,9.3-.2,14-.1a3.9,3.9,0,0,1,4.1,3.6v.5c.1,7.8.1,15.6,0,23.5,0,2.8-1.6,4.3-4.4,4.3-4.3.1-8.7,0-13,0-2.3,0-4.3-1.1-4.4-3.3-.3-6-.1-12,0-18C104.78,89.67,105.88,89.17,106.48,88.57Z"/><path class="cls-1" d="M161.38,145.57v11c0,3.5-1.7,5.2-5.2,5.1h-12c-3.3,0-4.9-1.7-4.9-4.9v-22.4c0-3,1.7-4.6,4.7-4.6h12.4c3.3,0,4.9,1.7,4.9,4.9C161.28,138.27,161.38,141.87,161.38,145.57Z"/><path class="cls-1" d="M194.48,146.17v10.4c0,3.3-1.7,4.9-4.9,4.9h-12.4c-3,0-4.6-1.7-4.6-4.7v-22.4c0-3.3,1.7-4.9,4.9-4.9h12.4c3,0,4.6,1.7,4.6,4.7Z"/><rect class="cls-7" x="143.28" y="133.27" width="14" height="24.8"/><rect class="cls-7" x="176.38" y="133.17" width="14" height="24.8"/><rect class="cls-7" x="140.98" y="30.87" width="14" height="24.8"/><rect class="cls-7" x="108.38" y="31.47" width="14" height="24.8"/><rect class="cls-7" x="176.88" y="31.07" width="14" height="24.8"/><rect class="cls-7" x="100.58" y="141.87" width="10.3" height="22.2"/><rect class="cls-4" x="176.98" y="82.97" width="13.9" height="24.7"/><rect class="cls-4" x="143.08" y="82.47" width="13.9" height="24.7"/><rect class="cls-4" x="107.28" y="83.07" width="16.7" height="24.7"/><g class="cls-8"><path class="cls-9" d="M155.88,78.77c-3.8,0-7.7.1-11.5,0s-5.5,1.7-5.4,5.5c.1,3.5,0,7,0,10.5v11c0,3.5,1.7,5.1,5.2,5.1,3.8-.1,7.7-.1,11.5,0s5.4-1.7,5.4-5.5c-.1-7.1,0-14.3,0-21.4C161.08,80.37,159.38,78.77,155.88,78.77Zm1.1,28.4h-13.9V82.47H157Z"/><path class="cls-9" d="M194.88,95.27v-11c0-3.2-1.4-5-4.8-5h-12.5c-3.3,0-4.8,1.8-4.8,5v21.9c0,3.6,1.8,5.1,5.3,5.1,3.8-.1,7.7-.1,11.5,0s5.4-1.8,5.3-5.5C194.78,102.27,194.88,98.77,194.88,95.27Zm-4.1,12.3h-13.9V82.87h13.9Z"/><path class="cls-9" d="M126.58,83.07a3.9,3.9,0,0,0-4.1-3.6,130.58,130.58,0,0,0-14,.1c-3.7.3-4.4,3-1.9,6a5.55,5.55,0,0,1,.8-.6v-1.8h16.7v24.7h-16.8V89a2,2,0,0,0-.8-.4c-.6.6-1.7,1.1-1.7,1.6-.1,6-.3,12,0,18,.1,2.2,2.1,3.3,4.4,3.3,4.3,0,8.7.1,13,0,2.8,0,4.4-1.6,4.4-4.3.1-7.8.1-15.6,0-23.5Z"/><rect class="cls-9" x="176.88" y="82.87" width="13.9" height="24.7"/><rect class="cls-9" x="143.08" y="82.47" width="13.9" height="24.7"/><polygon class="cls-9" points="123.88 107.77 123.88 83.07 107.28 83.07 107.28 84.87 107.28 88.97 107.28 107.77 123.88 107.77"/></g></svg>