<svg id="Layer_1" data-name="Layer 1" xmlns="http://www.w3.org/2000/svg" viewBox="0 0 292.4 194.1"><defs><style>.cls-1{fill:#4b4b4b;}.cls-2{fill:#4c4b4c;}.cls-3{fill:#4c4c4c;}.cls-4{fill:#b52164;}.cls-4,.cls-5{opacity:0.5;isolation:isolate;}.cls-5{fill:#ba1f67;}.cls-6{fill:#f6f5f6;}.cls-7{fill:#605e5e;}.cls-8{fill:#f7f8f8;}.cls-9{fill:#fff;}.cls-10{fill:#f7f7f7;}.cls-11{fill:#fdfdfd;}.cls-12{fill:#f5f5f5;}.cls-13{fill:#efefef;}.cls-14{fill:#efeeee;}.cls-15{fill:#f4f4f4;}.cls-16{fill:#f6f6f6;}.cls-17{fill:#e8e8e8;}.cls-18{fill:#f7f7f8;}.cls-19{fill:#fcfcfb;}.cls-20{fill:#fbfbfb;}.cls-21{fill:#545454;}.cls-22{fill:#f6f5f5;}.cls-23{fill:#f3f2f2;}.cls-24{fill:#fffefe;}.cls-25{fill:#fefefe;}.cls-26{fill:#6f6e6e;}.cls-27{fill:#696868;}.cls-28{fill:#535353;}.cls-29{fill:#777676;}.cls-30{fill:#5e5e5e;}.cls-31{fill:#ddd;}</style></defs><title>7 windows-04-04</title><path class="cls-1" d="M127.94,122.13c0-5.3-.1-10.7-.1-16,2.5-.6,4,.8,4.9,2.9.7,2.6.5,5.3.5,7.9,0,11.3-.1,22.6.1,33.9.1,5.8,0,11.3-5.1,15.4a6.42,6.42,0,0,0-1.9,3.4c-1.1,3.1-.2,4.9,3.3,4.9,4.7.1,9.3.1,14,0,2.4-.1,3.7-1.3,3.7-3.7.1-13,.2-26-.1-38.9-.1-1.9-1.4-3.3-2.3-4.9-1.6-2.7-.6-4.4,2.4-5.1a16.67,16.67,0,0,1,5-.2c4.7.5,5.6,2.2,2.9,5.9a8.65,8.65,0,0,0-1.7,5.6c0,12,.1,24-.1,35.9,0,4.1,1.6,5.7,5.6,5.5,3.5-.2,7-.1,10.5,0,2.8.3,4.8-.7,4.7-3.7s-1-5.9-4.8-6.6c-3-.5-6.6-.8-4-5.5a5.67,5.67,0,0,1,1.3-.8c2.6-.5,2.6-2.6,2.8-4.6,1.1-8.3,1.4-16.7,2.3-25,1-2.2.1-6.3,3.9-5.7,3.3.6,2.2,4.2,2.4,6.7.1,1.1-.1,2.3.1,3.8,3.9-.5,7.6-2.1,11.4-1.9,4.2.2,5.3,1.6,4.4,5.1-2.3,1.5-5.1.5-7.6,1.4-4.2,1.4-8.9,2.2-9.9,7.7-.7,2.5-.4,5-.4,7.6a16.66,16.66,0,0,0,2.3,10.5,12.14,12.14,0,0,1,1.6,7.7c-.2,2.3.5,3.3,3,3.3,21.4,0,42.9,0,64.4-.4-8.1-4.7-16.9-6.4-26-7.2-2-.2-2.9,1.3-3.6,2.9a9.06,9.06,0,0,1-2.2,3.8,2.63,2.63,0,0,1-4.6-1.9,7.1,7.1,0,0,1,.5-2.9c4.9-14.7,2.1-28.6-4.2-42.1-7.5-16.2-17.5-30.6-31-42.4a4.7,4.7,0,0,1-.9-1.2c-.6-1.7-.8-3.3.8-4.7,14,9.5,23.4,23,31.5,37.5,7.4,13.2,12.6,27.2,11.3,42.7-.3,3.3,2.1,2.9,3.9,3.1a95,95,0,0,1,22.3,5.1c4.1,1.6,8,3.5,10.3,7.5,1.6,2.9,4.1,1.3,6.2,1.6,1.6.3,3.8-.3,3.9,2s-2.2,1.9-3.8,2h-26.5l-182.7.1h-3.5c-1.2,0-2.4-.2-2.5-1.8a1.81,1.81,0,0,1,1.5-2.1h.7c6.9,1.5,9.2-3,13.2-7.6,4.4-4.9,4-9.1,3.8-14.2-.3-7.8-.7-15.6-1-23.5-.1-2.2-.3-4.7,3.3-3.9a2,2,0,0,1,1.3.9c.8,8.4,1.8,16.8,1.6,25.2a59,59,0,0,0,.2,9.4c.7,4.1.8,7.7-4.3,8.9a1.75,1.75,0,0,0-1.5,1.8c.1,1.1,1.1,1.1,1.9,1.2a26.7,26.7,0,0,0,4,0,15.81,15.81,0,0,0,6.8-11.3c.6-7.3.2-14.6.2-21.9,0-1.9-.3-3.6-2.3-4.5-1.2-1-2.3-2.1-1.6-3.8s2.2-1.9,3.8-1.8a45.11,45.11,0,0,0,9,0c1.6-.1,3.1.2,3.7,1.9s-.5,2.8-1.8,3.6c-3.1.6-4.3,2.5-4.1,5.7.2,5.2,0,10.3.1,15.5,0,1.5-.5,3.9,2.1,3.6s6,1.6,7.1-2.5a34.14,34.14,0,0,0,1-6.4c.5-6.5,1.6-12.9,4.6-18.8,3.9-3.4,4.5-3.4,6.4.7a62.3,62.3,0,0,0-5.1,20.7c-.2,2.1-1.4,5,2.4,5.4,3.9-.1,7.3-1.3,9.9-4.4,1.4-1.6,3.1-2.5,4.8-.2,1.2,3.6-1.1,5.7-3.5,7.8-6.9,4-14.7,3.4-22.2,4.4-2.1.3-4.3,0-6.4.6-.9.3-2,.3-2.8,1-1.1,1-2.8,2-2.4,3.5.5,1.8,2.6,1.1,3.9,1.1,9.8.1,19.7-.1,29.5.1,2.8,0,4.3-.7,4.7-3.7a18.87,18.87,0,0,1,6.1-11.7,6.21,6.21,0,0,0,2-4.9c.1-16-3.6-30.4-17.5-40.4a7.54,7.54,0,0,1-2.7-2.9c-.4-1.4-.4-2.8,1.2-3.6,8.8,3.9,14.7,10.5,18.5,19.1C128.54,126.23,128.54,126.13,127.94,122.13Z"/><path class="cls-2" d="M124.74,94.33c-9.7-4.1-15.5-11.7-18.8-21.3a13.2,13.2,0,0,0-4.1-6c-5.4-4.5-10.5-9.3-13.6-15.7-4.3-8.8.3-16.3,10-16.3,5.1,0,9.8,1.7,14.3,3.9,2.3,1.1,3.6.4,5.8-.5,8.3-3.7,13.7-8.9,13.2-18.7-.1-1.4.8-2.9,1.3-4.3,1.7-4.3,4.5-7.5,9.4-7.8s7.6,2.7,9.8,6.5c3.2,5.6,4.6,11.7,5.6,18a13.18,13.18,0,0,0,3.5,7.3c8.1,9,12.8,19.3,9.6,31.9a3.16,3.16,0,0,1-3.7.2c-1.4-2.9-.3-5.9-.4-8.8-.6-14.5-13.6-27.8-27.2-27.3-11.5.4-28.4,11.3-29.7,24.7-1,10.9,3.4,19.3,11.4,26.3,1.9,1.6,4.3,2.5,5.9,4.5C127.24,92.73,126.84,94,124.74,94.33Z"/><path class="cls-3" d="M60.74,115a30.93,30.93,0,0,1-6.8-11.4c-.9-3.1-3.9-4.4-5.7-6.8-2.7-3.7-7-7.1-5-12.2,1.8-4.8,6.9-5.5,11.3-5.8a15.48,15.48,0,0,0,9.8-3.9,7.52,7.52,0,0,1,3.4-2.1c6.2-1.5,10.6-5.1,15-9.7s9.5-3.6,11.8,2.3c3,7.9,6.1,15.8,9.9,23.5a13.89,13.89,0,0,1,.1,12.1,2.86,2.86,0,0,1-3.5-1.1c-1.5-3.9-.5-8.2-2.4-12.1-6.5-13.3-22.3-16.7-33.4-7-8.4,8.1-9.6,18-3.3,27.9a12.68,12.68,0,0,1,1.8,2.9C64.84,114.53,64.44,116.33,60.74,115Z"/><path class="cls-1" d="M124.74,94.33l2.3-3c3.9-2,7.7,1.3,11.6.4,2.8.4,5.7-1.3,8.4.5,1.8,2.5.6,4-1.8,4.9a19.06,19.06,0,0,1-10.3.8c-1.3-.2-3.3-1.2-3.7,1s1.3,3.4,3.3,3.6a36.24,36.24,0,0,0,10.4,0,35.83,35.83,0,0,0,22.9-14.7,10.18,10.18,0,0,0,1.9-8.9c-2.9,1.8-3.6,4.7-5.4,6.7-2,2.2-3.8,4.7-6.4,6.2-2,1.2-4.1,2-5-1.3.2-2.6,2.2-4,3.8-5.6a34.48,34.48,0,0,0,7.2-10.1c.9-1.4,1.2-3.3,3.1-3.8l3.5.3c1.1,2.9,3.7,4.8,5.3,7.3-.1,1.4-.1,2.9-.2,4.4.8,5.9-3.1,9.7-6.6,13.3-8.9,9.1-19.7,13.9-32.7,13.1a23.53,23.53,0,0,1-5.2-1.4l-3.5-1.9C126.74,102.23,125.74,98.23,124.74,94.33Z"/><path class="cls-4" d="M124.84,94.93l2.3-3c3.9-2,7.7,1.3,11.6.4,2.8.4,5.7-1.3,8.4.5,1.8,2.5.6,4-1.8,4.9a19.06,19.06,0,0,1-10.3.8c-1.3-.2-3.3-1.2-3.7,1s1.3,3.4,3.3,3.6a36.24,36.24,0,0,0,10.4,0,35.83,35.83,0,0,0,22.9-14.7,10.18,10.18,0,0,0,1.9-8.9c-2.9,1.8-3.6,4.7-5.4,6.7-2,2.2-3.8,4.7-6.4,6.2-2,1.2-4.1,2-5-1.3.2-2.6,2.2-4,3.8-5.6a34.48,34.48,0,0,0,7.2-10.1c.9-1.4,1.2-3.3,3.1-3.8l3.5.3c1.1,2.9,3.7,4.8,5.3,7.3-.1,1.4-.1,2.9-.2,4.4.8,5.9-3.1,9.7-6.6,13.3-8.9,9.1-19.7,13.9-32.7,13.1a23.53,23.53,0,0,1-5.2-1.4l-3.5-1.9C126.84,102.73,125.84,98.83,124.84,94.93Z"/><path class="cls-3" d="M101.34,100l3.3,1.1,3.7,6.6-.9,3.4a4.49,4.49,0,0,1-.5,3c-6.1,11.1-16.3,15.2-28.1,16.2a15,15,0,0,1-10.8-3.1l.1.1c-1.6-1.4-3.2-2.9-3.7-5.1-.8-8.7-.5-9,8-6.8,2.5.6,5.3.7,7.3,2.7,1.3,2.6,0,3.7-2.4,4.2a17.27,17.27,0,0,1-6.4-.3c10.7,5.2,24.9-.3,30.7-11.8-2.6,3-5.2,6.1-8.8,8-2.6,1.3-5,1.7-4.9-2.5C92.34,110.13,97,105.23,101.34,100Z"/><path class="cls-5" d="M101.64,100.23l3.3,1.1,3.7,6.6-.9,3.4a4.49,4.49,0,0,1-.5,3c-6.1,11.1-16.3,15.2-28.1,16.2a15,15,0,0,1-10.8-3.1l.1.1c-1.6-1.4-3.2-2.9-3.7-5.1-.8-8.7-.5-9,8-6.8,2.5.6,5.3.7,7.3,2.7,1.3,2.6,0,3.7-2.4,4.2a17.27,17.27,0,0,1-6.4-.3c10.7,5.2,24.9-.3,30.7-11.8-2.6,3-5.2,6.1-8.8,8-2.6,1.3-5,1.7-4.9-2.5C92.64,110.33,97.34,105.43,101.64,100.23Z"/><path class="cls-6" d="M79.74,118.93c-3.9-2.3-8.6-1.8-12.6-3.8-1.4-.7-2.5.3-2.6,2s0,3.3-.1,5c-1.4-2.3-.2-6-3.8-7,5,0,3.2-2,1.4-4.3-8-10.1-6.9-22.9,2.5-31,1.7,1.6.8,3.4.4,5.1-4.2,16.7,2.8,27.3,19.8,30a6.6,6.6,0,0,1,2.8.9c.8,1.4-.2,1.8-1.1,2.2a27.4,27.4,0,0,0-4.8,1.7A1.67,1.67,0,0,1,79.74,118.93Z"/><path class="cls-7" d="M127.94,122.13a5.16,5.16,0,0,1,.7,5.2c-.9,2.4-1.3.3-1.7-.5C128.54,125.53,127.24,123.63,127.94,122.13Z"/><path class="cls-8" d="M131.24,108c6.7,0,13.4.8,20-1.7,11.5-4.3,20.4-11.3,24.6-23.3,21,18.3,35.7,40.1,39.2,68.3a37.28,37.28,0,0,1-2.4,18.1c-.6,1.5-2.5,3.6.2,4.6,2.1.8,2.8-1.6,3-3.1.9-5.3,3.6-6.2,8.7-5.1,6.6,1.5,13.4,2.3,19.8,4.9,2.6,1.1,5.2,2.1,7.1,4.8-1.6,1-3.3.6-4.8.6-21.5,0-42.9-.1-64.4,0-2.9,0-4.2-.3-3.2-3.7a9.73,9.73,0,0,0-1.6-8.1A15.11,15.11,0,0,1,175,153c.9-2.7-.2-5.6.7-8.3.4-6.3,5.6-6.4,9.9-7.8,2.6-1.1,5.6.5,8.2-1,1.4-2.6-.2-3.1-2.3-3.3-5.3-.6-10.1,1-15.1,3.7.2-3.6.5-6.7.6-9.8.1-1.4.8-3.4-1.5-3.6s-1.7,1.9-2,3.2a13.89,13.89,0,0,1-.6,1.9c-3.8,7.2-4.8,14.9-4.8,22.9,0,2.9.8,6.1-2.3,8.1h0c-1.9,1.6-6.2.7-5.9,4.2s4.3,2.8,6.8,3.4c5.1,1.1,6.3,3.7,4,9.1-5.1.1-10.3-.1-15.4.2-3.1.2-3.5-1.1-3.5-3.8.1-14,.1-28,0-41.9,0-2,.2-3.5,2.5-4,1.1-.3,2.3-1,1.8-2.4s-1.8-1.1-3-1a23.42,23.42,0,0,0-3,.5c-1.8.4-4.4-1.6-5.4.7-1.2,2.7,2.1,2.2,3.1,3.4.6.7.4,2.2.4,3.4,0,13.8,0,27.6.1,41.4,0,2.7-.5,3.9-3.5,3.8-5.8-.2-11.6-.2-17.5,0-3.4.1-4.1-1.4-3.5-4.2.8-3.6,1.9-7.2,5.4-9.2,2.3-1.4,2.8-3.4,2.8-5.9C131.74,140.63,131.54,124.33,131.24,108Z"/><path class="cls-9" d="M68.14,127.13c17.5,4.1,28.8-.1,38.4-14.1,2.6-.5,4,1.5,5.4,3,6.4,6.9,9.8,14.9,8.5,24.6-.5,3.6-.1,7.3-.4,11-.1,1.8.5,4.2-2.4,4.6-1.1-.3-2.4-1-3,.5-2.1,5-6.5,5.2-11,5.4-2.3-5-.1-10,.6-14.9.6-4.1,2.1-8,1.1-12.2-.7-4.4-2.5-2.5-4.3-.7-5.3,4-5.2,10-5.9,15.7-.3,2.3,0,4.6-.4,6.9-.4,2.7-2,4-4.6,4.5-5.1,1-6.1.3-6.1-5,0-4.5-.1-9,0-13.4.1-3.1.6-6,4.4-6.7,1.3-.5,2.5-1.2,1.9-2.8-.5-1.3-1.7-1.2-2.9-.9a19.91,19.91,0,0,1-9.7.1c-1.2-.3-2.4-.6-3,.7-.8,1.7.6,2.3,1.8,2.9,1.7.7,1.9,2.1,2,3.6a157.84,157.84,0,0,1-.8,23.8c-.6,4.6-4,8.2-6.2,12.3a26.75,26.75,0,0,1-4.9.1c-1.4-.2-4.4,1.4-3.8-1.9.4-2,.5-5.8,4.8-4.3,2.5.9,2.9-.9,2.8-2.7C69.24,153.83,69.94,140.43,68.14,127.13Z"/><path class="cls-10" d="M117.64,156.13c1.3-11.1,3.9-22.3-2-33a29.09,29.09,0,0,0-9.2-10.2c.3-.6.7-1.3,1-1.9,13.6,8,19.9,20.3,20.8,35.7.1,2.6,0,5.3.2,8a5.82,5.82,0,0,1-2.6,5.9c-4.1,3.1-5.4,7.8-5.9,12.7-.1,1.6.1,2.8-2.2,2.8-13.1-.1-26.1-.1-39.6-.1,1.2-4.4,3.1-7.4,7.4-8.3,1.2,3.2,3.5,4.1,6.9,4.1,5.3,0,10.6-1.1,15.9-1.3,4.4-.2,4.2-4.9,6.2-7.5C116.44,161.13,118.44,159.23,117.64,156.13Z"/><path class="cls-11" d="M114.64,163.13c.4,5.6-2.3,9.1-7.2,9-5.8-.1-11.5,1.3-17.3,1.2-4.3-.1-5.9-1.3-4.5-5.5,5.5-1.4,11.1-.8,16.7-1.5C106.64,165.63,110.74,165,114.64,163.13Z"/><path class="cls-12" d="M88.74,136.23c-3.1,1.8-3.9,4.7-4,8-.1,4.1-.2,8.3.1,12.4.1,1.3-1.5,4.2,2.1,3.5,2.6-.5,6.6,1.4,6.8-3.5s-.2-9.9,1.1-14.8c1-3.5,1.6-7.3,6.3-7.7-3.7,8-4.3,16.7-5.1,25.3-.2,2.7-.9,3.9-3.8,3.6a20,20,0,0,0-8.4,1v-25.3C83.94,135.53,86.84,136.63,88.74,136.23Z"/><path class="cls-13" d="M170.74,175.93c.7-5.2-.3-8.5-6.8-8.2-1.9.1-5.7.3-6.1-3.5a4.16,4.16,0,0,1,2.2-4.6c1.8-1,3.9-.4,5.8-.5-2.3,4.7,1.5,3.7,3.7,3.8,5.3.2,5.4,4.5,5.9,7.8C175.74,173.33,175,176.63,170.74,175.93Z"/><path class="cls-14" d="M165.74,159.23c1.5-2.8,1.1-5.8.9-8.7-.5-6.1,1.3-11.7,2.3-17.5a6,6,0,0,1,3.9-4.8c-.7,9.5-1.4,19.1-2,28.6C170.64,161.13,167.44,158.33,165.74,159.23Z"/><path class="cls-15" d="M105.44,135c2.6,1.1,2.4,3,1.8,5.3a122.69,122.69,0,0,0-3.5,21.7c-2.7,1.1-4.5,1.2-4-2.6C100.74,151,100.54,142.43,105.44,135Z"/><path class="cls-16" d="M71.74,175.93a8.86,8.86,0,0,1,1.4-5.7c6.4-10.2,4.3-21.6,4.2-32.6,0-.4-.4-.9-.6-1.3,2.5-.3,3.1.9,3.1,3.2-.1,8.1,0,16.3-.1,24.4C79.84,166.83,73.94,175.43,71.74,175.93Z"/><path class="cls-17" d="M193.74,136c-2.5,2.2-5.5.7-8.2,1C188,135.33,191,136.73,193.74,136Z"/><path class="cls-17" d="M175.64,144.83c0,2.8.9,5.6-.7,8.3C174.74,150.33,174.54,147.53,175.64,144.83Z"/><path class="cls-18" d="M167.14,71l-2.2,4.2c-4.8.9-7.2-3.5-11.1-4.7-.7-.9-.3-1.9,0-2.8,2.2-5.2.8-9.2-3.8-12.3a2.41,2.41,0,0,0-.8-.6c-7.1-2.7-14-5.6-19.4-11.3a4.21,4.21,0,0,0-5.2-.3c-1.8,1.2-1.7,3.1-1.5,5a15.65,15.65,0,0,0,1.4,4.8,9.82,9.82,0,0,1-.9,10.3c-.6.4-1.2.2-1.8.4.7.3,1.4.5,1.7,1.3.8,2.5.3,5.2.8,7.7.1,4,2.6,6.1,6,7.3,1.6.6,3.5.8,4.9,2,1.8,3.4,4.6,6.6,3.5,10.9-4,.6-7.8-.8-11.6-1.6-14.3-6.1-22.4-22.4-17.8-35.8,4.8-14,23.7-24.4,37.4-20.5C160.94,38.93,170.24,55.43,167.14,71Z"/><path class="cls-19" d="M104.24,63.93a41.94,41.94,0,0,1-12.4-13.6c-3.7-6.7-.7-11.5,6.9-11.4,4.1.1,7.8,1.5,11.5,3,1.8.8,2.5,1.5.9,3.1-.7.7-1.2,1.6-1.9,2.3-1,1.2-1.2,3.9-3,3.4a5.74,5.74,0,0,1-4.6-4.7c-.2-1.5-.4-3.3-2.5-2.6-1.7.6-1.6,2.5-1.1,3.9a9.84,9.84,0,0,0,2,3.4C104.94,56.33,104.94,56.23,104.24,63.93Z"/><path class="cls-20" d="M136.54,31c-1.4-.1-3.1.3-2.8-2.2.5-4.4.8-8.9,2.9-12.9,3.1-6,8-6.1,11.8-.4,2.5,3.8,4.8,11.9,5.1,17.7-3.2-.5-6-2.7-9.4-2.3-.4,0-.6-.2-.6-.4s.1-.4.2-.4c1.5-3.8,1.4-7.4-1.8-10.4.7,3.6,3.6,7,1.1,10.9C140.94,30.83,138.64,30.13,136.54,31Z"/><path class="cls-21" d="M143.64,30l.5.9-7.6.1c2.3-1.5,4.9-.2,7.3-.9Z"/><path class="cls-9" d="M87.64,116.13c-12.2,0-23.2-8-25.6-18.5-.9-4.1.2-7.8,1.2-11.7.6-2.1,1.7-4,1.3-6.2a22.14,22.14,0,0,1,25.2-3.4c8.6,4.4,12.9,13.4,11.6,23.6-2.5,6.6-7.3,11.2-12.7,15.4A1.59,1.59,0,0,1,87.64,116.13Z"/><path class="cls-22" d="M53.64,95.83a16.27,16.27,0,0,1-6.3-6.7c-1.5-2.6-.6-4.3,2.1-5.4,1.9-.8,4.2-1.6,5.6-.4,1.9,1.5-.7,2.9-1.1,4.4C53.44,90.13,52,92.23,53.64,95.83Z"/><path class="cls-23" d="M93.84,74.33A42.49,42.49,0,0,0,81.44,70c2.3-2.9,4.2-6.6,7.5-5.4C92.44,65.83,92.94,70.23,93.84,74.33Z"/><path class="cls-24" d="M138.74,92.93c-1.4-3.8-2.8-7.5-4.2-11.3,2.5-2.9,6.3-4.7,7.4-8.8a1.5,1.5,0,0,1,1.5-1c3.7.8,6.8-1.9,10.3-1.7,4.6-.3,6.9,4.3,11,5-1.9,6.4-7.1,10.1-11.4,14.6-1.2,3.3-3.2,4.9-6.8,3.3C144.14,91.63,141.44,93.93,138.74,92.93Z"/><path class="cls-8" d="M146.74,93.13a8.2,8.2,0,0,0,6.8-3.3c.5,2.9,2,2.6,3.8,1.2a39.82,39.82,0,0,0,9.9-11.7c.6-1,.6-3,2.5-2.3,1.4.5,2,2.1,2,3.7a13.29,13.29,0,0,1-3.5,9.1c-8.8,10.8-20.2,15.8-34.2,14.3-4.2-.4-4.5-3.8-4.7-6.5s2.6-1.6,3.8-1.3a23.59,23.59,0,0,0,11.8-.2C146.84,95.73,147.64,95,146.74,93.13Z"/><path class="cls-4" d="M146.74,93.13a8.2,8.2,0,0,0,6.8-3.3c.5,2.9,2,2.6,3.8,1.2a39.82,39.82,0,0,0,9.9-11.7c.6-1,.6-3,2.5-2.3,1.4.5,2,2.1,2,3.7a13.29,13.29,0,0,1-3.5,9.1c-8.8,10.8-20.2,15.8-34.2,14.3-4.2-.4-4.5-3.8-4.7-6.5s2.6-1.6,3.8-1.3a23.59,23.59,0,0,0,11.8-.2C146.84,95.73,147.64,95,146.74,93.13Z"/><path class="cls-9" d="M87.64,116.13l1-.7c0,3.4,1.5,3,3.7,1.6,4.4-2.6,7-6.9,10.5-10.9,1.5,2.3.8,4.1-.1,5.8-4.9,9.6-19.8,15.7-30.1,12.4a16,16,0,0,1-2.7-1.2,2,2,0,0,1-1.3-2.4c.5-1.2,1.7-.5,2.6-.4,3,.3,6.3,2.8,8.6-1.4l1.8-.2a3,3,0,0,0,4.1-1.2c.1-.1.1-.2.2-.3C86.54,117,87.54,117.33,87.64,116.13Z"/><path class="cls-5" d="M87.64,116.13l1-.7c0,3.4,1.5,3,3.7,1.6,4.4-2.6,7-6.9,10.5-10.9,1.5,2.3.8,4.1-.1,5.8-4.9,9.6-19.8,15.7-30.1,12.4a16,16,0,0,1-2.7-1.2,2,2,0,0,1-1.3-2.4c.5-1.2,1.7-.5,2.6-.4,3,.3,6.3,2.8,8.6-1.4l1.8-.2a3,3,0,0,0,4.1-1.2c.1-.1.1-.2.2-.3C86.54,117,87.54,117.33,87.64,116.13Z"/><path class="cls-9" d="M85.84,117.23c.6,1.2,1.1,2.3-.6,3.1-2,1-3,.1-3.6-1.6C82.64,117,84,116.73,85.84,117.23Z"/><path class="cls-25" d="M123.94,73.23c-2.4-2.8-.5-6.3-1.3-9.4l-.2-.6c2.3-3.2,2.6-6.3,1-10.1s-4-8.4.6-11.2c4.3-2.7,7.9.5,10.7,3.8a15,15,0,0,0,10.6,5.7c2.1.2,4.7.9,5.4,3.7.6,2.3,2.2,4.1,2.7,6.4a6.94,6.94,0,0,1-3.1,7.8,6.3,6.3,0,0,1-7.5-.1c-2.7-1.8-3.3-4.2-2.4-7.4,1.5-5.4.7-7.5-2.6-8.1-4.1-.8-10.3,3.5-10.4,7.4-.1,3.2,2.1,4.2,4.8,4.7,1.9.3,4.1.2,5.5,1.8,2.3,2.5,2.9,5.3,1.1,8.2s-4.4,4.1-7.6,3.2A13.22,13.22,0,0,1,123.94,73.23Z"/><path class="cls-3" d="M123.94,73.23c2.5-.1,3,2.4,4.7,3.4,2.6,1.6,5.2,2.2,7.9.4a5.14,5.14,0,0,0,2.2-6.1c-.6-2.2-1.6-3.8-4.5-3.5-3.4.3-7-.3-8.3-4s1.1-6.3,4-8.3c3.4-2.4,7-4.4,11-2,3.4,2,2.5,5.6,1.3,8.5-1.2,2.7-2.1,4.8,1,6.7,2.5,1.5,4.9,2,7.3-.1a6,6,0,0,0,1.5-8c-.9-1.5-3.4-2.8-1-5,6.1,2.7,7.2,8,3.2,15.2-2.7,2.1-5.6,3.8-9.1,2.8-1.6-.4-2,0-2.3,1.4-1,4.1-3.8,6.4-7.9,7.3a11.68,11.68,0,0,1-10.1-3.9C123.24,76.43,122.24,74.93,123.94,73.23Z"/><path class="cls-26" d="M145.14,49.13a1,1,0,0,1-1.2,1.1,2,2,0,0,1-1.7-2c-.1-.8.6-1.2,1.3-1.1C144.64,47.13,145,48.13,145.14,49.13Z"/><path class="cls-27" d="M122.44,63.23a.48.48,0,0,0,.2.6c-1.1,1.2-2.1,1.4-3-.1-.5-.8-.6-1.6.3-2C121.34,61,121.54,62.63,122.44,63.23Z"/><path class="cls-21" d="M143.74,30.13c-2-3.3-.7-7.8-4.3-10.6-.8-.6.6-2.5,2.3-1.9a5.7,5.7,0,0,1,4,5.7c0,2.3,2.5,5.7-2,6.8Z"/><path class="cls-28" d="M77.84,95.93a16.32,16.32,0,0,1-2-1.7c-.8-1.1-.1-1.8.8-2.4s2.3-1.3,2.6-.3c.9,2.9,2,3.3,4.3,1.3.6-.5,1.2,0,1.4.8a1.71,1.71,0,0,1-.9,2.1,19.76,19.76,0,0,0-6.4,4.2,1.79,1.79,0,0,1-2.6-.2l-.1-.1c-.5-.8.1-1.4.9-1.9C76.44,97.13,77.14,96.53,77.84,95.93Z"/><path class="cls-29" d="M68.34,98.53a5.44,5.44,0,0,1,1.1,1.8c.3.9-.7,1.1-1.2,1a1.65,1.65,0,0,1-1.4-1.7C66.84,98.83,67.34,98.53,68.34,98.53Z"/><path class="cls-30" d="M88.94,87.33c-.2.2-.4.8-.7.8a1.36,1.36,0,0,1-1.5-1.2v-.3a1.87,1.87,0,0,1,.6-1.1A1.69,1.69,0,0,1,88.94,87.33Z"/><path class="cls-31" d="M133.24,63.93c-1.5-.6-3.8-.2-4.2-2.5-.4-2,5.1-5.7,7.9-5.6,2,0,2.2,1.2,2.1,2.5C138.74,61.83,136.94,63.83,133.24,63.93Z"/><path class="cls-5" d="M86,117.13c.7,1.3,1.2,2.4-.6,3.3-2.1,1.1-3.2.2-3.9-1.7C82.54,116.93,84.14,116.63,86,117.13Z"/></svg>