<svg id="Layer_1" data-name="Layer 1" xmlns="http://www.w3.org/2000/svg" viewBox="0 0 292.4 194.1"><defs><style>.cls-1{fill:#4b4b4b;}.cls-2{fill:#fff;}.cls-3{fill:#ebebeb;}.cls-4{fill:#f6f6f6;}.cls-5{fill:#e9e8e9;}.cls-6{fill:#f1f0f0;}.cls-7{fill:#e0e1e0;}.cls-8{fill:#eeedee;}.cls-9{fill:#dfdfde;}.cls-10{fill:#dcdcdc;}.cls-11{fill:#ededee;}.cls-12{opacity:0.5;}.cls-13{fill:#ed1e81;}</style></defs><title>7 windows-04-04</title><path class="cls-1" d="M56.7,57.2c-1.8-.5-4,.6-4.8-2,.4-1.8,1.7-2.2,3.5-2.1H99.6V23.3c-5.3-.4-5.3-.4-5.8-3.8,1-1,2.2-.5,3.3-.5H230.6c1.9,0,4.1-.8,5.3,1.8,1.1,2.4-3.8,2-4.9,2.3-1.9.6-1.8.5-2,2.6a78.47,78.47,0,0,0,.1,8.4c0,36.8.8,73.5.8,110.3v27.3c4.1,1.2,8.5-1.3,12.1,1.8-.4,1.8-1.3,2.7-3.1,2.6a13.35,13.35,0,0,0-2,0H52a10.45,10.45,0,0,0-2.5,0c-1.5.2-1.8-1.1-3-1.7,2.8-4.3,7-1,10.3-2.7Z"/><path class="cls-2" d="M190.9,117a.82.82,0,0,0,.7,1h.3c1.8,2,1.5,4,0,6-10.9,1.1-21.8.2-32.7.5-2.1.1-4.3-.5-6.3.5v46.5c-4.1.7-36,.9-49,.3V31c1.8-1.6,4-1.6,6.1-1.6h73.5c6.5,0,6.9.5,6.9,7.2v75C190.4,113.4,190,115.3,190.9,117Z"/><path class="cls-3" d="M191.9,124v-6l2-1c1-1.7.5-3.6.5-5.4V35.7c0-5.5.4-6.1,5.8-6.3,6.8-.2,13.6-.2,20.5,0,3.1.1,4.8,1.1,4.8,4.8q-.15,44-.1,87.9a3.2,3.2,0,0,1-.5,1.9,213.63,213.63,0,0,1-32,0Z"/><path class="cls-4" d="M98.9,172h-38V66c1.7-1.6,3.9-1.6,6.1-1.6,5.3-.1,10.5-.1,15.8,0,6.5.1,7.8,1.5,7.7,8a10.91,10.91,0,0,1-1,5.3c-3,2.9-6.9,1.7-10.4,1.8-7.7.2-7.8.1-7.8,7.8,0,5.1.1,10.3,0,15.4-.1,3.5,1.5,4.6,4.7,4.8,4.4.3,9-1,13.2,1.3,1.2,1.6,1.2,3.4,1.2,5.2.1,5.9-1.2,7.1-7.2,7.4-3.7.2-7.6-1.3-11,1.3-1.9,8-.7,16.1-.6,24.2,0,2.7,2.8,2.3,4.7,2.5,4.2.5,8.6-.9,12.7,1.2,2.3,3.7,1.3,7.8,1.3,11.7,0,4.3.4,7.6,5.9,7.5C97.4,169.8,99,170.1,98.9,172Z"/><path class="cls-5" d="M88.9,78V66h-28V57.1c6.4-.2,12.8-.1,19.2-.1H99.9v4.5q0,53.1-.1,106.2c0,1.4,1.2,3.3-.9,4.3.1-1-.6-1-1.3-1H88.9V151c.7-7.1.5-14.3.5-21.4s-.1-6.9-7.3-7.1c-4.1-.1-8.3,1.2-12.1-1.4,0-1.4,1.1-1,1.8-1H89v-11A215.17,215.17,0,0,0,88.9,78Z"/><path class="cls-6" d="M190.9,117a.88.88,0,0,1-1-.5v-.3c-.1-1.3,0-2.7,0-4V31h-86V23.5c4.2-.7,72.6-1,87-.3Z"/><path class="cls-3" d="M190.9,151v21h-14c-1.7-2-1.8-4.5-2.3-6.9-1.5-7.2-3-14.5-4.4-21.8-.4-1.9-.8-3.9,0-5.8a2.78,2.78,0,0,1,1.2-1.2,17.81,17.81,0,0,1,11.4.3c2,1.6,2.3,3.9,2.8,6.2a220,220,0,0,1,4.1,24.3c.4.6.7-.6.2-.1-.2.2-.4.1-.4-.3a91.22,91.22,0,0,1-.9-10.4C188.6,154.3,187.9,151.7,190.9,151Z"/><path class="cls-3" d="M214.9,172h-12a5.15,5.15,0,0,1-2.5-4c-1.8-8.9-3.8-17.8-5.2-26.7-.3-1.6-.5-3.3.8-4.7,3.8-1.6,7.7-1.3,11.5-.3,1.4.8,1.8,2.3,2.4,3.6,2.6,9,3.8,18.2,5.8,27.3C216,168.9,216.2,170.6,214.9,172Z"/><path class="cls-7" d="M224.9,124V31.1H195.2c-.7,1.3-.3,2.8-.3,4.2q0,39.15-.1,78.4c0,1.1,1,2.7-1,3.3V23.1h31.7c.8,1.1.3,2.5.3,3.7v93.3C225.9,121.4,227.1,123.2,224.9,124Z"/><path class="cls-8" d="M164.9,172h-8.5c-.9-1.1-.4-2.5-.4-3.8V131.3c0-.8-.7-2.1,1-2.3,3.4-1,6.8-.5,10.2-.4s4.6,2.9,3.8,8.4c-3.7,1.6-4.7,4.6-4.5,8.5.2,6.6.1,13.3.1,19.9C166.4,167.7,166.6,170.1,164.9,172Z"/><path class="cls-2" d="M214.9,172c.1-3.2-.9-6.2-1.8-9.3-.6-2,.4-4.3-1.2-6,.1-4.3-1.9-8.3-2.1-12.7-.1-1.3-1.1-2.6-.9-4.1-1.3-2.8.3-3.9,2.7-4.2a20.62,20.62,0,0,1,8.2.3,3.77,3.77,0,0,1,1.5.9c3.1,6,2.9,12.6,4.1,19-.3,5.4.6,10.8-.5,16.1Z"/><path class="cls-2" d="M164.9,172V137h6a30.19,30.19,0,0,0,1.8,10.3c.6,2-.4,4.3,1.2,6-.6,2.6.7,5.2,1.3,7.5s.1,5,1.6,7.3c.6.9.1,2.6.1,3.9Z"/><path class="cls-2" d="M195.9,137c-.1,3.2.9,6.2,1.8,9.2.6,2-.4,4.3,1.2,6,.3,6.2,2.9,12,3,18.2,0,.6,1.1.8,1,1.6h-8.5a1.38,1.38,0,0,0-.4-.3.76.76,0,0,1-.2-.4V151.5c-1-.8-2-.3-3-.4-1.4,0-1,1.1-1,1.8v13.4c0,.9.4,2-.5,2.8l-6.5-32,.6-.6c6.1-1.3,6.8-.8,6.9,5.4,0,1.4-.4,2.9.5,4.3.2,1.4,1,1.2,1.9.6.4-.2.7-.4,1.1-.6a2.58,2.58,0,0,0,.5-2.1c-.1-2.3,0-4.5.1-6.8A1.15,1.15,0,0,1,195.9,137Z"/><path class="cls-9" d="M170.9,137c-.1-1.1-1.4-1.7-1-3,.5-1.8-1-3.2-1.2-5H156.9a.88.88,0,0,1,.5-1h31.7a.77.77,0,0,1,.8.7v.3c-1.4,1.7-3.8.9-5.5,2-1.6,1.7.4,4.4-1.5,6Z"/><path class="cls-10" d="M194.9,137v8a.63.63,0,0,1-.9.1l-.1-.1V128.1h32v41.6c0,.8.7,2.1-1,2.3V155c-.9-4.1-1-8.4-1.4-12.5-.2-2.3-.8-4.1-2.6-5.5-2.2-7.5-8.2-7-14.1-6.6h-1C200.4,129.6,196,130.6,194.9,137Z"/><path class="cls-11" d="M182.9,137c-.2-.9.4-2-.3-2.8-1.5-1.6-.1-3.4-1-5.2H190c1.3,0,1,1,1,1.8v15.3c-1,.1-1-.6-1-1.3V137Z"/><path class="cls-3" d="M152.9,125c.2-1.7,1.5-1,2.3-1h36.7c-.2,1.7-1.5,1-2.3,1Z"/><path class="cls-7" d="M192.9,124h32a.88.88,0,0,1-.5,1H193.7a.77.77,0,0,1-.8-.7Z"/><path class="cls-9" d="M193.9,145h1a.82.82,0,0,1-.7,1h-.3Z"/><path class="cls-8" d="M206.9,129H220c-.9,3,1,5.3.9,8H209.3c-.7,1.1-.3,2.1-.4,3-1.9-.5-.6-2-1-3C205.8,134.6,204.9,132,206.9,129Z"/><path class="cls-9" d="M206.9,129c-.7,2.8,1.1,5.3,1,8h-13v-8Z"/><path class="cls-3" d="M220.9,137h3.8c.5,6,.1,12,.2,18-.3-.1-.8-.2-.8-.4,0-4.6-2-8.9-2.3-13.6C221.7,139.8,220.7,138.5,220.9,137Z"/><path class="cls-1" d="M178.9,64.4c2.5.4,3.4,1.7,2.8,4.2H153.2c-1.1-2.9.7-3.7,2.7-4.4V42.3c0-3.3.3-3.7,3.7-3.7h16c2.8,0,3.3.6,3.3,3.5Z"/><path class="cls-2" d="M159.9,47.6v-5h7c2.5,7.1,5.7,14.2,3,22h-6c-3.1-3-2.4-7-3.1-10.7C160.4,51.8,161,49.6,159.9,47.6Z"/><path class="cls-2" d="M169.9,64.6c-.1-2.3.8-4.9-.4-6.7s.6-4.4-1.6-5.8c.6-3.3-1.7-6.2-1-9.5h7.8c.4,7.2,0,14.4.2,22Z"/><path class="cls-2" d="M159.9,47.6c.3.1.8.2.8.3.1,4.6,2.2,8.9,2.2,13.6,0,1.1,1.5,1.8,1,3.1h-3.8C159.7,58.9,160,53.2,159.9,47.6Z"/><path class="cls-1" d="M178.8,106.6c2.5.4,3.4,1.7,2.8,4.2H153.1c-1.1-2.9.7-3.7,2.7-4.4V84.5c0-3.3.3-3.7,3.7-3.7h16c2.8,0,3.3.6,3.3,3.5Z"/><path class="cls-2" d="M159.8,89.8v-5h7c2.5,7.1,5.7,14.2,3,22h-6c-3.1-3-2.4-7-3.1-10.7C160.3,94,160.8,91.8,159.8,89.8Z"/><path class="cls-2" d="M169.8,106.8c-.1-2.3.8-4.9-.4-6.7s.6-4.4-1.6-5.8c.6-3.3-1.7-6.2-1-9.5h7.8c.4,7.2,0,14.4.2,22Z"/><path class="cls-2" d="M159.8,89.8c.3.1.8.2.8.3.1,4.6,2.2,8.9,2.2,13.6,0,1.1,1.5,1.8,1,3.1H160C159.5,101.2,159.9,95.5,159.8,89.8Z"/><path class="cls-1" d="M139.2,156.3c2.5.4,3.4,1.7,2.8,4.2H113.5c-1.1-2.9.7-3.7,2.7-4.4V134.2c0-3.3.3-3.6,3.7-3.7h16c2.8,0,3.3.6,3.3,3.5Z"/><path class="cls-2" d="M120.2,139.5v-5h7c2.5,7.1,5.7,14.2,3,22h-6c-3.1-3-2.4-7-3.1-10.7C120.7,143.7,121.2,141.5,120.2,139.5Z"/><path class="cls-2" d="M130.2,156.5c-.1-2.3.8-4.9-.4-6.7s.6-4.4-1.6-5.8c.6-3.3-1.7-6.2-1-9.5H135c.4,7.2,0,14.4.2,22Z"/><path class="cls-2" d="M120.2,139.5c.3.1.8.2.8.4.1,4.6,2.2,8.9,2.2,13.6,0,1.1,1.5,1.8,1,3.1h-3.8C119.9,150.8,120.3,145.2,120.2,139.5Z"/><path class="cls-1" d="M69.9,121h21v27.1a2.63,2.63,0,0,1-2,2.9H73c-2.4,0-3.1-.7-3.1-3.2Z"/><path class="cls-2" d="M86.9,143.2V147h-7c-2.8-3-2.8-6.9-3.7-10.5s-1.5-7-2.3-10.5a.72.72,0,0,1,.5-.9H86.1a.77.77,0,0,1,.8.7v.3c-1.4,1-2.3,2.2-1.9,4.1C86.1,134.4,85.8,138.9,86.9,143.2Z"/><path class="cls-2" d="M73.9,125h1.8c0,4.5,1.8,8.8,2.2,13.4a20.27,20.27,0,0,0,1.7,5.8c.4,1,.1,1.9.3,2.9H73.3c-.8-1.3-.4-2.8-.4-4.3-.1-5.3,0-10.6,0-16C72.9,126.1,72.6,125,73.9,125Z"/><path class="cls-2" d="M86.9,143c-.3-.1-.8-.2-.8-.3,0-4.6-2.2-8.8-2.2-13.4,0-1.3-1.7-2.4-.6-4.3h3.6Z"/><path class="cls-1" d="M69.6,77.7h21v27.8a2.63,2.63,0,0,1-2,2.9H72.7c-2.4,0-3.1-.8-3.1-3.3C69.5,96,69.6,86.9,69.6,77.7Z"/><path class="cls-2" d="M86.6,100.4v3.9h-7c-2.8-3.1-2.8-7.1-3.7-10.8s-1.5-7.2-2.3-10.8a.88.88,0,0,1,.5-1c.1,0,.2-.1.3,0H85.8a.77.77,0,0,1,.8.7v.3c-1.4,1.1-2.3,2.3-1.9,4.2C85.7,91.4,85.5,96,86.6,100.4Z"/><path class="cls-2" d="M73.6,81.8h1.8c0,4.7,1.8,9,2.2,13.7a20.91,20.91,0,0,0,1.7,5.9c.4,1,.1,2,.3,2.9H73c-.8-1.4-.4-2.9-.4-4.4-.1-5.4,0-10.9,0-16.3C72.6,82.9,72.2,81.8,73.6,81.8Z"/><path class="cls-2" d="M86.6,100.2c-.3-.1-.8-.2-.8-.3,0-4.7-2.2-9-2.2-13.7,0-1.4-1.7-2.4-.6-4.4h3.6Z"/><path class="cls-1" d="M140.1,64.4V42.1c0-2.9-.6-3.5-3.3-3.5h-16c-3.3,0-3.7.3-3.7,3.7V60.6h6.5v4H116c-1.5.7-2.5,1.6-1.6,4h28.5C143.5,66,142.7,64.8,140.1,64.4Z"/><rect class="cls-2" x="120.6" y="41.2" width="16" height="23.4"/><path class="cls-1" d="M140.5,106.6V84.3c0-2.9-.6-3.5-3.3-3.5h-16c-3.3,0-3.7.3-3.7,3.7v18.3H124v4h-7.6c-1.5.7-2.5,1.6-1.6,4h28.5C143.9,108.3,143,107,140.5,106.6Z"/><rect class="cls-2" x="121" y="83.5" width="16" height="23.4"/><g class="cls-12"><path class="cls-13" d="M178.9,64.3V42c0-2.9-.6-3.5-3.3-3.5h-16c-3.3,0-3.7.3-3.7,3.7V64.1c-2,.8-3.8,1.5-2.7,4.4h28.5C182.3,66,181.5,64.7,178.9,64.3Zm-9,.2h-9.8c-.5-5.7-.1-11.3-.2-17v-5h14.8c.4,7.2,0,14.4.2,22Z"/><path class="cls-13" d="M169.5,57.8c-1.2-1.8.6-4.4-1.6-5.8.6-3.3-1.7-6.2-1-9.5h-7v5c.3.1.8.2.8.3.1,4.6,2.2,8.9,2.2,13.6,0,1.1,1.5,1.8,1,3.1h6C169.8,62.3,170.7,59.7,169.5,57.8Z"/><path class="cls-13" d="M174.8,42.5H167c-.7,3.3,1.6,6.2,1,9.5,2.2,1.4.4,4,1.6,5.8s.3,4.5.4,6.7h5C174.8,57,175.2,49.8,174.8,42.5Z"/><path class="cls-13" d="M162.9,61.5c0-4.6-2.1-8.9-2.2-13.6,0-.1-.5-.2-.8-.3.1,5.7-.2,11.3.2,17h3.8C164.5,63.2,162.9,62.6,162.9,61.5Z"/><path class="cls-13" d="M178.8,106.6V84.3c0-2.9-.6-3.5-3.3-3.5h-16c-3.3,0-3.7.3-3.7,3.7v21.9c-2,.8-3.8,1.5-2.7,4.4h28.5C182.2,108.2,181.3,107,178.8,106.6Zm-9,.2H160c-.5-5.7-.1-11.3-.2-17v-5h14.8c.4,7.2,0,14.4.2,22Z"/><path class="cls-13" d="M169.3,100.1c-1.2-1.9.7-4.4-1.6-5.8.6-3.3-1.7-6.2-1-9.5h-7v5c.3.1.8.2.8.3.1,4.6,2.2,8.9,2.2,13.6,0,1.1,1.5,1.8,1,3.1h6C169.6,104.5,170.6,101.9,169.3,100.1Z"/><path class="cls-13" d="M174.6,84.8h-7.8c-.7,3.3,1.6,6.2,1,9.5,2.2,1.4.4,4,1.6,5.8s.3,4.5.4,6.7h5.1C174.6,99.2,175,92,174.6,84.8Z"/><path class="cls-13" d="M162.8,103.7c0-4.6-2.1-8.9-2.2-13.6,0-.1-.5-.2-.8-.3.1,5.7-.2,11.3.2,17h3.8C164.3,105.5,162.8,104.8,162.8,103.7Z"/><path class="cls-13" d="M139.2,156.2V133.9c0-2.9-.6-3.5-3.3-3.5h-16c-3.3,0-3.7.3-3.7,3.7V156c-2,.8-3.8,1.5-2.7,4.4H142C142.6,157.9,141.7,156.6,139.2,156.2Zm-9,.3h-9.8c-.5-5.6-.1-11.3-.2-17v-5H135c.4,7.2,0,14.4.2,22Z"/><path class="cls-13" d="M129.7,149.7c-1.2-1.8.7-4.4-1.6-5.8.6-3.3-1.7-6.2-1-9.5h-7v5c.3.1.8.2.8.4.1,4.6,2.2,8.9,2.2,13.6,0,1.1,1.5,1.8,1,3.1h6C130,154.2,131,151.6,129.7,149.7Z"/><path class="cls-13" d="M135,134.5h-7.8c-.7,3.3,1.6,6.2,1,9.5,2.2,1.4.4,4,1.6,5.8s.3,4.5.4,6.7h5.1C135,148.9,135.4,141.7,135,134.5Z"/><path class="cls-13" d="M123.2,153.4c0-4.6-2.1-8.9-2.2-13.6,0-.1-.5-.2-.8-.4.1,5.7-.2,11.4.2,17h3.8C124.7,155.2,123.2,154.5,123.2,153.4Z"/><path class="cls-13" d="M90.9,121h-21v26.8c0,2.5.7,3.2,3.1,3.2H88.9a2.57,2.57,0,0,0,2-2.9Zm-4,5v17h0v4H73.3c-.8-1.3-.4-2.8-.4-4.3-.1-5.3,0-10.6,0-16,0-.7-.4-1.7,1-1.7H86.8v.7C87,125.8,87,125.9,86.9,126Z"/><path class="cls-13" d="M83.9,129.2c0-1.3-1.6-2.4-.6-4.2H75.8c0,4.5,1.8,8.8,2.2,13.3a20.27,20.27,0,0,0,1.7,5.8c.4,1,.1,1.9.3,2.9h7v-4c-.3-.1-.8-.2-.8-.3C86.1,138,83.9,133.8,83.9,129.2Z"/><path class="cls-13" d="M79.7,144.1a22.81,22.81,0,0,1-1.7-5.8c-.4-4.5-2.2-8.8-2.2-13.3H74c-1.4,0-1,1.1-1,1.7,0,5.4-.1,10.7,0,16,0,1.4-.4,2.9.4,4.3H80C79.8,146,80.1,145.1,79.7,144.1Z"/><path class="cls-13" d="M86.9,125H83.3c-1,1.8.6,2.9.6,4.2,0,4.6,2.2,8.8,2.2,13.4,0,.1.5.2.8.3h0V125Z"/><path class="cls-13" d="M72.7,108.4H88.6a2.63,2.63,0,0,0,2-2.9V77.7h-21v27.5C69.6,107.7,70.3,108.4,72.7,108.4Zm-.1-24.8c0-.7-.4-1.8,1-1.8H86.7v18.3h0v4.1H73c-.8-1.4-.4-2.9-.4-4.4C72.5,94.5,72.6,89,72.6,83.6Z"/><path class="cls-13" d="M79.3,101.4c.4,1,.1,2,.3,2.9h7v-4.1c-.3-.1-.8-.2-.8-.3,0-4.7-2.2-9-2.2-13.7,0-1.4-1.7-2.5-.6-4.4H75.5c0,4.7,1.8,9,2.2,13.7A20.69,20.69,0,0,0,79.3,101.4Z"/><path class="cls-13" d="M73,104.3h6.6c-.2-.9.1-1.9-.3-2.9a24.83,24.83,0,0,1-1.7-5.9c-.5-4.7-2.2-9-2.2-13.7H73.5c-1.4,0-1,1.1-1,1.8,0,5.4-.1,10.9,0,16.3C72.6,101.4,72.2,102.9,73,104.3Z"/><path class="cls-13" d="M83.5,86.1c0,4.7,2.2,9,2.2,13.7,0,.1.5.2.8.3h0V81.8H82.8C81.9,83.7,83.5,84.8,83.5,86.1Z"/><path class="cls-13" d="M142.9,68.6c.6-2.6-.3-3.8-2.8-4.2V42.1c0-2.9-.6-3.5-3.3-3.5h-16c-3.3,0-3.7.3-3.7,3.7V60.6h3.5V41.2h16V64.6H116.2c-1.5.7-2.5,1.6-1.6,4Z"/><polygon class="cls-13" points="136.6 64.6 136.6 41.2 120.6 41.2 120.6 60.6 120.6 64.6 123.7 64.6 136.6 64.6"/><path class="cls-13" d="M140.5,106.6V84.3c0-2.9-.6-3.5-3.3-3.5h-16c-3.3,0-3.7.3-3.7,3.7v18.3H121V83.4h16v23.4H116.5c-1.5.7-2.5,1.6-1.6,4h28.5C143.9,108.2,143,107,140.5,106.6Z"/><polygon class="cls-13" points="137 106.8 137 83.4 121 83.4 121 102.8 121 106.8 124 106.8 137 106.8"/></g></svg>