<svg id="Layer_1" data-name="Layer 1" xmlns="http://www.w3.org/2000/svg" viewBox="0 0 292.4 194.1"><defs><style>.cls-1{fill:#4c4b4c;}.cls-2{fill:#ececec;}.cls-3{fill:#4d4d4d;}.cls-4{fill:#4d4c4c;}.cls-5{fill:#4c4c4c;}.cls-6{fill:#fff;}.cls-7{fill:#f6f5f5;}.cls-8{fill:#f9f9f9;}.cls-9{fill:#d3d0d0;}.cls-10{fill:#504f50;}.cls-11{fill:#525252;}.cls-12{opacity:0.5;}.cls-13{fill:#b42063;}.cls-14{fill:#ddd6da;}.cls-15{fill:#ebeaeb;}.cls-16{fill:#e5e5e5;}</style></defs><title>7 windows-04-04</title><path class="cls-1" d="M165.68,98.9c7.8,3.4,8,3.9,6.9,12.1s-1.5,16.7-3.2,24.9c-4.1,1.8-4.1-1.4-4.2-3.8-.2-4.6.9-9.2,1.2-13.8.1-1.1.8-2.2-.3-3.6a81.32,81.32,0,0,1-13.9,2.7c-14.8,1.9-29.5,1.8-44-1.9-3.3-.9-4.4-.8-3.9,3.1,2,15.7,3.9,31.3,5.7,47,.9,7.9,1.8,8.7,9.8,9.9a110.57,110.57,0,0,0,29.3.3c1.3-.2,2.6-.3,3.9-.6,5.8-1.1,7.1-2.2,7.6-8.1.7-7.4,1.8-14.8,2.6-22.2.3-2.4-.1-6.8,5-4.8,1.4,3.3.1,6.6-.2,9.8-.7,7.5-2,14.8-2.6,22.3-.3,3.6-2,5.4-5,6.6a38.75,38.75,0,0,1-11.2,2.5c-12,1-23.9,1.4-35.7-1.4-5.2-1.2-8-3.6-8.6-9.7-2.1-20.8-4.9-41.6-7.6-62.4-.4-3.2.7-5.6,3.5-7,2.1-1.1,4.2-1.9,6.4-2.8,1.4,1.2,1.3,2.6.9,4.2a2.44,2.44,0,0,1-.9,1.1c-3.7,2.5-3.7,2.5.6,4.7a16.3,16.3,0,0,0,4.8,1.3c5.5.9,11.1,1.1,16.6,2h12.3a153.47,153.47,0,0,0,16.6-2,17.13,17.13,0,0,0,4.9-1.4c4.2-1,4.3-3.1,1.6-6A2.57,2.57,0,0,1,165.68,98.9Z"/><path class="cls-2" d="M168.38,140.1c-3.9-.7-3.3,2.5-3.6,4.5-1,7.7-2.2,15.5-2.5,23.2-.3,6.2-3.5,8.3-8.8,8.9-1.3.1-2.6.1-4,.2a4.79,4.79,0,0,1-1.3-4.1c1.2-17.5,1.7-35.1,2.8-52.6a5.65,5.65,0,0,1,1.5-4.1,60.26,60.26,0,0,0,16.2-4.1c-.8,7.2-1.5,13.9-2.3,20.6-.3,2.4.2,4,3.1,3.3Z"/><path class="cls-1" d="M107.28,102.6V98.2c0-5.8.1-11.6.1-17.5,0-3.5.8-6.8,3.3-9.1,2.3-2.2,2.9-4.5,2.8-7.5-.1-7,0-14,0-21,1.2-1.3,2.6-1.2,4-.5,2.2,2.8,1.2,6.1,1.4,9.1.2,3.8-.3,7.6.7,11.4a195.93,195.93,0,0,0,.4-20.3,8.93,8.93,0,0,1,5.4-6.9c0,9.4.1,18.9.1,28.3,0,2-.1,3.7,2.1,5,4.3,2.6,5.9,6.9,5.9,11.8,0,4.6.1,9.3.1,13.9a6.17,6.17,0,0,1,1.2,4.3c-.3,4.5,1.3,9.2-1.4,13.5h-4c-1.8-1.9-1.3-4.4-1.3-6.6-.1-8.3.2-16.6-.1-24.9-.3-6.9-4.8-9.8-11-7.3-.1,1.4,1.3,1.8,1.9,2.7,2.7,3.8,2.2,8-1.8,10.3-3.5,2-4.3,4.6-4.2,8.2s.1,7,0,10.4c0,1.8.2,3.7-1.2,5.2-1.5-.5-3.2-.4-4.3-1.7A5.25,5.25,0,0,1,107.28,102.6Z"/><path class="cls-1" d="M164,108.9l-4.7,1.7c-1.3-1.9-.4-3.9,0-5.8,1-5.9,2.1-11.7,2.8-17.7.7-5.7-3.8-10.7-9.9-8.1-.7,1.4.8,2,1.3,2.9,2.3,4.1,1.1,8.4-3.3,9.6-3.9,1.1-4.5,3.6-5.3,6.8-1.1,4.8-.3,10-3.3,14.4h-4.2c-2.3-4.8.5-9.3.7-13.9a4.6,4.6,0,0,1,1.6-3.8c1.3-2.9,1.4-6,1.8-9.1.6-4.4,2.1-8.4,6-10.9a6.11,6.11,0,0,0,2.7-4.4c1.2-7.5,2.3-15,3.4-22.5,1.9-2,4.1-1.6,6.3-.9a1.28,1.28,0,0,1,.7,1.7c-.1.1-.1.2-.2.3-4.1,6.3-2.9,13.7-4.3,20.5,3-6.8,2.4-14.5,4.9-21.4a7,7,0,0,1,5.4-5.4c-1.4,9.5-2.8,19-4.3,28.6-.2,1.5-.7,2.8.8,4,5.3,4.3,5.4,9.9,4,15.9-.5,2.4-.8,4.9-1.2,7.4-.1,1.4-.2,2.7-.3,4.1C165.88,105.2,165.68,107.2,164,108.9Z"/><path class="cls-3" d="M166.38,43l-4.9,4.9c-.3.5-.6.5-1,.1l-7,.1c-4.4.2-6.4-2.1-6.3-6.4,0-1.3,0-2.7.1-4,.8-8.2,3.3-10.7,9.6-9.7,8.3,1.3,11.5,5.8,9.8,13.4C166.58,42,166.48,42.5,166.38,43Z"/><path class="cls-4" d="M117.48,43l-4.1.1c-6.4-.3-8.2-2.8-8-11.1.2-6.2,1.9-8.9,6-9,9.1-.3,13.3,2.3,14,9a26.73,26.73,0,0,1-.1,4c-1.4,2.2-2.5,4.6-4.9,6C119.88,43.3,119,43.9,117.48,43Z"/><path class="cls-5" d="M139.68,95c-.1,1.3-.3,2.6-.4,4a4.08,4.08,0,0,1-5.7-.1v-4Z"/><path class="cls-6" d="M152.38,116.1c-.7,17.5-1.3,35-2.1,52.5-.1,2.8-1.2,5.5-.9,8.3a88.83,88.83,0,0,1-37-1.6c-1.7-.5-2.8-1.2-3.1-3.3-2.2-19.3-4.6-38.6-6.9-57.8a12.1,12.1,0,0,1,.1-1.9C119,117.9,135.68,117.6,152.38,116.1Z"/><path class="cls-6" d="M111.58,110.6c-.1-6.8-.1-13.6-.2-20.5,0-1.5-.2-3,2-3.3,3.3-.4,5.6-2.3,5.8-5.8s-2.5-5.1-5.6-6.6a7.39,7.39,0,0,1,9.1-3.2,8.82,8.82,0,0,1,6.6,8.9v32.4A107.57,107.57,0,0,1,111.58,110.6Z"/><path class="cls-6" d="M141.58,112.7c1-6.5,2-13.1,2.9-19.6.2-1.8,1.1-2.2,2.7-2.1,3,.2,5.3-1,6.2-4a5.37,5.37,0,0,0-2.7-6.4c-2.6-1.6-1.2-2.6.4-3.3,5.6-2.7,12.6,1.6,12.4,7.9-.3,8.6-2.3,17-4.2,25.4A88.22,88.22,0,0,1,141.58,112.7Z"/><path class="cls-6" d="M117.48,43l2.9-1.1c2.3,4.9.5,10,1,15,.2,2.3,0,4.6,0,6.9,0,1.5,0,3.1-2.2,3-1.9-.1-1.7-1.7-1.7-3Z"/><path class="cls-6" d="M113.48,82.7a1.77,1.77,0,0,1-1.8-1.7v-.1a1.72,1.72,0,0,1,1.4-1.7,1.7,1.7,0,0,1,2,1.3v.3C115.28,81.9,114.58,82.5,113.48,82.7Z"/><path class="cls-6" d="M160.48,48a3.4,3.4,0,0,1,1-.1c-1,7.5-2,15-3.1,22.5-.2,1.5-.9,2.5-2.6,2.3-1.4-.2-1.8-1-1.6-2.5,1-6.2,2-12.4,2.8-18.6C157.28,49.4,159.08,49,160.48,48Z"/><path class="cls-6" d="M147.88,87.6c-1.2,0-1.9-.6-2-1.4-.2-1.4.7-2.1,2-2.2a1.36,1.36,0,0,1,1.5,1.2v.3A2.26,2.26,0,0,1,147.88,87.6Z"/><path class="cls-7" d="M151.38,41.6c0-2-.3-3.5.1-4.9.5-1.9.3-4.9,3.3-4.6s6.9.3,7.9,4.5a6.28,6.28,0,0,1-2.8,7.3,3.05,3.05,0,0,1-3.3.2c-1.1-.6-.3-1.4-.3-2.1,0-1.9,2.4-4.8-.7-5.5S153.48,39.7,151.38,41.6Z"/><path class="cls-8" d="M109.58,33.9c0-2.5-1.2-5.8,2.1-6.8,2.5-.7,5.7-1,7.9,1.5a6,6,0,0,1,.9,7.4c-1,1.9-2.6,3.5-4.7,2.8s-.1-2.5-.4-3.8.4-3.3-1.5-3.8-2.4,1.2-2.6,2.8a1,1,0,0,1-1.4.3A1.38,1.38,0,0,0,109.58,33.9Z"/><path class="cls-9" d="M109.58,33.9h1.7c.1,1,.6,2.6-.8,2.6S109.48,34.9,109.58,33.9Z"/><path class="cls-10" d="M121.28,124.1a38.8,38.8,0,0,1-11.2-2c-1.5-.5-3.1-.9-2.7-2.8.5-2.1,2.2-1.5,3.6-1,4.3,1.5,8.7,1.6,13.1,2.1,1.5.1,4-.2,3.9,2-.1,2.7-2.7,1.7-4.3,1.8C122.88,124.2,122.08,124.1,121.28,124.1Z"/><path class="cls-11" d="M135.88,122.2c-.1,1.9-1.5,1.9-2.9,2s-2.9.1-3-1.7,1.5-1.9,2.8-2.1S135.58,120.5,135.88,122.2Z"/><g class="cls-12"><path class="cls-13" d="M134.78,99.2a6.56,6.56,0,0,0-1.2-4.3c0-4.6-.1-9.3-.1-13.9,0-5-1.6-9.2-5.9-11.8-2.2-1.3-2.1-3-2.1-5,0-9.4-.1-18.8-.1-28.2-1.4,2.2-2.5,4.6-4.9,6h0c2.2,4.8.5,9.9,1,14.9.2,2.3,0,4.6,0,6.9,0,1.5,0,3.2-2.2,3-1.9-.1-1.7-1.7-1.7-3,0-6.9.1-13.8.1-20.8l-4,.1c0,7-.1,14,0,21,.1,3-.4,5.3-2.8,7.5s-3.3,5.7-3.3,9.1c0,5.8-.1,11.7-.1,17.5v4.4a5.12,5.12,0,0,0,.1,6.4c1.1,1.3,2.8,1.2,4.2,1.6-.1-6.8-.1-13.6-.2-20.4,0-1.5-.2-3,2-3.3,3.4-.4,5.6-2.3,5.8-5.8s-2.5-5.2-5.6-6.6a7.39,7.39,0,0,1,9.1-3.2,8.82,8.82,0,0,1,6.6,8.9v32.3a.1.1,0,0,0,.1.1h4C136.18,108.4,134.48,103.7,134.78,99.2Zm-19.7-18.7v.3c.2,1.1-.5,1.8-1.6,2a1.77,1.77,0,0,1-1.8-1.7V81a1.72,1.72,0,0,1,1.4-1.7A1.64,1.64,0,0,1,115.08,80.5Z"/><path class="cls-13" d="M162.88,75.6c-1.5-1.2-1-2.5-.8-4,1.5-9.6,2.9-19,4.3-28.6h-.1l-4.9,4.9h0c-1,7.5-2,15-3.1,22.5-.2,1.5-.9,2.5-2.6,2.3-1.4-.2-1.8-1-1.6-2.5,1-6.2,2-12.3,2.8-18.6.3-2.2,2-2.7,3.4-3.7l-6.9.1c-1.1,7.5-2.2,15-3.4,22.5a5.55,5.55,0,0,1-2.6,4.4c-3.9,2.5-5.5,6.4-6,10.9-.4,3.1-.5,6.2-1.8,9.1a4.6,4.6,0,0,0-1.6,3.8c-.2,4.7-3,9.2-.7,13.9h4.2c1-6.5,2-13.1,2.9-19.6.2-1.8,1.1-2.2,2.7-2.1,3,.2,5.3-1,6.2-4a5.37,5.37,0,0,0-2.7-6.4c-2.6-1.6-1.2-2.6.4-3.3,5.6-2.7,12.6,1.5,12.4,7.9-.3,8.6-2.3,17-4.2,25.4h0l4.7-1.7c1.7-1.7,1.9-3.8,1.5-6,.1-1.4.2-2.7.3-4.1.4-2.5.7-4.9,1.2-7.4C168.28,85.5,168.18,79.9,162.88,75.6Zm-13.5,9.6v.3a2,2,0,0,1-1.5,2c-1.2,0-1.9-.6-2-1.4-.2-1.4.7-2.1,2-2.2A1.6,1.6,0,0,1,149.38,85.2Z"/><path class="cls-13" d="M160.38,48a3.4,3.4,0,0,1,1-.1l4.9-4.9h0a7.72,7.72,0,0,0,.2-1.5c1.7-7.6-1.5-12.1-9.8-13.4-6.3-1-8.8,1.5-9.6,9.7-.1,1.3-.1,2.7-.1,4-.1,4.3,1.9,6.6,6.3,6.4h.1l7-.2Z"/><path class="cls-13" d="M120.38,41.9h0c2.4-1.3,3.6-3.7,4.9-5.9h0c.1-1.3.1-2.7.1-4-.7-6.7-4.9-9.3-14-9-4.1.1-5.8,2.8-6,9-.2,8.3,1.6,10.8,8,11.1h.1l4-.1Z"/><path class="cls-13" d="M122.78,71.3a7.39,7.39,0,0,0-9.1,3.2c3.1,1.5,5.8,3.2,5.6,6.6s-2.5,5.4-5.8,5.8c-2.2.3-2,1.8-2,3.3,0,6.8.1,13.6.2,20.4h0c5.9,1.3,11.8,1.6,17.8,2.1V80.3A9.13,9.13,0,0,0,122.78,71.3Z"/><path class="cls-13" d="M163.38,85.2c.2-6.3-6.8-10.5-12.4-7.9-1.6.8-3,1.7-.4,3.3a5.37,5.37,0,0,1,2.7,6.4c-.9,3-3.2,4.2-6.2,4a2.21,2.21,0,0,0-2.7,2.1c-.9,6.5-1.9,13.1-2.9,19.6h.1a80.76,80.76,0,0,0,17.6-2.2h0C161.08,102.2,163.08,93.8,163.38,85.2Z"/><path class="cls-13" d="M117.48,43c0,7-.1,13.9-.1,20.8,0,1.3-.2,2.9,1.7,3,2.2.2,2.2-1.5,2.2-3,0-2.3.2-4.6,0-6.9-.5-5,1.3-10.1-1-14.9v-.1Z"/><path class="cls-13" d="M113.08,79.2a1.57,1.57,0,0,0-1.4,1.7V81a1.71,1.71,0,0,0,1.8,1.7c1.1-.2,1.8-.8,1.6-2v-.3A1.81,1.81,0,0,0,113.08,79.2Z"/><path class="cls-13" d="M160.38,48h0c-1.4,1-3.2,1.5-3.4,3.7-.8,6.2-1.8,12.4-2.8,18.6-.2,1.5.1,2.3,1.6,2.5,1.7.2,2.4-.8,2.6-2.3,1.1-7.5,2.1-15,3.1-22.5h0A2.05,2.05,0,0,0,160.38,48Z"/><path class="cls-13" d="M147.88,84a1.82,1.82,0,0,0-2,2.2c.1.8.8,1.4,2,1.4a2.13,2.13,0,0,0,1.5-2v-.3A1.42,1.42,0,0,0,147.88,84Z"/></g><path class="cls-14" d="M164,108.9c.6-2-.1-4.3,1.4-6,1.3.8,3.8,1.1,3.6,2.8C168.58,108,166.08,108.5,164,108.9Z"/><path class="cls-15" d="M133.58,98.9l5.7.1c-.7,4.6-1.3,9.2-1.9,13.8h-3.9C133.48,108.1,133.58,103.5,133.58,98.9Z"/><path class="cls-16" d="M107.28,102.6V109c-2.4-.3-5.3-1-5.3-3.4C102.08,103.7,105.18,103,107.28,102.6Z"/></svg>