<?xml version="1.0" encoding="UTF-8"?>

<svg width="452px" height="422px" viewBox="0 0 452 422" version="1.1" xmlns="http://www.w3.org/2000/svg" xmlns:xlink="http://www.w3.org/1999/xlink">
    <title>Phones</title>
    <defs>
        <polygon id="path-1" points="0.0001 0.852 11.5561 0.852 11.5561 13.8654 0.0001 13.8654"></polygon>
        <polygon id="path-3" points="0.1743 0.4871 8.6063 0.4871 8.6063 10 0.1743 10"></polygon>
        <polygon id="path-5" points="0.8848 0.2826 3.611 0.2826 3.611 2.9916 0.8848 2.9916"></polygon>
    </defs>
    <g id="Phones" stroke="none" stroke-width="1" fill="none" fill-rule="evenodd">
        <g id="Group-89" transform="translate(1.000000, 2.000000)">
            <g id="Group-23-Copy-3" transform="translate(177.000000, 76.000000)">
                <g id="Group-4">
                    <path d="M272.818966,383.016215 L272.818966,485.239473 C272.818966,507.472447 254.731422,525.559991 232.497267,525.559991 L40.3216983,525.559991 C18.0875431,525.559991 0,507.472447 0,485.239473 L0,40.321344 C0,18.0883698 18.0875431,-0.000354310345 40.3216983,-0.000354310345 L232.497267,-0.000354310345 C254.731422,-0.000354310345 272.818966,18.0883698 272.818966,40.321344 L272.818966,370.793689" id="Fill-1" fill="#F7F7F7"></path>
                    <path d="M272.818966,383.016215 L272.818966,485.239473 C272.818966,507.472447 254.731422,525.559991 232.497267,525.559991 L40.3216983,525.559991 C18.0875431,525.559991 0,507.472447 0,485.239473 L0,40.321344 C0,18.0883698 18.0875431,-0.000354310345 40.3216983,-0.000354310345 L232.497267,-0.000354310345 C254.731422,-0.000354310345 272.818966,18.0883698 272.818966,40.321344 L272.818966,370.793689" id="Stroke-3" stroke="#4A4A4A" stroke-width="2" stroke-linecap="round" stroke-linejoin="round"></path>
                </g>
                <g id="Group-12" transform="translate(12.991379, 12.991379)">
                    <path d="M0,86.4351897 L0,27.3291379 C0,12.2366983 12.2355172,0 27.3291379,0 L60.8823276,0 C65.8804655,0 70.0010948,3.92221552 70.245569,8.91444828 C70.6624741,16.7293534 77.1215517,22.8530172 84.9482672,22.8530172 L161.88794,22.8530172 C169.714655,22.8530172 176.173733,16.7293534 176.589457,8.91444828 C176.835112,3.92221552 180.955741,0 185.952698,0 L219.507069,0 C234.60069,0 246.836207,12.2366983 246.836207,27.3291379 L246.836207,472.249629 C246.836207,487.342069 234.60069,499.577586 219.507069,499.577586 L27.3291379,499.577586 C12.2355172,499.577586 0,487.342069 0,472.249629 L0,91.928181" id="Fill-9" fill="#FFFFFF"></path>
                    <path d="M-0.00460603448,86.4393233 L-0.00460603448,27.3332716 C-0.00460603448,12.2408319 12.2309112,0.00413362069 27.3245319,0.00413362069 L60.8777216,0.00413362069 C65.8758595,0.00413362069 69.9964888,3.92634914 70.2409629,8.9185819 C70.6578681,16.7334871 77.1169457,22.8571509 84.9436612,22.8571509 L161.883334,22.8571509 C169.710049,22.8571509 176.169127,16.7334871 176.584851,8.9185819 C176.830506,3.92634914 180.951135,0.00413362069 185.948092,0.00413362069 L219.502463,0.00413362069 C234.596084,0.00413362069 246.831601,12.2408319 246.831601,27.3332716 L246.831601,472.253763 C246.831601,487.346203 234.596084,499.58172 219.502463,499.58172 L27.3245319,499.58172 C12.2309112,499.58172 -0.00460603448,487.346203 -0.00460603448,472.253763 L-0.00460603448,91.9323147" id="Stroke-11" stroke="#4A4A4A" stroke-width="2" stroke-linecap="round" stroke-linejoin="round"></path>
                </g>
                <g id="Group-16" transform="translate(11.810345, 145.267241)">
                    <line x1="1.18221552" y1="3.71151897" x2="1.18221552" y2="0.855777586" id="Fill-13" fill="#FFFFFF"></line>
                    <line x1="1.18221552" y1="3.71151897" x2="1.18221552" y2="0.855777586" id="Stroke-15" stroke="#4A4A4A" stroke-width="2" stroke-linecap="round" stroke-linejoin="round"></line>
                </g>
                <path d="M147.369837,22.7095216 L108.442941,22.7095216 C106.756423,22.7095216 105.389966,21.3430647 105.389966,19.6565474 C105.389966,17.9712112 106.756423,16.6035733 108.442941,16.6035733 L147.369837,16.6035733 C149.056354,16.6035733 150.422811,17.9712112 150.422811,19.6565474 C150.422811,21.3430647 149.056354,22.7095216 147.369837,22.7095216" id="Fill-17" fill="#ECECEC"></path>
                <path d="M162.704743,24.3808034 L162.704743,24.3808034 C160.095838,24.3808034 157.980605,22.2667517 157.980605,19.6566655 C157.980605,17.0477603 160.095838,14.9325276 162.704743,14.9325276 C165.313648,14.9325276 167.428881,17.0477603 167.428881,19.6566655 C167.428881,22.2667517 165.313648,24.3808034 162.704743,24.3808034" id="Fill-19" fill="#ECECEC"></path>
            </g>
            <g id="Group-48" transform="translate(235.000000, 176.000000)">
                <g id="Group-4" transform="translate(19.572418, 0.000000)">
                    <path d="M117.434506,58.5997921 C117.434506,90.9634806 91.1458135,117.199584 58.7172532,117.199584 C26.2886929,117.199584 -2.84217094e-14,90.9634806 -2.84217094e-14,58.5997921 C-2.84217094e-14,26.2361036 26.2886929,4.26325641e-14 58.7172532,4.26325641e-14 C91.1458135,4.26325641e-14 117.434506,26.2361036 117.434506,58.5997921" id="Fill-11" fill="#ECECEC"></path>
                    <path d="M66.9327906,40.2175257 C66.9327906,40.2175257 61.5542902,38.0307768 56.1660036,38.06203 C51.4118633,38.0942599 46.6587016,39.8581136 45.5783042,46.3773405 C45.5783042,46.3773405 44.1700687,52.5371553 51.9305324,56.2357788 C59.690996,59.9334257 68.1609598,62.4063369 64.9843564,72.6124674 C64.9843564,72.6124674 60.0511285,84.5941716 42.5827457,75.7827162" id="Stroke-17" stroke="#4A4A4A" stroke-width="3" stroke-linecap="round" stroke-linejoin="round"></path>
                    <line x1="55.2210186" y1="28.943707" x2="55.2210186" y2="38.0618346" id="Stroke-19" stroke="#4A4A4A" stroke-width="3" stroke-linecap="round" stroke-linejoin="round"></line>
                    <line x1="55.2210186" y1="78.8784455" x2="55.2210186" y2="88.7788804" id="Stroke-21" stroke="#4A4A4A" stroke-width="3" stroke-linecap="round" stroke-linejoin="round"></line>
                </g>
                <path d="M146.793133,175.799376 L9.78620887,175.799376 C4.40379399,175.799376 -8.95283847e-13,171.404392 -8.95283847e-13,166.032744 L-8.95283847e-13,166.032744 C-8.95283847e-13,160.661097 4.40379399,156.266112 9.78620887,156.266112 L146.793133,156.266112 C152.175548,156.266112 156.579342,160.661097 156.579342,166.032744 L156.579342,166.032744 C156.579342,171.404392 152.175548,175.799376 146.793133,175.799376" id="Fill-13" fill="#ECECEC"></path>
                <path d="M107.648298,214.865904 L48.9310443,214.865904 C43.5486295,214.865904 39.1448355,210.47092 39.1448355,205.099272 L39.1448355,205.099272 C39.1448355,199.727625 43.5486295,195.33264 48.9310443,195.33264 L107.648298,195.33264 C113.030712,195.33264 117.434506,199.727625 117.434506,205.099272 L117.434506,205.099272 C117.434506,210.47092 113.030712,214.865904 107.648298,214.865904" id="Fill-15" fill="#ECECEC"></path>
            </g>
            <g id="Group-23-Copy-2">
                <g id="Group-4">
                    <path d="M272.818966,383.016215 L272.818966,485.239473 C272.818966,507.472447 254.731422,525.559991 232.497267,525.559991 L40.3216983,525.559991 C18.0875431,525.559991 0,507.472447 0,485.239473 L0,40.321344 C0,18.0883698 18.0875431,-0.000354310345 40.3216983,-0.000354310345 L232.497267,-0.000354310345 C254.731422,-0.000354310345 272.818966,18.0883698 272.818966,40.321344 L272.818966,370.793689" id="Fill-1" fill="#F7F7F7"></path>
                    <path d="M272.818966,383.016215 L272.818966,485.239473 C272.818966,507.472447 254.731422,525.559991 232.497267,525.559991 L40.3216983,525.559991 C18.0875431,525.559991 0,507.472447 0,485.239473 L0,40.321344 C0,18.0883698 18.0875431,-0.000354310345 40.3216983,-0.000354310345 L232.497267,-0.000354310345 C254.731422,-0.000354310345 272.818966,18.0883698 272.818966,40.321344 L272.818966,370.793689" id="Stroke-3" stroke="#4A4A4A" stroke-width="2" stroke-linecap="round" stroke-linejoin="round"></path>
                </g>
                <g id="Group-8" transform="translate(271.637931, 375.568966)">
                    <line x1="1.18103448" y1="0.717360345" x2="1.18103448" y2="2.42041207" id="Fill-5" fill="#F7F7F7"></line>
                    <line x1="1.18103448" y1="0.717360345" x2="1.18103448" y2="2.42041207" id="Stroke-7" stroke="#4A4A4A" stroke-width="2" stroke-linecap="round" stroke-linejoin="round"></line>
                </g>
                <g id="Group-12" transform="translate(12.991379, 12.991379)">
                    <path d="M0,86.4351897 L0,27.3291379 C0,12.2366983 12.2355172,0 27.3291379,0 L60.8823276,0 C65.8804655,0 70.0010948,3.92221552 70.245569,8.91444828 C70.6624741,16.7293534 77.1215517,22.8530172 84.9482672,22.8530172 L161.88794,22.8530172 C169.714655,22.8530172 176.173733,16.7293534 176.589457,8.91444828 C176.835112,3.92221552 180.955741,0 185.952698,0 L219.507069,0 C234.60069,0 246.836207,12.2366983 246.836207,27.3291379 L246.836207,472.249629 C246.836207,487.342069 234.60069,499.577586 219.507069,499.577586 L27.3291379,499.577586 C12.2355172,499.577586 0,487.342069 0,472.249629 L0,91.928181" id="Fill-9" fill="#FFFFFF"></path>
                    <g id="Group-19" transform="translate(16.000000, 90.000000)">
                        <path d="M26.4027205,3.55271368e-15 C23.3345095,3.55271368e-15 20.4120673,0.623677686 17.7543889,1.75016529 C9.79176577,5.09392562 4.10194667,12.9161157 3.94762506,22.0169008 C3.90820798,24.3498347 4.22577582,26.602438 4.84975572,28.7245041 C4.84975572,28.7245041 5.96570547,32.1370661 3.82602707,36.783595 C2.78853964,39.0361983 1.42939391,40.8484711 0.311213003,42.1129339 C-0.415771921,42.9352066 0.21787632,44.2286777 1.31411753,44.1602479 C2.89712255,44.0609504 4.87467029,43.7864876 6.71016778,43.102562 C9.03875069,42.2356612 10.6265899,41.118843 11.4736854,40.421157 C11.9128512,40.0596694 12.5386904,40.0407025 12.9953336,40.3802479 C15.5511226,42.2784298 18.5274844,43.6418182 21.7570824,44.3153306 C22.1653839,44.400124 22.3133839,44.4242975 22.4606401,44.4503306 C23.7409517,44.6801653 25.0565899,44.8066116 26.4027205,44.8066116 L117.480911,44.8066116 C129.729213,44.8066116 139.6586,34.8761157 139.6586,22.6264463 L139.6586,22.1801653 C139.6586,9.93049587 129.729213,3.55271368e-15 117.480911,3.55271368e-15 L26.4027205,3.55271368e-15 Z" id="Fill-1" fill="#ECECEC"></path>
                        <path d="M131.402721,63 C128.334509,63 125.412067,63.6236777 122.754389,64.7501653 C114.791766,68.0939256 109.101947,75.9161157 108.947625,85.0169008 C108.908208,87.3498347 109.225776,89.602438 109.849756,91.7245041 C109.849756,91.7245041 110.965705,95.1370661 108.826027,99.783595 C107.78854,102.036198 106.429394,103.848471 105.311213,105.112934 C104.584228,105.935207 105.217876,107.228678 106.314118,107.160248 C107.897123,107.06095 109.87467,106.786488 111.710168,106.102562 C114.038751,105.235661 115.62659,104.118843 116.473685,103.421157 C116.912851,103.059669 117.53869,103.040702 117.995334,103.380248 C120.551123,105.27843 123.527484,106.641818 126.757082,107.315331 C127.165384,107.400124 127.313384,107.424298 127.46064,107.450331 C128.740952,107.680165 130.05659,107.806612 131.402721,107.806612 L192.480911,107.806612 C204.729213,107.806612 214.6586,97.8761157 214.6586,85.6264463 L214.6586,85.1801653 C214.6586,72.9304959 204.729213,63 192.480911,63 L131.402721,63 Z" id="Fill-1-Copy" fill="#ECECEC" transform="translate(159.829300, 85.403306) scale(-1, 1) translate(-159.829300, -85.403306) "></path>
                        <path d="M26.4027205,119.510692 C23.3345095,119.510692 20.4120673,120.134369 17.7543889,121.260857 C9.79176577,124.604617 4.10194667,132.426807 3.94762506,141.527593 C3.90820798,143.860526 4.22577582,146.11313 4.84975572,148.235196 C4.84975572,148.235196 5.96570547,151.647758 3.82602707,156.294287 C2.78853964,158.54689 1.42939391,160.359163 0.311213003,161.623626 C-0.415771921,162.445898 0.21787632,163.739369 1.31411753,163.67094 C2.89712255,163.571642 4.87467029,163.297179 6.71016778,162.613254 C9.03875069,161.746353 10.6265899,160.629535 11.4736854,159.931849 C11.9128512,159.570361 12.5386904,159.551394 12.9953336,159.89094 C15.5511226,161.789121 18.5274844,163.15251 21.7570824,163.826022 C22.1653839,163.910816 22.3133839,163.934989 22.4606401,163.961022 C23.7409517,164.190857 25.0565899,164.317303 26.4027205,164.317303 L67.4809115,164.317303 C79.729213,164.317303 89.6585999,154.386807 89.6585999,142.137138 L89.6585999,141.690857 C89.6585999,129.441188 79.729213,119.510692 67.4809115,119.510692 L26.4027205,119.510692 Z" id="Fill-1" fill="#15202A"></path>
                    </g>
                    <path d="M-0.00460603448,86.4393233 L-0.00460603448,27.3332716 C-0.00460603448,12.2408319 12.2309112,0.00413362069 27.3245319,0.00413362069 L60.8777216,0.00413362069 C65.8758595,0.00413362069 69.9964888,3.92634914 70.2409629,8.9185819 C70.6578681,16.7334871 77.1169457,22.8571509 84.9436612,22.8571509 L161.883334,22.8571509 C169.710049,22.8571509 176.169127,16.7334871 176.584851,8.9185819 C176.830506,3.92634914 180.951135,0.00413362069 185.948092,0.00413362069 L219.502463,0.00413362069 C234.596084,0.00413362069 246.831601,12.2408319 246.831601,27.3332716 L246.831601,472.253763 C246.831601,487.346203 234.596084,499.58172 219.502463,499.58172 L27.3245319,499.58172 C12.2309112,499.58172 -0.00460603448,487.346203 -0.00460603448,472.253763 L-0.00460603448,91.9323147" id="Stroke-11" stroke="#4A4A4A" stroke-width="2" stroke-linecap="round" stroke-linejoin="round"></path>
                </g>
                <g id="Group-16" transform="translate(11.810345, 145.267241)">
                    <line x1="1.18221552" y1="3.71151897" x2="1.18221552" y2="0.855777586" id="Fill-13" fill="#FFFFFF"></line>
                    <line x1="1.18221552" y1="3.71151897" x2="1.18221552" y2="0.855777586" id="Stroke-15" stroke="#4A4A4A" stroke-width="2" stroke-linecap="round" stroke-linejoin="round"></line>
                </g>
                <path d="M147.369837,22.7095216 L108.442941,22.7095216 C106.756423,22.7095216 105.389966,21.3430647 105.389966,19.6565474 C105.389966,17.9712112 106.756423,16.6035733 108.442941,16.6035733 L147.369837,16.6035733 C149.056354,16.6035733 150.422811,17.9712112 150.422811,19.6565474 C150.422811,21.3430647 149.056354,22.7095216 147.369837,22.7095216" id="Fill-17" fill="#ECECEC"></path>
                <path d="M162.704743,24.3808034 L162.704743,24.3808034 C160.095838,24.3808034 157.980605,22.2667517 157.980605,19.6566655 C157.980605,17.0477603 160.095838,14.9325276 162.704743,14.9325276 C165.313648,14.9325276 167.428881,17.0477603 167.428881,19.6566655 C167.428881,22.2667517 165.313648,24.3808034 162.704743,24.3808034" id="Fill-19" fill="#ECECEC"></path>
            </g>
            <polygon id="Fill-62" fill="#000000" opacity="0.031342" points="274 427 294 427 294 76 274 76"></polygon>
        </g>
        <g id="Group-14" transform="translate(56.000000, 239.000000)">
            <g id="Group-3" transform="translate(0.000000, 0.148400)">
                <mask id="mask-2" fill="white">
                    <use xlink:href="#path-1"></use>
                </mask>
                <g id="Clip-2"></g>
                <path d="M9.0811,7.3584 C9.0811,6.6444 8.9841,6.0044 8.7931,5.4364 C8.6011,4.8704 8.3281,4.3894 7.9741,3.9974 C7.6201,3.6034 7.1891,3.3024 6.6831,3.0914 C6.1751,2.8814 5.6031,2.7774 4.9681,2.7774 L2.4381,2.7774 L2.4381,11.9394 L4.9681,11.9394 C5.6031,11.9394 6.1751,11.8344 6.6831,11.6244 C7.1891,11.4144 7.6201,11.1124 7.9741,10.7194 C8.3281,10.3274 8.6011,9.8464 8.7931,9.2794 C8.9841,8.7124 9.0811,8.0724 9.0811,7.3584 M11.5561,7.3584 C11.5561,8.3124 11.3961,9.1884 11.0791,9.9864 C10.7611,10.7844 10.3131,11.4714 9.7371,12.0464 C9.1621,12.6234 8.4691,13.0704 7.6591,13.3884 C6.8491,13.7064 5.9521,13.8654 4.9681,13.8654 L0.0001,13.8654 L0.0001,0.8514 L4.9681,0.8514 C5.9521,0.8514 6.8491,1.0114 7.6591,1.3334 C8.4691,1.6534 9.1621,2.1004 9.7371,2.6734 C10.3131,3.2474 10.7611,3.9324 11.0791,4.7304 C11.3961,5.5284 11.5561,6.4044 11.5561,7.3584" id="Fill-1" fill="#FFFFFF" mask="url(#mask-2)"></path>
            </g>
            <path d="M17.2705,12.4384 C18.0395,12.4384 18.6075,12.1804 18.9765,11.6654 C19.3455,11.1484 19.5305,10.3924 19.5305,9.3964 C19.5305,8.4004 19.3455,7.6414 18.9765,7.1204 C18.6075,6.5974 18.0395,6.3364 17.2705,6.3364 C16.4915,6.3364 15.9155,6.5994 15.5425,7.1244 C15.1705,7.6494 14.9855,8.4064 14.9855,9.3964 C14.9855,10.3864 15.1705,11.1414 15.5425,11.6604 C15.9155,12.1794 16.4915,12.4384 17.2705,12.4384 M17.2705,4.6354 C17.9605,4.6354 18.5855,4.7474 19.1475,4.9684 C19.7085,5.1904 20.1865,5.5054 20.5835,5.9144 C20.9785,6.3214 21.2855,6.8194 21.5005,7.4074 C21.7165,7.9964 21.8255,8.6524 21.8255,9.3784 C21.8255,10.1104 21.7165,10.7704 21.5005,11.3584 C21.2855,11.9464 20.9785,12.4474 20.5835,12.8614 C20.1865,13.2754 19.7085,13.5934 19.1475,13.8154 C18.5855,14.0374 17.9605,14.1484 17.2705,14.1484 C16.5815,14.1484 15.9545,14.0374 15.3895,13.8154 C14.8265,13.5934 14.3445,13.2754 13.9455,12.8614 C13.5455,12.4474 13.2375,11.9464 13.0185,11.3584 C12.7985,10.7704 12.6895,10.1104 12.6895,9.3784 C12.6895,8.6524 12.7985,7.9964 13.0185,7.4074 C13.2375,6.8194 13.5455,6.3214 13.9455,5.9144 C14.3445,5.5054 14.8265,5.1904 15.3895,4.9684 C15.9545,4.7474 16.5815,4.6354 17.2705,4.6354" id="Fill-4" fill="#FFFFFF"></path>
            <path d="M23.5615,14.0136 L23.5615,4.7796 L24.9205,4.7796 C25.2085,4.7796 25.3975,4.9146 25.4875,5.1846 L25.6405,5.9136 C25.8275,5.7216 26.0235,5.5476 26.2305,5.3916 C26.4375,5.2356 26.6565,5.1006 26.8875,4.9866 C27.1185,4.8726 27.3655,4.7856 27.6295,4.7256 C27.8935,4.6656 28.1815,4.6356 28.4945,4.6356 C28.9985,4.6356 29.4445,4.7206 29.8345,4.8926 C30.2245,5.0636 30.5495,5.3026 30.8115,5.6126 C31.0725,5.9206 31.2705,6.2896 31.4055,6.7186 C31.5405,7.1486 31.6075,7.6206 31.6075,8.1366 L31.6075,14.0136 L29.3845,14.0136 L29.3845,8.1366 C29.3845,7.5736 29.2535,7.1366 28.9935,6.8266 C28.7325,6.5186 28.3405,6.3636 27.8185,6.3636 C27.4345,6.3636 27.0755,6.4516 26.7395,6.6246 C26.4025,6.7986 26.0845,7.0356 25.7855,7.3356 L25.7855,14.0136 L23.5615,14.0136 Z" id="Fill-6" fill="#FFFFFF"></path>
            <g id="Group-10" transform="translate(33.000000, 4.148400)">
                <mask id="mask-4" fill="white">
                    <use xlink:href="#path-3"></use>
                </mask>
                <g id="Clip-9"></g>
                <path d="M4.6553,2.0801 C4.0083,2.0801 3.5013,2.2641 3.1343,2.6291 C2.7683,2.9951 2.5343,3.5151 2.4323,4.1861 L6.6083,4.1861 C6.6083,3.8981 6.5693,3.6271 6.4913,3.3721 C6.4143,3.1171 6.2943,2.8931 6.1323,2.7011 C5.9693,2.5101 5.7653,2.3571 5.5193,2.2471 C5.2733,2.1361 4.9853,2.0801 4.6553,2.0801 M4.6103,0.4871 C5.1923,0.4871 5.7283,0.5801 6.2173,0.7671 C6.7063,0.9521 7.1283,1.2241 7.4813,1.5811 C7.8363,1.9371 8.1113,2.3761 8.3093,2.8941 C8.5083,3.4141 8.6063,4.0061 8.6063,4.6721 C8.6063,4.8401 8.5983,4.9791 8.5843,5.0911 C8.5693,5.2021 8.5423,5.2891 8.5033,5.3511 C8.4643,5.4151 8.4123,5.4601 8.3453,5.4861 C8.2793,5.5141 8.1953,5.5271 8.0933,5.5271 L2.3873,5.5271 C2.4543,6.4761 2.7093,7.1711 3.1523,7.6151 C3.5963,8.0591 4.1843,8.2811 4.9173,8.2811 C5.2763,8.2811 5.5873,8.2391 5.8483,8.1551 C6.1093,8.0711 6.3373,7.9781 6.5323,7.8761 C6.7273,7.7741 6.8983,7.6821 7.0453,7.5981 C7.1923,7.5141 7.3353,7.4721 7.4723,7.4721 C7.5623,7.4721 7.6403,7.4891 7.7073,7.5251 C7.7723,7.5611 7.8303,7.6121 7.8783,7.6791 L8.5253,8.4881 C8.2793,8.7761 8.0043,9.0171 7.6973,9.2131 C7.3913,9.4081 7.0723,9.5631 6.7393,9.6811 C6.4063,9.7981 6.0673,9.8801 5.7223,9.9291 C5.3773,9.9761 5.0433,10.0001 4.7183,10.0001 C4.0763,10.0001 3.4793,9.8931 2.9273,9.6811 C2.3763,9.4681 1.8953,9.1521 1.4873,8.7351 C1.0803,8.3181 0.7593,7.8031 0.5243,7.1871 C0.2913,6.5731 0.1743,5.8601 0.1743,5.0501 C0.1743,4.4201 0.2753,3.8281 0.4793,3.2721 C0.6833,2.7181 0.9763,2.2341 1.3573,1.8241 C1.7383,1.4131 2.2033,1.0871 2.7523,0.8481 C3.3013,0.6071 3.9213,0.4871 4.6103,0.4871" id="Fill-8" fill="#FFFFFF" mask="url(#mask-4)"></path>
            </g>
            <g id="Group-13" transform="translate(42.000000, 11.148400)">
                <mask id="mask-6" fill="white">
                    <use xlink:href="#path-5"></use>
                </mask>
                <g id="Clip-12"></g>
                <path d="M0.8848,1.6416 C0.8848,1.4546 0.9188,1.2786 0.9888,1.1106 C1.0568,0.9426 1.1528,0.7976 1.2758,0.6786 C1.3988,0.5586 1.5438,0.4616 1.7118,0.3906 C1.8798,0.3186 2.0608,0.2826 2.2518,0.2826 C2.4388,0.2826 2.6148,0.3186 2.7828,0.3906 C2.9508,0.4616 3.0948,0.5586 3.2148,0.6786 C3.3348,0.7976 3.4318,0.9426 3.5028,1.1106 C3.5748,1.2786 3.6118,1.4546 3.6118,1.6416 C3.6118,1.8326 3.5748,2.0116 3.5028,2.1766 C3.4318,2.3416 3.3348,2.4846 3.2148,2.6046 C3.0948,2.7246 2.9508,2.8186 2.7828,2.8876 C2.6148,2.9566 2.4388,2.9916 2.2518,2.9916 C2.0608,2.9916 1.8798,2.9566 1.7118,2.8876 C1.5438,2.8186 1.3988,2.7246 1.2758,2.6046 C1.1528,2.4846 1.0568,2.3416 0.9888,2.1766 C0.9188,2.0116 0.8848,1.8326 0.8848,1.6416" id="Fill-11" fill="#FFFFFF" mask="url(#mask-6)"></path>
            </g>
        </g>
    </g>
</svg>
