<svg id="Layer_1" data-name="Layer 1" xmlns="http://www.w3.org/2000/svg" viewBox="0 0 292.4 194.1"><defs><style>.cls-1{fill:#4c4b4c;}.cls-2{fill:#fff;}.cls-3{fill:#fefdfd;}.cls-4{fill:#fefefe;}.cls-5{fill:#504f4f;}.cls-6{fill:#535252;}.cls-7{fill:#4f4e4e;}.cls-8{fill:#4e4e4e;}.cls-9{fill:#e9e8e8;}.cls-10{fill:#ebe9e9;}.cls-11{fill:#ed1e81;opacity:0.5;}</style></defs><title>7 windows-04-04</title><path id="path8" class="cls-1" d="M139.57,157c-19.27-.08-35.78-14.67-38.93-34.32-1.3-8.08-3.07-16.18-3.93-24.34C96.26,94.17,94.31,93,90.8,92c-5.27-1.48-12.56-2.11-12.58-9.12s7.27-7.94,12.58-9,7.85-3.62,9.5-8.59c2.75-8.26,6.46-16.18,12.11-23,6.52-7.81,12.34-9,20.94-3.51,4.69,3,8.22,3.76,13.1,0,6.64-5.09,12.08-4,17.88,2.59,6.3,7.14,10.43,15.64,13.86,24.4,1.69,4.33,4.07,6.74,8.74,7.75,5.63,1.22,13.17,2.3,13.2,9.38,0,6.69-7.3,7.75-12.7,9-4,.94-5.07,2.9-5.21,6.82-.27,7.51-1,15-2,22.49A40.83,40.83,0,0,1,139.57,157Z"/><path id="path10" class="cls-2" d="M193.89,82.78c-17.21,11.07-93.31,11-109.45-.06,2.09-2.16,4.93-2.67,7.62-3.34,1.35-.34,3.52-1.27,3.18,1.85C95,83.48,96.07,85,98.4,84.8s2.7-2.53,3.08-4.26a100.13,100.13,0,0,1,8.71-23.71,69.49,69.49,0,0,1,5.33-9.09c5.4-7.53,8.83-8.1,16.41-3.05,3.91,2.6,7.78,5.26,11.68,7.89,1.18.79,2.42,1.64,3.84.58s1.78-2.55.82-3.7c-1.63-2-3-3.36.18-5.22,2.91-1.67,5.72-3.94,8.92-1.27a34.39,34.39,0,0,1,6,6.8A44.09,44.09,0,0,1,168.54,59c4.23,11.09,8.88,21.51,23.08,22.2C192.42,81.18,193.11,82.19,193.89,82.78Z"/><path id="path12" class="cls-3" d="M107.81,95.22c20.67,1.86,42.45,2.26,64.21-.38,3.54-.43,5.19.19,4.61,4.31-.85,6-1.43,12.12-1.7,18.21-.37,8.59-3.26,9.78-12.73,9.39a34,34,0,0,1-16.49-5.56c-3.66-2.31-6.72-2.1-10.39-.3a56.19,56.19,0,0,1-20.84,5.8c-4.88.33-7.91-1.06-8.45-6.68a160.52,160.52,0,0,0-3.32-20.8C101.71,94.9,103.08,94.2,107.81,95.22Z"/><path id="path14" class="cls-4" d="M111.05,132.94a71.49,71.49,0,0,0,25.75-6.31c2.25-1,4.29-1.34,6.64,0A48.64,48.64,0,0,0,169.05,133c-3.3,9.9-14.85,17.54-27.35,18.28A31,31,0,0,1,111.05,132.94Z"/><path id="path16" class="cls-5" d="M150.91,85.07q-1.57.09-3.15.09c-2.16,0-4.77.28-4.87-2.54-.11-3.34,3.85-3.22,6.21-3.22a58.37,58.37,0,0,0,14.41-1.82c2.35-.59,6.58-2,7.72,1.15.88,2.44-.79,3.51-2.75,4a82.53,82.53,0,0,1-12.2,2C154.49,84.82,152.71,85,150.91,85.07Z"/><path id="path18" class="cls-6" d="M130.55,85c-2.22-.37-5.75,1.08-6.09-2.66-.18-1.93.69-3.08,2.62-3.18a40.2,40.2,0,0,1,7.11,0,2.72,2.72,0,0,1,2.46,2.94C136.71,85.65,133.09,84.79,130.55,85Z"/><path id="path20" class="cls-7" d="M173.77,104.34c0,6.49-4.93,12.41-11.7,13.93-6.06,1.36-13.07-2.26-15.65-8-1.56-3.46-1.13-5.85,3-6.79,6.14-1.42,12.26-2.91,18.39-4.36C172.15,98.13,173.89,100.15,173.77,104.34Z"/><path id="path22" class="cls-8" d="M121.55,118.89c-6.41-.19-10.9-2.84-13.59-8-1.75-3.38-3-7.34-.55-10.72,2.6-3.56,6-.61,8.93.11,4.55,1.12,9,2.63,13.54,3.74,5.33,1.28,5.58,4.22,3,8.21A14.68,14.68,0,0,1,121.55,118.89Z"/><path id="path24" class="cls-9" d="M152.52,109.09c5.29-1.57,9.53-3.32,14.37-3C163.85,113.75,160,114.67,152.52,109.09Z"/><path id="path26" class="cls-10" d="M112.17,105l15.09,4.33C120.47,115.14,116.43,114.21,112.17,105Z"/><path id="path856" class="cls-11" d="M199.89,85.33C197.82,99.1,97.43,99.78,81.29,88.72c-3.6-1.71-3.91-10.32-1.22-11,1.35-.34,1.72-1.12,4.23-2.5,2.9-.44,3.83-1.15,6.16-1.37s4.19-1.33,7.27-3.51c2.79-3.75,3.32-9,7.21-16.52A82.82,82.82,0,0,1,110.72,44c5.4-7.53,12.73-12.59,23.16-4.85,3.91,2.6,3.73,1.37,6.73,2.35,4-1.37,2.57-.31,4-1.37,6-4-.63.05,6-4,2.91-1.67,9.17-.8,12.07,3.22,2.29,2,5.65,7.13,7.35,9.65,2.08,2.84,6.21,12.22,7.56,15.48,5.13,10.19,9.48,8.91,14.69,10.2.8,0,10.18,2.09,7.67,10.63Z"/></svg>