<?xml version="1.0" encoding="utf-8"?>
<!-- Generator: Adobe Illustrator 23.0.1, SVG Export Plug-In . SVG Version: 6.00 Build 0)  -->
<svg version="1.1" id="Layer_1" xmlns="http://www.w3.org/2000/svg" xmlns:xlink="http://www.w3.org/1999/xlink" x="0px" y="0px"
	 viewBox="0 0 292.4 194.1" style="enable-background:new 0 0 292.4 194.1;" xml:space="preserve">
<style type="text/css">
	.st0{fill:#4C4B4C;}
	.st1{fill:#FFFFFF;}
	.st2{fill:#EBEBEB;}
	.st3{fill:#FCFCFC;}
	.st4{fill:#ECECEC;}
	.st5{fill:#4E4D4E;}
	.st6{fill:#F7F6F6;}
	.st7{fill:#E9E9E9;}
	.st8{fill:#F7F8F8;}
	.st9{fill:#EEEDEE;}
	.st10{fill:#FEFEFE;}
	.st11{opacity:0.5;}
	.st12{fill:#EC1E81;}
</style>
<title>Home 2.1</title>
<path class="st0" d="M59.4,106.4c1.1-1.1,0.6-2.6,1.1-3.9c1.1-1.7,2.9-1.8,4.6-1.8c5-0.2,10-0.2,15.1,0c2.4,0.1,5,0.4,5.7,3.5
	c-0.5,3.2-3,3.4-5.5,3.7c-2.9,0.2-5.9,0.3-8.8,0.1c-3.6-0.1-5.4,1.2-5.4,5.1c0.1,13.9,0.1,27.7,0,41.6c0,3.7,1.4,5.3,5.2,5.3
	c18.7,0,37.4,0,56.1,0c3.8,0,5.2-1.6,5.2-5.3c-0.1-13.7-0.1-27.4,0-41c0-4.4-2-5.7-6-5.6c-9.2,0.1-18.4,0.2-27.5,0
	c-2.9-0.1-6.1,0.2-7-3.8c0.9-3.3,3.7-3.4,6.2-3.5c11.6-0.2,23.2-0.2,34.8,0c5.8,0.1,7.6,2,7.8,8c0.3,7.4,0.1,14.9,0.1,22.3
	c0,9.2,0.1,18.4-0.1,27.5c-0.2,7.2-2.6,9.8-9.8,9.8c-21.5,0.2-43,0.1-64.4,0c-2.4,0-5,0.1-6.3-2.6c-0.4-1.2-0.8-2.3-1.3-3.5
	C60,143.6,59.8,125,59.4,106.4z"/>
<path class="st1" d="M60.6,165.8c1.6,0.9,3.4,0.6,5.1,0.6c22.3,0,44.7-0.1,67,0.1c5,0,6.6-1.6,6.5-6.6c-0.2-17.3-0.2-34.6,0-51.9
	c0.1-4.5-1.4-6-6-5.8c-11.8,0.3-23.5,0.1-35.3,0.1c-2,0-4.3-0.6-5.3,2c-2,1.9-5.1,1.9-7.2,0c-0.7-1.4-2.2-2.3-3.8-2.1
	c-7.1,0.2-14.1,0.2-21.2,0.3c-2.7,0.1-2.4-1.8-2.4-3.6c0-13.5,0-27,0-40.6c0-2.5,0.7-3.5,3.3-4.2c15.4-4.2,30.8-8.7,46.2-13
	c2.5,1.6,2.2,4.1,2.3,6.5c0,6.9,0,13.8,0,20.8c0,5.8,0.4,6.2,6.2,6.2c15.9,0,31.8-0.1,47.7,0.1c2.5,0,5.3-0.8,7,2
	c0,7.3-0.1,14.6,0.1,21.8c0.1,2.9-0.8,3.8-3.8,3.8c-5.5-0.2-11.1,0.1-16.6,0.1c-1.4,0-3.1,0-3.4,1.7c-0.3,2.2,1.6,2.4,3.2,2.3
	c2.6-0.2,2.7,1.3,2.7,3.2c0,22.4-0.1,44.8,0,67.1c0,2.7-0.8,3.6-3.5,3.6c-29.3-0.1-58.6-0.1-87.9,0c-2.3,0-3.6-0.4-3.4-3.1
	s0.1-5.6,0-8.3C58,166.9,58.7,165.9,60.6,165.8z"/>
<path class="st2" d="M255.1,142.8c0,10.8-0.1,21.5,0.1,32.2c0.1,3.4-0.6,4.9-4.4,4.7c-6-0.3-12.1-0.2-18.2,0
	c-2.8,0.1-3.5-0.9-3.5-3.6c0.1-22.4,0.1-44.7,0-67.1c0-2.9,1.1-3.4,3.7-3.3c6.2,0.1,12.5,0.2,18.7,0c3-0.1,3.8,0.9,3.7,3.8
	C255,120.7,255.1,131.8,255.1,142.8L255.1,142.8z"/>
<path class="st3" d="M195.8,23c5.3-0.1,12.1-2.2,15.6,0.7c3.3,2.8,1,9.8,1,14.9c0.1,11.4-0.1,22.9-0.2,34.3c-4.8,3-10.1,2.1-15,0.9
	c-3.9-0.9-2.5-5.2-3.5-8.7c-0.4,1.5-0.6,2.9-0.7,4.4c-0.9,4.8-2.2,5.3-12.2,5c-5.7-0.2-7-1.1-7.4-5.8s-0.1-9.3-0.1-14
	c0-8.3,0-16.6,0-24.9c0-2.4-0.1-4.9,1.6-6.9h16.6c1.8,2,1.5,4.5,1.5,6.9c0.1,5.8-0.2,11.7,0.6,17.5c0.6-5.7,0.4-11.3,0.5-17
	C194.3,27.9,193.9,25.2,195.8,23z"/>
<path class="st4" d="M212.3,76.4c0.1,7.4,0,14.8,0.2,22.3c0.1,2.6-0.5,3.6-3.4,3.6c-10.4-0.2-20.7-0.2-31.1,0
	c-2.8,0-3.5-0.9-3.5-3.5c0.1-7.3,0-14.5,0-21.8c0.9-2.2,2.9-2.3,4.7-2.3c9.4-0.2,18.9-0.1,28.3,0C209.4,74.5,211.1,75.2,212.3,76.4z
	"/>
<path class="st0" d="M212.3,76.4c-12.6,0.3-25.2-0.8-37.7,0.6c-1.3-0.5-2.5-0.9-3.9-0.3c-18.9-0.1-37.7-0.4-56.6-0.2
	c-5,0-6.4-1.4-6.3-6.4c0.2-9.7,0.7-19.4-0.3-29c1.6-0.7,3.1-1.5,4.9-1.3c1.1,7.9,0.3,15.8,0.4,23.8c0.2,7.6,0.4,7.9,7.9,7.9
	c4.2,0,8.3,0,12.4,0.1c1.9,0.1,3.9,0.4,5.1-1.6c1.4-7.5,0.3-15.1,0.6-22.7c0.2-5-0.5-10,0.4-15c1.6-1.3,3.7-1,5.5-1.7
	c1.8,2,1.4,4.5,1.4,6.9c0.1,8.3,0,16.6,0,24.9c0,8.9,0,8.9,8.7,9c2.9,0,5.9,0.2,8.8,0.1c1.7,0,3.5,0.1,4.6-1.6
	c1.2-3.4,0.6-6.9,0.7-10.3c0.3-11.9-0.4-23.8,0.4-35.8c1.6-1.3,3.6-1,5.4-0.9c0,14.9,0.1,29.8-0.2,44.6c-0.1,4.5,1.5,5.9,5.7,5.3
	c0.7-0.1,1.4-0.1,2.1,0c8.4,0,8.4,0,9.1-8.4c0.1-1.5,0-3.5,2.1-3.5s1.9,2.1,2,3.6c0.6,8.4,0.6,8.4,9.3,8.3l7.3-0.1L212.3,76.4z"/>
<path class="st3" d="M169.5,23.9c1.4,0.9,1.2,2.4,1.2,3.7c0,14.8-0.1,29.6-0.1,44.4c-3.4,1.2-6.9,0.2-10.3,0.5
	c-2.2,0.2-3.1-1.3-3.6-3c-3.4-12-5.8-24.3-8.6-36.4c-0.3-1.2,0-2.5,0.8-3.4L169.5,23.9z"/>
<path class="st3" d="M140.4,72c-5.5,2.2-11.2,0.8-16.8,0.9c-12.1,0.3-12.3,0.1-12.1-11.9c0.1-7.1-1.1-14.2,1-21.2l11.4-3
	c2.4,1.6,2.8,4.3,3.3,6.7c1.2,5.7,3,11.3,3.8,17.1S133.9,71,140.4,72z"/>
<path class="st3" d="M140.4,72c-7.9,0-7.9,0-9.8-7.4c-2.3-9.3-4.5-18.6-6.7-27.9l15.5-4.4c1.2,0.8,1.2,2,1.2,3.2
	C140.5,47.7,140.4,59.9,140.4,72z"/>
<path class="st3" d="M148.9,29.6c2.8,12.4,5.8,24.8,8.4,37.3c0.9,4.2,2.8,5.8,7,5.2c2.1-0.2,4.2-0.2,6.2-0.1c-8,2.2-16,0.6-24.1,0.8
	c-2.2,0-1.8-2.2-1.8-3.7c0-12.8,0-25.6,0.1-38.5L148.9,29.6z"/>
<path class="st0" d="M195.8,23c0,8.3,0,16.6-0.1,25c0,1.7,0.2,4-2.3,3.8c-2-0.2-1.8-2.2-1.8-3.8c0-8.3,0-16.7,0-25L195.8,23z"/>
<path class="st3" d="M85.4,104.3h7.2c1,2.6,3.3,2.1,5.3,2.1c10.6,0,21.2,0.1,31.7-0.1c3.6-0.1,4.8,0.9,4.8,4.6
	c-0.2,15.4-0.2,30.9,0,46.3c0,3.5-1.1,4.4-4.5,4.4c-20.3-0.1-40.6-0.2-60.9,0c-3.8,0-4.6-1.4-4.6-4.9c0.1-15.3,0.1-30.5,0-45.8
	c0-3.6,1-5,4.7-4.7s7.6,0.1,11.4,0.1C82.5,106.4,84.5,106.5,85.4,104.3z"/>
<path class="st5" d="M66.3,72.9c0.1-8.3,6.8-15.1,15.1-15.2c8.5-0.1,15.5,6.7,15.6,15.2s-6.7,15.5-15.2,15.6c-0.2,0-0.5,0-0.7,0
	C72.7,88.1,66.1,81.2,66.3,72.9z"/>
<path class="st6" d="M92.8,73.1c0.1,6.2-4.8,11.3-11,11.4c0,0,0,0,0,0c-6.3,0.3-11.6-4.6-11.9-11c-0.3-6.3,4.6-11.6,11-11.9
	c0.2,0,0.4,0,0.5,0c6.2-0.1,11.3,4.8,11.4,11C92.8,72.8,92.8,72.9,92.8,73.1z"/>
<path class="st7" d="M90.8,79.7c-0.5-5.6-3.4-10.7-3.4-16.4C93.9,67.8,95,73.1,90.8,79.7z"/>
<path class="st2" d="M78.3,62c0.2,6.6,2.4,12.6,3.8,18.9c0.4,2.1,1.5,3,3.4,2.8c-3.3,1.9-6.4,1.3-9.4-0.9
	c-1.3-5.4-3.1-10.6-3.5-16.2C73.6,64.3,75.8,62.5,78.3,62z"/>
<rect x="158.2" y="110.3" class="st8" width="65.3" height="66.3"/>
<path class="st9" d="M158.4,146.6c0,8.6-0.1,17.2-0.3,25.9c-0.5,1.8,0.5,3.6,2.2,4.1c0.6,0.2,1.2,0.2,1.8,0h60.9
	c-0.3,0.8-1.4,1-2.2,1h-59.8c-1.1,0-2.3-0.1-3-0.9c-0.4-0.5-0.6-1.2-0.6-1.8c-0.3-3.5-0.3-7.1-0.1-10.6c0-3.7,0-7.5,0.1-11.2
	c0-7.5,0-15,0-22.5c0-6.5-0.1-13-0.1-19.5c0-1.4,0.1-3.2,1.3-4c0.8-0.4,1.6-0.6,2.5-0.5h57.7c1.4,0,3.1,0.1,4,1.2
	c1.1,1.3,0.7,3.2,0.3,4.9h-60.1c-1.8,0-4.3,0.2-4.8,2.3c-0.4,1.4,0,3.2,0,4.6c0,2,0.1,4,0.1,6c0,3.9,0.1,7.8,0.1,11.7
	C158.5,140.2,158.5,143.4,158.4,146.6z"/>
<path class="st1" d="M223.1,163.7h-55.9c-1.3,0-2.7,0-4-0.2c-0.9-0.1-1.6-0.7-1.7-1.6c-0.1-1,0.6-1.9,1.6-2c0,0,0.1,0,0.1,0
	c1.3-0.2,2.7-0.2,4-0.2h55.9V163.7z"/>
<path class="st1" d="M222.7,129c-11.8,0-23.6,0-35.4,0c-1.7,0-4.3,0.5-4.1-2.2c0.1-2.1,2.5-1.7,4.1-1.8c11.8,0,23.6,0,35.4,0V129z"
	/>
<path class="st10" d="M158.2,146.4c0-1.3,0-2.6,0-3.9c19.1,0,38.3-0.1,57.4,0c1.7,0,4.8-1.3,5,1.5c0.2,3.1-3,2.4-5,2.4
	C196.5,146.4,177.4,146.4,158.2,146.4z"/>
<path class="st1" d="M157.9,129.7c0-1.3,0-2.6,0-3.9c4.8,0,9.6,0,14.4,0c1.4,0,2.9,0.2,2.9,2c0,1.8-1.5,2-2.9,2
	C167.5,129.8,162.7,129.7,157.9,129.7z"/>
<path class="st0" d="M59.4,106.4c-3.9,0.5-5.5-0.8-5.4-5.1c0.3-13.7,0-27.4,0.2-41.1c0-3.8-0.9-4.3-4.4-3.3c-2.2,0.6-6.1,3.8-7.1,0
	c-0.9-3.5,3.8-3,6.2-3.7C88.8,42,128.7,30.8,168.6,19.6c1.8-0.5,3.7-0.8,5.6-0.9c15.6,0,31.2,0,46.8,0.1c1.6,0,4-0.8,4.1,1.8
	c0.1,2.4-2.3,2.4-3.9,2.1c-4.1-0.7-4.8,1.1-4.8,4.9c0.2,23.2,0.2,46.5-0.1,69.7c-0.1,4.3,1.4,5,5.2,4.9c11.6-0.2,23.2-0.1,34.9-0.1
	c5.4,0,5.4,0.1,2.9,4.7c-0.3,1-0.4,2-0.3,3.1c0,22,0.1,44.1-0.1,66.1c0,3.6,1.2,4.2,4.4,4.3c2.4,0,7-1.9,6.9,1.7
	c0,4-4.7,2.1-7.3,2.1c-67.6,0.2-135.3,0.3-202.9,0.2c-3.1,0-6.2-0.1-9.4-0.2c-1.3,0-2.5-0.6-2.6-2s1.2-2.1,2.5-1.9
	c3.4,0.5,3.6-1.4,3.5-4c-0.2-2.9,0.2-5.9-0.1-8.8c-0.5-4.2,1.3-5.7,5.3-5.2c2.2,0.6,1.9,2.3,1.6,3.9c-0.2,0.3-0.3,0.7-0.4,1
	c-2.1,10.2-1,11.6,9.2,11.6c24.8,0,49.6,0,74.3,0c7,0,7.3-0.3,7.3-7.3c0-18.7,0-37.4,0-56.1c0-3.4-0.2-6.3-3.6-8.5
	c-2.9-1.9-1.8-4.9,2-5.7c4.3-0.9,8.6-0.3,13-0.4c5.7-0.2,6-0.6,6.3-6.3c0.3-6-1.1-12.1,1.2-18c2-1.6,3.7-0.9,5.1,0.8
	c2,5.7,0.7,11.7,1,17.5c0.3,5.4,0.6,5.9,6,6c7.8,0.1,15.6,0,23.3,0c3.5,0,5-1.4,5-4.9c0-6.4-0.1-12.8,0.1-19.2c0-1.3,0-2.5,0-3.8
	c-0.2-13.8,0-27.6-0.1-41.3c0-6.3-0.5-6.6-6.8-6.7c-2.6,0-5.2,0.1-7.7-0.1c-1.6,0-3.1,0.1-4.7,0c-5.2,0.1-10.5,0.1-15.7,0
	c-2-0.2-3.9,0-5.9,0.5c-6.7,1.8-13.5,3.6-20.2,5.5c-1.5,0.4-3,0.9-4.5,1.2c-2,0.6-4,0.9-5.9,1.6c-4.9,1.8-10.1,2.9-15.1,4.3
	c-3.8,1-7.6,2.2-11.5,3.2c-2.2,0.1-4.1,1.2-6.2,2c-13.6,4.1-27.3,7.7-41,11.6c-3.9,1.1-5.8,2.9-5.8,7.2c0.2,11.4,0,22.9,0,34.3
	c0,2.1,0.5,4.2,1.3,6.1C61.3,103.8,62.1,105.8,59.4,106.4z"/>
<g class="st11">
	<path class="st12" d="M141.1,108.8c-0.3-6-2-7.9-7.8-8c-11.6-0.2-23.2-0.2-34.8,0c-2.6,0-5.3,0.2-6.2,3.5c0,0,0,0.1,0,0.1h0.4
		c1,2.6,3.3,2.1,5.3,2.1c10.6,0,21.2,0.1,31.7-0.1c3.6-0.1,4.8,0.9,4.8,4.6c-0.2,15.4-0.2,30.9,0,46.3c0,3.5-1.1,4.4-4.5,4.4
		c-20.3-0.1-40.6-0.2-60.9,0c-3.8,0-4.6-1.4-4.6-4.9c0.1-15.3,0.1-30.5,0-45.8c0-3.6,1-5,4.7-4.7c3.7,0.3,7.6,0.1,11.4,0.1
		c1.9,0,3.9,0.1,4.8-2.1h0.4c0,0,0-0.1,0-0.1c-0.7-3.1-3.2-3.4-5.7-3.5c-5.1-0.2-10.1-0.2-15.1,0c-1.7,0.1-3.5,0.2-4.6,1.8
		c-0.4,1.3,0,2.8-1.1,3.9c0.4,18.6,0.6,37.2-0.1,55.8c0.4,1.2,0.8,2.4,1.3,3.5c1.3,2.8,3.9,2.6,6.3,2.6c21.4,0.1,43,0.2,64.4,0
		c7.2-0.1,9.6-2.6,9.8-9.8c0.2-9.2,0.1-18.3,0.1-27.5C141.1,123.7,141.4,116.2,141.1,108.8z"/>
	<path class="st12" d="M212.4,38.7c0-5.1,2.3-12.1-1-14.9c-3.5-2.9-10.3-0.8-15.6-0.7c-1.9,2.2-1.5,4.8-1.6,7.3
		c-0.1,5.7,0.1,11.3-0.5,17c-0.8-5.8-0.5-11.7-0.6-17.5c0-2.4,0.3-4.9-1.5-6.9h-16.6c0,0,0,0,0,0c0,0,0,0,0,0
		c0,14.9,0.1,29.8-0.2,44.6c-0.1,4.5,1.5,5.9,5.7,5.3c0.7-0.1,1.4-0.1,2.1,0c8.4,0,8.4,0,9.1-8.5c0.1-1.5,0-3.5,2.1-3.5
		c2.1,0.1,1.9,2.1,2,3.6c0.6,8.4,0.6,8.4,9.3,8.3l7.2-0.1C212.3,61.6,212.5,50.1,212.4,38.7z"/>
	<path class="st12" d="M195.7,64.7c-0.1-1.5,0.1-3.5-2-3.6c-2.1-0.1-2,1.9-2.1,3.5c-0.7,8.5-0.7,8.5-9.1,8.5c-0.7-0.1-1.4-0.1-2.1,0
		c-4.2,0.6-5.8-0.8-5.7-5.3c0.3-14.9,0.2-29.8,0.2-44.6c0,0,0,0,0,0c-1.9-0.1-3.8-0.4-5.4,0.9c0,0,0,0,0,0l0,0
		c1.4,0.9,1.2,2.3,1.2,3.7c0,14.8-0.1,29.6-0.1,44.4c-0.6,0.2-1.2,0.3-1.9,0.4c-7.4,1.5-14.8,0.2-22.2,0.3c-2.2,0-1.8-2.2-1.8-3.7
		c0-12.8,0-25.6,0.1-38.4c-1.8,0.7-3.9,0.4-5.5,1.7c1.2,0.8,1.2,2,1.2,3.2c0,12.1-0.1,24.3-0.1,36.4c-5.5,2.2-11.2,0.8-16.8,0.9
		c-12.1,0.3-12.3,0.1-12.1-11.9c0.1-7-1.1-14.1,1-21.1c0,0,0,0,0-0.1c-1.8-0.2-3.3,0.7-4.9,1.3c1.1,9.6,0.5,19.3,0.3,29
		c-0.1,5,1.3,6.4,6.3,6.4c18.8-0.2,37.7,0.1,56.5,0.2c1.3-0.6,2.6-0.1,3.9,0.3c12.5-1.4,25.1-0.3,37.7-0.6l-0.1-3.5l0,0l-7.2,0.1
		C196.3,73.1,196.3,73.1,195.7,64.7z"/>
	<path class="st12" d="M164.3,72.1c2.1-0.2,4.2-0.2,6.2-0.1c-0.6,0.2-1.2,0.3-1.8,0.4c0.6-0.1,1.2-0.2,1.9-0.4
		c0.1-14.8,0.1-29.6,0.1-44.4c0-1.3,0.2-2.8-1.2-3.7l0,0l-20.5,5.7c2.8,12.4,5.8,24.8,8.4,37.2C158.2,71.1,160.1,72.8,164.3,72.1z"
		/>
	<path class="st12" d="M111.5,61c-0.2,12-0.1,12.2,12.1,11.9c5.6-0.1,11.3,1.3,16.8-0.9c-7.8,0-7.9,0-9.8-7.4
		c-2.3-9.3-4.5-18.6-6.7-27.9l-11.4,3c0,0,0,0.1,0,0.1C110.4,46.9,111.6,54,111.5,61z"/>
	<path class="st12" d="M140.4,72.1c0-12.1,0.1-24.3,0.1-36.4c0-1.2,0.1-2.4-1.2-3.2c0,0,0,0,0,0l-15.5,4.4c0,0,0,0,0,0
		c2.2,9.3,4.4,18.6,6.7,27.9C132.5,72.1,132.6,72.1,140.4,72.1z"/>
	<path class="st12" d="M146.5,72.8c7.5-0.2,14.8,1.2,22.2-0.3c0.6-0.1,1.2-0.3,1.8-0.4c-2.1-0.1-4.2-0.1-6.2,0.1
		c-4.2,0.6-6.1-1-7-5.2c-2.6-12.4-5.6-24.8-8.4-37.2c0,0,0,0,0,0l-4.1,1c0,0,0,0,0,0c-0.1,12.8-0.1,25.6-0.1,38.4
		C144.7,70.6,144.3,72.8,146.5,72.8z"/>
	<path class="st12" d="M80.6,106.5c-3.8,0-7.7,0.2-11.4-0.1c-3.7-0.3-4.7,1-4.7,4.7c0.1,15.3,0.1,30.5,0,45.8c0,3.5,0.8,4.9,4.6,4.9
		c20.3-0.2,40.6-0.1,60.9,0c3.4,0,4.5-0.9,4.5-4.4c-0.2-15.4-0.2-30.9,0-46.3c0-3.7-1.2-4.7-4.8-4.6c-10.6,0.2-21.2,0.1-31.7,0.1
		c-2.1,0-4.3,0.4-5.3-2.1h-0.4h-6.3h-0.4C84.5,106.6,82.5,106.5,80.6,106.5z"/>
</g>
</svg>
