<?xml version="1.0" encoding="utf-8"?>
<!-- Generator: Adobe Illustrator 23.0.1, SVG Export Plug-In . SVG Version: 6.00 Build 0)  -->
<svg version="1.1" id="Layer_1" xmlns="http://www.w3.org/2000/svg" xmlns:xlink="http://www.w3.org/1999/xlink" x="0px" y="0px"
	 viewBox="0 0 233.8 188.1" style="enable-background:new 0 0 233.8 188.1;" xml:space="preserve">
<style type="text/css">
	.st0{fill:#070707;}
	.st1{fill:#FFFDFE;}
	.st2{fill:#E4E4E4;}
	.st3{opacity:0.5;fill:#B30060;}
	.st4{fill:#FDFAFC;}
</style>
<title>home_security_camera</title>
<path class="st0" d="M118.3,20.9c18.1,0.4,39.4,2.9,59.3,11.9c3.7,1.8,7.4,3.8,10.9,6c11.8,6.9,15.9,17.4,14.1,30.5
	c-0.9,6.3-1.8,12.5-3.1,18.7c-1.5,7-6.9,10.8-12.8,13.8c-3.1,1.5-4.2,3.5-4.7,6.8c-2.6,20-12.7,35.2-29.3,46.6
	c-11.2,7.7-22.9,13.5-36.8,13.7c-10.6,0.3-21-2.5-30-8c-14.5-8.9-27.9-18.8-33.5-36c-1.9-5.3-3.1-10.9-3.7-16.5
	c-0.2-2-0.1-3.9-2.6-4.8c-13-4.6-17.3-15.1-18.2-27.7c0-0.5-0.1-1-0.1-1.5C25,51.6,29.2,44,49.8,33.8C66,25.7,90.3,20.9,118.3,20.9z
	"/>
<path class="st1" d="M169.2,85.6c-4.1,0.1-7.7-1.9-11.5-2.7c-2.9-0.6-5.6-0.3-6.3,3c-0.6,3.1,1.6,4.2,4.3,4.8
	c3.2,0.7,6.3,1.9,9.5,2.9c0.7,0.7,1.1,1.7,1,2.7c-1.3,12.8-4.2,25.1-10.9,36.2c-1.8,2.9-1.9,2.9-4.1,2.1c-0.1-4.3,0.7-8.7-0.5-12.9
	c-2.7-10.1-10.8-16.1-23.2-17s-24.5-1.6-36.8-0.2c-17,1.9-25.9,13.1-22.7,29.9c0.4,1.5,0.4,3.2-0.2,4.6
	c-7.3-8.2-10.9-17.8-12.6-28.3c-0.4-2.6-0.5-5.3-1-7.9c-1.1-5.7,1.7-8.7,6.9-10c4.5-1.2,9-2.1,13.5-3.3c2.3-0.6,4.8-1.3,4.4-4.4
	s-2.9-3.9-5.6-3.4c-7.5,1.4-15,2.9-21.8,6.7c-1.8,1-3.7,2.1-4.2,4c-1,4.2-3.1,3-5.4,1.4c-7.3-5.2-6.9-10.1,1-14.6
	c10.1-5.8,21.3-8.4,32.6-10.4c12.6-2.2,25.4-3.2,38.1-3c19.4,0.3,38.8,1.9,57.5,7.8C174.2,77.2,173.6,80.6,169.2,85.6z"/>
<path class="st1" d="M173.2,65.7c-20.7-5.7-42-8.4-63.5-7.9c-19.7,0.4-39.4,2.3-58.3,8.8c-5.8,2-11.3,4.8-16.4,8.3
	c-4.6-12.5-1.8-21.5,9-28.8c12.5-8.5,26.8-12.2,41.5-14.5c24.5-3.9,49.6-2.6,73.5,3.9c5.3,1.4,10.4,3.4,15.2,6.1
	c6.1,6.6,4.5,16.9,2.4,22.3C176,65.3,175.1,66.6,173.2,65.7z"/>
<path class="st1" d="M130.2,158.5c-15.4,5.3-30,3.6-43.8-5.1c-3-1.8-5.4-4.5-6.7-7.8c-2.9-7.4-6-14.8-3.6-23.1
	c0.7-2.5,1.8-4.7,4.2-5.9c9.8-4.4,20.3-4.4,30.7-3.8c4.3,0.1,8.6,0.5,12.8,1.4c9.7,2.4,14.7,8.3,13.7,18.3
	C136.6,141.5,135.6,150.7,130.2,158.5z"/>
<path class="st2" d="M151.2,134.5c2-1,3.7-3.1,5.3-6.6c4.9-10.9,7.8-22.5,8.7-34.3c7.4,2,8.4,3,7.9,10.1
	c-1.2,17.5-8.9,31.6-22.4,42.6c-0.7,0.4-1.5,0.7-2.2,0.9C149.4,142.7,150.3,138.6,151.2,134.5z"/>
<path class="st2" d="M130.2,158.5c2.3-7.3,4-14.7,5.6-22.2c2.7-12.7-4-20.5-17.6-21.9c-12.8-1.3-25.4-1-38,2.2
	c4-3.9,9.4-4.4,14.3-4.7c11.4-1,22.9-0.6,34.2,1.1c14.8,2.5,15.4,9.7,14.1,21.9c-0.4,3.8-2,7.4-2.5,11.1
	C139.5,152.3,136.6,156.8,130.2,158.5z"/>
<path class="st2" d="M173.2,65.7c4.6-4,4.1-9.4,3.6-14.5c-0.3-3.2-1.7-6.4-2.6-9.6c6.7,2.4,12.6,6.8,16.8,12.6
	c3.5,4.9,2.4,11.1,1.9,16.9c-0.3,1.4-0.6,2.8-1.1,4.2C186,70.9,179.6,68.3,173.2,65.7z"/>
<path class="st2" d="M169.4,85.5c-0.1-0.2-0.1-0.4,0-0.6c0.3-1.1,0.7-2.2,1.2-3.2l0.1-0.3c0.6-1.2,1.1-2.5,1.4-3.9
	c0.2-1.3-0.1-2.6-0.8-3.8c0.4-0.2,1.6,0.4,2.1,0.6l2.2,0.9c1.5,0.6,3,1.3,4.4,2c3,1.4,5.7,3.3,8,5.6c1.5,1.6,2.9,3.4,1.3,5.7
	c-2,2.8-4.2,5.6-7.8,6.6c-0.5,0-0.9-0.3-1.1-0.7c-0.7-3.1-3.1-4.8-5.9-6.1c-1.3-0.6-2.6-1.1-3.9-1.9C170,86.2,169.5,86,169.4,85.5z"
	/>
<path class="st0" d="M137.9,87.6c-3.2,0.3-5.3-1.2-5.2-4c0.2-2.3,2.2-4.1,4.6-3.9c0.1,0,0.2,0,0.3,0c2.6,0.3,5.1,1.5,5,4.5
	C142.5,87,140.4,88,137.9,87.6z"/>
<path class="st0" d="M91.2,131.4c0.2-7.4,5.2-12,13-11.9c6.5-0.1,11.9,5,12.1,11.5c0,0.3,0,0.6,0,0.8c0,7-5.8,12.7-12.8,12.7
	c-0.1,0-0.2,0-0.3,0C96.1,144.3,91,138.6,91.2,131.4z"/>
<path class="st3" d="M118.1,20.8c18.1,0.4,39.4,2.9,59.3,11.9c3.7,1.8,7.4,3.8,10.9,6c11.8,6.9,15.9,17.4,14.1,30.5
	c-0.9,6.3-1.8,12.5-3.1,18.7c-1.5,7-6.9,10.8-12.8,13.8c-3.1,1.5-4.2,3.5-4.7,6.8c-2.6,20-12.7,35.2-29.3,46.6
	c-11.2,7.7-22.9,13.5-36.8,13.7c-10.6,0.3-21-2.5-30-8c-14.5-8.9-27.9-18.8-33.5-36c-1.9-5.3-3.1-10.9-3.7-16.5
	c-0.2-2-0.1-3.9-2.6-4.8c-13-4.6-17.3-15.1-18.2-27.7c0-0.5-0.1-1-0.1-1.5c-2.8-22.6,1.4-30.3,22-40.5
	C65.8,25.6,90.1,20.8,118.1,20.8z"/>
<path class="st4" d="M103.5,137.4c-3.2-0.5-4.9-2-4.8-5c-0.1-2.3,1.7-4.2,3.9-4.3c0.2,0,0.4,0,0.5,0c2.9,0,4.7,1.6,4.7,4.6
	S105.9,137,103.5,137.4z"/>
</svg>
