<svg id="Layer_1" data-name="Layer 1" xmlns="http://www.w3.org/2000/svg" viewBox="0 0 292.4 194.1"><defs><style>.cls-1{fill:#070707;}.cls-2{fill:#fffdfe;}.cls-3{fill:#e4e4e4;}.cls-4{fill:#b30060;opacity:0.5;isolation:isolate;}.cls-5{fill:#fdfafc;}</style></defs><title>7 windows-04-04</title><path class="cls-1" d="M140.94,28.34c18.1.4,39.4,2.9,59.3,11.9a115.56,115.56,0,0,1,10.9,6c11.8,6.9,15.9,17.4,14.1,30.5-.9,6.3-1.8,12.5-3.1,18.7-1.5,7-6.9,10.8-12.8,13.8-3.1,1.5-4.2,3.5-4.7,6.8-2.6,20-12.7,35.2-29.3,46.6-11.2,7.7-22.9,13.5-36.8,13.7a54.54,54.54,0,0,1-30-8c-14.5-8.9-27.9-18.8-33.5-36a71.69,71.69,0,0,1-3.7-16.5c-.2-2-.1-3.9-2.6-4.8-13-4.6-17.3-15.1-18.2-27.7,0-.5-.1-1-.1-1.5-2.8-22.8,1.4-30.4,22-40.6C88.64,33.14,112.94,28.34,140.94,28.34Z"/><path class="cls-2" d="M191.84,93c-4.1.1-7.7-1.9-11.5-2.7-2.9-.6-5.6-.3-6.3,3-.6,3.1,1.6,4.2,4.3,4.8,3.2.7,6.3,1.9,9.5,2.9a3.39,3.39,0,0,1,1,2.7c-1.3,12.8-4.2,25.1-10.9,36.2-1.8,2.9-1.9,2.9-4.1,2.1-.1-4.3.7-8.7-.5-12.9-2.7-10.1-10.8-16.1-23.2-17s-24.5-1.6-36.8-.2c-17,1.9-25.9,13.1-22.7,29.9a7.23,7.23,0,0,1-.2,4.6c-7.3-8.2-10.9-17.8-12.6-28.3-.4-2.6-.5-5.3-1-7.9-1.1-5.7,1.7-8.7,6.9-10,4.5-1.2,9-2.1,13.5-3.3,2.3-.6,4.8-1.3,4.4-4.4s-2.9-3.9-5.6-3.4c-7.5,1.4-15,2.9-21.8,6.7-1.8,1-3.7,2.1-4.2,4-1,4.2-3.1,3-5.4,1.4-7.3-5.2-6.9-10.1,1-14.6,10.1-5.8,21.3-8.4,32.6-10.4a203.27,203.27,0,0,1,38.1-3c19.4.3,38.8,1.9,57.5,7.8C196.84,84.64,196.24,88,191.84,93Z"/><path class="cls-2" d="M195.84,73.14a219.51,219.51,0,0,0-63.5-7.9c-19.7.4-39.4,2.3-58.3,8.8a68.38,68.38,0,0,0-16.4,8.3c-4.6-12.5-1.8-21.5,9-28.8,12.5-8.5,26.8-12.2,41.5-14.5a175.3,175.3,0,0,1,73.5,3.9,64.47,64.47,0,0,1,15.2,6.1c6.1,6.6,4.5,16.9,2.4,22.3C198.64,72.74,197.74,74,195.84,73.14Z"/><path class="cls-2" d="M152.84,165.94q-23.1,8-43.8-5.1a16,16,0,0,1-6.7-7.8c-2.9-7.4-6-14.8-3.6-23.1.7-2.5,1.8-4.7,4.2-5.9,9.8-4.4,20.3-4.4,30.7-3.8a68.71,68.71,0,0,1,12.8,1.4c9.7,2.4,14.7,8.3,13.7,18.3C159.24,148.94,158.24,158.14,152.84,165.94Z"/><path class="cls-3" d="M173.84,141.94c2-1,3.7-3.1,5.3-6.6a102.61,102.61,0,0,0,8.7-34.3c7.4,2,8.4,3,7.9,10.1-1.2,17.5-8.9,31.6-22.4,42.6a10.2,10.2,0,0,1-2.2.9C172,150.14,172.94,146,173.84,141.94Z"/><path class="cls-3" d="M152.84,165.94c2.3-7.3,4-14.7,5.6-22.2,2.7-12.7-4-20.5-17.6-21.9-12.8-1.3-25.4-1-38,2.2,4-3.9,9.4-4.4,14.3-4.7a145,145,0,0,1,34.2,1.1c14.8,2.5,15.4,9.7,14.1,21.9-.4,3.8-2,7.4-2.5,11.1C162.14,159.74,159.24,164.24,152.84,165.94Z"/><path class="cls-3" d="M195.84,73.14c4.6-4,4.1-9.4,3.6-14.5-.3-3.2-1.7-6.4-2.6-9.6a35.63,35.63,0,0,1,16.8,12.6c3.5,4.9,2.4,11.1,1.9,16.9a32.51,32.51,0,0,1-1.1,4.2C208.64,78.34,202.24,75.74,195.84,73.14Z"/><path class="cls-3" d="M192,92.94a.64.64,0,0,1,0-.6,17.55,17.55,0,0,1,1.2-3.2l.1-.3a16.42,16.42,0,0,0,1.4-3.9,5.74,5.74,0,0,0-.8-3.8c.4-.2,1.6.4,2.1.6l2.2.9c1.5.6,3,1.3,4.4,2a28.13,28.13,0,0,1,8,5.6c1.5,1.6,2.9,3.4,1.3,5.7-2,2.8-4.2,5.6-7.8,6.6a1.23,1.23,0,0,1-1.1-.7c-.7-3.1-3.1-4.8-5.9-6.1a34.92,34.92,0,0,1-3.9-1.9C192.64,93.64,192.14,93.44,192,92.94Z"/><path class="cls-1" d="M160.54,95c-3.2.3-5.3-1.2-5.2-4a4.27,4.27,0,0,1,4.6-3.9h.3c2.6.3,5.1,1.5,5,4.5C165.14,94.44,163,95.44,160.54,95Z"/><path class="cls-1" d="M113.84,138.84c.2-7.4,5.2-12,13-11.9a11.89,11.89,0,0,1,12.1,11.5v.8a12.8,12.8,0,0,1-12.8,12.7h-.3C118.74,151.74,113.64,146,113.84,138.84Z"/><path class="cls-4" d="M140.74,28.24c18.1.4,39.4,2.9,59.3,11.9a115.56,115.56,0,0,1,10.9,6c11.8,6.9,15.9,17.4,14.1,30.5-.9,6.3-1.8,12.5-3.1,18.7-1.5,7-6.9,10.8-12.8,13.8-3.1,1.5-4.2,3.5-4.7,6.8-2.6,20-12.7,35.2-29.3,46.6-11.2,7.7-22.9,13.5-36.8,13.7a54.54,54.54,0,0,1-30-8c-14.5-8.9-27.9-18.8-33.5-36a71.69,71.69,0,0,1-3.7-16.5c-.2-2-.1-3.9-2.6-4.8-13-4.6-17.3-15.1-18.2-27.7,0-.5-.1-1-.1-1.5-2.8-22.6,1.4-30.3,22-40.5C88.44,33,112.74,28.24,140.74,28.24Z"/><path class="cls-5" d="M126.14,144.84c-3.2-.5-4.9-2-4.8-5a4.13,4.13,0,0,1,3.9-4.3h.5c2.9,0,4.7,1.6,4.7,4.6S128.54,144.44,126.14,144.84Z"/></svg>