<?xml version="1.0" encoding="utf-8"?>
<!-- Generator: Adobe Illustrator 23.0.1, SVG Export Plug-In . SVG Version: 6.00 Build 0)  -->
<svg version="1.1" id="Layer_1" xmlns="http://www.w3.org/2000/svg" xmlns:xlink="http://www.w3.org/1999/xlink" x="0px" y="0px"
	 viewBox="0 0 292.4 194.1" style="enable-background:new 0 0 292.4 194.1;" xml:space="preserve">
<style type="text/css">
	.st0{fill:#4B4B4B;}
	.st1{fill:#4C4B4C;}
	.st2{fill:#4C4C4C;}
	.st3{opacity:0.5;fill:#B52164;}
	.st4{opacity:0.5;fill:#BA1F67;}
	.st5{fill:#F6F5F6;}
	.st6{fill:#605E5E;}
	.st7{fill:#F7F8F8;}
	.st8{fill:#FFFFFF;}
	.st9{fill:#F7F7F7;}
	.st10{fill:#FDFDFD;}
	.st11{fill:#F5F5F5;}
	.st12{fill:#EFEFEF;}
	.st13{fill:#EFEEEE;}
	.st14{fill:#F4F4F4;}
	.st15{fill:#F6F6F6;}
	.st16{fill:#E8E8E8;}
	.st17{fill:#F7F7F8;}
	.st18{fill:#FCFCFB;}
	.st19{fill:#FBFBFB;}
	.st20{fill:#545454;}
	.st21{fill:#F6F5F5;}
	.st22{fill:#F3F2F2;}
	.st23{fill:#FFFEFE;}
	.st24{fill:#FEFEFE;}
	.st25{fill:#6F6E6E;}
	.st26{fill:#696868;}
	.st27{fill:#535353;}
	.st28{fill:#777676;}
	.st29{fill:#5E5E5E;}
	.st30{fill:#DDDDDD;}
</style>
<title>Pet</title>
<path class="st0" d="M130.3,123c0-5.3-0.1-10.7-0.1-16c2.5-0.6,4,0.8,4.9,2.9c0.7,2.6,0.5,5.3,0.5,7.9c0,11.3-0.1,22.6,0.1,33.9
	c0.1,5.8,0,11.3-5.1,15.4c-1,0.9-1.6,2.1-1.9,3.4c-1.1,3.1-0.2,4.9,3.3,4.9c4.7,0.1,9.3,0.1,14,0c2.4-0.1,3.7-1.3,3.7-3.7
	c0.1-13,0.2-26-0.1-38.9c-0.1-1.9-1.4-3.3-2.3-4.9c-1.6-2.7-0.6-4.4,2.4-5.1c1.6-0.3,3.3-0.4,5-0.2c4.7,0.5,5.6,2.2,2.9,5.9
	c-1.2,1.6-1.8,3.6-1.7,5.6c0,12,0.1,24-0.1,35.9c0,4.1,1.6,5.7,5.6,5.5c3.5-0.2,7-0.1,10.5,0c2.8,0.3,4.8-0.7,4.7-3.7
	s-1-5.9-4.8-6.6c-3-0.5-6.6-0.8-4-5.5c0.4-0.3,0.8-0.6,1.3-0.8c2.6-0.5,2.6-2.6,2.8-4.6c1.1-8.3,1.4-16.7,2.3-25
	c1-2.2,0.1-6.3,3.9-5.7c3.3,0.6,2.2,4.2,2.4,6.7c0.1,1.1-0.1,2.3,0.1,3.8c3.9-0.5,7.6-2.1,11.4-1.9c4.2,0.2,5.3,1.6,4.4,5.1
	c-2.3,1.5-5.1,0.5-7.6,1.4c-4.2,1.4-8.9,2.2-9.9,7.7c-0.7,2.5-0.4,5-0.4,7.6c-0.4,3.7,0.4,7.4,2.3,10.5c1.4,2.3,1.9,5,1.6,7.7
	c-0.2,2.3,0.5,3.3,3,3.3c21.4,0,42.9,0,64.4-0.4c-8.1-4.7-16.9-6.4-26-7.2c-2-0.2-2.9,1.3-3.6,2.9c-0.4,1.4-1.2,2.8-2.2,3.8
	c-0.8,0.9-2.1,1.1-3.2,0.6c-0.9-0.5-1.4-1.4-1.4-2.5c0-1,0.1-2,0.5-2.9c4.9-14.7,2.1-28.6-4.2-42.1c-7.5-16.2-17.5-30.6-31-42.4
	c-0.4-0.4-0.7-0.8-0.9-1.2c-0.6-1.7-0.8-3.3,0.8-4.7c14,9.5,23.4,23,31.5,37.5c7.4,13.2,12.6,27.2,11.3,42.7
	c-0.3,3.3,2.1,2.9,3.9,3.1c7.6,0.8,15.1,2.5,22.3,5.1c4.1,1.6,8,3.5,10.3,7.5c1.6,2.9,4.1,1.3,6.2,1.6c1.6,0.3,3.8-0.3,3.9,2
	s-2.2,1.9-3.8,2c-8.8,0-17.7,0-26.5,0L55,181h-3.5c-1.2,0-2.4-0.2-2.5-1.8c-0.2-1,0.5-1.9,1.5-2.1c0.2,0,0.5,0,0.7,0
	c6.9,1.5,9.2-3,13.2-7.6c4.4-4.9,4-9.1,3.8-14.2c-0.3-7.8-0.7-15.6-1-23.5c-0.1-2.2-0.3-4.7,3.3-3.9c0.5,0.1,1,0.4,1.3,0.9
	c0.8,8.4,1.8,16.8,1.6,25.2c-0.2,3.1-0.1,6.3,0.2,9.4c0.7,4.1,0.8,7.7-4.3,8.9c-0.9,0.1-1.5,0.9-1.5,1.8c0.1,1.1,1.1,1.1,1.9,1.2
	c1.3,0.1,2.7,0.1,4,0c3.8-2.8,6.4-6.7,6.8-11.3c0.6-7.3,0.2-14.6,0.2-21.9c0-1.9-0.3-3.6-2.3-4.5c-1.2-1-2.3-2.1-1.6-3.8
	s2.2-1.9,3.8-1.8c3,0.3,6,0.3,9,0c1.6-0.1,3.1,0.2,3.7,1.9s-0.5,2.8-1.8,3.6c-3.1,0.6-4.3,2.5-4.1,5.7c0.2,5.2,0,10.3,0.1,15.5
	c0,1.5-0.5,3.9,2.1,3.6c2.5-0.3,6,1.6,7.1-2.5c0.5-2.1,0.9-4.2,1-6.4c0.5-6.5,1.6-12.9,4.6-18.8c3.9-3.4,4.5-3.4,6.4,0.7
	c-2.9,6.6-4.6,13.6-5.1,20.7c-0.2,2.1-1.4,5,2.4,5.4c3.9-0.1,7.3-1.3,9.9-4.4c1.4-1.6,3.1-2.5,4.8-0.2c1.2,3.6-1.1,5.7-3.5,7.8
	c-6.9,4-14.7,3.4-22.2,4.4c-2.1,0.3-4.3,0-6.4,0.6c-0.9,0.3-2,0.3-2.8,1c-1.1,1-2.8,2-2.4,3.5c0.5,1.8,2.6,1.1,3.9,1.1
	c9.8,0.1,19.7-0.1,29.5,0.1c2.8,0,4.3-0.7,4.7-3.7c0.6-4.5,2.7-8.7,6.1-11.7c1.4-1.3,2.1-3.1,2-4.9c0.1-16-3.6-30.4-17.5-40.4
	c-1.1-0.7-2.1-1.7-2.7-2.9c-0.4-1.4-0.4-2.8,1.2-3.6c8.8,3.9,14.7,10.5,18.5,19.1C130.9,127.1,130.9,127,130.3,123z"/>
<path class="st1" d="M127.1,95.2c-9.7-4.1-15.5-11.7-18.8-21.3c-0.8-2.4-2.2-4.4-4.1-6c-5.4-4.5-10.5-9.3-13.6-15.7
	c-4.3-8.8,0.3-16.3,10-16.3c5.1,0,9.8,1.7,14.3,3.9c2.3,1.1,3.6,0.4,5.8-0.5c8.3-3.7,13.7-8.9,13.2-18.7c-0.1-1.4,0.8-2.9,1.3-4.3
	c1.7-4.3,4.5-7.5,9.4-7.8c4.8-0.3,7.6,2.7,9.8,6.5c3.2,5.6,4.6,11.7,5.6,18c0.4,2.8,1.6,5.3,3.5,7.3c8.1,9,12.8,19.3,9.6,31.9
	c-1.1,0.9-2.6,0.9-3.7,0.2c-1.4-2.9-0.3-5.9-0.4-8.8c-0.6-14.5-13.6-27.8-27.2-27.3c-11.5,0.4-28.4,11.3-29.7,24.7
	c-1,10.9,3.4,19.3,11.4,26.3c1.9,1.6,4.3,2.5,5.9,4.5C129.6,93.6,129.2,94.9,127.1,95.2z"/>
<path class="st2" d="M63.1,115.9c-3.1-3.3-5.4-7.2-6.8-11.4c-0.9-3.1-3.9-4.4-5.7-6.8c-2.7-3.7-7-7.1-5-12.2
	c1.8-4.8,6.9-5.5,11.3-5.8c3.6-0.1,7.1-1.5,9.8-3.9c0.9-1,2.1-1.7,3.4-2.1c6.2-1.5,10.6-5.1,15-9.7s9.5-3.6,11.8,2.3
	c3,7.9,6.1,15.8,9.9,23.5c1.9,3.8,1.9,8.3,0.1,12.1c-1.3,0.5-2.7,0.1-3.5-1.1c-1.5-3.9-0.5-8.2-2.4-12.1c-6.5-13.3-22.3-16.7-33.4-7
	c-8.4,8.1-9.6,18-3.3,27.9c0.7,0.9,1.4,1.9,1.8,2.9C67.2,115.4,66.8,117.2,63.1,115.9z"/>
<path class="st0" d="M127.1,95.2l2.3-3c3.9-2,7.7,1.3,11.6,0.4c2.8,0.4,5.7-1.3,8.4,0.5c1.8,2.5,0.6,4-1.8,4.9
	c-3.3,1.2-6.9,1.5-10.3,0.8c-1.3-0.2-3.3-1.2-3.7,1s1.3,3.4,3.3,3.6c3.5,0.5,7,0.5,10.4,0c9.3-1.7,17.5-7,22.9-14.7
	c2-2.5,2.7-5.8,1.9-8.9c-2.9,1.8-3.6,4.7-5.4,6.7c-2,2.2-3.8,4.7-6.4,6.2c-2,1.2-4.1,2-5-1.3c0.2-2.6,2.2-4,3.8-5.6
	c3-2.9,5.4-6.3,7.2-10.1c0.9-1.4,1.2-3.3,3.1-3.8l3.5,0.3c1.1,2.9,3.7,4.8,5.3,7.3c-0.1,1.4-0.1,2.9-0.2,4.4
	c0.8,5.9-3.1,9.7-6.6,13.3c-8.9,9.1-19.7,13.9-32.7,13.1c-1.8-0.3-3.5-0.7-5.2-1.4l-3.5-1.9C129.1,103.1,128.1,99.1,127.1,95.2z"/>
<path class="st3" d="M127.2,95.8l2.3-3c3.9-2,7.7,1.3,11.6,0.4c2.8,0.4,5.7-1.3,8.4,0.5c1.8,2.5,0.6,4-1.8,4.9
	c-3.3,1.2-6.9,1.5-10.3,0.8c-1.3-0.2-3.3-1.2-3.7,1s1.3,3.4,3.3,3.6c3.5,0.5,7,0.5,10.4,0c9.3-1.7,17.5-7,22.9-14.7
	c2-2.5,2.7-5.8,1.9-8.9c-2.9,1.8-3.6,4.7-5.4,6.7c-2,2.2-3.8,4.7-6.4,6.2c-2,1.2-4.1,2-5-1.3c0.2-2.6,2.2-4,3.8-5.6
	c3-2.9,5.4-6.3,7.2-10.1c0.9-1.4,1.2-3.3,3.1-3.8l3.5,0.3c1.1,2.9,3.7,4.8,5.3,7.3c-0.1,1.4-0.1,2.9-0.2,4.4
	c0.8,5.9-3.1,9.7-6.6,13.3c-8.9,9.1-19.7,13.9-32.7,13.1c-1.8-0.3-3.5-0.7-5.2-1.4l-3.5-1.9C129.2,103.6,128.2,99.7,127.2,95.8z"/>
<path class="st2" d="M103.7,100.9l3.3,1.1l3.7,6.6l-0.9,3.4c0.2,1,0,2.1-0.5,3c-6.1,11.1-16.3,15.2-28.1,16.2
	c-3.9,0.4-7.7-0.7-10.8-3.1l0.1,0.1c-1.6-1.4-3.2-2.9-3.7-5.1c-0.8-8.7-0.5-9,8-6.8c2.5,0.6,5.3,0.7,7.3,2.7c1.3,2.6,0,3.7-2.4,4.2
	c-2.1,0.3-4.3,0.2-6.4-0.3c10.7,5.2,24.9-0.3,30.7-11.8c-2.6,3-5.2,6.1-8.8,8c-2.6,1.3-5,1.7-4.9-2.5
	C94.7,111,99.4,106.1,103.7,100.9z"/>
<path class="st4" d="M104,101.1l3.3,1.1l3.7,6.6l-0.9,3.4c0.2,1,0,2.1-0.5,3c-6.1,11.1-16.3,15.2-28.1,16.2
	c-3.9,0.4-7.7-0.7-10.8-3.1l0.1,0.1c-1.6-1.4-3.2-2.9-3.7-5.1c-0.8-8.7-0.5-9,8-6.8c2.5,0.6,5.3,0.7,7.3,2.7c1.3,2.6,0,3.7-2.4,4.2
	c-2.1,0.3-4.3,0.2-6.4-0.3c10.7,5.2,24.9-0.3,30.7-11.8c-2.6,3-5.2,6.1-8.8,8c-2.6,1.3-5,1.7-4.9-2.5C95,111.2,99.7,106.3,104,101.1
	z"/>
<path class="st5" d="M82.1,119.8c-3.9-2.3-8.6-1.8-12.6-3.8c-1.4-0.7-2.5,0.3-2.6,2s0,3.3-0.1,5c-1.4-2.3-0.2-6-3.8-7
	c5,0,3.2-2,1.4-4.3c-8-10.1-6.9-22.9,2.5-31c1.7,1.6,0.8,3.4,0.4,5.1c-4.2,16.7,2.8,27.3,19.8,30c1,0.1,2,0.4,2.8,0.9
	c0.8,1.4-0.2,1.8-1.1,2.2c-1.6,0.4-3.3,1-4.8,1.7C83.3,120.8,82.5,120.5,82.1,119.8z"/>
<path class="st6" d="M130.3,123c1.2,1.5,1.4,3.5,0.7,5.2c-0.9,2.4-1.3,0.3-1.7-0.5C130.9,126.4,129.6,124.5,130.3,123z"/>
<path class="st7" d="M133.6,108.9c6.7,0,13.4,0.8,20-1.7c11.5-4.3,20.4-11.3,24.6-23.3c21,18.3,35.7,40.1,39.2,68.3
	c0.7,6.1-0.1,12.4-2.4,18.1c-0.6,1.5-2.5,3.6,0.2,4.6c2.1,0.8,2.8-1.6,3-3.1c0.9-5.3,3.6-6.2,8.7-5.1c6.6,1.5,13.4,2.3,19.8,4.9
	c2.6,1.1,5.2,2.1,7.1,4.8c-1.6,1-3.3,0.6-4.8,0.6c-21.5,0-42.9-0.1-64.4,0c-2.9,0-4.2-0.3-3.2-3.7c0.7-2.8,0.1-5.8-1.6-8.1
	c-2.3-3.3-3.1-7.4-2.4-11.3c0.9-2.7-0.2-5.6,0.7-8.3c0.4-6.3,5.6-6.4,9.9-7.8c2.6-1.1,5.6,0.5,8.2-1c1.4-2.6-0.2-3.1-2.3-3.3
	c-5.3-0.6-10.1,1-15.1,3.7c0.2-3.6,0.5-6.7,0.6-9.8c0.1-1.4,0.8-3.4-1.5-3.6s-1.7,1.9-2,3.2c-0.1,0.6-0.4,1.3-0.6,1.9
	c-3.8,7.2-4.8,14.9-4.8,22.9c0,2.9,0.8,6.1-2.3,8.1l0,0c-1.9,1.6-6.2,0.7-5.9,4.2s4.3,2.8,6.8,3.4c5.1,1.1,6.3,3.7,4,9.1
	c-5.1,0.1-10.3-0.1-15.4,0.2c-3.1,0.2-3.5-1.1-3.5-3.8c0.1-14,0.1-28,0-41.9c0-2,0.2-3.5,2.5-4c1.1-0.3,2.3-1,1.8-2.4s-1.8-1.1-3-1
	s-2,0.3-3,0.5c-1.8,0.4-4.4-1.6-5.4,0.7c-1.2,2.7,2.1,2.2,3.1,3.4c0.6,0.7,0.4,2.2,0.4,3.4c0,13.8,0,27.6,0.1,41.4
	c0,2.7-0.5,3.9-3.5,3.8c-5.8-0.2-11.6-0.2-17.5,0c-3.4,0.1-4.1-1.4-3.5-4.2c0.8-3.6,1.9-7.2,5.4-9.2c2.3-1.4,2.8-3.4,2.8-5.9
	C134.1,141.5,133.9,125.2,133.6,108.9z"/>
<path class="st8" d="M70.5,128c17.5,4.1,28.8-0.1,38.4-14.1c2.6-0.5,4,1.5,5.4,3c6.4,6.9,9.8,14.9,8.5,24.6c-0.5,3.6-0.1,7.3-0.4,11
	c-0.1,1.8,0.5,4.2-2.4,4.6c-1.1-0.3-2.4-1-3,0.5c-2.1,5-6.5,5.2-11,5.4c-2.3-5-0.1-10,0.6-14.9c0.6-4.1,2.1-8,1.1-12.2
	c-0.7-4.4-2.5-2.5-4.3-0.7c-5.3,4-5.2,10-5.9,15.7c-0.3,2.3,0,4.6-0.4,6.9c-0.4,2.7-2,4-4.6,4.5c-5.1,1-6.1,0.3-6.1-5
	c0-4.5-0.1-9,0-13.4c0.1-3.1,0.6-6,4.4-6.7c1.3-0.5,2.5-1.2,1.9-2.8c-0.5-1.3-1.7-1.2-2.9-0.9c-3.2,0.8-6.5,0.9-9.7,0.1
	c-1.2-0.3-2.4-0.6-3,0.7c-0.8,1.7,0.6,2.3,1.8,2.9c1.7,0.7,1.9,2.1,2,3.6c0.2,7.9,0.2,15.9-0.8,23.8c-0.6,4.6-4,8.2-6.2,12.3
	c-1.6,0.2-3.3,0.2-4.9,0.1c-1.4-0.2-4.4,1.4-3.8-1.9c0.4-2,0.5-5.8,4.8-4.3c2.5,0.9,2.9-0.9,2.8-2.7C71.6,154.7,72.3,141.3,70.5,128
	z"/>
<path class="st9" d="M120,157c1.3-11.1,3.9-22.3-2-33c-2.2-4.1-5.4-7.6-9.2-10.2c0.3-0.6,0.7-1.3,1-1.9c13.6,8,19.9,20.3,20.8,35.7
	c0.1,2.6,0,5.3,0.2,8c0.4,2.3-0.6,4.6-2.6,5.9c-4.1,3.1-5.4,7.8-5.9,12.7c-0.1,1.6,0.1,2.8-2.2,2.8c-13.1-0.1-26.1-0.1-39.6-0.1
	c1.2-4.4,3.1-7.4,7.4-8.3c1.2,3.2,3.5,4.1,6.9,4.1c5.3,0,10.6-1.1,15.9-1.3c4.4-0.2,4.2-4.9,6.2-7.5C118.8,162,120.8,160.1,120,157z
	"/>
<path class="st10" d="M117,164c0.4,5.6-2.3,9.1-7.2,9c-5.8-0.1-11.5,1.3-17.3,1.2c-4.3-0.1-5.9-1.3-4.5-5.5
	c5.5-1.4,11.1-0.8,16.7-1.5C109,166.5,113.1,165.9,117,164z"/>
<path class="st11" d="M91.1,137.1c-3.1,1.8-3.9,4.7-4,8c-0.1,4.1-0.2,8.3,0.1,12.4c0.1,1.3-1.5,4.2,2.1,3.5c2.6-0.5,6.6,1.4,6.8-3.5
	s-0.2-9.9,1.1-14.8c1-3.5,1.6-7.3,6.3-7.7c-3.7,8-4.3,16.7-5.1,25.3c-0.2,2.7-0.9,3.9-3.8,3.6c-2.8-0.3-5.7,0.1-8.4,1
	c0-8.7,0-17,0-25.3C86.3,136.4,89.2,137.5,91.1,137.1z"/>
<path class="st12" d="M173.1,176.8c0.7-5.2-0.3-8.5-6.8-8.2c-1.9,0.1-5.7,0.3-6.1-3.5c-0.4-1.9,0.5-3.7,2.2-4.6
	c1.8-1,3.9-0.4,5.8-0.5c-2.3,4.7,1.5,3.7,3.7,3.8c5.3,0.2,5.4,4.5,5.9,7.8C178.1,174.2,177.4,177.5,173.1,176.8z"/>
<path class="st13" d="M168.1,160.1c1.5-2.8,1.1-5.8,0.9-8.7c-0.5-6.1,1.3-11.7,2.3-17.5c0.3-2.2,1.8-4,3.9-4.8
	c-0.7,9.5-1.4,19.1-2,28.6C173,162,169.8,159.2,168.1,160.1z"/>
<path class="st14" d="M107.8,135.9c2.6,1.1,2.4,3,1.8,5.3c-1.8,7.1-3,14.4-3.5,21.7c-2.7,1.1-4.5,1.2-4-2.6
	C103.1,151.9,102.9,143.3,107.8,135.9z"/>
<path class="st15" d="M74.1,176.8c-0.2-2,0.3-4,1.4-5.7c6.4-10.2,4.3-21.6,4.2-32.6c0-0.4-0.4-0.9-0.6-1.3c2.5-0.3,3.1,0.9,3.1,3.2
	c-0.1,8.1,0,16.3-0.1,24.4C82.2,167.7,76.3,176.3,74.1,176.8z"/>
<path class="st16" d="M196.1,136.9c-2.5,2.2-5.5,0.7-8.2,1C190.4,136.2,193.4,137.6,196.1,136.9z"/>
<path class="st16" d="M178,145.7c0,2.8,0.9,5.6-0.7,8.3C177.1,151.2,176.9,148.4,178,145.7z"/>
<path class="st17" d="M169.5,71.9l-2.2,4.2c-4.8,0.9-7.2-3.5-11.1-4.7c-0.7-0.9-0.3-1.9,0-2.8c2.2-5.2,0.8-9.2-3.8-12.3
	c-0.2-0.2-0.5-0.5-0.8-0.6c-7.1-2.7-14-5.6-19.4-11.3c-1.4-1.3-3.6-1.4-5.2-0.3c-1.8,1.2-1.7,3.1-1.5,5c0.2,1.7,0.7,3.3,1.4,4.8
	c1.7,3.3,1.3,7.4-0.9,10.3c-0.6,0.4-1.2,0.2-1.8,0.4c0.7,0.3,1.4,0.5,1.7,1.3c0.8,2.5,0.3,5.2,0.8,7.7c0.1,4,2.6,6.1,6,7.3
	c1.6,0.6,3.5,0.8,4.9,2c1.8,3.4,4.6,6.6,3.5,10.9c-4,0.6-7.8-0.8-11.6-1.6c-14.3-6.1-22.4-22.4-17.8-35.8
	c4.8-14,23.7-24.4,37.4-20.5C163.3,39.8,172.6,56.3,169.5,71.9z"/>
<path class="st18" d="M106.6,64.8c-5.4-4-9.5-8.3-12.4-13.6c-3.7-6.7-0.7-11.5,6.9-11.4c4.1,0.1,7.8,1.5,11.5,3
	c1.8,0.8,2.5,1.5,0.9,3.1c-0.7,0.7-1.2,1.6-1.9,2.3c-1,1.2-1.2,3.9-3,3.4c-2.4-0.5-4.2-2.3-4.6-4.7c-0.2-1.5-0.4-3.3-2.5-2.6
	c-1.7,0.6-1.6,2.5-1.1,3.9c0.4,1.2,1.1,2.4,2,3.4C107.3,57.2,107.3,57.1,106.6,64.8z"/>
<path class="st19" d="M138.9,31.9c-1.4-0.1-3.1,0.3-2.8-2.2c0.5-4.4,0.8-8.9,2.9-12.9c3.1-6,8-6.1,11.8-0.4
	c2.5,3.8,4.8,11.9,5.1,17.7c-3.2-0.5-6-2.7-9.4-2.3c-0.4,0-0.6-0.2-0.6-0.4s0.1-0.4,0.2-0.4c1.5-3.8,1.4-7.4-1.8-10.4
	c0.7,3.6,3.6,7,1.1,10.9C143.3,31.7,141,31,138.9,31.9z"/>
<path class="st20" d="M146,30.9l0.5,0.9l-7.6,0.1c2.3-1.5,4.9-0.2,7.3-0.9L146,30.9z"/>
<path class="st8" d="M90,117c-12.2,0-23.2-8-25.6-18.5c-0.9-4.1,0.2-7.8,1.2-11.7c0.6-2.1,1.7-4,1.3-6.2c6.8-6.3,16.9-7.7,25.2-3.4
	c8.6,4.4,12.9,13.4,11.6,23.6c-2.5,6.6-7.3,11.2-12.7,15.4C90.8,116.6,90.4,116.9,90,117z"/>
<path class="st21" d="M56,96.7c-2.7-1.6-4.9-3.9-6.3-6.7c-1.5-2.6-0.6-4.3,2.1-5.4c1.9-0.8,4.2-1.6,5.6-0.4c1.9,1.5-0.7,2.9-1.1,4.4
	C55.8,91,54.4,93.1,56,96.7z"/>
<path class="st22" d="M96.2,75.2c-3.9-2.1-8.1-3.5-12.4-4.3c2.3-2.9,4.2-6.6,7.5-5.4C94.8,66.7,95.3,71.1,96.2,75.2z"/>
<path class="st23" d="M141.1,93.8c-1.4-3.8-2.8-7.5-4.2-11.3c2.5-2.9,6.3-4.7,7.4-8.8c0.2-0.6,0.9-1.1,1.5-1
	c3.7,0.8,6.8-1.9,10.3-1.7c4.6-0.3,6.9,4.3,11,5c-1.9,6.4-7.1,10.1-11.4,14.6c-1.2,3.3-3.2,4.9-6.8,3.3
	C146.5,92.5,143.8,94.8,141.1,93.8z"/>
<path class="st7" d="M149.1,94c2.7,0.1,5.2-1.2,6.8-3.3c0.5,2.9,2,2.6,3.8,1.2c4-3.2,7.4-7.2,9.9-11.7c0.6-1,0.6-3,2.5-2.3
	c1.4,0.5,2,2.1,2,3.7c0,3.4-1.2,6.6-3.5,9.1c-8.8,10.8-20.2,15.8-34.2,14.3c-4.2-0.4-4.5-3.8-4.7-6.5s2.6-1.6,3.8-1.3
	c3.9,0.9,7.9,0.9,11.8-0.2C149.2,96.6,150,95.9,149.1,94z"/>
<path class="st3" d="M149.1,94c2.7,0.1,5.2-1.2,6.8-3.3c0.5,2.9,2,2.6,3.8,1.2c4-3.2,7.4-7.2,9.9-11.7c0.6-1,0.6-3,2.5-2.3
	c1.4,0.5,2,2.1,2,3.7c0,3.4-1.2,6.6-3.5,9.1c-8.8,10.8-20.2,15.8-34.2,14.3c-4.2-0.4-4.5-3.8-4.7-6.5s2.6-1.6,3.8-1.3
	c3.9,0.9,7.9,0.9,11.8-0.2C149.2,96.6,150,95.9,149.1,94z"/>
<path class="st8" d="M90,117l1-0.7c0,3.4,1.5,3,3.7,1.6c4.4-2.6,7-6.9,10.5-10.9c1.5,2.3,0.8,4.1-0.1,5.8
	c-4.9,9.6-19.8,15.7-30.1,12.4c-0.9-0.3-1.8-0.7-2.7-1.2c-1-0.3-1.6-1.4-1.3-2.4c0.5-1.2,1.7-0.5,2.6-0.4c3,0.3,6.3,2.8,8.6-1.4
	l1.8-0.2c1.4,0.8,3.3,0.3,4.1-1.2c0.1-0.1,0.1-0.2,0.2-0.3C88.9,117.9,89.9,118.2,90,117z"/>
<path class="st4" d="M90,117l1-0.7c0,3.4,1.5,3,3.7,1.6c4.4-2.6,7-6.9,10.5-10.9c1.5,2.3,0.8,4.1-0.1,5.8
	c-4.9,9.6-19.8,15.7-30.1,12.4c-0.9-0.3-1.8-0.7-2.7-1.2c-1-0.3-1.6-1.4-1.3-2.4c0.5-1.2,1.7-0.5,2.6-0.4c3,0.3,6.3,2.8,8.6-1.4
	l1.8-0.2c1.4,0.8,3.3,0.3,4.1-1.2c0.1-0.1,0.1-0.2,0.2-0.3C88.9,117.9,89.9,118.2,90,117z"/>
<path class="st8" d="M88.2,118.1c0.6,1.2,1.1,2.3-0.6,3.1c-2,1-3,0.1-3.6-1.6C85,117.9,86.4,117.6,88.2,118.1z"/>
<path class="st24" d="M126.3,74.1c-2.4-2.8-0.5-6.3-1.3-9.4l-0.2-0.6c2.3-3.2,2.6-6.3,1-10.1s-4-8.4,0.6-11.2
	c4.3-2.7,7.9,0.5,10.7,3.8s6.1,5.3,10.6,5.7c2.1,0.2,4.7,0.9,5.4,3.7c0.6,2.3,2.2,4.1,2.7,6.4c0.8,3-0.4,6.2-3.1,7.8
	c-2.3,1.6-5.3,1.6-7.5-0.1c-2.7-1.8-3.3-4.2-2.4-7.4c1.5-5.4,0.7-7.5-2.6-8.1c-4.1-0.8-10.3,3.5-10.4,7.4c-0.1,3.2,2.1,4.2,4.8,4.7
	c1.9,0.3,4.1,0.2,5.5,1.8c2.3,2.5,2.9,5.3,1.1,8.2s-4.4,4.1-7.6,3.2C130.5,78.9,127.9,76.8,126.3,74.1z"/>
<path class="st2" d="M126.3,74.1c2.5-0.1,3,2.4,4.7,3.4c2.6,1.6,5.2,2.2,7.9,0.4c2.1-1.3,3-3.8,2.2-6.1c-0.6-2.2-1.6-3.8-4.5-3.5
	c-3.4,0.3-7-0.3-8.3-4s1.1-6.3,4-8.3c3.4-2.4,7-4.4,11-2c3.4,2,2.5,5.6,1.3,8.5c-1.2,2.7-2.1,4.8,1,6.7c2.5,1.5,4.9,2,7.3-0.1
	s3.2-4.9,1.5-8c-0.9-1.5-3.4-2.8-1-5c6.1,2.7,7.2,8,3.2,15.2c-2.7,2.1-5.6,3.8-9.1,2.8c-1.6-0.4-2,0-2.3,1.4c-1,4.1-3.8,6.4-7.9,7.3
	c-3.8,0.4-7.6-1-10.1-3.9C125.6,77.3,124.6,75.8,126.3,74.1z"/>
<path class="st25" d="M147.5,50c0,0.9-0.6,1.2-1.2,1.1c-1.1-0.1-1.6-1-1.7-2c-0.1-0.8,0.6-1.2,1.3-1.1C147,48,147.4,49,147.5,50z"/>
<path class="st26" d="M124.8,64.1c-0.1,0.2,0,0.5,0.2,0.6c-1.1,1.2-2.1,1.4-3-0.1c-0.5-0.8-0.6-1.6,0.3-2
	C123.7,61.9,123.9,63.5,124.8,64.1z"/>
<path class="st20" d="M146.1,31c-2-3.3-0.7-7.8-4.3-10.6c-0.8-0.6,0.6-2.5,2.3-1.9c2.5,0.8,4.1,3.1,4,5.7
	C148.1,26.5,150.6,29.9,146.1,31L146.1,31z"/>
<path class="st27" d="M80.2,96.8c-0.7-0.5-1.4-1.1-2-1.7c-0.8-1.1-0.1-1.8,0.8-2.4s2.3-1.3,2.6-0.3c0.9,2.9,2,3.3,4.3,1.3
	c0.6-0.5,1.2,0,1.4,0.8c0.3,0.8-0.1,1.7-0.9,2.1c-2.4,1-4.6,2.4-6.4,4.2c-0.8,0.7-1.9,0.6-2.6-0.2c0,0-0.1-0.1-0.1-0.1
	c-0.5-0.8,0.1-1.4,0.9-1.9C78.8,98,79.5,97.4,80.2,96.8z"/>
<path class="st28" d="M70.7,99.4c0.5,0.5,0.8,1.1,1.1,1.8c0.3,0.9-0.7,1.1-1.2,1c-0.8-0.1-1.4-0.8-1.4-1.7
	C69.2,99.7,69.7,99.4,70.7,99.4z"/>
<path class="st29" d="M91.3,88.2c-0.2,0.2-0.4,0.8-0.7,0.8c-0.8,0.1-1.4-0.5-1.5-1.2c0-0.1,0-0.2,0-0.3c0-0.4,0.5-1.1,0.6-1.1
	C90.6,86.4,91.3,87.2,91.3,88.2z"/>
<path class="st30" d="M135.6,64.8c-1.5-0.6-3.8-0.2-4.2-2.5c-0.4-2,5.1-5.7,7.9-5.6c2,0,2.2,1.2,2.1,2.5
	C141.1,62.7,139.3,64.7,135.6,64.8z"/>
<path class="st4" d="M88.4,118c0.7,1.3,1.2,2.4-0.6,3.3c-2.1,1.1-3.2,0.2-3.9-1.7C84.9,117.8,86.5,117.5,88.4,118z"/>
</svg>
