<?xml version="1.0" encoding="UTF-8"?>
<svg width="289px" height="165px" viewBox="0 0 289 165" version="1.1" xmlns="http://www.w3.org/2000/svg" xmlns:xlink="http://www.w3.org/1999/xlink">
    <title>Pizza_mobile_3</title>
    <defs>
        <path d="M0.574141791,20.7795435 C0.574141791,27.6613804 6.17395522,33.7589022 14.7912313,37.5278478 L14.7912313,37.5278478 L21.0289086,39.6999457 C25.3433396,40.8587826 30.1244216,41.5026522 35.1597481,41.5026522 L35.1597481,41.5026522 C54.2589739,41.5026522 69.7447108,32.2255435 69.7447108,20.7795435 L69.7447108,20.7795435 C69.7447108,9.33418478 54.2589739,0.057076087 35.1597481,0.057076087 L35.1597481,0.057076087 C16.0566604,0.057076087 0.574141791,9.33418478 0.574141791,20.7795435 L0.574141791,20.7795435 Z M22.7127146,36.647337 L17.2165299,34.8241087 C9.62524254,31.6656848 4.69354478,26.5493587 4.69354478,20.7795435 L4.69354478,20.7795435 C4.69354478,11.1805 18.3345616,3.40083696 35.1591045,3.40083696 L35.1591045,3.40083696 C51.9849347,3.40083696 65.6220896,11.1811413 65.6220896,20.7795435 L65.6220896,20.7795435 C65.6220896,30.3753804 51.9849347,38.1588913 35.1591045,38.1588913 L35.1591045,38.1588913 C30.7249534,38.1588913 26.5115765,37.618913 22.7127146,36.647337 L22.7127146,36.647337 Z" id="path-1"></path>
        <path d="M31.4896175,0.888206522 L1.86016791,15.6786087 C0.270335821,16.4719022 -0.372033582,18.3983804 0.424169776,19.9811196 L0.424169776,19.9811196 C1.21908582,21.5645 3.12559701,21.9614674 3.87223881,21.7844674 L3.87223881,21.7844674 L31.9382463,7.83738043 L49.0929851,31.2302391 L54.0697388,27.1451304 L35.5298507,1.86363043 C34.9061474,1.01326087 33.9297201,0.548315217 32.9294776,0.548315217 L32.9294776,0.548315217 C32.4422295,0.548315217 31.9498321,0.658619565 31.4896175,0.888206522" id="path-3"></path>
        <path d="M9.09075,39.01675 L1.07025,60.63775 C0.6405,61.795 0.411,63.013 0.387834325,64.2385 C0.37275,65.047 0.63975,67.64275 0.843,69.487 C0.95175,70.46875 1.97925,71.06275 2.88225,70.66225 C13.773,65.83075 69.1885,35.7358885 88,25.8231385 C54.7584207,10.4098487 33.284225,2.04426696 23.577413,0.726393209 C21.9658917,0.507600298 17.651504,11.7143026 10.63425,34.3465 L9.09075,39.01675 Z" id="path-5"></path>
        <path d="M19.659,0.31575 C10.77825,3.73575 7.98825,16.81125 9.759,20.76375 L9.759,20.76375 L2.42175,43.63875 L0.2085,51.189 L53.4165,59.214 C69.22125,50.87325 74.22975,46.686 74.22975,46.686 L74.22975,46.686 C79.30875,43.656 83.0385,35.53875 82.22175,28.81275 L82.22175,28.81275 C81.74175,24.85875 78.82125,21.45375 75.59325,19.8915 L75.59325,19.8915 C73.64025,18.94575 71.4435,17.946 69.0705,16.91625 L69.0705,16.91625 C68.31075,16.587 67.56525,16.14675 66.77175,15.81225 L66.77175,15.81225 C65.58375,15.3105 64.32675,14.91075 63.0735,14.40075 L63.0735,14.40075 C59.09925,12.78675 54.837,11.1465 50.51925,9.56775 L50.51925,9.56775 C48.45225,8.81175 46.5645,7.6605 44.4975,6.94275 L44.4975,6.94275 C42.2475,6.15975 39.82125,5.81625 37.6335,5.10225 L37.6335,5.10225 C31.29525,3.03225 27.09975,1.296 22.36275,0.18975 L22.36275,0.18975 C21.9705,0.09825 21.56775,0.04725 21.1665,0.04725 L21.1665,0.04725 C20.65275,0.04725 20.14125,0.1305 19.659,0.31575" id="path-7"></path>
        <path d="M10.659,0.31575 C2.45775,3.474 -0.549,14.8665 0.4335,19.70475 L0.4335,19.70475 C19.19025,23.67375 58.1445,41.73225 58.1445,41.73225 L58.1445,41.73225 C62.46075,39.35925 69.2535,34.35825 73.266,29.226 L73.266,29.226 C73.2525,29.088 73.23825,28.95 73.22175,28.81275 L73.22175,28.81275 C72.74175,24.85875 69.82125,21.45375 66.59325,19.8915 L66.59325,19.8915 C64.64025,18.94575 62.4435,17.946 60.0705,16.91625 L60.0705,16.91625 C59.31075,16.587 58.56525,16.14675 57.77175,15.81225 L57.77175,15.81225 C56.58375,15.3105 55.32675,14.91075 54.0735,14.40075 L54.0735,14.40075 C50.09925,12.78675 45.837,11.1465 41.51925,9.56775 L41.51925,9.56775 C39.45225,8.81175 37.5645,7.6605 35.4975,6.94275 L35.4975,6.94275 C33.2475,6.15975 30.82125,5.81625 28.6335,5.10225 L28.6335,5.10225 C22.29525,3.03225 18.09975,1.296 13.36275,0.18975 L13.36275,0.18975 C12.9705,0.0975 12.56775,0.04725 12.1665,0.04725 L12.1665,0.04725 C11.65275,0.04725 11.14125,0.1305 10.659,0.31575" id="path-9"></path>
        <path d="M9.759,20.76375 L2.42175,43.63875 L0.2085,51.189 L37.6335,68 C53.43825,59.65925 74.22975,46.686 74.22975,46.686 C79.30875,43.656 83.0385,35.53875 82.22175,28.81275 C81.74175,24.85875 78.82125,21.45375 75.59325,19.8915 C73.64025,18.94575 71.4435,17.946 69.0705,16.91625 C68.31075,16.587 67.56525,16.14675 66.77175,15.81225 C65.58375,15.3105 64.32675,14.91075 63.0735,14.40075 C59.09925,12.78675 54.837,11.1465 50.51925,9.56775 C48.45225,8.81175 46.5645,7.6605 44.4975,6.94275 C42.2475,6.15975 39.82125,5.81625 37.6335,5.10225 C31.29525,3.03225 27.09975,1.296 22.36275,0.18975 C21.9705,0.09825 21.56775,0.04725 21.1665,0.04725 C20.65275,0.04725 20.14125,0.1305 19.659,0.31575 C10.77825,3.73575 7.98825,16.81125 9.759,20.76375 Z" id="path-11"></path>
    </defs>
    <g id="Pizza_mobile_3" stroke="none" stroke-width="1" fill="none" fill-rule="evenodd">
        <g id="Group-90" transform="translate(38.000000, 13.000000)">
            <g id="Group-29" transform="translate(25.102612, 3.940815)">
                <path d="M1.74875093,107.919401 L17.354208,95.6121293 C10.02682,92.8295098 6.07927332,89.0188793 6.18483302,84.8779772 C6.38501026,77.0380315 23.1593479,71.1034011 43.6514468,71.6228576 C64.1435457,72.1423141 77.0456446,74.5613141 76.846111,82.4019011 C76.6452901,90.2418467 63.4187882,100.533499 42.9266894,100.014042 C36.6291521,99.8543576 30.7178088,99.1021076 25.5505326,97.9118467 L5.86171735,112.829868 C5.23222108,113.306999 4.47399347,113.52889 3.72735168,113.509651 C2.78696922,113.485923 1.86332183,113.08126 1.22996362,112.325803 C0.0945531716,110.969445 0.326913246,108.996792 1.74875093,107.919401" id="Fill-1" fill-opacity="0.04" fill="#4A4A4A"></path>
                <path d="M29.9521147,68.9770924 L31.657805,78.8627989 L31.6835513,78.9974728 C33.0931595,85.1411685 41.8983834,89.8739946 52.5380289,89.8739946 C63.184111,89.8739946 71.9764618,85.1411685 73.3925065,78.9974728 L73.4182528,78.8627989 L74.7544841,68.1709728 C74.7544841,68.1709728 74.6682341,71.5269185 72.4740084,74.081875 C68.5966203,78.7845598 61.2737379,81.3266902 52.3320588,81.6114293 C49.4600625,81.6114293 46.9703983,81.2728207 44.3931968,80.7322011 C44.1061259,80.6719185 43.8222733,80.5943207 43.5442136,80.5026141 L40.0961446,79.3681467 C35.1058741,77.3467554 30.5133834,74.0613533 29.9521147,68.9770924" id="Fill-3" fill="#FF0083"></path>
                <path d="M18.5485774,24.6224957 L28.4982229,80.9630065 L28.5323368,81.1143543 C30.155639,88.1892239 40.2867957,93.6377457 52.5388013,93.6377457 C64.7895196,93.6377457 74.9168144,88.1892239 76.5407603,81.1149957 L76.5742304,80.9630065 L86.5322435,24.6109522 C85.6742491,27.3692022 83.9048368,29.9318543 81.4183909,32.1789848 C75.2315625,37.8006587 64.6060774,41.5029087 52.5388013,41.5029087 C40.4670196,41.5029087 29.8402472,37.7961696 23.6547062,32.1789848 C21.1714785,29.9318543 19.4059282,27.37305 18.5485774,24.6224957" id="Fill-5" fill="#F7F7F7"></path>
                <path d="M76.1828871,78.5772261 C74.0845662,72.2231826 63.8169543,67.1671391 51.8945009,67.1671391 C47.8452565,67.1671391 44.0277285,67.7622696 40.6723461,68.8140087" id="Stroke-7" stroke="#CCCCCC" stroke-width="1.5" stroke-linecap="round" stroke-linejoin="round"></path>
                <path d="M37.0354925,70.2171185 C32.0716119,72.8759663 28.9473022,76.7404663 28.9473022,81.0416946 C28.9473022,81.3726076 28.9666119,81.7003141 29.0033004,82.0254554" id="Stroke-9" stroke="#CCCCCC" stroke-width="1.5" stroke-linecap="round" stroke-linejoin="round"></path>
                <path d="M31.657805,78.7068337 L31.6835513,78.8421489 C33.0931595,84.9852033 41.8983834,89.7180293 52.5380289,89.7180293 C63.184111,89.7180293 71.9764618,84.9852033 73.3925065,78.8421489 L73.4182528,78.7068337 L74.7544841,67.7764424 C74.7544841,67.7764424 74.6682341,70.7296489 72.4740084,73.2846054 C64.9844188,82.7682141 47.0920494,82.2019424 39.1821521,78.6491163 C34.2871427,76.450725 30.5860403,73.5591285 29.9521147,68.8217685 L31.657805,78.7068337 Z" id="Fill-11" fill="#FF0083"></path>
                <path d="M29.9093759,68.1707163 C29.9093759,68.3502815 29.9164562,68.5298467 29.9299729,68.7087707 C30.1996651,72.9522815 33.7590868,76.6846728 39.1258965,79.0305641 L43.1706353,80.4382272 C45.9679674,81.1904772 49.0703927,81.6111728 52.3318013,81.6111728 C61.5148517,81.6111728 69.4015774,78.3058902 72.8708871,73.5730641 C74.0828927,71.9172163 74.7548703,70.0952707 74.7548703,68.1707163 C74.7548703,60.7540315 64.7209058,54.7373141 52.3318013,54.7373141 C39.9504207,54.7373141 29.9093759,60.7540315 29.9093759,68.1707163" id="Fill-13" fill="#FF0083" opacity="0.375581287"></path>
                <path d="M29.9093759,68.1707163 C29.9093759,68.3502815 29.9164562,68.5298467 29.9299729,68.7087707 C30.1996651,72.9522815 35.9095438,81.6111728 52.3318013,81.6111728 C62.678583,81.6111728 69.4015774,78.3058902 72.8708871,73.5730641 C74.0828927,71.9172163 74.7548703,70.0952707 74.7548703,68.1707163 C74.7548703,60.7540315 64.7209058,54.7373141 52.3318013,54.7373141 C39.9504207,54.7373141 29.9093759,60.7540315 29.9093759,68.1707163" id="Fill-15" fill="#FF0083" opacity="0.772460938"></path>
                <path d="M34.0742854,38.3049804 C34.4366642,38.4422196 34.8048358,38.5762522 35.1762257,38.7057957" id="Stroke-17" stroke="#494949" stroke-width="1.5" stroke-linecap="round" stroke-linejoin="round"></path>
                <g id="Group-22" transform="translate(36.044776, 32.706522)">
                    <line x1="5.15935914" y1="7.40873261" x2="0.108584888" y2="0.39093913" id="Fill-19" fill="#F7F7F7"></line>
                    <line x1="5.15935914" y1="7.40873261" x2="0.108584888" y2="0.39093913" id="Stroke-21" stroke="#B3B3B3" stroke-width="1.5" stroke-linecap="round"></line>
                </g>
                <g id="Group-26" transform="translate(21.884328, 24.369565)">
                    <path d="M0.353946828,0.604878261 L40.5882845,58.22415 C42.2469879,59.8941065 47.1381353,57.4231609 45.7851688,54.4404543 L21.4440028,18.6960739" id="Fill-23" fill="#F7F7F7"></path>
                    <path d="M0.353946828,0.604878261 L40.5882845,58.22415 C42.2469879,59.8941065 47.1381353,57.4231609 45.7851688,54.4404543 L21.4440028,18.6960739" id="Stroke-25" stroke="#B3B3B3" stroke-width="1.5" stroke-linecap="round"></path>
                </g>
                <path d="M22.0723405,20.7799924 C22.0723405,11.1803076 35.7127136,3.40064457 52.5379002,3.40064457 C69.3637304,3.40064457 83.0002416,11.1809489 83.0002416,20.7799924 C83.0002416,30.375188 69.3637304,38.1593402 52.5379002,38.1593402 C48.1031054,38.1593402 43.8897285,37.6187207 40.0915103,36.6471446 L34.5946819,34.8239163 C27.0040382,31.6661337 22.0723405,26.5491663 22.0723405,20.7799924 M17.9535812,20.7799924 C17.9535812,27.661188 23.5527509,33.7587098 32.1700271,37.5276554 L38.4077043,39.7003946 C42.7221353,40.8592315 47.5032174,41.5024598 52.5385438,41.5024598 C71.6377696,41.5024598 87.1228629,32.2259924 87.1228629,20.7799924 C87.1228629,9.33399239 71.6377696,0.057525 52.5385438,0.057525 C33.4348125,0.057525 17.9535812,9.33399239 17.9535812,20.7799924" id="Fill-27" fill="#F7F7F7"></path>
            </g>
            <g id="Group-32" transform="translate(42.481343, 3.940815)">
                <mask id="mask-2" fill="white">
                    <use xlink:href="#path-1"></use>
                </mask>
                <g id="Clip-31"></g>
                <polygon id="Fill-30" fill="#FFFFFF" mask="url(#mask-2)" points="46.7908825 0.0572043478 39.422944 63.7906717 79.3097071 57.2519326 75.8706493 3.40032391"></polygon>
            </g>
            <g id="Group-55" transform="translate(0.000000, 0.092989)">
                <path d="M45.4464123,17.0395848 C43.9029235,19.3893239 43.054584,21.9487696 43.054584,24.6274978 C43.054584,31.5093348 48.6531101,37.6074978 57.2710299,41.3764435" id="Stroke-33" stroke="#494949" stroke-width="1.5" stroke-linecap="round" stroke-linejoin="round"></path>
                <path d="M63.5108955,43.546938 C67.8246828,44.7051337 72.6064086,45.3496446 77.6391604,45.3496446 C96.7403172,45.3496446 112.224767,36.0718946 112.224767,24.6278185 C112.224767,13.1831011 96.7403172,3.90535109 77.6391604,3.90535109 C64.7988526,3.90535109 53.5927892,8.09819891 47.6260914,14.3233402" id="Stroke-35" stroke="#494949" stroke-width="1.5" stroke-linecap="round" stroke-linejoin="round"></path>
                <path d="M104.07382,15.7438293 C106.965126,18.3295685 108.63284,21.371275 108.63284,24.6278185 C108.63284,30.2751446 103.615536,35.2798837 95.8929431,38.3728946" id="Stroke-37" stroke="#494949" stroke-width="1.5" stroke-linecap="round" stroke-linejoin="round"></path>
                <path d="M97.5404468,11.5893957 C97.7142341,11.6695587 97.8860905,11.7497217 98.0566595,11.8318087" id="Stroke-39" stroke="#494949" stroke-width="1.5" stroke-linecap="round" stroke-linejoin="round"></path>
                <path d="M49.4843284,17.5079935 C54.3941418,11.6714826 65.1547948,7.62100435 77.6391604,7.62100435 C84.1420243,7.62100435 90.1769496,8.7195587 95.1614272,10.5972978" id="Stroke-41" stroke="#494949" stroke-width="1.5" stroke-linecap="round" stroke-linejoin="round"></path>
                <path d="M90.3005961,40.1546946 C86.4347938,41.1051076 82.1499711,41.6335424 77.6392248,41.6335424 C60.5218181,41.6335424 46.6458666,34.0199772 46.6458666,24.6274337" id="Stroke-43" stroke="#494949" stroke-width="1.5" stroke-linecap="round" stroke-linejoin="round"></path>
                <path d="M53.6008349,84.810512 L53.6349487,84.9625011 C55.2582509,92.0373707 65.3894076,97.4858924 77.6414132,97.4858924 C89.8921315,97.4858924 100.019426,92.0373707 101.643372,84.9625011 L101.676842,84.810512" id="Stroke-45" stroke="#494949" stroke-width="1.5" stroke-linecap="round" stroke-linejoin="round"></path>
                <path d="M90.1488562,77.3909551 C90.6586323,80.673792 83.1525586,81.8080841 81.9881836,79.8059319 L84.809625,83.8639467 C85.1604179,84.3500554 86.575587,87.263389 87.9671728,87.5622369 C88.2677605,87.6475303 88.7774206,87.8257514 89.2196128,87.8013819 C92.3960587,87.6263058 95.2418826,84.2076618 93.0058191,81.62064 L90.1488562,77.3909551 Z" id="Fill-47" fill="#FF0083" opacity="0.807686942"></path>
                <path d="M56.760417,82.5546598 L56.7861632,82.689975 C58.1957715,88.8330293 67.0009953,93.5658554 77.6406409,93.5658554 C88.2867229,93.5658554 97.0790737,88.8330293 98.4951185,82.689975 L98.5208647,82.5546598 L99.8570961,71.6242685 C99.8570961,71.6242685 99.7708461,74.577475 97.5766203,77.1324315 C90.0870308,86.6160402 72.1946614,86.0497685 64.284764,82.4969424 C59.3897547,80.2985511 55.7413192,77.3875337 55.0547267,72.6695946 L56.760417,82.5546598 Z" id="Fill-49" fill="#FF0083" opacity="0.472446987"></path>
                <path d="M102.401857,80.7068696 L111.635113,28.4585217 C110.777118,31.2167717 109.007706,33.7800652 106.520617,36.0271957 C100.334432,41.6482283 89.7083032,45.3504783 77.6410271,45.3504783 C65.5692453,45.3504783 54.9431166,41.6443804 48.7569319,36.0265543 C46.2743479,33.7800652 44.5087976,31.2206196 43.6514468,28.4700652 L53.6010924,84.8105761 L53.6345625,84.9625652 C55.2585084,92.0367935 65.3896651,97.4859565 77.6410271,97.4859565 C89.8917453,97.4859565 100.019684,92.0367935 101.642986,84.9625652 L101.6771,84.8105761" id="Stroke-51" stroke="#494949" stroke-width="1.5" stroke-linecap="round" stroke-linejoin="round"></path>
                <path d="M54.0697388,27.1454511 L35.5292071,1.86395109 C34.6023414,0.599298913 32.8953638,0.186298913 31.4896175,0.888527174 L1.86016791,15.678288 C0.270335821,16.4715815 -0.372033582,18.3980598 0.423526119,19.9814402 C1.21972948,21.5648207 3.12624067,21.961788 3.87288246,21.7841467 L31.9382463,7.83705978 L49.0936287,31.2299185" id="Fill-53" fill="#FFFFFF"></path>
            </g>
            <g id="Group-58" transform="translate(0.000000, 0.092989)">
                <mask id="mask-4" fill="white">
                    <use xlink:href="#path-3"></use>
                </mask>
                <g id="Clip-57"></g>
                <path d="M0.431893657,19.9890076 L31.0197481,5.57954022 C32.3096362,4.9715837 33.851194,5.34867065 34.7130504,6.48249674 L61.7556437,43.6736598 L37.5554384,46.4139533 L4.95229478,31.7005076 L0.431893657,19.9890076" id="Fill-56" fill-opacity="0.04" fill="#4A4A4A" mask="url(#mask-4)"></path>
            </g>
            <g id="Group-89" transform="translate(0.000000, 0.092989)">
                <path d="M54.0697388,27.1454511 L35.5292071,1.86395109 C34.6023414,0.599298913 32.8953638,0.186298913 31.4896175,0.888527174 L1.86016791,15.678288 C0.270335821,16.4715815 -0.372033582,18.3980598 0.423526119,19.9814402 C1.21972948,21.5648207 3.12624067,21.961788 3.87288246,21.7841467 L31.9382463,7.83705978 L49.0936287,31.2299185" id="Stroke-59" stroke="#494949" stroke-width="1.5" stroke-linecap="round"></path>
                <g id="Group-64" transform="translate(31.539179, 6.413043)">
                    <line x1="0.399195896" y1="1.42408043" x2="2.08815112" y2="0.517276087" id="Fill-61" fill="#F7F7F7"></line>
                    <line x1="0.399195896" y1="1.42408043" x2="2.08815112" y2="0.517276087" id="Stroke-63" stroke="#494949" stroke-width="1.5" stroke-linecap="round" stroke-linejoin="round"></line>
                </g>
                <g id="Group-68" transform="translate(0.000000, 15.391304)">
                    <path d="M3.55279198,1.31255761 C2.78104757,0.646242391 1.83744683,0.40703587 1.07986287,0.781557609 C-0.0497546642,1.33949239 -0.339400187,3.04856848 0.43170056,4.59795978 C1.20344496,6.14735109 2.74371549,6.95090543 3.87268937,6.39297065 C4.89867817,5.88634022 5.23144869,4.43057935 4.70622481,3.0068837" id="Fill-65" fill="#E6E6E6"></path>
                    <path d="M3.55279198,1.31255761 C2.78104757,0.646242391 1.83744683,0.40703587 1.07986287,0.781557609 C-0.0497546642,1.33949239 -0.339400187,3.04856848 0.43170056,4.59795978 C1.20344496,6.14735109 2.74371549,6.95090543 3.87268937,6.39297065 C4.89867817,5.88634022 5.23144869,4.43057935 4.70622481,3.0068837" id="Stroke-67" stroke="#494949" stroke-width="1.5" stroke-linecap="round" stroke-linejoin="round"></path>
                </g>
                <g id="Group-72" transform="translate(59.216418, 33.989130)">
                    <line x1="0.134588619" y1="0.358104348" x2="4.06089459" y2="5.71235435" id="Fill-69" fill="#F7F7F7"></line>
                    <line x1="0.134588619" y1="0.358104348" x2="4.06089459" y2="5.71235435" id="Stroke-71" stroke="#494949" stroke-width="1.5" stroke-linecap="round"></line>
                </g>
                <g id="Group-76" transform="translate(39.906716, 19.239130)">
                    <path d="M0.594095149,0.255431522 L9.60593284,12.5447467 C9.60593284,12.5447467 11.3444496,14.477638 13.5155037,16.0007359 C13.5155037,16.0007359 16.8593004,18.1907902 21.8489272,19.8658772" id="Fill-73" fill="#F7F7F7"></path>
                    <path d="M0.594095149,0.255431522 L9.60593284,12.5447467 C9.60593284,12.5447467 11.3444496,14.477638 13.5155037,16.0007359 C13.5155037,16.0007359 16.8593004,18.1907902 21.8489272,19.8658772" id="Stroke-75" stroke="#494949" stroke-width="1.5" stroke-linecap="round"></path>
                </g>
                <g id="Group-80" transform="translate(54.710821, 28.217391)">
                    <line x1="0.58843097" y1="0.604878261" x2="0.547880597" y2="0.549084783" id="Fill-77" fill="#FFFFFF"></line>
                    <line x1="0.58843097" y1="0.604878261" x2="0.547880597" y2="0.549084783" id="Stroke-79" stroke="#494949" stroke-width="1.5" stroke-linecap="round"></line>
                </g>
                <g id="Group-84" transform="translate(55.998134, 30.141304)">
                    <line x1="5.25809608" y1="6.80404674" x2="0.628916978" y2="0.491688043" id="Fill-81" fill="#FFFFFF"></line>
                    <line x1="5.25809608" y1="6.80404674" x2="0.628916978" y2="0.491688043" id="Stroke-83" stroke="#494949" stroke-width="1.5" stroke-linecap="round"></line>
                </g>
                <path d="M54.0697388,38.6384587 L63.3023507,95.6465674 C63.3023507,95.6465674 75.1752425,100.755839 76.996791,98.1271326 L78.5776119,44.4166109 C78.5776119,44.4166109 62.8260448,39.2579587 54.0697388,38.6384587" id="Fill-85" fill="#FFFFFF" opacity="0.0764043899"></path>
                <path d="M90.3005961,43.119188 L85.96943,97.8320685 C85.96943,97.8320685 94.078861,94.862188 96.3355215,92.9838076 C98.132611,91.8794815 101.552359,88.9352533 102.319598,84.8302641 L114.223385,23.2079707 C114.223385,23.2079707 106.565158,38.1003402 90.3005961,43.119188" id="Fill-87" fill="#FFFFFF" opacity="0.0764043899"></path>
            </g>
        </g>
        <g id="Group-69" transform="translate(137.000000, 55.000000)">
            <g id="Group-5" transform="translate(0.000000, 53.573500)" fill="#E0E0E0">
                <path d="M10.6341,0.8465 L9.0906,5.51675 L1.0701,27.13775 C0.64035,28.295 0.4116,29.513 0.38835,30.7385 C0.3726,31.547 0.6396,34.14275 0.84285,35.987 C0.9516,36.96875 1.9791,37.56275 2.8821,37.16225 C13.77285,32.33075 42.7551,17.67425 61.5666,7.7615" id="Fill-3"></path>
            </g>
            <g id="Group-8" transform="translate(0.000000, 20.073500)">
                <mask id="mask-6" fill="white">
                    <use xlink:href="#path-5"></use>
                </mask>
                <g id="Clip-7"></g>
                <path d="M64.0004196,14.9162633 C66.9974457,3.04532782 52.8579068,-2.24257963 21.5818027,-0.947459121 L-15.46455,39.921925 L-3.32955,67.193425 L5.4282,63.035425 C41.4793203,42.8269193 61.0033935,26.7871987 64.0004196,14.9162633 Z" id="Fill-6" fill="#FCFCFC" mask="url(#mask-6)"></path>
            </g>
            <path d="M10.6341,54.42 L9.0906,59.09025 L1.0701,80.71125 C0.64035,81.8685 0.4116,83.0865 0.38835,84.312 C0.3726,85.1205 0.6396,87.71625 0.84285,89.5605 C0.9516,90.54225 1.9791,91.13625 2.8821,90.73575 C13.77285,85.90425 42.7551,71.24775 61.5666,61.335" id="Stroke-9" stroke="#494949" stroke-width="1.5" stroke-linecap="round" stroke-linejoin="round"></path>
            <g id="Group-13" transform="translate(12.000000, 0.073500)">
                <mask id="mask-8" fill="white">
                    <use xlink:href="#path-7"></use>
                </mask>
                <g id="Clip-12"></g>
                <path d="M16.694325,-3.636675 C14.495325,-2.512425 10.868325,0.429825 6.744825,19.213575 C24.142575,21.797325 67.144575,41.732325 67.144575,41.732325 C74.629575,37.617075 89.567325,25.593825 84.524325,18.699075 C84.524325,18.699075 34.728075,-12.854175 16.694325,-3.636675" id="Fill-11" fill="#ECECEC" mask="url(#mask-8)"></path>
            </g>
            <g id="Group-16" transform="translate(21.000000, 0.073500)">
                <mask id="mask-10" fill="white">
                    <use xlink:href="#path-9"></use>
                </mask>
                <g id="Clip-15"></g>
                <path d="M2.8239,6.509775 C2.8239,6.509775 -0.1776,16.115775 4.03815,16.881525 C8.25465,17.646525 58.80165,33.730275 58.80165,33.730275 L67.7334,49.349025 L-16.3341,31.662525 L2.8239,6.509775" id="Fill-14" fill-opacity="0.04" fill="#494949" mask="url(#mask-10)"></path>
            </g>
            <g id="Group-19" transform="translate(12.000000, 0.073500)">
                <mask id="mask-12" fill="white">
                    <use xlink:href="#path-11"></use>
                </mask>
                <g id="Clip-18"></g>
                <path d="M66.45585,28.827075 C63.8691,41.538825 70.4346,43.109325 45.17235,55.327575 C20.2431,67.385325 -13.7544,85.931325 -13.7544,85.931325 L-12.5829,94.500075 C10.8541812,81.4440239 27.0598331,72.4411743 36.0340559,67.4915263 C45.7069392,62.1565387 53.1231635,58.8088152 59.443706,55.327575 C62.7149566,53.5258295 67.643588,50.6450795 74.2296,46.685325 C78.57735,44.295075 81.32385,37.942575 82.42935,31.820325 C83.45985,26.113575 80.6841,19.348575 75.01785,20.579325 C72.51285,21.123075 67.1991,25.173825 66.45585,28.827075 Z" id="Fill-17" fill="#DCDCDC" mask="url(#mask-12)"></path>
            </g>
            <g id="Group-26" transform="translate(3.000000, 0.073500)">
                <path d="M62.4165,59.214075 C78.22125,50.873325 83.22975,46.686075 83.22975,46.686075 C88.30875,43.656825 92.0385,35.538825 91.22175,28.812825 C90.741,24.858825 87.82125,21.453825 84.59325,19.891575 C82.64025,18.945825 80.4435,17.946075 78.0705,16.916325 C77.31075,16.586325 76.56525,16.146825 75.77175,15.812325 C74.583,15.310575 73.32675,14.910825 72.0735,14.401575 C68.09925,12.786075 63.837,11.146575 59.51925,9.567825 C57.45225,8.812575 55.5645,7.660575 53.4975,6.942075 C51.2475,6.160575 48.82125,5.816325 46.63425,5.102325 C40.29525,3.031575 36.09975,1.296075 31.36275,0.189075 C30.468,-0.019425 29.517,-0.014175 28.659,0.315825 C19.77825,3.735075 16.98825,16.810575 18.759,20.763825 L11.42175,43.638825 L9.2085,51.189825" id="Stroke-20" stroke="#494949" stroke-width="1.5" stroke-linecap="round" stroke-linejoin="round"></path>
                <path d="M43.20915,26.525625 C36.7059,24.243375 29.90865,22.211625 22.7619,20.595375" id="Fill-22" fill="#FFFFFF"></path>
                <path d="M0.3831,83.55405 C2.4696,82.52955 4.8681,81.2658 5.57235,80.90805 C7.4076,79.9758 10.76235,77.5458 12.60435,76.6278 C14.4921,75.68655 18.5391,74.4123 20.4471,73.5123 C24.21735,71.7333 28.10685,68.8398 31.90785,67.12755 C32.05785,67.06005 35.8401,64.6008 39.29985,64.3533 C39.5886,68.7003 44.86785,66.8748 44.9076,63.81855 C45.2571,61.82955 45.8316,61.10355 47.44035,60.11805 C50.53035,58.2258 55.1016,55.7013 59.63235,53.4588 C61.32135,52.6233 59.65485,60.0078 63.77085,59.4603 C68.5251,58.68105 68.1156,48.05205 70.69635,45.93705 C72.7836,44.22705 74.4921,43.4838 75.59685,42.31755 C76.3071,41.5668 76.48185,40.6653 75.58635,40.2423 C69.4311,37.33605 63.04335,34.3803 56.35035,31.58955" id="Fill-24" fill="#FCFCFC"></path>
            </g>
            <g id="Group-68" transform="translate(3.000000, 20.323500)">
                <path d="M43.20915,6.275625 C36.7059,3.993375 29.90865,1.961625 22.7619,0.345375" id="Stroke-28" stroke="#494949" stroke-width="1.5" stroke-linecap="round" stroke-linejoin="round"></path>
                <path d="M0.3831,63.30405 C2.4696,62.27955 4.8681,61.0158 5.57235,60.65805 C7.4076,59.7258 10.76235,57.2958 12.60435,56.3778 C14.4921,55.43655 18.5391,54.1623 20.4471,53.2623 C24.21735,51.4833 28.10685,48.5898 31.90785,46.87755 C32.05785,46.81005 35.8401,44.3508 39.29985,44.1033 C39.5886,48.4503 44.86785,46.6248 44.9076,43.56855 C45.2571,41.57955 45.8316,40.85355 47.44035,39.86805 C50.53035,37.9758 55.1016,35.4513 59.63235,33.2088 C61.32135,32.3733 59.65485,39.7578 63.77085,39.2103 C68.5251,38.43105 68.1156,27.80205 70.69635,25.68705 C72.7836,23.97705 74.4921,23.2338 75.59685,22.06755 C76.3071,21.3168 76.48185,20.4153 75.58635,19.9923 C69.4311,17.08605 63.04335,14.1303 56.35035,11.33955" id="Stroke-30" stroke="#494949" stroke-width="1.5" stroke-linecap="round" stroke-linejoin="round"></path>
                <path d="M82.626975,0.8049 C83.094225,0.58365 83.883225,-0.01635 85.592475,0.19065" id="Stroke-32" stroke="#494949" stroke-width="1.5" stroke-linecap="round" stroke-linejoin="round"></path>
                <path d="M75.266325,16.57125 C75.096075,14.394 75.363075,12.03375 75.693075,10.4865 C76.383825,7.24425 78.189075,4.308 80.277825,2.41725" id="Stroke-34" stroke="#494949" stroke-width="1.5" stroke-linecap="round" stroke-linejoin="round"></path>
                <path d="M81.078975,8.524875 C81.026475,9.232125 81.354225,9.832125 81.811725,9.866625 C82.268475,9.900375 82.681725,9.355125 82.734975,8.648625 C82.787475,7.941375 82.459725,7.340625 82.002225,7.306875 C81.545475,7.272375 81.131475,7.817625 81.078975,8.524875" id="Fill-36" fill="#494949" opacity="0.04"></path>
                <path d="M81.51645,16.2381 C81.4452,17.19585 81.8892,18.0096 82.5087,18.0561 C83.1282,18.1026 83.68845,17.3631 83.76045,16.40535 C83.8317,15.4476 83.3877,14.63385 82.76745,14.58735 C82.1487,14.54085 81.5877,15.28035 81.51645,16.2381" id="Fill-38" fill="#494949" opacity="0.04"></path>
                <path d="M86.148225,11.7285 C86.127225,12.00675 86.256975,12.24375 86.436975,12.25725 C86.616975,12.27075 86.780475,12.0555 86.800725,11.77725 C86.821725,11.499 86.692725,11.262 86.511975,11.2485 C86.331975,11.235 86.169225,11.45025 86.148225,11.7285" id="Fill-40" fill="#494949" opacity="0.04"></path>
                <path d="M19.837325,39.9986 C19.837325,39.9986 22.241825,35.23685 27.176825,37.3136" id="Stroke-42" stroke="#494949" stroke-width="1.5" stroke-linecap="round" stroke-linejoin="round"></path>
                <path d="M52.3554,21.071775 C51.82215,27.590775 41.07765,32.032275 28.35615,30.992025 C18.39315,29.358525 12.5079,24.859275 13.0404,18.340275 C13.57365,11.821275 17.5659,6.344025 30.28665,7.384275 C43.00815,8.424525 52.88865,14.552775 52.3554,21.071775" id="Fill-54" fill="#494949" opacity="0.04"></path>
                <path d="M22.9644,22.658475 L22.9149,23.716725 C23.27415,26.655975 30.0189,28.423725 33.7104,28.272225 C34.32465,28.247475 34.90065,27.977475 35.3004,27.510975 L38.80665,23.421225 C41.79765,25.095225 47.91465,25.405725 50.64915,22.629975 C52.61565,20.342475 52.9764,14.796225 52.72665,13.122975 C52.4334,11.160975 51.5919,10.782225 49.78815,10.093725 C46.75515,8.934975 41.6394,9.007725 35.8344,8.446725 C28.3179,7.719975 21.77565,6.666975 21.2589,9.453225 C21.2589,9.453225 21.2484,14.100975 21.22665,15.363975 C21.20115,16.839975 22.0164,17.733975 23.4834,18.174975 C24.6534,18.526725 25.7094,19.252725 26.84115,19.212225" id="Fill-56" fill="#E0E0E0"></path>
                <g id="Group-61" transform="translate(21.000000, 7.500000)">
                    <path d="M1.9644,15.158475 L1.9149,16.216725 C2.27415,19.155975 9.0189,20.923725 12.7104,20.772225 C13.32465,20.747475 13.90065,20.477475 14.3004,20.010975 L17.80665,15.921225 C20.79765,17.595225 26.91465,17.905725 29.64915,15.129975 C31.61565,12.842475 31.9764,7.296225 31.72665,5.622975 C31.4334,3.660975 30.5919,3.282225 28.78815,2.593725 C25.75515,1.434975 20.6394,1.507725 14.8344,0.946725 C7.3179,0.219975 0.77565,-0.833025 0.2589,1.953225 C0.2589,1.953225 0.2484,6.600975 0.22665,7.863975 C0.20115,9.339975 1.0164,10.233975 2.4834,10.674975 C3.6534,11.026725 4.7094,11.752725 5.84115,11.712225" id="Fill-58" fill="#E0E0E0"></path>
                    <path d="M1.9644,15.158475 L1.9149,16.216725 C2.27415,19.155975 9.0189,20.923725 12.7104,20.772225 C13.32465,20.747475 13.90065,20.477475 14.3004,20.010975 L17.80665,15.921225 C20.79765,17.595225 26.91465,17.905725 29.64915,15.129975 C31.61565,12.842475 31.9764,7.296225 31.72665,5.622975 C31.4334,3.660975 30.5919,3.282225 28.78815,2.593725 C25.75515,1.434975 20.6394,1.507725 14.8344,0.946725 C7.3179,0.219975 0.77565,-0.833025 0.2589,1.953225 C0.2589,1.953225 0.2484,6.600975 0.22665,7.863975 C0.20115,9.339975 1.0164,10.233975 2.4834,10.674975 C3.6534,11.026725 4.7094,11.752725 5.84115,11.712225" id="Stroke-60" stroke="#494949" stroke-width="1.5" stroke-linecap="round" stroke-linejoin="round"></path>
                </g>
                <path d="M22.9644,22.658475 L22.9149,23.716725 C23.27415,26.655975 30.0189,28.423725 33.7104,28.272225 C34.32465,28.247475 34.90065,27.977475 35.3004,27.510975 L38.80665,23.421225 C41.79765,25.095225 47.91465,25.405725 50.64915,22.629975 C52.61565,20.342475 52.9764,14.796225 52.72665,13.122975 C52.4334,11.160975 51.5919,10.782225 49.78815,10.093725 C46.75515,8.934975 41.6394,9.007725 35.8344,8.446725 C28.3179,7.719975 21.77565,6.666975 21.2589,9.453225 C21.2589,9.453225 21.2484,14.100975 21.22665,15.363975 C21.20115,16.839975 22.0164,17.733975 23.4834,18.174975 C24.6534,18.526725 25.7094,19.252725 26.84115,19.212225" id="Stroke-62" stroke="#494949" stroke-width="1.5" stroke-linecap="round" stroke-linejoin="round"></path>
                <g id="Group-67" transform="translate(21.000000, 2.250000)">
                    <path d="M7.191,11.913825 C4.87275,16.269075 2.22075,16.947825 2.57325,18.120075 C3.08925,19.838325 11.07075,22.775325 12.87525,21.176325 C13.26,20.835075 14.25,19.278825 16.365,16.533075 L16.67325,16.240575 C17.046,15.886575 17.5875,15.814575 18.042,16.047825 C20.02725,17.069325 22.9185,17.634075 24.8595,17.492325 C28.23675,17.245575 30.4785,15.800325 31.533,12.582075 C32.877,7.847325 27.13275,0.825075 15.72975,0.157575 C7.836,-0.305175 2.70525,2.153325 0.546,5.612325 C-0.60975,8.003325 1.116,9.876825 4.89675,11.145075" id="Fill-64" fill="#F7F7F7"></path>
                    <path d="M7.191,11.913825 C4.87275,16.269075 2.22075,16.947825 2.57325,18.120075 C3.08925,19.838325 11.07075,22.775325 12.87525,21.176325 C13.26,20.835075 14.25,19.278825 16.365,16.533075 L16.67325,16.240575 C17.046,15.886575 17.5875,15.814575 18.042,16.047825 C20.02725,17.069325 22.9185,17.634075 24.8595,17.492325 C28.23675,17.245575 30.4785,15.800325 31.533,12.582075 C32.877,7.847325 27.13275,0.825075 15.72975,0.157575 C7.836,-0.305175 2.70525,2.153325 0.546,5.612325 C-0.60975,8.003325 1.116,9.876825 4.89675,11.145075" id="Stroke-66" stroke="#494949" stroke-width="1.5" stroke-linecap="round" stroke-linejoin="round"></path>
                </g>
            </g>
        </g>
        <g id="Group" transform="translate(164.688691, 140.131970)">
            <path d="M4.18582669,2.58494625 L3.49925139,2.29081975 C2.92948633,2.04627456 2.2588779,2.04795529 1.70423934,2.29334083 L0.994133922,2.60847637 C0.175621874,2.97151252 -0.199179331,3.77573842 0.105031513,4.51777758 C0.291591754,4.97661493 0.714293561,5.3455336 1.25716705,5.52453059 L2.3177032,5.87412095 C3.03957368,6.11194324 3.85304356,5.97412396 4.38667308,5.52284987 L4.71273332,5.24721131 C5.01778452,4.99006071 5.20602549,4.65223541 5.24552248,4.28919926 L5.25560681,4.19423842 C5.32871826,3.53287396 4.90349537,2.8933589 4.18582669,2.58494625" id="Fill-7" fill-opacity="0.04" fill="#4A4A4A"></path>
            <path d="M6.19479477,2.25997848 L5.62671043,1.97257487 C5.15694838,1.73475258 4.59978874,1.74315619 4.13590922,1.99442426 L3.54261404,2.3162827 C2.85771946,2.68772246 2.53838212,3.49530981 2.7829273,4.23398752 C2.93419236,4.69030378 3.28126163,5.05502065 3.73001465,5.22729475 L4.60819236,5.56596041 C5.20568934,5.79621944 5.88302067,5.64999655 6.33177368,5.19368029 L6.60573151,4.91552065 C6.86120139,4.6550086 7.02087007,4.31550258 7.05784597,3.95246643 L7.06793031,3.85666523 C7.13515922,3.19530077 6.78808995,2.55998752 6.19479477,2.25997848" id="Fill-9" fill="#E6E6E6"></path>
            <path d="M6.19479477,2.25997848 L5.62671043,1.97257487 C5.15694838,1.73475258 4.59978874,1.74315619 4.13590922,1.99442426 L3.54261404,2.3162827 C2.85771946,2.68772246 2.53838212,3.49530981 2.7829273,4.23398752 C2.93419236,4.69030378 3.28126163,5.05502065 3.73001465,5.22729475 L4.60819236,5.56596041 C5.20568934,5.79621944 5.88302067,5.64999655 6.33177368,5.19368029 L6.60573151,4.91552065 C6.86120139,4.6550086 7.02087007,4.31550258 7.05784597,3.95246643 L7.06793031,3.85666523 C7.13515922,3.19530077 6.78808995,2.55998752 6.19479477,2.25997848 Z" id="Stroke-11" stroke="#494949" stroke-width="1.5" stroke-linecap="round" stroke-linejoin="round"></path>
            <path d="M19.6783101,1.16481944 L18.6589517,0.727831493 C17.8152288,0.366476071 16.8210812,0.368156794 15.9983674,0.7320333 L14.9453945,1.20011463 C13.7319125,1.73794595 13.1764336,2.93041884 13.6268674,4.03129234 C13.905027,4.71114475 14.5310963,5.25822005 15.3344818,5.5229339 L16.9084788,6.04143691 C17.9790993,6.39438872 19.1841776,6.18934053 19.9766384,5.52041282 L20.4606866,5.11283752 C20.9119607,4.73131342 21.1909607,4.22961764 21.249786,3.69178631 L21.2657529,3.55060559 C21.3749999,2.56990378 20.7430481,1.62113571 19.6783101,1.16481944" id="Fill-13" fill-opacity="0.04" fill="#4A4A4A"></path>
            <path d="M22.6573074,0.682620047 L21.8152652,0.256556794 C21.1177652,-0.0963950133 20.2916899,-0.0846299531 19.6042743,0.288490529 L18.7235755,0.766656191 C17.7092592,1.31625258 17.2361357,2.514608 17.5983315,3.60959896 C17.822708,4.28608993 18.3378496,4.82644234 19.0025755,5.08275258 L20.3051357,5.58528872 C21.1917171,5.92647547 22.1951086,5.70966222 22.8606749,5.03233089 L23.2674098,4.61971342 C23.6464128,4.23398752 23.8833948,3.72977065 23.9380183,3.19193932 L23.9523044,3.0507586 C24.0523074,2.06921643 23.5380062,1.12801161 22.6573074,0.682620047" id="Fill-15" fill="#E6E6E6"></path>
            <path d="M22.6573074,0.682620047 L21.8152652,0.256556794 C21.1177652,-0.0963950133 20.2916899,-0.0846299531 19.6042743,0.288490529 L18.7235755,0.766656191 C17.7092592,1.31625258 17.2361357,2.514608 17.5983315,3.60959896 C17.822708,4.28608993 18.3378496,4.82644234 19.0025755,5.08275258 L20.3051357,5.58528872 C21.1917171,5.92647547 22.1951086,5.70966222 22.8606749,5.03233089 L23.2674098,4.61971342 C23.6464128,4.23398752 23.8833948,3.72977065 23.9380183,3.19193932 L23.9523044,3.0507586 C24.0523074,2.06921643 23.5380062,1.12801161 22.6573074,0.682620047 Z" id="Stroke-17" stroke="#494949" stroke-width="1.5" stroke-linecap="round" stroke-linejoin="round"></path>
        </g>
    </g>
</svg>