<svg id="Layer_1" data-name="Layer 1" xmlns="http://www.w3.org/2000/svg" viewBox="0 0 292.4 194.1"><defs><style>.cls-1{fill:#ececec;}.cls-2{fill:#4c4b4c;}.cls-3{fill:#4d4c4c;}.cls-4{fill:#4c4c4c;}.cls-5{fill:#4d4d4d;}.cls-6{fill:#4d4c4d;}.cls-7{fill:#545051;}.cls-8{fill:#565556;}.cls-9{fill:#fff;}.cls-10{fill:#fcfcfc;}.cls-11{fill:#f7f6f6;}.cls-12{opacity:0.5;}.cls-13{fill:#ed2183;}.cls-14{fill:#e8e6e7;}.cls-15{fill:#ebebec;}.cls-16{fill:#eaeaea;}.cls-17{fill:#ebeaeb;}</style></defs><title>7 windows-04-04</title><path class="cls-1" d="M147.66,172.23a5.39,5.39,0,0,1,1.3-.7c7.3-1,7.7-1.4,7.7-9.1,0-14.5,1.2-29,2-43.5.1-2.5,0-4.8-3.3-4.7.7-2.3,2.8-1.9,4.5-2,2.4-.2,4.9-.1,7.8-1.5-3.3-.8-6.5,1-8.9-1.3v-3c1-2.2,3.1-2.3,5.1-2.4a86,86,0,0,0,21.9-4.4c5.3-1.7,6.3-.8,5.6,4.8-2.6,19.3-5.8,38.4-8.6,57.7a9.56,9.56,0,0,1-7.8,8.5,111.27,111.27,0,0,1-20.7,3.1C151.86,173.93,149.46,174.33,147.66,172.23Z"/><path class="cls-2" d="M147.66,172.23c9,.4,17.9-1,26.7-2.9,4.2-.9,6.4-3,7-7.6,2.8-20.6,6-41.1,9.2-62.5-10.4,4.8-21.3,5.4-31.9,7.1-15.8,0-31.6.6-47.1-3a82.89,82.89,0,0,1-12.8-4.1c1.8,12.1,3.6,23.8,5.4,35.6l1.8,12.3c.3,1.7.7,3.7-1.7,3.9-2,.2-2-2-2.3-3.3-1.5-9.5-2.9-19-4.3-28.6-1.1-7.6-2.2-15.1-3.5-22.7-1-6-.1-8.4,5.4-11.2a34,34,0,0,1,9.9-3.3c1.2.9,1.2,2.2.9,3.5-1.7,2.9-5.2,2.5-7.6,4.1-1.1.7-2.6,1.1-2.7,2.6-.1,1.9,1.6,2.3,3,2.8a57.29,57.29,0,0,0,7,2.3,33.38,33.38,0,0,0,4.3,1,138.54,138.54,0,0,0,14.2,2c2.4.8,4.9.4,7.4.6q5.55-.15,11.1,0h7.4a25.18,25.18,0,0,0,5.4-.8c2.1-.2,4.1-.3,6.2-.3,1.8,0,3.4-.8,5.1-.8a30.67,30.67,0,0,0,4.2-.7,26.19,26.19,0,0,0,4-1.1c2.4-.8,4.8-1.5,7-2.4,1.2-.5,2.7-1,2.8-2.5s-1.4-2.1-2.5-2.7a10,10,0,0,1-3.3-2.2c-.2-1.8-.3-3.5,1.9-4.1,2.2,1.1,4.6,2.1,6.7,3.3,3,1.8,4,4.6,3.5,8.1-3.6,23.1-7.3,46.3-10.6,69.4-.7,4.6-3,6.7-6.9,8a93.31,93.31,0,0,1-24,3.9c-13.3.6-26.6.3-39.7-2.9-8.5-2.1-12.3-8.2-10.8-16.7.2-1.1.5-2,1.7-2a2.07,2.07,0,0,1,2.1,1.8,29,29,0,0,1,.9,5.9c-.1,4.4,2.6,6.1,6.3,6.9A109.35,109.35,0,0,0,147.66,172.23Z"/><path class="cls-3" d="M109.46,86.33v-4.2c.1-3.3.2-6.7.1-10,0-2.9.3-6.2,2.4-7.9,4.2-3.4,3.6-7.8,3.6-12.2V34.53c1.2-1.3,2.6-1.2,4-.5,2.2,2.8,1.2,6,1.4,9.1.2,3.8-.1,7.6.6,11.4.7-6.8.5-13.5.5-20.3a8.93,8.93,0,0,1,5.4-6.9c0,9.4.1,18.9.2,28.3,0,1.4-.7,3.2.9,4.1,6.9,3.9,7.4,10.4,7.1,17.3,0,.5.1,1,.1,1.5,1.2,1.3,1.2,2.8,1.2,4.4.3,4.7.1,9.3.1,14,0,1.8,0,3.7-1.4,5.2-2.4.2-4.9.8-7.2-.4.9-1.8,1.8-3.5,1.8-5.6-.1-7.8.2-15.6-.1-23.4-.2-5.2-3.6-8.7-7.8-8.6a3,3,0,0,0-2.7,1c-.8,1.1.4,1.7.9,2.5,3.2,4.9,2.7,8.3-2.2,11.2-2.7,1.6-3.3,3.7-3.4,6.5-.3,4.7,1.3,9.6-1.3,14.1a5.48,5.48,0,0,1-4.1-1.1A12.47,12.47,0,0,1,109.46,86.33Z"/><path class="cls-3" d="M152.66,71.53c-9.4-2.4-9.5-2.4-8-12,1.2-7.2,2.7-14.4,3.8-21.6.5-3.2,1.9-3.9,4.7-3.3,3.3.7,6.6,1.1,9.8,1.9,4.2,1,7.1,3.8,6.5,8.1-1.1,8.2-1.7,16.5-4.7,24.3C161.86,73.23,158.46,73.93,152.66,71.53Z"/><path class="cls-4" d="M178.76,64.73c-10.4-3.6-9.7-1.5-6.2-12.3,2.3-7.1,4.8-14.1,6.9-21.2.9-3,2.4-3.6,5.1-2.6,3.1,1.1,6.3,1.9,9.4,3.1,4.2,1.7,6.7,5,5.4,9.4-2.3,7.6-4.1,15.3-7.6,22.5-1.4,1.7-2.7,3.5-5.1,3.9a7,7,0,0,1-2.9-.1C182.06,66.63,179.86,66.63,178.76,64.73Z"/><path class="cls-3" d="M119.76,34.53l-4.1.1c-6.4-.3-8.2-2.8-8-11.1.2-6.2,1.9-8.9,5.9-9,9.2-.3,13.3,2.4,14,9a26.73,26.73,0,0,1-.1,4c-1.4,2.2-2.5,4.6-4.9,6C122.06,34.83,121.16,35.43,119.76,34.53Z"/><path class="cls-3" d="M152.66,71.53c4.2-.3,8.8,1.2,12.2-2.6-.4,3.5-.8,6.9-1.2,10.4.8,1.6.3,3.2.2,4.8-1.6,5.7-1.3,12-4.4,17.3a7.52,7.52,0,0,1-4.9.7c-1.3-3.9.7-7.5,1.2-11.2.7-5.3,2.6-10.5,2.2-16-3.3,8.8-3.2,18.4-6.2,27.2h-4.4c-1.8-4.2.4-8.1.7-12.1a44.63,44.63,0,0,1,1.3-7.3,7,7,0,0,1,2.1-4.3C151.76,76.23,152.26,73.83,152.66,71.53Z"/><path class="cls-5" d="M158.66,109.43c2.9-.2,5.9-.5,8.8-.7,1.5-.1,2.8.3,2.8,1.9.1,1.4-1.1,1.8-2.3,2-4.2.5-8.4,1.1-12.6,1.7-12.5.3-25,.3-37.4-1.7-1.8-.3-4.8.3-4.2-2.7.6-2.7,3.4-1.4,5.1-1.1a165.53,165.53,0,0,0,37.9,1.1A13.32,13.32,0,0,0,158.66,109.43Z"/><path class="cls-3" d="M178.76,64.73l5,1.6c-3.9,11.4-6.8,23.2-12.1,34.1l-5.1.6c-.7-5.9,2.9-10.7,4.2-16.2a10.71,10.71,0,0,1,2.8-4.2Z"/><path class="cls-3" d="M186.56,66.53l5.2-3-6.4,20-1.5,3.9a15.38,15.38,0,0,1-3.9,11,7.53,7.53,0,0,1-4.4,1,2.39,2.39,0,0,1-.5-2.3c3-9.7,5.9-19.4,9.9-28.7A6,6,0,0,1,186.56,66.53Z"/><path class="cls-6" d="M151.36,78.53c-.3,1.3-.6,2.7-.9,4a17.56,17.56,0,0,1-14.7.1v-4Z"/><path class="cls-7" d="M173.46,80.53a6,6,0,0,1-1.7,4c-3.2,1.5-6.2.7-9.1-1.1a5.69,5.69,0,0,1,.9-4Z"/><path class="cls-8" d="M110.86,109.43a2,2,0,0,1-2.2,1.8,1.85,1.85,0,0,1-.7-.2c-1.2-.3-2.8-.4-2.5-2.3s1.5-1.9,2.9-1.6S111,107.53,110.86,109.43Z"/><path class="cls-9" d="M113.66,99.43v-13c-.1-4-.7-7.5,4.9-9.3,5.1-1.7,3.8-7.3-2.5-11.3a7.49,7.49,0,0,1,9.1-3c3.7,1.2,6.3,3.9,6.4,8,.2,9.1,0,18.3.1,27.4,0,2.5-1.1,3.2-3.2,3.3A54,54,0,0,1,113.66,99.43Z"/><path class="cls-9" d="M186.56,66.53c-3.7,11-7.3,21.9-11,32.9a6.52,6.52,0,0,1-3.9,1c3.3-11.6,6.2-23.4,12.1-34.1Z"/><path class="cls-9" d="M151.76,102.23c-.2-8.1,2-15.8,3.6-23.6.4-2-1.4-7.1,3.5-5.8,3.3.8.8,4.6.5,6.7-1.3,7.7-3.1,15.2-4.8,22.8Z"/><path class="cls-9" d="M119.76,34.53l2.9-1.1c2.3,4.9.5,10,1,15,.2,2.3,0,4.6,0,6.9,0,1.5,0,3.1-2.2,3-2-.2-1.7-1.7-1.7-3C119.66,48.43,119.66,41.43,119.76,34.53Z"/><path class="cls-9" d="M117.46,72.13c-.1,1.3-.7,2-1.8,2a1.62,1.62,0,0,1-1.6-1.4,1.7,1.7,0,0,1,1.3-2h.2C116.66,70.53,117.16,71.43,117.46,72.13Z"/><path class="cls-10" d="M154.76,47.33c1-.1,3.2,1.1,3.8-1.2.6-2.8-1.9-2.4-3.6-2.9-1.3-.4-3.3-.1-2.6-2.6.5-2,1.9-1.5,3.2-1.3,2.1.3,4.3.6,6.4,1.1,2.9.7,4.2,2.6,3.6,5.5-1.1,5.7-2.3,11.4-3.2,17.1-.6,4.1-2.7,5.3-6.6,4.4a55.83,55.83,0,0,0-5.9-.9c-1.2-.2-2.3-.2-1.9-2,.4-1.6,1.1-2.3,2.8-1.8a14.68,14.68,0,0,0,2.9.5,1.76,1.76,0,0,0,2.1-1.5v-.1a1.71,1.71,0,0,0-1.3-2.2h-.1c-1.3-.3-2.6-.7-3.9-.9-1.5-.3-1-1.4-1-2.3.1-1.2.7-1.8,2-1.3a3.55,3.55,0,0,0,1,.2c1.7.1,4.1,1.2,4.7-1.2.7-2.7-2.1-2.3-3.7-2.8-1.2-.4-3.3,0-2.8-2.5S152.86,47.23,154.76,47.33Z"/><path class="cls-10" d="M184.66,62.23l-8.7-2.8c-1.6-.5-.8-1.5-.6-2.4s.5-1.7,1.6-1.4c.6.2,1.2.5,1.9.7,1.6.3,3.8,1.9,4.6-.9.6-2.2-1.7-2.4-3.2-3s-3.2-.6-2.5-2.8,2.4-1.3,3.7-.9c1.6.4,3.4,1.7,4.3-.6,1-2.7-1.7-2.7-3.2-3.4-1.2-.6-3.2-.2-2.3-2.7.8-2.3,2.1-1.3,3.5-.9,1.6.4,4,1.8,4.6-.8s-2.1-2.4-3.6-3.1c-1.1-.5-2.7-.6-2.1-2.6.6-2.4,2.1-1.4,3.5-1,1,.3,1.9.6,2.8.9,7.2,2.3,7.5,2.8,5.1,9.9-1.6,4.7-3.1,9.5-4.7,14.1C188.76,60.43,187.76,62.43,184.66,62.23Z"/><path class="cls-11" d="M112.56,28.13c-2.2-7.9.1-11.1,6.5-9.6,3,.7,4.4,2.9,4.5,5.8a5.79,5.79,0,0,1-3.7,5.9c-1.4.5-2.9.9-2.5-1.9.3-1.9,1.5-5.1-1.3-5.5C112.36,22.13,114.46,26.33,112.56,28.13Z"/><g class="cls-12"><path class="cls-13" d="M135.76,78.53a7.57,7.57,0,0,1-.1-1.5c.3-6.8-.1-13.3-7.1-17.3-1.6-.9-.9-2.7-.9-4.1-.1-9.4-.2-18.8-.2-28.2-1.4,2.2-2.5,4.6-4.9,6,2.2,4.9.5,10,1,15,.2,2.3,0,4.6,0,6.9,0,1.5,0,3.1-2.2,3-2-.1-1.7-1.7-1.7-3,0-6.9,0-13.9.1-20.8l-4,.1V52c0,4.4.6,8.8-3.6,12.2-2.1,1.7-2.4,5-2.4,7.9,0,3.3-.1,6.7-.1,10v4.2a12.16,12.16,0,0,0,.1,12.1,6.69,6.69,0,0,0,4.1,1.1h0v-13c-.1-4-.7-7.5,4.9-9.3,5.1-1.7,3.8-7.3-2.5-11.3a7.49,7.49,0,0,1,9.1-3c3.7,1.2,6.3,3.9,6.4,8,.2,9.1,0,18.3.1,27.4,0,2.5-1.1,3.2-3.2,3.3a.1.1,0,0,1-.1.1c2.3,1.3,4.8.7,7.2.4,1.4-1.5,1.4-3.3,1.4-5.2,0-4.7.2-9.3-.1-14C137,81.33,137,79.73,135.76,78.53Zm-18.4-6.4c-.1,1.3-.7,2-1.8,2a1.62,1.62,0,0,1-1.6-1.4,1.7,1.7,0,0,1,1.3-2h.2C116.56,70.53,117.06,71.33,117.36,72.13Z"/><path class="cls-13" d="M164.56,69.13c0-.1.1-.1.1-.2,3-7.8,3.5-16.1,4.7-24.3.6-4.4-2.3-7.1-6.5-8.1-3.2-.8-6.5-1.2-9.8-1.9-2.8-.6-4.2.2-4.7,3.3-1.1,7.2-2.6,14.4-3.8,21.6-1.5,9.5-1.4,9.5,8,12C156.66,71.23,161.16,72.63,164.56,69.13Z"/><path class="cls-13" d="M199.26,41c1.3-4.4-1.2-7.7-5.4-9.4-3.1-1.2-6.3-2-9.4-3.1-2.7-.9-4.2-.3-5.1,2.7-2.1,7.1-4.6,14.2-6.8,21.2-3.5,10.8-4.2,8.7,6.2,12.3l5,1.6v.1l2.8.2,5.2-3h0C195.26,56.33,197,48.53,199.26,41Z"/><path class="cls-13" d="M122.56,33.33h0c2.4-1.3,3.5-3.7,4.9-5.9h0c.1-1.3.1-2.7.1-4-.7-6.7-4.8-9.3-14-9-4,.1-5.8,2.8-6,9-.2,8.3,1.6,10.8,8,11.1h0l4-.1Z"/><path class="cls-13" d="M164.56,69.13c-3.4,3.5-7.9,2.1-12,2.4-.4,2.3-.8,4.6-1.3,7a7.31,7.31,0,0,0-2.1,4.3,44.63,44.63,0,0,0-1.3,7.3c-.3,4-2.5,8-.7,12.1h4.4c-.2-8.1,2-15.8,3.6-23.6.4-2-1.4-7.1,3.5-5.8,3.3.9.8,4.6.5,6.7-1.3,7.7-3.1,15.2-4.8,22.8a8.21,8.21,0,0,0,4.9-.7c3.2-5.3,2.8-11.6,4.4-17.3.1-1.6.7-3.2-.2-4.8.4-3.5.8-6.9,1.2-10.4C164.76,69,164.66,69,164.56,69.13Z"/><path class="cls-13" d="M183.76,66.33h0l-5-1.6-5.3,15.9a11.91,11.91,0,0,0-2.8,4.2c-1.2,5.4-4.8,10.3-4.2,16.2l5.1-.6C175,88.73,177.86,76.93,183.76,66.33Z"/><path class="cls-13" d="M175.46,99.33a7.53,7.53,0,0,0,4.4-1,15.38,15.38,0,0,0,3.9-11l1.5-3.9,6.4-20h0l-5.2,3C182.86,77.43,179.16,88.43,175.46,99.33Z"/><path class="cls-13" d="M131.66,98.13c-.1-9.1,0-18.3-.1-27.4-.1-4.1-2.7-6.8-6.4-8a7.46,7.46,0,0,0-9.1,3c6.3,4,7.6,9.6,2.5,11.3-5.6,1.8-5,5.3-4.9,9.3v13h0a52.93,52.93,0,0,0,14.8,2.1h0C130.56,101.33,131.66,100.63,131.66,98.13Z"/><path class="cls-13" d="M186.46,66.43l-2.8-.2h0c-5.9,10.7-8.7,22.4-12.1,34h0a6.71,6.71,0,0,0,3.9-1C179.16,88.43,182.86,77.43,186.46,66.43Z"/><path class="cls-13" d="M158.76,72.73c-4.9-1.3-3.1,3.8-3.5,5.8-1.6,7.8-3.8,15.5-3.6,23.6h0l2.8-.1c1.6-7.6,3.5-15.1,4.8-22.8C159.56,77.33,162,73.63,158.76,72.73Z"/><path class="cls-13" d="M119.66,34.53c0,6.9-.1,13.9-.1,20.8,0,1.3-.3,2.9,1.7,3,2.2.1,2.2-1.5,2.2-3,0-2.3.2-4.6,0-6.9-.5-5,1.3-10.1-1-15h0Z"/><path class="cls-13" d="M115.46,70.73h-.2a1.7,1.7,0,0,0-1.3,2,1.62,1.62,0,0,0,1.6,1.4c1.1,0,1.7-.7,1.8-2C117.06,71.33,116.56,70.53,115.46,70.73Z"/></g><path class="cls-14" d="M180,98.43c1.3-3.7,2.6-7.3,3.9-11,2.8,1.2,7.3,1.6,7.3,5s-4.5,3.8-7.3,5C182.56,97.83,181.26,98.13,180,98.43Z"/><path class="cls-15" d="M135.76,82.63l14.7-.1c-1.1,6.6-2.2,13.2-3.2,19.8l-11.6-.2C135.76,95.53,135.76,89.13,135.76,82.63Z"/><path class="cls-16" d="M109.46,86.33v12a25.9,25.9,0,0,1-9.3-3.3c-3-1.7-3.3-3.6-.1-5.4A27.09,27.09,0,0,1,109.46,86.33Z"/><path class="cls-17" d="M162.76,83.43l9.1,1.1c-1,5.7-3.4,11-5.3,16.4l-7.2.5A121.56,121.56,0,0,1,162.76,83.43Z"/></svg>