<svg id="Layer_1" data-name="Layer 1" xmlns="http://www.w3.org/2000/svg" viewBox="0 0 292.4 194.1"><defs><style>.cls-1{fill:#4b4b4b;}.cls-2{fill:#fff;}.cls-3{fill:#ececec;}.cls-4{fill:#4d4d4d;}.cls-5{fill:#eaeaea;}.cls-6{opacity:0.5;}.cls-7{fill:#ed2183;}</style></defs><title>7 windows-04-04</title><path class="cls-1" d="M226.6,78.27c0,20.3.1,40.6-.1,60.9-.1,4.4,1.3,5.6,5.3,5a10.45,10.45,0,0,1,2.5,0c1.7.2,4.3-.7,4.1,2.1s-2.7,1.9-4.4,1.9H47.2c-1.7,0-4.4.8-4.4-1.9,0-3.1,2.9-2,4.6-2.1,7.1-.2,7.1-.1,7.1-7.5V78.27c1.4-1.4,2.8-1.3,4.3-.3,1.4,2,1.1,4.2,1.1,6.4.3,12.5,0,24.9.1,37.4,0,6.5.3,6.7,6.8,6.7H93.7c5.8,0,6.1-.4,6.1-6.3.1-12.5-.1-24.9.1-37.4a27.22,27.22,0,0,1,.4-6.4c1.3-2.2,1.9-5.7,5.9-3.4a11.68,11.68,0,0,1,.7,4.9c-.2,18.6,0,37.3-.1,55.9,0,2.1-.6,4.4,1.4,6,5.1,1.6,10.2.8,15.3.6,3.3-.1,3.2-2.8,3.3-5.1.1-7.5,0-15,0-22.4,0-1.8,0-3.7.1-5.5.4-4.1,2.6-6.4,6.7-6.6a86.91,86.91,0,0,1,12.5,0c5.4.3,7.4,2.3,7.6,7.8.3,8.3.1,16.6.1,24.9,0,6.9.3,7.3,7.4,7.1,3.8-.1,7.6.8,11.3-.9,1.9-1.7,1.3-4,1.3-6.1,0-18.3.1-36.5,0-54.8a11.68,11.68,0,0,1,.7-4.9c3.5-2.3,4.2.9,5.7,2.7,1.3,7.7.4,15.5.6,23.2.1,6.9.1,13.9,0,20.8-.1,4.1,1.3,6.4,5.6,6,7.8-.2,15.6,0,23.4-.1,12-.1,10.8,1.2,10.9-11.1.1-11-.2-21.9.1-32.9,0-2.2-.3-4.5,1.1-6.5C223.8,77,225.2,76.77,226.6,78.27Z"/><path class="cls-1" d="M58.6,78.27h-4c-2.5-.9-6.7,1.6-7.5-1.8-.8-3.1,3.5-3.9,5.7-5.3,10.5-7,21.2-13.7,31.8-20.6a13.76,13.76,0,0,1,8.3-2.5c8.5.2,17-.4,25.4.2,7.1.5,12.3-1.5,17.1-6.6s5.4-5,10.2.1a18.44,18.44,0,0,0,16.2,6.4c8.8-.6,17.6,0,26.4-.2a14.06,14.06,0,0,1,8.4,2.5c11.1,7.3,22.4,14.4,33.5,21.6,1.7,1.1,4.8,1.7,4.1,4.3-.7,2.8-3.7,1.3-5.6,1.6-.7.1-1.3.1-2,.2h-4c-2,1.6-4.4,1.3-6.6,1.3H189.8c-1,0-2.2-.5-2.9,0-4.4,2.9-4.3,3-7.3-1.2l-3.9-3.5c-7.5-3.5-12.5-10.2-18.6-15.5-4.6-4-9.5-7.8-13.6-12.4-2.1-2.3-3.7-1.6-5.9.2-9.3,7.9-18,16.6-27.4,24.5-1.4,1.1-2.3,2.9-4.5,2.6a10.25,10.25,0,0,0-4.1,3.9c-3.1,5.1-3.2,5.2-8.7,2.3a12.11,12.11,0,0,0-5.3-.9H64.8C62.6,79.47,60.4,79.67,58.6,78.27Z"/><path class="cls-2" d="M174.6,143.87c-6.1.1-12.3,0-18.4.3-2.8.1-3.7-.7-3.6-3.5.2-10,.1-19.9.1-29.9,0-5.6-1-6.6-6.8-6.6H135.4c-5.8,0-6.7,1-6.8,6.6,0,10-.1,19.9,0,29.9,0,2.9-.8,3.7-3.6,3.6-6.1-.2-12.3-.2-18.4-.2-1-1.9-.5-3.9-.5-5.9-.1-17.5,0-35-.1-52.4a9.58,9.58,0,0,1,3.3-7.9c8.5-7.8,17.2-15.2,25.5-23.1,4.6-4.4,6.4-4.1,11,.2,8.5,8,17.4,15.5,25.9,23.5,2.1,1.9,3.5,3.7,3.5,6.8-.1,18.8,0,37.6,0,56.4A3.87,3.87,0,0,1,174.6,143.87Z"/><path class="cls-2" d="M101.5,84.07c.1,14.3.1,28.6.2,43,0,2.4-.7,3.1-3.1,3.1-12.3-.1-24.7-.1-37,0-2.4,0-3.1-.7-3.1-3.1.1-14.3.2-28.6.2-43,1.6-1.6,3.6-1.6,5.6-1.6,11.3,0,22.6-.4,33.9.4A4.79,4.79,0,0,1,101.5,84.07Z"/><path class="cls-2" d="M222.4,83.07c.1,14.3.1,28.6.2,43,0,2.4-.7,3.1-3.1,3.1-11-.2-22-.2-33-.2-1.6-1.6-1.6-3.6-1.6-5.6-.1-11.5-.1-22.9,0-34.4.1-6.1,1.3-7.3,7.4-7.4,8.1-.1,16.3-.1,24.4,0C218.8,81.47,220.9,81.47,222.4,83.07Z"/><path class="cls-3" d="M148.6,126.07c0,5-.1,10,0,14.9.1,2.4-.7,3-3.1,3.1-13,.6-13,.7-13-12.1,0-7,.1-14,0-20.9,0-2.4.7-3,3.1-3.1,13-.6,13-.7,13,12.1Z"/><path class="cls-2" d="M80.1,134.07h19a2,2,0,0,1,2.6,1.2,2.08,2.08,0,0,1,.1,1.1v5.4a2.7,2.7,0,0,1-.3,1.5,2.31,2.31,0,0,1-2.2.7H60.6a2.08,2.08,0,0,1-1.3-.3,2.19,2.19,0,0,1-.7-1.7,50.45,50.45,0,0,1,0-5.5c0-.7-.1-1.4.5-1.9a2.62,2.62,0,0,1,1.9-.5Z"/><path class="cls-2" d="M185.8,134.47l.1-.1a5.54,5.54,0,0,1,1.8-.2l31.2-.1a2.9,2.9,0,0,1,2.4.7,3.66,3.66,0,0,1,.4,2.3,30.85,30.85,0,0,0,0,4.3,2.93,2.93,0,0,1-.4,2.2,2.51,2.51,0,0,1-1.9.5l-32.8-.2a1.49,1.49,0,0,1-.9-.2,2,2,0,0,1-.6-.7,9,9,0,0,1-.9-4.6C184.2,137.07,184.4,135.17,185.8,134.47Z"/><path class="cls-2" d="M157.3,52.07h32.9a4.9,4.9,0,0,1,2.8.9c10.6,6.7,21.1,13.5,32.9,21H182.5a3.73,3.73,0,0,1-2.6-1.2Z"/><path class="cls-2" d="M123.4,52.07c-7.6,7.2-14.6,13.6-21.4,20.1a6.8,6.8,0,0,1-4.9,2c-13.5-.1-26.9,0-41.8,0l33.8-21.7c.8-.5,1.9-.3,2.9-.3C102.2,52.07,112.3,52.07,123.4,52.07Z"/><path class="cls-4" d="M140.5,64.07a12,12,0,1,1-11.9,12.2A12.39,12.39,0,0,1,140.5,64.07Z"/><path class="cls-1" d="M92.6,102.87v12c0,3.5-1.7,5.2-5.2,5.2H73.9c-3.4,0-5.3-1.5-5.3-5.1V91c0-3.2,1.7-4.9,4.9-5h14c3.5,0,5.1,1.9,5.1,5.3Z"/><path class="cls-1" d="M212.6,102v11.5c0,3.8-1.5,5.6-5.3,5.6H193.8c-3.5,0-5.2-1.7-5.2-5.2V90.37c0-3.5,1.5-5.3,5.1-5.3h14c3.3,0,4.9,1.7,4.9,4.9Z"/><path class="cls-5" d="M140.5,68.07a8,8,0,1,1-7.9,8.1v-.1A8.14,8.14,0,0,1,140.5,68.07Z"/><path class="cls-3" d="M78.6,103.57c0,3.1-.1,6.3,0,9.5.1,2.3-.6,3.1-3,3.1s-3.1-.8-3.1-3.1c.1-6.6.1-13.3,0-19.9-.1-2.3.6-3.1,3-3.1s3.2.8,3.1,3.1C78.5,96.57,78.6,100.07,78.6,103.57Z"/><path class="cls-3" d="M88.6,103.07c0,3.3-.1,6.6,0,10,.1,2.4-.7,3.1-3.1,3.1s-3-.9-3-3.2c.1-6.6.1-13.3,0-19.9-.1-2.4.7-3.1,3.1-3.1s3.1.9,3,3.2C88.5,96.47,88.6,99.77,88.6,103.07Z"/><path class="cls-3" d="M192.6,103.17c0-3.3.1-6.7,0-10-.1-2.4.6-3.1,3.1-3.1s3.1.9,3,3.2c-.2,3.3,0,6.7,0,10,0,1.4.2,2.8,2,2.8s2-1.4,2-2.8c0-3.3.1-6.7,0-10-.1-2.3.5-3.2,3-3.2s3.1.8,3.1,3.1c-.1,6.6-.1,13.3,0,20,0,1.9-.2,3.2-2.6,3-1.9-.1-3.8.3-3.4-2.7.2-1.6-.2-3.3-2.2-3.1-1.6.1-1.9,1.7-1.7,3.1.4,2.9-1.5,2.5-3.4,2.7-2.4.2-2.7-1-2.6-3C192.7,109.77,192.6,106.47,192.6,103.17Z"/><rect class="cls-3" x="179.4" y="134.27" width="7.4" height="9.6"/><g class="cls-6"><path class="cls-7" d="M230.2,72.17c-11.1-7.3-22.4-14.4-33.5-21.6a13.86,13.86,0,0,0-8.4-2.5c-8.8.2-17.7-.4-26.4.2a18.44,18.44,0,0,1-16.2-6.4c-4.8-5.1-5.3-5.2-10.2-.1s-10.1,7.1-17.1,6.6c-8.4-.7-17,0-25.4-.2a13.56,13.56,0,0,0-8.3,2.5c-10.6,6.9-21.3,13.6-31.8,20.6-2.2,1.5-6.5,2.2-5.7,5.3.9,3.4,5,.9,7.5,1.8h4c1.8,1.5,4,1.3,6.2,1.3H87.7a12.11,12.11,0,0,1,5.3.9c5.5,2.9,5.6,2.9,8.7-2.3a11.81,11.81,0,0,1,4.1-3.9c2.2.3,3.2-1.5,4.5-2.6,9.4-7.9,18.1-16.6,27.4-24.5,2.1-1.8,3.8-2.5,5.9-.2,4.1,4.6,9,8.4,13.6,12.4,6.1,5.3,11.1,11.9,18.6,15.5l3.9,3.5c3,4.2,3,4.1,7.3,1.2.7-.5,1.9,0,2.9,0h26.2c2.3,0,4.6.3,6.6-1.3h4a13.55,13.55,0,0,0,2-.2c2-.3,5,1.2,5.7-1.6S231.9,73.27,230.2,72.17Zm-128.1,0a6.8,6.8,0,0,1-4.9,2c-13.5-.1-26.9,0-41.8,0l33.8-21.7c.8-.5,1.9-.3,2.9-.3,10.1-.1,20.3-.1,31.3-.1C115.8,59.27,108.9,65.67,102.1,72.17ZM182.6,74a3.73,3.73,0,0,1-2.6-1.2l-22.6-20.6h32.9a4.9,4.9,0,0,1,2.8.9c10.6,6.7,21.2,13.5,32.9,21H182.6Z"/><path class="cls-7" d="M190.3,52.07H157.4L180,72.67a3.73,3.73,0,0,0,2.6,1.2H226c-11.8-7.5-22.3-14.3-32.9-21A9.85,9.85,0,0,0,190.3,52.07Z"/><path class="cls-7" d="M92.1,52.17a6.66,6.66,0,0,0-2.9.3c-11,6.9-21.8,14-33.8,21.7,14.9,0,28.3-.1,41.8,0a7,7,0,0,0,4.9-2c6.8-6.5,13.8-12.9,21.4-20.1C112.4,52.07,102.3,52.07,92.1,52.17Z"/></g><path class="cls-3" d="M101.5,84.07H58.8l-.1-5.9,32.7-.1c.8,0,2.3-.1,2.4.2,2.8,7.7,5.2.3,7.8-.1C101.5,80.17,101.5,82.07,101.5,84.07Z"/><path class="cls-3" d="M174.6,143.77V90.47a18.21,18.21,0,0,0-1-7.3c-1.2-2.7-3.5-4.7-5.8-6.6a296.12,296.12,0,0,1-22.6-20.8c-1.5-1.5-3.3-3.2-5.4-2.9a6.31,6.31,0,0,0-3.3,2l-25.6,23.3a9.94,9.94,0,0,0-4.3,9.5l.1,56.2c-.9-.4-1-1.6-1-2.6V75.77c0-.5-.2-1.2.2-1.6,1.8-1.7,3.7-3.3,5.6-5l11.1-10,11.1-10,5.1-4.6a3.77,3.77,0,0,1,1.5-.9,2.61,2.61,0,0,1,2.1,1.1l31.2,28.5a4.47,4.47,0,0,1,1.6,2,7.61,7.61,0,0,1,.3,2.1v63.5A3.32,3.32,0,0,1,174.6,143.77Z"/><path class="cls-3" d="M222.4,83.07c-10.5,0-20.9.1-31.4-.1-3.5-.1-4.6,1.1-4.5,4.6.2,13.8.1,27.6.1,41.3-1.3.1-2.7,0-4,.2-2.6.4-3.4-.7-3.4-3.3.2-16.1.2-32.3.2-48.4,1.2.9,2.3,1.8,3.5,2.8s2.7,1.2,2.9,0c.7-4.4,3.9-2.9,6.3-2.9,10.1-.1,20.3,0,30.4.1C222.5,79.17,222.5,81.17,222.4,83.07Z"/></svg>