<?xml version="1.0" encoding="UTF-8" standalone="no"?>
<svg
   xmlns:dc="http://purl.org/dc/elements/1.1/"
   xmlns:cc="http://creativecommons.org/ns#"
   xmlns:rdf="http://www.w3.org/1999/02/22-rdf-syntax-ns#"
   xmlns:svg="http://www.w3.org/2000/svg"
   xmlns="http://www.w3.org/2000/svg"
   xmlns:sodipodi="http://sodipodi.sourceforge.net/DTD/sodipodi-0.dtd"
   xmlns:inkscape="http://www.inkscape.org/namespaces/inkscape"
   height="194.10001"
   width="292.39999"
   inkscape:version="1.0 (4035a4fb49, 2020-05-01)"
   sodipodi:docname="Single Home-01.svg"
   xml:space="preserve"
   viewBox="0 0 292.4 194.1"
   y="0px"
   x="0px"
   id="Layer_1"
   version="1.1"><metadata
   id="metadata61"><rdf:RDF><cc:Work
       rdf:about=""><dc:format>image/svg+xml</dc:format><dc:type
         rdf:resource="http://purl.org/dc/dcmitype/StillImage" /><dc:title>Single Home</dc:title></cc:Work></rdf:RDF></metadata><defs
   id="defs59" /><sodipodi:namedview
   inkscape:current-layer="Layer_1"
   inkscape:window-maximized="0"
   inkscape:window-y="0"
   inkscape:window-x="3048"
   inkscape:cy="331.0164"
   inkscape:cx="113.84999"
   inkscape:zoom="1.0571326"
   showgrid="false"
   id="namedview57"
   inkscape:window-height="1048"
   inkscape:window-width="1423"
   inkscape:pageshadow="2"
   inkscape:pageopacity="0"
   guidetolerance="10"
   gridtolerance="10"
   objecttolerance="10"
   borderopacity="1"
   bordercolor="#666666"
   pagecolor="#ffffff" />
<style
   id="style2"
   type="text/css">
	.st0{fill:#4B4B4B;}
	.st1{fill:#FFFFFF;}
	.st2{fill:#ECECEC;}
	.st3{fill:#4D4D4D;}
	.st4{fill:#EAEAEA;}
	.st5{opacity:0.5;}
	.st6{fill:#ED2183;}
</style>
<title
   id="title4">Single Home</title>
<path
   id="path6"
   d="m 231.38247,95.308645 c 0,20.300005 0.1,40.600005 -0.1,60.900005 -0.1,4.4 1.3,5.6 5.3,5 0.8,-0.1 1.7,-0.1 2.5,0 1.7,0.2 4.3,-0.7 4.1,2.1 -0.2,2.8 -2.7,1.9 -4.4,1.9 -62.3,0 -124.5,0 -186.800002,0 -1.7,0 -4.4,0.8 -4.4,-1.9 0,-3.1 2.9,-2 4.6,-2.1 7.1,-0.2 7.1,-0.1 7.1,-7.5 0,-19.5 0,-39 0,-58.400005 1.4,-1.4 2.8,-1.3 4.3,-0.3 1.4,2 1.1,4.2 1.1,6.400005 0.3,12.5 0,24.9 0.1,37.4 0,6.5 0.3,6.7 6.8,6.7 9,0 18,0 26.9,0 5.800002,0 6.100002,-0.4 6.100002,-6.3 0.1,-12.5 -0.1,-24.9 0.1,-37.4 -0.1,-2.200005 0,-4.300005 0.4,-6.400005 1.3,-2.2 1.9,-5.7 5.9,-3.4 0.6,1.6 0.8,3.2 0.7,4.9 -0.2,18.600005 0,37.300005 -0.1,55.900005 0,2.1 -0.6,4.4 1.4,6 5.1,1.6 10.2,0.8 15.3,0.6 3.3,-0.1 3.2,-2.8 3.3,-5.1 0.1,-7.5 0,-15 0,-22.4 0,-1.8 0,-3.7 0.1,-5.5 0.4,-4.1 2.6,-6.4 6.7,-6.6 4.1,-0.3 8.3,-0.3 12.5,0 5.4,0.3 7.4,2.3 7.6,7.8 0.3,8.3 0.1,16.6 0.1,24.9 0,6.9 0.3,7.3 7.4,7.1 3.8,-0.1 7.6,0.8 11.3,-0.9 1.9,-1.7 1.3,-4 1.3,-6.1 0,-18.3 0.1,-36.5 0,-54.800005 -0.1,-1.7 0.1,-3.3 0.7,-4.9 3.5,-2.3 4.2,0.9 5.7,2.7 1.3,7.700005 0.4,15.500005 0.6,23.200005 0.1,6.9 0.1,13.9 0,20.8 -0.1,4.1 1.3,6.4 5.6,6 7.8,-0.2 15.6,0 23.4,-0.1 12,-0.1 10.8,1.2 10.9,-11.1 0.1,-11 -0.2,-21.9 0.1,-32.9 0,-2.200005 -0.3,-4.500005 1.1,-6.500005 1.9,-1 3.3,-1.2 4.7,0.3 z"
   class="st0" />
<path
   id="path8"
   d="m 63.382468,95.308645 h -4 c -2.5,-0.9 -6.7,1.6 -7.5,-1.8 -0.8,-3.1 3.5,-3.9 5.7,-5.3 10.5,-7 21.2,-13.7 31.8,-20.6 2.4,-1.7 5.4,-2.6 8.3,-2.5 8.500002,0.2 17.000002,-0.4 25.400002,0.2 7.1,0.5 12.3,-1.5 17.1,-6.6 4.8,-5.1 5.4,-5 10.2,0.1 4.5,4.9 9.5,6.9 16.2,6.4 8.8,-0.6 17.6,0 26.4,-0.2 3,-0.1 5.9,0.8 8.4,2.5 11.1,7.3 22.4,14.4 33.5,21.6 1.7,1.1 4.8,1.7 4.1,4.3 -0.7,2.8 -3.7,1.3 -5.6,1.6 -0.7,0.1 -1.3,0.1 -2,0.2 h -4 c -2,1.6 -4.4,1.3 -6.6,1.3 -8.7,0 -17.5,0 -26.2,0 -1,0 -2.2,-0.5 -2.9,0 -4.4,2.9 -4.3,3 -7.3,-1.2 l -3.9,-3.5 c -7.5,-3.5 -12.5,-10.2 -18.6,-15.5 -4.6,-4 -9.5,-7.8 -13.6,-12.4 -2.1,-2.3 -3.7,-1.6 -5.9,0.2 -9.3,7.9 -18,16.6 -27.4,24.5 -1.4,1.1 -2.3,2.9 -4.5,2.6 -1.7,0.9 -3.1,2.2 -4.1,3.9 -3.1,5.100005 -3.2,5.200005 -8.700002,2.3 -1.7,-0.7 -3.5,-1 -5.3,-0.9 -7.6,0 -15.2,0 -22.8,0 -2.2,0 -4.4,0.2 -6.2,-1.2 z"
   class="st0" />
<path
   id="path10"
   d="m 179.38247,160.90865 c -6.1,0.1 -12.3,0 -18.4,0.3 -2.8,0.1 -3.7,-0.7 -3.6,-3.5 0.2,-10 0.1,-19.9 0.1,-29.9 0,-5.6 -1,-6.6 -6.8,-6.6 -3.5,0 -7,0 -10.5,0 -5.8,0 -6.7,1 -6.8,6.6 0,10 -0.1,19.9 0,29.9 0,2.9 -0.8,3.7 -3.6,3.6 -6.1,-0.2 -12.3,-0.2 -18.4,-0.2 -1,-1.9 -0.5,-3.9 -0.5,-5.9 -0.1,-17.5 0,-35 -0.1,-52.4 -0.2,-3.000005 1,-5.900005 3.3,-7.900005 8.5,-7.8 17.2,-15.2 25.5,-23.1 4.6,-4.4 6.4,-4.1 11,0.2 8.5,8 17.4,15.5 25.9,23.5 2.1,1.9 3.5,3.7 3.5,6.800005 -0.1,18.8 0,37.6 0,56.4 0,0.6 -0.1,1.5 -0.6,2.2 z"
   class="st1" />
<path
   id="path12"
   d="m 106.28247,101.10865 c 0.1,14.3 0.1,28.6 0.2,43 0,2.4 -0.7,3.1 -3.1,3.1 -12.300002,-0.1 -24.700002,-0.1 -37.000002,0 -2.4,0 -3.1,-0.7 -3.1,-3.1 0.1,-14.3 0.2,-28.6 0.2,-43 1.6,-1.600005 3.6,-1.600005 5.6,-1.600005 11.3,0 22.6,-0.4 33.900002,0.4 1.3,0 2.4,0.400005 3.3,1.200005 z"
   class="st1" />
<path
   id="path14"
   d="m 227.18247,100.10865 c 0.1,14.3 0.1,28.6 0.2,43 0,2.4 -0.7,3.1 -3.1,3.1 -11,-0.2 -22,-0.2 -33,-0.2 -1.6,-1.6 -1.6,-3.6 -1.6,-5.6 -0.1,-11.5 -0.1,-22.9 0,-34.4 0.1,-6.100005 1.3,-7.300005 7.4,-7.400005 8.1,-0.1 16.3,-0.1 24.4,0 2.1,-0.1 4.2,-0.1 5.7,1.500005 z"
   class="st1" />
<path
   id="path16"
   d="m 153.38247,143.10865 c 0,5 -0.1,10 0,14.9 0.1,2.4 -0.7,3 -3.1,3.1 -13,0.6 -13,0.7 -13,-12.1 0,-7 0.1,-14 0,-20.9 0,-2.4 0.7,-3 3.1,-3.1 13,-0.6 13,-0.7 13,12.1 z"
   class="st2" />
<path
   id="path18"
   d="m 84.882468,151.10865 h 19.000002 c 1.1,-0.4 2.3,0.2 2.6,1.2 0.1,0.4 0.2,0.7 0.1,1.1 v 5.4 c 0.1,0.5 -0.1,1 -0.3,1.5 -0.6,0.6 -1.4,0.9 -2.2,0.7 H 65.382468 c -0.4,0 -0.9,0 -1.3,-0.3 -0.5,-0.4 -0.7,-1.1 -0.7,-1.7 -0.1,-1.8 -0.1,-3.7 0,-5.5 0,-0.7 -0.1,-1.4 0.5,-1.9 0.6,-0.4 1.2,-0.6 1.9,-0.5 z"
   class="st1" />
<path
   id="path20"
   d="m 190.58247,151.50865 0.1,-0.1 c 0.6,-0.2 1.2,-0.2 1.8,-0.2 l 31.2,-0.1 c 0.9,-0.1 1.8,0.1 2.4,0.7 0.4,0.7 0.5,1.5 0.4,2.3 -0.1,1.4 -0.1,2.9 0,4.3 0.2,0.7 0,1.5 -0.4,2.2 -0.5,0.4 -1.2,0.6 -1.9,0.5 l -32.8,-0.2 c -0.3,0 -0.6,0 -0.9,-0.2 -0.3,-0.2 -0.4,-0.4 -0.6,-0.7 -0.7,-1.4 -1,-3 -0.9,-4.6 0,-1.3 0.2,-3.2 1.6,-3.9 z"
   class="st1" />
<path
   id="path22"
   d="m 162.08247,69.108645 c 11.8,0 22.3,0 32.9,0 1,0 1.9,0.3 2.8,0.9 10.6,6.7 21.1,13.5 32.9,21 h -43.4 c -1,0 -1.9,-0.5 -2.6,-1.2 z"
   class="st1" />
<path
   id="path24"
   d="m 128.18247,69.108645 c -7.6,7.2 -14.6,13.6 -21.4,20.1 -1.3,1.3 -3,2 -4.9,2 -13.500002,-0.1 -26.900002,0 -41.800002,0 12,-7.7 22.9,-14.7 33.8,-21.7 0.8,-0.5 1.9,-0.3 2.9,-0.3 10.200002,-0.1 20.300002,-0.1 31.400002,-0.1 z"
   class="st1" />
<path
   id="path26"
   d="m 145.28247,81.108645 c 6.6,0 12,5.3 12.1,11.9 0.1,6.6 -5.3,12.000005 -11.9,12.100005 -6.6,0 -12,-5.200005 -12.1,-11.800005 0.1,-6.6 5.4,-12 11.9,-12.2 z"
   class="st3" />
<path
   id="path28"
   d="m 97.382468,119.90865 c 0,4 0,8 0,12 0,3.5 -1.7,5.2 -5.2,5.2 -4.5,0 -9,0 -13.5,0 -3.4,0 -5.3,-1.5 -5.3,-5.1 0,-8 0,-16 0,-24 0,-3.2 1.7,-4.9 4.9,-5 4.7,0 9.3,0 14,0 3.5,0 5.1,1.9 5.1,5.3 0,3.9 0,7.8 0,11.6 z"
   class="st0" />
<path
   id="path30"
   d="m 217.38247,119.00865 c 0,3.8 0,7.7 0,11.5 0,3.8 -1.5,5.6 -5.3,5.6 -4.5,0 -9,0 -13.5,0 -3.5,0 -5.2,-1.7 -5.2,-5.2 0,-7.8 0,-15.7 0,-23.5 0,-3.5 1.5,-5.3 5.1,-5.3 4.7,0 9.3,0 14,0 3.3,0 4.9,1.7 4.9,4.9 0,4.1 0,8 0,12 z"
   class="st0" />
<path
   id="path32"
   d="m 145.28247,85.108645 c 4.4,0 8,3.5 8.1,7.9 0.1,4.4 -3.5,8.000005 -7.9,8.100005 -4.4,0.1 -8,-3.500005 -8.1,-7.900005 0,0 0,-0.1 0,-0.1 0.1,-4.4 3.6,-7.9 7.9,-8 z"
   class="st4" />
<path
   id="path34"
   d="m 83.382468,120.60865 c 0,3.1 -0.1,6.3 0,9.5 0.1,2.3 -0.6,3.1 -3,3.1 -2.4,0 -3.1,-0.8 -3.1,-3.1 0.1,-6.6 0.1,-13.3 0,-19.9 -0.1,-2.3 0.6,-3.1 3,-3.1 2.4,0 3.2,0.8 3.1,3.1 -0.1,3.4 0,6.9 0,10.4 z"
   class="st2" />
<path
   id="path36"
   d="m 93.382468,120.10865 c 0,3.3 -0.1,6.6 0,10 0.1,2.4 -0.7,3.1 -3.1,3.1 -2.4,0 -3,-0.9 -3,-3.2 0.1,-6.6 0.1,-13.3 0,-19.9 -0.1,-2.4 0.7,-3.1 3.1,-3.1 2.4,0 3.1,0.9 3,3.2 -0.1,3.3 0,6.6 0,9.9 z"
   class="st2" />
<path
   id="path38"
   d="m 197.38247,120.20865 c 0,-3.3 0.1,-6.7 0,-10 -0.1,-2.4 0.6,-3.1 3.1,-3.1 2.5,0 3.1,0.9 3,3.2 -0.2,3.3 0,6.7 0,10 0,1.4 0.2,2.8 2,2.8 1.8,0 2,-1.4 2,-2.8 0,-3.3 0.1,-6.7 0,-10 -0.1,-2.3 0.5,-3.2 3,-3.2 2.5,0 3.1,0.8 3.1,3.1 -0.1,6.6 -0.1,13.3 0,20 0,1.9 -0.2,3.2 -2.6,3 -1.9,-0.1 -3.8,0.3 -3.4,-2.7 0.2,-1.6 -0.2,-3.3 -2.2,-3.1 -1.6,0.1 -1.9,1.7 -1.7,3.1 0.4,2.9 -1.5,2.5 -3.4,2.7 -2.4,0.2 -2.7,-1 -2.6,-3 -0.2,-3.4 -0.3,-6.7 -0.3,-10 z"
   class="st2" />
<rect
   id="rect40"
   height="9.6000004"
   width="7.4000001"
   class="st2"
   y="151.30864"
   x="184.18246" />
<g
   transform="translate(-136.21753,-224.19135)"
   id="g48"
   class="st5">
	<path
   id="path42"
   d="m 371.2,313.4 c -11.1,-7.3 -22.4,-14.4 -33.5,-21.6 -2.4,-1.7 -5.4,-2.6 -8.4,-2.5 -8.8,0.2 -17.7,-0.4 -26.4,0.2 -6.7,0.5 -11.7,-1.5 -16.2,-6.4 -4.8,-5.1 -5.3,-5.2 -10.2,-0.1 -4.9,5.1 -10.1,7.1 -17.1,6.6 -8.4,-0.7 -17,0 -25.4,-0.2 -3,-0.1 -5.9,0.8 -8.3,2.5 -10.6,6.9 -21.3,13.6 -31.8,20.6 -2.2,1.5 -6.5,2.2 -5.7,5.3 0.9,3.4 5,0.9 7.5,1.8 h 4 c 1.8,1.5 4,1.3 6.2,1.3 7.6,0 15.2,0 22.8,0 1.8,-0.1 3.6,0.2 5.3,0.9 5.5,2.9 5.6,2.9 8.7,-2.3 1,-1.6 2.4,-2.9 4.1,-3.9 2.2,0.3 3.2,-1.5 4.5,-2.6 9.4,-7.9 18.1,-16.6 27.4,-24.5 2.1,-1.8 3.8,-2.5 5.9,-0.2 4.1,4.6 9,8.4 13.6,12.4 6.1,5.3 11.1,11.9 18.6,15.5 l 3.9,3.5 c 3,4.2 3,4.1 7.3,1.2 0.7,-0.5 1.9,0 2.9,0 8.7,0 17.5,0 26.2,0 2.3,0 4.6,0.3 6.6,-1.3 h 4 c 0.7,0 1.3,-0.1 2,-0.2 2,-0.3 5,1.2 5.7,-1.6 0.6,-2.7 -2.5,-3.3 -4.2,-4.4 z m -128.1,0 c -1.3,1.3 -3,2 -4.9,2 -13.5,-0.1 -26.9,0 -41.8,0 12,-7.7 22.9,-14.7 33.8,-21.7 0.8,-0.5 1.9,-0.3 2.9,-0.3 10.1,-0.1 20.3,-0.1 31.3,-0.1 -7.6,7.2 -14.5,13.6 -21.3,20.1 z m 80.5,1.8 c -1,0 -1.9,-0.5 -2.6,-1.2 l -22.6,-20.6 c 11.8,0 22.3,0 32.9,0 1,0 1.9,0.3 2.8,0.9 10.6,6.7 21.2,13.5 32.9,21 h -43.4 z"
   class="st6" />
	<path
   id="path44"
   d="m 331.3,293.3 c -10.6,0 -21.1,0 -32.9,0 l 22.6,20.6 c 0.7,0.7 1.6,1.2 2.6,1.2 H 367 c -11.8,-7.5 -22.3,-14.3 -32.9,-21 -0.9,-0.4 -1.9,-0.7 -2.8,-0.8 z"
   class="st6" />
	<path
   id="path46"
   d="m 233.1,293.4 c -1,0 -2.2,-0.1 -2.9,0.3 -11,6.9 -21.8,14 -33.8,21.7 14.9,0 28.3,-0.1 41.8,0 1.8,0 3.6,-0.7 4.9,-2 6.8,-6.5 13.8,-12.9 21.4,-20.1 -11.1,0 -21.2,0 -31.4,0.1 z"
   class="st6" />
</g>
<path
   id="path50"
   d="M 106.28247,101.10865 H 63.582468 l -0.1,-5.900005 32.7,-0.1 c 0.8,0 2.3,-0.1 2.4,0.2 2.800002,7.700005 5.200002,0.3 7.800002,-0.1 -0.1,2 -0.1,3.9 -0.1,5.900005 z"
   class="st2" />
<path
   id="path52"
   d="m 179.38247,160.80865 c 0,-17.8 0,-35.6 0,-53.3 0.2,-2.5 -0.2,-4.9 -1,-7.3 -1.2,-2.700005 -3.5,-4.700005 -5.8,-6.600005 -7.9,-6.5 -15.4,-13.5 -22.6,-20.8 -1.5,-1.5 -3.3,-3.2 -5.4,-2.9 -1.3,0.3 -2.4,1 -3.3,2 l -25.6,23.3 c -3.1,2.1 -4.8,5.800005 -4.3,9.500005 l 0.1,56.2 c -0.9,-0.4 -1,-1.6 -1,-2.6 V 92.808645 c 0,-0.5 -0.2,-1.2 0.2,-1.6 1.8,-1.7 3.7,-3.3 5.6,-5 l 11.1,-10 11.1,-10 5.1,-4.6 c 0.4,-0.4 0.9,-0.7 1.5,-0.9 0.8,0 1.6,0.4 2.1,1.1 l 31.2,28.5 c 0.7,0.5 1.3,1.2 1.6,2 0.2,0.7 0.3,1.4 0.3,2.1 0,5 0,10.000005 0,14.900005 v 15 15 15 3.6 c 0.2,1.1 -0.2,2.2 -0.9,2.9 z"
   class="st2" />
<path
   id="path54"
   d="m 227.18247,100.10865 c -10.5,0 -20.9,0.1 -31.4,-0.1 -3.5,-0.100005 -4.6,1.1 -4.5,4.6 0.2,13.8 0.1,27.6 0.1,41.3 -1.3,0.1 -2.7,0 -4,0.2 -2.6,0.4 -3.4,-0.7 -3.4,-3.3 0.2,-16.1 0.2,-32.3 0.2,-48.400005 1.2,0.9 2.3,1.8 3.5,2.8 1.2,1 2.7,1.2 2.9,0 0.7,-4.4 3.9,-2.9 6.3,-2.9 10.1,-0.1 20.3,0 30.4,0.1 0,1.8 0,3.8 -0.1,5.700005 z"
   class="st2" />
</svg>
