<svg id="Layer_1" data-name="Layer 1" xmlns="http://www.w3.org/2000/svg" viewBox="0 0 292.38 194.06"><defs><style>.cls-1{fill:#4b4b4b;}.cls-2{fill:#fff;}.cls-3{fill:#ebebeb;}.cls-4{fill:#f6f6f6;}.cls-5{fill:#e9e8e9;}.cls-6{fill:#f1f0f0;}.cls-7{fill:#e0e1e0;}.cls-8{fill:#eeedee;}.cls-9{fill:#dfdfde;}.cls-10{fill:#dcdcdc;}.cls-11{fill:#ededee;}.cls-12{fill:#b41f63;}.cls-13{fill:#ed2182;}.cls-14{fill:#ed0d7b;}.cls-15{fill:#ed117b;}.cls-16{fill:#ed0579;}.cls-17{fill:#ed1980;}.cls-18{fill:#ed1c80;}.cls-19{fill:#ed1e81;}</style></defs><title>7 windows-04</title><path class="cls-1" d="M56.74,57.16c-1.78-.45-4,.6-4.82-2,.36-1.81,1.69-2.15,3.54-2.14C68.3,53,81.13,53,94,53h5.72V23.28c-5.3-.39-5.3-.39-5.76-3.79,1-1,2.2-.46,3.3-.46Q164,19,230.71,19c1.87,0,4.07-.77,5.26,1.79,1.11,2.38-3.77,2-4.88,2.34-1.9.58-1.82.49-2,2.6a78.32,78.32,0,0,0,.1,8.39c0,36.77.76,73.53.76,110.3v27.26c4.11,1.23,8.5-1.33,12.14,1.75-.45,1.77-1.29,2.74-3.11,2.56-.66-.06-1.33,0-2,0H52a18.93,18.93,0,0,0-2.5,0c-1.49.2-1.8-1.1-3-1.74,2.82-4.33,7-1,10.25-2.72Z"/><path class="cls-2" d="M190.92,117a.85.85,0,0,0,1,1c1.75,2,1.47,4,0,6-10.87,1.09-21.78.17-32.66.51-2.11.06-4.3-.54-6.34.49v46.48c-4.07.72-36,.94-49,.32V31c1.77-1.6,4-1.6,6.13-1.6q36.75-.07,73.49,0c6.51,0,6.86.51,6.86,7.21q0,37.5,0,75C190.43,113.42,190,115.29,190.92,117Z"/><path class="cls-3" d="M191.92,124v-6l2-1c1-1.72.49-3.59.49-5.38q.06-37.95,0-75.91c0-5.53.45-6.13,5.75-6.27q10.23-.25,20.47,0c3.05.09,4.83,1.09,4.81,4.75-.12,29.3-.06,58.6-.07,87.89a3.5,3.5,0,0,1-.48,1.9,211,211,0,0,1-32,0Z"/><path class="cls-4" d="M98.92,172h-38V66c1.74-1.58,3.92-1.57,6.06-1.59,5.27-.06,10.54-.1,15.81,0,6.5.13,7.77,1.49,7.71,8a10.91,10.91,0,0,1-1,5.29c-3,2.9-6.88,1.71-10.4,1.81-7.71.22-7.75.13-7.75,7.77,0,5.14.13,10.28,0,15.4-.12,3.48,1.46,4.63,4.68,4.84,4.4.29,9-1,13.16,1.32,1.16,1.56,1.19,3.4,1.22,5.21.1,5.93-1.18,7.06-7.15,7.44-3.68.23-7.6-1.3-11,1.3-1.88,8-.74,16.13-.64,24.17,0,2.67,2.79,2.31,4.69,2.52,4.22.47,8.62-.88,12.7,1.22,2.34,3.66,1.32,7.77,1.3,11.67,0,4.29.42,7.62,5.89,7.47C97.41,169.78,99,170.09,98.92,172Z"/><path class="cls-5" d="M88.92,78V66h-28V57.1c6.4-.19,12.82-.06,19.23-.08s12.93,0,19.77,0v4.47q0,53.12-.06,106.25c0,1.39,1.24,3.28-.94,4.28.08-1-.61-1-1.29-1H88.92V151c.72-7.13.48-14.29.48-21.44s-.05-6.92-7.34-7.14c-4.06-.13-8.35,1.2-12.14-1.42,0-1.37,1.06-1,1.79-1,5.62,0,11.25,0,17.21,0V109A199.27,199.27,0,0,0,88.92,78Z"/><path class="cls-6" d="M190.92,117a.77.77,0,0,1-1-.79c-.06-1.33,0-2.67,0-4V31h-86v-7.5c4.23-.72,72.55-1,87-.31Z"/><path class="cls-3" d="M190.92,151v21h-14c-1.72-2-1.81-4.54-2.3-6.93q-2.25-10.86-4.37-21.76c-.38-1.93-.83-3.88,0-5.83a2.76,2.76,0,0,1,1.23-1.23c3.83-1,7.64-1.22,11.4.32,2,1.57,2.31,3.95,2.79,6.21a203.31,203.31,0,0,1,4.07,24.28c.36.61.66-.6.18-.14-.21.21-.36.12-.4-.29a104.2,104.2,0,0,1-.91-10.41C188.59,154.29,187.88,151.72,190.92,151Z"/><path class="cls-3" d="M214.92,172h-12c-1.64-.84-2.21-2.36-2.54-4-1.77-8.91-3.75-17.77-5.18-26.74-.26-1.64-.54-3.29.76-4.68,3.81-1.61,7.66-1.34,11.52-.27,1.4.82,1.81,2.3,2.42,3.64,2.55,9,3.83,18.23,5.78,27.34C216,168.93,216.17,170.59,214.92,172Z"/><path class="cls-7" d="M224.92,124V31.14H195.23c-.66,1.29-.29,2.79-.29,4.23q0,39.18-.07,78.35c0,1.08,1,2.68-1,3.29V23.14h31.67c.75,1.12.3,2.48.3,3.74q.06,46.67,0,93.34C225.85,121.43,227.06,123.23,224.92,124Z"/><path class="cls-8" d="M164.92,172h-8.54c-.92-1.15-.43-2.52-.43-3.77q-.07-18.48,0-36.94c0-.8-.7-2.11,1-2.29,3.36-1,6.82-.52,10.2-.39,3.53.12,4.63,2.88,3.8,8.39-3.7,1.65-4.67,4.58-4.53,8.47.23,6.63.09,13.27.05,19.91C166.42,167.69,166.62,170.08,164.92,172Z"/><path class="cls-2" d="M214.92,172c.09-3.22-.87-6.24-1.77-9.26-.59-2,.43-4.25-1.23-6,.09-4.34-1.91-8.33-2.12-12.66-.06-1.28-1.07-2.6-.88-4.09-1.31-2.83.26-3.92,2.71-4.24a21.51,21.51,0,0,1,8.19.25,4.1,4.1,0,0,1,1.51.91c3.08,6,2.94,12.61,4.07,19-.29,5.36.61,10.75-.48,16.08Z"/><path class="cls-2" d="M164.92,172V137h6a30.13,30.13,0,0,0,1.77,10.26c.61,2-.43,4.25,1.23,6-.6,2.65.66,5.18,1.27,7.51s.07,5,1.63,7.31c.62.91.1,2.6.1,3.93Z"/><path class="cls-2" d="M195.92,137c-.11,3.21.87,6.23,1.77,9.24.58,2-.44,4.25,1.23,6,.28,6.19,2.94,12,3,18.21,0,.58,1.11.75,1,1.58h-8.48a2.26,2.26,0,0,1-.35-.34.76.76,0,0,1-.16-.43c0-6.63,0-13.25,0-19.79-1-.75-2-.31-3-.44-1.36,0-1,1.05-1,1.77,0,4.47,0,8.94,0,13.41,0,.92.44,2-.46,2.82l-6.52-32,.65-.61c6.12-1.31,6.76-.79,6.86,5.36,0,1.42-.44,2.92.49,4.25.24,1.37,1,1.22,1.89.62.35-.23.74-.41,1.11-.62a2.59,2.59,0,0,0,.52-2.06,60.79,60.79,0,0,1,.15-6.75A1,1,0,0,1,195.92,137Z"/><path class="cls-9" d="M170.92,137c-.15-1.06-1.41-1.71-1-3,.54-1.84-1-3.18-1.19-5H156.92a.76.76,0,0,1,.79-1q15.71,0,31.42,0a.76.76,0,0,1,.79,1c-1.45,1.73-3.83.86-5.54,2-1.65,1.71.36,4.35-1.46,6Z"/><path class="cls-10" d="M194.92,137v8a.65.65,0,0,1-1,0v-16.9h32v4.27q0,18.68,0,37.35c0,.8.7,2.1-1,2.28V155c-.95-4.12-1-8.35-1.38-12.54-.19-2.3-.77-4.11-2.62-5.46-2.23-7.47-8.2-7-14.11-6.6a4,4,0,0,1-1,0C200.37,129.59,196,130.6,194.92,137Z"/><path class="cls-11" d="M182.92,137c-.16-.93.43-2-.32-2.79-1.54-1.59-.07-3.35-1-5.21h8.36c1.34,0,1,1,1,1.75,0,5.08,0,10.17,0,15.25-1,.08-1-.6-1-1.28V137Z"/><path class="cls-3" d="M152.92,125c.17-1.66,1.47-1,2.27-1q18.36-.06,36.73,0c-.17,1.66-1.47,1-2.27,1Q171.29,125,152.92,125Z"/><path class="cls-7" d="M192.92,124h32a.76.76,0,0,1-.79,1q-15.21,0-30.42,0A.76.76,0,0,1,192.92,124Z"/><path class="cls-9" d="M193.92,145h1a.85.85,0,0,1-1,1Z"/><path class="cls-8" d="M206.92,129h13.15c-.95,3,1,5.3.85,8H209.34c-.7,1.07-.3,2.06-.42,3-1.93-.47-.62-2-1-3C205.84,134.56,204.86,132,206.92,129Z"/><path class="cls-9" d="M206.92,129c-.72,2.8,1.11,5.28,1,8h-13v-8Z"/><path class="cls-3" d="M220.92,137h3.79c.47,6,.09,12,.21,18-.28-.12-.81-.23-.82-.35,0-4.64-2-8.94-2.3-13.57C221.73,139.81,220.74,138.49,220.92,137Z"/><path class="cls-12" d="M178.92,64.37c2.54.39,3.38,1.66,2.81,4.21H153.25c-1.11-2.87.69-3.66,2.67-4.41,0-7.29,0-14.59,0-21.9,0-3.34.33-3.66,3.67-3.68,5.32,0,10.65,0,16,0,2.76,0,3.33.64,3.34,3.51C178.94,49.42,178.92,56.75,178.92,64.37Z"/><path class="cls-13" d="M159.92,47.58v-5h7c2.5,7.13,5.7,14.16,3,22h-6c-3.14-3-2.43-7-3.11-10.69C160.42,51.79,161,49.57,159.92,47.58Z"/><path class="cls-14" d="M169.92,64.58c-.14-2.26.78-4.86-.43-6.71s.65-4.4-1.57-5.81c.6-3.26-1.73-6.21-1-9.48h7.82c.4,7.21,0,14.44.23,22Z"/><path class="cls-15" d="M159.92,47.58c.28.12.81.23.82.35.06,4.64,2.18,8.94,2.19,13.58,0,1.1,1.51,1.77,1,3.07h-3.8C159.68,58.93,160,53.25,159.92,47.58Z"/><path class="cls-12" d="M178.76,106.61c2.54.39,3.38,1.65,2.81,4.21H153.09c-1.11-2.88.69-3.66,2.67-4.41,0-7.29,0-14.6,0-21.9,0-3.35.33-3.66,3.67-3.68q8-.06,16,0c2.76,0,3.33.63,3.34,3.51C178.78,91.66,178.76,99,178.76,106.61Z"/><path class="cls-13" d="M159.76,89.82v-5h7c2.5,7.13,5.7,14.16,3,22h-6c-3.14-3-2.43-7-3.11-10.69C160.26,94,160.79,91.81,159.76,89.82Z"/><path class="cls-14" d="M169.76,106.82c-.14-2.27.78-4.86-.43-6.72s.65-4.39-1.57-5.81c.6-3.25-1.73-6.2-1-9.47h7.82c.4,7.21,0,14.43.23,22Z"/><path class="cls-15" d="M159.76,89.82c.28.11.81.23.82.35.06,4.63,2.18,8.93,2.19,13.57,0,1.11,1.51,1.77,1,3.08H160C159.52,101.17,159.88,95.49,159.76,89.82Z"/><path class="cls-12" d="M139.16,156.28c2.54.4,3.38,1.66,2.81,4.21H113.49c-1.11-2.87.69-3.66,2.67-4.41,0-7.28,0-14.59,0-21.9,0-3.34.33-3.65,3.67-3.68,5.32,0,10.65,0,16,0,2.76,0,3.33.63,3.34,3.5C139.18,141.34,139.16,148.66,139.16,156.28Z"/><path class="cls-13" d="M120.16,139.49v-5h7c2.5,7.13,5.7,14.17,3,22h-6c-3.14-3-2.43-7-3.11-10.69C120.66,143.7,121.19,141.48,120.16,139.49Z"/><path class="cls-14" d="M130.16,156.49c-.14-2.26.78-4.86-.43-6.71s.65-4.39-1.57-5.81c.6-3.26-1.73-6.21-1-9.48H135c.4,7.21,0,14.44.23,22Z"/><path class="cls-15" d="M120.16,139.49c.28.12.81.23.82.36.06,4.63,2.18,8.93,2.19,13.57,0,1.11,1.51,1.77,1,3.07h-3.8C119.92,150.85,120.28,145.16,120.16,139.49Z"/><path class="cls-12" d="M69.92,121h21c0,9.25,0,18.19,0,27.13a2.58,2.58,0,0,1-2,2.87c-5.29,0-10.58,0-15.87,0-2.4,0-3.11-.74-3.12-3.2C69.9,138.87,69.92,129.94,69.92,121Z"/><path class="cls-16" d="M86.92,143.18V147h-7c-2.81-3-2.75-6.9-3.65-10.5s-1.46-7-2.35-10.51a.74.74,0,0,1,.78-.94c3.81,0,7.63,0,11.44,0a.74.74,0,0,1,.78.94c-1.4,1-2.31,2.25-1.88,4.08C86.07,134.38,85.84,138.87,86.92,143.18Z"/><path class="cls-17" d="M73.92,125h1.84c0,4.54,1.77,8.82,2.22,13.37a20.73,20.73,0,0,0,1.66,5.76c.41,1,.1,1.93.28,2.87H73.35c-.84-1.33-.39-2.84-.41-4.26-.06-5.32,0-10.64,0-16C72.94,126.07,72.55,125,73.92,125Z"/><path class="cls-18" d="M86.92,143c-.28-.11-.81-.23-.81-.34,0-4.59-2.22-8.81-2.22-13.4,0-1.33-1.67-2.39-.61-4.26h3.64Z"/><path class="cls-12" d="M69.56,77.71h21c0,9.47,0,18.63,0,27.79a2.65,2.65,0,0,1-2,2.94c-5.29,0-10.58,0-15.87,0-2.4,0-3.11-.75-3.12-3.27C69.54,96,69.56,86.86,69.56,77.71Z"/><path class="cls-16" d="M86.56,100.42v3.92h-7c-2.81-3.07-2.75-7.08-3.65-10.76s-1.46-7.2-2.35-10.77a.75.75,0,0,1,.78-1c3.81,0,7.63,0,11.44,0a.75.75,0,0,1,.78,1c-1.4,1.06-2.31,2.31-1.88,4.18C85.71,91.41,85.48,96,86.56,100.42Z"/><path class="cls-17" d="M73.56,81.81H75.4c0,4.65,1.77,9,2.22,13.7a21.75,21.75,0,0,0,1.66,5.9c.41,1,.1,2,.28,2.93H73c-.84-1.36-.39-2.91-.41-4.36-.06-5.45,0-10.9,0-16.34C72.58,82.9,72.19,81.82,73.56,81.81Z"/><path class="cls-18" d="M86.56,100.24c-.28-.11-.81-.23-.81-.35,0-4.69-2.22-9-2.22-13.72,0-1.36-1.67-2.45-.61-4.36h3.64Z"/><path class="cls-12" d="M140.12,64.37c0-7.62,0-15,0-22.27,0-2.87-.58-3.48-3.34-3.51-5.33,0-10.65,0-16,0-3.34,0-3.66.34-3.67,3.68,0,6.11,0,12.22,0,18.32h6.54v4h-7.58c-1.49.68-2.53,1.63-1.62,4h28.48C143.49,66,142.66,64.76,140.12,64.37Z"/><rect class="cls-19" x="120.61" y="41.22" width="15.97" height="23.37"/><path class="cls-12" d="M140.48,106.61c0-7.63,0-15,0-22.27,0-2.88-.58-3.49-3.34-3.51q-8-.06-16,0c-3.34,0-3.66.33-3.67,3.68,0,6.11,0,12.22,0,18.32H124v4h-7.58c-1.49.68-2.53,1.64-1.62,4h28.48C143.85,108.26,143,107,140.48,106.61Z"/><rect class="cls-19" x="120.97" y="83.46" width="15.97" height="23.37"/></svg>