<svg id="Layer_1" data-name="Layer 1" xmlns="http://www.w3.org/2000/svg" viewBox="0 0 144.56 133.41"><defs><style>.cls-1{fill:#4b4b4b;}.cls-2{fill:#ebebeb;}.cls-3{fill:#b41f63;}.cls-4{fill:#4d4c4d;}.cls-5{fill:#fff;}.cls-6{fill:#eaeaea;}.cls-7{fill:#e9e8e8;}.cls-8{fill:#ed2182;}.cls-9{fill:#ed1c81;}.cls-10{fill:#ed1a80;}.cls-11{fill:#fafbfc;}.cls-12{fill:#525252;}.cls-13{fill:#5b5b5b;}</style></defs><title>Bucket &amp;amp; Brush</title><path class="cls-1" d="M97.09,87.18c1.15.58,1,1.5.82,2.47-.73,5.42-1.46,10.85-2.07,16.28-.2,1.78-1.33,2.69-3,3.29a26.8,26.8,0,0,1-7.28,1.5c-7.49.62-15,.77-22.36-.86-3.08-.68-4.83-2-5.2-5.34C56.75,92.72,55,81,53.3,69.19c-.4-2.77,1-4.27,3.55-5.24C61.92,62,67.3,61.57,72.72,61.33c.85,1.29,0,2-1.1,2.62-3.43,1.08-7.17.8-10.61,1.92a26.71,26.71,0,0,0-2.64.79c-.47.21-1,.46-1,1-.08.7.56,1,1.12,1.17a29.47,29.47,0,0,0,10,1.87c1.35,0,2.62.61,4,.45,3.72-.06,7.45.27,11.15-.34a19.06,19.06,0,0,1,2.5-.15,27.28,27.28,0,0,0,9-1.6c.75-.24,1.76-.47,1.71-1.37s-1.08-1-1.8-1.32c-1.77-.76-3.83-.71-5.54-1.64-.5-1.19-.2-2,1.23-2.44l.31,0c9.26,1.6,10.1,2.52,9.15,10.72-.47,4-1.2,8-1.82,11.94-2.19.92-2.48-.49-2.65-1.85-.33-2.54.47-5,.7-7.53.25-2.81.28-2.9-2.57-2.19-3.31.83-6.74.85-10.08,1.43a82,82,0,0,1-23.25-1.38c-3-.65-3.06-.63-2.72,2.09,1.13,8.87,2.42,17.73,3.49,26.61.48,4,1,4.46,5.5,5.17a77.61,77.61,0,0,0,18.34.31c.21-.05.41-.08.62-.11,6.42-.75,6.65-1,7.35-6.68.44-3.56.81-7.14,1.42-10.68C94.69,88.86,94.4,86.84,97.09,87.18Z"/><path class="cls-2" d="M97.09,87.18c-2.12.51-1.62,2.21-1.82,3.49a127.66,127.66,0,0,0-1.62,12.88c-.13,2.91-1.61,4-4.43,4.32l-4,.43c-1.06-.89-.94-2-.83-3.16.86-8.71.7-17.47,1.68-26.17a4.51,4.51,0,0,0-2.31-4.83c4.54-.8,9.26-.85,14-2.88-.5,4.09-1,7.84-1.41,11.59-.16,1.33-.23,2.58,2,2.11C97.77,85.64,96.79,86.11,97.09,87.18Z"/><path class="cls-3" d="M90.68,62.25a3.85,3.85,0,0,0-1.05,2.19,9.47,9.47,0,0,1-3,6.87L84,71.43c-1-1.16,0-2.16.39-3.14,1.46-3.52,3-7,4.44-10.54,1.11-2.78-.26-5.42-2.88-5.88-1.36-.24-2.48-.41-1.79,1.62,1,3.11-.64,5.25-4.19,5.37a3,3,0,0,0-3.19,2.06c-1.48,3.67-3.9,7-4.72,10.92l-3.79-.47c-.24-3.08,1.44-5.48,3.35-7.79a2.81,2.81,0,0,0,1.14-2.25c1.24-2.45,2.53-4.88,3.7-7.36,1.07-2.23,2.51-4.14,5.12-5a3.18,3.18,0,0,0,2.08-2.21c1.65-3.93,3.33-7.85,5-11.77a1.81,1.81,0,0,1,2.47.67c.51,1.71-.6,3.09-1.2,4.56a35.88,35.88,0,0,0-2.56,7.1c2.71-3.74,3.57-8.19,5.91-12.06,1-.87,2.15-1.53,3.66-1-2,4.74-4,9.49-6,14.22a2.76,2.76,0,0,0,.32,3.32C93,54,93,56.53,91.84,59.06,91.39,60.1,91.06,61.18,90.68,62.25Z"/><path class="cls-3" d="M90.68,62.25a3.85,3.85,0,0,0-1.05,2.19,9.47,9.47,0,0,1-3,6.87L84,71.43c-1-1.16,0-2.16.39-3.14,1.46-3.52,3-7,4.44-10.54,1.11-2.78-.26-5.42-2.88-5.88-1.36-.24-2.48-.41-1.79,1.62,1,3.11-.64,5.25-4.19,5.37a3,3,0,0,0-3.19,2.06c-1.48,3.67-3.9,7-4.72,10.92l-3.79-.47c-.24-3.08,1.44-5.48,3.35-7.79a2.81,2.81,0,0,0,1.14-2.25c1.24-2.45,2.53-4.88,3.7-7.36,1.07-2.23,2.51-4.14,5.12-5a3.18,3.18,0,0,0,2.08-2.21c1.65-3.93,3.33-7.85,5-11.77a1.81,1.81,0,0,1,2.47.67c.51,1.71-.6,3.09-1.2,4.56a35.88,35.88,0,0,0-2.56,7.1c2.71-3.74,3.57-8.19,5.91-12.06,1-.87,2.15-1.53,3.66-1-2,4.74-4,9.49-6,14.22a2.76,2.76,0,0,0,.32,3.32C93,54,93,56.53,91.84,59.06,91.39,60.1,91.06,61.18,90.68,62.25Z"/><path class="cls-4" d="M90.83,35.72,88.61,35c-4.1-1.4-3.9-3-2-7.58.78-1.9,1.64-4.68,5-3.73,5.62,1.58,7.57,4,6.48,7.69a25.07,25.07,0,0,1-1.25,2.88l-3.58,1.46A2,2,0,0,1,90.83,35.72Z"/><path class="cls-5" d="M83.76,74.14c2.74-.25,3.53.87,3.34,3.29-.73,9.34-1.29,18.69-1.89,28-.06.94,0,1.88,0,2.83A62.21,62.21,0,0,1,63,107.43c-1.08-.25-2.06-.63-2.23-2-1.39-11-2.87-22.06-4.31-33.09a3,3,0,0,1,.17-.86C65.43,74.44,74.59,74.31,83.76,74.14Z"/><path class="cls-6" d="M71.58,63.58c-.62,2.77-2.44,5.12-3.35,7.79a31,31,0,0,1-10-1.82c-1-.33-2.4-.69-2.32-2,.06-1.09,1.34-1.38,2.27-1.7C62.45,64.36,67,64,71.58,63.58Z"/><path class="cls-7" d="M86.59,71.31l3-6.87a21.84,21.84,0,0,1,7.12,1.81c2.1.94,2,2,0,2.91A26.85,26.85,0,0,1,86.59,71.31Z"/><path class="cls-8" d="M72,71.84c-1.16-.56-.75-1.31-.36-2.12q2.48-5.16,4.88-10.36c.56-1.22,1.2-1.77,2.82-1.18a3.37,3.37,0,0,0,3.79-1.33,2.62,2.62,0,0,0,.09-3.66c-1.65-1.88-.86-2.28,1.35-2.24,4.12.08,6.52,2.94,5.13,6.53-1.81,4.68-3.83,9.3-5.76,14C80,72.41,76,71.84,72,71.84Z"/><path class="cls-9" d="M90.83,35.72l2.48,0c-1,4.15-3.17,7.92-4.72,11.89a1.45,1.45,0,0,1-1.91,1c-1.24-.38-.69-1.14-.4-1.84Q88.56,41.27,90.83,35.72Z"/><path class="cls-10" d="M80.14,54c.63,0,1,.37,1.07.85s-.35,1-1.06,1.08a1,1,0,0,1-1-.83C79,54.44,79.49,54.09,80.14,54Z"/><path class="cls-8" d="M72,71.84c-1.16-.56-.75-1.31-.36-2.12q2.48-5.16,4.88-10.36c.56-1.22,1.2-1.77,2.82-1.18a3.37,3.37,0,0,0,3.79-1.33,2.62,2.62,0,0,0,.09-3.66c-1.65-1.88-.86-2.28,1.35-2.24,4.12.08,6.52,2.94,5.13,6.53-1.81,4.68-3.83,9.3-5.76,14C80,72.41,76,71.84,72,71.84Z"/><path class="cls-9" d="M90.83,35.72l2.48,0c-1,4.15-3.17,7.92-4.72,11.89a1.45,1.45,0,0,1-1.91,1c-1.24-.38-.69-1.14-.4-1.84Q88.56,41.27,90.83,35.72Z"/><path class="cls-10" d="M80.14,54c.63,0,1,.37,1.07.85s-.35,1-1.06,1.08a1,1,0,0,1-1-.83C79,54.44,79.49,54.09,80.14,54Z"/><path class="cls-11" d="M88.33,31.35c-.17-2.47.49-4.5,2.38-5.13a4.44,4.44,0,0,1,4.71,2.05c.94,1.48.47,2.93-.77,4.12-.89.86-2.08,1.5-3.32.81-1.48-.81.09-1.6.33-2.37s.9-1.68-.25-2.2-1.56.46-2,1.2C89.19,30.22,88.89,30.58,88.33,31.35Z"/><path class="cls-12" d="M68,78.31a27.61,27.61,0,0,1-7.44-1.26c-.9-.27-1.48-.77-1.09-1.67s1.19-.73,1.87-.51A31.84,31.84,0,0,0,70,76.11c1,0,2.45-.07,2.45,1.16,0,1.57-1.58,1-2.62,1.12C69.38,78.42,69,78.35,68,78.31Z"/><path class="cls-13" d="M75.6,76.09c.91,0,1.78.26,1.78,1.15,0,1.11-1.13,1.15-2,1.24s-1.79-.22-1.78-1.11C73.58,76.3,74.69,76.23,75.6,76.09Z"/></svg>