<svg id="Layer_1" data-name="Layer 1" xmlns="http://www.w3.org/2000/svg" viewBox="0 0 86.43 86.03"><defs><style>.cls-1{fill:#b42163;}.cls-2{fill:#4c4c4c;}.cls-3{fill:#ed2183;}.cls-4{fill:#db1675;}.cls-5{fill:#fdfdfd;}.cls-6{fill:#e8e8e8;}.cls-7{fill:#ea1f81;}.cls-8{fill:#c62c7e;}.cls-9{fill:#ebebeb;}.cls-10{fill:#b52064;}.cls-11{fill:#b72065;}.cls-12{fill:#4e4e4e;}.cls-13{fill:#dedede;}.cls-14{fill:#d9d9d9;}</style></defs><title>Man with Hat</title><path class="cls-1" d="M19.25,48.52C16,47.34,12.42,47,9.41,45.09c-4.11-2.55-4-6,.12-8.45a6.81,6.81,0,0,1,2.72-1.18C19.05,35,22,30.75,23.79,24.7a35.16,35.16,0,0,1,6.74-12.13c4.83-5.84,8.84-6.76,15.12-2.74C49,12,51.5,12.36,54.91,9.76,59.47,6.3,63.21,7,67.19,11.31c4.69,5.09,7.63,11.28,10.12,17.62a8,8,0,0,0,6.24,5.44c4,.92,9.3,1.64,9.24,6.68-.05,4.73-5.33,5.15-9,6.38-1.1.37-2.22.71-3.32,1.06a9,9,0,0,1-4.58,2.08c-4.06,0-8,1.06-12.07,1.24-13.22.16-26.45.63-39.61-1.11A9.22,9.22,0,0,1,19.25,48.52Z" transform="translate(-6.36 -7.38)"/><path class="cls-2" d="M76.37,49.46a5.58,5.58,0,0,1,4.06-1C80,54.61,79.32,60.72,79,66.85c-.63,13.5-13.92,26.53-28.12,26.55-14.78,0-26.33-10.21-28.61-25.74-.94-6.4-2-12.77-3.06-19.14a5.72,5.72,0,0,1,4.08,1c2.75,2.55,2,6.2,2.88,9.34a62.71,62.71,0,0,1,1.28,7.37c.54,3.82,2.72,5,6.32,4.43,3.45-.6,7-1.1,10.06-2.79,4.72-2.62,9.08-2.54,13.57.32a18.89,18.89,0,0,0,3.25,1.26,18.67,18.67,0,0,0,3.3,1c6.84,1.42,9.55-.64,9.94-7.57C74.19,58.26,74.12,53.65,76.37,49.46Z" transform="translate(-6.36 -7.38)"/><path class="cls-3" d="M22.26,41.36c2.21-9,5.36-17.69,10.71-25.4,3.61-5.21,6.34-5.79,11.59-2.34,3.31,2.18,6.5,4.54,9.74,6.82,3.14,4.52,6.87,8.1,12.31,10,2.49.88,5.71,3,2.77,6.79-2.94,2.05-6.34,2.36-9.77,2.45-2.29,0-4.56.08-6.57,1.41a4.73,4.73,0,0,1-6.31-.48c-3.37-2-5.69-.48-7.7,2.23-4.62,1.83-9.39,1-14.1.73C23.7,43.54,22.25,43.17,22.26,41.36Z" transform="translate(-6.36 -7.38)"/><path class="cls-4" d="M47.39,39.61a.77.77,0,0,1,.42.27c1.44,2.18,5.6.74,7.8,1a30.66,30.66,0,0,0,9.51-.35c1-.2,3.54-.4,4.25-1.24.87-1-.22-1.86,0-2.86.85-4.7-3.23-5.58-5.91-6.24C58,28.84,55.83,25.1,54.3,20.44c1.26-.65,2.68-1.81,1.69-3-1.83-2.29-1.06-3.16,1.07-4.45,2.75-1.66,5-1.41,7.1.83,4.43,4.7,7.15,10.51,9.29,16.37,1.88,5.14,4.53,8.05,10.06,8.3,1.6.08,4,.63,4,2.26.08,2.16-2.46,2.25-4.14,2.65a108,108,0,0,1-25.06,3.06,65.83,65.83,0,0,1-17.06,0c-9.2-.1-18.32-.78-27.08-3.94,1.73-1.69,3.5-1.32,5.28-.12.73.47,3.14-.55,4-.55,2.37,0,4.78.48,7.24.38a64.33,64.33,0,0,0,8.74-1C40.76,41,45.78,39.15,47.39,39.61Z" transform="translate(-6.36 -7.38)"/><path class="cls-5" d="M60.23,70.44c-7.11-4.88-14.09-2.88-21.07.36a8.18,8.18,0,0,1-1.89.54c-9.08,1.85-10.1,1.2-11.66-7.7-.83-4.71-1.52-9.44-2.28-14.16,13.64,1.32,27.33,1.11,41,1a3,3,0,0,1,.76,2.78C64,56,61.35,55.69,59.25,56.45c-3.6,1.31-3.92,2.87-1.28,5.64,2,2.06,5.37,2,6.76,4.81C64.54,69.74,63.69,71.76,60.23,70.44Z" transform="translate(-6.36 -7.38)"/><path class="cls-6" d="M64.38,53.57c0-1,0-2,0-3,4-.51,8-1.53,12-1.06C76,54.72,75.58,60,75.12,65.25c-.47,5.53-2.31,7.22-7.85,7-2.43-.11-4.91-.33-7-1.79,3.16.46,3.13-2.3,4.09-4,.6-1.85,2.41-2.14,3.82-2.92a8.94,8.94,0,0,0,4.29-5.27c1-2.94,0-4.56-3.31-4.17C67.51,54.22,65.85,54.89,64.38,53.57Z" transform="translate(-6.36 -7.38)"/><path class="cls-7" d="M19.5,42.37l-5.28.12c-1.27-.14-3,0-3.2-1.53-.17-1.34,1.46-1.44,2.5-1.74,1.23-.36,2.49-.62,3.74-.92,2.65-.23.83,2.38,2,3.11C19.32,41.73,19.4,42.05,19.5,42.37Z" transform="translate(-6.36 -7.38)"/><path class="cls-8" d="M41.29,46.43H58.35A31.49,31.49,0,0,1,41.29,46.43Z" transform="translate(-6.36 -7.38)"/><path class="cls-4" d="M19.23,41.41c-.66-1-1.31-2.07-2-3.11C20.71,37.56,18.78,40.25,19.23,41.41Z" transform="translate(-6.36 -7.38)"/><path class="cls-5" d="M45,88.53c-7.48-1-11.82-6-16-12.46,7.42-.13,13.75-2.29,20.13-4.54,4.15-1.46,7.46,2.57,11.27,3.77C59.23,82.17,51.1,89.17,45,88.53Z" transform="translate(-6.36 -7.38)"/><path class="cls-9" d="M45,88.53c6.64,0,8.93-6,12.95-9.56,1.06-1,1.63-2.44,2.43-3.67l10.76,1.31A22.58,22.58,0,0,1,45,88.53Z" transform="translate(-6.36 -7.38)"/><path class="cls-10" d="M69.33,36.43c1.4.13,2.63.53,2.85,2.16a1.89,1.89,0,0,1-1.64,2.12,47.06,47.06,0,0,1-17,1.51c-.9-.11-1.13-1.08-1.35-1.88,1.11-2.27,3.22-2,5.15-1.91A27.88,27.88,0,0,0,69.33,36.43Z" transform="translate(-6.36 -7.38)"/><path class="cls-11" d="M47.48,39.32c-1.42,5.79-5.1,2.57-8.11,2C40.86,35.82,44.47,38.77,47.48,39.32Z" transform="translate(-6.36 -7.38)"/><path class="cls-12" d="M64.38,53.57c1.29-.19,2.59-.33,3.87-.59,1.71-.36,3.6-1.56,5,.12s.89,3.65.36,5.63c-1.29,4.82-5,6.51-9.31,7.66-3.8-.82-7.28-2-9.25-5.86-1.44-2.8-.77-4.3,2.23-5C59.68,54.94,62,54.22,64.38,53.57Z" transform="translate(-6.36 -7.38)"/><path class="cls-12" d="M36.6,66.36c-4.29-.5-7.6-2.38-9.24-6.51-.88-2.2-1.56-4.67,0-6.68,1.72-2.25,3.92-.49,5.88,0,3.19.85,6.39,1.72,9.54,2.7,4.1,1.28,4.56,2.85,1.95,6.33A10.75,10.75,0,0,1,36.6,66.36Z" transform="translate(-6.36 -7.38)"/><path class="cls-13" d="M59.4,59.53c3.22-1.63,6.65-1.92,10.06-2.73C67.85,62.79,64.36,63.74,59.4,59.53Z" transform="translate(-6.36 -7.38)"/><path class="cls-14" d="M41.26,59.78c-4.8,4.1-7.85,3.32-10.64-2.86A34.21,34.21,0,0,1,41.26,59.78Z" transform="translate(-6.36 -7.38)"/></svg>