<?xml version="1.0" encoding="UTF-8"?>
<!DOCTYPE svg PUBLIC "-//W3C//DTD SVG 1.1//EN" "http://www.w3.org/Graphics/SVG/1.1/DTD/svg11.dtd">
<!-- Creator: CorelDRAW 2020 (64-Bit) -->
<svg xmlns="http://www.w3.org/2000/svg" xml:space="preserve" width="600mm" height="150mm" version="1.1" style="shape-rendering:geometricPrecision; text-rendering:geometricPrecision; image-rendering:optimizeQuality; fill-rule:evenodd; clip-rule:evenodd"
viewBox="0 0 60000 15000"
 xmlns:xlink="http://www.w3.org/1999/xlink"
 xmlns:xodm="http://www.corel.com/coreldraw/odm/2003">
 <defs>
  <style type="text/css">
   <![CDATA[
    .fil0 {fill:#F58634}
   ]]>
  </style>
 </defs>
 <g id="Layer_x0020_1">
  <metadata id="CorelCorpID_0Corel-Layer"/>
  <g id="_1277206462528">
   <path class="fil0" d="M26824.81 11504.03c0,296.67 267.77,564.44 564.44,564.44 206.36,0 1065.97,-497.75 1293.52,-611.48 1636.33,-817.82 1001.16,-816.12 2610.56,-11.76 832.84,416.25 1241.34,835.12 1692.46,469.5 322.85,-261.65 138.55,-814.55 57,-1231.18l-288.79 -1684.96c-1.66,-351.2 525.06,-754.21 870.57,-1101.75 572.92,-576.28 1447.62,-1090.34 1053.94,-1671.22 -213.12,-314.46 -1025.02,-334.03 -1563.67,-411.9 -267.08,-38.6 -576.58,-89.97 -859.28,-128.5 -704.53,-96.03 -590.56,-128.88 -1009.27,-966.29l-658.45 -1317.1c-160.48,-323.95 -232.57,-470.3 -623.31,-470.3 -435.46,0 -611.87,588.74 -870.18,1105.37 -224.18,448.34 -423.16,877.49 -657.45,1318.1 -146.7,275.88 -316.41,279.5 -661.42,326.36l-1724.82 250.74c-318.86,44.06 -548.78,51.73 -714.8,272.98 -163.82,218.3 -156.1,496.61 16.43,703.69 133.68,160.46 338.7,339.34 493.56,494.22l1005.42 970.13c168.32,168.33 377.17,294.85 393.49,594.85l-354.36 2107.76c-18.21,109.42 -65.59,309.37 -65.59,428.3z"/>
   <path class="fil0" d="M13842.58 6494.58c0,394.85 216.86,478.96 432.31,696.58l1119.92 1102.59c676.5,516.25 451.1,824.75 267.12,1925.18 -38.39,229.65 -70.8,407.19 -111.12,629.71 -71.93,396.9 -194.41,783.99 79.41,1054.97 338.96,335.46 722.57,66.44 1036.15,-115.8 201.11,-116.87 430.76,-203.76 631.87,-320.63 206.99,-120.29 401.26,-207.04 624.98,-327.52 575.93,-310.15 627.31,-476.02 1358.96,-30.5 199.33,121.37 1782.42,959.31 1898.18,959.31 325.48,0 599.73,-201 599.73,-564.44 0,-241.46 -43.35,-401.8 -80.57,-624.99 -32.3,-193.69 -69.51,-412.32 -110.69,-630.14 -46.88,-247.92 -196.8,-1073.13 -196.8,-1284.87 0,-329.36 282.67,-488.41 450.23,-643.38l1092.66 -1094.57c230.87,-232.04 467.94,-317.99 467.94,-696.22 0,-605.67 -766.6,-591.32 -1369.74,-676.37 -2035.99,-287.08 -1590.02,13.22 -2452.02,-1710.76 -232.84,-465.69 -491.65,-1211.2 -870.18,-1211.2 -424.18,0 -464.14,45.41 -693.8,505.64l-682.03 1364.08c-493.31,986.6 -212.21,771.48 -2061.39,1043.06 -518.64,76.16 -1431.12,53.49 -1431.12,650.27z"/>
   <path class="fil0" d="M36596.76 6494.58c0,416.62 182.66,448.72 450.48,713.68l1092.21 1095.02c506.68,487.68 540.33,336.53 382.49,1280.65 -38.54,230.51 -63.85,404.67 -105.63,635.21 -70.59,389.53 -196.78,973.15 -196.78,1355.44 0,248.17 288.72,493.89 529.17,493.89 223.76,0 521.86,-193.5 671.84,-280.66l1253.55 -651.45c690.12,-413.24 737.92,-381.73 1357.01,-21.95l1256.85 648.15c136.71,73.62 490.31,305.91 646.59,305.91 325.47,0 599.72,-201 599.72,-564.44 0,-438.92 -388.06,-2130.33 -388.06,-2540 0,-291.04 259.55,-517.43 438.22,-655.39 223.63,-172.68 379.75,-356.61 576.02,-552.88 190.88,-190.87 356.23,-355.64 546.79,-546.81 114.66,-115.03 746.35,-591.24 298.41,-1056.86 -81.7,-84.92 -210.77,-146.94 -356.36,-172.8l-1787.26 -258.86c-1029.63,-142.62 -788.92,-102.06 -1526.74,-1577.7 -119.63,-239.25 -226.46,-452.71 -341.02,-682.04 -233.66,-467.71 -262.52,-529.16 -705.56,-529.16 -377.42,0 -628.87,728.57 -858.42,1187.68 -139.44,278.87 -557.94,1201.55 -718.01,1363.39 -228.36,230.88 -1303.25,305.57 -1684.4,361.71 -339.1,49.95 -1076.73,97.39 -1264.83,287.39 -62.11,62.73 -166.28,251.63 -166.28,362.88z"/>
   <path class="fil0" d="M48357.43 6494.58c0,416.62 182.66,448.72 450.48,713.68l1092.21 1095.02c506.68,487.68 540.33,336.53 382.49,1280.65 -38.54,230.51 -63.85,404.67 -105.63,635.21 -70.59,389.53 -196.78,973.15 -196.78,1355.44 0,248.17 288.72,493.89 529.17,493.89 223.76,0 521.86,-193.5 671.84,-280.66l1253.55 -651.45c690.12,-413.24 737.92,-381.73 1357.01,-21.95l1256.85 648.15c136.71,73.62 490.31,305.91 646.59,305.91 325.47,0 599.72,-201 599.72,-564.44 0,-438.92 -388.06,-2130.33 -388.06,-2540 0,-291.04 259.55,-517.43 438.22,-655.39 223.63,-172.68 379.75,-356.61 576.02,-552.88 190.88,-190.87 356.23,-355.64 546.79,-546.81 114.66,-115.03 746.35,-591.24 298.41,-1056.86 -81.7,-84.92 -210.77,-146.94 -356.36,-172.8l-1787.26 -258.86c-1029.63,-142.62 -788.92,-102.06 -1526.74,-1577.7 -119.63,-239.25 -226.46,-452.71 -341.02,-682.04 -233.66,-467.71 -262.52,-529.16 -705.56,-529.16 -377.42,0 -628.87,728.57 -858.42,1187.68 -139.44,278.87 -557.94,1201.55 -718.01,1363.39 -228.36,230.88 -1303.25,305.57 -1684.4,361.71 -339.1,49.95 -1076.73,97.39 -1264.83,287.39 -62.11,62.73 -166.28,251.63 -166.28,362.88z"/>
   <path class="fil0" d="M4070.64 11504.03c0,292.12 275.68,564.44 564.44,564.44 325.74,0 2285.06,-1234.72 2610.56,-1234.72 354.15,0 2286.45,1234.72 2610.55,1234.72 287.73,0 564.45,-272 564.45,-529.17 0,-176.41 -26.94,-246 -55.65,-402.96 -27.9,-152.49 -39.71,-240.36 -65.28,-393.33l-267.84 -1567.57c-89.03,-494.43 202,-641.96 679.81,-1119.82 80.92,-80.93 145.63,-155.11 229.58,-229.03 238.33,-209.88 1102.16,-935.28 1102.16,-1261.45 0,-678.8 -891.35,-640.68 -1373.87,-707.52 -339.23,-46.99 -1574.79,-170.39 -1759.38,-357.29 -124.82,-126.36 -593.94,-1133.18 -712.03,-1369.36 -117.59,-235.18 -235.72,-470.14 -352.75,-705.58 -184.01,-370.21 -238.1,-493.86 -670.31,-493.86 -385.62,0 -625.44,686.43 -834.9,1105.37l-652.5 1323.06c-171.46,264.84 -303.79,272.75 -666.44,321.34l-1724.75 250.8c-319.79,44.19 -547.68,51.46 -714.87,272.92 -431.81,571.95 463.44,1116.01 1021.59,1674.21 1159.88,1160.01 965.39,628.86 608.54,2778.13 -36.61,220.52 -141.11,643.99 -141.11,846.67z"/>
  </g>
 </g>
</svg>
