<svg id="Layer_1" data-name="Layer 1" xmlns="http://www.w3.org/2000/svg" viewBox="0 0 161.9 154.71"><defs><style>.cls-1{fill:#ececec;}.cls-2{fill:#4c4b4c;}.cls-3{fill:#b42164;}.cls-4{fill:#b42063;}.cls-5{fill:#4d4c4d;}.cls-6{fill:#4d4c4c;}.cls-7{fill:#ed2183;}.cls-8{fill:#ebebeb;}.cls-9{fill:#e9eaea;}.cls-10{fill:#eaeaea;}.cls-11{fill:#eae9ea;}.cls-12{fill:#ec2082;}.cls-13{fill:#ed1b80;}.cls-14{fill:#ed1c80;}.cls-15{fill:#f8f8f7;}.cls-16{fill:#dad8d7;}.cls-17{fill:#f7f6f6;}.cls-18{fill:#504f50;}.cls-19{fill:#525252;}</style></defs><title>Two Brushes &amp;amp; bucket</title><path class="cls-1" d="M99.15,117c7.58-1.44,15.46-1.43,23.35-5.17-.8,7.25-1.53,13.88-2.26,20.51-.26,2.35-.36,4.54,3.13,3.79-1,1.13-2.46,2-2,3.84-3.37.94-2.55,4-2.86,6.21-1.05,7.56-2.23,15.15-2.56,22.76-.22,5.11-2.66,7-7.1,7.63-2.13.29-4.27.52-6.41.78a4,4,0,0,1-1.24-3.61c1.07-14.33,1.14-28.72,2.33-43,.11-1.32.15-2.65.3-4C104.33,122.5,103.54,118.9,99.15,117Z" transform="translate(-51.32 -27.66)"/><path class="cls-1" d="M208.28,140.3c-3.87-.65-3.35,2.53-3.62,4.53-1,7.73-2.22,15.47-2.53,23.24-.25,6.17-3.46,8.35-8.81,8.9-1.31.13-2.64.12-4,.18A5.58,5.58,0,0,1,188.1,173c1.19-17.52,1.72-35.07,2.79-52.6a5.86,5.86,0,0,1,1.46-4.11c5.14-1.22,10.46-1.74,16.2-4.42-.75,6.27-1.44,11.89-2.09,17.52-.17,1.48-.23,3-.32,4.47-.15,2.47,1.32,2.69,3.22,2.29Z" transform="translate(-51.32 -27.66)"/><path class="cls-2" d="M183.62,94.53a4.86,4.86,0,0,1,2.22-.13c7.7.77,15.58,1.59,22.57,4.92a8.82,8.82,0,0,1,3.88,3c1.21,1.93,1,4.4.71,6.66l-2.92,24.35c-.16,1.31-.51,2.87-1.75,3.3a2.43,2.43,0,0,1-2.76-1.35,6.73,6.73,0,0,1-.49-3.28,83.36,83.36,0,0,1,1.35-13.09c.25-1.34.32-3.1-.92-3.65a3.07,3.07,0,0,0-1.94,0,120.74,120.74,0,0,1-56.07.09c-1-.23-2.16-.41-2.82.33a2.82,2.82,0,0,0-.37,2.24l6,49.69a10,10,0,0,0,1.44,4.81c1.79,2.44,4.93,2.67,7.67,3.07q5.07.76,10.19,1a110,110,0,0,0,15.4-.3c2.29-.22,4.58-.48,6.88-.7,2.14-.21,4.39-.51,6.16-1.85a6.66,6.66,0,0,0,.78-.72c1.22-1.39,1.5-3.36,1.72-5.2l2.93-24.51c.16-1.33.47-2.89,1.69-3.44s2.79.38,3.34,1.65a7.89,7.89,0,0,1,.23,4.1l-3.09,25.49c-.24,2-.52,4.07-1.74,5.65a9.45,9.45,0,0,1-4.6,2.84A55.26,55.26,0,0,1,185.11,182c-10.53.73-21.24.73-31.49-1.82a12.29,12.29,0,0,1-5.82-2.72c-2.25-2.19-2.7-5.6-3-8.72q-3-28.74-7-57.36c-.53-3.71-.93-8.53,2.64-10.88,4.06-2.68,9-3.75,13.65-4.81,1.33-.3,3-.51,3.85.53s.39,2.69-.63,3.55a8.35,8.35,0,0,1-3.69,1.45,57.39,57.39,0,0,0-8.09,2.52,2.67,2.67,0,0,0-1.69,1.33c-.42,1.2.93,2.24,2.1,2.74,5,2.12,10.43,2.82,15.82,3.31,14.17,1.27,28.7,1.16,42.31-3,1.35-.41,3-1.35,2.7-2.74-.18-.81-1-1.31-1.76-1.66-5.68-2.64-12.17-2.71-18.31-3.93a6.46,6.46,0,0,1-3.41-1.47,2.42,2.42,0,0,1-.22-3.36A2,2,0,0,1,183.62,94.53Z" transform="translate(-51.32 -27.66)"/><path class="cls-2" d="M121.37,140c1.82,1,1.68,2.51,1.45,4.29-1.2,9.39-2.47,18.78-3.34,28.21-.33,3.56-2,5.4-5,6.6a38.73,38.73,0,0,1-11.14,2.52c-12,1-23.9,1.39-35.71-1.44-5.16-1.25-8-3.58-8.61-9.67-2.08-20.82-4.88-41.57-7.56-62.33-.63-4.85,1.58-7.52,5.68-9.23,8.1-3.4,16.67-4.23,25.32-4.64,1.1,2.23-.18,3.52-1.84,4.65-5.46,2-11.48,1.29-16.94,3.35-2.07.78-5.48.7-5.56,3.25-.1,2.72,3.35,2.62,5.4,3.31a41.44,41.44,0,0,0,12.17,2.08c2.11.34,4.18,1,6.37.72,4.88,0,9.75,0,14.62,0,2.45.4,4.76-.54,7.13-.77a34.82,34.82,0,0,0,10.68-1.74c2.37-.75,6.25-.66,6.26-3.66,0-2.61-3.83-2.42-6-3.37-1.79-.79-4-.5-5.56-1.86-.7-2.11-.27-3.66,2.09-4.27l.49.08c14.35,2.58,16,4.43,14.55,18.5-.72,7.22-1.16,14.5-2.9,21.6-4,1.59-4.15-1.39-4.26-3.84-.21-4.46.75-8.86,1.24-13.28.37-3.29,0-4.83-3.76-3.57-5.68,1.92-11.71,1.69-17.54,2.71a117.31,117.31,0,0,1-36.18-2.45c-4.84-1.09-4.85-1.12-4.33,3.71,1.67,15.54,3.73,31,5.5,46.56.88,7.73,1.75,8.61,9.34,9.79,9.58,1.49,19.22,1.16,28.84.32a8,8,0,0,1,1-.17c10.14-1.06,10.9-1.89,11.79-12,.57-6.42,1.59-12.78,2.3-19.19C117.53,142.57,117.5,139.36,121.37,140Z" transform="translate(-51.32 -27.66)"/><path class="cls-3" d="M104.65,112.05c-2.47.06-4.77,1.53-7.33.93,5.16-7.65,7.72-16.45,10.83-25,2.39-6.57-1.6-11.26-8.47-10.37.14,2.13,1.92,3.8,1.6,6.11-.48,3.52-3,5.94-7.21,6.31-1.47.13-3.3-.39-4,1.27C87,98.46,82.65,105.12,81.41,113c-2.18.49-4.13-.52-6.18-.88-.26-5.39,2.38-9.64,5.34-13.78a6.53,6.53,0,0,0,1.85-4c2.65-4,4.09-8.65,6-13,1.35-3.11,2.93-6.46,6.11-7.55,4.17-1.43,5.28-4.6,6.52-8q3.27-9.11,6.59-18.22c2-.84,3.47-.37,4.4,1.61-.31,5.23-3.18,9.65-4.65,14.52-.62,2-1.82,3.9-1.48,6.25,4-6.74,5.86-14.48,9.34-21.48,1.66-1.55,3.45-2.69,5.86-2-3.2,8.49-6.44,17-9.57,25.48-.52,1.42-1.79,2.82-.32,4.58,4.16,5,3.49,10.33,1.09,15.82A28.06,28.06,0,0,0,111.23,96a6.75,6.75,0,0,0-1.71,3.82C109.35,104.45,108.12,108.69,104.65,112.05Z" transform="translate(-51.32 -27.66)"/><path class="cls-4" d="M157.22,99.33V95.24c.05-3.29.15-6.59.13-9.89,0-2.93.56-5.87,2.85-7.62,3.07-2.36,3.3-5.25,3.21-8.66-.17-6.59-.06-13.19-.06-19.79,1.2-1.32,2.58-1.22,4-.51,2.15,2.77,1.21,6,1.39,9.12.22,3.79-.28,7.61.65,11.39.66-6.74.45-13.51.41-20.28a9.09,9.09,0,0,1,5.39-6.93c0,9.31.15,18.63.09,27.94,0,2.5.38,4.19,2.86,5.62,3.7,2.12,5.32,5.75,5.2,10.12-.07,2.82.07,5.65.12,8.48v4.06a17.25,17.25,0,0,1-.09,14.5l-4.15.17c-1.58-1.82-1.24-4-1.26-6.17-.07-6.63.14-13.27-.08-19.89-.24-7-4.93-9.69-11.49-6.78,5.69,6.45,5.49,8.87-1.58,14.13-2.12,1.58-1.93,3.61-2.13,5.74-.37,4.05,1.11,8.31-1.32,12.13l-4.1-.35A13.24,13.24,0,0,1,157.22,99.33Z" transform="translate(-51.32 -27.66)"/><path class="cls-5" d="M121.1,46.32l-5.76,2.81a2.86,2.86,0,0,1-3.93,0l-3.78-1.68c-4.49-.7-5.69-3.46-4.74-7.57.27-1.14.43-2.3.78-3.41,2.06-6.57,5.66-9.84,9.31-8.52,9.82,3.55,12.37,7.81,9.35,15.65C122,44.53,121.52,45.42,121.1,46.32Z" transform="translate(-51.32 -27.66)"/><path class="cls-6" d="M175.23,42.07c-1.36,2.22-2.5,4.63-4.9,6-.57,1.39-1.46,2-2.9,1.13l-4.08.07c-6.42-.34-8.19-2.83-8-11.14.18-6.23,1.93-8.88,6-9,9.15-.33,13.35,2.35,14,9A35.46,35.46,0,0,1,175.23,42.07Z" transform="translate(-51.32 -27.66)"/><path class="cls-7" d="M161.4,112.12c0-3.65,0-7.29,0-10.94,0-4-.92-7.75,4.9-9.32,4.18-1.12,4-7.08.23-9.6a29.3,29.3,0,0,0-3.74-1.78c3.71-3.22,7.41-4.35,12-2.32,4.32,1.92,4.76,5.4,4.69,9.44-.15,8.45-.1,16.91-.14,25.36C173.29,113.11,167.3,113.61,161.4,112.12Z" transform="translate(-51.32 -27.66)"/><path class="cls-8" d="M183.41,112.79l.09-14.5c7.42.67,14.87,1.26,21.88,4,1.57.63,3.91,1.07,3.83,3.33s-2.28,2.72-3.92,3.33C198.25,111.59,190.88,112.5,183.41,112.79Z" transform="translate(-51.32 -27.66)"/><path class="cls-9" d="M157.22,99.33q0,6.21.08,12.44a40.59,40.59,0,0,1-13.25-3.44c-1.21-.58-2.51-1.21-2.58-2.7s1.35-2.08,2.52-2.68C148.14,100.81,152.72,100.19,157.22,99.33Z" transform="translate(-51.32 -27.66)"/><path class="cls-7" d="M81.41,113a2.21,2.21,0,0,1-1-3.24c2.92-6.5,5.67-13.08,8.49-19.63.56-1.31,1.28-2.4,3-1.72,3.6,1.44,6.17.16,7.78-3.13s-.41-5.64-2.9-7.89c3.45-3,7-2,9.92.17s4.54,5.54,3.21,9.24c-2.73,7.65-5.87,15.15-8.68,22.76-.74,2-2.44,2.52-3.94,3.44Z" transform="translate(-51.32 -27.66)"/><path class="cls-10" d="M80.57,98.32c-.93,4.92-3.88,9.06-5.34,13.78a44.77,44.77,0,0,1-16-3.22c-1.59-.59-3.84-1.16-3.7-3.47.12-2,2.15-2.44,3.61-3C66,99.68,73.29,99,80.57,98.32Z" transform="translate(-51.32 -27.66)"/><path class="cls-11" d="M104.65,112.05q2.43-6.14,4.87-12.26A34.44,34.44,0,0,1,120.88,103c3.34,1.71,3.27,3.53,0,5.13A40.85,40.85,0,0,1,104.65,112.05Z" transform="translate(-51.32 -27.66)"/><path class="cls-12" d="M111.41,49.13h3.93c-1.39,7.52-5.08,14.21-7.63,21.32a2.16,2.16,0,0,1-3.15,1.45c-1.85-.82-.85-2.14-.41-3.34Q107.79,58.86,111.41,49.13Z" transform="translate(-51.32 -27.66)"/><path class="cls-13" d="M94.21,84.89c-1.07-.31-1.78-1-1.54-2.08a1.65,1.65,0,0,1,2.13-1.38,1.62,1.62,0,0,1,1.3,1.76A1.77,1.77,0,0,1,94.21,84.89Z" transform="translate(-51.32 -27.66)"/><path class="cls-7" d="M167.43,49.21a16.79,16.79,0,0,1,2.6-1c.86,0,1,1.64,1.1,2.22.79,4.13,0,8.28.19,12.44.14,2.4,0,4.78,0,7.18,0,1.54,0,3.14-2.23,3-2-.15-1.74-1.68-1.74-3C167.37,63.1,167.41,56.15,167.43,49.21Z" transform="translate(-51.32 -27.66)"/><path class="cls-14" d="M165.17,86.85c-.23,1.4-.85,2.11-2,2a1.74,1.74,0,0,1,.1-3.47C164.48,85.32,164.83,86.22,165.17,86.85Z" transform="translate(-51.32 -27.66)"/><path class="cls-15" d="M108.16,36.8c.73-2.14,1.14-5,4.16-4.52,2.85.51,6.05,1.43,6.89,4.9a6.21,6.21,0,0,1-2.8,6.92c-1.41,1-3,1.66-4.56.29s.35-2.35.69-3.45c.44-1.41,1.62-2.81.22-4.1-1.68-1.53-2.61.06-3.53,1.23C108.23,38.19,107.77,37.85,108.16,36.8Z" transform="translate(-51.32 -27.66)"/><path class="cls-16" d="M108.16,36.8l1.07,1.27a3,3,0,0,1-1.73,2.62A3.3,3.3,0,0,1,108.16,36.8Z" transform="translate(-51.32 -27.66)"/><path class="cls-17" d="M160.61,43.49a6.52,6.52,0,0,1-1.15-5.25c.37-2-.52-5,3.07-5.12,3.35-.12,6.77-.4,8.26,3.67a6,6,0,0,1-2.16,7.45,3,3,0,0,1-3.22.66c-1.16-.62-.11-1.74-.18-2.64a16.45,16.45,0,0,1,.07-2c.06-1.38,0-2.84-1.76-3s-2.09,1.18-2.22,2.62C161.23,40.82,161,41.71,160.61,43.49Z" transform="translate(-51.32 -27.66)"/><path class="cls-18" d="M161,124.26a37.62,37.62,0,0,1-11.19-2c-1.54-.48-3-1-2.47-2.92s2.09-1.39,3.3-.94c4.4,1.66,9,1.75,13.61,2.21,1.56.15,3.91-.06,3.71,2.19s-2.47,1.6-4.06,1.6C163.09,124.4,162.27,124.33,161,124.26Z" transform="translate(-51.32 -27.66)"/><path class="cls-19" d="M175.85,122.45c-.48,2.25-2.22,1.93-3.62,2-1.24.08-2.45-.4-2.25-1.94.27-2.07,2.13-1.8,3.53-1.93A2,2,0,0,1,175.85,122.45Z" transform="translate(-51.32 -27.66)"/><path class="cls-18" d="M75.25,124.28c-3.77.09-7.92-.91-12-2.17-1.42-.44-2.4-1.27-1.85-2.89.51-1.46,1.84-1.32,2.92-.91,4.55,1.71,9.34,1.85,14.08,2.31,1.55.16,3.83-.09,3.58,2.29-.2,1.9-2.21,1.53-3.66,1.51C77.46,124.41,76.64,124.35,75.25,124.28Z" transform="translate(-51.32 -27.66)"/><path class="cls-19" d="M87.07,120.56c1.34,0,2.58.28,2.67,1.72.14,2.25-1.73,2-3.16,2.18-1.26.15-2.56-.19-2.63-1.6C83.84,120.73,85.75,120.89,87.07,120.56Z" transform="translate(-51.32 -27.66)"/></svg>