<?xml version="1.0" encoding="UTF-8" standalone="no"?>
<svg xmlns:dc="http://purl.org/dc/elements/1.1/" xmlns:cc="http://creativecommons.org/ns#" xmlns:rdf="http://www.w3.org/1999/02/22-rdf-syntax-ns#" xmlns:svg="http://www.w3.org/2000/svg" xmlns="http://www.w3.org/2000/svg" xmlns:sodipodi="http://sodipodi.sourceforge.net/DTD/sodipodi-0.dtd" xmlns:inkscape="http://www.inkscape.org/namespaces/inkscape" inkscape:version="1.0 (4035a4fb49, 2020-05-01)" sodipodi:docname="02.svg" id="svg59" version="1.1" viewBox="0 0 292.4 194.1" xml:space="preserve">
	<metadata id="metadata63">
		<RDF>
			<Work rdf:about="">
				<format>
					image/svg+xml
				</format>
				<type rdf:resource="http://purl.org/dc/dcmitype/StillImage" />
			</Work>
		</RDF>
	</metadata>
	<namedview inkscape:current-layer="svg59" inkscape:window-maximized="1" inkscape:window-y="-6" inkscape:window-x="-6" inkscape:cy="162.31009" inkscape:cx="209.32854" inkscape:zoom="1.2622359" showgrid="false" id="namedview61" inkscape:window-height="706" inkscape:window-width="1366" inkscape:pageshadow="2" inkscape:pageopacity="0" guidetolerance="10" gridtolerance="10" objecttolerance="10" borderopacity="1" bordercolor="#666666" pagecolor="#ffffff" />
	<defs id="defs4">
		<style id="style2" type="text/css">
			<![CDATA[
			.str0 {stroke:#C9CCCE;stroke-width:0.2725}
			.str1 {stroke:#C9CCCE;stroke-width:0.2725;stroke-linecap:round;stroke-linejoin:round}
			.fil0 {fill:none}
			.fil2 {fill:#D9DBDD}
			.fil3 {fill:#3F4446;fill-rule:nonzero}
			.fil1 {fill:#C9CCCE;fill-rule:nonzero}
			]]>
		</style>
	</defs>
	<g transform="matrix(15.865828,0,0,13.292307,21.260417,0.11819426)" id="Layer_x0020_1">
		<metadata id="CorelCorpID_0Corel-Layer" />
		<g id="_02.cdr">
			<line y2="14.2094" x2="5.1591001" y1="10.2991" x1="5.1591001" class="fil0 str0" id="_94865008" />
			<g id="g9">
				<path d="M 13.7928,0.9856 13.6571,1.1219 H 1.7622 V 0.8493 H 13.6571 Z M 13.6571,0.8493 h 0.1357 v 0.1363 z m 0,13.6328 -0.1357,-0.1363 V 0.9856 h 0.2714 v 13.3602 z m 0.1357,-0.1363 v 0.1363 h -0.1357 z m -12.1663,0 0.1357,-0.1363 h 11.8949 v 0.2726 H 1.7622 Z m 0.1357,0.1363 H 1.6265 v -0.1363 z m 0,-13.6328 0.1357,0.1363 V 14.3458 H 1.6265 V 0.9856 Z M 1.6265,0.9856 V 0.8493 h 0.1357 z" class="fil1" id="_94865200" />
			</g>
			<rect id="rect11" height="0.60191" width="11.6361" y="0.98563898" x="1.89157" class="fil2" />
			<rect id="rect13" ry="1.6695" rx="1.6695" height="0.85987097" width="12.9554" y="0.136274" x="1.2319" class="fil2 str0" />
			<g id="g17">
				<path id="path15" d="M 13.795,5.5178 13.6571,5.6542 H 1.7622 V 5.3814 H 13.6571 Z M 13.6571,5.3814 h 0.1379 v 0.1364 z m 0,5.0594 -0.1379,-0.1364 V 5.5178 h 0.2758 v 4.7866 z m 0.1379,-0.1364 v 0.1364 h -0.1379 z m -12.1707,0 0.1379,-0.1364 h 11.8949 v 0.2728 H 1.7622 Z m 0.1379,0.1364 H 1.6243 v -0.1364 z m 0,-5.0594 0.1379,0.1364 v 4.7866 H 1.6243 V 5.5178 Z M 1.6243,5.5178 V 5.3814 h 0.1379 z" class="fil3" />
			</g>
			<line id="line19" y2="14.3457" x2="15.2829" y1="14.3457" x1="0.1363" class="fil0 str1" />
			<rect id="rect21" ry="0.77399999" rx="0.77399999" height="2.4716101" width="1.64442" y="1.94216" x="3.8136301" class="fil2" />
			<path id="path23" d="m 4.013,1.8059 h 1.2457 c 0.09,0 0.1727,0.0353 0.2334,0.092 0.0631,0.059 0.1022,0.1407 0.1022,0.2308 V 4.2272 C 5.5943,4.3173 5.5552,4.399 5.4921,4.458 5.4314,4.5148 5.3487,4.55 5.2587,4.55 H 4.013 C 3.923,4.55 3.8402,4.5148 3.7796,4.458 3.7165,4.399 3.6773,4.3173 3.6773,4.2272 V 2.1287 C 3.6773,2.0386 3.7165,1.9569 3.7796,1.8979 3.8402,1.8412 3.923,1.8059 4.013,1.8059 Z M 5.2587,2.0784 H 4.013 C 3.9934,2.0784 3.9764,2.0852 3.9648,2.096 3.9556,2.1046 3.9499,2.1162 3.9499,2.1287 v 2.0985 c 0,0.0126 0.0058,0.0242 0.0149,0.0327 0.0116,0.0109 0.0286,0.0176 0.0482,0.0176 h 1.2457 c 0.0196,0 0.0366,-0.0068 0.0482,-0.0176 C 5.316,4.2514 5.3218,4.2398 5.3218,4.2272 V 2.1287 C 5.3218,2.1162 5.316,2.1046 5.3069,2.096 5.2953,2.0852 5.2783,2.0784 5.2587,2.0784 Z" class="fil1" />
			<rect id="rect25" ry="0.77399999" rx="0.77399999" height="2.4716101" width="1.64442" y="1.94216" x="6.8874002" class="fil2" />
			<path id="path27" d="m 7.0867,1.8059 h 1.2458 c 0.09,0 0.1727,0.0353 0.2334,0.092 0.063,0.059 0.1022,0.1407 0.1022,0.2308 V 4.2272 C 8.6681,4.3173 8.6289,4.399 8.5659,4.458 8.5052,4.5148 8.4225,4.55 8.3325,4.55 H 7.0867 C 6.9967,4.55 6.914,4.5148 6.8533,4.458 6.7903,4.399 6.7511,4.3173 6.7511,4.2272 V 2.1287 C 6.7511,2.0386 6.7903,1.9569 6.8533,1.8979 6.914,1.8412 6.9967,1.8059 7.0867,1.8059 Z M 8.3325,2.0784 H 7.0867 C 7.0672,2.0784 7.0502,2.0852 7.0386,2.096 7.0294,2.1046 7.0237,2.1162 7.0237,2.1287 v 2.0985 c 0,0.0126 0.0057,0.0242 0.0149,0.0327 0.0116,0.0109 0.0286,0.0176 0.0481,0.0176 h 1.2458 c 0.0196,0 0.0366,-0.0068 0.0481,-0.0176 C 8.3898,4.2514 8.3955,4.2398 8.3955,4.2272 V 2.1287 C 8.3955,2.1162 8.3898,2.1046 8.3806,2.096 8.3691,2.0852 8.3521,2.0784 8.3325,2.0784 Z" class="fil1" />
			<rect id="rect29" ry="0.77399999" rx="0.77399999" height="2.4716101" width="1.64442" y="1.94216" x="9.9611502" class="fil2" />
			<path id="path31" d="m 10.1605,1.8059 h 1.2457 c 0.09,0 0.1728,0.0353 0.2334,0.092 0.0631,0.059 0.1023,0.1407 0.1023,0.2308 v 2.0985 c 0,0.0901 -0.0392,0.1718 -0.1023,0.2308 C 11.579,4.5148 11.4962,4.55 11.4062,4.55 H 10.1605 C 10.0705,4.55 9.9878,4.5148 9.9271,4.458 9.864,4.399 9.8249,4.3173 9.8249,4.2272 V 2.1287 c 0,-0.0901 0.0391,-0.1718 0.1022,-0.2308 0.0607,-0.0567 0.1434,-0.092 0.2334,-0.092 z m 1.2457,0.2725 h -1.2457 c -0.0196,0 -0.0366,0.0068 -0.0482,0.0176 -0.0091,0.0086 -0.0149,0.0202 -0.0149,0.0327 v 2.0985 c 0,0.0126 0.0058,0.0242 0.0149,0.0327 0.0116,0.0109 0.0286,0.0176 0.0482,0.0176 h 1.2457 c 0.0196,0 0.0366,-0.0068 0.0482,-0.0176 0.0091,-0.0085 0.0149,-0.0201 0.0149,-0.0327 V 2.1287 C 11.4693,2.1162 11.4636,2.1046 11.4544,2.096 11.4428,2.0852 11.4258,2.0784 11.4062,2.0784 Z" class="fil1" />
			<g id="g35">
				<path id="path33" d="m 5.2764,6.8096 v 0 H 3.9953 V 6.537 H 5.2764 Z M 5.6172,6.8687 H 5.3456 v 0 L 5.3459,6.8662 5.3456,6.8632 5.3453,6.8603 5.3446,6.8581 5.3444,6.8557 5.3432,6.8528 5.3427,6.8507 5.3416,6.8482 5.3402,6.8454 5.3394,6.8433 5.3376,6.8411 5.336,6.8384 5.3344,6.8366 5.332,6.8335 5.3299,6.8312 5.3279,6.8292 5.326,6.8275 5.3228,6.8251 5.3203,6.8229 5.3176,6.8212 5.3146,6.8193 5.3113,6.8178 5.3083,6.8161 5.3056,6.8149 5.3021,6.8135 5.299,6.8125 5.2957,6.8115 5.2921,6.8109 5.2879,6.8103 5.2846,6.8095 5.2805,6.8093 5.2764,6.8096 V 6.537 l 0.0169,9e-4 0.0167,0.0012 0.0171,0.0018 0.016,0.0028 0.0162,0.0038 0.0161,0.0042 0.0159,0.0052 0.0151,0.0056 0.0155,0.0066 0.0146,0.0071 0.0139,0.0079 0.0136,0.0083 0.0133,0.0091 0.0131,0.0096 0.0116,0.0098 0.0125,0.0113 0.0116,0.0116 0.0107,0.0119 0.0098,0.0117 0.01,0.0134 0.009,0.0133 0.0082,0.014 L 5.582,6.723 5.5888,6.7374 5.5951,6.7527 5.601,6.7686 5.6054,6.7843 5.6098,6.8007 5.6127,6.8177 5.615,6.8344 5.6163,6.8512 Z M 5.3456,9.0672 v 0 -2.1985 H 5.6172 V 9.0672 Z M 5.2764,9.399 v -0.2726 0 l 0.0041,3e-4 0.0041,-2e-4 0.0033,-8e-4 0.0042,-6e-4 0.0036,-6e-4 L 5.299,9.1235 5.3021,9.1225 5.3051,9.1211 5.3083,9.1198 5.3118,9.1182 5.3146,9.1167 5.3171,9.1153 5.3203,9.113 5.3228,9.1109 5.326,9.1084 5.3284,9.1063 5.3299,9.1048 5.332,9.1025 5.3344,9.0999 5.336,9.0975 5.3376,9.0949 5.3394,9.0926 l 8e-4,-0.002 0.0014,-0.0029 0.0011,-0.0025 5e-4,-0.0021 0.0012,-0.0029 2e-4,-0.0024 7e-4,-0.0022 3e-4,-0.0029 3e-4,-0.003 -3e-4,-0.0025 H 5.6172 L 5.6163,9.0847 5.615,9.1015 5.6127,9.1182 5.6098,9.1352 5.6054,9.1516 5.601,9.1673 5.5951,9.1832 5.5888,9.1985 5.582,9.213 5.5738,9.2278 5.5656,9.2419 5.5566,9.2551 5.5466,9.2681 5.5368,9.2803 5.5261,9.2922 5.514,9.3043 5.502,9.315 5.4904,9.3249 5.4773,9.3344 5.4645,9.3431 5.4504,9.3519 5.436,9.3598 5.4219,9.3668 5.4069,9.3735 5.3913,9.3791 5.3754,9.3843 5.3593,9.3885 5.3431,9.3923 5.3271,9.3951 5.31,9.3969 5.2933,9.3981 Z M 3.9953,9.1264 v 0 H 5.2764 V 9.399 H 3.9953 Z M 3.6545,9.0672 h 0.2716 v 0 l -3e-4,0.0025 3e-4,0.003 3e-4,0.0029 7e-4,0.0022 2e-4,0.0024 0.0012,0.0029 5e-4,0.0021 0.0011,0.0025 0.0014,0.0029 8e-4,0.002 0.0018,0.0023 0.0016,0.0026 0.0016,0.0024 0.0024,0.0026 0.0021,0.0023 0.0015,0.0015 0.0024,0.0021 0.0032,0.0025 0.0025,0.0021 0.0032,0.0023 0.0025,0.0014 0.0028,0.0015 0.0035,0.0016 0.0032,0.0013 0.003,0.0014 0.0031,10e-4 0.0033,10e-4 0.0036,6e-4 0.0042,6e-4 0.0033,8e-4 0.0041,2e-4 0.0041,-3e-4 V 9.399 L 3.9784,9.3981 3.9617,9.3969 3.9446,9.3951 3.9286,9.3923 3.9124,9.3885 3.8963,9.3843 3.8804,9.3791 3.8648,9.3735 3.8498,9.3668 3.8357,9.3598 3.8213,9.3519 3.8072,9.3431 3.7944,9.3344 3.7813,9.3249 3.7697,9.315 3.7577,9.3043 3.7456,9.2922 3.7349,9.2803 3.7251,9.2681 3.7151,9.2551 3.7061,9.2419 3.6979,9.2278 3.6897,9.213 3.6829,9.1985 3.6766,9.1832 3.6707,9.1673 3.6663,9.1516 3.6619,9.1352 3.659,9.1182 3.6567,9.1015 3.6554,9.0847 Z M 3.9261,6.8687 v 0 2.1985 H 3.6545 V 6.8687 Z M 3.9953,6.537 v 0.2726 0 l -0.0041,-3e-4 -0.0041,2e-4 -0.0033,8e-4 -0.0042,6e-4 L 3.976,6.8115 3.9727,6.8125 3.9696,6.8135 3.9661,6.8149 3.9634,6.8161 3.9604,6.8178 3.9571,6.8193 3.9541,6.8212 3.9514,6.8229 3.9489,6.8251 3.9457,6.8275 3.9438,6.8292 3.9418,6.8312 3.9397,6.8335 3.9373,6.8366 3.9357,6.8384 3.9341,6.8411 3.9323,6.8433 3.9315,6.8454 3.9301,6.8482 3.929,6.8507 l -5e-4,0.0021 -0.0012,0.0029 -2e-4,0.0024 -7e-4,0.0022 -3e-4,0.0029 -3e-4,0.003 3e-4,0.0025 H 3.6545 L 3.6554,6.8512 3.6567,6.8344 3.659,6.8177 3.6619,6.8007 3.6663,6.7843 3.6707,6.7686 3.6766,6.7527 3.6829,6.7374 3.6897,6.723 3.6979,6.7081 3.7061,6.6941 3.7151,6.6808 3.7251,6.6674 3.7349,6.6557 3.7456,6.6438 3.7572,6.6322 3.7697,6.6209 3.7813,6.6111 3.7944,6.6015 3.8077,6.5924 3.8213,6.5841 3.8352,6.5762 3.8498,6.5691 3.8653,6.5625 3.8804,6.5569 3.8963,6.5517 3.9124,6.5475 3.9286,6.5437 3.9446,6.5409 3.9617,6.5391 3.9784,6.5379 Z" class="fil3" />
			</g>
			<g id="g39">
				<path id="path37" d="m 8.3501,6.8096 v 0 H 7.0691 V 6.537 h 1.281 z M 8.6909,6.8687 H 8.4193 v 0 L 8.4196,6.8662 8.4193,6.8632 8.419,6.8603 8.4183,6.8581 8.4181,6.8557 8.4169,6.8528 8.4164,6.8507 8.4153,6.8482 8.4139,6.8454 8.4131,6.8433 8.4113,6.8411 8.4092,6.8378 8.4082,6.8361 8.4064,6.834 8.4041,6.8317 8.4016,6.8292 8.3998,6.8275 8.3965,6.8251 8.3941,6.8229 8.3918,6.8212 8.3883,6.8193 8.385,6.8178 8.382,6.8161 8.3793,6.8149 8.3758,6.8135 8.3727,6.8125 8.3694,6.8115 8.3658,6.8109 8.3616,6.8103 8.3583,6.8095 8.3542,6.8093 8.3501,6.8096 V 6.537 L 8.367,6.5379 8.3837,6.5391 8.4008,6.5409 8.4168,6.5437 8.433,6.5475 8.4491,6.5517 8.465,6.5569 8.4801,6.5625 8.4956,6.5691 8.5102,6.5762 8.5241,6.5841 8.5372,6.5924 8.5511,6.6015 8.5641,6.6111 8.5758,6.6209 8.5882,6.6322 8.5993,6.6433 8.61,6.6552 8.6204,6.6679 8.6308,6.6814 8.6393,6.6941 8.6475,6.7081 8.6557,6.723 8.6625,6.7374 8.6688,6.7527 8.6747,6.7686 8.6791,6.7843 8.6835,6.8007 8.6864,6.8177 8.6887,6.8344 8.69,6.8512 Z M 8.4193,9.0672 v 0 -2.1985 H 8.6909 V 9.0672 Z M 8.3501,9.399 v -0.2726 0 l 0.0041,3e-4 0.0041,-2e-4 0.0033,-8e-4 0.0042,-6e-4 0.0036,-6e-4 L 8.3727,9.1235 8.3758,9.1225 8.3788,9.1211 8.382,9.1198 8.3855,9.1182 8.3883,9.1167 8.3913,9.1148 8.3941,9.113 8.3965,9.1109 8.3998,9.1084 8.4021,9.1068 8.4041,9.1043 8.4064,9.102 8.4077,9.1004 8.4092,9.0981 8.4113,9.0949 8.4131,9.0926 l 8e-4,-0.002 0.0014,-0.0029 0.0011,-0.0025 5e-4,-0.0021 0.0012,-0.0029 2e-4,-0.0024 7e-4,-0.0022 3e-4,-0.0029 3e-4,-0.003 -3e-4,-0.0025 H 8.6909 L 8.69,9.0847 8.6887,9.1015 8.6864,9.1182 8.6835,9.1352 8.6791,9.1516 8.6747,9.1673 8.6688,9.1832 8.6625,9.1985 8.6557,9.213 8.6475,9.2278 8.6393,9.2419 8.6308,9.2545 8.6209,9.2676 8.61,9.2808 8.5993,9.2927 8.5877,9.3038 8.5758,9.315 8.5641,9.3249 8.5511,9.3344 8.5377,9.3436 8.5241,9.3519 8.5097,9.3598 8.4956,9.3668 8.4806,9.3735 8.465,9.3791 8.4491,9.3843 8.433,9.3885 8.4168,9.3923 8.4008,9.3951 8.3837,9.3969 8.367,9.3981 Z M 7.0691,9.1264 v 0 h 1.281 V 9.399 H 7.0691 Z M 6.7283,9.0672 h 0.2716 v 0 l -3e-4,0.0025 3e-4,0.003 3e-4,0.0029 7e-4,0.0022 2e-4,0.0024 0.0012,0.0029 5e-4,0.0021 0.0011,0.0025 0.0014,0.0029 8e-4,0.002 0.0018,0.0023 0.0021,0.0032 0.0015,0.0023 0.0013,0.0016 0.0023,0.0023 0.002,0.0025 0.0023,0.0016 0.0033,0.0025 0.0024,0.0021 0.0028,0.0018 0.003,0.0019 0.0028,0.0015 0.0035,0.0016 0.0032,0.0013 0.003,0.0014 0.0031,10e-4 0.0033,10e-4 0.0036,6e-4 0.0042,6e-4 0.0033,8e-4 0.0041,2e-4 0.0041,-3e-4 V 9.399 L 7.0522,9.3981 7.0355,9.3969 7.0184,9.3951 7.0024,9.3923 6.9862,9.3885 6.9701,9.3843 6.9542,9.3791 6.9386,9.3735 6.9236,9.3668 6.9095,9.3598 6.8951,9.3519 6.8815,9.3436 6.8681,9.3344 6.8551,9.3249 6.8434,9.315 6.8315,9.3038 6.8199,9.2927 6.8092,9.2808 6.7983,9.2676 6.7884,9.2545 6.7799,9.2419 6.7717,9.2278 6.7635,9.213 6.7567,9.1985 6.7504,9.1832 6.7445,9.1673 6.7401,9.1516 6.7357,9.1352 6.7328,9.1182 6.7305,9.1015 6.7292,9.0847 Z M 6.9999,6.8687 v 0 2.1985 H 6.7283 V 6.8687 Z M 7.0691,6.537 v 0.2726 0 l -0.0041,-3e-4 -0.0041,2e-4 -0.0033,8e-4 -0.0042,6e-4 -0.0036,6e-4 L 7.0465,6.8125 7.0434,6.8135 7.0399,6.8149 7.0372,6.8161 7.0342,6.8178 7.0309,6.8193 7.0274,6.8212 7.0251,6.8229 7.0227,6.8251 7.0194,6.8275 7.0176,6.8292 7.0151,6.8317 7.0128,6.834 7.011,6.8361 7.01,6.8378 7.0079,6.8411 7.0061,6.8433 7.0053,6.8454 7.0039,6.8482 7.0028,6.8507 l -5e-4,0.0021 -0.0012,0.0029 -2e-4,0.0024 -7e-4,0.0022 -3e-4,0.0029 -3e-4,0.003 3e-4,0.0025 H 6.7283 L 6.7292,6.8512 6.7305,6.8344 6.7328,6.8177 6.7357,6.8007 6.7401,6.7843 6.7445,6.7686 6.7504,6.7527 6.7567,6.7374 6.7635,6.723 6.7717,6.7081 6.7799,6.6941 6.7884,6.6814 6.7988,6.6679 6.8092,6.6552 6.8199,6.6433 6.831,6.6322 6.8434,6.6209 6.8551,6.6111 6.8681,6.6015 6.882,6.5924 6.8951,6.5841 6.909,6.5762 6.9236,6.5691 6.9391,6.5625 6.9542,6.5569 6.9701,6.5517 6.9862,6.5475 7.0024,6.5437 7.0184,6.5409 7.0355,6.5391 7.0522,6.5379 Z" class="fil3" />
			</g>
			<g id="g43">
				<path id="path41" d="m 11.4239,6.8096 v 0 H 10.1428 V 6.537 h 1.2811 z m 0.3408,0.0591 h -0.2716 v 0 l 3e-4,-0.0025 -3e-4,-0.003 -3e-4,-0.0029 -7e-4,-0.0022 -2e-4,-0.0024 L 11.4907,6.8528 11.4902,6.8507 11.4891,6.8482 11.4877,6.8454 11.4869,6.8433 11.4851,6.8411 11.4835,6.8384 11.4819,6.8366 11.4795,6.8335 11.4774,6.8312 11.4754,6.8292 11.4735,6.8275 11.4703,6.8251 11.4678,6.8229 11.4651,6.8212 11.4621,6.8193 11.4588,6.8178 11.4558,6.8161 11.4531,6.8149 11.4496,6.8135 l -0.0031,-0.001 -0.0033,-0.001 -0.0036,-6e-4 -0.0042,-6e-4 -0.0033,-8e-4 -0.0041,-2e-4 -0.0041,3e-4 V 6.537 l 0.0169,9e-4 0.0167,0.0012 0.0171,0.0018 0.016,0.0028 0.0162,0.0038 0.0161,0.0042 0.0159,0.0052 0.0151,0.0056 0.0155,0.0066 0.0146,0.0071 0.0139,0.0079 0.0136,0.0083 0.0133,0.0091 0.0131,0.0096 0.0116,0.0098 0.0125,0.0113 0.0116,0.0116 0.0107,0.0119 0.0098,0.0117 0.01,0.0134 0.009,0.0133 0.0082,0.014 0.0082,0.0149 0.0068,0.0144 0.0063,0.0153 0.0059,0.0159 0.0044,0.0157 0.0044,0.0164 0.0029,0.017 0.0023,0.0167 0.0013,0.0168 z m -0.2716,2.1985 v 0 -2.1985 h 0.2716 V 9.0672 Z M 11.4239,9.399 v -0.2726 0 l 0.0041,3e-4 0.0041,-2e-4 0.0033,-8e-4 0.0042,-6e-4 0.0036,-6e-4 0.0033,-10e-4 0.0031,-10e-4 0.003,-0.0014 0.0032,-0.0013 0.0035,-0.0016 0.0028,-0.0015 0.0025,-0.0014 0.0032,-0.0023 0.0025,-0.0021 0.0032,-0.0025 0.0024,-0.0021 0.0015,-0.0015 0.0021,-0.0023 0.0024,-0.0026 0.0016,-0.0024 0.0016,-0.0026 0.0018,-0.0023 8e-4,-0.002 0.0014,-0.0029 0.0011,-0.0025 5e-4,-0.0021 0.0012,-0.0029 2e-4,-0.0024 7e-4,-0.0022 3e-4,-0.0029 3e-4,-0.003 -3e-4,-0.0025 h 0.2716 l -9e-4,0.0175 -0.0013,0.0168 -0.0023,0.0167 -0.0029,0.017 -0.0044,0.0164 -0.0044,0.0157 -0.0059,0.0159 -0.0063,0.0153 -0.0068,0.0145 -0.0082,0.0148 -0.0082,0.0141 -0.009,0.0132 -0.01,0.013 -0.0098,0.0122 -0.0107,0.0119 -0.0121,0.0121 -0.012,0.0107 -0.0116,0.0099 -0.0131,0.0095 -0.0128,0.0087 -0.0141,0.0088 -0.0144,0.0079 -0.0141,0.007 -0.015,0.0067 -0.0156,0.0056 -0.0159,0.0052 -0.0161,0.0042 -0.0162,0.0038 -0.016,0.0028 -0.0171,0.0018 -0.0167,0.0012 z M 10.1428,9.1264 v 0 h 1.2811 V 9.399 H 10.1428 Z M 9.802,9.0672 h 0.2716 v 0 l -3e-4,0.0025 3e-4,0.003 3e-4,0.0029 7e-4,0.0022 2e-4,0.0024 0.0012,0.0029 5e-4,0.0021 0.0011,0.0025 0.0014,0.0029 8e-4,0.002 0.0018,0.0023 0.0016,0.0026 0.0016,0.0024 0.0024,0.0026 0.0021,0.0023 0.0015,0.0015 0.0024,0.0021 0.0032,0.0025 0.0025,0.0021 0.0032,0.0023 0.0025,0.0014 0.0028,0.0015 0.0035,0.0016 0.0032,0.0013 0.003,0.0014 0.0031,10e-4 0.0033,10e-4 0.0036,6e-4 0.0042,6e-4 0.0033,8e-4 0.0041,2e-4 0.0041,-3e-4 V 9.399 L 10.1259,9.3981 10.1092,9.3969 10.0921,9.3951 10.0761,9.3923 10.0599,9.3885 10.0438,9.3843 10.0279,9.3791 10.0123,9.3735 9.9973,9.3668 9.9832,9.3598 9.9688,9.3519 9.9547,9.3431 9.9419,9.3344 9.9288,9.3249 9.9172,9.315 9.9052,9.3043 9.8931,9.2922 9.8824,9.2803 9.8726,9.2681 9.8626,9.2551 9.8536,9.2419 9.8454,9.2278 9.8372,9.213 9.8304,9.1985 9.8241,9.1832 9.8182,9.1673 9.8138,9.1516 9.8094,9.1352 9.8065,9.1182 9.8042,9.1015 9.8029,9.0847 Z m 0.2716,-2.1985 v 0 2.1985 H 9.802 V 6.8687 Z M 10.1428,6.537 v 0.2726 0 l -0.0041,-3e-4 -0.0041,2e-4 -0.0033,8e-4 -0.0042,6e-4 -0.0036,6e-4 -0.0033,0.001 -0.0031,0.001 -0.0035,0.0014 -0.0027,0.0012 -0.003,0.0017 -0.0033,0.0015 -0.003,0.0019 -0.0027,0.0017 -0.0025,0.0022 -0.0032,0.0024 -0.0019,0.0017 -0.002,0.002 -0.0021,0.0023 -0.0024,0.0031 -0.0016,0.0018 -0.0016,0.0027 -0.0018,0.0022 -8e-4,0.0021 -0.0014,0.0028 -0.0011,0.0025 -5e-4,0.0021 -0.0012,0.0029 -2e-4,0.0024 -7e-4,0.0022 -3e-4,0.0029 -3e-4,0.003 3e-4,0.0025 H 9.802 L 9.8029,6.8512 9.8042,6.8344 9.8065,6.8177 9.8094,6.8007 9.8138,6.7843 9.8182,6.7686 9.8241,6.7527 9.8304,6.7374 9.8372,6.723 9.8454,6.7081 9.8536,6.6941 9.8626,6.6808 9.8726,6.6674 9.8824,6.6557 9.8931,6.6438 9.9047,6.6322 9.9172,6.6209 9.9288,6.6111 9.9419,6.6015 9.9552,6.5924 9.9688,6.5841 9.9827,6.5762 9.9973,6.5691 10.0128,6.5625 10.0279,6.5569 10.0438,6.5517 10.0599,6.5475 10.0761,6.5437 10.0921,6.5409 10.1092,6.5391 10.1259,6.5379 Z" class="fil3" />
			</g>
			<rect id="rect45" ry="0.77399999" rx="0.77399999" height="2.4716101" width="1.64442" y="11.2288" x="9.7891798" class="fil2" />
			<path id="path47" d="m 9.9885,11.0925 h 1.2458 c 0.09,0 0.1727,0.0353 0.2334,0.0921 0.063,0.059 0.1022,0.1406 0.1022,0.2307 v 2.0986 c 0,0.09 -0.0392,0.1717 -0.1022,0.2307 -0.0607,0.0568 -0.1434,0.0921 -0.2334,0.0921 H 9.9885 c -0.09,0 -0.1727,-0.0353 -0.2334,-0.0921 -0.063,-0.059 -0.1022,-0.1407 -0.1022,-0.2307 v -2.0986 c 0,-0.0901 0.0392,-0.1717 0.1022,-0.2307 0.0607,-0.0568 0.1434,-0.0921 0.2334,-0.0921 z m 1.2458,0.2726 H 9.9885 c -0.0196,0 -0.0366,0.0067 -0.0481,0.0175 -0.0092,0.0086 -0.0149,0.0202 -0.0149,0.0327 v 2.0986 c 0,0.0125 0.0057,0.0241 0.0149,0.0327 0.0115,0.0108 0.0285,0.0175 0.0481,0.0175 h 1.2458 c 0.0196,0 0.0366,-0.0067 0.0481,-0.0175 0.0092,-0.0086 0.0149,-0.0202 0.0149,-0.0327 v -2.0986 c 0,-0.0125 -0.0057,-0.0241 -0.0149,-0.0327 -0.0115,-0.0108 -0.0285,-0.0175 -0.0481,-0.0175 z" class="fil1" />
			<rect id="rect49" ry="0.77399999" rx="0.77399999" height="2.4716101" width="1.64442" y="11.2288" x="6.7221799" class="fil2" />
			<path id="path51" d="m 6.9215,11.0925 h 1.2458 c 0.0899,0 0.1727,0.0353 0.2334,0.0921 0.063,0.059 0.1022,0.1406 0.1022,0.2307 v 2.0986 c 0,0.09 -0.0392,0.1717 -0.1022,0.2307 C 8.34,13.8014 8.2572,13.8367 8.1673,13.8367 H 6.9215 c -0.09,0 -0.1727,-0.0353 -0.2334,-0.0921 -0.063,-0.059 -0.1022,-0.1407 -0.1022,-0.2307 v -2.0986 c 0,-0.0901 0.0392,-0.1717 0.1022,-0.2307 0.0607,-0.0568 0.1434,-0.0921 0.2334,-0.0921 z m 1.2458,0.2726 H 6.9215 c -0.0196,0 -0.0366,0.0067 -0.0481,0.0175 -0.0092,0.0086 -0.0149,0.0202 -0.0149,0.0327 v 2.0986 c 0,0.0125 0.0057,0.0241 0.0149,0.0327 0.0115,0.0108 0.0285,0.0175 0.0481,0.0175 h 1.2458 c 0.0196,0 0.0366,-0.0067 0.0481,-0.0175 0.0092,-0.0086 0.0149,-0.0202 0.0149,-0.0327 v -2.0986 c 0,-0.0125 -0.0057,-0.0241 -0.0149,-0.0327 C 8.2039,11.3718 8.1869,11.3651 8.1673,11.3651 Z" class="fil1" />
			<path id="path53" d="m 3.0732,11.9913 h 1.0015 c 0.0853,0 0.155,0.0697 0.155,0.155 v 2.1065 H 2.9182 v -2.1065 c 0,-0.0853 0.0698,-0.155 0.155,-0.155 z" class="fil2" />
			<path id="path55" d="m 3.0732,11.855 h 1.0015 c 0.0802,0 0.1531,0.0328 0.2058,0.0855 0.0527,0.0527 0.0855,0.1256 0.0855,0.2058 v 2.1065 0.1363 H 4.2297 2.9182 2.7819 v -0.1363 -2.1065 c 0,-0.0802 0.0328,-0.1531 0.0855,-0.2058 C 2.9201,11.8878 2.993,11.855 3.0732,11.855 Z m 1.0015,0.2726 H 3.0732 c -0.005,0 -0.0097,0.0021 -0.0131,0.0056 -0.0034,0.0034 -0.0056,0.0081 -0.0056,0.0131 v 1.9703 h 1.0389 v -1.9703 c 0,-0.005 -0.0021,-0.0097 -0.0056,-0.0131 C 4.0844,12.1297 4.0797,12.1276 4.0747,12.1276 Z" class="fil1" />
		</g>
	</g>
</svg>
