<?xml version="1.0" encoding="UTF-8" standalone="no"?>
<svg
   xmlns:dc="http://purl.org/dc/elements/1.1/"
   xmlns:cc="http://creativecommons.org/ns#"
   xmlns:rdf="http://www.w3.org/1999/02/22-rdf-syntax-ns#"
   xmlns:svg="http://www.w3.org/2000/svg"
   xmlns="http://www.w3.org/2000/svg"
   xmlns:sodipodi="http://sodipodi.sourceforge.net/DTD/sodipodi-0.dtd"
   xmlns:inkscape="http://www.inkscape.org/namespaces/inkscape"
   inkscape:version="1.0 (4035a4fb49, 2020-05-01)"
   sodipodi:docname="06.svg"
   id="svg54"
   version="1.1"
   viewBox="0 0 292.4 194.1"
   xml:space="preserve"><metadata
   id="metadata58"><rdf:RDF><cc:Work
       rdf:about=""><dc:format>image/svg+xml</dc:format><dc:type
         rdf:resource="http://purl.org/dc/dcmitype/StillImage" /></cc:Work></rdf:RDF></metadata><sodipodi:namedview
   inkscape:current-layer="svg54"
   inkscape:window-maximized="1"
   inkscape:window-y="-6"
   inkscape:window-x="-6"
   inkscape:cy="21.451751"
   inkscape:cx="146.2"
   inkscape:zoom="2.5244718"
   showgrid="false"
   id="namedview56"
   inkscape:window-height="658"
   inkscape:window-width="1280"
   inkscape:pageshadow="2"
   inkscape:pageopacity="0"
   guidetolerance="10"
   gridtolerance="10"
   objecttolerance="10"
   borderopacity="1"
   bordercolor="#666666"
   pagecolor="#ffffff" />
 <defs
   id="defs7">
  <style
   id="style2"
   type="text/css">
   <![CDATA[
    .str1 {stroke:#3F4446;stroke-width:0.266804}
    .str0 {stroke:#3F4446;stroke-width:0.266804;stroke-linecap:round;stroke-linejoin:round}
    .fil1 {fill:none}
    .fil3 {fill:white}
    .fil2 {fill:#3F4446}
    .fil0 {fill:#EEF0F2}
    .fil4 {fill:white;fill-opacity:0.501961}
   ]]>
  </style>
    <clipPath
   id="id0">
     <path
   id="path4"
   d="M3.36605 3.53075c0.573209,0 1.03812,0.464907 1.03812,1.03812 0,0.573309 -0.464907,1.03822 -1.03812,1.03822 -0.573309,0 -1.03822,-0.464907 -1.03822,-1.03822 0,-0.573209 0.464907,-1.03812 1.03822,-1.03812z" />
    </clipPath>
 </defs>
 <g
   transform="matrix(13.334968,0,0,13.334968,14.377171,4.0780547)"
   id="Layer_x0020_1">
  <metadata
   id="CorelCorpID_0Corel-Layer" />
  <g
   id="_06.cdr">
   <polygon
   points="15.7577,7.28581 18.3863,7.28581 18.3863,13.8352 15.7577,13.8352 "
   class="fil0"
   id="_309384072" />
   <g
   id="g15">
    <rect
   height="1.13061"
   width="5.4245"
   y="7.78266"
   x="10.0546"
   class="fil0"
   id="_309384000" />
    <rect
   height="1.13061"
   width="5.4245"
   y="9.2981501"
   x="10.0546"
   class="fil0"
   id="_309383928" />
    <rect
   height="1.13061"
   width="5.4245"
   y="10.8136"
   x="10.0546"
   class="fil0"
   id="_309383856" />
    <rect
   height="1.13061"
   width="5.4245"
   y="12.3291"
   x="10.0546"
   class="fil0"
   id="_309383784" />
   </g>
   <g
   id="g19">
    <polygon
   points="3.05675,7.30791 4.55987,12.3803 3.14515,12.3662 1.73143,7.26371 "
   class="fil0"
   id="_309383688" />
    <polygon
   points="4.95638,7.33001 6.3259,12.3502 8.02802,12.3502 8.02802,7.35201 "
   class="fil0"
   id="_309383616" />
   </g>
   <polygon
   points="11.8383,4.86377 11.0871,4.78707 11.2711,2.53344 "
   class="fil0"
   id="_309383520" />
   <polygon
   points="6.98861,1.34402 7.78372,4.74567 8.60103,4.72357 7.67332,0.990515 "
   class="fil0"
   id="_309383448" />
   <polygon
   points="9.12734,0.706611 9.94745,4.70217 11.1357,4.74427 11.1251,0.0757012 "
   class="fil0"
   id="_309383376" />
   <polygon
   points="5.77489,4.70277 5.79409,1.98153 6.5414,4.78897 "
   class="fil0"
   id="_309383304" />
   <polygon
   points="12.0836,0.157102 13.1721,4.80237 14.1849,4.80237 13.0034,0.0498008 "
   class="fil0"
   id="_309383232" />
   <rect
   height="2.5341401"
   width="3.51754"
   y="4.6896501"
   x="11.1775"
   class="fil0"
   id="_309383160" />
   <polyline
   points="0.133102,3.21835 11.0775,0.133302 15.5093,0.133302 "
   class="fil1 str0"
   id="_309383088" />
   <polyline
   points="1.13692,2.92454 1.13692,7.28271 3.48745,7.28271 "
   class="fil1 str0"
   id="_309383016" />
   <polyline
   points="4.41777,7.28261 8.06592,7.28261 8.06592,12.3509 1.18572,12.3509 1.18572,13.8651 "
   class="fil1 str0"
   id="_309382944" />
   <line
   y2="12.312"
   x2="1.72453"
   y1="7.2999101"
   x1="1.72453"
   class="fil1 str1"
   id="_309382872" />
   <line
   y2="13.8689"
   x2="19.5016"
   y1="13.8689"
   x1="0.50030798"
   class="fil1 str0"
   id="_309382800" />
   <circle
   r="1.32532"
   cy="4.5689101"
   cx="3.36603"
   class="fil2"
   id="_309382728" />
   <path
   d="m 3.36605,3.53075 c 0.573209,0 1.03812,0.464907 1.03812,1.03812 0,0.573309 -0.464907,1.03822 -1.03812,1.03822 -0.573309,0 -1.03822,-0.464907 -1.03822,-1.03822 0,-0.573209 0.464907,-1.03812 1.03822,-1.03812 z"
   class="fil3"
   id="_309382656" />
   <g
   id="g38"
   clip-path="url(#id0)">
    <g
   id="g36">
     <polygon
   points="3.71356,3.46715 4.22286,5.38318 4.55787,4.92988 4.27387,3.67106 "
   class="fil0"
   id="_3090797361" />
     <polygon
   points="2.52984,3.72166 3.06455,5.73269 3.51785,5.72109 2.94835,3.39615 "
   class="fil0"
   id="_309079664" />
    </g>
   </g>
   <path
   id="path40"
   d="m 3.36605,3.53075 c 0.573209,0 1.03812,0.464907 1.03812,1.03812 0,0.573309 -0.464907,1.03822 -1.03812,1.03822 -0.573309,0 -1.03822,-0.464907 -1.03822,-1.03822 0,-0.573209 0.464907,-1.03812 1.03822,-1.03812 z"
   class="fil1" />
   <polyline
   points="5.76129,1.63262 5.76129,4.72387 14.6853,4.72387 "
   class="fil1 str1"
   id="_309382584" />
   <line
   y2="7.2383099"
   x2="14.7417"
   y1="0.15120199"
   x1="14.7417"
   class="fil1 str1"
   id="_309382512" />
   <line
   y2="4.67097"
   x2="8.6282301"
   y1="0.82411301"
   x1="8.6282301"
   class="fil1 str1"
   id="_309382440" />
   <line
   y2="7.2552099"
   x2="11.1473"
   y1="0.13720199"
   x1="11.1473"
   class="fil1 str1"
   id="_309382368" />
   <line
   y2="2.68994"
   x2="12.9628"
   y1="0.144802"
   x1="12.9628"
   class="fil1 str0"
   id="_309382296" />
   <line
   y2="3.5861499"
   x2="12.9628"
   y1="4.6820698"
   x1="12.9628"
   class="fil1 str0"
   id="_309382224" />
   <line
   y2="7.28651"
   x2="18.695601"
   y1="7.28651"
   x1="9.1311398"
   class="fil1 str0"
   id="_309382152" />
   <polygon
   points="15.7577,7.28581 18.3863,7.28581 18.3863,13.8352 15.7577,13.8352 "
   class="fil1 str0"
   id="_309382080" />
   <line
   y2="7.28581"
   x2="9.6392498"
   y1="13.8609"
   x1="9.6392498"
   class="fil1 str1"
   id="_309382008" />
   <polygon
   points="2.43034,8.42433 7.22481,8.42433 7.22481,11.8297 2.43034,11.8297 "
   class="fil4"
   id="_95731736" />
  </g>
 </g>
</svg>
