<?xml version="1.0" encoding="UTF-8"?>
<!DOCTYPE svg PUBLIC "-//W3C//DTD SVG 1.1//EN" "http://www.w3.org/Graphics/SVG/1.1/DTD/svg11.dtd">
<!-- Creator: CorelDRAW -->
<svg xmlns="http://www.w3.org/2000/svg" xml:space="preserve" viewBox="0 0 292.4 194.1"
 xmlns:xlink="http://www.w3.org/1999/xlink">
 <defs>
  <style type="text/css">
   <![CDATA[
    .str0 {stroke:#3F4446;stroke-width:0.255098;stroke-linecap:round;stroke-linejoin:round}
    .fil1 {fill:none}
    .fil3 {fill:white}
    .fil2 {fill:#3F4446}
    .fil0 {fill:#D9DBDD}
    .fil5 {fill:#3F4446;fill-rule:nonzero}
    .fil4 {fill:#D9DBDD;fill-opacity:0.501961}
   ]]>
  </style>
    <clipPath id="id0">
     <path d="M2.33789 5.34547l1.23239 0 0 1.94459 -1.23239 0 0 -1.94459z"/>
    </clipPath>
    <clipPath id="id1">
     <path d="M2.33789 8.89515l1.23239 0 0 1.94459 -1.23239 0 0 -1.94459z"/>
    </clipPath>
    <clipPath id="id2">
     <path d="M6.25896 9.43664l1.37909 0 0 1.94459 -1.37909 0 0 -1.94459z"/>
    </clipPath>
    <clipPath id="id3">
     <path d="M9.66824 5.62627l1.37909 0 0 1.94459 -1.37909 0 0 -1.94459z"/>
    </clipPath>
    <clipPath id="id4">
     <path d="M9.66824 1.81309l1.37909 0 0 1.94459 -1.37909 0 0 -1.94459z"/>
    </clipPath>
    <clipPath id="id5">
     <path d="M6.25996 1.81309l1.37909 0 0 1.94459 -1.37909 0 0 -1.94459z"/>
    </clipPath>
    <clipPath id="id6">
     <path d="M6.25996 5.60657l1.37909 0 0 1.94459 -1.37909 0 0 -1.94459z"/>
    </clipPath>
 </defs>
 <g id="Layer_x0020_1">
  <metadata id="CorelCorpID_0Corel-Layer"/>
  <g id="_12.cdr">
   <polygon id="_310613264" class="fil0" points="12.6298,9.16655 13.3871,13.0408 14.3862,13.0408 13.6856,9.16655 "/>
   <polygon id="_310613192" class="fil0" points="1.17989,3.98298 3.85158,3.98298 3.85158,13.2273 4.78707,13.2273 4.78707,2.98318 1.17979,2.98318 "/>
   <rect id="_310613120" class="fil0" x="4.72163" y="0.122488" width="8.51061" height="0.837389"/>
   <rect id="_310613048" class="fil0" x="12.4803" y="0.105399" width="3.1103" height="8.93785"/>
   <polygon id="_310612976" class="fil0" points="14.7631,9.14115 15.5103,13.1635 15.5103,9.05225 "/>
   <polygon id="_310612904" class="fil0" points="10.515,9.16655 11.2543,13.0408 12.3828,13.0408 11.5282,9.16655 "/>
   <line id="_310612832" class="fil1 str0" x1="0.593696" y1="3.02158" x2="4.78057" y2= "3.02158" />
   <line id="_310612760" class="fil1 str0" x1="4.78047" y1="0.176399" x2="4.78047" y2= "13.1429" />
   <line id="_310612688" class="fil1 str0" x1="1.15069" y1="3.05898" x2="1.15069" y2= "13.1429" />
   <line id="_310612616" class="fil1 str0" x1="4.24357" y1="0.127599" x2="16.0355" y2= "0.127599" />
   <rect id="_310612544" class="fil2" x="2.08174" y="5.08447" width="1.74473" height="2.46668" rx="0.855195" ry="0.855195"/>
   <polygon id="_310612472" class="fil3" points="2.33789,5.34547 3.57028,5.34547 3.57028,7.29006 2.33789,7.29006 "/>
   <g style="clip-path:url(#id0)">
    <g>
     <polygon id="_3106095681" class="fil0" points="3.10168,5.14377 3.73648,7.64635 3.73648,5.14377 "/>
     <path id="_310609496" class="fil0" d="M2.42739 5.21767l0.603396 2.20479 -0.735396 0 0 -2.20479 0.131999 0zm-0.395198 -0.578897l0 -9.99994e-005 0.000199999 9.99994e-005 -0.000199999 0z"/>
    </g>
   </g>
   <polygon class="fil1" points="2.33789,5.34547 3.57028,5.34547 3.57028,7.29006 2.33789,7.29006 "/>
   <rect id="_310612400" class="fil2" x="2.08174" y="8.63408" width="1.74473" height="2.46668" rx="0.855195" ry="0.855195"/>
   <polygon id="_310612328" class="fil3" points="2.33789,8.89515 3.57028,8.89515 3.57028,10.8397 2.33789,10.8397 "/>
   <g style="clip-path:url(#id1)">
    <g>
     <polygon id="_3106093521" class="fil0" points="2.27799,8.58875 2.93538,10.8835 2.24609,10.8835 2.24609,8.61005 "/>
     <polygon id="_310037440" class="fil0" points="3.68718,11.1824 3.12048,8.76505 3.68718,8.76505 "/>
    </g>
   </g>
   <polygon class="fil1" points="2.33789,8.89515 3.57028,8.89515 3.57028,10.8397 2.33789,10.8397 "/>
   <rect id="_310612256" class="fil2" x="5.97228" y="9.17555" width="1.95248" height="2.46668" rx="0.855195" ry="0.855195"/>
   <polygon id="_310612184" class="fil3" points="6.25896,9.43664 7.63805,9.43664 7.63805,11.3812 6.25896,11.3812 "/>
   <g style="clip-path:url(#id2)">
    <g>
     <polygon id="_3106097121" class="fil0" points="6.20916,9.37204 6.68436,11.5594 7.50346,11.5594 7.04736,9.37204 "/>
    </g>
   </g>
   <polygon class="fil1" points="6.25896,9.43664 7.63805,9.43664 7.63805,11.3812 6.25896,11.3812 "/>
   <rect id="_310612112" class="fil2" x="5.71141" y="11.4439" width="2.4742" height="0.296115" rx="0.614196" ry="0.614196"/>
   <rect id="_310612040" class="fil2" x="9.38152" y="5.36523" width="1.95248" height="2.46668" rx="0.855195" ry="0.855195"/>
   <polygon id="_310611968" class="fil3" points="9.66824,5.62627 11.0473,5.62627 11.0473,7.57086 9.66824,7.57086 "/>
   <g style="clip-path:url(#id3)">
    <g>
     <polygon id="_3106098561" class="fil0" points="9.71474,5.46717 10.1965,7.76305 10.7309,7.76305 10.3467,5.46717 "/>
    </g>
   </g>
   <polygon class="fil1" points="9.66824,5.62627 11.0473,5.62627 11.0473,7.57086 9.66824,7.57086 "/>
   <rect id="_310611896" class="fil2" x="9.12064" y="7.63356" width="2.4742" height="0.296115" rx="0.614196" ry="0.614196"/>
   <rect id="_310611824" class="fil2" x="9.38152" y="1.55201" width="1.95248" height="2.46668" rx="0.855195" ry="0.855195"/>
   <polygon id="_310611752" class="fil3" points="9.66824,1.81309 11.0473,1.81309 11.0473,3.75768 9.66824,3.75768 "/>
   <g style="clip-path:url(#id4)">
    <g>
     <polygon id="_3106101441" class="fil0" points="9.59644,1.73409 10.1076,3.93058 10.6693,3.93058 10.251,1.73409 "/>
    </g>
   </g>
   <polygon class="fil1" points="9.66824,1.81309 11.0473,1.81309 11.0473,3.75768 9.66824,3.75768 "/>
   <rect id="_310611680" class="fil2" x="9.12064" y="3.82034" width="2.4742" height="0.296115" rx="0.614196" ry="0.614196"/>
   <polygon id="_310611608" class="fil3" points="6.25996,1.81309 7.63905,1.81309 7.63905,3.75768 6.25996,3.75768 "/>
   <g style="clip-path:url(#id5)">
    <g>
     <polygon id="_3106102881" class="fil0" points="6.54946,3.95768 6.06976,1.67089 6.95066,1.67089 7.29246,3.95768 "/>
    </g>
   </g>
   <polygon class="fil1" points="6.25996,1.81309 7.63905,1.81309 7.63905,3.75768 6.25996,3.75768 "/>
   <path id="_310611536" class="fil2" d="M5.86047 3.82038l1.77859 0 0 -2.00729 -1.37909 0 0 1.38289c0,0.0935994 -0.00849995,0.215999 -0.145999,0.215999l0 0c-0.129199,0 -0.140699,-0.116499 -0.140699,-0.214399l0 -0.197899 0 -1.24149c0,-0.113399 0.103799,-0.206199 0.230699,-0.206199l1.49109 0c0.126899,0 0.230699,0.0927994 0.230699,0.206199l0 2.06219 0.112799 0c0.0813995,0 0.147999,0.0665996 0.147999,0.147999l0 0c0,0.0814995 -0.0665996,0.148099 -0.147999,0.148099l-2.17809 0c-0.0814995,0 -0.148099,-0.0665996 -0.148099,-0.148099l0 0c0,-0.0813995 0.0665996,-0.147999 0.148099,-0.147999z"/>
   <polygon id="_310611464" class="fil4" points="9.28124,9.14175 9.57454,9.14175 10.116,9.14175 15.5194,9.14175 15.5194,10.0103 10.116,10.0103 10.116,13.214 9.28124,13.214 "/>
   <path id="_310611392" class="fil1 str0" d="M12.4808 0.176399l0 8.08285m0 0.848995l0 1.58559m0 0.641696l0 1.80739"/>
   <line id="_310611320" class="fil1 str0" x1="15.5194" y1="0.176399" x2="15.5194" y2= "13.1429" />
   <g>
    <path id="_310611248" class="fil5" d="M15.5194 9.21755l0 -0.254998 0.00659996 0.000199999 0.00639996 0.000499997 0.00639996 0.000799995 0.00629996 0.00109999 0.00619996 0.00139999 0.00599996 0.00169999 0.00589996 0.00199999 0.00579997 0.00229999 0.00569997 0.00259998 0.00549997 0.00279998 0.00529997 0.00309998 0.00519997 0.00329998 0.00499997 0.00349998 0.00479997 0.00379998 0.00459997 0.00399998 0.00449997 0.00429997 0.00419998 0.00439997 0.00399998 0.00459997 0.00379998 0.00479997 0.00349998 0.00499997 0.00329998 0.00519997 0.00309998 0.00529997 0.00279998 0.00549997 0.00259998 0.00569997 0.00229999 0.00579997 0.00199999 0.00589996 0.00169999 0.00599996 0.00139999 0.00619996 0.00109999 0.00629996 0.000799995 0.00639996 0.000499997 0.00639996 0.000199999 0.00659996 -0.000199999 0.00659996 -0.000499997 0.00639996 -0.000799995 0.00639996 -0.00109999 0.00629996 -0.00139999 0.00619996 -0.00169999 0.00599996 -0.00199999 0.00589996 -0.00229999 0.00579997 -0.00259998 0.00569997 -0.00279998 0.00549997 -0.00309998 0.00529997 -0.00329998 0.00519997 -0.00349998 0.00499997 -0.00379998 0.00479997 -0.00399998 0.00459997 -0.00419998 0.00439997 -0.00449997 0.00429997 -0.00459997 0.00399998 -0.00479997 0.00379998 -0.00499997 0.00349998 -0.00519997 0.00329998 -0.00529997 0.00309998 -0.00549997 0.00279998 -0.00569997 0.00259998 -0.00579997 0.00229999 -0.00589996 0.00199999 -0.00599996 0.00169999 -0.00619996 0.00139999 -0.00629996 0.00109999 -0.00639996 0.000799995 -0.00639996 0.000499997 -0.00659996 0.000199999zm-6.37526 -0.127499l0.127499 -0.127499 6.24776 0 0 0.254998 -6.24776 0 -0.127499 -0.127499zm0.127499 -0.127499l0 0.254998 -0.00659996 -0.000199999 -0.00639996 -0.000499997 -0.00639996 -0.000799995 -0.00629996 -0.00109999 -0.00619996 -0.00139999 -0.00599996 -0.00169999 -0.00589996 -0.00199999 -0.00579997 -0.00229999 -0.00569997 -0.00259998 -0.00549997 -0.00279998 -0.00529997 -0.00309998 -0.00519997 -0.00329998 -0.00499997 -0.00349998 -0.00479997 -0.00379998 -0.00459997 -0.00399998 -0.00449997 -0.00429997 -0.00419998 -0.00439997 -0.00399998 -0.00459997 -0.00379998 -0.00479997 -0.00349998 -0.00499997 -0.00329998 -0.00519997 -0.00309998 -0.00529997 -0.00279998 -0.00549997 -0.00259998 -0.00569997 -0.00229999 -0.00579997 -0.00199999 -0.00589996 -0.00169999 -0.00599996 -0.00139999 -0.00619996 -0.00109999 -0.00629996 -0.000799995 -0.00639996 -0.000499997 -0.00639996 -0.000199999 -0.00659996 0.000199999 -0.00659996 0.000499997 -0.00639996 0.000799995 -0.00639996 0.00109999 -0.00629996 0.00139999 -0.00619996 0.00169999 -0.00599996 0.00199999 -0.00589996 0.00229999 -0.00579997 0.00259998 -0.00569997 0.00279998 -0.00549997 0.00309998 -0.00529997 0.00329998 -0.00519997 0.00349998 -0.00499997 0.00379998 -0.00479997 0.00399998 -0.00459997 0.00419998 -0.00439997 0.00449997 -0.00429997 0.00459997 -0.00399998 0.00479997 -0.00379998 0.00499997 -0.00349998 0.00519997 -0.00329998 0.00529997 -0.00309998 0.00549997 -0.00279998 0.00569997 -0.00259998 0.00579997 -0.00229999 0.00589996 -0.00199999 0.00599996 -0.00169999 0.00619996 -0.00139999 0.00629996 -0.00109999 0.00639996 -0.000799995 0.00639996 -0.000499997 0.00659996 -0.000199999zm-0.127499 4.13818l0 -4.01068 0.254998 0 0 4.01068 -0.254998 0zm0 0l0.254998 0 -0.000199999 0.00659996 -0.000499997 0.00639996 -0.000799995 0.00639996 -0.00109999 0.00629996 -0.00139999 0.00619996 -0.00169999 0.00599996 -0.00199999 0.00589996 -0.00229999 0.00579997 -0.00259998 0.00569997 -0.00279998 0.00549997 -0.00309998 0.00529997 -0.00329998 0.00519997 -0.00349998 0.00499997 -0.00379998 0.00479997 -0.00399998 0.00459997 -0.00419998 0.00449997 -0.00449997 0.00419998 -0.00459997 0.00399998 -0.00479997 0.00379998 -0.00499997 0.00349998 -0.00519997 0.00329998 -0.00529997 0.00309998 -0.00549997 0.00279998 -0.00569997 0.00259998 -0.00579997 0.00229999 -0.00589996 0.00199999 -0.00599996 0.00169999 -0.00619996 0.00139999 -0.00629996 0.00109999 -0.00639996 0.000799995 -0.00639996 0.000499997 -0.00659996 0.000199999 -0.00659996 -0.000199999 -0.00639996 -0.000499997 -0.00639996 -0.000799995 -0.00629996 -0.00109999 -0.00619996 -0.00139999 -0.00599996 -0.00169999 -0.00589996 -0.00199999 -0.00579997 -0.00229999 -0.00569997 -0.00259998 -0.00549997 -0.00279998 -0.00529997 -0.00309998 -0.00519997 -0.00329998 -0.00499997 -0.00349998 -0.00479997 -0.00379998 -0.00459997 -0.00399998 -0.00449997 -0.00419998 -0.00419998 -0.00449997 -0.00399998 -0.00459997 -0.00379998 -0.00479997 -0.00349998 -0.00499997 -0.00329998 -0.00519997 -0.00309998 -0.00529997 -0.00279998 -0.00549997 -0.00259998 -0.00569997 -0.00229999 -0.00579997 -0.00199999 -0.00589996 -0.00169999 -0.00599996 -0.00139999 -0.00619996 -0.00109999 -0.00629996 -0.000799995 -0.00639996 -0.000499997 -0.00639996 -0.000199999 -0.00659996z"/>
   </g>
   <polygon class="fil3" points="6.25996,5.60657 7.63905,5.60657 7.63905,7.55116 6.25996,7.55116 "/>
   <g style="clip-path:url(#id6)">
    <g id="_310609928">
     <polygon id="_3106100001" class="fil0" points="6.15066,5.63517 6.61496,7.77215 7.43686,7.77215 6.97326,5.54857 6.26296,5.54857 "/>
    </g>
   </g>
   <polygon class="fil1" points="6.25996,5.60657 7.63905,5.60657 7.63905,7.55116 6.25996,7.55116 "/>
   <path class="fil2" d="M5.86047 7.61385l1.77859 0 0 -2.00729 -1.37909 0 0 1.38289c0,0.0935994 -0.00849995,0.215999 -0.145999,0.215999l0 0c-0.129199,0 -0.140699,-0.116499 -0.140699,-0.214299l0 -0.197999 0 -1.24149c0,-0.113399 0.103799,-0.206099 0.230699,-0.206099l1.49109 0c0.126899,0 0.230699,0.0926994 0.230699,0.206099l0 2.06219 0.112799 0c0.0813995,0 0.147999,0.0665996 0.147999,0.148099l0 0c0,0.0813995 -0.0665996,0.147999 -0.147999,0.147999l-2.17809 0c-0.0814995,0 -0.148099,-0.0665996 -0.148099,-0.147999l0 0c0,-0.0814995 0.0665996,-0.148099 0.148099,-0.148099z"/>
   <line class="fil1 str0" x1="0.127599" y1="13.1428" x2="16.7157" y2= "13.1428" />
  </g>
 </g>
</svg>
