<?xml version="1.0" encoding="UTF-8" standalone="no"?>
<svg
   xmlns:dc="http://purl.org/dc/elements/1.1/"
   xmlns:cc="http://creativecommons.org/ns#"
   xmlns:rdf="http://www.w3.org/1999/02/22-rdf-syntax-ns#"
   xmlns:svg="http://www.w3.org/2000/svg"
   xmlns="http://www.w3.org/2000/svg"
   xmlns:sodipodi="http://sodipodi.sourceforge.net/DTD/sodipodi-0.dtd"
   xmlns:inkscape="http://www.inkscape.org/namespaces/inkscape"
   inkscape:version="1.0 (4035a4fb49, 2020-05-01)"
   sodipodi:docname="apartment_checked.svg"
   id="svg46"
   version="1.1"
   viewBox="0 0 292.4 194.1"
   xml:space="preserve"><metadata
   id="metadata50"><rdf:RDF><cc:Work
       rdf:about=""><dc:format>image/svg+xml</dc:format><dc:type
         rdf:resource="http://purl.org/dc/dcmitype/StillImage" /></cc:Work></rdf:RDF></metadata><sodipodi:namedview
   inkscape:current-layer="svg46"
   inkscape:window-maximized="1"
   inkscape:window-y="-6"
   inkscape:window-x="-6"
   inkscape:cy="-0.30314195"
   inkscape:cx="146.2"
   inkscape:zoom="2.5244718"
   showgrid="false"
   id="namedview48"
   inkscape:window-height="658"
   inkscape:window-width="1280"
   inkscape:pageshadow="2"
   inkscape:pageopacity="0"
   guidetolerance="10"
   gridtolerance="10"
   objecttolerance="10"
   borderopacity="1"
   bordercolor="#666666"
   pagecolor="#ffffff" />
 <defs
   id="defs4">
  <style
   id="style2"
   type="text/css">
   <![CDATA[
    .str0 {stroke:#3F4446;stroke-width:0.2551;stroke-linecap:round;stroke-linejoin:round}
    .fil1 {fill:none}
    .fil3 {fill:#15202A}
    .fil2 {fill:#00ACEE}
    .fil0 {fill:#D9DBDD}
    .fil5 {fill:#3F4446;fill-rule:nonzero}
    .fil4 {fill:#D9DBDD;fill-opacity:0.501961}
   ]]>
  </style>
 </defs>
 <g
   transform="matrix(14.160188,0,0,14.160188,26.540863,3.5644442)"
   id="Layer_x0020_1">
  <metadata
   id="CorelCorpID_0Corel-Layer" />
  <g
   id="_13.cdr">
   <polygon
   points="13.3871,13.0409 14.3862,13.0409 13.6856,9.1666 12.6298,9.1666 "
   class="fil0"
   id="_311038384" />
   <polygon
   points="1.1797,2.9832 1.1798,3.983 3.8515,3.983 3.8515,13.2274 4.787,13.2274 4.787,2.9832 "
   class="fil0"
   id="_311038312" />
   <rect
   height="0.83739501"
   width="8.5106697"
   y="0.122483"
   x="4.72156"
   class="fil0"
   id="_311038240" />
   <rect
   height="8.9379101"
   width="3.1103201"
   y="0.105393"
   x="12.4803"
   class="fil0"
   id="_311038168" />
   <polygon
   points="15.5103,9.0523 14.7631,9.1412 15.5103,13.1637 "
   class="fil0"
   id="_311038096" />
   <polygon
   points="11.2544,13.0409 12.3828,13.0409 11.5282,9.1666 10.515,9.1666 "
   class="fil0"
   id="_311038024" />
   <line
   y2="3.0216"
   x2="4.7804999"
   y1="3.0216"
   x1="0.59350002"
   class="fil1 str0"
   id="_311037952" />
   <line
   y2="13.143"
   x2="4.7803998"
   y1="0.17640001"
   x1="4.7803998"
   class="fil1 str0"
   id="_311037880" />
   <line
   y2="13.143"
   x2="1.1506"
   y1="3.059"
   x1="1.1506"
   class="fil1 str0"
   id="_311037808" />
   <line
   y2="0.1276"
   x2="16.0355"
   y1="0.1276"
   x1="4.2435002"
   class="fil1 str0"
   id="_311037736" />
   <rect
   ry="0.85519999"
   rx="0.85519999"
   height="2.4667001"
   width="1.74474"
   y="5.0844898"
   x="2.08165"
   class="fil2"
   id="_309680312" />
   <rect
   height="1.94461"
   width="1.23239"
   y="5.34554"
   x="2.3378201"
   class="fil3"
   id="_310022832" />
   <rect
   ry="0.85519999"
   rx="0.85519999"
   height="2.4667001"
   width="1.74474"
   y="8.63414"
   x="2.08165"
   class="fil2"
   id="_310609664" />
   <rect
   height="1.94461"
   width="1.23239"
   y="8.8951797"
   x="2.3378201"
   class="fil3"
   id="_310609472" />
   <rect
   ry="0.85519999"
   rx="0.85519999"
   height="2.4667001"
   width="1.95249"
   y="9.1756096"
   x="5.9722199"
   class="fil2"
   id="_310610264" />
   <rect
   height="1.94461"
   width="1.37913"
   y="9.4366503"
   x="6.2589002"
   class="fil3"
   id="_310610120" />
   <rect
   ry="0.6142"
   rx="0.6142"
   height="0.29611701"
   width="2.47422"
   y="11.444"
   x="5.71134"
   class="fil2"
   id="_310609376" />
   <rect
   ry="0.85519999"
   rx="0.85519999"
   height="2.4667001"
   width="1.95249"
   y="5.3652601"
   x="9.3814802"
   class="fil2"
   id="_310609544" />
   <rect
   height="1.94461"
   width="1.37913"
   y="5.6262999"
   x="9.6681604"
   class="fil3"
   id="_310609736" />
   <rect
   ry="0.6142"
   rx="0.6142"
   height="0.29611701"
   width="2.47422"
   y="7.6336098"
   x="9.1205997"
   class="fil2"
   id="_310610024" />
   <rect
   ry="0.85519999"
   rx="0.85519999"
   height="2.4667001"
   width="1.95249"
   y="1.55202"
   x="9.3814802"
   class="fil2"
   id="_310610336" />
   <rect
   height="1.94461"
   width="1.37913"
   y="1.81306"
   x="9.6681604"
   class="fil3"
   id="_310609616" />
   <rect
   ry="0.6142"
   rx="0.6142"
   height="0.29611701"
   width="2.47422"
   y="3.8203599"
   x="9.1205997"
   class="fil2"
   id="_310029496" />
   <rect
   height="2.0936201"
   width="1.51327"
   y="1.81306"
   x="6.12572"
   class="fil3"
   id="_310029376" />
   <path
   d="M 5.8603,3.8204 H 7.639 V 1.8131 H 6.2599 V 3.196 c 0,0.0935 -0.0085,0.216 -0.146,0.216 v 0 C 5.9847,3.412 5.9732,3.2955 5.9732,3.1976 V 2.9997 1.7582 C 5.9732,1.6448 6.077,1.552 6.2039,1.552 H 7.695 c 0.1269,0 0.2307,0.0928 0.2307,0.2062 v 2.0622 h 0.1128 c 0.0814,0 0.148,0.0666 0.148,0.148 v 0 c 0,0.0815 -0.0666,0.1481 -0.148,0.1481 H 5.8603 c -0.0814,0 -0.148,-0.0666 -0.148,-0.1481 v 0 c 0,-0.0814 0.0666,-0.148 0.148,-0.148 z"
   class="fil2"
   id="_310029448" />
   <polygon
   points="10.116,10.0104 10.116,13.2141 9.2812,13.2141 9.2812,9.1418 9.5745,9.1418 10.116,9.1418 15.5194,9.1418 15.5194,10.0104 "
   class="fil4"
   id="_310028776" />
   <path
   d="m 12.4808,0.1764 v 8.0829 m 0,0.849 v 1.5856 m 0,0.6417 v 1.8074"
   class="fil1 str0"
   id="_310028824" />
   <line
   y2="13.143"
   x2="15.5194"
   y1="0.17640001"
   x1="15.5194"
   class="fil1 str0"
   id="_310028920" />
   <g
   id="g36">
    <path
   d="m 15.5194,9.2176 v -0.255 l 0.0066,2e-4 0.0064,5e-4 0.0064,8e-4 0.0063,0.0011 0.0062,0.0014 0.006,0.0017 0.0059,0.002 0.0058,0.0023 0.0057,0.0026 0.0055,0.0028 0.0053,0.0031 0.0052,0.0033 0.005,0.0035 0.0048,0.0038 0.0046,0.004 0.0045,0.0043 0.0042,0.0044 0.004,0.0046 0.0038,0.0048 0.0035,0.005 0.0033,0.0052 0.0031,0.0053 0.0028,0.0055 0.0026,0.0057 0.0023,0.0058 0.002,0.0059 0.0017,0.006 0.0014,0.0062 0.0011,0.0063 8e-4,0.0064 5e-4,0.0064 2e-4,0.0066 -2e-4,0.0066 -5e-4,0.0064 -8e-4,0.0064 -0.0011,0.0063 -0.0014,0.0062 -0.0017,0.006 -0.002,0.0059 -0.0023,0.0058 -0.0026,0.0057 -0.0028,0.0055 -0.0031,0.0053 -0.0033,0.0052 -0.0035,0.005 -0.0038,0.0048 -0.004,0.0046 -0.0042,0.0044 -0.0045,0.0043 -0.0046,0.004 -0.0048,0.0038 -0.005,0.0035 -0.0052,0.0033 -0.0053,0.0031 -0.0055,0.0028 -0.0057,0.0026 -0.0058,0.0023 -0.0059,0.002 -0.006,0.0017 -0.0062,0.0014 -0.0063,0.0011 -0.0064,8e-4 -0.0064,5e-4 z M 9.1441,9.0901 9.2716,8.9626 h 6.2478 v 0.255 H 9.2716 Z M 9.2716,8.9626 v 0.255 L 9.265,9.2174 9.2586,9.2169 9.2522,9.2161 9.2459,9.215 9.2397,9.2136 9.2337,9.2119 9.2278,9.2099 9.222,9.2076 9.2163,9.205 9.2108,9.2022 9.2055,9.1991 9.2003,9.1958 9.1953,9.1923 9.1905,9.1885 9.1859,9.1845 9.1814,9.1802 9.1772,9.1758 9.1732,9.1712 9.1694,9.1664 9.1659,9.1614 9.1626,9.1562 9.1595,9.1509 9.1567,9.1454 9.1541,9.1397 9.1518,9.1339 9.1498,9.128 9.1481,9.122 9.1467,9.1158 9.1456,9.1095 9.1448,9.1031 9.1443,9.0967 9.1441,9.0901 9.1443,9.0835 9.1448,9.0771 9.1456,9.0707 9.1467,9.0644 9.1481,9.0582 9.1498,9.0522 9.1518,9.0463 9.1541,9.0405 9.1567,9.0348 9.1595,9.0293 9.1626,9.024 9.1659,9.0188 9.1694,9.0138 9.1732,9.009 9.1772,9.0044 9.1814,9 9.1859,8.9957 9.1905,8.9917 9.1953,8.9879 9.2003,8.9844 9.2055,8.9811 9.2108,8.978 9.2163,8.9752 9.222,8.9726 9.2278,8.9703 9.2337,8.9683 9.2397,8.9666 9.2459,8.9652 9.2522,8.9641 9.2586,8.9633 9.265,8.9628 Z M 9.1441,13.1008 V 9.0901 h 0.255 v 4.0107 z m 0,0 h 0.255 l -2e-4,0.0066 -5e-4,0.0064 -8e-4,0.0064 -0.0011,0.0063 -0.0014,0.0062 -0.0017,0.006 -0.002,0.0059 -0.0023,0.0058 -0.0026,0.0057 -0.0028,0.0055 -0.0031,0.0053 -0.0033,0.0052 -0.0035,0.005 -0.0038,0.0048 -0.004,0.0046 -0.0042,0.0045 -0.0045,0.0042 -0.0046,0.004 -0.0048,0.0038 -0.005,0.0035 -0.0052,0.0033 -0.0053,0.0031 -0.0055,0.0028 -0.0057,0.0026 -0.0058,0.0023 -0.0059,0.002 -0.006,0.0017 -0.0062,0.0014 -0.0063,0.0011 -0.0064,8e-4 -0.0064,5e-4 -0.0066,2e-4 -0.0066,-2e-4 -0.0064,-5e-4 -0.0064,-8e-4 L 9.2459,13.2257 9.2397,13.2243 9.2337,13.2226 9.2278,13.2206 9.222,13.2183 9.2163,13.2157 9.2108,13.2129 9.2055,13.2098 9.2003,13.2065 9.1953,13.203 9.1905,13.1992 9.1859,13.1952 9.1814,13.191 9.1772,13.1865 9.1732,13.1819 9.1694,13.1771 9.1659,13.1721 9.1626,13.1669 9.1595,13.1616 9.1567,13.1561 9.1541,13.1504 9.1518,13.1446 9.1498,13.1387 9.1481,13.1327 9.1467,13.1265 9.1456,13.1202 l -8e-4,-0.0064 -5e-4,-0.0064 z"
   class="fil5"
   id="_310029112" />
   </g>
   <rect
   id="rect38"
   height="2.1552"
   width="1.51132"
   y="5.6066098"
   x="6.1276698"
   class="fil3" />
   <path
   id="path40"
   d="M 5.8603,7.6139 H 7.639 V 5.6066 H 6.2599 v 1.3829 c 0,0.0936 -0.0085,0.216 -0.146,0.216 v 0 C 5.9847,7.2055 5.9732,7.0891 5.9732,6.9912 V 6.7932 5.5517 c 0,-0.1134 0.1038,-0.2061 0.2307,-0.2061 H 7.695 c 0.1269,0 0.2307,0.0927 0.2307,0.2061 v 2.0622 h 0.1128 c 0.0814,0 0.148,0.0666 0.148,0.1481 v 0 c 0,0.0814 -0.0666,0.148 -0.148,0.148 H 5.8603 c -0.0814,0 -0.148,-0.0666 -0.148,-0.148 v 0 c 0,-0.0815 0.0666,-0.1481 0.148,-0.1481 z"
   class="fil2" />
   <line
   id="line42"
   y2="13.1429"
   x2="16.7157"
   y1="13.1429"
   x1="0.1275"
   class="fil1 str0" />
  </g>
 </g>
</svg>
