<?xml version="1.0" encoding="UTF-8" standalone="no"?>
<svg
   xmlns:dc="http://purl.org/dc/elements/1.1/"
   xmlns:cc="http://creativecommons.org/ns#"
   xmlns:rdf="http://www.w3.org/1999/02/22-rdf-syntax-ns#"
   xmlns:svg="http://www.w3.org/2000/svg"
   xmlns="http://www.w3.org/2000/svg"
   xmlns:sodipodi="http://sodipodi.sourceforge.net/DTD/sodipodi-0.dtd"
   xmlns:inkscape="http://www.inkscape.org/namespaces/inkscape"
   inkscape:version="1.0 (4035a4fb49, 2020-05-01)"
   sodipodi:docname="burglar_checked.svg"
   id="svg19"
   version="1.1"
   viewBox="0 0 292.4 194.1"
   xml:space="preserve"><metadata
   id="metadata23"><rdf:RDF><cc:Work
       rdf:about=""><dc:format>image/svg+xml</dc:format><dc:type
         rdf:resource="http://purl.org/dc/dcmitype/StillImage" /></cc:Work></rdf:RDF></metadata><sodipodi:namedview
   inkscape:current-layer="svg19"
   inkscape:window-maximized="1"
   inkscape:window-y="-6"
   inkscape:window-x="-6"
   inkscape:cy="54.08409"
   inkscape:cx="146.2"
   inkscape:zoom="2.5244718"
   showgrid="false"
   id="namedview21"
   inkscape:window-height="658"
   inkscape:window-width="1280"
   inkscape:pageshadow="2"
   inkscape:pageopacity="0"
   guidetolerance="10"
   gridtolerance="10"
   objecttolerance="10"
   borderopacity="1"
   bordercolor="#666666"
   pagecolor="#ffffff" />
 <defs
   id="defs4">
  <style
   id="style2"
   type="text/css">
   <![CDATA[
    .str0 {stroke:#3F4446;stroke-width:0.504}
    .str1 {stroke:#00ACEE;stroke-width:0.504;stroke-linecap:round;stroke-linejoin:round}
    .fil0 {fill:none}
    .fil4 {fill:#15202A}
    .fil2 {fill:white}
    .fil1 {fill:#3F4446}
    .fil3 {fill:#00ACEE}
   ]]>
  </style>
 </defs>
 <g
   transform="matrix(13.189242,0,0,13.189242,49.521497,1.9938465)"
   id="Layer_x0020_1">
  <metadata
   id="CorelCorpID_0Corel-Layer" />
  <g
   id="_03.cdr">
   <path
   d="m 2.4143,6.6584 c 0.1472,0.843 0.2944,1.686 0.4416,2.529 0.2935,1.6812 0.5263,2.9977 2.0224,4.1002 1.7139,1.263 4.102,1.1958 5.8424,-0.592 1.1761,-1.2079 1.2203,-2.1101 1.3674,-3.6945 0.0697,-0.75 0.1393,-1.5001 0.209,-2.2501 C 9.0028,6.7202 5.7086,6.6893 2.4143,6.6584 Z"
   class="fil0 str0"
   id="_96024376" />
   <path
   d="M 4.3071,7.6963 C 4.9809,7.8795 5.6248,8.063 6.2986,8.2462 6.8034,8.3834 6.756,8.5831 6.5307,9.083 6.3899,9.3955 6.1593,9.6749 5.8896,9.8048 4.9948,10.2361 3.6635,9.3972 3.4824,8.378 3.4407,8.1435 3.4478,7.9152 3.5455,7.753 3.73,7.4468 4.0322,7.6216 4.3071,7.6963 Z"
   class="fil1"
   id="_96024664" />
   <path
   d="M 4.2571,8.2857 C 4.4906,9.4687 5.6465,9.5614 6.0051,8.8346 5.4224,8.6516 4.8398,8.4686 4.2571,8.2857 Z"
   class="fil2"
   id="_96023896" />
   <path
   d="M 10.6757,7.6963 C 10.0019,7.8795 9.358,8.063 8.6842,8.2462 8.1794,8.3834 8.2268,8.5831 8.452,9.083 8.5929,9.3955 8.8235,9.6749 9.0931,9.8048 9.988,10.2361 11.3193,9.3972 11.5004,8.378 11.5421,8.1435 11.535,7.9152 11.4373,7.753 11.2527,7.4468 10.9506,7.6216 10.6757,7.6963 Z"
   class="fil1"
   id="_96024856" />
   <path
   d="m 10.7257,8.2857 c -0.2335,1.183 -1.3894,1.2757 -1.748,0.5489 0.5827,-0.183 1.1653,-0.366 1.748,-0.5489 z"
   class="fil2"
   id="_96025696" />
   <path
   d="m 3.446,11.1354 c 1.3058,0.2654 2.6223,-0.0476 3.9903,-0.8401 1.5324,0.7838 3.0102,1.1453 4.2937,0.7467"
   class="fil0 str0"
   id="_96022480" />
   <path
   d="M 2.3755,4.4191 C 3.5751,0.9375 5.0333,-1.3112 7.4149,0.8438 9.282,-0.8275 10.9277,-0.0273 12.2501,4.3851 15.5739,4.839 15.6519,6.5588 11.2057,7.1481 8.444,7.514 5.2776,7.5466 2.554,6.9878 -0.581,6.3447 -1.0477,5.0307 2.3755,4.4191 Z"
   class="fil3"
   id="_96023920" />
   <path
   d="M 2.3074,5.1342 C 2.0938,5.9959 2.6801,6.1911 2.7896,5.3044 3.777,1.6054 5.0781,-0.8835 7.4836,1.7753 8.2702,2.51 8.9321,1.7428 8.0278,1.3886 9.713,-0.5727 10.8067,2.198 11.9096,4.8958 17.7478,6.3269 8.0472,7.2963 2.1154,6.2368 1.8864,6.1959 0.383,6.007 0.8505,5.5239 1.1077,5.2581 1.8802,5.0545 2.3074,5.1342 Z"
   class="fil4"
   id="_96022816" />
   <path
   d="M 5.7558,5.5646 C 6.1229,5.6227 6.4899,5.642 6.8571,5.5763"
   class="fil0 str1"
   id="_96023464" />
   <path
   d="M 7.8424,5.5763 C 9.0092,5.6158 10.1142,5.5675 11.1577,5.2044"
   class="fil0 str1"
   id="_96025048" />
  </g>
 </g>
</svg>
