<?xml version="1.0" encoding="UTF-8" standalone="no"?>
<svg
   xmlns:dc="http://purl.org/dc/elements/1.1/"
   xmlns:cc="http://creativecommons.org/ns#"
   xmlns:rdf="http://www.w3.org/1999/02/22-rdf-syntax-ns#"
   xmlns:svg="http://www.w3.org/2000/svg"
   xmlns="http://www.w3.org/2000/svg"
   xmlns:sodipodi="http://sodipodi.sourceforge.net/DTD/sodipodi-0.dtd"
   xmlns:inkscape="http://www.inkscape.org/namespaces/inkscape"
   inkscape:version="1.0 (4035a4fb49, 2020-05-01)"
   sodipodi:docname="camera_checked.svg"
   id="svg16"
   version="1.1"
   viewBox="0 0 292.4 194.1"
   xml:space="preserve"><metadata
   id="metadata20"><rdf:RDF><cc:Work
       rdf:about=""><dc:format>image/svg+xml</dc:format><dc:type
         rdf:resource="http://purl.org/dc/dcmitype/StillImage" /></cc:Work></rdf:RDF></metadata><sodipodi:namedview
   inkscape:current-layer="svg16"
   inkscape:window-maximized="1"
   inkscape:window-y="-6"
   inkscape:window-x="-6"
   inkscape:cy="34.504686"
   inkscape:cx="146.2"
   inkscape:zoom="2.5244718"
   showgrid="false"
   id="namedview18"
   inkscape:window-height="658"
   inkscape:window-width="1280"
   inkscape:pageshadow="2"
   inkscape:pageopacity="0"
   guidetolerance="10"
   gridtolerance="10"
   objecttolerance="10"
   borderopacity="1"
   bordercolor="#666666"
   pagecolor="#ffffff" />
 <defs
   id="defs4">
  <style
   id="style2"
   type="text/css">
   <![CDATA[
    .fil1 {fill:#15202A}
    .fil3 {fill:white}
    .fil2 {fill:#00ACEE}
    .fil0 {fill:#00ACEE;fill-rule:nonzero}
   ]]>
  </style>
 </defs>
 <g
   transform="matrix(14.669656,0,0,14.669656,34.068518,2.963313)"
   id="Layer_x0020_1">
  <metadata
   id="CorelCorpID_0Corel-Layer" />
  <g
   id="_09.cdr">
   <path
   d="M 2.0148,7.4449 C 1.3565,7.3094 0.8543,6.858 0.5156,6.2532 0.1174,5.5422 -0.0542,4.6161 0.0147,3.7501 0.105,2.6156 0.7027,1.8956 1.5214,1.4002 2.3215,0.9159 3.33,0.6519 4.2747,0.4214 5.4437,0.1362 6.6742,0.0025 7.8752,0 c 1.2666,-0.0026 2.5009,0.1409 3.596,0.4067 0.4068,0.0987 0.8959,0.2367 1.3881,0.4243 0.4967,0.1892 0.9994,0.4296 1.4305,0.7324 0.6507,0.4571 1.0094,1.0713 1.1588,1.7495 0.1752,0.7955 0.0603,1.677 -0.2081,2.4916 -0.1346,0.4086 -0.3287,0.7496 -0.596,1.0073 -0.247,0.2382 -0.5543,0.4031 -0.9321,0.4821 -0.0309,0.854 -0.2578,1.6445 -0.6261,2.3474 -0.4155,0.7928 -1.0106,1.4739 -1.7072,2.0086 -1.1598,0.8903 -2.389,1.2859 -3.6175,1.257 C 6.4661,12.8765 5.1757,12.3733 3.9727,11.4805 3.259,10.9508 2.7553,10.361 2.4368,9.6783 h -5e-4 C 2.132,9.0256 1.9986,8.2907 2.0148,7.4449 Z"
   class="fil0"
   id="_96394872" />
   <path
   d="M 2.0158,6.6185 C 1.9944,6.0997 2.3259,5.9569 2.7214,5.7651 3.1134,5.5751 4.3984,5.0099 4.7141,5.3142 4.7634,5.3617 4.7912,5.4288 4.7939,5.5021 4.807,5.8514 4.4263,5.9499 4.1609,5.9983 3.7867,6.0664 3.109,6.2561 2.632,6.5544 2.7327,8.1952 2.9952,9.5319 3.9669,10.3529 3.7659,9.4103 3.8097,8.6327 4.203,8.0907 4.9283,7.0911 6.5419,7.2254 7.6356,7.2291 c 1.8468,0.0063 3.3756,0.2867 3.4225,1.8441 -9e-4,0.6972 -0.1018,1.3144 -0.2308,1.9091 1.323,-1.0102 2.2445,-2.3179 2.056,-4.4477 C 12.4862,6.2906 11.9717,6.2578 11.5321,6.1209 11.3144,6.0531 11.1182,5.9474 11.0701,5.7393 11.0462,5.6358 11.0744,5.5346 11.1464,5.4639 c 0.1946,-0.191 0.5243,-0.0492 0.7513,0.008 0.6722,0.1692 1.7706,0.4551 1.7199,1.0417 0.6686,-0.394 1.1611,-0.8168 0.3986,-1.3427 C 11.649,3.6671 6.1033,3.4292 2.2885,4.7303 0.6552,5.3598 0.907,5.9891 2.0158,6.6185 Z"
   class="fil1"
   id="_96395040" />
   <ellipse
   cy="0"
   cx="0"
   ry="1.2903"
   rx="1.7582999"
   transform="matrix(0.245378,0.0184874,0,0.245378,9.89661,5.48423)"
   class="fil2"
   id="_96393600" />
   <path
   d="M 10.3281,10.0087 C 10.5764,8.725 10.1336,7.9761 8.8184,7.9024 7.7653,7.9289 6.7122,7.9553 5.659,7.9818 5.0353,8.0276 4.5544,8.2978 4.4683,9.1884 c 0.0057,0.7989 0.1736,1.4726 0.5572,1.9797 0.7001,0.9256 2.1031,1.1444 3.1891,1.019 1.4552,-0.1681 1.8615,-0.8756 2.1135,-2.1784 z"
   class="fil1"
   id="_96394848" />
   <circle
   r="1.07935"
   cy="9.6345396"
   cx="6.96245"
   class="fil2"
   id="_96393408" />
   <circle
   r="0.407745"
   cy="9.6345596"
   cx="6.96246"
   class="fil3"
   id="_96393672" />
   <path
   d="m 0.9837,4.7723 c 2.9267,-2.262 11.5844,-1.9342 13.6579,0 C 14.7135,4.3058 14.7464,3.866 14.6959,3.4836 14.5707,2.5342 13.6799,2.0603 12.886,1.6983 10.2965,0.5175 5.6701,0.1617 2.2268,1.9561 1.474,2.3483 0.8087,2.6815 0.8121,3.6458 0.8133,3.9793 0.8772,4.3598 0.9837,4.7723 Z"
   class="fil1"
   id="_96393048" />
  </g>
 </g>
</svg>
