<?xml version="1.0" encoding="UTF-8" standalone="no"?>
<svg
   xmlns:dc="http://purl.org/dc/elements/1.1/"
   xmlns:cc="http://creativecommons.org/ns#"
   xmlns:rdf="http://www.w3.org/1999/02/22-rdf-syntax-ns#"
   xmlns:svg="http://www.w3.org/2000/svg"
   xmlns="http://www.w3.org/2000/svg"
   xmlns:sodipodi="http://sodipodi.sourceforge.net/DTD/sodipodi-0.dtd"
   xmlns:inkscape="http://www.inkscape.org/namespaces/inkscape"
   inkscape:version="1.0 (4035a4fb49, 2020-05-01)"
   sodipodi:docname="duplex_checked.svg"
   id="svg64"
   version="1.1"
   viewBox="0 0 292.4 194.1"
   xml:space="preserve"><metadata
   id="metadata68"><rdf:RDF><cc:Work
       rdf:about=""><dc:format>image/svg+xml</dc:format><dc:type
         rdf:resource="http://purl.org/dc/dcmitype/StillImage" /></cc:Work></rdf:RDF></metadata><sodipodi:namedview
   inkscape:current-layer="svg64"
   inkscape:window-maximized="1"
   inkscape:window-y="-6"
   inkscape:window-x="-6"
   inkscape:cy="93.242897"
   inkscape:cx="146.2"
   inkscape:zoom="2.5244718"
   showgrid="false"
   id="namedview66"
   inkscape:window-height="658"
   inkscape:window-width="1280"
   inkscape:pageshadow="2"
   inkscape:pageopacity="0"
   guidetolerance="10"
   gridtolerance="10"
   objecttolerance="10"
   borderopacity="1"
   bordercolor="#666666"
   pagecolor="#ffffff" />
 <defs
   id="defs4">
  <style
   id="style2"
   type="text/css">
   <![CDATA[
    .str2 {stroke:#3F4446;stroke-width:0.2429}
    .str1 {stroke:#3F4446;stroke-width:0.2429;stroke-linecap:round;stroke-linejoin:round}
    .str0 {stroke:#C9CCCE;stroke-width:0.2429}
    .str3 {stroke:#C9CCCE;stroke-width:0.2429;stroke-linecap:round;stroke-linejoin:round}
    .fil2 {fill:none}
    .fil5 {fill:#15202A}
    .fil7 {fill:white}
    .fil6 {fill:#3F4446}
    .fil8 {fill:#C9CCCE}
    .fil1 {fill:#D9DBDD}
    .fil3 {fill:#3F4446;fill-rule:nonzero}
    .fil4 {fill:#00ACEE;fill-rule:nonzero}
    .fil0 {fill:#C9CCCE;fill-rule:nonzero}
   ]]>
  </style>
 </defs>
 <g
   transform="matrix(13.671095,0,0,13.385943,2.7678432,38.436211)"
   id="Layer_x0020_1">
  <metadata
   id="CorelCorpID_0Corel-Layer" />
  <g
   id="_04.cdr">
   <g
   id="g8">
    <path
   d="M 20.0941,8.9537 19.9726,8.8322 V 2.8984 h 0.243 v 5.9338 z m 0.1215,-0.1215 v 0.1215 h -0.1215 z m -6.2595,0 0.1215,-0.1215 h 6.0165 v 0.243 h -6.0165 z m 0.1215,0.1215 H 13.9561 V 8.8322 Z M 13.9561,2.8984 h 0.243 v 5.9338 h -0.243 z"
   class="fil0"
   id="_96024136" />
   </g>
   <polygon
   id="polygon10"
   points="13.7221,3.1491 16.072,0.9409 10.5363,0.9409 10.5363,3.1491 "
   class="fil1" />
   <polygon
   id="polygon12"
   points="13.7221,3.1491 16.072,0.9409 10.5363,0.9409 10.5363,3.1491 "
   class="fil2 str0" />
   <polygon
   id="polygon14"
   points="4.0335,0.7183 6.99,3.4564 6.99,2.8418 4.0369,0.1145 0.9266,2.8872 0.9266,3.4989 "
   class="fil1" />
   <g
   id="g18">
    <path
   id="path16"
   d="M 0.9419,8.9537 0.8204,8.8322 V 2.8984 h 0.243 v 5.9338 z m 0,0 H 0.8204 V 8.8322 Z M 7.0798,8.8322 6.9583,8.9537 H 0.9419 v -0.243 h 6.0164 z m 0,0 V 8.9537 H 6.9583 Z m 0,-5.9933 V 8.8322 H 6.8368 V 2.8389 Z"
   class="fil3" />
   </g>
   <line
   id="line20"
   y2="7.6526999"
   x2="10.518"
   y1="7.6526999"
   x1="13.9784"
   class="fil2 str0" />
   <path
   id="path22"
   d="M 7.7429,3.3913 C 7.7919,3.4367 7.7949,3.5132 7.7495,3.5622 7.7042,3.6112 7.6277,3.6141 7.5787,3.5688 L 4.0321,0.2844 0.3606,3.5702 C 0.3109,3.6148 0.2344,3.6105 0.1898,3.5607 0.1453,3.511 0.1495,3.4345 0.1993,3.3899 l 3.7535,-3.3592 1e-4,10e-5 c 0.0458,-0.0412 0.1165,-0.0414 0.1627,0.0013 z"
   class="fil4" />
   <polygon
   id="polygon24"
   points="7.3138,3.1491 4.964,0.9409 10.4996,0.9409 10.4996,3.1491 "
   class="fil5" />
   <circle
   id="circle26"
   r="1.14288"
   cy="3.2625799"
   cx="4.0413399"
   class="fil6" />
   <path
   id="path28"
   d="m 4.964,0.8195 h 5.5356 0.1215 V 0.9409 3.1491 3.2706 H 10.4996 7.3138 7.2661 L 7.2308,3.2374 4.8809,1.0292 4.6577,0.8195 Z m 5.4141,0.2429 H 5.2702 l 2.0913,1.9652 h 3.0166 z"
   class="fil4" />
   <path
   id="path30"
   d="M 4.1997,2.44 C 4.5866,2.514 4.879,2.8542 4.879,3.2626 4.879,3.671 4.5866,4.0112 4.1997,4.0852 Z M 3.883,4.0852 C 3.4962,4.0112 3.2037,3.671 3.2037,3.2626 3.2037,2.8542 3.4962,2.514 3.883,2.44 Z"
   class="fil7" />
   <rect
   id="rect32"
   ry="1.1143"
   rx="1.1143"
   height="2.71703"
   width="1.73963"
   y="3.9365399"
   x="7.8070202"
   class="fil6" />
   <path
   id="path34"
   d="m 8.1066,4.2245 h 1.1633 v 2.146 H 8.1066 V 5.3709 h 0.8245 c 0.0932,0 0.1694,-0.0762 0.1694,-0.1694 v 0 C 9.1005,5.1083 9.0243,5.0321 8.9311,5.0321 H 8.1066 Z"
   class="fil7" />
   <polyline
   id="polyline36"
   points="6.9597,8.8322 10.518,8.8322 10.518,0.9094 "
   class="fil2 str1" />
   <line
   id="line38"
   y2="7.6526999"
   x2="10.518"
   y1="7.6526999"
   x1="7.0574999"
   class="fil2 str2" />
   <path
   id="path40"
   d="m 3.4107,5.8691 h 1.3021 c 0.1813,0 0.3296,0.1482 0.3296,0.3295 V 8.847 H 3.0758 V 6.2039 c 0,-0.1842 0.1507,-0.3348 0.3349,-0.3348 z"
   class="fil6" />
   <rect
   id="rect42"
   height="2.4470401"
   width="1.32116"
   y="6.17419"
   x="3.3985"
   class="fil7" />
   <polyline
   id="polyline44"
   points="13.3751,3.4801 17.0025,0.1208 20.756,3.4801 "
   class="fil2 str3" />
   <rect
   id="rect46"
   ry="1.1143"
   rx="1.1143"
   height="2.71703"
   width="1.73963"
   y="3.9365399"
   x="11.4893"
   class="fil8" />
   <path
   id="path48"
   d="M 12.9293,4.2245 H 11.766 v 1.5786 h 1.1633 z M 11.766,6.0464 v 0.3241 h 1.1633 V 6.0464 Z"
   class="fil1" />
   <path
   id="path50"
   d="m 17.6252,5.8691 h -1.3021 c -0.1813,0 -0.3295,0.1482 -0.3295,0.3295 V 8.847 h 1.9665 V 6.2039 c 0,-0.1842 -0.1507,-0.3348 -0.3349,-0.3348 z"
   class="fil8" />
   <rect
   id="rect52"
   height="2.4470401"
   width="1.32116"
   y="6.17419"
   x="16.316299"
   class="fil1" />
   <circle
   id="circle54"
   r="1.14288"
   cy="3.2625799"
   cx="16.9946"
   class="fil8" />
   <path
   id="path56"
   d="m 16.8362,2.44 c -0.3869,0.074 -0.6793,0.4142 -0.6793,0.8226 0,0.4084 0.2924,0.7486 0.6793,0.8226 z m 0.3167,1.6452 c 0.3869,-0.074 0.6793,-0.4142 0.6793,-0.8226 0,-0.4084 -0.2924,-0.7486 -0.6793,-0.8226 z"
   class="fil1" />
   <line
   id="line58"
   y2="8.8470001"
   x2="10.4807"
   y1="8.8470001"
   x1="0.1215"
   class="fil2 str1" />
   <line
   id="line60"
   y2="8.8470001"
   x2="20.793501"
   y1="8.8470001"
   x1="10.4343"
   class="fil2 str3" />
  </g>
 </g>
</svg>
