<?xml version="1.0" encoding="UTF-8" standalone="no"?>
<svg
   xmlns:dc="http://purl.org/dc/elements/1.1/"
   xmlns:cc="http://creativecommons.org/ns#"
   xmlns:rdf="http://www.w3.org/1999/02/22-rdf-syntax-ns#"
   xmlns:svg="http://www.w3.org/2000/svg"
   xmlns="http://www.w3.org/2000/svg"
   xmlns:sodipodi="http://sodipodi.sourceforge.net/DTD/sodipodi-0.dtd"
   xmlns:inkscape="http://www.inkscape.org/namespaces/inkscape"
   inkscape:version="1.0 (4035a4fb49, 2020-05-01)"
   sodipodi:docname="kidslives_unchecked.svg"
   id="svg47"
   version="1.1"
   viewBox="0 0 292.4 194.1"
   xml:space="preserve"><metadata
   id="metadata51"><rdf:RDF><cc:Work
       rdf:about=""><dc:format>image/svg+xml</dc:format><dc:type
         rdf:resource="http://purl.org/dc/dcmitype/StillImage" /></cc:Work></rdf:RDF></metadata><sodipodi:namedview
   inkscape:current-layer="svg47"
   inkscape:window-maximized="1"
   inkscape:window-y="-6"
   inkscape:window-x="-6"
   inkscape:cy="47.557622"
   inkscape:cx="146.2"
   inkscape:zoom="2.5244718"
   showgrid="false"
   id="namedview49"
   inkscape:window-height="658"
   inkscape:window-width="1280"
   inkscape:pageshadow="2"
   inkscape:pageopacity="0"
   guidetolerance="10"
   gridtolerance="10"
   objecttolerance="10"
   borderopacity="1"
   bordercolor="#666666"
   pagecolor="#ffffff" />
 <defs
   id="defs4">
  <style
   id="style2"
   type="text/css">
   <![CDATA[
    .str0 {stroke:#3F4446;stroke-width:0.246042;stroke-linecap:round;stroke-linejoin:round}
    .fil1 {fill:none}
    .fil4 {fill:white}
    .fil3 {fill:#3F4446}
    .fil0 {fill:#EEF0F2}
    .fil2 {fill:#3F4446;fill-rule:nonzero}
   ]]>
  </style>
 </defs>
 <g
   transform="matrix(14.999,0,0,14.279456,82.393537,2.7728572)"
   id="Layer_x0020_1">
  <metadata
   id="CorelCorpID_0Corel-Layer" />
  <g
   id="_15.cdr">
   <polygon
   points="5.10554,13.0402 5.57662,7.36154 5.74328,7.35651 6.55547,7.21717 8.20065,6.70575 7.31637,12.7455 "
   class="fil0"
   id="_309683360" />
   <line
   y2="11.1294"
   x2="0.90991199"
   y1="6.6311002"
   x1="0.246535"
   class="fil1 str0"
   id="_309683288" />
   <path
   d="m 1.00281,11.6565 c 0.032345,0.300871 0.080272,0.603912 0.12948,0.908926 1.28938,0.874509 6.11673,0.607068 6.22955,-0.04428 0.300181,-1.96824 0.5265,-3.9364797 0.826682,-5.9048097"
   class="fil1 str0"
   id="_309683216" />
   <path
   d="m 1.07144,7.68302 c 0.11173,0.027217 0.223755,0.052561 0.335978,0.076229 m 0.337457,0.065973 c 1.47172,0.26468 2.98298,0.243873 4.51771,0.053054"
   class="fil1 str0"
   id="_309683144" />
   <g
   id="g13">
    <path
   d="m 4.21388,5.40484 c -2.25895,0 -4.09091,0.440903 -4.09091,0.984464 0,0.543659 1.83195,0.984563 4.09091,0.984563 2.25905,0 4.091,-0.440903 4.091,-0.984563 0,-0.543561 -1.83195,-0.984464 -4.091,-0.984464 z"
   class="fil0"
   id="_309683072" />
    <path
   d="M 0.245943,6.3893 H 0 v 0 l 0.00818497,-0.075637 0.0229771,-0.072481 0.0351066,-0.067551 0.0461514,-0.062028 0.0557169,-0.057591 0.0638033,-0.054435 0.0720869,-0.051082 0.079976,-0.049011 0.0876679,-0.046447 0.0956556,-0.045362 0.102854,-0.043094 0.110744,-0.041418 0.117449,-0.039544 0.12474703,-0.038262 0.131453,-0.036586 0.138454,-0.034614 0.14447,-0.033627 0.150781,-0.031458 0.1565,-0.02919 0.162319,-0.028006 0.16794,-0.026034 0.173166,-0.023766 0.178393,-0.022089 0.183028,-0.019723 0.187268,-0.018145 0.19141,-0.015482 0.196143,-0.013313 0.199398,-0.010946 0.20275,-0.00868 0.206202,-0.00621 0.20916,-0.00385 0.211922,-0.00178 v 0.245943 l -0.208963,7.889e-4 -0.206399,0.00385 -0.203244,0.00621 -0.199989,0.00868 -0.196439,0.010946 -0.192199,0.013313 -0.188649,0.015482 -0.18431,0.017159 -0.17928,0.019723 -0.174448,0.021301 -0.169419,0.023766 -0.163995,0.025048 -0.158571,0.02702 -0.152556,0.02919 -0.146047,0.030472 -0.139736,0.031655 -0.132537,0.033627 -0.125733,0.034811 -0.11804103,0.03629 -0.110744,0.037572 -0.102066,0.03846 -0.0941764,0.039347 -0.0852025,0.039643 -0.0760314,0.040728 -0.0665645,0.040333 -0.0567031,0.040432 -0.0464472,0.039051 -0.0355997,0.037473 -0.0258369,0.035008 -0.0169616,0.031063 -0.008579,0.027316 -0.002465,0.025738 v 0 z m 3.96793,0.861591 v 0.245943 0 L 4.001951,7.4950589 3.792791,7.491213 3.586589,7.4850003 3.383839,7.4763223 3.184441,7.4653761 2.988298,7.4520632 2.796888,7.4365808 2.60962,7.4184358 2.426592,7.398713 2.248199,7.3766235 2.075033,7.3528575 1.907093,7.3268234 1.744774,7.298817 1.588274,7.2696272 1.437493,7.2381693 1.293023,7.2045419 1.154569,7.1699284 1.023116,7.133244 0.898369,7.0950804 0.78092,7.0555362 0.670176,7.0141183 0.567322,6.971024 0.4716664,6.9256615 0.3839985,6.8792143 0.3040225,6.8301045 0.2319356,6.779121 0.1681323,6.724686 0.1124154,6.6669968 0.066264,6.6049686 0.0311574,6.5375166 0.0081803,6.4649367 -4.67e-6,6.3892997 h 0.245943 l 0.002465,0.025738 0.008579,0.027415 0.0169616,0.030965 0.0258369,0.035008 0.0355997,0.037572 0.0464472,0.039051 0.0567031,0.040333 0.0665645,0.040432 0.0760314,0.040728 0.0852025,0.039643 0.0941764,0.039347 0.102066,0.03846 0.110744,0.037572 0.11804097,0.036191 0.125733,0.034909 0.132537,0.033627 0.139736,0.031655 0.146047,0.030472 0.152556,0.02919 0.158571,0.02702 0.163995,0.025048 0.169419,0.023766 0.174448,0.021301 0.17928,0.019723 0.18431,0.017159 0.188649,0.015482 0.192199,0.013313 0.196439,0.010946 0.199989,0.00868 0.203244,0.00621 0.206399,0.00385 0.208963,7.89e-4 v 0 z M 8.181903,6.3893 h 0.245943 v 0 L 8.419656,6.464937 8.396679,6.537517 8.361572,6.604969 8.315421,6.666997 8.259704,6.724686 8.195901,6.779121 8.123814,6.830105 8.043838,6.879215 7.95617,6.925662 7.860514,6.971024 7.75766,7.014118 7.646916,7.055536 7.529467,7.09508 7.40472,7.133244 7.273267,7.169928 7.134813,7.204541 6.990343,7.238168 6.839562,7.269626 6.683062,7.298816 6.520743,7.326822 6.352803,7.352856 6.179637,7.376622 6.001244,7.398711 5.818118,7.418434 5.630949,7.436579 5.439441,7.452061 5.243396,7.465374 5.043998,7.47632 4.841149,7.485 4.634947,7.49121 4.425885,7.49506 4.213865,7.49683 V 7.250887 l 0.209062,-7.889e-4 0.206301,-0.00385 0.203244,-0.00621 0.200088,-0.00868 0.196439,-0.010946 0.1921,-0.013313 0.188747,-0.015482 0.184211,-0.017159 0.179379,-0.019723 0.174448,-0.021301 0.169419,-0.023766 0.163995,-0.025048 0.158571,-0.02702 0.152556,-0.02919 0.146047,-0.030472 0.139736,-0.031655 0.132537,-0.033627 0.125733,-0.034909 0.118041,-0.036191 0.110744,-0.037572 0.102066,-0.03846 0.094176,-0.039347 0.085203,-0.039643 0.076031,-0.040728 0.066565,-0.040432 0.056703,-0.040333 0.046447,-0.039051 0.0356,-0.037572 0.025837,-0.035008 0.016962,-0.030965 0.00858,-0.027415 0.00247,-0.025738 z M 4.213873,5.527808 v -0.245943 0 l 0.21202,0.00178 0.209062,0.00385 0.206202,0.00621 0.202849,0.00868 0.199398,0.010946 0.196045,0.013313 0.191508,0.015482 0.187169,0.018145 0.183126,0.019723 0.178393,0.022089 0.173166,0.023766 0.16794,0.026034 0.162319,0.028006 0.1565,0.02919 0.150781,0.031458 0.14447,0.033627 L 7.273275,5.608777 7.404728,5.645363 7.529475,5.683625 7.646924,5.723169 7.757668,5.764587 7.860522,5.807681 7.956178,5.853044 8.043846,5.899491 8.123822,5.948502 8.195909,5.999584 8.259712,6.054019 8.315429,6.11161 8.36158,6.173638 8.396687,6.241189 8.419664,6.31367 8.427854,6.389307 H 8.181911 L 8.179441,6.363569 8.170861,6.336253 8.153899,6.30519 8.128062,6.270182 8.092462,6.232709 8.046015,6.193658 7.989312,6.153226 7.922747,6.112893 7.846716,6.072165 7.761513,6.032522 7.667337,5.993175 7.565271,5.954715 7.454527,5.917143 7.336486,5.880853 7.210753,5.846042 7.078216,5.812415 6.93848,5.78076 6.792433,5.750288 6.639877,5.721098 6.481306,5.694078 6.317311,5.66903 6.147892,5.645264 5.973444,5.623963 5.794065,5.60424 5.609854,5.587081 5.421107,5.571599 5.229007,5.558286 5.032568,5.54734 4.83248,5.53866 4.629236,5.53245 4.422935,5.5286 4.213873,5.5278111 Z"
   class="fil2"
   id="_3096830721" />
   </g>
   <path
   id="path15"
   d="M 3.51776,7.25819 V 4.53486 c 0,-0.428675 -0.35077,-0.779445 -0.779445,-0.779445 H 2.074051 c -0.389723,0 -0.708542,0.318918 -0.708542,0.708641 v 2.5049 c 0.713374,0.162417 1.43079,0.249 2.15225,0.289235 z"
   class="fil3" />
   <path
   id="path17"
   d="m 2.405,3.95916 h 0.138454 c 0.375128,0 0.682015,0.275035 0.682015,0.61121 v 2.6682 C 2.712676,7.19804 2.201949,7.14183 1.693199,7.03937 V 5.11462 c 0.06548,0.036882 0.141018,0.057985 0.221389,0.057985 0.249494,0 0.451751,-0.202257 0.451751,-0.451751 0,-0.249395 -0.202257,-0.451652 -0.451751,-0.451652 -0.045954,0 -0.090429,0.0069 -0.132241,0.019624 C 1.904135,4.092683 2.137949,3.959159 2.404996,3.959159 Z"
   class="fil4" />
   <path
   id="path19"
   d="m 1.86154,4.54374 c 0.11242,0 0.203638,0.091218 0.203638,0.203737 0,0.112519 -0.091218,0.203737 -0.203638,0.203737 -0.112519,0 -0.203737,-0.091218 -0.203737,-0.203737 0,-0.112519 0.091218,-0.203737 0.203737,-0.203737 z"
   class="fil4" />
   <path
   id="path21"
   d="M 4.95368,4.50104 4.43566,7.27584 C 4.767693,7.27002 5.100516,7.251088 5.434127,7.218841 l 0.608744,-3.07133 -1.08919,0.353531 z"
   class="fil3" />
   <polygon
   id="polygon23"
   points="5.30711,4.58703 4.76257,7.2433 5.16383,7.22417 5.62248,4.5393 "
   class="fil4" />
   <path
   id="path25"
   d="M 6.01191,7.14981 7.14163,3.96606 8.29778,3.593398 7.12122,6.959488 C 6.753192,7.0487337 6.385855,7.105141 6.01191,7.149813 Z"
   class="fil3" />
   <path
   id="path27"
   d="m 6.36554,7.10514 1.0532,-2.9671 0.391695,0.028598 -1.03525,2.86858 C 6.639393,7.062633 6.500939,7.08206 6.365542,7.105135 Z"
   class="fil4" />
   <rect
   id="rect29"
   height="3.30374"
   width="0.94772202"
   y="0.47831601"
   x="1.9146399"
   class="fil3" />
   <rect
   id="rect31"
   height="2.1877301"
   width="0.39857501"
   y="1.42601"
   x="2.1715"
   class="fil4" />
   <path
   id="path33"
   d="M 1.48059,0 H 2.304313 C 2.611299,0 2.86237,0.206596 2.86237,0.513385 v 0.390019 c 0,0.37996 -0.31093,0.69089 -0.69089,0.69089 H 1.48059 C 1.035841,1.240467 1.038799,0.324044 1.48059,4e-6 Z"
   class="fil3" />
   <path
   id="path35"
   d="m 1.56037,1.22232 c 0.056407,0 0.112814,0 0.169222,0 C 1.631372,0.79966 1.780871,0.605686 1.910845,0.641187 2.068134,0.6840841 2.060048,0.921547 2.046439,1.045603 2.03638,1.138399 2.012121,1.22656 1.97662,1.310875 2.587534,1.290856 2.695418,0.501056 2.23351,0.336568 c -0.183324,0 -0.366548,0 -0.549773,0 C 1.519052,0.3997796 1.527335,0.787924 1.560371,1.222319 Z"
   class="fil4" />
   <path
   id="path37"
   d="M 6.04405,4.07927 6.29808,2.56564 C 6.3617847,2.185877 6.10312,1.823076 5.723357,1.759372 L 4.829026,1.609281 C 4.7556572,1.5969542 4.685543,1.6469516 4.673314,1.720222 L 4.234383,4.336552 C 4.220084,4.4217545 4.278069,4.50321 4.36337,4.517509 L 5.226144,4.662274 C 5.611429,4.7268662 5.979457,4.464553 6.044049,4.079268 Z"
   class="fil3" />
   <path
   id="path39"
   d="M 5.76557,3.86508 5.953233,2.6396 C 6.0003705,2.332121 5.8856824,2.03835 5.605027,1.986775 L 4.944017,1.865282 C 4.8898779,1.8554206 4.83781,1.8957537 4.829033,1.955218 l -0.03698,0.24831 c 0.014496,-0.00217 0.029486,-0.00247 0.044672,-6.903e-4 l 0.408361,0.048025 c 0.101671,0.011932 0.175927,0.112913 0.16508,0.224248 v 9.86e-5 C 5.39922,2.5866433 5.307114,2.6679993 5.205443,2.6560673 L 4.797082,2.6080423 C 4.774795,2.6053823 4.753889,2.5985723 4.734856,2.5882213 l -0.048124,0.323553 c 0.023174,-0.00769 0.048025,-0.01065 0.073566,-0.00759 l 0.408262,0.047926 c 0.10177,0.012031 0.176026,0.112913 0.165179,0.224347 v 0 c -0.010946,0.111434 -0.103052,0.19279 -0.204723,0.180858 L 4.720655,3.3093893 C 4.687915,3.3055393 4.658134,3.2924273 4.632987,3.2728033 l -0.046842,0.315269 c 0.019032,-0.00454 0.039051,-0.00592 0.059464,-0.00355 l 0.408361,0.048025 c 0.101671,0.011932 0.176026,0.112814 0.16508,0.224248 v 0 C 5.208104,3.9682293 5.115998,4.0496843 5.014327,4.0376533 L 4.605966,3.9897273 C 4.578453,3.9864773 4.552912,3.9767103 4.530526,3.9619183 L 4.50459,4.1361693 c -0.010256,0.06903 0.032345,0.134904 0.09536,0.14654 l 0.637638,0.117153 c 0.284699,0.052265 0.48025,-0.222868 0.52798,-0.534784 z"
   class="fil4" />
   <path
   id="path41"
   d="M 8.26149,3.69566 8.718172,2.23035 C 8.832663,1.862717 8.625672,1.468162 8.258039,1.353671 L 7.392208,1.083863 C 7.321206,1.061675 7.244977,1.101712 7.222888,1.172714 L 6.43368,3.705414 C 6.407942,3.787954 6.454389,3.876509 6.536929,3.902248 L 7.37219,4.16249 C 7.745148,4.278657 8.145324,4.068609 8.261491,3.695651 Z"
   class="fil3" />
   <path
   id="path43"
   d="M 8.0188,3.4653 8.356257,2.27799 C 8.4408678,1.980077 8.3636531,1.671711 8.091971,1.578915 L 7.452064,1.360288 C 7.399601,1.342439 7.342997,1.374784 7.326923,1.432276 L 7.259668,1.67319 c 0.014595,0 0.029486,0.00187 0.044376,0.00592 l 0.398598,0.10818 c 0.099304,0.02702 0.160445,0.13806 0.135792,0.24693 v 9.87e-5 c -0.024555,0.10887 -0.12593,0.175829 -0.225136,0.148907 L 7.214601,2.0749477 C 7.192906,2.0691277 7.172986,2.0591697 7.155433,2.0460537 l -0.087668,0.31379 c 0.023865,-0.00424 0.048913,-0.00345 0.073862,0.00335 l 0.398598,0.10818 c 0.099206,0.02702 0.160346,0.13806 0.135792,0.24693 v 9.86e-5 c -0.024555,0.10887 -0.12593,0.175829 -0.225234,0.148907 L 7.052185,2.7590313 C 7.020234,2.7504513 6.992326,2.7329973 6.969842,2.7098233 l -0.0854,0.305704 c 0.019427,-0.00177 0.039446,-9.86e-5 0.059464,0.00533 l 0.398598,0.10818 c 0.099304,0.026922 0.160445,0.13806 0.135792,0.24693 v 0 c -0.024555,0.10887 -0.12593,0.175927 -0.225234,0.149006 L 6.854464,3.4166953 C 6.827542,3.4093953 6.80348,3.3958873 6.783166,3.3780383 L 6.73593,3.5468653 c -0.018638,0.066959 0.015384,0.138651 0.076327,0.159459 l 0.617225,0.210935 C 7.705108,4.0113373 7.932907,3.7675633 8.0188,3.4653113 Z"
   class="fil4" />
  </g>
 </g>
</svg>
