<?xml version="1.0" encoding="UTF-8" standalone="no"?>
<svg
   xmlns:dc="http://purl.org/dc/elements/1.1/"
   xmlns:cc="http://creativecommons.org/ns#"
   xmlns:rdf="http://www.w3.org/1999/02/22-rdf-syntax-ns#"
   xmlns:svg="http://www.w3.org/2000/svg"
   xmlns="http://www.w3.org/2000/svg"
   xmlns:sodipodi="http://sodipodi.sourceforge.net/DTD/sodipodi-0.dtd"
   xmlns:inkscape="http://www.inkscape.org/namespaces/inkscape"
   inkscape:version="1.0 (4035a4fb49, 2020-05-01)"
   sodipodi:docname="otherlives_unchecked.svg"
   id="svg55"
   version="1.1"
   viewBox="0 0 292.4 194.1"
   xml:space="preserve"><metadata
   id="metadata59"><rdf:RDF><cc:Work
       rdf:about=""><dc:format>image/svg+xml</dc:format><dc:type
         rdf:resource="http://purl.org/dc/dcmitype/StillImage" /></cc:Work></rdf:RDF></metadata><sodipodi:namedview
   inkscape:current-layer="svg55"
   inkscape:window-maximized="1"
   inkscape:window-y="-6"
   inkscape:window-x="-6"
   inkscape:cy="30.153708"
   inkscape:cx="146.2"
   inkscape:zoom="2.5244718"
   showgrid="false"
   id="namedview57"
   inkscape:window-height="658"
   inkscape:window-width="1280"
   inkscape:pageshadow="2"
   inkscape:pageopacity="0"
   guidetolerance="10"
   gridtolerance="10"
   objecttolerance="10"
   borderopacity="1"
   bordercolor="#666666"
   pagecolor="#ffffff" />
 <defs
   id="defs4">
  <style
   id="style2"
   type="text/css">
   <![CDATA[
    .str0 {stroke:#3F4446;stroke-width:0.2709;stroke-linecap:round;stroke-linejoin:round}
    .fil0 {fill:none}
    .fil2 {fill:white}
    .fil3 {fill:#3F4446}
    .fil1 {fill:#3F4446;fill-rule:nonzero}
   ]]>
  </style>
 </defs>
 <g
   transform="matrix(13.619237,0,0,13.619237,44.761838,2.7728572)"
   id="Layer_x0020_1">
  <metadata
   id="CorelCorpID_0Corel-Layer" />
  <g
   id="_20.cdr">
   <path
   d="M 6.74,7.3173 C 6.6477,8.1406 6.5555,8.883 6.4633,9.7063 m -0.0579,0.5163 c -0.1143,1.0201 -0.2285,2.0403 -0.3428,3.0604 -1.164,0.6078 -3.662,0.6908 -5.0555,0 C 0.8022,11.3177 0.5973,9.3524 0.3924,7.3871"
   class="fil0 str0"
   id="_312437424" />
   <g
   id="g9">
    <path
   d="M 0.2704,6.9668 H 0 v 0 L 0.0072,6.8952 0.0272,6.8264 0.0585,6.7619 0.0988,6.7025 0.1471,6.648 0.2029,6.5964 0.2653,6.5483 0.3341,6.5029 0.4097,6.4589 0.4913,6.4176 0.5792,6.3773 0.6726,6.3395 0.7725,6.3027 0.8781,6.2672 0.9896,6.2336 1.1064,6.2019 1.2282,6.1711 1.3559,6.1424 1.4882,6.1153 1.6248,6.0897 1.7661,6.0664 1.9124,6.0443 2.0624,6.024 2.216,6.006 2.3739,5.9899 2.5354,5.9753 2.6998,5.9632 2.8679,5.9532 3.0385,5.9453 3.2122,5.9396 3.3881,5.9362 3.5662,5.9344 v 0.271 L 3.3913,6.206 3.2186,6.2094 3.0491,6.2151 2.8817,6.223 2.7178,6.233 2.5566,6.2451 2.3993,6.2587 2.2456,6.2748 2.0952,6.2928 1.9494,6.3121 1.8083,6.3332 1.6712,6.3565 1.5388,6.3809 1.4119,6.407 1.2906,6.4347 1.174,6.4633 1.0636,6.494 0.9595,6.5254 0.8613,6.5577 0.7698,6.5913 0.6848,6.6261 0.6075,6.661 0.5375,6.6971 0.4757,6.7325 0.4215,6.7685 0.3761,6.8038 0.3393,6.8374 0.311,6.8697 0.2909,6.8985 0.2786,6.9238 0.2722,6.946 Z m 3.2958,0.7615 v 0.271 0 L 3.3881,7.9975 3.2122,7.9941 3.0385,7.9884 2.8679,7.9805 2.6998,7.9705 2.5354,7.9584 2.3739,7.9438 2.216,7.9277 2.0624,7.9097 1.9124,7.8894 1.7661,7.8673 1.6248,7.844 1.4876,7.8184 1.3559,7.7912 1.2282,7.7625 1.1064,7.7317 0.9896,7.7001 0.8781,7.6664 0.7725,7.6309 0.6726,7.5942 0.5787,7.5563 0.4913,7.516 0.4097,7.4747 0.3341,7.4307 0.2653,7.3853 0.2029,7.3372 0.1471,7.2856 0.0988,7.2311 0.0585,7.1717 0.0272,7.1072 0.0072,7.0384 0,6.9668 h 0.2704 l 0.0018,0.0208 0.0064,0.0222 0.0123,0.0253 0.0201,0.0288 0.0283,0.0323 0.0368,0.0336 0.0454,0.0353 0.0542,0.036 0.0618,0.0354 0.07,0.0361 0.0778,0.0349 0.0845,0.0349 0.0915,0.0335 0.0982,0.0323 0.1041,0.0315 0.1104,0.0306 0.1166,0.0286 0.1213,0.0277 0.1275,0.0262 0.1318,0.0244 0.1371,0.0233 0.1411,0.0211 0.1458,0.0193 0.1504,0.018 0.1537,0.0161 0.1573,0.0136 0.1612,0.0121 0.1639,0.01 0.1674,0.0079 0.1695,0.0057 0.1727,0.0034 z M 6.8619,6.9668 h 0.2704 v 0 L 7.1251,7.0384 7.1051,7.1072 7.0738,7.1717 7.0335,7.2311 6.9852,7.2856 6.9294,7.3372 6.867,7.3853 6.7982,7.4307 6.7226,7.4747 6.641,7.516 6.5536,7.5563 6.4597,7.5942 6.3598,7.6309 6.2542,7.6664 6.1427,7.7001 6.0259,7.7317 5.9041,7.7625 5.7764,7.7912 5.6447,7.8184 5.5075,7.844 5.3662,7.8673 5.2199,7.8894 5.0699,7.9097 4.9163,7.9277 4.7584,7.9438 4.5969,7.9584 4.4325,7.9705 4.2645,7.9805 4.0939,7.9884 3.9201,7.9941 3.7443,7.9975 3.5662,7.9993 V 7.7283 L 3.7411,7.7277 3.9137,7.7243 4.0833,7.7186 4.2507,7.7107 4.4145,7.7007 4.5757,7.6886 4.733,7.675 4.8867,7.6589 5.0371,7.6409 5.1829,7.6216 5.324,7.6005 5.4611,7.5772 5.5929,7.5528 5.7204,7.5266 5.8417,7.4989 5.9583,7.4703 6.0687,7.4397 6.1728,7.4082 6.271,7.3759 6.3625,7.3424 6.447,7.3075 6.5248,7.2726 6.5948,7.2365 6.6566,7.2011 6.7108,7.1651 6.7562,7.1298 6.793,7.0962 6.8213,7.0639 6.8414,7.0351 6.8537,7.0098 6.8601,6.9876 Z M 3.5662,6.2054 v -0.271 0 l 0.1781,0.0018 0.1758,0.0034 0.1738,0.0057 0.1706,0.0079 0.168,0.01 0.1644,0.0121 0.1615,0.0146 0.1579,0.0161 0.1536,0.018 0.15,0.0203 0.1463,0.0221 0.1413,0.0233 0.1366,0.0256 0.1323,0.0271 0.1277,0.0287 0.1218,0.0308 0.1168,0.0317 0.1115,0.0336 0.1056,0.0355 0.0999,0.0368 0.0934,0.0378 0.0879,0.0403 0.0816,0.0413 0.0756,0.044 0.0688,0.0454 0.0624,0.0481 0.0558,0.0516 0.0483,0.0545 0.0403,0.0594 0.0313,0.0645 0.02,0.0688 0.0072,0.0716 H 6.8619 L 6.8601,6.946 6.8537,6.9238 6.8414,6.8985 6.8213,6.8697 6.793,6.8374 6.7562,6.8038 6.7108,6.7685 6.6566,6.7325 6.5948,6.6971 6.5248,6.661 6.4475,6.6261 6.3625,6.5913 6.271,6.5577 6.1728,6.5254 6.0687,6.494 5.9583,6.4633 5.8417,6.4347 5.7204,6.407 5.5935,6.3809 5.4611,6.3565 5.324,6.3332 5.1829,6.3121 5.0371,6.2928 4.8867,6.2748 4.733,6.2587 4.5757,6.2451 4.4145,6.233 4.2507,6.223 4.0833,6.2151 3.9137,6.2094 3.7411,6.206 Z"
   class="fil1"
   id="_312437352" />
   </g>
   <ellipse
   id="ellipse11"
   ry="0.67721599"
   rx="3.0922501"
   cy="6.9668102"
   cx="3.56617"
   class="fil2" />
   <path
   id="path13"
   d="M 4.9468,7.6598 5.686,5.6282 C 5.8521,5.1717 5.6464,4.6606 5.1957,4.4795 L 4.4973,4.199 C 4.0876,4.0345 3.6112,4.2326 3.453,4.6448 L 2.2915,7.6727 C 3.1802,7.7821 4.0654,7.7812 4.9468,7.6598 Z"
   class="fil3" />
   <path
   id="path15"
   d="m 4.7592,4.553 0.1455,0.0584 c 0.3944,0.1584 0.601,0.5772 0.459,0.9306 L 4.4922,7.7117 C 4.4707,7.7137 4.4492,7.7155 4.4277,7.7174 L 4.4062,7.7192 C 4.3417,7.7245 4.2771,7.7292 4.2125,7.7332 L 4.1909,7.7345 4.1479,7.737 4.1264,7.7382 C 4.0905,7.7401 4.0546,7.7419 4.0186,7.7435 l -0.0215,8e-4 -0.0215,9e-4 -0.0431,0.0016 -0.0216,7e-4 -0.0431,0.0013 -0.0216,6e-4 -0.0024,1e-4 -0.0407,9e-4 -0.0215,5e-4 -0.0216,4e-4 H 3.7577 l -0.0308,5e-4 -0.0352,5e-4 -0.039,3e-4 h -5e-4 L 3.6306,7.7527 H 3.6285 l -0.041,2e-4 -0.0216,-1e-4 H 3.5444 L 3.5128,7.7526 3.4789,7.7524 3.4449,7.752 3.4364,7.7518 3.4149,7.7515 3.4104,7.7514 3.3735,7.7507 3.3299,7.7498 3.3058,7.7492 3.2593,7.7478 3.2422,7.7473 3.2206,7.7465 3.1872,7.7453 3.1651,7.7444 3.1126,7.7422 h -1e-4 C 3.0786,7.722 3.036,7.7235 2.9892,7.7358 2.8673,7.7288 2.7454,7.7197 2.6235,7.7085 L 3.5229,5.4672 C 3.5761,5.5336 3.6466,5.5877 3.7312,5.6217 3.9935,5.727 4.2915,5.5997 4.3969,5.3375 4.5022,5.0752 4.375,4.7772 4.1127,4.6718 4.0643,4.6524 4.0147,4.6409 3.9653,4.6367 4.1761,4.4818 4.4784,4.4402 4.7592,4.553 Z"
   class="fil2" />
   <path
   id="path17"
   d="M 3.9409,4.9381 C 4.0591,4.9855 4.1165,5.12 4.069,5.2383 4.0215,5.3565 3.8871,5.4139 3.7688,5.3664 3.6506,5.3189 3.5931,5.1845 3.6407,5.0662 3.6882,4.9479 3.8226,4.8905 3.9409,4.9381 Z"
   class="fil2" />
   <rect
   y="0"
   x="0"
   id="rect19"
   height="14.2113"
   width="4.0767002"
   transform="matrix(0.244417,0.0981708,-0.0981708,0.244417,5.71354,0.686174)"
   class="fil3" />
   <rect
   y="0"
   x="0"
   id="rect21"
   height="9.4106998"
   width="1.7145"
   transform="matrix(0.244417,0.0981708,-0.0981708,0.244417,5.58339,1.79103)"
   class="fil2" />
   <path
   id="path23"
   d="M 5.4592,0 6.3253,0.3479 C 6.6479,0.4775 6.8247,0.8007 6.6951,1.1233 L 6.5304,1.5334 C 6.37,1.9328 5.9118,2.1284 5.5123,1.968 L 4.786,1.6762 C 4.4678,1.1163 4.8579,0.1541 5.4592,0 Z"
   class="fil3" />
   <path
   id="path25"
   d="M 5.0269,1.3188 C 5.0862,1.3426 5.1455,1.3664 5.2048,1.3902 5.2801,0.9044 5.519,0.7636 5.6408,0.8559 5.788,0.9674 5.6792,1.2136 5.6126,1.3382 5.5627,1.4316 5.5001,1.514 5.4271,1.5877 6.0779,1.8246 6.5249,1.0398 6.1086,0.6718 5.9159,0.5944 5.7233,0.517 5.5306,0.4396 5.3308,0.4366 5.1757,0.8481 5.0269,1.3188 Z"
   class="fil2" />
   <path
   id="path27"
   d="M 3.616,8.5082 C 3.4636,8.5219 3.3128,8.531 3.1635,8.5354 M 2.8393,8.5377 C 2.2139,8.5279 1.6161,8.4349 1.0442,8.2643"
   class="fil0 str0" />
   <path
   id="path29"
   d="M 14.4736,7.355 C 14.3814,8.1783 14.308,8.883 14.2157,9.7063 m -0.0578,0.5163 c -0.1143,1.0201 -0.2286,2.0403 -0.3429,3.0604 -1.1639,0.6078 -3.6619,0.6908 -5.0555,0 C 8.5546,11.3177 8.3497,9.3524 8.1448,7.3871"
   class="fil0 str0" />
   <g
   id="g33">
    <path
   id="path31"
   d="M 8.0228,6.9668 H 7.7524 v 0 L 7.7596,6.8952 7.7796,6.8264 7.8109,6.7619 7.8512,6.7025 7.8995,6.648 7.9553,6.5964 8.0177,6.5483 8.0865,6.5029 8.1621,6.4589 8.2437,6.4176 8.3316,6.3773 8.4251,6.3395 8.5249,6.3027 8.6305,6.2672 8.742,6.2336 8.8589,6.2019 8.9806,6.1711 9.1083,6.1424 9.2406,6.1153 9.3773,6.0897 9.5186,6.0664 9.6649,6.0443 9.8149,6.024 9.9685,6.006 l 0.1579,-0.0161 0.1615,-0.0146 0.1644,-0.0121 0.168,-0.01 0.1706,-0.0079 0.1738,-0.0057 0.1758,-0.0034 0.1781,-0.0018 v 0.271 L 11.1437,6.206 10.9711,6.2094 10.8015,6.2151 10.6341,6.223 10.4703,6.233 10.3091,6.2451 10.1518,6.2587 9.9981,6.2748 9.8477,6.2928 9.7019,6.3121 9.5608,6.3332 9.4237,6.3565 9.2912,6.3809 9.1643,6.407 9.043,6.4347 8.9265,6.4633 8.816,6.494 8.7119,6.5254 8.6137,6.5577 8.5223,6.5913 8.4372,6.6261 8.3599,6.661 8.2899,6.6971 8.2281,6.7325 8.1739,6.7685 8.1285,6.8038 8.0917,6.8374 8.0634,6.8697 8.0433,6.8985 8.031,6.9238 8.0246,6.946 Z m 3.2958,0.7615 v 0.271 0 L 11.1405,7.9975 10.9647,7.9941 10.7909,7.9884 10.6203,7.9805 10.4523,7.9705 10.2879,7.9584 10.1264,7.9438 9.9685,7.9277 9.8149,7.9097 9.6649,7.8894 9.5186,7.8673 9.3773,7.844 9.24,7.8184 9.1083,7.7912 8.9806,7.7625 8.8589,7.7317 8.742,7.7001 8.6305,7.6664 8.5249,7.6309 8.4251,7.5942 8.3311,7.5563 8.2437,7.516 8.1621,7.4747 8.0865,7.4307 8.0177,7.3853 7.9553,7.3372 7.8995,7.2856 7.8512,7.2311 7.8109,7.1717 7.7796,7.1072 7.7596,7.0384 7.7524,6.9668 h 0.2704 l 0.0018,0.0208 0.0064,0.0222 0.0123,0.0253 0.0201,0.0288 0.0283,0.0323 0.0368,0.0336 0.0454,0.0353 0.0542,0.036 0.0618,0.0354 0.07,0.0361 0.0778,0.0349 0.0846,0.0349 0.0914,0.0335 0.0982,0.0323 0.1041,0.0315 0.1105,0.0306 0.1165,0.0286 0.1213,0.0277 0.1275,0.0262 0.1319,0.0244 0.1371,0.0233 0.1411,0.0211 0.1458,0.0193 0.1504,0.018 0.1537,0.0161 0.1573,0.0136 0.1612,0.0121 0.1638,0.01 0.1674,0.0079 0.1696,0.0057 0.1726,0.0034 z m 3.2958,-0.7615 h 0.2704 v 0 l -0.0072,0.0716 -0.02,0.0688 -0.0313,0.0645 -0.0403,0.0594 -0.0483,0.0545 -0.0558,0.0516 -0.0624,0.0481 -0.0688,0.0454 -0.0756,0.044 -0.0816,0.0413 -0.0874,0.0403 -0.0939,0.0379 -0.0999,0.0367 -0.1056,0.0355 -0.1115,0.0337 -0.1168,0.0316 -0.1218,0.0308 -0.1277,0.0287 -0.1317,0.0272 -0.1372,0.0256 -0.1413,0.0233 -0.1463,0.0221 -0.15,0.0203 -0.1536,0.018 -0.1579,0.0161 -0.1615,0.0146 -0.1644,0.0121 -0.1681,0.01 -0.1706,0.0079 -0.1737,0.0057 -0.1759,0.0034 -0.1781,0.0018 v -0.271 l 0.1749,-6e-4 0.1727,-0.0034 0.1695,-0.0057 0.1674,-0.0079 0.1639,-0.01 0.1612,-0.0121 0.1573,-0.0136 0.1537,-0.0161 0.1504,-0.018 0.1458,-0.0193 0.1411,-0.0211 0.1371,-0.0233 0.1318,-0.0244 0.1275,-0.0262 0.1213,-0.0277 0.1166,-0.0286 0.1104,-0.0306 0.1041,-0.0315 0.0982,-0.0323 0.0915,-0.0335 0.0845,-0.0349 0.0778,-0.0349 0.07,-0.0361 0.0618,-0.0354 0.0542,-0.036 0.0454,-0.0353 0.0368,-0.0336 0.0283,-0.0323 0.0201,-0.0288 0.0123,-0.0253 0.0064,-0.0222 z M 11.3186,6.2054 v -0.271 0 l 0.1781,0.0018 0.1759,0.0034 0.1737,0.0057 0.1706,0.0079 0.1681,0.01 0.1644,0.0121 0.1615,0.0146 0.1579,0.0161 0.1536,0.018 0.15,0.0203 0.1463,0.0221 0.1413,0.0233 0.1366,0.0256 0.1323,0.0271 0.1277,0.0287 0.1218,0.0308 0.1168,0.0317 0.1115,0.0336 0.1056,0.0355 0.0999,0.0368 0.0934,0.0378 0.0879,0.0403 0.0816,0.0413 0.0756,0.044 0.0688,0.0454 0.0624,0.0481 0.0558,0.0516 0.0483,0.0545 0.0403,0.0594 0.0313,0.0645 0.02,0.0688 0.0072,0.0716 H 14.6144 L 14.6126,6.946 14.6062,6.9238 14.5939,6.8985 14.5738,6.8697 14.5455,6.8374 14.5087,6.8038 14.4633,6.7685 14.4091,6.7325 14.3473,6.6971 14.2773,6.661 14.2,6.6261 14.115,6.5913 14.0235,6.5577 13.9253,6.5254 13.8212,6.494 13.7108,6.4633 13.5942,6.4347 13.4729,6.407 13.346,6.3809 13.2136,6.3565 13.0765,6.3332 12.9354,6.3121 12.7896,6.2928 12.6392,6.2748 12.4855,6.2587 12.3282,6.2451 12.167,6.233 12.0031,6.223 11.8357,6.2151 11.6662,6.2094 11.4935,6.206 Z"
   class="fil1" />
   </g>
   <ellipse
   id="ellipse35"
   ry="0.67721599"
   rx="3.0922501"
   cy="6.9668102"
   cx="11.3186"
   class="fil2" />
   <path
   id="path37"
   d="M 12.0799,7.7111 V 5.0428 c 0,-0.4721 -0.3863,-0.8583 -0.8584,-0.8583 h -0.7316 c -0.4291,0 -0.7803,0.3512 -0.7803,0.7803 v 2.659 c 0.7682,0.1162 1.5679,0.1404 2.3703,0.0873 z"
   class="fil3" />
   <path
   id="path39"
   d="m 10.8544,4.4088 h 0.1524 c 0.4131,0 0.7512,0.3029 0.7512,0.6731 V 7.7282 C 11.1888,7.7511 10.6228,7.7339 10.0705,7.6714 V 5.6813 c 0.0721,0.0406 0.1553,0.0638 0.2439,0.0638 0.2747,0 0.4974,-0.2227 0.4974,-0.4974 0,-0.2747 -0.2227,-0.4975 -0.4974,-0.4975 -0.0507,0 -0.0996,0.0076 -0.1457,0.0217 0.1341,-0.216 0.3916,-0.3631 0.6857,-0.3631 z"
   class="fil2" />
   <path
   id="path41"
   d="m 10.2558,5.0526 c 0.1239,0 0.2244,0.1005 0.2244,0.2243 0,0.1239 -0.1005,0.2244 -0.2244,0.2244 -0.1238,0 -0.2243,-0.1005 -0.2243,-0.2244 0,-0.1238 0.1005,-0.2243 0.2243,-0.2243 z"
   class="fil2" />
   <rect
   id="rect43"
   height="3.6382799"
   width="1.04369"
   y="0.57549202"
   x="10.3144"
   class="fil3" />
   <rect
   id="rect45"
   height="2.40926"
   width="0.43893501"
   y="1.6191601"
   x="10.5972"
   class="fil2" />
   <path
   id="path47"
   d="m 9.8364,0.0487 h 0.9071 c 0.338,0 0.6146,0.2275 0.6146,0.5655 v 0.4295 c 0,0.4184 -0.3425,0.7608 -0.7609,0.7608 H 9.8364 c -0.4898,-0.3897 -0.4865,-1.3989 0,-1.7558 z"
   class="fil3" />
   <path
   id="path49"
   d="m 9.9242,1.3948 c 0.0621,0 0.1242,0 0.1864,0 -0.1081,-0.4655 0.0564,-0.679 0.1996,-0.6399 0.1732,0.0472 0.1643,0.3087 0.1494,0.4453 -0.0112,0.1022 -0.0379,0.1993 -0.077,0.2922 0.6728,-0.0221 0.7917,-0.8918 0.2829,-1.073 -0.2018,0 -0.4036,0 -0.6055,0 C 9.8787,0.489 9.8879,0.9164 9.9242,1.3948 Z"
   class="fil2" />
   <path
   id="path51"
   d="M 11.3684,8.5082 C 11.216,8.5219 11.0652,8.531 10.916,8.5354 M 10.5917,8.5377 C 9.9664,8.5279 9.3685,8.4349 8.7966,8.2643"
   class="fil0 str0" />
  </g>
 </g>
</svg>
