<?xml version="1.0" encoding="UTF-8" standalone="no"?>
<svg
   xmlns:dc="http://purl.org/dc/elements/1.1/"
   xmlns:cc="http://creativecommons.org/ns#"
   xmlns:rdf="http://www.w3.org/1999/02/22-rdf-syntax-ns#"
   xmlns:svg="http://www.w3.org/2000/svg"
   xmlns="http://www.w3.org/2000/svg"
   xmlns:sodipodi="http://sodipodi.sourceforge.net/DTD/sodipodi-0.dtd"
   xmlns:inkscape="http://www.inkscape.org/namespaces/inkscape"
   inkscape:version="1.0 (4035a4fb49, 2020-05-01)"
   sodipodi:docname="patnerlives_unchecked.svg"
   id="svg45"
   version="1.1"
   viewBox="0 0 292.4 194.1"
   xml:space="preserve"><metadata
   id="metadata49"><rdf:RDF><cc:Work
       rdf:about=""><dc:format>image/svg+xml</dc:format><dc:type
         rdf:resource="http://purl.org/dc/dcmitype/StillImage" /></cc:Work></rdf:RDF></metadata><sodipodi:namedview
   inkscape:current-layer="svg45"
   inkscape:window-maximized="1"
   inkscape:window-y="-6"
   inkscape:window-x="-6"
   inkscape:cy="76.926727"
   inkscape:cx="146.2"
   inkscape:zoom="2.5244718"
   showgrid="false"
   id="namedview47"
   inkscape:window-height="658"
   inkscape:window-width="1280"
   inkscape:pageshadow="2"
   inkscape:pageopacity="0"
   guidetolerance="10"
   gridtolerance="10"
   objecttolerance="10"
   borderopacity="1"
   bordercolor="#666666"
   pagecolor="#ffffff" />
	<defs
   id="defs4">
		<style
   id="style2"
   type="text/css">
			<![CDATA[
			.str0 {stroke:#3F4446;stroke-width:0.2617;stroke-linecap:round;stroke-linejoin:round}
			.fil0 {fill:none}
			.fil2 {fill:white}
			.fil3 {fill:#3F4446}
			.fil1 {fill:#3F4446;fill-rule:nonzero}
			]]>
		</style>
	</defs>
	<g
   transform="matrix(13.623451,0,0,13.623451,98.634493,2.7728572)"
   id="Layer_x0020_1">
		<metadata
   id="CorelCorpID_0Corel-Layer" />
		<g
   id="_22.cdr">
			<path
   d="M 6.5093,7.5513 C 6.4203,8.3464 6.3312,9.0502 6.2421,9.8453 m -0.0559,0.4986 c -0.1103,0.9853 -0.2207,1.9705 -0.3311,2.9558 -1.1241,0.5869 -3.5367,0.6671 -4.8826,0 C 0.7746,11.4016 0.5768,9.5035 0.3789,7.6054"
   class="fil0 str0"
   id="_311289456" />
			<g
   id="g9">
				<path
   d="M 0.261,7.1995 H 0 v 0 L 0.0068,7.1304 0.0262,7.0639 0.0565,7.0017 0.0953,6.9448 0.142,6.8915 0.1959,6.8417 0.2561,6.7954 0.3226,6.7515 0.3956,6.709 0.4744,6.6691 0.5593,6.6303 0.6496,6.5936 0.7461,6.558 0.848,6.5238 0.9557,6.4914 1.0686,6.4608 1.1861,6.431 1.3095,6.4033 1.4367,6.377 1.5692,6.3524 1.7056,6.3299 1.847,6.3085 1.9919,6.2894 2.1401,6.2715 2.2927,6.256 2.4487,6.2419 2.6074,6.2302 2.7698,6.2205 2.9345,6.2129 3.1023,6.2074 3.2721,6.204 3.4441,6.2024 V 6.464 L 3.2751,6.4646 3.1085,6.468 2.9447,6.4735 2.783,6.4811 2.6248,6.4908 2.4691,6.5025 2.3171,6.5156 2.1687,6.5311 2.0235,6.548 1.8826,6.5671 1.7464,6.5875 1.614,6.61 1.4867,6.6336 1.3635,6.6589 1.2463,6.6856 1.1338,6.7132 1.0271,6.7428 0.9266,6.7732 0.8317,6.8044 0.7434,6.8368 0.6613,6.8705 0.5866,6.9041 0.519,6.939 0.4592,6.9733 0.4071,7.008 0.3631,7.0421 0.3276,7.0745 0.3003,7.1052 0.2809,7.1335 0.269,7.1579 0.2628,7.1794 Z M 3.4441,7.935 v 0.2616 0 L 3.2721,8.195 3.1023,8.1916 2.9345,8.1861 2.7698,8.1785 2.6074,8.1688 2.4487,8.1571 2.2927,8.143 2.1401,8.1275 1.9919,8.1097 1.847,8.0905 1.7056,8.0692 1.5692,8.0466 1.4372,8.022 1.3095,7.9958 1.1861,7.968 1.0686,7.9382 0.9557,7.9077 0.848,7.8752 0.7461,7.841 0.6496,7.8054 0.5593,7.7688 0.4744,7.7299 0.3956,7.6901 0.3226,7.6476 0.2561,7.6036 0.1959,7.5573 0.142,7.5075 0.0953,7.4543 0.0565,7.3973 0.0262,7.3351 0.0068,7.2686 0,7.1995 H 0.261 L 0.2628,7.2196 0.269,7.2411 0.2809,7.2655 0.3003,7.2939 0.3276,7.3245 0.3631,7.3569 0.4071,7.391 0.4592,7.4258 0.519,7.4601 0.5866,7.4949 0.6613,7.5286 0.7434,7.5622 0.8317,7.5946 0.9266,7.6258 1.0271,7.6563 1.1338,7.6858 1.2463,7.7134 1.3635,7.7402 1.4862,7.7654 1.614,7.789 1.7464,7.8116 1.8826,7.8319 2.0235,7.8511 2.1687,7.8679 2.3171,7.8834 2.4691,7.8965 2.6248,7.9082 2.783,7.9179 2.9447,7.9255 3.1085,7.931 3.2751,7.9344 Z M 6.6272,7.1995 h 0.261 v 0 L 6.8814,7.2686 6.862,7.3351 6.8317,7.3973 6.7929,7.4543 6.7462,7.5075 6.6923,7.5573 6.6321,7.6036 6.5656,7.6476 6.4926,7.6901 6.4138,7.7299 6.3289,7.7688 6.2386,7.8054 6.1421,7.841 6.0402,7.8752 5.9325,7.9077 5.8196,7.9382 5.7021,7.968 5.5787,7.9958 5.451,8.022 5.319,8.0466 5.1826,8.0692 5.0412,8.0905 4.8963,8.1097 4.7481,8.1275 4.5955,8.143 4.4395,8.1571 4.2808,8.1688 4.1184,8.1785 3.9537,8.1861 3.7859,8.1916 3.6161,8.195 3.4441,8.1966 V 7.935 L 3.6131,7.9344 3.7797,7.931 3.9435,7.9255 4.1052,7.9179 4.2634,7.9082 4.4191,7.8965 4.5711,7.8834 4.7195,7.8679 4.8647,7.8511 5.0056,7.8319 5.1418,7.8116 5.2742,7.789 5.402,7.7654 5.5247,7.7402 5.6419,7.7134 5.7544,7.6858 5.8611,7.6563 5.9616,7.6258 6.0565,7.5946 6.1448,7.5622 6.2269,7.5286 6.3016,7.4949 6.3692,7.4601 6.429,7.4258 6.4811,7.391 6.5251,7.3569 6.5606,7.3245 6.5879,7.2939 6.6073,7.2655 6.6192,7.2411 6.6254,7.2196 Z M 3.4441,6.464 v -0.2616 0 L 3.6161,6.204 3.7859,6.2074 3.9537,6.2129 4.1184,6.2205 4.2808,6.2302 4.4395,6.2419 4.5955,6.256 4.7481,6.2715 4.8963,6.2894 5.0412,6.3085 5.1826,6.3299 5.319,6.3524 5.4515,6.377 5.5787,6.4033 5.7021,6.431 5.8196,6.4608 5.9325,6.4914 6.0402,6.5238 6.1421,6.558 6.2386,6.5936 6.3289,6.6303 6.4138,6.6691 6.4926,6.709 6.5656,6.7515 6.6321,6.7954 6.6923,6.8417 6.7462,6.8915 6.7929,6.9448 6.8317,7.0017 6.862,7.0639 6.8814,7.1304 6.8882,7.1995 H 6.6272 L 6.6254,7.1794 6.6192,7.1579 6.6073,7.1335 6.5879,7.1052 6.5606,7.0745 6.5251,7.0421 6.4811,7.008 6.429,6.9733 6.3692,6.939 6.3016,6.9041 6.2269,6.8705 6.1448,6.8368 6.0565,6.8044 5.9616,6.7732 5.8611,6.7428 5.7544,6.7132 5.6419,6.6856 5.5247,6.6589 5.4015,6.6336 5.2742,6.61 5.1418,6.5875 5.0056,6.5671 4.8647,6.548 4.7195,6.5311 4.5711,6.5156 4.4191,6.5025 4.2634,6.4908 4.1052,6.4811 3.9435,6.4735 3.7797,6.468 3.6131,6.4646 Z"
   class="fil1"
   id="_311289384" />
			</g>
			<ellipse
   id="ellipse11"
   ry="0.65405202"
   rx="2.98649"
   cy="7.1995101"
   cx="3.4440999"
   class="fil2" />
			<path
   id="path13"
   d="M 3.4922,8.6881 C 3.345,8.7014 3.1994,8.7102 3.0552,8.7145 M 2.7421,8.7167 C 2.1381,8.7072 1.5607,8.6174 1.0084,8.4526"
   class="fil0 str0" />
			<path
   id="path15"
   d="M 3.1893,7.9338 V 4.8233 c 0,-0.456 -0.3731,-0.829 -0.829,-0.829 H 1.6537 c -0.4144,0 -0.7536,0.3392 -0.7536,0.7536 V 7.619 c 0.5356,0.1864 1.5084,0.3095 2.2892,0.3148 z"
   class="fil3" />
			<path
   id="path17"
   d="m 2.0057,4.2109 h 0.1472 c 0.399,0 0.7255,0.2926 0.7255,0.6501 V 7.9283 C 2.3129,7.9066 1.7659,7.8449 1.2487,7.7191 V 5.4399 c 0.0696,0.0392 0.1499,0.0617 0.2355,0.0617 0.2653,0 0.4804,-0.2152 0.4804,-0.4805 0,-0.2653 -0.2151,-0.4804 -0.4804,-0.4804 -0.049,0 -0.0962,0.0073 -0.1407,0.0209 C 1.473,4.353 1.7217,4.2109 2.0057,4.2109 Z"
   class="fil2" />
			<path
   id="path19"
   d="m 1.4277,4.8327 c 0.1196,0 0.2166,0.097 0.2166,0.2167 0,0.1196 -0.097,0.2166 -0.2166,0.2166 C 1.308,5.266 1.211,5.169 1.211,5.0494 1.211,4.9297 1.308,4.8327 1.4277,4.8327 Z"
   class="fil2" />
			<rect
   id="rect21"
   height="3.5138299"
   width="1.00799"
   y="0.50872999"
   x="1.48417"
   class="fil3" />
			<rect
   id="rect23"
   height="2.3268499"
   width="0.42392099"
   y="1.51669"
   x="1.75737"
   class="fil2" />
			<path
   id="path25"
   d="m 1.0226,0 h 0.8761 c 0.3264,0 0.5935,0.2197 0.5935,0.5461 v 0.4148 c 0,0.4041 -0.3307,0.7348 -0.7348,0.7348 H 1.0226 C 0.5495,1.3193 0.5527,0.3447 1.0226,0 Z"
   class="fil3" />
			<path
   id="path27"
   d="m 1.1074,1.3 c 0.0599,0 0.1199,0 0.1799,0 C 1.1829,0.8505 1.3419,0.6443 1.4801,0.682 1.6474,0.7276 1.6388,0.9801 1.6244,1.1121 1.6136,1.2108 1.5878,1.3045 1.5501,1.3942 2.1998,1.3729 2.3147,0.5329 1.8233,0.358 c -0.1949,0 -0.3898,0 -0.5848,0 C 1.0634,0.4252 1.0723,0.838 1.1074,1.3 Z"
   class="fil2" />
			<path
   id="path29"
   d="M 5.7869,7.6826 6.1448,5.5206 C 6.2192,5.0707 5.9121,4.6418 5.4623,4.5673 L 4.7652,4.452 C 4.3563,4.3843 3.9646,4.6633 3.8986,5.0724 l -0.4623,2.8669 0.0034,10e-4 c 0.0256,0.001 0.0511,0.0019 0.0766,0.0027 l 0.0382,0.001 0.0035,10e-5 0.0347,8e-4 0.002,1e-4 0.0345,6e-4 0.0024,1e-4 0.0356,5e-4 h 0.0034 l 0.0354,4e-4 h 0.0034 c 0.0245,2e-4 0.049,3e-4 0.0734,3e-4 l 0.0379,-2e-4 0.0342,-2e-4 0.0055,-1e-4 0.0322,-4e-4 H 3.898 l 0.0355,-7e-4 h 0.0012 l 0.0367,-8e-4 h 10e-4 L 4.0092,7.9435 4.0468,7.9424 4.0826,7.9411 4.0846,7.941 4.1172,7.9397 4.1233,7.9395 C 4.1473,7.9385 4.1713,7.9373 4.1952,7.9361 L 4.1998,7.9359 4.2336,7.934 h 10e-5 L 4.2682,7.932 4.2709,7.9318 4.3081,7.9295 C 4.3303,7.928 4.3524,7.9264 4.3746,7.9248 L 4.3874,7.9238 4.4192,7.9214 4.4196,7.9213 4.4553,7.9184 4.4597,7.918 4.4933,7.915 4.5297,7.9117 h 4e-4 L 4.5669,7.9081 C 4.6146,7.9033 4.6621,7.8982 4.7094,7.8925 L 4.7231,7.8909 4.7502,7.8876 4.7867,7.883 C 4.822,7.8784 4.8573,7.8736 4.8925,7.8686 L 4.9001,7.8675 4.9294,7.8632 4.9391,7.8617 4.9665,7.8576 4.9684,7.8573 5.0023,7.852 5.0046,7.8516 C 5.0513,7.8442 5.0978,7.8363 5.1443,7.828 L 5.1548,7.8261 C 5.1767,7.8222 5.1986,7.8181 5.2205,7.814 L 5.2563,7.8071 h 10e-5 L 5.292,7.8 5.3274,7.7928 5.3279,7.7927 5.362,7.7856 5.3645,7.7851 C 5.3879,7.7802 5.4112,7.7751 5.4345,7.77 L 5.466,7.763 5.47,7.762 C 5.4926,7.7569 5.5152,7.7517 5.5378,7.7463 l 0.0041,-9e-4 0.0288,-0.0069 0.0075,-0.0019 0.0329,-0.0081 5e-4,-1e-4 C 5.635,7.7226 5.6584,7.7167 5.6817,7.7107 L 5.7151,7.702 5.7169,7.7015 5.7519,7.6921 5.7564,7.6909 Z"
   class="fil3" />
			<path
   id="path31"
   d="m 5.0771,4.7232 0.1452,0.024 C 5.6159,4.8124 5.8903,5.1543 5.8319,5.507 L 5.4582,7.7647 5.4315,7.7706 5.378,7.7822 5.3512,7.7879 5.3247,7.7934 h -3e-4 l -0.026,0.0053 -9e-4,2e-4 -0.0269,0.0053 -5e-4,10e-5 -0.024,0.0047 -0.008,0.0016 C 5.1519,7.8272 5.0653,7.8422 4.9783,7.8557 L 4.9703,7.857 4.9458,7.8607 h -2e-4 L 4.9183,7.8648 4.9171,7.865 4.891,7.8688 4.8905,7.8689 4.8636,7.8726 4.8363,7.8764 4.8115,7.8797 4.8061,7.8805 4.7824,7.8835 4.7814,7.8837 4.754,7.8871 4.7331,7.8897 4.7265,7.8905 4.7026,7.8934 4.699,7.8938 4.6714,7.897 4.6687,7.8973 4.6438,7.9 4.6163,7.903 h -10e-5 l -0.0276,0.0029 -0.0155,0.0016 -0.0049,4e-4 -0.028,0.0028 -0.007,7e-4 -0.0035,3e-4 -0.0113,0.001 -0.0267,0.0025 -0.0054,5e-4 -0.0086,8e-4 -0.0278,0.0023 -0.0206,0.0017 -0.0072,6e-4 -0.0228,0.0018 -0.0051,4e-4 -0.0381,0.0029 h -10e-4 l -0.0324,0.0023 -0.0122,8e-4 -0.028,0.0018 -0.0143,9e-4 -0.0137,8e-4 -0.028,0.0016 -0.0021,2e-4 -0.026,0.0013 -0.0179,10e-4 -0.0102,5e-4 -0.0281,0.0013 -0.0057,2e-4 -0.0398,0.0017 -0.0043,2e-4 -0.0065,2e-4 -0.0282,0.001 -0.0095,4e-4 -0.007,2e-4 -0.0304,9e-4 -0.0067,2e-4 -0.0029,1e-4 C 3.9747,7.9445 3.9481,7.9451 3.9215,7.9456 l -0.0053,1e-4 h -8e-4 l -0.0072,10e-5 c -0.0257,4e-4 -0.0515,7e-4 -0.0773,9e-4 H 3.8265 3.8257 C 3.7799,7.947 3.8155,7.947 3.7698,7.9465 L 4.1295,5.8121 C 4.1918,5.8621 4.2674,5.8973 4.3518,5.9113 4.6135,5.9546 4.8609,5.7775 4.9042,5.5158 4.9475,5.254 4.7704,5.0066 4.5087,4.9633 4.4604,4.9553 4.4126,4.9549 4.3665,4.961 4.5283,4.7763 4.7969,4.6768 5.0771,4.7232 Z"
   class="fil2" />
			<path
   id="path33"
   d="M 4.4052,5.2422 C 4.5233,5.2617 4.6032,5.3733 4.5836,5.4914 4.5641,5.6094 4.4525,5.6893 4.3345,5.6697 4.2164,5.6502 4.1366,5.5386 4.1561,5.4206 4.1756,5.3026 4.2872,5.2227 4.4052,5.2422 Z"
   class="fil2" />
			<polygon
   id="polygon35"
   points="5.1671,0.9855 4.5933,4.4521 5.5878,4.6167 6.1615,1.1501 "
   class="fil3" />
			<polygon
   id="polygon37"
   points="4.8921,4.3202 5.272,2.0246 5.6902,2.0938 5.3103,4.3894 "
   class="fil2" />
			<path
   id="path39"
   d="M 4.7947,0.4082 5.6591,0.5513 C 5.9811,0.6046 6.2087,0.865 6.1554,1.187 L 6.0877,1.5962 C 6.0217,1.9949 5.6414,2.2671 5.2428,2.2011 L 4.5178,2.0812 C 4.1126,1.6326 4.2749,0.6715 4.7947,0.4082 Z"
   class="fil3" />
			<path
   id="path41"
   d="M 4.6661,1.7047 C 4.7253,1.7145 4.7845,1.7242 4.8437,1.734 4.8141,1.2735 5.0045,1.096 5.1348,1.1558 5.2924,1.2281 5.2427,1.4758 5.2069,1.6036 5.1801,1.6993 5.1394,1.7876 5.0875,1.8699 5.732,1.955 5.9825,1.145 5.5263,0.8922 5.334,0.8603 5.1417,0.8285 4.9494,0.7967 4.7656,0.8344 4.707,1.2431 4.6661,1.7047 Z"
   class="fil2" />
		</g>
	</g>
</svg>
