<?xml version="1.0" encoding="UTF-8" standalone="no"?>
<svg
   xmlns:dc="http://purl.org/dc/elements/1.1/"
   xmlns:cc="http://creativecommons.org/ns#"
   xmlns:rdf="http://www.w3.org/1999/02/22-rdf-syntax-ns#"
   xmlns:svg="http://www.w3.org/2000/svg"
   xmlns="http://www.w3.org/2000/svg"
   xmlns:sodipodi="http://sodipodi.sourceforge.net/DTD/sodipodi-0.dtd"
   xmlns:inkscape="http://www.inkscape.org/namespaces/inkscape"
   inkscape:version="1.0 (4035a4fb49, 2020-05-01)"
   sodipodi:docname="singlefamilyhome_checked.svg"
   id="svg45"
   version="1.1"
   viewBox="0 0 292.4 194.1"
   xml:space="preserve"><metadata
   id="metadata49"><rdf:RDF><cc:Work
       rdf:about=""><dc:format>image/svg+xml</dc:format><dc:type
         rdf:resource="http://purl.org/dc/dcmitype/StillImage" /></cc:Work></rdf:RDF></metadata><sodipodi:namedview
   inkscape:current-layer="svg45"
   inkscape:window-maximized="1"
   inkscape:window-y="-6"
   inkscape:window-x="-6"
   inkscape:cy="82.36545"
   inkscape:cx="146.2"
   inkscape:zoom="2.5244718"
   showgrid="false"
   id="namedview47"
   inkscape:window-height="658"
   inkscape:window-width="1280"
   inkscape:pageshadow="2"
   inkscape:pageopacity="0"
   guidetolerance="10"
   gridtolerance="10"
   objecttolerance="10"
   borderopacity="1"
   bordercolor="#666666"
   pagecolor="#ffffff" />
 <defs
   id="defs4">
  <style
   id="style2"
   type="text/css">
   <![CDATA[
    .fil0 {fill:#15202A}
    .fil3 {fill:#3F4446}
    .fil2 {fill:#D9DBDD}
    .fil4 {fill:#3F4446;fill-rule:nonzero}
    .fil1 {fill:#00ACEE;fill-rule:nonzero}
   ]]>
  </style>
 </defs>
 <g
   transform="matrix(12.469284,0,0,13.64781,5.5462622,9.5499945)"
   id="Layer_x0020_1">
  <metadata
   id="CorelCorpID_0Corel-Layer" />
  <g
   id="_25.cdr">
   <path
   d="m 0.6666,4.4286 5.9458,0.0642 3.4123,-3.124 H 5.2805 Z M 15.818,4.5185 21.9538,4.4286 17.3678,1.3688 h -4.7739 z"
   class="fil0"
   id="_313537160" />
   <path
   d="M 1.2459,4.2537 H 6.7347 L 6.3359,4.6034 H 0.6666 V 4.603 C 0.6101,4.603 0.5547,4.5755 0.5212,4.5249 0.468,4.4445 0.4901,4.3363 0.5704,4.2831 L 5.1746,1.2298 C 5.204,1.2074 5.2407,1.194 5.2805,1.194 h 4.9436 L 9.8253,1.5437 H 5.3325 Z m 14.4848,0 h 5.6471 l -4.0619,-2.71 H 12.784 L 12.4038,1.194 h 4.964 v 6e-4 c 0.0334,-1e-4 0.0672,0.0095 0.097,0.0295 l 4.5736,3.0515 c 0.0538,0.0298 0.0902,0.0871 0.0902,0.153 0,0.0965 -0.0783,0.1748 -0.1748,0.1748 h -5.8429 z"
   class="fil1"
   id="_313537088" />
   <rect
   height="0.877684"
   width="5.3042698"
   y="4.4665098"
   x="1.55035"
   class="fil2"
   id="_313537016" />
   <polygon
   points="16.5919,4.2877 16.5919,4.3835 21.1239,4.3835 21.1239,5.3569 16.5919,5.3569 16.5919,12.6337 15.4589,12.6337 15.4589,4.2877 "
   class="fil2"
   id="_313536944" />
   <polygon
   points="11.3448,1.5536 15.4562,5.5456 15.736,4.5383 16.0131,4.4284 11.3321,0.1417 6.6384,4.3902 7.0079,4.4512 7.0416,5.4858 "
   class="fil2"
   id="_313536872" />
   <ellipse
   ry="1.3696001"
   rx="1.33318"
   cy="4.41401"
   cx="11.3394"
   class="fil3"
   id="_313536800" />
   <ellipse
   ry="0.935516"
   rx="0.91063601"
   cy="4.41401"
   cx="11.3394"
   class="fil2"
   id="_313536728" />
   <g
   id="g15">
    <path
   d="M 7.1675,4.428 6.9926,4.6021 H 1.4855 V 4.2539 H 6.9926 Z M 6.9926,4.6021 V 4.2539 l 0.009,2e-4 0.0089,7e-4 0.0087,0.0011 0.0086,0.0015 0.0085,0.002 0.0083,0.0023 0.0081,0.0028 0.0079,0.0031 0.0078,0.0035 0.0075,0.0038 0.0073,0.0042 0.0071,0.0045 0.0069,0.0049 0.0066,0.0052 0.0064,0.0054 0.006,0.0058 0.0058,0.0061 0.0055,0.0063 0.0052,0.0066 0.0049,0.0068 0.0046,0.007 0.0042,0.0073 0.0038,0.0075 0.0035,0.0078 0.0032,0.0079 0.0027,0.008 0.0024,0.0083 0.0019,0.0084 0.0016,0.0086 0.0011,0.0087 7e-4,0.0088 2e-4,0.009 -2e-4,0.009 -7e-4,0.0088 L 7.1655,4.4545 7.1639,4.4631 7.162,4.4715 7.1596,4.4798 7.1569,4.4878 7.1537,4.4957 7.1502,4.5035 7.1464,4.511 7.1422,4.5183 7.1376,4.5253 7.1327,4.5321 7.1275,4.5387 7.122,4.545 7.1162,4.5511 7.1102,4.5569 7.1038,4.5623 7.0972,4.5675 7.0903,4.5724 7.0832,4.5769 7.0759,4.5811 7.0684,4.5849 7.0606,4.5884 7.0527,4.5915 7.0446,4.5943 7.0363,4.5966 7.0278,4.5986 7.0192,4.6001 7.0105,4.6012 7.0016,4.6019 Z m 0,8.1879 -0.1749,-0.1741 V 4.428 h 0.3498 v 8.1879 z M 6.8177,12.6159 h 0.3498 l -2e-4,0.009 -7e-4,0.0088 -0.0011,0.0087 -0.0016,0.0086 -0.0019,0.0084 -0.0024,0.0083 -0.0027,0.008 -0.0032,0.0079 -0.0035,0.0078 -0.0038,0.0075 -0.0042,0.0073 -0.0046,0.007 -0.0049,0.0068 -0.0052,0.0066 -0.0055,0.0063 -0.0058,0.0061 -0.006,0.0058 -0.0064,0.0054 -0.0066,0.0052 -0.0069,0.0049 -0.0071,0.0045 -0.0073,0.0042 -0.0075,0.0038 -0.0078,0.0035 -0.0079,0.0031 -0.0081,0.0028 -0.0083,0.0023 -0.0085,0.002 -0.0086,0.0015 -0.0087,0.0011 -0.0089,7e-4 -0.009,2e-4 -0.009,-2e-4 -0.0089,-7e-4 L 6.966,12.788 6.9574,12.7865 6.9489,12.7845 6.9406,12.7822 6.9325,12.7794 6.9246,12.7763 6.9168,12.7728 6.9093,12.769 6.902,12.7648 6.8949,12.7603 6.888,12.7554 6.8814,12.7502 6.875,12.7448 6.869,12.739 6.8632,12.7329 6.8577,12.7266 6.8525,12.72 6.8476,12.7132 6.843,12.7062 6.8388,12.6989 6.835,12.6914 6.8315,12.6836 6.8283,12.6757 6.8256,12.6677 6.8232,12.6594 6.8213,12.651 6.8197,12.6424 6.8186,12.6337 6.8179,12.6249 Z m -5.5071,0 0.1749,-0.1741 H 6.9926 V 12.79 H 1.4855 Z M 1.4855,12.4418 V 12.79 l -0.009,-2e-4 -0.0089,-7e-4 L 1.4589,12.788 1.4503,12.7865 1.4418,12.7845 1.4335,12.7822 1.4254,12.7794 1.4175,12.7763 1.4097,12.7728 1.4022,12.769 1.3949,12.7648 1.3878,12.7603 1.3809,12.7554 1.3743,12.7502 1.3679,12.7448 1.3619,12.739 1.3561,12.7329 1.3506,12.7266 1.3454,12.72 1.3405,12.7132 1.3359,12.7062 1.3317,12.6989 1.3279,12.6914 1.3244,12.6836 1.3212,12.6757 1.3185,12.6677 1.3161,12.6594 1.3142,12.651 1.3126,12.6424 1.3115,12.6337 l -7e-4,-0.0088 -2e-4,-0.009 2e-4,-0.009 7e-4,-0.0088 0.0011,-0.0087 0.0016,-0.0086 0.0019,-0.0084 0.0024,-0.0083 0.0027,-0.008 0.0032,-0.0079 0.0035,-0.0078 0.0038,-0.0075 0.0042,-0.0073 0.0046,-0.007 0.0049,-0.0068 0.0052,-0.0066 0.0055,-0.0063 0.0058,-0.0061 0.006,-0.0058 0.0064,-0.0054 0.0066,-0.0052 0.0069,-0.0049 0.0071,-0.0045 0.0073,-0.0042 0.0075,-0.0038 0.0078,-0.0035 0.0079,-0.0031 0.0081,-0.0028 0.0083,-0.0023 0.0085,-0.002 0.0086,-0.0015 0.0087,-0.0011 0.0089,-7e-4 z m 0,-8.1879 0.1749,0.1741 v 8.1879 H 1.3106 V 4.428 Z M 1.6604,4.428 H 1.3106 L 1.3108,4.419 1.3115,4.4102 1.3126,4.4015 1.3142,4.3929 1.3161,4.3845 1.3185,4.3762 1.3212,4.3682 1.3244,4.3603 1.3279,4.3525 1.3317,4.345 1.3359,4.3377 1.3405,4.3307 1.3454,4.3239 1.3506,4.3173 1.3561,4.311 1.3619,4.3049 1.3679,4.2991 1.3743,4.2937 1.3809,4.2885 1.3878,4.2836 1.3949,4.2791 1.4022,4.2749 1.4097,4.2711 1.4175,4.2676 1.4254,4.2645 1.4335,4.2617 1.4418,4.2594 1.4503,4.2574 1.4589,4.2559 1.4676,4.2548 l 0.0089,-7e-4 0.009,-2e-4 0.009,2e-4 0.0089,7e-4 0.0087,0.0011 0.0086,0.0015 0.0085,0.002 0.0083,0.0023 0.0081,0.0028 0.0079,0.0031 0.0078,0.0035 0.0075,0.0038 0.0073,0.0042 0.0071,0.0045 0.0069,0.0049 0.0066,0.0052 0.0064,0.0054 0.006,0.0058 0.0058,0.0061 0.0055,0.0063 0.0052,0.0066 0.0049,0.0068 0.0046,0.007 0.0042,0.0073 0.0038,0.0075 0.0035,0.0078 0.0032,0.0079 0.0027,0.008 0.0024,0.0083 0.0019,0.0084 0.0016,0.0086 0.0011,0.0087 7e-4,0.0088 z"
   class="fil4"
   id="_313536656" />
   </g>
   <rect
   id="rect17"
   ry="1.0726"
   rx="1.0726"
   height="3.89815"
   width="2.70927"
   y="5.6160402"
   x="2.95296"
   class="fil3" />
   <rect
   id="rect19"
   height="3.0407901"
   width="0.73161799"
   y="6.0447202"
   x="3.36449"
   class="fil2" />
   <rect
   id="rect21"
   height="3.0407901"
   width="0.73161799"
   y="6.0447202"
   x="4.5190802"
   class="fil2" />
   <rect
   id="rect23"
   height="0.43909001"
   width="5.5353098"
   y="10.6988"
   x="1.47135"
   class="fil3" />
   <rect
   id="rect25"
   ry="0.6692"
   rx="0.6692"
   height="0.44219601"
   width="22.7257"
   y="12.3416"
   x="-4.77717e-05"
   class="fil3" />
   <path
   id="path27"
   d="m 10.3921,7.667 h 1.872 c 0.2643,0 0.4806,0.2162 0.4806,0.4806 v 4.3362 H 9.902 V 8.1571 c 0,-0.2696 0.2205,-0.4901 0.4901,-0.4901 z"
   class="fil3" />
   <rect
   id="rect29"
   height="4.2016802"
   width="1.88399"
   y="8.1382504"
   x="10.3813"
   class="fil2" />
   <rect
   id="rect31"
   ry="1.0726"
   rx="1.0726"
   height="3.89815"
   width="2.70927"
   y="5.6160402"
   x="16.9867"
   class="fil3" />
   <g
   id="g35">
    <path
   id="path33"
   d="M 21.2988,4.428 21.1239,4.6021 H 15.6168 V 4.2539 h 5.5071 z M 21.1239,4.6021 V 4.2539 l 0.009,2e-4 0.0089,7e-4 0.0087,0.0011 0.0086,0.0015 0.0085,0.002 0.0083,0.0023 0.0081,0.0028 0.0079,0.0031 0.0078,0.0035 0.0075,0.0038 0.0073,0.0042 0.0071,0.0045 0.0069,0.0049 0.0066,0.0052 0.0064,0.0054 0.006,0.0058 0.0058,0.0061 0.0055,0.0063 0.0052,0.0066 0.0049,0.0068 0.0046,0.007 0.0042,0.0073 0.0038,0.0075 0.0035,0.0078 0.0032,0.0079 0.0027,0.008 0.0024,0.0083 0.0019,0.0084 0.0016,0.0086 0.0011,0.0087 7e-4,0.0088 2e-4,0.009 -2e-4,0.009 -7e-4,0.0088 -0.0011,0.0087 -0.0016,0.0086 -0.0019,0.0084 -0.0024,0.0083 -0.0027,0.008 -0.0032,0.0079 -0.0035,0.0078 -0.0038,0.0075 -0.0042,0.0073 -0.0046,0.007 -0.0049,0.0068 -0.0052,0.0066 -0.0055,0.0063 -0.0058,0.0061 -0.006,0.0058 -0.0064,0.0054 -0.0066,0.0052 -0.0069,0.0049 -0.0071,0.0045 -0.0073,0.0042 -0.0075,0.0038 -0.0078,0.0035 -0.0079,0.0031 -0.0081,0.0028 -0.0083,0.0023 -0.0085,0.002 -0.0086,0.0015 -0.0087,0.0011 -0.0089,7e-4 z m 0,8.1879 -0.1749,-0.1741 V 4.428 h 0.3498 v 8.1879 z M 20.949,12.6159 h 0.3498 l -2e-4,0.009 -7e-4,0.0088 -0.0011,0.0087 -0.0016,0.0086 -0.0019,0.0084 -0.0024,0.0083 -0.0027,0.008 -0.0032,0.0079 -0.0035,0.0078 -0.0038,0.0075 -0.0042,0.0073 -0.0046,0.007 -0.0049,0.0068 -0.0052,0.0066 -0.0055,0.0063 -0.0058,0.0061 -0.006,0.0058 -0.0064,0.0054 -0.0066,0.0052 -0.0069,0.0049 -0.0071,0.0045 -0.0073,0.0042 -0.0075,0.0038 -0.0078,0.0035 -0.0079,0.0031 -0.0081,0.0028 -0.0083,0.0023 -0.0085,0.002 -0.0086,0.0015 -0.0087,0.0011 -0.0089,7e-4 -0.009,2e-4 -0.009,-2e-4 -0.0089,-7e-4 -0.0087,-0.0011 -0.0086,-0.0015 -0.0085,-0.002 -0.0083,-0.0023 -0.0081,-0.0028 -0.0079,-0.0031 -0.0078,-0.0035 -0.0075,-0.0038 -0.0073,-0.0042 -0.0071,-0.0045 -0.0069,-0.0049 -0.0066,-0.0052 -0.0064,-0.0054 -0.006,-0.0058 -0.0058,-0.0061 -0.0055,-0.0063 -0.0052,-0.0066 -0.0049,-0.0068 -0.0046,-0.007 -0.0042,-0.0073 -0.0038,-0.0075 -0.0035,-0.0078 -0.0032,-0.0079 -0.0027,-0.008 -0.0024,-0.0083 -0.0019,-0.0084 -0.0016,-0.0086 -0.0011,-0.0087 -7e-4,-0.0088 z m -5.5071,0 0.1749,-0.1741 h 5.5071 V 12.79 h -5.5071 z m 0.1749,-0.1741 V 12.79 l -0.009,-2e-4 -0.0089,-7e-4 -0.0087,-0.0011 -0.0086,-0.0015 -0.0085,-0.002 -0.0083,-0.0023 -0.0081,-0.0028 -0.0079,-0.0031 -0.0078,-0.0035 -0.0075,-0.0038 -0.0073,-0.0042 -0.0071,-0.0045 -0.0069,-0.0049 -0.0066,-0.0052 -0.0064,-0.0054 -0.006,-0.0058 -0.0058,-0.0061 -0.0055,-0.0063 -0.0052,-0.0066 -0.0049,-0.0068 -0.0046,-0.007 -0.0042,-0.0073 -0.0038,-0.0075 -0.0035,-0.0078 -0.0032,-0.0079 -0.0027,-0.008 -0.0024,-0.0083 -0.0019,-0.0084 -0.0016,-0.0086 -0.0011,-0.0087 -7e-4,-0.0088 -2e-4,-0.009 2e-4,-0.009 7e-4,-0.0088 0.0011,-0.0087 0.0016,-0.0086 0.0019,-0.0084 0.0024,-0.0083 0.0027,-0.008 0.0032,-0.0079 0.0035,-0.0078 0.0038,-0.0075 0.0042,-0.0073 0.0046,-0.007 0.0049,-0.0068 0.0052,-0.0066 0.0055,-0.0063 0.0058,-0.0061 0.006,-0.0058 0.0064,-0.0054 0.0066,-0.0052 0.0069,-0.0049 0.0071,-0.0045 0.0073,-0.0042 0.0075,-0.0038 0.0078,-0.0035 0.0079,-0.0031 0.0081,-0.0028 0.0083,-0.0023 0.0085,-0.002 0.0086,-0.0015 0.0087,-0.0011 0.0089,-7e-4 z m 0,-8.1879 0.1749,0.1741 v 8.1879 H 15.4419 V 4.428 Z m 0.1749,0.1741 h -0.3498 l 2e-4,-0.009 7e-4,-0.0088 0.0011,-0.0087 0.0016,-0.0086 0.0019,-0.0084 0.0024,-0.0083 0.0027,-0.008 0.0032,-0.0079 0.0035,-0.0078 0.0038,-0.0075 0.0042,-0.0073 0.0046,-0.007 0.0049,-0.0068 0.0052,-0.0066 0.0055,-0.0063 0.0058,-0.0061 0.006,-0.0058 0.0064,-0.0054 0.0066,-0.0052 0.0069,-0.0049 0.0071,-0.0045 0.0073,-0.0042 0.0075,-0.0038 0.0078,-0.0035 0.0079,-0.0031 0.0081,-0.0028 0.0083,-0.0023 0.0085,-0.002 0.0086,-0.0015 0.0087,-0.0011 0.0089,-7e-4 0.009,-2e-4 0.009,2e-4 0.0089,7e-4 0.0087,0.0011 0.0086,0.0015 0.0085,0.002 0.0083,0.0023 0.0081,0.0028 0.0079,0.0031 0.0078,0.0035 0.0075,0.0038 0.0073,0.0042 0.0071,0.0045 0.0069,0.0049 0.0066,0.0052 0.0064,0.0054 0.006,0.0058 0.0058,0.0061 0.0055,0.0063 0.0052,0.0066 0.0049,0.0068 0.0046,0.007 0.0042,0.0073 0.0038,0.0075 0.0035,0.0078 0.0032,0.0079 0.0027,0.008 0.0024,0.0083 0.0019,0.0084 0.0016,0.0086 0.0011,0.0087 7e-4,0.0088 z"
   class="fil4" />
   </g>
   <polygon
   id="polygon37"
   points="18.1298,8.3853 18.1298,9.0855 17.3982,9.0855 17.3982,6.0447 18.1298,6.0447 18.1298,7.8957 18.5528,7.8957 18.5528,6.0447 19.2844,6.0447 19.2844,9.0855 18.5528,9.0855 18.5528,8.3853 "
   class="fil2" />
   <rect
   id="rect39"
   height="0.43909001"
   width="5.5353098"
   y="10.6988"
   x="15.6027"
   class="fil3" />
   <path
   id="path41"
   d="M 6.399,5.0531 C 6.3309,5.1175 6.2256,5.112 6.164,5.0408 6.1024,4.9695 6.1077,4.8594 6.1758,4.7949 L 11.202,0.045 c 0.0643,-0.0609 0.1617,-0.0594 0.2243,0.001 l 2e-4,-3e-4 4.8592,4.6625 c 0.0678,0.0652 0.0721,0.1756 0.0098,0.2465 -0.0623,0.0709 -0.1678,0.0755 -0.2356,0.0102 L 11.3125,0.4097 Z"
   class="fil1" />
  </g>
 </g>
</svg>
