<?xml version="1.0" encoding="UTF-8"?>
<!DOCTYPE svg PUBLIC "-//W3C//DTD SVG 1.1//EN" "http://www.w3.org/Graphics/SVG/1.1/DTD/svg11.dtd">
<!-- Creator: CorelDRAW -->
<svg xmlns="http://www.w3.org/2000/svg" xml:space="preserve" width="14.3959mm" height="13.521mm" style="shape-rendering:geometricPrecision; text-rendering:geometricPrecision; image-rendering:optimizeQuality; fill-rule:evenodd; clip-rule:evenodd"
viewBox="0 0 14.3958 13.5209"
 xmlns:xlink="http://www.w3.org/1999/xlink">
 <defs>
  <style type="text/css">
   <![CDATA[
    .str0 {stroke:#DEDEDD;stroke-width:0.254498}
    .str1 {stroke:#C9CCCE;stroke-width:0.254498}
    .str2 {stroke:#C9CCCE;stroke-width:0.254498;stroke-linecap:round;stroke-linejoin:round}
    .fil0 {fill:none}
    .fil4 {fill:#15202A}
    .fil6 {fill:#DEDEDD}
    .fil2 {fill:#D9DBDD}
    .fil3 {fill:#3F4446;fill-rule:nonzero}
    .fil5 {fill:#00ACEE;fill-rule:nonzero}
    .fil1 {fill:#C9CCCE;fill-rule:nonzero}
   ]]>
  </style>
 </defs>
 <g id="Layer_x0020_1">
  <metadata id="CorelCorpID_0Corel-Layer"/>
  <g id="_308117976">
   <line id="_96296096" class="fil0 str0" x1="4.81667" y1="9.61563" x2="4.81667" y2= "13.2664" />
   <g>
    <path id="_96294080" class="fil1" d="M12.8774 0.920194l-0.126699 0.127199 -11.1056 0 0 -0.254398 11.1056 0 0.126699 0.127199zm-0.126699 -0.127199l0.126699 0 0 0.127199 -0.126699 -0.127199zm0 12.728l-0.126699 -0.127199 0 -12.4736 0.253398 0 0 12.4736 -0.126699 0.127199zm0.126699 -0.127199l0 0.127199 -0.126699 0 0.126699 -0.127199zm-11.359 0l0.126699 -0.127199 11.1056 0 0 0.254398 -11.1056 0 -0.126699 -0.127199zm0.126699 0.127199l-0.126699 0 0 -0.127199 0.126699 0.127199zm0 -12.728l0.126699 0.127199 0 12.4736 -0.253398 0 0 -12.4736 0.126699 -0.127199zm-0.126699 0.127199l0 -0.127199 0.126699 0 -0.126699 0.127199z"/>
   </g>
   <rect class="fil2" x="1.76594" y="0.920194" width="10.8639" height="0.561968"/>
   <rect class="fil2 str1" x="1.15004" y="0.127192" width="12.0957" height="0.802812" rx="1.66949" ry="1.66949"/>
   <g>
    <path class="fil3" d="M12.8793 5.15156l-0.128599 0.127199 -11.1056 0 0 -0.254398 11.1056 0 0.128599 0.127199zm-0.128599 -0.127199l0.128599 0 0 0.127199 -0.128599 -0.127199zm0 4.72337l-0.128599 -0.127199 0 -4.46897 0.257198 0 0 4.46897 -0.128599 0.127199zm0.128599 -0.127199l0 0.127199 -0.128599 0 0.128599 -0.127199zm-11.3628 0l0.128599 -0.127199 11.1056 0 0 0.254398 -11.1056 0 -0.128599 -0.127199zm0.128599 0.127199l-0.128599 0 0 -0.127199 0.128599 0.127199zm0 -4.72337l0.128599 0.127199 0 4.46897 -0.257198 0 0 -4.46897 0.128599 -0.127199zm-0.128599 0.127199l0 -0.127199 0.128599 0 -0.128599 0.127199z"/>
   </g>
   <line class="fil0 str2" x1="0.127099" y1="13.3937" x2="14.2687" y2= "13.3937" />
   <rect class="fil2" x="3.56045" y="1.81324" width="1.5353" height="2.3076" rx="0.773995" ry="0.773995"/>
   <path class="fil1" d="M3.74657 1.68599l1.16309 0c0.0839994,0 0.161199,0.0329998 0.217898,0.0859994 0.0588996,0.0550996 0.0953993,0.131299 0.0953993,0.215399l0 1.95929c0,0.0840994 -0.0364997,0.160399 -0.0953993,0.215399 -0.0566996,0.0530996 -0.133899,0.0859994 -0.217898,0.0859994l-1.16309 0c-0.0839994,0 -0.161299,-0.0328998 -0.217898,-0.0859994 -0.0588996,-0.0549996 -0.0954993,-0.131299 -0.0954993,-0.215399l0 -1.95929c0,-0.0840994 0.0365997,-0.160299 0.0954993,-0.215399 0.0565996,-0.0529996 0.133899,-0.0859994 0.217898,-0.0859994zm1.16309 0.254498l-1.16309 0c-0.0182999,0 -0.0341998,0.00629996 -0.0449997,0.0163999 -0.00849994,0.00799994 -0.0138999,0.0187999 -0.0138999,0.0304998l0 1.95929c0,0.0116999 0.00539996,0.0224998 0.0138999,0.0305998 0.0107999,0.0100999 0.0266998,0.0162999 0.0449997,0.0162999l1.16309 0c0.0182999,0 0.0341998,-0.00629996 0.0448997,-0.0162999 0.00859994,-0.00809994 0.0138999,-0.0188999 0.0138999,-0.0305998l0 -1.95929c0,-0.0116999 -0.00529996,-0.0224998 -0.0138999,-0.0304998 -0.0106999,-0.0100999 -0.0265998,-0.0163999 -0.0448997,-0.0163999z"/>
   <rect class="fil2" x="6.43026" y="1.81324" width="1.5353" height="2.3076" rx="0.773995" ry="0.773995"/>
   <path class="fil1" d="M6.61635 1.68599l1.16309 0c0.0839994,0 0.161299,0.0329998 0.217898,0.0859994 0.0588996,0.0550996 0.0953993,0.131299 0.0953993,0.215399l0 1.95929c0,0.0840994 -0.0364997,0.160399 -0.0953993,0.215399 -0.0565996,0.0530996 -0.133899,0.0859994 -0.217898,0.0859994l-1.16309 0c-0.0839994,0 -0.161299,-0.0328998 -0.217898,-0.0859994 -0.0588996,-0.0549996 -0.0953993,-0.131299 -0.0953993,-0.215399l0 -1.95929c0,-0.0840994 0.0364997,-0.160299 0.0953993,-0.215399 0.0565996,-0.0529996 0.133899,-0.0859994 0.217898,-0.0859994zm1.16309 0.254498l-1.16309 0c-0.0182999,0 -0.0340998,0.00629996 -0.0448997,0.0163999 -0.00859994,0.00799994 -0.0139999,0.0187999 -0.0139999,0.0304998l0 1.95929c0,0.0116999 0.00539996,0.0224998 0.0139999,0.0305998 0.0107999,0.0100999 0.0265998,0.0162999 0.0448997,0.0162999l1.16309 0c0.0182999,0 0.0341998,-0.00629996 0.0448997,-0.0162999 0.00859994,-0.00809994 0.0139999,-0.0188999 0.0139999,-0.0305998l0 -1.95929c0,-0.0116999 -0.00539996,-0.0224998 -0.0139999,-0.0304998 -0.0106999,-0.0100999 -0.0265998,-0.0163999 -0.0448997,-0.0163999z"/>
   <rect class="fil2" x="9.30004" y="1.81324" width="1.5353" height="2.3076" rx="0.773995" ry="0.773995"/>
   <path class="fil1" d="M9.48613 1.68599l1.16309 0c0.0839994,0 0.161299,0.0329998 0.217898,0.0859994 0.0588996,0.0550996 0.0953993,0.131299 0.0953993,0.215399l0 1.95929c0,0.0840994 -0.0364997,0.160399 -0.0953993,0.215399 -0.0565996,0.0530996 -0.133899,0.0859994 -0.217898,0.0859994l-1.16309 0c-0.0839994,0 -0.161299,-0.0328998 -0.217898,-0.0859994 -0.0588996,-0.0549996 -0.0953993,-0.131299 -0.0953993,-0.215399l0 -1.95929c0,-0.0840994 0.0364997,-0.160299 0.0953993,-0.215399 0.0565996,-0.0529996 0.133899,-0.0859994 0.217898,-0.0859994zm1.16309 0.254498l-1.16309 0c-0.0182999,0 -0.0340998,0.00629996 -0.0448997,0.0163999 -0.00859994,0.00799994 -0.0139999,0.0187999 -0.0139999,0.0304998l0 1.95929c0,0.0116999 0.00539996,0.0224998 0.0139999,0.0305998 0.0107999,0.0100999 0.0265998,0.0162999 0.0448997,0.0162999l1.16309 0c0.0182999,0 0.0341998,-0.00629996 0.0448997,-0.0162999 0.00859994,-0.00809994 0.0139999,-0.0188999 0.0139999,-0.0305998l0 -1.95929c0,-0.0116999 -0.00539996,-0.0224998 -0.0139999,-0.0304998 -0.0106999,-0.0100999 -0.0265998,-0.0163999 -0.0448997,-0.0163999z"/>
   <g>
    <rect class="fil4" x="3.53872" y="6.23044" width="1.57879" height="2.41752" rx="0.773995" ry="0.773995"/>
    <path class="fil5" d="M3.73007 6.14566l1.19609 0c0.0749995,0 0.143599,0.0294998 0.193499,0.0770995 0.0509996,0.0485997 0.0826994,0.115899 0.0826994,0.190099l0 2.05269c0,0.0741995 -0.0316998,0.141499 -0.0826994,0.190099 -0.0498997,0.0475997 -0.118499,0.0770995 -0.193499,0.0770995l-1.19609 0c-0.0749995,0 -0.143599,-0.0294998 -0.193499,-0.0770995 -0.0509996,-0.0485997 -0.0826994,-0.115899 -0.0826994,-0.190099l0 -1.57189c0,-0.0246998 -0.00119999,-0.0539996 0.0198999,-0.0727995 0.0152999,-0.0137999 0.0390997,-0.0225998 0.0655995,-0.0225998l9.99993e-005 0c0.0300998,0 0.0566996,0.0113999 0.0712995,0.0283998 0.0163999,0.0189999 0.0127999,0.0481997 0.0127999,0.0712995l0 1.56759c0,0.0260998 0.0113999,0.0500997 0.0296998,0.0674995 0.0193999,0.0185999 0.0466997,0.0300998 0.0767995,0.0300998l1.19609 0c0.0301998,0 0.0572996,-0.0114999 0.0767995,-0.0300998 0.0182999,-0.0173999 0.0296998,-0.0413997 0.0296998,-0.0674995l0 -2.05269c0,-0.0260998 -0.0113999,-0.0499997 -0.0296998,-0.0674995 -0.0194999,-0.0185999 -0.0465997,-0.0300998 -0.0767995,-0.0300998l-1.19609 0c-0.0300998,0 -0.0573996,0.0114999 -0.0767995,0.0300998 -0.0182999,0.0174999 -0.0296998,0.0413997 -0.0296998,0.0674995l0 0.0905994c0,0.0169999 0.00139999,0.0367997 -0.00889994,0.0517996 -0.0134999,0.0196999 -0.0421997,0.0333998 -0.0751995,0.0333998l-9.99993e-005 0c-0.0336998,0 -0.0628996,-0.0142999 -0.0760995,-0.0346998 -0.00849994,-0.0132999 -0.00939993,-0.0341998 -0.00939993,-0.0486997l0 -0.0923994c0,-0.0741995 0.0316998,-0.141499 0.0826994,-0.190099 0.0498997,-0.0475997 0.118499,-0.0770995 0.193499,-0.0770995z"/>
   </g>
   <g>
    <rect class="fil4" x="6.4085" y="6.23044" width="1.57879" height="2.41752" rx="0.773995" ry="0.773995"/>
    <path class="fil5" d="M6.59985 6.14566l1.19609 0c0.0749995,0 0.143599,0.0294998 0.193499,0.0770995 0.0509996,0.0485997 0.0826994,0.115899 0.0826994,0.190099l0 2.05269c0,0.0741995 -0.0316998,0.141499 -0.0826994,0.190099 -0.0498997,0.0475997 -0.118499,0.0770995 -0.193499,0.0770995l-1.19609 0c-0.0749995,0 -0.143599,-0.0294998 -0.193499,-0.0770995 -0.0509996,-0.0485997 -0.0826994,-0.115899 -0.0826994,-0.190099l0 -1.57189c0,-0.0246998 -0.00119999,-0.0539996 0.0198999,-0.0727995 0.0152999,-0.0137999 0.0390997,-0.0225998 0.0655995,-0.0225998l9.99993e-005 0c0.0300998,0 0.0566996,0.0113999 0.0712995,0.0283998 0.0163999,0.0189999 0.0127999,0.0481997 0.0127999,0.0712995l0 1.56759c0,0.0260998 0.0113999,0.0500997 0.0296998,0.0674995 0.0193999,0.0185999 0.0466997,0.0300998 0.0767995,0.0300998l1.19609 0c0.0301998,0 0.0572996,-0.0114999 0.0767995,-0.0300998 0.0182999,-0.0173999 0.0296998,-0.0413997 0.0296998,-0.0674995l0 -2.05269c0,-0.0260998 -0.0113999,-0.0499997 -0.0296998,-0.0674995 -0.0194999,-0.0185999 -0.0465997,-0.0300998 -0.0767995,-0.0300998l-1.19609 0c-0.0300998,0 -0.0573996,0.0114999 -0.0767995,0.0300998 -0.0182999,0.0174999 -0.0296998,0.0413997 -0.0296998,0.0674995l0 0.0905994c0,0.0169999 0.00139999,0.0367997 -0.00889994,0.0517996 -0.0134999,0.0196999 -0.0421997,0.0333998 -0.0751995,0.0333998l-9.99993e-005 0c-0.0336998,0 -0.0628996,-0.0142999 -0.0760995,-0.0346998 -0.00849994,-0.0132999 -0.00939993,-0.0341998 -0.00939993,-0.0486997l0 -0.0923994c0,-0.0741995 0.0316998,-0.141499 0.0826994,-0.190099 0.0498997,-0.0475997 0.118499,-0.0770995 0.193499,-0.0770995z"/>
   </g>
   <g>
    <rect class="fil4" x="9.27828" y="6.23044" width="1.57879" height="2.41752" rx="0.773995" ry="0.773995"/>
    <path class="fil5" d="M9.46963 6.14566l1.19609 0c0.0749995,0 0.143599,0.0294998 0.193499,0.0770995 0.0509996,0.0485997 0.0826994,0.115899 0.0826994,0.190099l0 2.05269c0,0.0741995 -0.0316998,0.141499 -0.0826994,0.190099 -0.0498997,0.0475997 -0.118499,0.0770995 -0.193499,0.0770995l-1.19609 0c-0.0749995,0 -0.143599,-0.0294998 -0.193499,-0.0770995 -0.0509996,-0.0485997 -0.0826994,-0.115899 -0.0826994,-0.190099l0 -1.57189c0,-0.0246998 -0.00119999,-0.0539996 0.0198999,-0.0727995 0.0152999,-0.0137999 0.0390997,-0.0225998 0.0655995,-0.0225998l9.99993e-005 0c0.0300998,0 0.0566996,0.0113999 0.0712995,0.0283998 0.0163999,0.0189999 0.0127999,0.0481997 0.0127999,0.0712995l0 1.56759c0,0.0260998 0.0113999,0.0500997 0.0296998,0.0674995 0.0193999,0.0185999 0.0466997,0.0300998 0.0767995,0.0300998l1.19609 0c0.0301998,0 0.0572996,-0.0114999 0.0767995,-0.0300998 0.0182999,-0.0173999 0.0296998,-0.0413997 0.0296998,-0.0674995l0 -2.05269c0,-0.0260998 -0.0113999,-0.0499997 -0.0296998,-0.0674995 -0.0194999,-0.0185999 -0.0465997,-0.0300998 -0.0767995,-0.0300998l-1.19609 0c-0.0300998,0 -0.0573996,0.0114999 -0.0767995,0.0300998 -0.0182999,0.0174999 -0.0296998,0.0413997 -0.0296998,0.0674995l0 0.0905994c0,0.0169999 0.00139999,0.0367997 -0.00889994,0.0517996 -0.0134999,0.0196999 -0.0421997,0.0333998 -0.0751995,0.0333998l-9.99993e-005 0c-0.0336998,0 -0.0628996,-0.0142999 -0.0760995,-0.0346998 -0.00849994,-0.0132999 -0.00939993,-0.0341998 -0.00939993,-0.0486997l0 -0.0923994c0,-0.0741995 0.0316998,-0.141499 0.0826994,-0.190099 0.0498997,-0.0475997 0.118499,-0.0770995 0.193499,-0.0770995z"/>
   </g>
   <rect class="fil2" x="9.13948" y="10.4836" width="1.5353" height="2.3076" rx="0.773995" ry="0.773995"/>
   <path class="fil1" d="M9.32554 10.3563l1.16309 0c0.0840994,0 0.161299,0.0329998 0.217998,0.0859994 0.0587996,0.0550996 0.0953993,0.131299 0.0953993,0.215499l0 1.95919c0,0.0840994 -0.0365997,0.160399 -0.0953993,0.215499 -0.0566996,0.0529996 -0.133899,0.0858994 -0.217998,0.0858994l-1.16309 0c-0.0839994,0 -0.161199,-0.0328998 -0.217898,-0.0858994 -0.0587996,-0.0550996 -0.0953993,-0.131399 -0.0953993,-0.215499l0 -1.95919c0,-0.0841994 0.0365997,-0.160399 0.0953993,-0.215499 0.0566996,-0.0529996 0.133899,-0.0859994 0.217898,-0.0859994zm1.16309 0.254498l-1.16309 0c-0.0181999,0 -0.0340998,0.00629996 -0.0448997,0.0163999 -0.00859994,0.00799994 -0.0138999,0.0188999 -0.0138999,0.0305998l0 1.95919c0,0.0116999 0.00529996,0.0225998 0.0138999,0.0305998 0.0107999,0.0100999 0.0266998,0.0163999 0.0448997,0.0163999l1.16309 0c0.0182999,0 0.0341998,-0.00629996 0.0449997,-0.0163999 0.00849994,-0.00799994 0.0138999,-0.0188999 0.0138999,-0.0305998l0 -1.95919c0,-0.0116999 -0.00529996,-0.0225998 -0.0138999,-0.0305998 -0.0107999,-0.0100999 -0.0266998,-0.0163999 -0.0449997,-0.0163999z"/>
   <rect class="fil2" x="6.27599" y="10.4836" width="1.5353" height="2.3076" rx="0.773995" ry="0.773995"/>
   <path class="fil1" d="M6.46206 10.3563l1.16309 0c0.0840994,0 0.161299,0.0329998 0.217998,0.0859994 0.0587996,0.0550996 0.0953993,0.131299 0.0953993,0.215499l0 1.95919c0,0.0840994 -0.0365997,0.160399 -0.0953993,0.215499 -0.0566996,0.0529996 -0.133899,0.0858994 -0.217998,0.0858994l-1.16309 0c-0.0839994,0 -0.161199,-0.0328998 -0.217898,-0.0858994 -0.0587996,-0.0550996 -0.0953993,-0.131399 -0.0953993,-0.215499l0 -1.95919c0,-0.0841994 0.0365997,-0.160399 0.0953993,-0.215499 0.0566996,-0.0529996 0.133899,-0.0859994 0.217898,-0.0859994zm1.16309 0.254498l-1.16309 0c-0.0181999,0 -0.0340998,0.00629996 -0.0448997,0.0163999 -0.00859994,0.00799994 -0.0138999,0.0188999 -0.0138999,0.0305998l0 1.95919c0,0.0116999 0.00529996,0.0225998 0.0138999,0.0305998 0.0107999,0.0100999 0.0266998,0.0163999 0.0448997,0.0163999l1.16309 0c0.0182999,0 0.0341998,-0.00629996 0.0449997,-0.0163999 0.00849994,-0.00799994 0.0138999,-0.0188999 0.0138999,-0.0305998l0 -1.95919c0,-0.0116999 -0.00529996,-0.0225998 -0.0138999,-0.0305998 -0.0107999,-0.0100999 -0.0266998,-0.0163999 -0.0449997,-0.0163999z"/>
   <path class="fil6" d="M2.86918 11.1955l0.934994 0c0.0795994,0 0.144699,0.0650995 0.144699,0.144699l0 1.96679 -1.22439 0 0 -1.96679c0,-0.0795994 0.0650995,-0.144699 0.144699,-0.144699z"/>
   <path class="fil1" d="M2.86918 11.0683l0.934994 0c0.0749995,0 0.142999,0.0305998 0.192199,0.0797994 0.0491997,0.0491997 0.0797994,0.117199 0.0797994,0.192099l0 1.96679 0 0.127199 -0.127299 0 -1.22439 0 -0.127299 0 0 -0.127199 0 -1.96679c0,-0.0748995 0.0305998,-0.142899 0.0797994,-0.192099 0.0492997,-0.0491997 0.117299,-0.0797994 0.192199,-0.0797994zm0.934994 0.254498l-0.934994 0c-0.00469997,0 -0.00909994,0.00199999 -0.0122999,0.00519996 -0.00319998,0.00319998 -0.00519996,0.00749995 -0.00519996,0.0121999l0 1.83959 0.969993 0 0 -1.83959c0,-0.00469997 -0.00199999,-0.00899994 -0.00519996,-0.0121999 -0.00319998,-0.00319998 -0.00759995,-0.00519996 -0.0122999,-0.00519996z"/>
  </g>
 </g>
</svg>
