<?xml version="1.0" encoding="UTF-8"?>
<!DOCTYPE svg PUBLIC "-//W3C//DTD SVG 1.1//EN" "http://www.w3.org/Graphics/SVG/1.1/DTD/svg11.dtd">
<!-- Creator: CorelDRAW -->
<svg xmlns="http://www.w3.org/2000/svg" xml:space="preserve" width="19.6347mm" height="14.0021mm" style="shape-rendering:geometricPrecision; text-rendering:geometricPrecision; image-rendering:optimizeQuality; fill-rule:evenodd; clip-rule:evenodd"
viewBox="0 0 19.635 14.0023"
 xmlns:xlink="http://www.w3.org/1999/xlink">
 <defs>
  <style type="text/css">
   <![CDATA[
    .str1 {stroke:#3F4446;stroke-width:0.266804}
    .str0 {stroke:#3F4446;stroke-width:0.266804;stroke-linecap:round;stroke-linejoin:round}
    .fil1 {fill:none}
    .fil3 {fill:white}
    .fil2 {fill:#3F4446}
    .fil0 {fill:#EEF0F2}
    .fil4 {fill:white;fill-opacity:0.501961}
   ]]>
  </style>
    <clipPath id="id0">
     <path d="M3.36605 3.53075c0.573209,0 1.03812,0.464907 1.03812,1.03812 0,0.573309 -0.464907,1.03822 -1.03812,1.03822 -0.573309,0 -1.03822,-0.464907 -1.03822,-1.03822 0,-0.573209 0.464907,-1.03812 1.03822,-1.03812z"/>
    </clipPath>
 </defs>
 <g id="Layer_x0020_1">
  <metadata id="CorelCorpID_0Corel-Layer"/>
  <g id="_06.cdr">
   <polygon id="_309384072" class="fil0" points="15.7577,7.28581 18.3863,7.28581 18.3863,13.8352 15.7577,13.8352 "/>
   <g>
    <rect id="_309384000" class="fil0" x="10.0546" y="7.78266" width="5.4245" height="1.13061"/>
    <rect id="_309383928" class="fil0" x="10.0546" y="9.29815" width="5.4245" height="1.13061"/>
    <rect id="_309383856" class="fil0" x="10.0546" y="10.8136" width="5.4245" height="1.13061"/>
    <rect id="_309383784" class="fil0" x="10.0546" y="12.3291" width="5.4245" height="1.13061"/>
   </g>
   <g>
    <polygon id="_309383688" class="fil0" points="3.05675,7.30791 4.55987,12.3803 3.14515,12.3662 1.73143,7.26371 "/>
    <polygon id="_309383616" class="fil0" points="4.95638,7.33001 6.3259,12.3502 8.02802,12.3502 8.02802,7.35201 "/>
   </g>
   <polygon id="_309383520" class="fil0" points="11.2711,2.53344 11.8383,4.86377 11.0871,4.78707 "/>
   <polygon id="_309383448" class="fil0" points="6.98861,1.34402 7.78372,4.74567 8.60103,4.72357 7.67332,0.990515 "/>
   <polygon id="_309383376" class="fil0" points="9.12734,0.706611 9.94745,4.70217 11.1357,4.74427 11.1251,0.0757012 "/>
   <polygon id="_309383304" class="fil0" points="6.5414,4.78897 5.77489,4.70277 5.79409,1.98153 "/>
   <polygon id="_309383232" class="fil0" points="12.0836,0.157102 13.1721,4.80237 14.1849,4.80237 13.0034,0.0498008 "/>
   <rect id="_309383160" class="fil0" x="11.1775" y="4.68965" width="3.51754" height="2.53414"/>
   <polyline id="_309383088" class="fil1 str0" points="0.133102,3.21835 11.0775,0.133302 15.5093,0.133302 "/>
   <polyline id="_309383016" class="fil1 str0" points="1.13692,2.92454 1.13692,7.28271 3.48745,7.28271 "/>
   <polyline id="_309382944" class="fil1 str0" points="4.41777,7.28261 8.06592,7.28261 8.06592,12.3509 1.18572,12.3509 1.18572,13.8651 "/>
   <line id="_309382872" class="fil1 str1" x1="1.72453" y1="7.29991" x2="1.72453" y2= "12.312" />
   <line id="_309382800" class="fil1 str0" x1="0.500308" y1="13.8689" x2="19.5016" y2= "13.8689" />
   <circle id="_309382728" class="fil2" cx="3.36603" cy="4.56891" r="1.32532"/>
   <path id="_309382656" class="fil3" d="M3.36605 3.53075c0.573209,0 1.03812,0.464907 1.03812,1.03812 0,0.573309 -0.464907,1.03822 -1.03812,1.03822 -0.573309,0 -1.03822,-0.464907 -1.03822,-1.03822 0,-0.573209 0.464907,-1.03812 1.03822,-1.03812z"/>
   <g style="clip-path:url(#id0)">
    <g>
     <polygon id="_3090797361" class="fil0" points="3.71356,3.46715 4.22286,5.38318 4.55787,4.92988 4.27387,3.67106 "/>
     <polygon id="_309079664" class="fil0" points="2.52984,3.72166 3.06455,5.73269 3.51785,5.72109 2.94835,3.39615 "/>
    </g>
   </g>
   <path class="fil1" d="M3.36605 3.53075c0.573209,0 1.03812,0.464907 1.03812,1.03812 0,0.573309 -0.464907,1.03822 -1.03812,1.03822 -0.573309,0 -1.03822,-0.464907 -1.03822,-1.03822 0,-0.573209 0.464907,-1.03812 1.03822,-1.03812z"/>
   <polyline id="_309382584" class="fil1 str1" points="5.76129,1.63262 5.76129,4.72387 14.6853,4.72387 "/>
   <line id="_309382512" class="fil1 str1" x1="14.7417" y1="0.151202" x2="14.7417" y2= "7.23831" />
   <line id="_309382440" class="fil1 str1" x1="8.62823" y1="0.824113" x2="8.62823" y2= "4.67097" />
   <line id="_309382368" class="fil1 str1" x1="11.1473" y1="0.137202" x2="11.1473" y2= "7.25521" />
   <line id="_309382296" class="fil1 str0" x1="12.9628" y1="0.144802" x2="12.9628" y2= "2.68994" />
   <line id="_309382224" class="fil1 str0" x1="12.9628" y1="4.68207" x2="12.9628" y2= "3.58615" />
   <line id="_309382152" class="fil1 str0" x1="9.13114" y1="7.28651" x2="18.6956" y2= "7.28651" />
   <polygon id="_309382080" class="fil1 str0" points="15.7577,7.28581 18.3863,7.28581 18.3863,13.8352 15.7577,13.8352 "/>
   <line id="_309382008" class="fil1 str1" x1="9.63925" y1="13.8609" x2="9.63925" y2= "7.28581" />
   <polygon id="_95731736" class="fil4" points="2.43034,8.42433 7.22481,8.42433 7.22481,11.8297 2.43034,11.8297 "/>
  </g>
 </g>
</svg>
