<?xml version="1.0" encoding="UTF-8"?>
<!DOCTYPE svg PUBLIC "-//W3C//DTD SVG 1.1//EN" "http://www.w3.org/Graphics/SVG/1.1/DTD/svg11.dtd">
<!-- Creator: CorelDRAW -->
<svg xmlns="http://www.w3.org/2000/svg" xml:space="preserve" width="19.1597mm" height="13.6635mm" style="shape-rendering:geometricPrecision; text-rendering:geometricPrecision; image-rendering:optimizeQuality; fill-rule:evenodd; clip-rule:evenodd"
viewBox="0 0 19.16 13.6637"
 xmlns:xlink="http://www.w3.org/1999/xlink">
 <defs>
  <style type="text/css">
   <![CDATA[
    .str0 {stroke:#3F4446;stroke-width:0.260404}
    .str1 {stroke:#3F4446;stroke-width:0.260404;stroke-linecap:round;stroke-linejoin:round}
    .fil2 {fill:none}
    .fil0 {fill:#15202A}
    .fil6 {fill:white}
    .fil5 {fill:#3F4446}
    .fil1 {fill:#EEF0F2}
    .fil4 {fill:#3F4446;fill-rule:nonzero}
    .fil3 {fill:#00ACEE;fill-rule:nonzero}
   ]]>
  </style>
    <clipPath id="id0">
     <path d="M3.28455 3.44545c0.559409,0 1.01312,0.453607 1.01312,1.01302 0,0.559409 -0.453707,1.01312 -1.01312,1.01312 -0.559409,0 -1.01302,-0.453707 -1.01302,-1.01312 0,-0.559409 0.453607,-1.01302 1.01302,-1.01302z"/>
    </clipPath>
 </defs>
 <g id="Layer_x0020_1">
  <metadata id="CorelCorpID_0Corel-Layer"/>
  <g id="_07.cdr">
   <rect id="_309499800" class="fil0" x="1.68451" y="7.09813" width="6.19594" height="4.96454"/>
   <rect id="_309499728" class="fil1" x="10.9071" y="4.57632" width="3.43246" height="2.47284"/>
   <line id="_309499656" class="fil2 str0" x1="10.8776" y1="0.134002" x2="10.8776" y2= "7.07981" />
   <polygon id="_309499584" class="fil0" points="5.62189,1.59322 5.62189,4.60967 14.33,4.60967 14.33,0.140502 10.8366,0.140502 "/>
   <polygon id="_309499512" class="fil3" points="5.75209,1.59322 5.75209,4.47947 14.33,4.47947 14.33,4.73987 5.62189,4.73987 5.49169,4.73987 5.49169,4.60967 5.49169,1.59322 "/>
   <line id="_309499440" class="fil2 str0" x1="14.385" y1="0.147602" x2="14.385" y2= "7.06341" />
   <polygon id="_309499368" class="fil3" points="8.54973,0.804313 8.54973,4.55817 8.28933,4.55817 8.28933,0.804313 "/>
   <polygon id="_309499296" class="fil3" points="11.0079,0.134002 11.0079,4.55177 10.7474,4.55177 10.7474,0.134002 "/>
   <path id="_309499224" class="fil3" d="M12.519 0.141402c0,-0.0719011 0.0583009,-0.130202 0.130202,-0.130202 0.0719011,0 0.130202,0.0583009 0.130202,0.130202l0 2.48354c0,0.0719011 -0.0583009,0.130302 -0.130202,0.130302 -0.0719011,0 -0.130202,-0.0584009 -0.130202,-0.130302l0 -2.48354z"/>
   <path id="_309499152" class="fil3" d="M12.7794 4.56897c0,0.0719011 -0.0583009,0.130202 -0.130202,0.130202 -0.0719011,0 -0.130202,-0.0583009 -0.130202,-0.130202l0 -1.06942c0,-0.0719011 0.0583009,-0.130202 0.130202,-0.130202 0.0719011,0 0.130202,0.0583009 0.130202,0.130202l0 1.06942z"/>
   <polygon id="_309499080" class="fil1" points="15.3765,7.10971 17.9416,7.10971 17.9416,13.5007 15.3765,13.5007 "/>
   <g>
    <rect id="_309499008" class="fil1" x="9.81134" y="7.59452" width="5.29329" height="1.10326"/>
    <rect id="_309498936" class="fil1" x="9.81134" y="9.07336" width="5.29329" height="1.10326"/>
    <rect id="_309498864" class="fil1" x="9.81134" y="10.5522" width="5.29329" height="1.10326"/>
    <rect id="_309498792" class="fil1" x="9.81134" y="12.031" width="5.29329" height="1.10326"/>
   </g>
   <polyline id="_309498696" class="fil2 str1" points="0.129802,3.14055 10.8095,0.130202 15.1342,0.130202 "/>
   <polyline id="_309498624" class="fil2 str1" points="1.10942,2.85384 1.10942,7.10661 3.40305,7.10661 "/>
   <g>
    <path id="_309498552" class="fil4" d="M4.31097 6.97641l0 0.260404 -0.0067001 -0.000200003 -0.0066001 -0.000500008 -0.0065001 -0.000800013 -0.0064001 -0.00110002 -0.0063001 -0.00150002 -0.0062001 -0.00180003 -0.0061001 -0.00200003 -0.00590009 -0.00230004 -0.00570009 -0.00260004 -0.00570009 -0.00290005 -0.00540008 -0.00320005 -0.00530008 -0.00330005 -0.00510008 -0.00370006 -0.00490008 -0.00380006 -0.00470007 -0.00410006 -0.00460007 -0.00430007 -0.00430007 -0.00460007 -0.00410006 -0.00470007 -0.00380006 -0.00490008 -0.00370006 -0.00510008 -0.00330005 -0.00530008 -0.00320005 -0.00540008 -0.00290005 -0.00570009 -0.00260004 -0.00570009 -0.00230004 -0.00590009 -0.00200003 -0.0061001 -0.00180003 -0.0062001 -0.00150002 -0.0063001 -0.00110002 -0.0064001 -0.000800013 -0.0065001 -0.000500008 -0.0066001 -0.000200003 -0.0067001 0.000200003 -0.0067001 0.000500008 -0.0066001 0.000800013 -0.0065001 0.00110002 -0.0064001 0.00150002 -0.0063001 0.00180003 -0.0062001 0.00200003 -0.0061001 0.00230004 -0.00590009 0.00260004 -0.00570009 0.00290005 -0.00570009 0.00320005 -0.00540008 0.00330005 -0.00530008 0.00370006 -0.00510008 0.00380006 -0.00490008 0.00410006 -0.00470007 0.00430007 -0.00460007 0.00460007 -0.00430007 0.00470007 -0.00410006 0.00490008 -0.00380006 0.00510008 -0.00370006 0.00530008 -0.00330005 0.00540008 -0.00320005 0.00570009 -0.00290005 0.00570009 -0.00260004 0.00590009 -0.00230004 0.0061001 -0.00200003 0.0062001 -0.00180003 0.0063001 -0.00150002 0.0064001 -0.00110002 0.0065001 -0.000800013 0.0066001 -0.000500008 0.0067001 -0.000200003zm3.69006 0.130202l-0.130202 0.130202 -3.55986 0 0 -0.260404 3.55986 0 0.130202 0.130202zm-0.130202 0.130202l0 -0.260404 0.0067001 0.000200003 0.0066001 0.000500008 0.0065001 0.000800013 0.0064001 0.00110002 0.0063001 0.00150002 0.0062001 0.00180003 0.0061001 0.00200003 0.00590009 0.00230004 0.00570009 0.00260004 0.00570009 0.00290005 0.00540008 0.00320005 0.00530008 0.00330005 0.00510008 0.00370006 0.00490008 0.00380006 0.00470007 0.00410006 0.00460007 0.00430007 0.00430007 0.00460007 0.00410006 0.00470007 0.00380006 0.00490008 0.00370006 0.00510008 0.00330005 0.00530008 0.00320005 0.00540008 0.00290005 0.00570009 0.00260004 0.00570009 0.00230004 0.00590009 0.00200003 0.0061001 0.00180003 0.0062001 0.00150002 0.0063001 0.00110002 0.0064001 0.000800013 0.0065001 0.000500008 0.0066001 0.000200003 0.0067001 -0.000200003 0.0067001 -0.000500008 0.0066001 -0.000800013 0.0065001 -0.00110002 0.0064001 -0.00150002 0.0063001 -0.00180003 0.0062001 -0.00200003 0.0061001 -0.00230004 0.00590009 -0.00260004 0.00570009 -0.00290005 0.00570009 -0.00320005 0.00540008 -0.00330005 0.00530008 -0.00370006 0.00510008 -0.00380006 0.00490008 -0.00410006 0.00470007 -0.00430007 0.00460007 -0.00460007 0.00430007 -0.00470007 0.00410006 -0.00490008 0.00380006 -0.00510008 0.00370006 -0.00530008 0.00330005 -0.00540008 0.00320005 -0.00570009 0.00290005 -0.00570009 0.00260004 -0.00590009 0.00230004 -0.0061001 0.00200003 -0.0062001 0.00180003 -0.0063001 0.00150002 -0.0064001 0.00110002 -0.0065001 0.000800013 -0.0066001 0.000500008 -0.0067001 0.000200003zm0 4.94568l-0.130202 -0.130202 0 -4.94568 0.260404 0 0 4.94568 -0.130202 0.130202zm-0.130202 -0.130202l0.260404 0 -0.000200003 0.0067001 -0.000500008 0.0066001 -0.000800013 0.0065001 -0.00110002 0.0064001 -0.00150002 0.0063001 -0.00180003 0.0062001 -0.00200003 0.0061001 -0.00230004 0.00590009 -0.00260004 0.00570009 -0.00290005 0.00570009 -0.00320005 0.00540008 -0.00330005 0.00530008 -0.00370006 0.00510008 -0.00380006 0.00490008 -0.00410006 0.00470007 -0.00430007 0.00460007 -0.00460007 0.00430007 -0.00470007 0.00410006 -0.00490008 0.00380006 -0.00510008 0.00370006 -0.00530008 0.00330005 -0.00540008 0.00320005 -0.00570009 0.00290005 -0.00570009 0.00260004 -0.00590009 0.00230004 -0.0061001 0.00200003 -0.0062001 0.00180003 -0.0063001 0.00150002 -0.0064001 0.00110002 -0.0065001 0.000800013 -0.0066001 0.000500008 -0.0067001 0.000200003 -0.0067001 -0.000200003 -0.0066001 -0.000500008 -0.0065001 -0.000800013 -0.0064001 -0.00110002 -0.0063001 -0.00150002 -0.0062001 -0.00180003 -0.0061001 -0.00200003 -0.00590009 -0.00230004 -0.00570009 -0.00260004 -0.00570009 -0.00290005 -0.00540008 -0.00320005 -0.00530008 -0.00330005 -0.00510008 -0.00370006 -0.00490008 -0.00380006 -0.00470007 -0.00410006 -0.00460007 -0.00430007 -0.00430007 -0.00460007 -0.00410006 -0.00470007 -0.00380006 -0.00490008 -0.00370006 -0.00510008 -0.00330005 -0.00530008 -0.00320005 -0.00540008 -0.00290005 -0.00570009 -0.00260004 -0.00570009 -0.00230004 -0.00590009 -0.00200003 -0.0061001 -0.00180003 -0.0062001 -0.00150002 -0.0063001 -0.00110002 -0.0064001 -0.000800013 -0.0065001 -0.000500008 -0.0066001 -0.000200003 -0.0067001zm-6.71381 0l0.130202 -0.130202 6.71381 0 0 0.260404 -6.71381 0 -0.130202 -0.130202zm0.130202 -0.130202l0 0.260404 -0.0067001 -0.000200003 -0.0066001 -0.000500008 -0.0065001 -0.000800013 -0.0064001 -0.00110002 -0.0063001 -0.00150002 -0.0062001 -0.00180003 -0.0061001 -0.00200003 -0.00590009 -0.00230004 -0.00570009 -0.00260004 -0.00570009 -0.00290005 -0.00540008 -0.00320005 -0.00530008 -0.00330005 -0.00510008 -0.00370006 -0.00490008 -0.00380006 -0.00470007 -0.00410006 -0.00460007 -0.00430007 -0.00430007 -0.00460007 -0.00410006 -0.00470007 -0.00380006 -0.00490008 -0.00370006 -0.00510008 -0.00330005 -0.00530008 -0.00320005 -0.00540008 -0.00290005 -0.00570009 -0.00260004 -0.00570009 -0.00230004 -0.00590009 -0.00200003 -0.0061001 -0.00180003 -0.0062001 -0.00150002 -0.0063001 -0.00110002 -0.0064001 -0.000800013 -0.0065001 -0.000500008 -0.0066001 -0.000200003 -0.0067001 0.000200003 -0.0067001 0.000500008 -0.0066001 0.000800013 -0.0065001 0.00110002 -0.0064001 0.00150002 -0.0063001 0.00180003 -0.0062001 0.00200003 -0.0061001 0.00230004 -0.00590009 0.00260004 -0.00570009 0.00290005 -0.00570009 0.00320005 -0.00540008 0.00330005 -0.00530008 0.00370006 -0.00510008 0.00380006 -0.00490008 0.00410006 -0.00470007 0.00430007 -0.00460007 0.00460007 -0.00430007 0.00470007 -0.00410006 0.00490008 -0.00380006 0.00510008 -0.00370006 0.00530008 -0.00330005 0.00540008 -0.00320005 0.00570009 -0.00290005 0.00570009 -0.00260004 0.00590009 -0.00230004 0.0061001 -0.00200003 0.0062001 -0.00180003 0.0063001 -0.00150002 0.0064001 -0.00110002 0.0065001 -0.000800013 0.0066001 -0.000500008 0.0067001 -0.000200003zm-0.130202 1.60773l0 -1.47752 0.260404 0 0 1.47752 -0.260404 0zm0 0l0.260404 0 -0.000200003 0.0067001 -0.000500008 0.0066001 -0.000800013 0.0065001 -0.00110002 0.0064001 -0.00150002 0.0063001 -0.00180003 0.0062001 -0.00200003 0.0061001 -0.00230004 0.00590009 -0.00260004 0.00570009 -0.00290005 0.00570009 -0.00320005 0.00540008 -0.00330005 0.00530008 -0.00370006 0.00510008 -0.00380006 0.00490008 -0.00410006 0.00470007 -0.00430007 0.00460007 -0.00460007 0.00430007 -0.00470007 0.00410006 -0.00490008 0.00380006 -0.00510008 0.00370006 -0.00530008 0.00330005 -0.00540008 0.00320005 -0.00570009 0.00290005 -0.00570009 0.00260004 -0.00590009 0.00230004 -0.0061001 0.00200003 -0.0062001 0.00180003 -0.0063001 0.00150002 -0.0064001 0.00110002 -0.0065001 0.000800013 -0.0066001 0.000500008 -0.0067001 0.000200003 -0.0067001 -0.000200003 -0.0066001 -0.000500008 -0.0065001 -0.000800013 -0.0064001 -0.00110002 -0.0063001 -0.00150002 -0.0062001 -0.00180003 -0.0061001 -0.00200003 -0.00590009 -0.00230004 -0.00570009 -0.00260004 -0.00570009 -0.00290005 -0.00540008 -0.00320005 -0.00530008 -0.00330005 -0.00510008 -0.00370006 -0.00490008 -0.00380006 -0.00470007 -0.00410006 -0.00460007 -0.00430007 -0.00430007 -0.00460007 -0.00410006 -0.00470007 -0.00380006 -0.00490008 -0.00370006 -0.00510008 -0.00330005 -0.00530008 -0.00320005 -0.00540008 -0.00290005 -0.00570009 -0.00260004 -0.00570009 -0.00230004 -0.00590009 -0.00200003 -0.0061001 -0.00180003 -0.0062001 -0.00150002 -0.0063001 -0.00110002 -0.0064001 -0.000800013 -0.0065001 -0.000500008 -0.0066001 -0.000200003 -0.0067001z"/>
   </g>
   <line class="fil2 str1" x1="0.488208" y1="13.5335" x2="19.0299" y2= "13.5335" />
   <circle class="fil5" cx="3.28458" cy="4.45851" r="1.29326"/>
   <path class="fil6" d="M3.28455 3.44545c0.559409,0 1.01312,0.453607 1.01312,1.01302 0,0.559409 -0.453707,1.01312 -1.01312,1.01312 -0.559409,0 -1.01302,-0.453707 -1.01302,-1.01312 0,-0.559409 0.453607,-1.01302 1.01302,-1.01302z"/>
   <g style="clip-path:url(#id0)">
    <g id="_309497352">
     <polygon id="_3094964641" class="fil1" points="3.62376,3.38345 4.12066,5.25308 4.44757,4.81078 4.17047,3.58236 "/>
     <polygon id="_309496440" class="fil1" points="2.46864,3.63176 2.99035,5.59409 3.43275,5.58279 2.87695,3.31415 "/>
    </g>
   </g>
   <path class="fil2" d="M3.28455 3.44545c0.559409,0 1.01312,0.453607 1.01312,1.01302 0,0.559409 -0.453707,1.01312 -1.01312,1.01312 -0.559409,0 -1.01302,-0.453707 -1.01302,-1.01312 0,-0.559409 0.453607,-1.01302 1.01302,-1.01302z"/>
   <line class="fil2 str1" x1="8.91024" y1="7.11041" x2="18.2433" y2= "7.11041" />
   <polygon class="fil2 str0" points="15.3765,7.10971 17.9416,7.10971 17.9416,13.5007 15.3765,13.5007 "/>
   <line class="fil2 str1" x1="9.40605" y1="13.5257" x2="9.40605" y2= "7.10971" />
   <path class="fil3" d="M4.31097 7.23681c-0.0719011,0 -0.130302,-0.0583009 -0.130302,-0.130202 0,-0.0719011 0.0584009,-0.130202 0.130302,-0.130202l3.55986 0c0.0719011,0 0.130202,0.0583009 0.130202,0.130202l0 4.94568c0,0.0719011 -0.0583009,0.130202 -0.130202,0.130202l-6.1896 0c-0.0719011,0 -0.130202,-0.0583009 -0.130202,-0.130202l0 -4.94978c0,-0.0719011 0.0583009,-0.130202 0.130202,-0.130202 0.00410006,0 0.00820013,0.000200003 0.0122002,0.000600009l1.72273 0.0067001c0.0717011,0.000300005 0.129502,0.0586009 0.129202,0.130202 -0.000300005,0.0717011 -0.0586009,0.129502 -0.130202,0.129202l-1.60373 -0.0063001 0 4.68937 5.92919 0 0 -4.68527 -3.42965 0z"/>
  </g>
 </g>
</svg>
