<?xml version="1.0" encoding="UTF-8"?>
<!DOCTYPE svg PUBLIC "-//W3C//DTD SVG 1.1//EN" "http://www.w3.org/Graphics/SVG/1.1/DTD/svg11.dtd">
<!-- Creator: CorelDRAW -->
<svg xmlns="http://www.w3.org/2000/svg" xml:space="preserve" width="17.4056mm" height="13.334mm" style="shape-rendering:geometricPrecision; text-rendering:geometricPrecision; image-rendering:optimizeQuality; fill-rule:evenodd; clip-rule:evenodd"
viewBox="0 0 17.406 13.3343"
 xmlns:xlink="http://www.w3.org/1999/xlink">
 <defs>
  <style type="text/css">
   <![CDATA[
    .str1 {stroke:#3F4446;stroke-width:0.156004;stroke-linecap:round;stroke-linejoin:round}
    .str0 {stroke:#3F4446;stroke-width:0.234005;stroke-linecap:round;stroke-linejoin:round}
    .fil0 {fill:none}
    .fil2 {fill:#3F4446}
    .fil1 {fill:#3F4446;fill-rule:nonzero}
    .fil3 {fill:#D9DBDD;fill-rule:nonzero}
   ]]>
  </style>
 </defs>
 <g id="Layer_x0020_1">
  <metadata id="CorelCorpID_0Corel-Layer"/>
  <g id="_10.cdr">
   <path id="_310040200" class="fil0 str0" d="M8.6829 6.46325c2.60426,-2.15905 0.196605,-5.82073 -2.57916,-4.11949 -0.613714,0.376109 -1.04442,0.904321 -1.16973,1.51683 -0.190104,0.928521 0.42001,2.15885 1.22703,2.62576 0.495611,0.286707 1.10113,0.349108 1.79484,0.231305"/>
   <path id="_310040128" class="fil0 str0" d="M4.90781 4.67291c-1.01572,-0.820319 -1.68824,-1.57104 -1.30063,-2.10685 0.44511,-0.615214 1.52874,-0.248406 2.01025,0.146303"/>
   <g>
    <path id="_310040056" class="fil1" d="M8.95131 2.26335l0.000700016 0.00600014 0.000500011 0.00590014 0.000100002 0.00590014 -0.000100002 0.00580013 -0.000500011 0.00580013 -0.000700016 0.00570013 -0.00100002 0.00570013 -0.00130003 0.00550013 -0.00160004 0.00550013 -0.00180004 0.00540012 -0.00200005 0.00520012 -0.00230005 0.00520012 -0.00260006 0.00500011 -0.00270006 0.00490011 -0.00310007 0.00470011 -0.00320007 0.00460011 -0.00340008 0.0045001 -0.00370009 0.0042001 -0.00380009 0.00410009 -0.00410009 0.00390009 -0.0042001 0.00370009 -0.0044001 0.00350008 -0.00460011 0.00340008 -0.00480011 0.00300007 -0.00490011 0.00290007 -0.00510012 0.00260006 -0.00530012 0.00240006 -0.00540012 0.00210005 -0.00550013 0.00190004 -0.00570013 0.00160004 -0.00580013 0.00140003 -0.00590014 0.00100002 -0.00600014 0.000700016 -0.00590014 0.000500011 -0.00590014 0.000100002 -0.00580013 -0.000100002 -0.00580013 -0.000500011 -0.00570013 -0.000700016 -0.00570013 -0.00100002 -0.00550013 -0.00130003 -0.00550013 -0.00160004 -0.00540012 -0.00180004 -0.00520012 -0.00200005 -0.00520012 -0.00230005 -0.00500011 -0.00260006 -0.00490011 -0.00270006 -0.00470011 -0.00310007 -0.00460011 -0.00320007 -0.0045001 -0.00340008 -0.0042001 -0.00370009 -0.00410009 -0.00380009 -0.00390009 -0.00410009 -0.00370009 -0.0042001 -0.00350008 -0.0044001 -0.00340008 -0.00460011 -0.00300007 -0.00480011 -0.00290007 -0.00490011 -0.00260006 -0.00510012 -0.00240006 -0.00530012 -0.00210005 -0.00540012 -0.00190004 -0.00550013 -0.00160004 -0.00570013 -0.00140003 -0.00580013 -0.00100002 -0.00590014 0.231205 -0.0348008zm-1.25773 -2.25945l0 0 0.0703016 -0.00390009 0.0682016 0.00280006 0.0673015 0.00940022 0.0650015 0.0168004 0.0622014 0.0230005 0.0605014 0.0297007 0.0568013 0.0350008 0.0542012 0.0405009 0.0513012 0.0458011 0.0486011 0.0502012 0.0458011 0.0548013 0.043801 0.0590014 0.041901 0.0630014 0.0394009 0.0675016 0.0377009 0.0706016 0.0359008 0.0747017 0.0345008 0.0783018 0.0325007 0.0816019 0.0316007 0.085002 0.0301007 0.088602 0.0290007 0.0921021 0.0273006 0.0945022 0.0265006 0.0983023 0.0253006 0.100802 0.0245006 0.104002 0.0235005 0.106402 0.0223005 0.109103 0.0220005 0.111803 0.0212005 0.114403 0.0200005 0.116303 0.0194004 0.118503 0.0191004 0.120803 -0.231205 0.0348008 -0.0183004 -0.119003 -0.0194004 -0.116703 -0.0200005 -0.114503 -0.0202005 -0.111603 -0.0210005 -0.109203 -0.0223005 -0.106302 -0.0227005 -0.103602 -0.0235005 -0.100402 -0.0245006 -0.0972022 -0.0255006 -0.0937022 -0.0265006 -0.0909021 -0.0270006 -0.086502 -0.0283007 -0.0832019 -0.0290007 -0.0794018 -0.0305007 -0.0752017 -0.0309007 -0.0711016 -0.0323007 -0.0665015 -0.0331008 -0.0624014 -0.0340008 -0.0573013 -0.0345008 -0.0530012 -0.0356008 -0.0480011 -0.0366008 -0.043001 -0.0368008 -0.0384009 -0.0375009 -0.0330008 -0.0378009 -0.0285007 -0.0386009 -0.0240006 -0.0385009 -0.0189004 -0.0402009 -0.0148003 -0.0412009 -0.0104002 -0.042701 -0.00660015 -0.045401 -0.00180004 -0.0475011 0.00290007 0 0 -0.0246006 -0.232005zm0.0246006 0.232005l-0.00600014 0.000500011 -0.00590014 0.000100002 -0.00590014 -0.000100002 -0.00580013 -0.000400009 -0.00580013 -0.000700016 -0.00570013 -0.00100002 -0.00560013 -0.00130003 -0.00550013 -0.00150003 -0.00540012 -0.00180004 -0.00520012 -0.00200005 -0.00520012 -0.00230005 -0.00500011 -0.00250006 -0.00490011 -0.00270006 -0.00480011 -0.00300007 -0.00460011 -0.00320007 -0.0044001 -0.00340008 -0.0043001 -0.00370009 -0.00410009 -0.00380009 -0.00390009 -0.00400009 -0.00370009 -0.0042001 -0.00360008 -0.0044001 -0.00330008 -0.0045001 -0.00310007 -0.00480011 -0.00280006 -0.00490011 -0.00270006 -0.00500011 -0.00240006 -0.00520012 -0.00210005 -0.00530012 -0.00190004 -0.00550013 -0.00160004 -0.00560013 -0.00140003 -0.00570013 -0.00100002 -0.00590014 -0.000800018 -0.00590014 -0.000500011 -0.00600014 -0.000100002 -0.00590014 0.000100002 -0.00590014 0.000400009 -0.00580013 0.000700016 -0.00580013 0.00100002 -0.00560013 0.00130003 -0.00560013 0.00150003 -0.00550013 0.00180004 -0.00540012 0.00200005 -0.00530012 0.00230005 -0.00510012 0.00250006 -0.00510012 0.00280006 -0.00480011 0.00290007 -0.00480011 0.00320007 -0.00460011 0.00350008 -0.0044001 0.00360008 -0.0043001 0.00380009 -0.00410009 0.00400009 -0.00390009 0.0042001 -0.00370009 0.0044001 -0.00360008 0.00460011 -0.00330008 0.00470011 -0.00310007 0.00490011 -0.00280006 0.00500011 -0.00270006 0.00520012 -0.00240006 0.00540012 -0.00210005 0.00550013 -0.00190004 0.00560013 -0.00160004 0.00570013 -0.00140003 0.00580013 -0.00100002 0.00600014 -0.000800018 0.0246006 0.232005zm-0.921721 1.71634l-0.0088002 -0.0603014 -0.00660015 -0.0634015 -0.0045001 -0.0656015 -0.00280006 -0.0677016 -0.00100002 -0.0699016 0.000900021 -0.0711016 0.00280006 -0.0733017 0.00470011 -0.0745017 0.00700016 -0.0750017 0.00920021 -0.0761017 0.0112003 -0.0764018 0.0133003 -0.0764018 0.0160004 -0.0766018 0.0177004 -0.0761017 0.0207005 -0.0751017 0.0228005 -0.0745017 0.0259006 -0.0729017 0.0278006 -0.0713016 0.0311007 -0.0699016 0.0337008 -0.0676016 0.0370009 -0.0649015 0.0401009 -0.0629014 0.043601 -0.0594014 0.0467011 -0.0559013 0.0503012 -0.0524012 0.0544013 -0.0482011 0.0577013 -0.043301 0.0623014 -0.0384009 0.0656015 -0.0323007 0.0695016 -0.0256006 0.0728017 -0.0194004 0.0760017 -0.0119003 0.0246006 0.232005 -0.0530012 0.00830019 -0.0500011 0.0130003 -0.0475011 0.0182004 -0.045601 0.0223005 -0.043101 0.0266006 -0.042101 0.0313007 -0.0398009 0.0354008 -0.0385009 0.0396009 -0.0365008 0.044101 -0.0346008 0.0476011 -0.0327008 0.0509012 -0.0306007 0.0549013 -0.0291007 0.0576013 -0.0267006 0.0599014 -0.0250006 0.0629014 -0.0223005 0.0647015 -0.0208005 0.0663015 -0.0181004 0.0679016 -0.0167004 0.0687016 -0.0142003 0.0694016 -0.0123003 0.0700016 -0.0104002 0.0700016 -0.00820019 0.0697016 -0.00620014 0.0694016 -0.00470011 0.0681016 -0.00280006 0.0669015 -0.000900021 0.0657015 0.00100002 0.0635015 0.00280006 0.0613014 0.0045001 0.0584013 0.00580013 0.0550013 0.00700016 0.0521012 -0.230405 0.0366008zm0.230405 -0.0366008l0.000800018 0.00590014 0.000500011 0.00600014 0.000200005 0.00580013 -0.000200005 0.00580013 -0.000400009 0.00580013 -0.000600014 0.00570013 -0.00100002 0.00570013 -0.00120003 0.00550013 -0.00150003 0.00550013 -0.00180004 0.00530012 -0.00200005 0.00530012 -0.00230005 0.00520012 -0.00240006 0.00500011 -0.00280006 0.00490011 -0.00290007 0.00470011 -0.00320007 0.00460011 -0.00340008 0.0045001 -0.00360008 0.0043001 -0.00380009 0.00410009 -0.00400009 0.00390009 -0.0042001 0.00370009 -0.0044001 0.00360008 -0.00460011 0.00330008 -0.00470011 0.00310007 -0.00490011 0.00290007 -0.00510012 0.00270006 -0.00520012 0.00240006 -0.00540012 0.00220005 -0.00550013 0.00190004 -0.00560013 0.00160004 -0.00580013 0.00140003 -0.00590014 0.00110003 -0.00590014 0.000800018 -0.00600014 0.000500011 -0.00580013 0.000200005 -0.00590014 -0.000200005 -0.00580013 -0.000400009 -0.00570013 -0.000600014 -0.00560013 -0.00100002 -0.00560013 -0.00120003 -0.00540012 -0.00150003 -0.00540012 -0.00180004 -0.00530012 -0.00200005 -0.00510012 -0.00220005 -0.00510012 -0.00250006 -0.00480011 -0.00280006 -0.00480011 -0.00290007 -0.00460011 -0.00320007 -0.0045001 -0.00340008 -0.0042001 -0.00360008 -0.0042001 -0.00380009 -0.00390009 -0.00400009 -0.00370009 -0.0042001 -0.00360008 -0.0044001 -0.00330008 -0.0045001 -0.00310007 -0.00480011 -0.00290007 -0.00490011 -0.00270006 -0.00500011 -0.00240006 -0.00520012 -0.00220005 -0.00540012 -0.00190004 -0.00550013 -0.00160004 -0.00560013 -0.00140003 -0.00580013 -0.00110003 -0.00590014 0.230405 -0.0366008z"/>
   </g>
   <path class="fil0 str0" d="M4.4142 2.82026c-0.233305,0.378209 0.373309,0.589714 0.541712,0.722017"/>
   <g>
    <path class="fil1" d="M7.55377 0.968922l-0.00600014 0 -0.00590014 -0.000400009 -0.00590014 -0.000600014 -0.00570013 -0.00100002 -0.00570013 -0.00120003 -0.00550013 -0.00140003 -0.00550013 -0.00180004 -0.00530012 -0.00200005 -0.00520012 -0.00220005 -0.00510012 -0.00250006 -0.00490011 -0.00270006 -0.00480011 -0.00300007 -0.00460011 -0.00320007 -0.0044001 -0.00330008 -0.0043001 -0.00360008 -0.0042001 -0.00380009 -0.00390009 -0.00400009 -0.00370009 -0.0042001 -0.00350008 -0.0043001 -0.00340008 -0.0045001 -0.00310007 -0.00470011 -0.00290007 -0.00480011 -0.00260006 -0.00500011 -0.00250006 -0.00510012 -0.00210005 -0.00530012 -0.00200005 -0.00540012 -0.00160004 -0.00550013 -0.00140003 -0.00560013 -0.00120003 -0.00570013 -0.000800018 -0.00580013 -0.000500011 -0.00590014 -0.000300007 -0.00600014 0 -0.00600014 0.000400009 -0.00590014 0.000600014 -0.00590014 0.00100002 -0.00570013 0.00120003 -0.00570013 0.00140003 -0.00550013 0.00180004 -0.00550013 0.00200005 -0.00530012 0.00220005 -0.00520012 0.00250006 -0.00510012 0.00270006 -0.00490011 0.00300007 -0.00480011 0.00320007 -0.00460011 0.00330008 -0.0044001 0.00360008 -0.0043001 0.00380009 -0.00410009 0.00400009 -0.00400009 0.0042001 -0.00370009 0.0043001 -0.00350008 0.0045001 -0.00340008 0.00470011 -0.00310007 0.00480011 -0.00290007 0.00500011 -0.00260006 0.00510012 -0.00250006 0.00530012 -0.00210005 0.00540012 -0.00200005 0.00550013 -0.00160004 0.00560013 -0.00140003 0.00570013 -0.00120003 0.00580013 -0.000800018 0.00590014 -0.000500011 0.00600014 -0.000300007 0.00400009 0.233005zm0.212605 0.581713l0.000400009 -0.0224005 0.00120003 -0.0225005 0.000900021 -0.0233005 0.00220005 -0.0243006 0.00180004 -0.0248006 0.00160004 -0.0256006 0.00160004 -0.0259006 0.00150003 -0.0268006 0.00110003 -0.0264006 0.000600014 -0.0268006 0.000100002 -0.0267006 -0.000400009 -0.0269006 -0.000800018 -0.0260006 -0.00220005 -0.0251006 -0.00260006 -0.0250006 -0.00380009 -0.0236005 -0.00460011 -0.0221005 -0.00520012 -0.0210005 -0.00650015 -0.0188004 -0.00760017 -0.0179004 -0.00770018 -0.0157004 -0.0085002 -0.0138003 -0.00930021 -0.0125003 -0.0100002 -0.0106002 -0.0112003 -0.00960022 -0.0123003 -0.00910021 -0.0148003 -0.00790018 -0.0170004 -0.00710016 -0.0198005 -0.00560013 -0.0230005 -0.0043001 -0.0273006 -0.00280006 -0.0310007 -0.000800018 -0.00400009 -0.233005 0.0490011 0.000800018 0.0465011 0.00460011 0.044801 0.0087002 0.042201 0.0126003 0.0394009 0.0161004 0.0364008 0.0197005 0.0339008 0.0229005 0.0300007 0.0262006 0.0268006 0.0290007 0.0231005 0.0303007 0.0199005 0.0322007 0.0167004 0.0329008 0.0134003 0.0331008 0.0111003 0.0342008 0.00920021 0.0340008 0.00700016 0.0341008 0.00520012 0.0340008 0.00400009 0.0334008 0.00240006 0.0337008 0.00180004 0.0330008 0.000600014 0.0323007 -0.000100002 0.0319007 -0.00100002 0.0310007 -0.00130003 0.0304007 -0.00170004 0.0288007 -0.00180004 0.0279006 -0.00200005 0.0264006 -0.00180004 0.0248006 -0.00120003 0.0227005 -0.00170004 0.0209005 -0.000800018 0.0185004 -0.000400009 0.0150003 -0.233005 -0.00140003zm0.233005 0.00140003l-0.000200005 0.00600014 -0.000500011 0.00590014 -0.000700016 0.00580013 -0.00110003 0.00570013 -0.00130003 0.00570013 -0.00160004 0.00550013 -0.00190004 0.00540012 -0.00210005 0.00530012 -0.00240006 0.00510012 -0.00260006 0.00500011 -0.00280006 0.00490011 -0.00310007 0.00470011 -0.00320007 0.0045001 -0.00350008 0.0044001 -0.00370009 0.0042001 -0.00390009 0.00400009 -0.00410009 0.00390009 -0.0042001 0.00360008 -0.0044001 0.00340008 -0.00460011 0.00320007 -0.00480011 0.00300007 -0.00490011 0.00280006 -0.00500011 0.00260006 -0.00520012 0.00230005 -0.00530012 0.00200005 -0.00540012 0.00180004 -0.00560013 0.00160004 -0.00560013 0.00120003 -0.00580013 0.00100002 -0.00580013 0.000800018 -0.00590014 0.000400009 -0.00600014 0.000100002 -0.00600014 -0.000200005 -0.00590014 -0.000500011 -0.00580013 -0.000700016 -0.00570013 -0.00110003 -0.00570013 -0.00130003 -0.00550013 -0.00160004 -0.00540012 -0.00190004 -0.00530012 -0.00210005 -0.00510012 -0.00240006 -0.00500011 -0.00260006 -0.00490011 -0.00280006 -0.00470011 -0.00310007 -0.0045001 -0.00320007 -0.0044001 -0.00350008 -0.0042001 -0.00370009 -0.00400009 -0.00390009 -0.00390009 -0.00410009 -0.00360008 -0.0042001 -0.00340008 -0.0044001 -0.00320007 -0.00460011 -0.00300007 -0.00480011 -0.00280006 -0.00490011 -0.00260006 -0.00500011 -0.00230005 -0.00520012 -0.00200005 -0.00530012 -0.00180004 -0.00540012 -0.00160004 -0.00560013 -0.00120003 -0.00560013 -0.00100002 -0.00580013 -0.000800018 -0.00580013 -0.000400009 -0.00590014 -0.000100002 -0.00600014 0.233005 0.00140003z"/>
   </g>
   <ellipse class="fil2" transform="matrix(-0.137235 -0.17335 0.17335 -0.137235 7.81052 3.14669)" rx="0.645815" ry="0.501812"/>
   <ellipse class="fil2" transform="matrix(-0.137235 -0.17335 0.17335 -0.137235 6.01906 4.27568)" rx="0.645815" ry="0.501812"/>
   <path class="fil0 str0" d="M8.45939 3.78739c0.631415,0.808819 -0.307807,1.53054 -1.06852,0.710716 0.561213,0.903621 -0.340708,1.54124 -1.09653,0.710616"/>
   <path class="fil1" d="M7.36037 4.3928c0.0927021,-0.218405 0.139803,-0.391809 0.142203,-0.520312 0.00200005,-0.107102 -0.0296007,-0.175604 -0.0941022,-0.206005 -0.0137003,-0.00640015 -0.0277006,-0.0117003 -0.041601,-0.0158004 -0.121003,-0.0354008 -0.262206,0.00910021 -0.388609,0.0917021 -0.135203,0.088302 -0.249806,0.217305 -0.308407,0.341808 -0.0109003,0.0231005 -0.0196005,0.0457011 -0.0260006,0.0674015l-0.00130003 0.00410009c-0.00910021,0.0325007 -0.0113003,0.0601014 -0.00800018,0.0829019 0.0042001,0.0282006 0.0189004,0.0510012 0.0407009,0.0694016 0.0299007,0.0252006 0.0730017,0.044701 0.123403,0.0594014l0.000400009 0.000100002 0 -0.000100002c0.174304,0.0511012 0.41431,0.041401 0.561313,0.0254006zm0.375309 -0.516712c-0.00320007,0.170704 -0.0646015,0.392209 -0.185404,0.664815 -0.0144003,0.0388009 -0.0489011,0.0687016 -0.0927021,0.0751017 -0.148303,0.0219005 -0.481111,0.0466011 -0.724317,-0.0247006l0.000100002 -0.000100002c-0.0796018,-0.0233005 -0.151403,-0.0573013 -0.208005,-0.105002 -0.0649015,-0.0547013 -0.108903,-0.124803 -0.122003,-0.213805 -0.00790018,-0.0540012 -0.00380009,-0.114003 0.0149003,-0.180504l0.00170004 -0.00610014c0.00980023,-0.0336008 0.0229005,-0.0676016 0.0387009,-0.101202 0.0761017,-0.161504 0.221605,-0.326708 0.391609,-0.43781 0.178804,-0.116803 0.388109,-0.177004 0.582413,-0.120003 0.0256006,0.00750017 0.0508012,0.0170004 0.0754017,0.0286007 0.155004,0.0729017 0.231505,0.212905 0.227605,0.42071z"/>
   <path class="fil3" d="M7.31087 4.3301c0.0770018,-0.181504 0.116203,-0.325507 0.118203,-0.43231 0.00160004,-0.089002 -0.0247006,-0.145903 -0.0782018,-0.171104 -0.0114003,-0.00540012 -0.0230005,-0.00980023 -0.0346008,-0.0132003 -0.100502,-0.0294007 -0.217805,0.00760017 -0.322807,0.0763018 -0.112303,0.0733017 -0.207505,0.180404 -0.256306,0.283907 -0.00900021,0.0191004 -0.0163004,0.0379009 -0.0215005,0.0559013l-0.00110003 0.00350008c-0.00750017,0.0270006 -0.00940022,0.0499011 -0.00660015,0.0689016 0.00340008,0.0234005 0.0156004,0.042301 0.0337008,0.0576013 0.0249006,0.0210005 0.0607014,0.0371009 0.102602,0.0494011l0.000300007 0.000100002 0 -0.000100002c0.144803,0.042401 0.344208,0.0344008 0.466311,0.0211005z"/>
   <path class="fil0 str0" d="M16.4192 13.2058c-0.256306,-0.843419 -1.77824,-1.02472 -2.89197,-1.04412"/>
   <path class="fil0 str0" d="M13.2524 12.8847c0.995623,-2.60536 -0.929921,-5.84443 -2.99317,-7.31687 -0.168704,-0.216805 -0.370609,-0.368408 -0.539312,-0.585313"/>
   <path class="fil0 str0" d="M7.96358 6.72405c-0.519712,0.106202 -1.02362,0.125103 -1.49293,-0.088002 0.0575013,0.308507 0.137903,0.604414 0.245806,0.912821 1.32903,0.42661 3.57428,-0.523512 3.43188,-2.12005 -0.150603,-0.133303 -0.313907,-0.266506 -0.464511,-0.399809 -0.197705,0.619914 -0.543712,1.10033 -1.02712,1.46823"/>
   <path class="fil0 str0" d="M6.73095 7.55947c0.0193004,1.44123 0.0385009,2.88527 0.0578013,4.3264 -0.494311,0.254706 -0.706416,0.670215 -0.636215,1.33133 0.718217,0 1.43633,0 2.15455,0 0,-1.33993 0,-2.67996 0,-4.01999"/>
   <path class="fil0 str0" d="M7.93138 9.08941c0.258606,0.042801 0.515712,0.0470011 0.771018,0"/>
   <path class="fil0 str0" d="M10.3109 9.02171c-0.155104,0.966822 -0.224605,2.11285 -0.228605,2.86227"/>
   <path class="fil0 str0" d="M10.1565 10.4499c0.333108,-0.460111 0.812119,-0.646315 1.48393,-0.564513"/>
   <path class="fil0 str0" d="M9.57682 11.906c0.175104,0 0.350208,0 0.525312,0 0.301507,0.42051 0.45001,0.774818 0.141103,1.28583"/>
   <line class="fil0 str0" x1="0.281706" y1="13.2172" x2="17.289" y2= "13.2172" />
   <path class="fil0 str0" d="M4.70001 9.79443c-0.399209,0.715016 -0.508612,1.54304 -0.42421,2.35405"/>
   <path class="fil0 str0" d="M5.68543 11.601c-0.561113,1.33213 -2.69706,-0.412909 -3.16237,1.58984"/>
   <path class="fil0 str0" d="M1.80444 9.35341c0.044801,1.07902 0.0895021,2.14205 0.134303,3.19547"/>
   <path class="fil0 str0" d="M1.91954 12.2514c-0.374209,0.166304 -0.569313,0.473411 -0.585313,0.921221"/>
   <path class="fil0 str0" d="M2.48576 9.78522c0.367808,0.134403 0.735617,0.153604 1.10353,0.0576013"/>
   <line class="fil0 str0" x1="3.00387" y1="12.3247" x2="2.95597" y2= "9.93883" />
   <path class="fil0 str0" d="M4.93321 7.83778c0.86672,0.382609 1.53684,1.21353 1.81974,2.43566"/>
   <path class="fil0 str0" d="M2.72916 8.6585c-0.530812,0.0264006 -0.933821,-0.328108 -0.940422,-0.149203l-0.0176004 0.469311c1.65184,0.901021 3.77669,-0.85992 2.87887,-1.65764 -0.256306,0.475611 -0.556513,0.904721 -1.03312,1.12083"/>
   <path class="fil0 str0" d="M4.61831 7.36007c0.239005,-0.939522 -0.174404,-1.77164 -0.920621,-2.15335 -1.22243,-0.625214 -2.68396,0.172804 -2.80636,1.56334 -0.0410009,0.465711 0.107102,0.969322 0.548113,1.44613"/>
   <path class="fil0 str0" d="M4.12989 5.48623c-0.0302007,-1.15263 -0.782618,-1.93834 -1.40163,-0.550613"/>
   <path class="fil0 str0" d="M0.895821 7.20207c-0.983223,-0.602414 -1.19883,-1.64684 0.312507,-1.48913"/>
   <ellipse class="fil2" transform="matrix(0.217151 -0.0415822 0.0415822 0.217151 3.16898 8.63571)" rx="0.85182" ry="0.571313"/>
   <ellipse class="fil2" transform="matrix(0.149543 0.162852 -0.162852 0.149543 1.9151 7.14135)" rx="0.547413" ry="0.400109"/>
   <ellipse class="fil2" transform="matrix(0.149543 0.162852 -0.162852 0.149543 3.48147 6.12596)" rx="0.547413" ry="0.400109"/>
   <path class="fil0 str1" d="M2.49916 7.06606c0.202905,0.0159004 0.255106,-0.104502 0.254406,-0.307907 0.196005,0.0763018 0.325407,0.0782018 0.379009,-0.118103"/>
   <path class="fil2" d="M2.80816 6.74455c0.0130003,-0.086002 0.0253006,-0.172004 0.0158004,-0.258106 -0.0207005,-0.123203 -0.41971,0.0774018 -0.312907,0.210505 0.0655015,0.0506012 0.134703,0.0760017 0.205905,0.087302 0.0304007,-0.0133003 0.0608014,-0.0265006 0.0912021,-0.0397009z"/>
  </g>
 </g>
</svg>
