<?xml version="1.0" encoding="UTF-8"?>
<!DOCTYPE svg PUBLIC "-//W3C//DTD SVG 1.1//EN" "http://www.w3.org/Graphics/SVG/1.1/DTD/svg11.dtd">
<!-- Creator: CorelDRAW -->
<svg xmlns="http://www.w3.org/2000/svg" xml:space="preserve" width="17.4342mm" height="13.3559mm" style="shape-rendering:geometricPrecision; text-rendering:geometricPrecision; image-rendering:optimizeQuality; fill-rule:evenodd; clip-rule:evenodd"
viewBox="0 0 17.4346 13.3562"
 xmlns:xlink="http://www.w3.org/1999/xlink">
 <defs>
  <style type="text/css">
   <![CDATA[
    .str2 {stroke:#3F4446;stroke-width:0.117203;stroke-linecap:round;stroke-linejoin:round}
    .str1 {stroke:#1F1A17;stroke-width:0.234405;stroke-linecap:round;stroke-linejoin:round}
    .str0 {stroke:#3F4446;stroke-width:0.234405;stroke-linecap:round;stroke-linejoin:round}
    .fil1 {fill:none}
    .fil0 {fill:#15202A}
    .fil3 {fill:#3F4446}
    .fil6 {fill:#00ACEE}
    .fil2 {fill:#3F4446;fill-rule:nonzero}
    .fil5 {fill:#00ACEE;fill-rule:nonzero}
    .fil4 {fill:#D9DBDD;fill-rule:nonzero}
   ]]>
  </style>
 </defs>
 <g id="Layer_x0020_1">
  <metadata id="CorelCorpID_0Corel-Layer"/>
  <g id="_11.cdr">
   <path id="_310025536" class="fil0" d="M8.6709 6.48955c0.484211,-0.368508 0.830819,-0.831319 1.02882,-1.45223 0.150903,0.133503 0.314407,0.267006 0.465311,0.400509 0.142603,1.59914 -2.10635,2.55086 -3.43748,2.12355 -0.108102,-0.309007 -0.188604,-0.605414 -0.246306,-0.914321 0.685116,0.279106 1.63374,0.151803 2.18965,-0.157504z"/>
   <path id="_310025448" class="fil1 str0" d="M8.6972 6.47385c2.60846,-2.16245 0.196905,-5.83023 -2.58346,-4.12619 -0.614714,0.376709 -1.04612,0.905721 -1.17163,1.51933 -0.190404,0.930021 0.42071,2.16245 1.22903,2.63006 0.496411,0.287207 1.10293,0.349708 1.79784,0.231705"/>
   <path id="_310025376" class="fil1 str0" d="M4.91581 4.68061c-1.01732,-0.821619 -1.69094,-1.57364 -1.30273,-2.11025 0.44591,-0.616314 1.53124,-0.248806 2.01355,0.146503"/>
   <g>
    <path id="_310025304" class="fil2" d="M8.96601 2.26715l0.000700016 0.00600014 0.000500011 0.00590014 0.000100002 0.00590014 -0.000200005 0.00580013 -0.000400009 0.00580013 -0.000700016 0.00580013 -0.00110003 0.00560013 -0.00120003 0.00560013 -0.00160004 0.00540012 -0.00180004 0.00540012 -0.00210005 0.00530012 -0.00230005 0.00510012 -0.00250006 0.00500011 -0.00280006 0.00490011 -0.00300007 0.00480011 -0.00320007 0.00460011 -0.00350008 0.0044001 -0.00360008 0.0043001 -0.00390009 0.00410009 -0.00410009 0.00390009 -0.0042001 0.00370008 -0.0044001 0.00350008 -0.00460011 0.00330008 -0.00480011 0.00310007 -0.00500011 0.00290007 -0.00510012 0.00260006 -0.00520012 0.00240006 -0.00540012 0.00210005 -0.00560013 0.00190004 -0.00570013 0.00160004 -0.00580013 0.00140003 -0.00590014 0.00100002 -0.00600014 0.000700016 -0.00590014 0.000500011 -0.00590014 0.000100002 -0.00590014 -0.000200005 -0.00580013 -0.000400009 -0.00570013 -0.000700016 -0.00570013 -0.00110003 -0.00550013 -0.00120003 -0.00550013 -0.00160004 -0.00540012 -0.00180004 -0.00520012 -0.00210005 -0.00520012 -0.00230005 -0.00500011 -0.00250006 -0.00490011 -0.00280006 -0.00480011 -0.00300007 -0.00460011 -0.00320007 -0.0044001 -0.00350008 -0.0043001 -0.00360008 -0.00410009 -0.00390009 -0.00390009 -0.00400009 -0.00370008 -0.0043001 -0.00350008 -0.0044001 -0.00330008 -0.00460011 -0.00310007 -0.00480011 -0.00290007 -0.00490011 -0.00260006 -0.00510012 -0.00240006 -0.00530012 -0.00210005 -0.00540012 -0.00190004 -0.00550013 -0.00160004 -0.00570013 -0.00140003 -0.00580013 -0.00100002 -0.00590014 0.231605 -0.0348008zm-1.25983 -2.26325l0 0 0.0704016 -0.00390009 0.0684016 0.00280006 0.0675015 0.00950022 0.0650015 0.0167004 0.0628014 0.0231005 0.0596014 0.0293007 0.0574013 0.0355008 0.0544012 0.0405009 0.0512012 0.0459011 0.0488011 0.0503012 0.0463011 0.0550013 0.043401 0.0591014 0.041901 0.0631014 0.0396009 0.0675015 0.0377009 0.0708016 0.0359008 0.0748017 0.0346008 0.0780018 0.0325007 0.0823019 0.0317007 0.085002 0.0301007 0.088802 0.0290007 0.0917021 0.0275006 0.0956022 0.0264006 0.0979022 0.0254006 0.101202 0.0246006 0.104102 0.0235005 0.106502 0.0224005 0.109303 0.0220005 0.112003 0.0212005 0.114603 0.0201005 0.116503 0.0193004 0.118703 0.0192004 0.121003 -0.231605 0.0348008 -0.0184004 -0.119203 -0.0193004 -0.116903 -0.0201005 -0.114703 -0.0202005 -0.111803 -0.0210005 -0.109203 -0.0224005 -0.106702 -0.0227005 -0.103702 -0.0236005 -0.100502 -0.0246006 -0.0974022 -0.0254006 -0.0943022 -0.0265006 -0.0900021 -0.0272006 -0.087302 -0.0283006 -0.0832019 -0.0289007 -0.0796018 -0.0307007 -0.0749017 -0.0310007 -0.0716016 -0.0323007 -0.0666015 -0.0331008 -0.0626014 -0.0340008 -0.0573013 -0.0347008 -0.0531012 -0.0360008 -0.0481011 -0.0363008 -0.043201 -0.0368008 -0.0383009 -0.0376009 -0.0331008 -0.0378009 -0.0287007 -0.0382009 -0.0235005 -0.0394009 -0.0193004 -0.0400009 -0.0149003 -0.0412009 -0.0103002 -0.042701 -0.00670015 -0.045601 -0.00180004 -0.0474011 0.00290007 0 0 -0.0248006 -0.232405zm0.0248006 0.232405l-0.00600014 0.000500011 -0.00600014 0.000200005 -0.00580013 -0.000200005 -0.00590014 -0.000400009 -0.00570013 -0.000700016 -0.00570013 -0.00100002 -0.00560013 -0.00120003 -0.00550013 -0.00150003 -0.00540012 -0.00180004 -0.00530012 -0.00210005 -0.00520012 -0.00220005 -0.00500011 -0.00260006 -0.00490011 -0.00270006 -0.00480011 -0.00300007 -0.00460011 -0.00320007 -0.0045001 -0.00340008 -0.0043001 -0.00360008 -0.00410009 -0.00390009 -0.00390009 -0.00400009 -0.00370008 -0.0042001 -0.00350008 -0.0044001 -0.00340008 -0.00460011 -0.00310007 -0.00470011 -0.00280006 -0.00490011 -0.00270006 -0.00500011 -0.00240006 -0.00520012 -0.00220005 -0.00540012 -0.00190004 -0.00550013 -0.00160004 -0.00560013 -0.00130003 -0.00570013 -0.00110003 -0.00580013 -0.000800018 -0.00600014 -0.000500011 -0.00600014 -0.000200005 -0.00590014 0.000200005 -0.00590014 0.000400009 -0.00590014 0.000700016 -0.00570013 0.00100002 -0.00570013 0.00120003 -0.00560013 0.00150003 -0.00550013 0.00180004 -0.00540012 0.00210005 -0.00530012 0.00220005 -0.00510012 0.00260006 -0.00510012 0.00270006 -0.00490011 0.00300007 -0.00470011 0.00320007 -0.00460011 0.00340008 -0.0045001 0.00370008 -0.0043001 0.00380009 -0.00410009 0.00400009 -0.00390009 0.0042001 -0.00370008 0.0044001 -0.00360008 0.00460011 -0.00330008 0.00470011 -0.00310007 0.00490011 -0.00290007 0.00510012 -0.00260006 0.00520012 -0.00240006 0.00530012 -0.00220005 0.00550013 -0.00190004 0.00560013 -0.00160004 0.00580013 -0.00130003 0.00580013 -0.00110003 0.00600014 -0.000800018 0.0248006 0.232405zm-0.923321 1.71914l-0.0088002 -0.0609014 -0.00620014 -0.0629014 -0.00500011 -0.0658015 -0.00270006 -0.0678016 -0.00100002 -0.0700016 0.000900021 -0.0713016 0.00270006 -0.0733017 0.00470011 -0.0746017 0.00710016 -0.0752017 0.00920021 -0.0762017 0.0112003 -0.0765018 0.0133003 -0.0766018 0.0160004 -0.0768018 0.0177004 -0.0761017 0.0209005 -0.0753017 0.0227005 -0.0746017 0.0259006 -0.0730017 0.0279006 -0.0713016 0.0313007 -0.0702016 0.0341008 -0.0676016 0.0367008 -0.0650015 0.0401009 -0.0630014 0.043701 -0.0595014 0.0467011 -0.0561013 0.0504012 -0.0525012 0.0545013 -0.0482011 0.0582013 -0.043301 0.0620014 -0.0385009 0.0658015 -0.0320007 0.0696016 -0.0261006 0.0729017 -0.0194004 0.0760017 -0.0119003 0.0248006 0.232405 -0.0532012 0.00830019 -0.0501011 0.0130003 -0.0476011 0.0179004 -0.045601 0.0228005 -0.043601 0.0265006 -0.041801 0.0315007 -0.0399009 0.0354008 -0.0384009 0.0397009 -0.0367008 0.044101 -0.0345008 0.0477011 -0.0329008 0.0510012 -0.0311007 0.0550013 -0.0287007 0.0576013 -0.0267006 0.0600014 -0.0251006 0.0631014 -0.0223005 0.0648015 -0.0209005 0.0664015 -0.0181004 0.0679016 -0.0167004 0.0689016 -0.0142003 0.0694016 -0.0123003 0.0702016 -0.0104002 0.0701016 -0.00820019 0.0698016 -0.00630014 0.0696016 -0.00470011 0.0682016 -0.00270006 0.0669015 -0.000900021 0.0659015 0.00100002 0.0636015 0.00270006 0.0614014 0.0042001 0.0584013 0.00620014 0.0557013 0.00700016 0.0517012 -0.230805 0.0366008zm0.230805 -0.0366008l0.000800018 0.00600014 0.000500011 0.00590014 0.000200005 0.00590014 -0.000200005 0.00580013 -0.000400009 0.00580013 -0.000700016 0.00570013 -0.000900021 0.00560013 -0.00130003 0.00560013 -0.00150003 0.00550013 -0.00170004 0.00530012 -0.00200005 0.00530012 -0.00230005 0.00520012 -0.00250006 0.00500011 -0.00270006 0.00490011 -0.00300007 0.00480011 -0.00320007 0.00460011 -0.00340008 0.0044001 -0.00360008 0.0043001 -0.00380009 0.00410009 -0.00400009 0.00400009 -0.0042001 0.00370008 -0.0044001 0.00350008 -0.00460011 0.00340008 -0.00470011 0.00310007 -0.00490011 0.00290007 -0.00510012 0.00270006 -0.00520012 0.00240006 -0.00540012 0.00220005 -0.00550013 0.00190004 -0.00570013 0.00160004 -0.00580013 0.00140003 -0.00590014 0.00110003 -0.00600014 0.000800018 -0.00590014 0.000500011 -0.00590014 0.000200005 -0.00580013 -0.000200005 -0.00580013 -0.000400009 -0.00570013 -0.000700016 -0.00570013 -0.000900021 -0.00550013 -0.00130003 -0.00550013 -0.00150003 -0.00540012 -0.00170004 -0.00530012 -0.00200005 -0.00510012 -0.00230005 -0.00510012 -0.00250006 -0.00490011 -0.00270006 -0.00470011 -0.00300007 -0.00460011 -0.00320007 -0.0045001 -0.00340008 -0.0043001 -0.00360008 -0.00410009 -0.00380009 -0.00400009 -0.00400009 -0.00370008 -0.0042001 -0.00350008 -0.0044001 -0.00340008 -0.00460011 -0.00310007 -0.00470011 -0.00290007 -0.00490011 -0.00270006 -0.00510012 -0.00240006 -0.00520012 -0.00220005 -0.00540012 -0.00190004 -0.00550013 -0.00160004 -0.00560013 -0.00140003 -0.00580013 -0.00110003 -0.00590014 0.230805 -0.0366008z"/>
   </g>
   <path class="fil1 str0" d="M4.4214 2.82496c-0.233705,0.378809 0.373909,0.590614 0.542612,0.723217"/>
   <g>
    <path class="fil2" d="M7.56617 0.970622l-0.00600014 0 -0.00590014 -0.000400009 -0.00590014 -0.000600014 -0.00570013 -0.00100002 -0.00570013 -0.00120003 -0.00560013 -0.00150003 -0.00540012 -0.00170004 -0.00540012 -0.00200005 -0.00520012 -0.00230005 -0.00500011 -0.00240006 -0.00500011 -0.00280006 -0.00480011 -0.00290007 -0.00460011 -0.00320007 -0.0045001 -0.00340008 -0.0043001 -0.00360008 -0.00410009 -0.00380009 -0.00390009 -0.00400009 -0.00380009 -0.00410009 -0.00350008 -0.0044001 -0.00330008 -0.0045001 -0.00320007 -0.00470011 -0.00290007 -0.00480011 -0.00260006 -0.00500011 -0.00240006 -0.00520012 -0.00220005 -0.00520012 -0.00200005 -0.00540012 -0.00160004 -0.00550013 -0.00140003 -0.00560013 -0.00120003 -0.00580013 -0.000800018 -0.00580013 -0.000500011 -0.00590014 -0.000300007 -0.00600014 0 -0.00600014 0.000400009 -0.00590014 0.000600014 -0.00590014 0.00100002 -0.00570013 0.00120003 -0.00570013 0.00150003 -0.00560013 0.00170004 -0.00540012 0.00200005 -0.00540012 0.00230005 -0.00520012 0.00240006 -0.00500011 0.00280006 -0.00500011 0.00290007 -0.00480011 0.00320007 -0.00460011 0.00340008 -0.0045001 0.00360008 -0.0043001 0.00380009 -0.00410009 0.00400009 -0.00390009 0.00410009 -0.00380009 0.0044001 -0.00350008 0.0045001 -0.00330008 0.00470011 -0.00320007 0.00480011 -0.00290007 0.00500011 -0.00260006 0.00520012 -0.00240006 0.00520012 -0.00220005 0.00540012 -0.00200005 0.00550013 -0.00160004 0.00560013 -0.00140003 0.00580013 -0.00120003 0.00580013 -0.000800018 0.00590014 -0.000500011 0.00600014 -0.000300007 0.00400009 0.233405zm0.212905 0.582613l0.000400009 -0.0224005 0.00120003 -0.0226005 0.00100002 -0.0234005 0.00210005 -0.0242006 0.00180004 -0.0249006 0.00160004 -0.0256006 0.00170004 -0.0260006 0.00120003 -0.0264006 0.00130003 -0.0269006 0.000900021 -0.0273006 0.000200005 -0.0266006 -0.000700016 -0.0266006 -0.000800018 -0.0261006 -0.00220005 -0.0250006 -0.00250006 -0.0252006 -0.00410009 -0.0232005 -0.0045001 -0.0226005 -0.00520012 -0.0210005 -0.00650015 -0.0188004 -0.00720017 -0.0177004 -0.00810019 -0.0161004 -0.0085002 -0.0136003 -0.00930021 -0.0126003 -0.0100002 -0.0106002 -0.0111003 -0.0101002 -0.0124003 -0.0086002 -0.0148003 -0.00790018 -0.0171004 -0.00710016 -0.0198005 -0.00560013 -0.0230005 -0.0043001 -0.0274006 -0.00280006 -0.0311007 -0.000800018 -0.00400009 -0.233405 0.0491011 0.000800018 0.0466011 0.00460011 0.044801 0.0087002 0.042401 0.0126003 0.0393009 0.0161004 0.0366008 0.0197005 0.0336008 0.0234005 0.0303007 0.0259006 0.0268006 0.0290007 0.0233005 0.0304007 0.0197005 0.0322007 0.0165004 0.0327008 0.0138003 0.0333008 0.0111003 0.0344008 0.00920021 0.0340008 0.00730017 0.0338008 0.00490011 0.0344008 0.00410009 0.0334008 0.00240006 0.0338008 0.00180004 0.0331008 0.000300007 0.0326007 -0.000200005 0.0320007 -0.000700016 0.0307007 -0.00110003 0.0301007 -0.00180004 0.0292007 -0.00190004 0.0280006 -0.00200005 0.0264006 -0.00180004 0.0249006 -0.00130003 0.0228005 -0.00160004 0.0208005 -0.000800018 0.0186004 -0.000400009 0.0150003 -0.233405 -0.00140003zm0.233405 0.00140003l-0.000200005 0.00600014 -0.000500011 0.00590014 -0.000700016 0.00590014 -0.00110003 0.00570013 -0.00130003 0.00560013 -0.00160004 0.00550013 -0.00190004 0.00550013 -0.00210005 0.00520012 -0.00240006 0.00520012 -0.00260006 0.00500011 -0.00280006 0.00490011 -0.00310007 0.00470011 -0.00330008 0.0045001 -0.00350008 0.0044001 -0.00370008 0.0042001 -0.00390009 0.00410009 -0.00400009 0.00380009 -0.0043001 0.00360008 -0.0044001 0.00350008 -0.00460011 0.00320007 -0.00480011 0.00300007 -0.00490011 0.00280006 -0.00500011 0.00250006 -0.00520012 0.00240006 -0.00530012 0.00200005 -0.00550013 0.00180004 -0.00550013 0.00160004 -0.00570013 0.00120003 -0.00570013 0.00100002 -0.00590014 0.000800018 -0.00590014 0.000400009 -0.00600014 0.000100002 -0.00600014 -0.000200005 -0.00590014 -0.000500011 -0.00590014 -0.000700016 -0.00570013 -0.00110003 -0.00560013 -0.00130003 -0.00550013 -0.00160004 -0.00550013 -0.00190004 -0.00520012 -0.00210005 -0.00520012 -0.00240006 -0.00500011 -0.00260006 -0.00490011 -0.00280006 -0.00470011 -0.00310007 -0.0045001 -0.00330008 -0.0044001 -0.00350008 -0.0042001 -0.00370008 -0.00410009 -0.00390009 -0.00380009 -0.00400009 -0.00360008 -0.0043001 -0.00350008 -0.0044001 -0.00320007 -0.00460011 -0.00300007 -0.00480011 -0.00280006 -0.00490011 -0.00250006 -0.00500011 -0.00240006 -0.00520012 -0.00200005 -0.00530012 -0.00180004 -0.00550013 -0.00160004 -0.00550013 -0.00120003 -0.00570013 -0.00100002 -0.00570013 -0.000800018 -0.00590014 -0.000400009 -0.00590014 -0.000100002 -0.00600014 0.233405 0.00140003z"/>
   </g>
   <ellipse class="fil3" transform="matrix(-0.137461 -0.173635 0.173635 -0.137461 7.82335 3.1519)" rx="0.645815" ry="0.501812"/>
   <ellipse class="fil3" transform="matrix(-0.137461 -0.173635 0.173635 -0.137461 6.02895 4.28275)" rx="0.645815" ry="0.501812"/>
   <path class="fil1 str0" d="M8.47329 3.79369c0.632415,0.810119 -0.308307,1.53294 -1.07032,0.711816 0.562213,0.905121 -0.341208,1.54384 -1.09833,0.711816"/>
   <path class="fil2" d="M7.37247 4.4001c0.0929021,-0.218805 0.140103,-0.392409 0.142503,-0.521212 0.00190004,-0.107302 -0.0297007,-0.175904 -0.0943022,-0.206305 -0.0138003,-0.00650015 -0.0277006,-0.0118003 -0.041701,-0.0159004 -0.121203,-0.0355008 -0.262606,0.00920021 -0.389209,0.0919021 -0.135403,0.088502 -0.250206,0.217605 -0.309007,0.342408 -0.0108002,0.0231005 -0.0196004,0.045701 -0.0260006,0.0674015l-0.00130003 0.0042001c-0.00910021,0.0326007 -0.0113003,0.0601014 -0.00800018,0.0830019 0.0042001,0.0282006 0.0189004,0.0511012 0.0407009,0.0695016 0.0300007,0.0253006 0.0732017,0.044801 0.123603,0.0595014l0.000400009 0.000200005 0.000100002 -0.000200005c0.174504,0.0512012 0.41491,0.041501 0.562213,0.0255006zm0.375909 -0.517512c-0.00320007,0.170904 -0.0646015,0.392809 -0.185704,0.665815 -0.0144003,0.0388009 -0.0490011,0.0688016 -0.0928021,0.0752017 -0.148603,0.0219005 -0.482011,0.0467011 -0.725517,-0.0247006l0 -0.000100002c-0.0797018,-0.0234005 -0.151603,-0.0574013 -0.208305,-0.105202 -0.0650015,-0.0548013 -0.109003,-0.125003 -0.122203,-0.214105 -0.00790018,-0.0541012 -0.00380009,-0.114203 0.0150003,-0.180804l0.00160004 -0.00620014c0.00990023,-0.0336008 0.0230005,-0.0676016 0.0388009,-0.101302 0.0762017,-0.161804 0.222005,-0.327208 0.392309,-0.43851 0.179104,-0.117003 0.388709,-0.177304 0.583313,-0.120303 0.0257006,0.00760017 0.0509012,0.0171004 0.0756017,0.0287007 0.155104,0.0730017 0.231805,0.213305 0.227905,0.42151z"/>
   <path class="fil4" d="M7.32287 4.3372c0.0772018,-0.181804 0.116403,-0.326007 0.118403,-0.43301 0.00160004,-0.089102 -0.0247006,-0.146103 -0.0784018,-0.171304 -0.0114003,-0.00540012 -0.0230005,-0.00980022 -0.0346008,-0.0132003 -0.100702,-0.0295007 -0.218105,0.00760017 -0.323307,0.0763018 -0.112503,0.0735017 -0.207905,0.180804 -0.256706,0.284407 -0.00900021,0.0192004 -0.0163004,0.0380009 -0.0216005,0.0561013l-0.00110003 0.00340008c-0.00750017,0.0271006 -0.00940022,0.0500011 -0.00660015,0.0690016 0.00350008,0.0234005 0.0157004,0.042501 0.0338008,0.0577013 0.0249006,0.0210005 0.0608014,0.0372009 0.102702,0.0495011l0.000300007 0.000100002 0.000100002 -0.000100002c0.145003,0.042501 0.344708,0.0344008 0.467011,0.0211005z"/>
   <path class="fil1 str0" d="M16.4462 13.2276c-0.256706,-0.844819 -1.78114,-1.02642 -2.89677,-1.04592"/>
   <path class="fil1 str0" d="M13.2742 12.9059c0.997223,-2.60966 -0.931421,-5.85403 -2.99817,-7.32887 -0.169004,-0.217205 -0.371209,-0.369008 -0.540112,-0.586313"/>
   <path class="fil1 str0" d="M6.74195 7.57197c0.0193004,1.44353 0.0387009,2.88997 0.0580013,4.3335 -0.495211,0.255106 -0.707616,0.671315 -0.637315,1.33353 0.719317,0 1.43873,0 2.15815,0 0,-1.34223 0,-2.68436 0,-4.02659"/>
   <path class="fil1 str0" d="M7.94448 9.10441c0.258906,0.042801 0.516412,0.0470011 0.772218,0"/>
   <path class="fil1 str0" d="M10.3279 9.03661c-0.155404,0.968422 -0.225005,2.11625 -0.229005,2.86687"/>
   <path class="fil1 str0" d="M10.1732 10.4671c0.333708,-0.460911 0.813419,-0.647415 1.48633,-0.565413"/>
   <path class="fil1 str0" d="M9.59262 11.9256c0.175304,0 0.350708,0 0.526112,0 0.302007,0.42121 0.45071,0.776118 0.141303,1.28803"/>
   <line class="fil1 str0" x1="0.282206" y1="13.239" x2="17.3174" y2= "13.239" />
   <path class="fil1 str0" d="M4.70771 9.81053c-0.399809,0.716216 -0.509512,1.54564 -0.42491,2.35795"/>
   <path class="fil1 str0" d="M5.69473 11.6201c-0.562013,1.33433 -2.70146,-0.413609 -3.16757,1.59254"/>
   <path class="fil1 str0" d="M1.80734 9.36891c0.044901,1.08072 0.0897021,2.14555 0.134603,3.20057"/>
   <path class="fil1 str0" d="M1.92274 12.2716c-0.374909,0.166604 -0.570313,0.474111 -0.586313,0.922721"/>
   <line class="fil1 str0" x1="3.00887" y1="12.345" x2="2.96077" y2= "9.95523" />
   <path class="fil1 str0" d="M4.62591 7.37217c0.239405,-0.941022 -0.174804,-1.77454 -0.922221,-2.15685 -1.22443,-0.626214 -2.68826,0.173104 -2.81086,1.56584 -0.0411009,0.466511 0.107202,0.970922 0.549013,1.44863"/>
   <path class="fil1 str0" d="M4.13659 5.49533c-0.0301007,-1.15463 -0.783818,-1.94154 -1.40393,-0.551613"/>
   <path class="fil1 str0" d="M0.897221 7.21397c-0.984723,-0.603414 -1.20073,-1.64954 0.313007,-1.49153"/>
   <ellipse class="fil3" transform="matrix(0.149789 0.163119 -0.163119 0.149789 1.91823 7.15313)" rx="0.547413" ry="0.400109"/>
   <ellipse class="fil3" transform="matrix(0.149789 0.163119 -0.163119 0.149789 3.48719 6.13607)" rx="0.547413" ry="0.400109"/>
   <path class="fil5" d="M8.02928 6.61605c0.0307007,0.0155004 0.0544012,0.0594014 0.0618014,0.0958022 0.0129003,0.0632015 -0.0279006,0.124903 -0.0911021,0.137803 -0.268506,0.0548013 -0.533712,0.087102 -0.793618,0.0781018 -0.193004,-0.00660015 -0.382509,-0.0358008 -0.567613,-0.0949022 0.0181004,0.0801018 0.0380009,0.160304 0.0598014,0.241106 0.0354008,0.131503 0.0753017,0.261706 0.119903,0.392909 0.262806,0.0750017 0.561313,0.0958022 0.86852,0.0684016 0.489311,-0.043601 0.998123,-0.209205 1.41943,-0.473211 0.41471,-0.259806 0.742917,-0.614414 0.87942,-1.03962 0.0531012,-0.165404 0.0773018,-0.342008 0.0664015,-0.528312 -0.0596014,-0.0520012 -0.127403,-0.109603 -0.195404,-0.167304 -0.0342008,-0.0291007 -0.0684016,-0.0581013 -0.103402,-0.088102 -0.0960022,0.255706 -0.218005,0.487011 -0.365108,0.695816 -0.178904,0.253906 -0.394909,0.474911 -0.646415,0.666315 -0.0513012,0.0392009 -0.124703,0.0294007 -0.163904,-0.0219005 -0.0392009,-0.0513012 -0.0339008,-0.130603 0.0174004,-0.169804 0.208705,-0.201005 0.408609,-0.394709 0.587413,-0.614814 0.164804,-0.233805 0.310607,-0.508912 0.41811,-0.828419 0.0370008,-0.105702 0.143203,-0.121903 0.206505,-0.0653015 0.148703,0.131403 0.272206,0.306007 0.42911,0.44461l0.0087002 0.00780018c0.0200005,0.0189004 0.0335008,0.045001 0.0361008,0.0747017 0.0205005,0.230205 -0.00520012,0.44811 -0.0684016,0.651415l-0.00920021 0.0286007c-0.148403,0.44911 -0.480211,0.824119 -0.900021,1.10443l-0.148003 0.0927021c-0.41661,0.245206 -0.904221,0.403409 -1.37873,0.45601l-0.177404 0.0147003c-0.291207,0.0161004 -0.574313,-0.00910021 -0.829719,-0.0797018 -0.0916021,-0.0252006 -0.121403,-0.0392009 -0.162604,-0.124703 -0.0403009,-0.116603 -0.0765018,-0.230805 -0.108902,-0.343608l-0.0574013 -0.214805c-0.0258006,-0.104202 -0.0489011,-0.209605 -0.0694016,-0.317307l-0.00720017 -0.045501c-0.000500011,-0.0170004 0.00280006,-0.0344008 0.0103002,-0.0510012 0.0232005,-0.0515012 0.0775018,-0.0912021 0.130603,-0.0793018l0.0407009 0.0157004c0.224705,0.0902021 0.42411,0.110103 0.616614,0.120403l0.0988023 0.00340008c0.208305,0.00260006 0.42381,-0.00130003 0.641015,-0.043201 0.042701,-0.00820019 0.085602,-0.0208005 0.126903,0.000100002z"/>
   <path class="fil0" d="M2.17005 8.5898c0.495911,0.0798018 1.12693,0.104702 1.55694,-0.155604l0.938222 -1.00792 0.172104 0.273906 -0.180704 0.540512 -0.405209 0.582013 -1.00792 0.410409 -0.819319 0.0242006 -0.659715 -0.212705 0.0287007 -0.409709 0.0901021 -0.176204 0.286807 0.131103z"/>
   <path class="fil1 str0" d="M2.48976 9.80142c0.368508,0.134503 0.736917,0.153804 1.10543,0.0576013"/>
   <path class="fil1 str0" d="M4.94131 7.85068c0.86822,0.383309 1.53944,1.21563 1.82274,2.43966"/>
   <path class="fil1 str1" d="M2.73366 8.6727c-0.531712,0.0265006 -0.935321,-0.328508 -0.942022,-0.149403l-0.0176004 0.470111c1.65454,0.902521 3.78289,-0.86132 2.88367,-1.66034 -0.256806,0.476311 -0.557513,0.906221 -1.03482,1.12273"/>
   <path class="fil5" d="M2.72816 8.556c0.0645015,-0.00300007 0.119203,0.0468011 0.122303,0.111203 0.00300007,0.0645015 -0.0468011,0.119303 -0.111303,0.122303 -0.304607,0.0151003 -0.563013,-0.0822019 -0.742017,-0.149603 -0.0348008,-0.0131003 -0.0660015,-0.0249006 -0.0917021,-0.0338008l-0.0119003 0.317907c0.682916,0.340408 1.44423,0.215205 2.01265,-0.0957022 0.224105,-0.122603 0.41771,-0.274106 0.564213,-0.43721 0.141403,-0.157404 0.237005,-0.323607 0.270606,-0.481911 0.0282006,-0.132303 0.0111003,-0.260706 -0.0618014,-0.374109 -0.109603,0.190904 -0.229005,0.371909 -0.367408,0.532712 -0.177504,0.206405 -0.385209,0.378709 -0.640915,0.494611 -0.0589014,0.0265006 -0.128203,0.000300007 -0.154704,-0.0586013 -0.0265006,-0.0589014 -0.000300007,-0.128203 0.0586013,-0.154704 0.221605,-0.100502 0.403109,-0.251506 0.559413,-0.43321 0.159404,-0.185304 0.293807,-0.403509 0.41801,-0.633615 0.00460011,-0.00960022 0.0106002,-0.0187004 0.0180004,-0.0270006 0.043001,-0.0483011 0.117003,-0.0526012 0.165304,-0.00960022 0.224805,0.199705 0.290007,0.45061 0.234405,0.712016 -0.042401,0.199405 -0.157304,0.402709 -0.325507,0.590014 -0.163004,0.181404 -0.378109,0.349808 -0.626514,0.485711 -0.644615,0.352508 -1.51763,0.486611 -2.29495,0.0650015 -0.0402009,-0.0196004 -0.0673015,-0.0616014 -0.0656015,-0.109103l0.0176004 -0.470111c0.0045001,-0.122303 0.0659015,-0.167304 0.175904,-0.163204 0.0619014,0.00220005 0.135103,0.0298007 0.228705,0.0651015 0.160504,0.0604014 0.392109,0.147703 0.648615,0.134903z"/>
   <ellipse class="fil6" transform="matrix(0.217509 -0.0416506 0.0416506 0.217509 3.17418 8.64995)" rx="0.85182" ry="0.571313"/>
   <path class="fil1 str2" d="M2.50326 7.07776c0.203305,0.0159004 0.255506,-0.104702 0.254806,-0.308407 0.196405,0.0764018 0.325907,0.0783018 0.379709,-0.118403"/>
   <path class="fil3" d="M2.81276 6.75565c0.0131003,-0.086202 0.0254006,-0.172304 0.0158004,-0.258506 -0.0207005,-0.123403 -0.42041,0.0776018 -0.313407,0.210805 0.0657015,0.0507012 0.135003,0.0762017 0.206305,0.087502 0.0304007,-0.0133003 0.0609014,-0.0265006 0.0913021,-0.0398009z"/>
  </g>
 </g>
</svg>
