<?xml version="1.0" encoding="UTF-8"?>
<!DOCTYPE svg PUBLIC "-//W3C//DTD SVG 1.1//EN" "http://www.w3.org/Graphics/SVG/1.1/DTD/svg11.dtd">
<!-- Creator: CorelDRAW -->
<svg xmlns="http://www.w3.org/2000/svg" xml:space="preserve" width="15.532mm" height="12.9084mm" style="shape-rendering:geometricPrecision; text-rendering:geometricPrecision; image-rendering:optimizeQuality; fill-rule:evenodd; clip-rule:evenodd"
viewBox="0 0 15.532 12.9084"
 xmlns:xlink="http://www.w3.org/1999/xlink">
 <defs>
  <style type="text/css">
   <![CDATA[
    .fil1 {fill:#15202A}
    .fil3 {fill:white}
    .fil2 {fill:#00ACEE}
    .fil0 {fill:#00ACEE;fill-rule:nonzero}
   ]]>
  </style>
 </defs>
 <g id="Layer_x0020_1">
  <metadata id="CorelCorpID_0Corel-Layer"/>
  <g id="_09.cdr">
   <path id="_96394872" class="fil0" d="M2.0148 7.4449c-0.6583,-0.1355 -1.1605,-0.5869 -1.4992,-1.1917 -0.3982,-0.711 -0.5698,-1.6371 -0.5009,-2.5031 0.0903,-1.1345 0.688,-1.8545 1.5067,-2.3499 0.8001,-0.4843 1.8086,-0.7483 2.7533,-0.9788 1.169,-0.2852 2.3995,-0.4189 3.6005,-0.4214 1.2666,-0.0026 2.5009,0.1409 3.596,0.4067 0.4068,0.0987 0.8959,0.2367 1.3881,0.4243 0.4967,0.1892 0.9994,0.4296 1.4305,0.7324 0.6507,0.4571 1.0094,1.0713 1.1588,1.7495 0.1752,0.7955 0.0603,1.677 -0.2081,2.4916 -0.1346,0.4086 -0.3287,0.7496 -0.596,1.0073 -0.247,0.2382 -0.5543,0.4031 -0.9321,0.4821 -0.0309,0.854 -0.2578,1.6445 -0.6261,2.3474 -0.4155,0.7928 -1.0106,1.4739 -1.7072,2.0086 -1.1598,0.8903 -2.389,1.2859 -3.6175,1.257 -1.2955,-0.0304 -2.5859,-0.5336 -3.7889,-1.4264 -0.7137,-0.5297 -1.2174,-1.1195 -1.5359,-1.8022l-0.0005 0c-0.3043,-0.6527 -0.4377,-1.3876 -0.4215,-2.2334z"/>
   <path id="_96395040" class="fil1" d="M2.0158 6.6185c-0.0214,-0.5188 0.3101,-0.6616 0.7056,-0.8534 0.392,-0.19 1.677,-0.7552 1.9927,-0.4509 0.0493,0.0475 0.0771,0.1146 0.0798,0.1879 0.0131,0.3493 -0.3676,0.4478 -0.633,0.4962 -0.3742,0.0681 -1.0519,0.2578 -1.5289,0.5561 0.1007,1.6408 0.3632,2.9775 1.3349,3.7985 -0.201,-0.9426 -0.1572,-1.7202 0.2361,-2.2622 0.7253,-0.9996 2.3389,-0.8653 3.4326,-0.8616 1.8468,0.0063 3.3756,0.2867 3.4225,1.8441 -0.0009,0.6972 -0.1018,1.3144 -0.2308,1.9091 1.323,-1.0102 2.2445,-2.3179 2.056,-4.4477 -0.3971,-0.244 -0.9116,-0.2768 -1.3512,-0.4137 -0.2177,-0.0678 -0.4139,-0.1735 -0.462,-0.3816 -0.0239,-0.1035 0.0043,-0.2047 0.0763,-0.2754 0.1946,-0.191 0.5243,-0.0492 0.7513,0.008 0.6722,0.1692 1.7706,0.4551 1.7199,1.0417 0.6686,-0.394 1.1611,-0.8168 0.3986,-1.3427 -2.3672,-1.5038 -7.9129,-1.7417 -11.7277,-0.4406 -1.6333,0.6295 -1.3815,1.2588 -0.2727,1.8882z"/>
   <ellipse id="_96393600" class="fil2" transform="matrix(0.245378 0.0184874 -0 0.245378 9.89661 5.48423)" rx="1.7583" ry="1.2903"/>
   <path id="_96394848" class="fil1" d="M10.3281 10.0087c0.2483,-1.2837 -0.1945,-2.0326 -1.5097,-2.1063 -1.0531,0.0265 -2.1062,0.0529 -3.1594,0.0794 -0.6237,0.0458 -1.1046,0.316 -1.1907,1.2066 0.0057,0.7989 0.1736,1.4726 0.5572,1.9797 0.7001,0.9256 2.1031,1.1444 3.1891,1.019 1.4552,-0.1681 1.8615,-0.8756 2.1135,-2.1784z"/>
   <circle id="_96393408" class="fil2" cx="6.96245" cy="9.63454" r="1.07935"/>
   <circle id="_96393672" class="fil3" cx="6.96246" cy="9.63456" r="0.407745"/>
   <path id="_96393048" class="fil1" d="M0.9837 4.7723c2.9267,-2.262 11.5844,-1.9342 13.6579,0 0.0719,-0.4665 0.1048,-0.9063 0.0543,-1.2887 -0.1252,-0.9494 -1.016,-1.4233 -1.8099,-1.7853 -2.5895,-1.1808 -7.2159,-1.5366 -10.6592,0.2578 -0.7528,0.3922 -1.4181,0.7254 -1.4147,1.6897 0.0012,0.3335 0.0651,0.714 0.1716,1.1265z"/>
  </g>
 </g>
</svg>
