<?xml version="1.0" encoding="UTF-8"?>
<!DOCTYPE svg PUBLIC "-//W3C//DTD SVG 1.1//EN" "http://www.w3.org/Graphics/SVG/1.1/DTD/svg11.dtd">
<!-- Creator: CorelDRAW -->
<svg xmlns="http://www.w3.org/2000/svg" xml:space="preserve" width="20.915mm" height="8.9683mm" style="shape-rendering:geometricPrecision; text-rendering:geometricPrecision; image-rendering:optimizeQuality; fill-rule:evenodd; clip-rule:evenodd"
viewBox="0 0 20.915 8.9683"
 xmlns:xlink="http://www.w3.org/1999/xlink">
 <defs>
  <style type="text/css">
   <![CDATA[
    .str2 {stroke:#3F4446;stroke-width:0.2429}
    .str1 {stroke:#3F4446;stroke-width:0.2429;stroke-linecap:round;stroke-linejoin:round}
    .str0 {stroke:#C9CCCE;stroke-width:0.2429}
    .str3 {stroke:#C9CCCE;stroke-width:0.2429;stroke-linecap:round;stroke-linejoin:round}
    .fil2 {fill:none}
    .fil5 {fill:#15202A}
    .fil7 {fill:white}
    .fil6 {fill:#3F4446}
    .fil8 {fill:#C9CCCE}
    .fil1 {fill:#D9DBDD}
    .fil3 {fill:#3F4446;fill-rule:nonzero}
    .fil4 {fill:#00ACEE;fill-rule:nonzero}
    .fil0 {fill:#C9CCCE;fill-rule:nonzero}
   ]]>
  </style>
 </defs>
 <g id="Layer_x0020_1">
  <metadata id="CorelCorpID_0Corel-Layer"/>
  <g id="_04.cdr">
   <g>
    <path id="_96024136" class="fil0" d="M20.0941 8.9537l-0.1215 -0.1215 0 -5.9338 0.243 0 0 5.9338 -0.1215 0.1215zm0.1215 -0.1215l0 0.1215 -0.1215 0 0.1215 -0.1215zm-6.2595 0l0.1215 -0.1215 6.0165 0 0 0.243 -6.0165 0 -0.1215 -0.1215zm0.1215 0.1215l-0.1215 0 0 -0.1215 0.1215 0.1215zm-0.1215 -6.0553l0.243 0 0 5.9338 -0.243 0 0 -5.9338z"/>
   </g>
   <polygon class="fil1" points="16.072,0.9409 10.5363,0.9409 10.5363,3.1491 13.7221,3.1491 "/>
   <polygon class="fil2 str0" points="16.072,0.9409 10.5363,0.9409 10.5363,3.1491 13.7221,3.1491 "/>
   <polygon class="fil1" points="0.9266,3.4989 4.0335,0.7183 6.99,3.4564 6.99,2.8418 4.0369,0.1145 0.9266,2.8872 "/>
   <g>
    <path class="fil3" d="M0.9419 8.9537l-0.1215 -0.1215 0 -5.9338 0.243 0 0 5.9338 -0.1215 0.1215zm0 0l-0.1215 0 0 -0.1215 0.1215 0.1215zm6.1379 -0.1215l-0.1215 0.1215 -6.0164 0 0 -0.243 6.0164 0 0.1215 0.1215zm0 0l0 0.1215 -0.1215 0 0.1215 -0.1215zm0 -5.9933l0 5.9933 -0.243 0 0 -5.9933 0.243 0z"/>
   </g>
   <line class="fil2 str0" x1="13.9784" y1="7.6527" x2="10.518" y2= "7.6527" />
   <path class="fil4" d="M7.7429 3.3913c0.049,0.0454 0.052,0.1219 0.0066,0.1709 -0.0453,0.049 -0.1218,0.0519 -0.1708,0.0066l-3.5466 -3.2844 -3.6715 3.2858c-0.0497,0.0446 -0.1262,0.0403 -0.1708,-0.0095 -0.0445,-0.0497 -0.0403,-0.1262 0.0095,-0.1708l3.7535 -3.3592 0.0001 0.0001c0.0458,-0.0412 0.1165,-0.0414 0.1627,0.0013l3.6273 3.3592z"/>
   <polygon class="fil5" points="4.964,0.9409 10.4996,0.9409 10.4996,3.1491 7.3138,3.1491 "/>
   <circle class="fil6" cx="4.04134" cy="3.26258" r="1.14288"/>
   <path class="fil4" d="M4.964 0.8195l5.5356 0 0.1215 0 0 0.1214 0 2.2082 0 0.1215 -0.1215 0 -3.1858 0 -0.0477 0 -0.0353 -0.0332 -2.3499 -2.2082 -0.2232 -0.2097 0.3063 0zm5.4141 0.2429l-5.1079 0 2.0913 1.9652 3.0166 0 0 -1.9652z"/>
   <path class="fil7" d="M4.1997 2.44c0.3869,0.074 0.6793,0.4142 0.6793,0.8226 0,0.4084 -0.2924,0.7486 -0.6793,0.8226l0 -1.6452zm-0.3167 1.6452c-0.3868,-0.074 -0.6793,-0.4142 -0.6793,-0.8226 0,-0.4084 0.2925,-0.7486 0.6793,-0.8226l0 1.6452z"/>
   <rect class="fil6" x="7.80702" y="3.93654" width="1.73963" height="2.71703" rx="1.1143" ry="1.1143"/>
   <path class="fil7" d="M8.1066 4.2245l1.1633 0 0 2.146 -1.1633 0 0 -0.9996 0.8245 0c0.0932,0 0.1694,-0.0762 0.1694,-0.1694l0 0c0,-0.0932 -0.0762,-0.1694 -0.1694,-0.1694l-0.8245 0 0 -0.8076z"/>
   <polyline class="fil2 str1" points="6.9597,8.8322 10.518,8.8322 10.518,0.9094 "/>
   <line class="fil2 str2" x1="7.0575" y1="7.6527" x2="10.518" y2= "7.6527" />
   <path class="fil6" d="M3.4107 5.8691l1.3021 0c0.1813,0 0.3296,0.1482 0.3296,0.3295l0 2.6484 -1.9666 0 0 -2.6431c0,-0.1842 0.1507,-0.3348 0.3349,-0.3348z"/>
   <rect class="fil7" x="3.3985" y="6.17419" width="1.32116" height="2.44704"/>
   <polyline class="fil2 str3" points="13.3751,3.4801 17.0025,0.1208 20.756,3.4801 "/>
   <rect class="fil8" x="11.4893" y="3.93654" width="1.73963" height="2.71703" rx="1.1143" ry="1.1143"/>
   <path class="fil1" d="M12.9293 4.2245l-1.1633 0 0 1.5786 1.1633 0 0 -1.5786zm-1.1633 1.8219l0 0.3241 1.1633 0 0 -0.3241 -1.1633 0z"/>
   <path class="fil8" d="M17.6252 5.8691l-1.3021 0c-0.1813,0 -0.3295,0.1482 -0.3295,0.3295l0 2.6484 1.9665 0 0 -2.6431c0,-0.1842 -0.1507,-0.3348 -0.3349,-0.3348z"/>
   <rect class="fil1" x="16.3163" y="6.17419" width="1.32116" height="2.44704"/>
   <circle class="fil8" cx="16.9946" cy="3.26258" r="1.14288"/>
   <path class="fil1" d="M16.8362 2.44c-0.3869,0.074 -0.6793,0.4142 -0.6793,0.8226 0,0.4084 0.2924,0.7486 0.6793,0.8226l0 -1.6452zm0.3167 1.6452c0.3869,-0.074 0.6793,-0.4142 0.6793,-0.8226 0,-0.4084 -0.2924,-0.7486 -0.6793,-0.8226l0 1.6452z"/>
   <line class="fil2 str1" x1="0.1215" y1="8.847" x2="10.4807" y2= "8.847" />
   <line class="fil2 str3" x1="10.4343" y1="8.847" x2="20.7935" y2= "8.847" />
  </g>
 </g>
</svg>
