<?xml version="1.0" encoding="UTF-8"?>
<!DOCTYPE svg PUBLIC "-//W3C//DTD SVG 1.1//EN" "http://www.w3.org/Graphics/SVG/1.1/DTD/svg11.dtd">
<!-- Creator: CorelDRAW -->
<svg xmlns="http://www.w3.org/2000/svg" xml:space="preserve" width="8.8727mm" height="13.4297mm" style="shape-rendering:geometricPrecision; text-rendering:geometricPrecision; image-rendering:optimizeQuality; fill-rule:evenodd; clip-rule:evenodd"
viewBox="0 0 8.74973 13.2436"
 xmlns:xlink="http://www.w3.org/1999/xlink">
 <defs>
  <style type="text/css">
   <![CDATA[
    .str0 {stroke:#3F4446;stroke-width:0.246042;stroke-linecap:round;stroke-linejoin:round}
    .fil1 {fill:none}
    .fil4 {fill:white}
    .fil3 {fill:#3F4446}
    .fil0 {fill:#EEF0F2}
    .fil2 {fill:#3F4446;fill-rule:nonzero}
   ]]>
  </style>
 </defs>
 <g id="Layer_x0020_1">
  <metadata id="CorelCorpID_0Corel-Layer"/>
  <g id="_15.cdr">
   <polygon id="_309683360" class="fil0" points="5.74328,7.35651 6.55547,7.21717 8.20065,6.70575 7.31637,12.7455 5.10554,13.0402 5.57662,7.36154 "/>
   <line id="_309683288" class="fil1 str0" x1="0.246535" y1="6.6311" x2="0.909912" y2= "11.1294" />
   <path id="_309683216" class="fil1 str0" d="M1.00281 11.6565c0.0323454,0.300871 0.0802718,0.603912 0.12948,0.908926 1.28938,0.874509 6.11673,0.607068 6.22955,-0.0442777 0.300181,-1.96824 0.5265,-3.93648 0.826682,-5.90481"/>
   <path id="_309683144" class="fil1 str0" d="M1.07144 7.68302c0.11173,0.0272175 0.223755,0.0525613 0.335978,0.0762287m0.337457 0.0659728c1.47172,0.26468 2.98298,0.243873 4.51771,0.0530544"/>
   <g>
    <path id="_309683072" class="fil0" d="M4.21388 5.40484c-2.25895,0 -4.09091,0.440903 -4.09091,0.984464 0,0.543659 1.83195,0.984563 4.09091,0.984563 2.25905,0 4.091,-0.440903 4.091,-0.984563 0,-0.543561 -1.83195,-0.984464 -4.091,-0.984464z"/>
    <path id="_3096830721" class="fil2" d="M0.245943 6.3893l-0.245943 0 0 0 0.00818497 -0.075637 0.0229771 -0.0724813 0.0351066 -0.0675506 0.0461514 -0.0620282 0.0557169 -0.0575906 0.0638033 -0.054435 0.0720869 -0.0510821 0.079976 -0.0490112 0.0876679 -0.0464472 0.0956556 -0.0453625 0.102854 -0.0430943 0.110744 -0.0414179 0.117449 -0.0395442 0.124747 -0.0382622 0.131453 -0.0365858 0.138454 -0.0346135 0.14447 -0.0336274 0.150781 -0.0314579 0.1565 -0.0291898 0.162319 -0.0280064 0.16794 -0.0260341 0.173166 -0.023766 0.178393 -0.0220895 0.183028 -0.0197228 0.187268 -0.018145 0.19141 -0.0154824 0.196143 -0.0133129 0.199398 -0.0109462 0.20275 -0.00867804 0.206202 -0.00621268 0.20916 -0.00384595 0.211922 -0.00177505 0 0.245943 -0.208963 0.000788912 -0.206399 0.00384595 -0.203244 0.00621268 -0.199989 0.00867804 -0.196439 0.0109462 -0.192199 0.0133129 -0.188649 0.0154824 -0.18431 0.0171588 -0.17928 0.0197228 -0.174448 0.0213006 -0.169419 0.023766 -0.163995 0.025048 -0.158571 0.0270202 -0.152556 0.0291898 -0.146047 0.0304717 -0.139736 0.0316551 -0.132537 0.0336274 -0.125733 0.0348108 -0.118041 0.03629 -0.110744 0.037572 -0.102066 0.0384595 -0.0941764 0.039347 -0.0852025 0.0396428 -0.0760314 0.0407276 -0.0665645 0.0403331 -0.0567031 0.0404318 -0.0464472 0.0390512 -0.0355997 0.0374733 -0.0258369 0.035008 -0.0169616 0.0310634 -0.00857942 0.0273161 -0.00246535 0.0257383 0 0zm3.96793 0.861591l0 0.245943 0 0 -0.211922 -0.00177505 -0.20916 -0.00384595 -0.206202 -0.00621268 -0.20275 -0.00867804 -0.199398 -0.0109462 -0.196143 -0.0133129 -0.19141 -0.0154824 -0.187268 -0.018145 -0.183028 -0.0197228 -0.178393 -0.0220895 -0.173166 -0.023766 -0.16794 -0.0260341 -0.162319 -0.0280064 -0.1565 -0.0291898 -0.150781 -0.0314579 -0.14447 -0.0336274 -0.138454 -0.0346135 -0.131453 -0.0366844 -0.124747 -0.0381636 -0.117449 -0.0395442 -0.110744 -0.0414179 -0.102854 -0.0430943 -0.0956556 -0.0453625 -0.0876679 -0.0464472 -0.079976 -0.0491098 -0.0720869 -0.0509835 -0.0638033 -0.054435 -0.0557169 -0.0576892 -0.0461514 -0.0620282 -0.0351066 -0.067452 -0.0229771 -0.0725799 -0.00818497 -0.075637 0.245943 0 0.00246535 0.0257383 0.00857942 0.0274147 0.0169616 0.0309648 0.0258369 0.035008 0.0355997 0.037572 0.0464472 0.0390512 0.0567031 0.0403331 0.0665645 0.0404318 0.0760314 0.0407276 0.0852025 0.0396428 0.0941764 0.039347 0.102066 0.0384595 0.110744 0.037572 0.118041 0.0361914 0.125733 0.0349094 0.132537 0.0336274 0.139736 0.0316551 0.146047 0.0304717 0.152556 0.0291898 0.158571 0.0270202 0.163995 0.025048 0.169419 0.023766 0.174448 0.0213006 0.17928 0.0197228 0.18431 0.0171588 0.188649 0.0154824 0.192199 0.0133129 0.196439 0.0109462 0.199989 0.00867804 0.203244 0.00621268 0.206399 0.00384595 0.208963 0.000788912 0 0zm3.96803 -0.861591l0.245943 0 0 0 -0.00818497 0.075637 -0.0229771 0.0725799 -0.0351066 0.067452 -0.0461514 0.0620282 -0.0557169 0.0576892 -0.0638033 0.054435 -0.0720869 0.0509835 -0.079976 0.0491098 -0.0876679 0.0464472 -0.0956556 0.0453625 -0.102854 0.0430943 -0.110744 0.0414179 -0.117449 0.0395442 -0.124747 0.0381636 -0.131453 0.0366844 -0.138454 0.0346135 -0.14447 0.0336274 -0.150781 0.0314579 -0.1565 0.0291898 -0.162319 0.0280064 -0.16794 0.0260341 -0.173166 0.023766 -0.178393 0.0220895 -0.183126 0.0197228 -0.187169 0.018145 -0.191508 0.0154824 -0.196045 0.0133129 -0.199398 0.0109462 -0.202849 0.00867804 -0.206202 0.00621268 -0.209062 0.00384595 -0.21202 0.00177505 0 -0.245943 0.209062 -0.000788912 0.206301 -0.00384595 0.203244 -0.00621268 0.200088 -0.00867804 0.196439 -0.0109462 0.1921 -0.0133129 0.188747 -0.0154824 0.184211 -0.0171588 0.179379 -0.0197228 0.174448 -0.0213006 0.169419 -0.023766 0.163995 -0.025048 0.158571 -0.0270202 0.152556 -0.0291898 0.146047 -0.0304717 0.139736 -0.0316551 0.132537 -0.0336274 0.125733 -0.0349094 0.118041 -0.0361914 0.110744 -0.037572 0.102066 -0.0384595 0.0941764 -0.039347 0.0852025 -0.0396428 0.0760314 -0.0407276 0.0665645 -0.0404318 0.0567031 -0.0403331 0.0464472 -0.0390512 0.0355997 -0.037572 0.0258369 -0.035008 0.0169616 -0.0309648 0.00857942 -0.0274147 0.00246535 -0.0257383 0 0zm-3.96803 -0.861492l0 -0.245943 0 0 0.21202 0.00177505 0.209062 0.00384595 0.206202 0.00621268 0.202849 0.00867804 0.199398 0.0109462 0.196045 0.0133129 0.191508 0.0154824 0.187169 0.018145 0.183126 0.0197228 0.178393 0.0220895 0.173166 0.023766 0.16794 0.0260341 0.162319 0.0280064 0.1565 0.0291898 0.150781 0.0314579 0.14447 0.0336274 0.138454 0.0346135 0.131453 0.0365858 0.124747 0.0382622 0.117449 0.0395442 0.110744 0.0414179 0.102854 0.0430943 0.0956556 0.0453625 0.0876679 0.0464472 0.079976 0.0490112 0.0720869 0.0510821 0.0638033 0.054435 0.0557169 0.0575906 0.0461514 0.0620282 0.0351066 0.0675506 0.0229771 0.0724813 0.00818497 0.075637 -0.245943 0 -0.00246535 -0.0257383 -0.00857942 -0.0273161 -0.0169616 -0.0310634 -0.0258369 -0.035008 -0.0355997 -0.0374733 -0.0464472 -0.0390512 -0.0567031 -0.0404318 -0.0665645 -0.0403331 -0.0760314 -0.0407276 -0.0852025 -0.0396428 -0.0941764 -0.039347 -0.102066 -0.0384595 -0.110744 -0.037572 -0.118041 -0.03629 -0.125733 -0.0348108 -0.132537 -0.0336274 -0.139736 -0.0316551 -0.146047 -0.0304717 -0.152556 -0.0291898 -0.158571 -0.0270202 -0.163995 -0.025048 -0.169419 -0.023766 -0.174448 -0.0213006 -0.179379 -0.0197228 -0.184211 -0.0171588 -0.188747 -0.0154824 -0.1921 -0.0133129 -0.196439 -0.0109462 -0.200088 -0.00867804 -0.203244 -0.00621268 -0.206301 -0.00384595 -0.209062 -0.000788912 0 0z"/>
   </g>
   <path class="fil3" d="M3.51776 7.25819l0 -2.72333c0,-0.428675 -0.35077,-0.779445 -0.779445,-0.779445l-0.664264 0c-0.389723,0 -0.708542,0.318918 -0.708542,0.708641l0 2.5049c0.713374,0.162417 1.43079,0.249 2.15225,0.289235z"/>
   <path class="fil4" d="M2.405 3.95916l0.138454 0c0.375128,0 0.682015,0.275035 0.682015,0.61121l0 2.6682c-0.512793,-0.0405304 -1.02352,-0.0967404 -1.53227,-0.1992l0 -1.92475c0.0654797,0.0368817 0.141018,0.0579851 0.221389,0.0579851 0.249494,0 0.451751,-0.202257 0.451751,-0.451751 0,-0.249395 -0.202257,-0.451652 -0.451751,-0.451652 -0.0459541,0 -0.0904291,0.00690298 -0.132241,0.0196242 0.121788,-0.196143 0.355602,-0.329667 0.622649,-0.329667z"/>
   <path class="fil4" d="M1.86154 4.54374c0.11242,0 0.203638,0.091218 0.203638,0.203737 0,0.112519 -0.091218,0.203737 -0.203638,0.203737 -0.112519,0 -0.203737,-0.091218 -0.203737,-0.203737 0,-0.112519 0.091218,-0.203737 0.203737,-0.203737z"/>
   <path class="fil3" d="M4.95368 4.50104l-0.51802 2.7748c0.332033,-0.00581823 0.664856,-0.0247521 0.998467,-0.0569989l0.608744 -3.07133 -1.08919 0.353531z"/>
   <polygon class="fil4" points="5.30711,4.58703 4.76257,7.2433 5.16383,7.22417 5.62248,4.5393 "/>
   <path class="fil3" d="M6.01191 7.14981l1.12972 -3.18375 1.15615 -0.372662 -1.17656 3.36609c-0.368028,0.0892457 -0.735365,0.145653 -1.10931,0.190325z"/>
   <path class="fil4" d="M6.36554 7.10514l1.0532 -2.9671 0.391695 0.0285981 -1.03525 2.86858c-0.135792,0.0274147 -0.274246,0.0468417 -0.409643,0.0699174z"/>
   <rect class="fil3" x="1.91464" y="0.478316" width="0.947722" height="3.30374"/>
   <rect class="fil4" x="2.1715" y="1.42601" width="0.398575" height="2.18773"/>
   <path class="fil3" d="M1.48059 -3.12684e-016l0.823723 0c0.306986,0 0.558057,0.206596 0.558057,0.513385l0 0.390019c0,0.37996 -0.31093,0.69089 -0.69089,0.69089l-0.69089 0c-0.444749,-0.353827 -0.441791,-1.27025 0,-1.59429z"/>
   <path class="fil4" d="M1.56037 1.22232c0.0564072,0 0.112814,0 0.169222,0 -0.0982196,-0.42266 0.0512793,-0.616634 0.181253,-0.581133 0.157289,0.0428971 0.149203,0.28036 0.135594,0.404416 -0.0100586,0.0927958 -0.0343177,0.180957 -0.0698187,0.265272 0.610914,-0.0200187 0.718798,-0.809819 0.25689,-0.974307 -0.183324,0 -0.366548,0 -0.549773,0 -0.164685,0.0632116 -0.156402,0.451356 -0.123366,0.885751z"/>
   <path class="fil3" d="M6.04405 4.07927l0.25403 -1.51363c0.0637047,-0.379763 -0.19496,-0.742564 -0.574723,-0.806268l-0.894331 -0.150091c-0.0733688,-0.0123268 -0.143483,0.0376706 -0.155712,0.110941l-0.438931 2.61633c-0.014299,0.0852025 0.043686,0.166658 0.128987,0.180957l0.862774 0.144765c0.385285,0.0645922 0.753313,-0.197721 0.817905,-0.583006z"/>
   <path class="fil4" d="M5.76557 3.86508l0.187663 -1.22548c0.0471375,-0.307479 -0.0675506,-0.60125 -0.348206,-0.652825l-0.66101 -0.121493c-0.0541391,-0.0098614 -0.106207,0.0304717 -0.114984,0.089936l-0.0369803 0.24831c0.0144963,-0.00216951 0.0294856,-0.00246535 0.0446722,-0.000690298l0.408361 0.048025c0.101671,0.0119323 0.175927,0.112913 0.16508,0.224248l0 9.8614e-005c-0.0109462,0.111434 -0.103052,0.19279 -0.204723,0.180858l-0.408361 -0.048025c-0.0222868,-0.00266258 -0.043193,-0.00946695 -0.0622255,-0.0198214l-0.0481237 0.323553c0.0231743,-0.0076919 0.048025,-0.0106503 0.0735661,-0.00759328l0.408262 0.0479264c0.10177,0.0120309 0.176026,0.112913 0.165179,0.224347l0 0c-0.0109462,0.111434 -0.103052,0.19279 -0.204723,0.180858l-0.408361 -0.0479264c-0.0327399,-0.00384595 -0.0625213,-0.0169616 -0.0876679,-0.0365858l-0.0468417 0.315269c0.0190325,-0.00453625 0.0390512,-0.00591684 0.0594643,-0.00355011l0.408361 0.048025c0.101671,0.0119323 0.176026,0.112814 0.16508,0.224248l0 0c-0.0109462,0.111434 -0.103052,0.192889 -0.204723,0.180858l-0.408361 -0.0479264c-0.0275133,-0.00325426 -0.0530544,-0.0130171 -0.0754397,-0.0278092l-0.0259355 0.174251c-0.0102559,0.0690298 0.0323454,0.134904 0.0953598,0.14654l0.637638 0.117153c0.284699,0.0522654 0.48025,-0.222868 0.52798,-0.534784z"/>
   <path class="fil3" d="M8.26149 3.69566l0.456682 -1.46531c0.114491,-0.367633 -0.0925,-0.762188 -0.460133,-0.876679l-0.865831 -0.269808c-0.0710021,-0.0221882 -0.147231,0.0178491 -0.16932,0.0888513l-0.789208 2.5327c-0.0257383,0.08254 0.0207089,0.171095 0.103249,0.196834l0.835261 0.260242c0.372958,0.116167 0.773134,-0.0938806 0.889301,-0.466839z"/>
   <path class="fil4" d="M8.0188 3.4653l0.337457 -1.18731c0.0846108,-0.297913 0.00739605,-0.606279 -0.264286,-0.699075l-0.639907 -0.218627c-0.0524627,-0.0178491 -0.109067,0.0144963 -0.125141,0.0719883l-0.0672548 0.240914c0.0145949,0 0.0294856,0.00187367 0.0443763,0.00591684l0.398598 0.10818c0.0993043,0.0270202 0.160445,0.13806 0.135792,0.24693l0 9.8614e-005c-0.0245549,0.10887 -0.12593,0.175829 -0.225136,0.148907l-0.398697 -0.108278c-0.0216951,-0.00581823 -0.0416151,-0.0157782 -0.0591684,-0.0288939l-0.0876679 0.31379c0.0238646,-0.0042404 0.0489126,-0.00345149 0.0738619,0.00335288l0.398598 0.10818c0.0992057,0.0270202 0.160346,0.13806 0.135792,0.24693l0 9.8614e-005c-0.0245549,0.10887 -0.12593,0.175829 -0.225234,0.148907l-0.398598 -0.108278c-0.031951,-0.00857942 -0.0598587,-0.0260341 -0.0823427,-0.0492084l-0.0853998 0.305704c0.019427,-0.00177505 0.0394456,-9.8614e-005 0.0594643,0.00532516l0.398598 0.10818c0.0993043,0.0269216 0.160445,0.13806 0.135792,0.24693l0 0c-0.0245549,0.10887 -0.12593,0.175927 -0.225234,0.149006l-0.398598 -0.108278c-0.0269216,-0.00729744 -0.0509835,-0.0208076 -0.071298,-0.0386567l-0.0472361 0.168827c-0.0186381,0.0669589 0.0153838,0.138651 0.0763273,0.159459l0.617225 0.210935c0.275626,0.0940778 0.503425,-0.149696 0.589318,-0.451948z"/>
  </g>
 </g>
</svg>
