<?xml version="1.0" encoding="UTF-8"?>
<!DOCTYPE svg PUBLIC "-//W3C//DTD SVG 1.1//EN" "http://www.w3.org/Graphics/SVG/1.1/DTD/svg11.dtd">
<!-- Creator: CorelDRAW -->
<svg xmlns="http://www.w3.org/2000/svg" xml:space="preserve" width="10.8104mm" height="14.2083mm" style="shape-rendering:geometricPrecision; text-rendering:geometricPrecision; image-rendering:optimizeQuality; fill-rule:evenodd; clip-rule:evenodd"
viewBox="0 0 10.8104 14.2083"
 xmlns:xlink="http://www.w3.org/1999/xlink">
 <defs>
  <style type="text/css">
   <![CDATA[
    .str0 {stroke:#3F4446;stroke-width:0.2571;stroke-linecap:round;stroke-linejoin:round}
    .fil1 {fill:none}
    .fil2 {fill:white}
    .fil3 {fill:#3F4446}
    .fil0 {fill:#EEF0F2}
   ]]>
  </style>
 </defs>
 <g id="Layer_x0020_1">
  <metadata id="CorelCorpID_0Corel-Layer"/>
  <g id="_24.cdr">
   <polygon id="_312053960" class="fil0" points="6.0621,8.0355 5.7373,14.0733 7.231,13.8191 8.0134,13.5047 8.3936,11.0332 8.7446,8.8835 8.9274,7.582 8.9932,7.2895 7.7355,7.7941 "/>
   <path id="_312053888" class="fil1 str0" d="M0.6844 7.2534c0.2351,1.6126 0.4099,3.1447 0.6149,4.717m0.0851 0.6412c0.0425,0.3138 0.0867,0.6299 0.1332,0.949 2.1488,0.6923 4.3213,0.6923 6.5178,0 0.3135,-2.1165 0.6284,-4.1377 0.9419,-6.2543"/>
   <path id="_312053816" class="fil1 str0" d="M1.4737 8.3684c0.1033,0.0216 0.2471,0.0505 0.3522,0.0697m0.3703 0.0593c1.4421,0.2151 3.0402,0.2144 4.7407,0.0717"/>
   <ellipse id="_312053744" class="fil2 str0" cx="4.8379" cy="7.00142" rx="4.30147" ry="1.05057"/>
   <path id="_312053672" class="fil3" d="M5.7385 7.9201l0 -2.821c0,-0.448 -0.3665,-0.8144 -0.8144,-0.8144l-0.6942 0c-0.4072,0 -0.7393,0.3332 -0.7404,0.7404l-0.0082 2.8654c0.7285,0.0641 1.5123,0.0719 2.2572,0.0296z"/>
   <path id="_312053600" class="fil2" d="M4.5757 4.4975l0.1447 0c0.392,0 0.7137,0.2874 0.7127,0.6386l-0.0082 2.7987c-0.5431,0.0204 -1.0993,0.0143 -1.6339,-0.0206l0.041 -2.2093c0.0683,0.0386 0.1472,0.0606 0.2313,0.0606 0.2607,0 0.472,-0.2114 0.472,-0.472 0,-0.2607 -0.2113,-0.472 -0.472,-0.472 -0.0481,0 -0.0945,0.0072 -0.1382,0.0205 0.1272,-0.2049 0.3716,-0.3445 0.6506,-0.3445z"/>
   <path id="_312053528" class="fil2" d="M4.0078 5.1084c0.1175,0 0.2129,0.0953 0.2129,0.2128 0,0.1176 -0.0954,0.2129 -0.2129,0.2129 -0.1176,0 -0.2129,-0.0953 -0.2129,-0.2129 0,-0.1175 0.0953,-0.2128 0.2129,-0.2128z"/>
   <polygon id="_312053456" class="fil3" points="4.0633,4.3124 5.0536,4.3124 5.0536,0.8602 4.0633,0.8602 "/>
   <polygon id="_312053384" class="fil2" points="4.3317,1.8505 4.7482,1.8505 4.7482,4.1366 4.3317,4.1366 "/>
   <path id="_312053312" class="fil3" d="M3.6098 0.3604l0.8608 0c0.3207,0 0.583,0.2158 0.583,0.5365l0 0.4075c0,0.397 -0.3249,0.7219 -0.7219,0.7219l-0.7219 0c-0.4648,-0.3697 -0.4616,-1.3273 0,-1.6659z"/>
   <path id="_312053240" class="fil2" d="M3.6931 1.6376c0.0589,0 0.1179,0 0.1768,0 -0.1025,-0.4417 0.0536,-0.6443 0.1895,-0.6072 0.1643,0.0449 0.1558,0.2929 0.1417,0.4226 -0.0106,0.097 -0.0359,0.189 -0.073,0.2772 0.6383,-0.021 0.7511,-0.8462 0.2684,-1.0181 -0.1915,0 -0.383,0 -0.5745,0 -0.172,0.0661 -0.1633,0.4716 -0.1289,0.9255z"/>
   <path id="_312053168" class="fil3" d="M6.646 4.792l-0.5728 3.1055 0.017 -0.0013 0.0171 -0.0014c0.0396,-0.0032 0.0791,-0.0065 0.1185,-0.01l0.0169 -0.0015 0.0168 -0.0016c0.0392,-0.0035 0.0782,-0.0073 0.1171,-0.0111l0.0166 -0.0017 0.0167 -0.0017 0.0165 -0.0016c0.0332,-0.0034 0.0662,-0.007 0.0991,-0.0106l0.0164 -0.0018 0.0163 -0.0018 0.0164 -0.0019c0.0381,-0.0043 0.076,-0.0088 0.1137,-0.0134l0.0161 -0.002 0.0161 -0.002 0.0161 -0.002c0.0316,-0.004 0.063,-0.0081 0.0942,-0.0123l0.0515 -0.0071c0.0291,-0.004 0.058,-0.0081 0.0867,-0.0123 0.0237,-0.0035 0.0473,-0.007 0.0708,-0.0106 0.0244,-0.0037 0.0487,-0.0075 0.0729,-0.0114l0.6715 -3.3538 -1.1382 0.3694z"/>
   <path id="_312053096" class="fil2" d="M7.0154 4.8819l-0.6173 2.9865 0.0068 -0.0006 0.0067 -0.0007 0.0067 -0.0007 0.0067 -0.0007c0.0336,-0.0034 0.067,-0.007 0.1002,-0.0107l0.0067 -0.0007 0.0066 -0.0007 0.0067 -0.0008 0.0066 -0.0007 0.0066 -0.0007 0.0133 -0.0015 0.0066 -0.0008 0.0066 -0.0007 0.0001 -0.0001c0.0264,-0.003 0.0527,-0.0061 0.0789,-0.0092l0.0065 -0.0008 0.0066 -0.0008 0.0065 -0.0008 0.0065 -0.0008 0.0522 -0.0065 0.0065 -0.0008 0.0707 -0.0093 0.0003 0 0.5252 -2.9873 -0.3295 0.0499z"/>
   <path id="_312053024" class="fil3" d="M7.7855 4.3513l0.2653 -1.5817c0.0666,-0.3968 -0.2036,-0.776 -0.6004,-0.8426l-0.9346 -0.1568c-0.0767,-0.0128 -0.1499,0.0394 -0.1627,0.116l-0.4587 2.7339c-0.0149,0.0891 0.0457,0.1742 0.1348,0.1891l0.9015 0.1513c0.4026,0.0675 0.7872,-0.2066 0.8548,-0.6092z"/>
   <path id="_312052952" class="fil2" d="M7.4945 4.1274l0.1961 -1.2805c0.0492,-0.3213 -0.0707,-0.6283 -0.3639,-0.6821l-0.6907 -0.127c-0.0566,-0.0104 -0.111,0.0318 -0.1203,0.0939l-0.0386 0.2595c0.0152,-0.0022 0.0309,-0.0025 0.0468,-0.0007l0.4266 0.0502c0.1063,0.0125 0.1839,0.1179 0.1725,0.2343l0 0c-0.0114,0.1165 -0.1077,0.2015 -0.2139,0.189l-0.4267 -0.0501c-0.0233,-0.0027 -0.0451,-0.0099 -0.065,-0.0207l-0.0503 0.3381c0.0242,-0.0081 0.0502,-0.0111 0.0769,-0.0079l0.4266 0.0501c0.1063,0.0125 0.1839,0.1179 0.1726,0.2344l0 0c-0.0114,0.1164 -0.1077,0.2015 -0.214,0.189l-0.4267 -0.0502c-0.0341,-0.004 -0.0653,-0.0176 -0.0915,-0.0381l-0.049 0.3294c0.0199,-0.0048 0.0408,-0.0062 0.0622,-0.0037l0.4266 0.0501c0.1063,0.0125 0.1839,0.118 0.1725,0.2344l0 0c-0.0114,0.1165 -0.1076,0.2015 -0.2139,0.189l-0.4267 -0.0501c-0.0288,-0.0034 -0.0555,-0.0137 -0.0788,-0.029l-0.0271 0.182c-0.0107,0.0721 0.0338,0.141 0.0996,0.1531l0.6663 0.1225c0.2975,0.0546 0.5019,-0.2329 0.5518,-0.5589z"/>
   <path id="_312052880" class="fil3" d="M7.847 7.6286l1.283 -3.5933 1.2081 -0.3894 -1.3492 3.4628c-0.1954,0.2096 -0.6045,0.3848 -1.1419,0.5199z"/>
   <path id="_312052808" class="fil2" d="M8.1765 7.5353l1.243 -3.3203 0.4094 0.0299 -1.1818 3.1032c-0.1334,0.0676 -0.2915,0.1302 -0.4706,0.1872z"/>
   <path id="_312052736" class="fil3" d="M10.3002 3.7528l0.4772 -1.5312c0.1197,-0.3842 -0.0967,-0.7964 -0.4809,-0.9161l-0.9047 -0.282c-0.0742,-0.0231 -0.1538,0.0187 -0.1769,0.0929l-0.8247 2.6466c-0.0269,0.0862 0.0217,0.1787 0.1079,0.2056l0.8728 0.272c0.3897,0.1214 0.8079,-0.0981 0.9293,-0.4878z"/>
   <path id="_312052664" class="fil2" d="M10.0466 3.5121l0.3526 -1.2408c0.0885,-0.3112 0.0077,-0.6334 -0.2762,-0.7304l-0.6686 -0.2285c-0.0548,-0.0187 -0.114,0.0151 -0.1308,0.0753l-0.0703 0.2516c0.0153,0 0.0309,0.0021 0.0464,0.0063l0.4165 0.113c0.1037,0.0282 0.1676,0.1443 0.1419,0.2581l0 0c-0.0256,0.1138 -0.1316,0.1838 -0.2353,0.1556l-0.4166 -0.1131c-0.0226,-0.0061 -0.0434,-0.0165 -0.0618,-0.0302l-0.0916 0.3279c0.0249,-0.0045 0.0511,-0.0036 0.0771,0.0035l0.4166 0.113c0.1037,0.0282 0.1676,0.1443 0.1419,0.2581l0 0c-0.0257,0.1138 -0.1316,0.1838 -0.2353,0.1556l-0.4166 -0.113c-0.0333,-0.0091 -0.0626,-0.0272 -0.086,-0.0514l-0.0893 0.3194c0.0204,-0.0019 0.0413,-0.0002 0.0621,0.0055l0.4166 0.113c0.1037,0.0282 0.1676,0.1443 0.1419,0.2581l0 0c-0.0257,0.1138 -0.1316,0.1838 -0.2353,0.1557l-0.4166 -0.1131c-0.0281,-0.0076 -0.0533,-0.0218 -0.0745,-0.0405l-0.0493 0.1765c-0.0196,0.0699 0.016,0.1448 0.0797,0.1666l0.645 0.2204c0.288,0.0983 0.5261,-0.1564 0.6158,-0.4722z"/>
   <path id="_312052592" class="fil3" d="M0.4088 7.0008l-0.3501 -1.9659c-0.0785,-0.4411 0.2205,-0.8655 0.6618,-0.9428l0.6837 -0.1197c0.4011,-0.0702 0.7869,0.2005 0.8571,0.6016l0.5663 3.236c-1.1133,-0.0851 -2.0194,-0.3752 -2.4188,-0.8092z"/>
   <path id="_312052520" class="fil2" d="M1.1003 4.2417l-0.1424 0.025c-0.3861,0.0676 -0.6516,0.4059 -0.592,0.752l0.3791 2.1993c0.4088,0.2852 1.0386,0.4747 1.7469,0.5604l-0.4507 -2.4757c-0.0607,0.0498 -0.1346,0.0851 -0.2174,0.0996 -0.2568,0.045 -0.5014,-0.1268 -0.5464,-0.3835 -0.045,-0.2568 0.1268,-0.5014 0.3835,-0.5464 0.0474,-0.0083 0.0943,-0.0092 0.1397,-0.0036 -0.1606,-0.1799 -0.4254,-0.2752 -0.7003,-0.2271z"/>
   <path id="_312051344" class="fil2" d="M1.7651 4.7455c-0.1158,0.0202 -0.1932,0.1306 -0.173,0.2463 0.0203,0.1158 0.1307,0.1933 0.2464,0.173 0.1158,-0.0203 0.1933,-0.1306 0.173,-0.2464 -0.0203,-0.1158 -0.1306,-0.1932 -0.2464,-0.1729z"/>
   <rect id="_312051200" class="fil3" transform="matrix(-0.239281 0.0419047 0.0419047 0.239281 0.97759 0.570537)" width="4.0767" height="14.2113"/>
   <rect id="_312051152" class="fil2" transform="matrix(-0.239281 0.0419047 0.0419047 0.239281 0.884037 1.59229)" width="1.7145" height="9.4107"/>
   <path id="_312051008" class="fil3" d="M1.3381 -3.03577e-018l-0.8479 0.1485c-0.3159,0.0553 -0.5371,0.3132 -0.4818,0.629l0.0703 0.4014c0.0685,0.3911 0.4446,0.6551 0.8357,0.5866l0.7111 -0.1245c0.394,-0.4444 0.2257,-1.3871 -0.2874,-1.641z"/>
   <path id="_312051944" class="fil2" d="M1.4764 1.2724c-0.0581,0.0102 -0.1161,0.0204 -0.1742,0.0305 0.0248,-0.4527 -0.1639,-0.6253 -0.2913,-0.5654 -0.1542,0.0725 -0.1031,0.3154 -0.0668,0.4407 0.0272,0.0937 0.068,0.18 0.1197,0.2604 -0.6323,0.0895 -0.8858,-0.7039 -0.44,-0.9565 0.1887,-0.033 0.3773,-0.066 0.5659,-0.0991 0.1809,0.0354 0.2423,0.4364 0.2867,0.8894z"/>
  </g>
 </g>
</svg>
