<?xml version="1.0" encoding="UTF-8"?>
<!DOCTYPE svg PUBLIC "-//W3C//DTD SVG 1.1//EN" "http://www.w3.org/Graphics/SVG/1.1/DTD/svg11.dtd">
<!-- Creator: CorelDRAW -->
<svg xmlns="http://www.w3.org/2000/svg" xml:space="preserve" width="6.321mm" height="12.7556mm" style="shape-rendering:geometricPrecision; text-rendering:geometricPrecision; image-rendering:optimizeQuality; fill-rule:evenodd; clip-rule:evenodd"
viewBox="0 0 6.321 12.7556"
 xmlns:xlink="http://www.w3.org/1999/xlink">
 <defs>
  <style type="text/css">
   <![CDATA[
    .str0 {stroke:#3F4446;stroke-width:0.2401;stroke-linecap:round;stroke-linejoin:round}
    .fil0 {fill:none}
    .fil4 {fill:#15202A}
    .fil2 {fill:white}
    .fil5 {fill:#3F4446}
    .fil3 {fill:#00ACEE}
    .fil1 {fill:#3F4446;fill-rule:nonzero}
   ]]>
  </style>
 </defs>
 <g id="Layer_x0020_1">
  <metadata id="CorelCorpID_0Corel-Layer"/>
  <g id="_21.cdr">
   <path id="_312591688" class="fil0 str0" d="M5.9733 6.9294c-0.0817,0.7297 -0.1634,1.3755 -0.2452,2.1051m-0.0513 0.4576c-0.1013,0.9041 -0.2025,1.8082 -0.3039,2.7123 -1.0315,0.5386 -3.2454,0.6122 -4.4804,0 -0.1816,-1.7418 -0.3632,-3.4836 -0.5448,-5.2253"/>
   <g>
    <path id="_312591616" class="fil1" d="M0.2396 6.6066l-0.2396 0 0 0 0.0063 -0.0634 0.0178 -0.061 0.0278 -0.0571 0.0356 -0.0523 0.0428 -0.0487 0.0495 -0.0457 0.0552 -0.0426 0.0611 -0.0404 0.067 -0.0389 0.0722 -0.0366 0.0775 -0.0356 0.0834 -0.0337 0.0884 -0.0326 0.0936 -0.0314 0.0988 -0.0298 0.1036 -0.028 0.1079 -0.0274 0.1131 -0.0253 0.1168 -0.0241 0.1215 -0.0227 0.1253 -0.0207 0.1296 -0.0196 0.133 -0.018 0.1361 -0.0159 0.14 -0.0143 0.1431 -0.013 0.1457 -0.0107 0.149 -0.0088 0.1511 -0.007 0.154 -0.0051 0.1558 -0.0031 0.1579 -0.0015 0 0.2402 -0.1551 0.0005 -0.153 0.0031 -0.1502 0.0051 -0.1483 0.007 -0.1452 0.0088 -0.1429 0.0107 -0.1395 0.012 -0.1362 0.0143 -0.1333 0.0159 -0.1292 0.0172 -0.125 0.0186 -0.1215 0.0207 -0.1169 0.0217 -0.113 0.0231 -0.1075 0.0245 -0.1033 0.0254 -0.0978 0.0272 -0.0924 0.0278 -0.087 0.0286 -0.081 0.0298 -0.0748 0.0309 -0.0691 0.031 -0.062 0.0318 -0.0548 0.0315 -0.0479 0.0318 -0.0404 0.0314 -0.0325 0.0297 -0.025 0.0281 -0.018 0.0261 -0.0108 0.0223 -0.0056 0.0198 -0.0017 0.0184 0 0zm2.9209 0.6748l0 0.2402 0 0 -0.1579 -0.0015 -0.1558 -0.0031 -0.154 -0.0051 -0.1511 -0.0069 -0.149 -0.0089 -0.1457 -0.0107 -0.1431 -0.013 -0.14 -0.0143 -0.1361 -0.0159 -0.133 -0.0179 -0.1296 -0.0197 -0.1253 -0.0207 -0.1211 -0.0226 -0.1172 -0.0241 -0.1131 -0.0254 -0.1079 -0.0273 -0.1036 -0.028 -0.0988 -0.0299 -0.0936 -0.0314 -0.0884 -0.0326 -0.0829 -0.0336 -0.078 -0.0356 -0.0722 -0.0367 -0.067 -0.0389 -0.0611 -0.0404 -0.0552 -0.0425 -0.0495 -0.0457 -0.0428 -0.0488 -0.0356 -0.0522 -0.0278 -0.0572 -0.0178 -0.061 -0.0063 -0.0634 0.2396 0 0.0017 0.0184 0.0056 0.0198 0.0108 0.0224 0.018 0.026 0.025 0.0282 0.0325 0.0297 0.0404 0.0313 0.0479 0.0318 0.0548 0.0315 0.062 0.0319 0.0686 0.031 0.0753 0.0308 0.081 0.0298 0.087 0.0286 0.0924 0.0279 0.0978 0.0272 0.1033 0.0253 0.1075 0.0246 0.1126 0.0231 0.1173 0.0216 0.1215 0.0207 0.125 0.0187 0.1292 0.0171 0.1333 0.0159 0.1362 0.0143 0.1395 0.012 0.1429 0.0107 0.1452 0.0089 0.1483 0.0069 0.1502 0.0051 0.153 0.0031 0.1551 0.0005 0 0zm2.9209 -0.6748l0.2396 0 0 0 -0.0063 0.0634 -0.0178 0.061 -0.0278 0.0572 -0.0356 0.0522 -0.0428 0.0488 -0.0495 0.0457 -0.0552 0.0425 -0.0611 0.0404 -0.067 0.0389 -0.0722 0.0367 -0.078 0.0356 -0.0829 0.0336 -0.0884 0.0326 -0.0936 0.0314 -0.0988 0.0299 -0.1036 0.028 -0.1079 0.0273 -0.1131 0.0254 -0.1172 0.0241 -0.1211 0.0226 -0.1253 0.0207 -0.1296 0.0197 -0.133 0.0179 -0.1361 0.0159 -0.14 0.0143 -0.1431 0.013 -0.1457 0.0107 -0.149 0.0089 -0.1511 0.0069 -0.154 0.0051 -0.1558 0.0031 -0.1579 0.0015 0 -0.2402 0.1551 -0.0005 0.153 -0.0031 0.1502 -0.0051 0.1483 -0.0069 0.1452 -0.0089 0.1429 -0.0107 0.1395 -0.012 0.1362 -0.0143 0.1333 -0.0159 0.1292 -0.0171 0.125 -0.0187 0.1215 -0.0207 0.1173 -0.0216 0.1126 -0.0231 0.1075 -0.0246 0.1033 -0.0253 0.0978 -0.0272 0.0924 -0.0279 0.087 -0.0286 0.081 -0.0298 0.0753 -0.0308 0.0686 -0.031 0.062 -0.0319 0.0548 -0.0315 0.0479 -0.0318 0.0404 -0.0313 0.0325 -0.0297 0.025 -0.0282 0.018 -0.026 0.0108 -0.0224 0.0056 -0.0198 0.0017 -0.0184 0 0zm-2.9209 -0.6748l0 -0.2402 0 0 0.1579 0.0015 0.1558 0.0031 0.154 0.0051 0.1511 0.007 0.149 0.0088 0.1457 0.0107 0.1431 0.013 0.14 0.0143 0.1361 0.0159 0.133 0.018 0.1296 0.0196 0.1253 0.0207 0.1215 0.0227 0.1168 0.0241 0.1131 0.0253 0.1079 0.0274 0.1036 0.028 0.0988 0.0298 0.0936 0.0314 0.0884 0.0326 0.0834 0.0337 0.0775 0.0356 0.0722 0.0366 0.067 0.0389 0.0611 0.0404 0.0552 0.0426 0.0495 0.0457 0.0428 0.0487 0.0356 0.0523 0.0278 0.0571 0.0178 0.061 0.0063 0.0634 -0.2396 0 -0.0017 -0.0184 -0.0056 -0.0198 -0.0108 -0.0223 -0.018 -0.0261 -0.025 -0.0281 -0.0325 -0.0297 -0.0404 -0.0314 -0.0479 -0.0318 -0.0548 -0.0315 -0.062 -0.0318 -0.0691 -0.031 -0.0748 -0.0309 -0.081 -0.0298 -0.087 -0.0286 -0.0924 -0.0278 -0.0978 -0.0272 -0.1033 -0.0254 -0.1075 -0.0245 -0.113 -0.0231 -0.1169 -0.0217 -0.1215 -0.0207 -0.125 -0.0186 -0.1292 -0.0172 -0.1333 -0.0159 -0.1362 -0.0143 -0.1395 -0.012 -0.1429 -0.0107 -0.1452 -0.0088 -0.1483 -0.007 -0.1502 -0.0051 -0.153 -0.0031 -0.1551 -0.0005 0 0z"/>
   </g>
   <ellipse class="fil2" cx="3.1605" cy="6.60661" rx="2.74054" ry="0.600189"/>
   <path class="fil0 str0" d="M3.2046 7.9726c-0.135,0.0123 -0.2687,0.0203 -0.4009,0.0242m-0.2874 0.0021c-0.5542,-0.0087 -1.0841,-0.0911 -1.591,-0.2424"/>
   <path class="fil3" d="M2.9267 7.2804l0 -2.8543c0,-0.4184 -0.3424,-0.7608 -0.7608,-0.7608l-0.6483 0c-0.3803,0 -0.6916,0.3113 -0.6916,0.6916l0 2.6347c0.4915,0.171 1.3842,0.2839 2.1007,0.2888z"/>
   <path class="fil4" d="M1.8406 3.8642l0.1351 0c0.3661,0 0.6657,0.2684 0.6657,0.5964l0 2.8148c-0.519,-0.0199 -1.0209,-0.0765 -1.4955,-0.192l0 -2.0915c0.0639,0.036 0.1376,0.0566 0.2161,0.0566 0.2434,0 0.4409,-0.1974 0.4409,-0.4409 0,-0.2435 -0.1975,-0.4409 -0.4409,-0.4409 -0.0449,0 -0.0883,0.0068 -0.1291,0.0192 0.1188,-0.1914 0.3471,-0.3217 0.6077,-0.3217z"/>
   <path class="fil4" d="M1.3101 4.4347c0.1098,0 0.1988,0.089 0.1988,0.1988 0,0.1098 -0.089,0.1989 -0.1988,0.1989 -0.1098,0 -0.1988,-0.0891 -0.1988,-0.1989 0,-0.1098 0.089,-0.1988 0.1988,-0.1988z"/>
   <rect class="fil3" x="1.36198" y="0.466834" width="0.924979" height="3.22446"/>
   <rect class="fil4" x="1.61267" y="1.39179" width="0.38901" height="2.13523"/>
   <path class="fil5" d="M0.9384 1.70003e-016l0.8039 0c0.2996,0 0.5447,0.2016 0.5447,0.5011l0 0.3807c0,0.3708 -0.3035,0.6742 -0.6743,0.6742l-0.6743 0c-0.4341,-0.3453 -0.4312,-1.2397 0,-1.556z"/>
   <path class="fil2" d="M1.0162 1.193c0.055,0 0.1101,0 0.1651,0 -0.0957,-0.4126 0.0501,-0.6018 0.177,-0.5672 0.1535,0.0419 0.1456,0.2736 0.1324,0.3947 -0.0099,0.0906 -0.0336,0.1766 -0.0682,0.2589 0.5962,-0.0195 0.7016,-0.7904 0.2507,-0.9509 -0.1789,0 -0.3578,0 -0.5366,0 -0.1607,0.0617 -0.1526,0.4405 -0.1204,0.8645z"/>
   <path class="fil3" d="M5.3104 7.0499l0.3283 -1.9839c0.0684,-0.4129 -0.2135,-0.8065 -0.6262,-0.8748l-0.6397 -0.1059c-0.3752,-0.0621 -0.7347,0.1939 -0.7952,0.5694l-0.4242 2.6307 0.0031 0.001c0.0234,0.0009 0.0469,0.0017 0.0703,0.0024l0.0351 0.001 0.0031 0.0001 0.0319 0.0007 0.0018 0.0001 0.0317 0.0006 0.0021 0 0.0327 0.0005 0.0031 0.0001 0.0325 0.0003 0.0032 0c0.0225,0.0002 0.0449,0.0002 0.0673,0.0002l0.0348 -0.0001 0.0314 -0.0002 0.005 -0.0001 0.0296 -0.0004 0.0049 0 0.0326 -0.0006 0.0011 0 0.0337 -0.0007 0.0009 -0.0001 0.0338 -0.0008 0.0344 -0.0011 0.0329 -0.0012 0.0019 0 0.0298 -0.0012 0.0057 -0.0003c0.022,-0.0009 0.044,-0.0019 0.066,-0.0031l0.0042 -0.0002 0.031 -0.0017 0.0001 0 0.0316 -0.0018 0.0026 -0.0002 0.0341 -0.0022c0.0203,-0.0013 0.0406,-0.0027 0.0609,-0.0042l0.0118 -0.0009 0.0292 -0.0023 0.0003 0 0.0328 -0.0027 0.0041 -0.0004 0.0308 -0.0027 0.0334 -0.003 0.0004 -0.0001 0.0338 -0.0033c0.0437,-0.0043 0.0873,-0.0091 0.1307,-0.0142l0.0125 -0.0015 0.0249 -0.0031 0.0335 -0.0042c0.0325,-0.0042 0.0648,-0.0086 0.0971,-0.0132l0.007 -0.001 0.0269 -0.004 0.0088 -0.0013 0.0253 -0.0038 0.0017 -0.0003 0.0311 -0.0048 0.0021 -0.0004c0.0428,-0.0068 0.0856,-0.014 0.1282,-0.0216l0.0096 -0.0018c0.0201,-0.0036 0.0402,-0.0073 0.0603,-0.0111l0.0329 -0.0064 0 0 0.0328 -0.0065 0.0324 -0.0065 0.0005 -0.0001 0.0312 -0.0065 0.0023 -0.0005c0.0215,-0.0046 0.0429,-0.0092 0.0643,-0.0139l0.0289 -0.0064 0.0037 -0.0009c0.0207,-0.0047 0.0415,-0.0095 0.0622,-0.0144l0.0038 -0.0009 0.0264 -0.0063 0.0068 -0.0017 0.0303 -0.0074 0.0004 -0.0001c0.0215,-0.0054 0.0429,-0.0108 0.0644,-0.0163l0.0306 -0.008 0.0016 -0.0005 0.0322 -0.0085 0.0041 -0.0011 0.028 -0.0077z"/>
   <path class="fil4" d="M4.659 4.3342l0.1333 0.0221c0.3612,0.0598 0.6129,0.3735 0.5594,0.6972l-0.343 2.0717 -0.0245 0.0055 -0.0491 0.0107 -0.0246 0.0051 -0.0243 0.0051 -0.0003 0 -0.0238 0.0049 -0.0008 0.0001 -0.0247 0.0049 -0.0005 0.0001 -0.022 0.0043 -0.0074 0.0015c-0.079,0.0152 -0.1585,0.029 -0.2384,0.0414l-0.0073 0.0011 -0.0225 0.0035 -0.0002 0 -0.025 0.0037 -0.0011 0.0002 -0.024 0.0035 -0.0005 0 -0.0246 0.0035 -0.0251 0.0035 -0.0227 0.003 -0.005 0.0007 -0.0217 0.0028 -0.0009 0.0001 -0.0252 0.0032 -0.0192 0.0024 -0.006 0.0007 -0.0219 0.0026 -0.0034 0.0004 -0.0253 0.0029 -0.0025 0.0003 -0.0228 0.0025 -0.0252 0.0028 -0.0001 0 -0.0254 0.0026 -0.0142 0.0015 -0.0045 0.0004 -0.0256 0.0025 -0.0065 0.0006 -0.0032 0.0004 -0.0104 0.0009 -0.0245 0.0023 -0.0049 0.0004 -0.0079 0.0007 -0.0255 0.0022 -0.0189 0.0016 -0.0067 0.0005 -0.0209 0.0017 -0.0046 0.0003 -0.035 0.0026 -0.0009 0.0001 -0.0297 0.0021 -0.0113 0.0007 -0.0256 0.0017 -0.0132 0.0008 -0.0125 0.0007 -0.0257 0.0015 -0.002 0.0001 -0.0238 0.0013 -0.0165 0.0009 -0.0093 0.0004 -0.0258 0.0012 -0.0053 0.0002 -0.0364 0.0016 -0.004 0.0001 -0.006 0.0002 -0.0258 0.001 -0.0087 0.0003 -0.0065 0.0002 -0.0279 0.0008 -0.0062 0.0002 -0.0026 0.0001c-0.0243,0.0007 -0.0487,0.0012 -0.0731,0.0016l-0.0049 0.0001 -0.0007 0.0001 -0.0066 0c-0.0236,0.0004 -0.0473,0.0007 -0.0709,0.0009l-0.0041 0 -0.0008 0c-0.042,0.0003 -0.0093,0.0002 -0.0513,-0.0002l0.3302 -1.9587c0.0571,0.0459 0.1265,0.0783 0.2039,0.0911 0.2402,0.0398 0.4672,-0.1228 0.507,-0.363 0.0397,-0.2402 -0.1228,-0.4672 -0.363,-0.5069 -0.0443,-0.0073 -0.0882,-0.0078 -0.1305,-0.0021 0.1485,-0.1695 0.395,-0.2608 0.6521,-0.2183z"/>
   <path class="fil4" d="M4.0425 4.8105c0.1083,0.0179 0.1816,0.1203 0.1637,0.2286 -0.018,0.1084 -0.1203,0.1816 -0.2287,0.1637 -0.1083,-0.0179 -0.1816,-0.1203 -0.1636,-0.2286 0.0179,-0.1083 0.1203,-0.1816 0.2286,-0.1637z"/>
   <polygon class="fil3" points="4.2151,4.0855 5.1276,4.2365 5.6542,1.0554 4.7416,0.9043 "/>
   <polygon class="fil4" points="4.8379,1.8578 5.2217,1.9214 4.873,4.0279 4.4892,3.9644 "/>
   <path class="fil5" d="M4.3999 0.3746l0.7932 0.1313c0.2955,0.0489 0.5043,0.2878 0.4555,0.5833l-0.0622 0.3755c-0.0606,0.3659 -0.4095,0.6157 -0.7754,0.5552l-0.6652 -0.1101c-0.3719,-0.4117 -0.2229,-1.2936 0.2541,-1.5352z"/>
   <path class="fil2" d="M4.2819 1.5643c0.0543,0.009 0.1086,0.0179 0.1629,0.0269 -0.0271,-0.4226 0.1476,-0.5855 0.2672,-0.5306 0.1446,0.0664 0.0989,0.2937 0.0661,0.411 -0.0245,0.0878 -0.0619,0.1688 -0.1095,0.2443 0.5914,0.0781 0.8212,-0.6652 0.4026,-0.8972 -0.1765,-0.0292 -0.3529,-0.0584 -0.5294,-0.0876 -0.1686,0.0346 -0.2224,0.4096 -0.2599,0.8332z"/>
  </g>
 </g>
</svg>
