<?xml version="1.0" encoding="UTF-8"?>
<!DOCTYPE svg PUBLIC "-//W3C//DTD SVG 1.1//EN" "http://www.w3.org/Graphics/SVG/1.1/DTD/svg11.dtd">
<!-- Creator: CorelDRAW -->
<svg xmlns="http://www.w3.org/2000/svg" xml:space="preserve" width="6.8882mm" height="13.9003mm" style="shape-rendering:geometricPrecision; text-rendering:geometricPrecision; image-rendering:optimizeQuality; fill-rule:evenodd; clip-rule:evenodd"
viewBox="0 0 6.8882 13.9003"
 xmlns:xlink="http://www.w3.org/1999/xlink">
 <defs>
  <style type="text/css">
   <![CDATA[
    .str0 {stroke:#3F4446;stroke-width:0.2617;stroke-linecap:round;stroke-linejoin:round}
    .fil0 {fill:none}
    .fil2 {fill:white}
    .fil3 {fill:#3F4446}
    .fil1 {fill:#3F4446;fill-rule:nonzero}
   ]]>
  </style>
 </defs>
 <g id="Layer_x0020_1">
  <metadata id="CorelCorpID_0Corel-Layer"/>
  <g id="_22.cdr">
   <path id="_311289456" class="fil0 str0" d="M6.5093 7.5513c-0.089,0.7951 -0.1781,1.4989 -0.2672,2.294m-0.0559 0.4986c-0.1103,0.9853 -0.2207,1.9705 -0.3311,2.9558 -1.1241,0.5869 -3.5367,0.6671 -4.8826,0 -0.1979,-1.8981 -0.3957,-3.7962 -0.5936,-5.6943"/>
   <g>
    <path id="_311289384" class="fil1" d="M0.261 7.1995l-0.261 0 0 0 0.0068 -0.0691 0.0194 -0.0665 0.0303 -0.0622 0.0388 -0.0569 0.0467 -0.0533 0.0539 -0.0498 0.0602 -0.0463 0.0665 -0.0439 0.073 -0.0425 0.0788 -0.0399 0.0849 -0.0388 0.0903 -0.0367 0.0965 -0.0356 0.1019 -0.0342 0.1077 -0.0324 0.1129 -0.0306 0.1175 -0.0298 0.1234 -0.0277 0.1272 -0.0263 0.1325 -0.0246 0.1364 -0.0225 0.1414 -0.0214 0.1449 -0.0191 0.1482 -0.0179 0.1526 -0.0155 0.156 -0.0141 0.1587 -0.0117 0.1624 -0.0097 0.1647 -0.0076 0.1678 -0.0055 0.1698 -0.0034 0.172 -0.0016 0 0.2616 -0.169 0.0006 -0.1666 0.0034 -0.1638 0.0055 -0.1617 0.0076 -0.1582 0.0097 -0.1557 0.0117 -0.152 0.0131 -0.1484 0.0155 -0.1452 0.0169 -0.1409 0.0191 -0.1362 0.0204 -0.1324 0.0225 -0.1273 0.0236 -0.1232 0.0253 -0.1172 0.0267 -0.1125 0.0276 -0.1067 0.0296 -0.1005 0.0304 -0.0949 0.0312 -0.0883 0.0324 -0.0821 0.0337 -0.0747 0.0336 -0.0676 0.0349 -0.0598 0.0343 -0.0521 0.0347 -0.044 0.0341 -0.0355 0.0324 -0.0273 0.0307 -0.0194 0.0283 -0.0119 0.0244 -0.0062 0.0215 -0.0018 0.0201 0 0zm3.1831 0.7355l0 0.2616 0 0 -0.172 -0.0016 -0.1698 -0.0034 -0.1678 -0.0055 -0.1647 -0.0076 -0.1624 -0.0097 -0.1587 -0.0117 -0.156 -0.0141 -0.1526 -0.0155 -0.1482 -0.0178 -0.1449 -0.0192 -0.1414 -0.0213 -0.1364 -0.0226 -0.132 -0.0246 -0.1277 -0.0262 -0.1234 -0.0278 -0.1175 -0.0298 -0.1129 -0.0305 -0.1077 -0.0325 -0.1019 -0.0342 -0.0965 -0.0356 -0.0903 -0.0366 -0.0849 -0.0389 -0.0788 -0.0398 -0.073 -0.0425 -0.0665 -0.044 -0.0602 -0.0463 -0.0539 -0.0498 -0.0467 -0.0532 -0.0388 -0.057 -0.0303 -0.0622 -0.0194 -0.0665 -0.0068 -0.0691 0.261 0 0.0018 0.0201 0.0062 0.0215 0.0119 0.0244 0.0194 0.0284 0.0273 0.0306 0.0355 0.0324 0.044 0.0341 0.0521 0.0348 0.0598 0.0343 0.0676 0.0348 0.0747 0.0337 0.0821 0.0336 0.0883 0.0324 0.0949 0.0312 0.1005 0.0305 0.1067 0.0295 0.1125 0.0276 0.1172 0.0268 0.1227 0.0252 0.1278 0.0236 0.1324 0.0226 0.1362 0.0203 0.1409 0.0192 0.1452 0.0168 0.1484 0.0155 0.152 0.0131 0.1557 0.0117 0.1582 0.0097 0.1617 0.0076 0.1638 0.0055 0.1666 0.0034 0.169 0.0006 0 0zm3.1831 -0.7355l0.261 0 0 0 -0.0068 0.0691 -0.0194 0.0665 -0.0303 0.0622 -0.0388 0.057 -0.0467 0.0532 -0.0539 0.0498 -0.0602 0.0463 -0.0665 0.044 -0.073 0.0425 -0.0788 0.0398 -0.0849 0.0389 -0.0903 0.0366 -0.0965 0.0356 -0.1019 0.0342 -0.1077 0.0325 -0.1129 0.0305 -0.1175 0.0298 -0.1234 0.0278 -0.1277 0.0262 -0.132 0.0246 -0.1364 0.0226 -0.1414 0.0213 -0.1449 0.0192 -0.1482 0.0178 -0.1526 0.0155 -0.156 0.0141 -0.1587 0.0117 -0.1624 0.0097 -0.1647 0.0076 -0.1678 0.0055 -0.1698 0.0034 -0.172 0.0016 0 -0.2616 0.169 -0.0006 0.1666 -0.0034 0.1638 -0.0055 0.1617 -0.0076 0.1582 -0.0097 0.1557 -0.0117 0.152 -0.0131 0.1484 -0.0155 0.1452 -0.0168 0.1409 -0.0192 0.1362 -0.0203 0.1324 -0.0226 0.1278 -0.0236 0.1227 -0.0252 0.1172 -0.0268 0.1125 -0.0276 0.1067 -0.0295 0.1005 -0.0305 0.0949 -0.0312 0.0883 -0.0324 0.0821 -0.0336 0.0747 -0.0337 0.0676 -0.0348 0.0598 -0.0343 0.0521 -0.0348 0.044 -0.0341 0.0355 -0.0324 0.0273 -0.0306 0.0194 -0.0284 0.0119 -0.0244 0.0062 -0.0215 0.0018 -0.0201 0 0zm-3.1831 -0.7355l0 -0.2616 0 0 0.172 0.0016 0.1698 0.0034 0.1678 0.0055 0.1647 0.0076 0.1624 0.0097 0.1587 0.0117 0.156 0.0141 0.1526 0.0155 0.1482 0.0179 0.1449 0.0191 0.1414 0.0214 0.1364 0.0225 0.1325 0.0246 0.1272 0.0263 0.1234 0.0277 0.1175 0.0298 0.1129 0.0306 0.1077 0.0324 0.1019 0.0342 0.0965 0.0356 0.0903 0.0367 0.0849 0.0388 0.0788 0.0399 0.073 0.0425 0.0665 0.0439 0.0602 0.0463 0.0539 0.0498 0.0467 0.0533 0.0388 0.0569 0.0303 0.0622 0.0194 0.0665 0.0068 0.0691 -0.261 0 -0.0018 -0.0201 -0.0062 -0.0215 -0.0119 -0.0244 -0.0194 -0.0283 -0.0273 -0.0307 -0.0355 -0.0324 -0.044 -0.0341 -0.0521 -0.0347 -0.0598 -0.0343 -0.0676 -0.0349 -0.0747 -0.0336 -0.0821 -0.0337 -0.0883 -0.0324 -0.0949 -0.0312 -0.1005 -0.0304 -0.1067 -0.0296 -0.1125 -0.0276 -0.1172 -0.0267 -0.1232 -0.0253 -0.1273 -0.0236 -0.1324 -0.0225 -0.1362 -0.0204 -0.1409 -0.0191 -0.1452 -0.0169 -0.1484 -0.0155 -0.152 -0.0131 -0.1557 -0.0117 -0.1582 -0.0097 -0.1617 -0.0076 -0.1638 -0.0055 -0.1666 -0.0034 -0.169 -0.0006 0 0z"/>
   </g>
   <ellipse class="fil2" cx="3.4441" cy="7.19951" rx="2.98649" ry="0.654052"/>
   <path class="fil0 str0" d="M3.4922 8.6881c-0.1472,0.0133 -0.2928,0.0221 -0.437,0.0264m-0.3131 0.0022c-0.604,-0.0095 -1.1814,-0.0993 -1.7337,-0.2641"/>
   <path class="fil3" d="M3.1893 7.9338l0 -3.1105c0,-0.456 -0.3731,-0.829 -0.829,-0.829l-0.7066 0c-0.4144,0 -0.7536,0.3392 -0.7536,0.7536l0 2.8711c0.5356,0.1864 1.5084,0.3095 2.2892,0.3148z"/>
   <path class="fil2" d="M2.0057 4.2109l0.1472 0c0.399,0 0.7255,0.2926 0.7255,0.6501l0 3.0673c-0.5655,-0.0217 -1.1125,-0.0834 -1.6297,-0.2092l0 -2.2792c0.0696,0.0392 0.1499,0.0617 0.2355,0.0617 0.2653,0 0.4804,-0.2152 0.4804,-0.4805 0,-0.2653 -0.2151,-0.4804 -0.4804,-0.4804 -0.049,0 -0.0962,0.0073 -0.1407,0.0209 0.1295,-0.2086 0.3782,-0.3507 0.6622,-0.3507z"/>
   <path class="fil2" d="M1.4277 4.8327c0.1196,0 0.2166,0.097 0.2166,0.2167 0,0.1196 -0.097,0.2166 -0.2166,0.2166 -0.1197,0 -0.2167,-0.097 -0.2167,-0.2166 0,-0.1197 0.097,-0.2167 0.2167,-0.2167z"/>
   <rect class="fil3" x="1.48417" y="0.50873" width="1.00799" height="3.51383"/>
   <rect class="fil2" x="1.75737" y="1.51669" width="0.423921" height="2.32685"/>
   <path class="fil3" d="M1.0226 3.4521e-016l0.8761 0c0.3264,0 0.5935,0.2197 0.5935,0.5461l0 0.4148c0,0.4041 -0.3307,0.7348 -0.7348,0.7348l-0.7348 0c-0.4731,-0.3764 -0.4699,-1.351 0,-1.6957z"/>
   <path class="fil2" d="M1.1074 1.3c0.0599,0 0.1199,0 0.1799,0 -0.1044,-0.4495 0.0546,-0.6557 0.1928,-0.618 0.1673,0.0456 0.1587,0.2981 0.1443,0.4301 -0.0108,0.0987 -0.0366,0.1924 -0.0743,0.2821 0.6497,-0.0213 0.7646,-0.8613 0.2732,-1.0362 -0.1949,0 -0.3898,0 -0.5848,0 -0.1751,0.0672 -0.1662,0.48 -0.1311,0.942z"/>
   <path class="fil3" d="M5.7869 7.6826l0.3579 -2.162c0.0744,-0.4499 -0.2327,-0.8788 -0.6825,-0.9533l-0.6971 -0.1153c-0.4089,-0.0677 -0.8006,0.2113 -0.8666,0.6204l-0.4623 2.8669 0.0034 0.001c0.0256,0.001 0.0511,0.0019 0.0766,0.0027l0.0382 0.001 0.0035 0.0001 0.0347 0.0008 0.002 0.0001 0.0345 0.0006 0.0024 0.0001 0.0356 0.0005 0.0034 0 0.0354 0.0004 0.0034 0c0.0245,0.0002 0.049,0.0003 0.0734,0.0003l0.0379 -0.0002 0.0342 -0.0002 0.0055 -0.0001 0.0322 -0.0004 0.0054 0 0.0355 -0.0007 0.0012 0 0.0367 -0.0008 0.001 0 0.0368 -0.001 0.0376 -0.0011 0.0358 -0.0013 0.002 -0.0001 0.0326 -0.0013 0.0061 -0.0002c0.024,-0.001 0.048,-0.0022 0.0719,-0.0034l0.0046 -0.0002 0.0338 -0.0019 0.0001 0 0.0345 -0.002 0.0027 -0.0002 0.0372 -0.0023c0.0222,-0.0015 0.0443,-0.0031 0.0665,-0.0047l0.0128 -0.001 0.0318 -0.0024 0.0004 -0.0001 0.0357 -0.0029 0.0044 -0.0004 0.0336 -0.003 0.0364 -0.0033 0.0004 0 0.0368 -0.0036c0.0477,-0.0048 0.0952,-0.0099 0.1425,-0.0156l0.0137 -0.0016 0.0271 -0.0033 0.0365 -0.0046c0.0353,-0.0046 0.0706,-0.0094 0.1058,-0.0144l0.0076 -0.0011 0.0293 -0.0043 0.0097 -0.0015 0.0274 -0.0041 0.0019 -0.0003 0.0339 -0.0053 0.0023 -0.0004c0.0467,-0.0074 0.0932,-0.0153 0.1397,-0.0236l0.0105 -0.0019c0.0219,-0.0039 0.0438,-0.008 0.0657,-0.0121l0.0358 -0.0069 0.0001 0 0.0356 -0.0071 0.0354 -0.0072 0.0005 -0.0001 0.0341 -0.0071 0.0025 -0.0005c0.0234,-0.0049 0.0467,-0.01 0.07,-0.0151l0.0315 -0.007 0.004 -0.001c0.0226,-0.0051 0.0452,-0.0103 0.0678,-0.0157l0.0041 -0.0009 0.0288 -0.0069 0.0075 -0.0019 0.0329 -0.0081 0.0005 -0.0001c0.0234,-0.0058 0.0468,-0.0117 0.0701,-0.0177l0.0334 -0.0087 0.0018 -0.0005 0.035 -0.0094 0.0045 -0.0012 0.0305 -0.0083z"/>
   <path class="fil2" d="M5.0771 4.7232l0.1452 0.024c0.3936,0.0652 0.668,0.4071 0.6096,0.7598l-0.3737 2.2577 -0.0267 0.0059 -0.0535 0.0116 -0.0268 0.0057 -0.0265 0.0055 -0.0003 0 -0.026 0.0053 -0.0009 0.0002 -0.0269 0.0053 -0.0005 0.0001 -0.024 0.0047 -0.008 0.0016c-0.0862,0.0166 -0.1728,0.0316 -0.2598,0.0451l-0.008 0.0013 -0.0245 0.0037 -0.0002 0 -0.0273 0.0041 -0.0012 0.0002 -0.0261 0.0038 -0.0005 0.0001 -0.0269 0.0037 -0.0273 0.0038 -0.0248 0.0033 -0.0054 0.0008 -0.0237 0.003 -0.001 0.0002 -0.0274 0.0034 -0.0209 0.0026 -0.0066 0.0008 -0.0239 0.0029 -0.0036 0.0004 -0.0276 0.0032 -0.0027 0.0003 -0.0249 0.0027 -0.0275 0.003 -0.0001 0 -0.0276 0.0029 -0.0155 0.0016 -0.0049 0.0004 -0.028 0.0028 -0.007 0.0007 -0.0035 0.0003 -0.0113 0.001 -0.0267 0.0025 -0.0054 0.0005 -0.0086 0.0008 -0.0278 0.0023 -0.0206 0.0017 -0.0072 0.0006 -0.0228 0.0018 -0.0051 0.0004 -0.0381 0.0029 -0.001 0 -0.0324 0.0023 -0.0122 0.0008 -0.028 0.0018 -0.0143 0.0009 -0.0137 0.0008 -0.028 0.0016 -0.0021 0.0002 -0.026 0.0013 -0.0179 0.001 -0.0102 0.0005 -0.0281 0.0013 -0.0057 0.0002 -0.0398 0.0017 -0.0043 0.0002 -0.0065 0.0002 -0.0282 0.001 -0.0095 0.0004 -0.007 0.0002 -0.0304 0.0009 -0.0067 0.0002 -0.0029 0.0001c-0.0265,0.0007 -0.0531,0.0013 -0.0797,0.0018l-0.0053 0.0001 -0.0008 0 -0.0072 0.0001c-0.0257,0.0004 -0.0515,0.0007 -0.0773,0.0009l-0.0044 0 -0.0008 0c-0.0458,0.0003 -0.0102,0.0003 -0.0559,-0.0002l0.3597 -2.1344c0.0623,0.05 0.1379,0.0852 0.2223,0.0992 0.2617,0.0433 0.5091,-0.1338 0.5524,-0.3955 0.0433,-0.2618 -0.1338,-0.5092 -0.3955,-0.5525 -0.0483,-0.008 -0.0961,-0.0084 -0.1422,-0.0023 0.1618,-0.1847 0.4304,-0.2842 0.7106,-0.2378z"/>
   <path class="fil2" d="M4.4052 5.2422c0.1181,0.0195 0.198,0.1311 0.1784,0.2492 -0.0195,0.118 -0.1311,0.1979 -0.2491,0.1783 -0.1181,-0.0195 -0.1979,-0.1311 -0.1784,-0.2491 0.0195,-0.118 0.1311,-0.1979 0.2491,-0.1784z"/>
   <polygon class="fil3" points="4.5933,4.4521 5.5878,4.6167 6.1615,1.1501 5.1671,0.9855 "/>
   <polygon class="fil2" points="5.272,2.0246 5.6902,2.0938 5.3103,4.3894 4.8921,4.3202 "/>
   <path class="fil3" d="M4.7947 0.4082l0.8644 0.1431c0.322,0.0533 0.5496,0.3137 0.4963,0.6357l-0.0677 0.4092c-0.066,0.3987 -0.4463,0.6709 -0.8449,0.6049l-0.725 -0.1199c-0.4052,-0.4486 -0.2429,-1.4097 0.2769,-1.673z"/>
   <path class="fil2" d="M4.6661 1.7047c0.0592,0.0098 0.1184,0.0195 0.1776,0.0293 -0.0296,-0.4605 0.1608,-0.638 0.2911,-0.5782 0.1576,0.0723 0.1079,0.32 0.0721,0.4478 -0.0268,0.0957 -0.0675,0.184 -0.1194,0.2663 0.6445,0.0851 0.895,-0.7249 0.4388,-0.9777 -0.1923,-0.0319 -0.3846,-0.0637 -0.5769,-0.0955 -0.1838,0.0377 -0.2424,0.4464 -0.2833,0.908z"/>
  </g>
 </g>
</svg>
