<?xml version="1.0" encoding="UTF-8"?>
<!DOCTYPE svg PUBLIC "-//W3C//DTD SVG 1.1//EN" "http://www.w3.org/Graphics/SVG/1.1/DTD/svg11.dtd">
<!-- Creator: CorelDRAW -->
<svg xmlns="http://www.w3.org/2000/svg" xml:space="preserve" width="22.7256mm" height="12.7901mm" style="shape-rendering:geometricPrecision; text-rendering:geometricPrecision; image-rendering:optimizeQuality; fill-rule:evenodd; clip-rule:evenodd"
viewBox="0 0 22.7256 12.7901"
 xmlns:xlink="http://www.w3.org/1999/xlink">
 <defs>
  <style type="text/css">
   <![CDATA[
    .fil0 {fill:#15202A}
    .fil3 {fill:#3F4446}
    .fil2 {fill:#D9DBDD}
    .fil4 {fill:#3F4446;fill-rule:nonzero}
    .fil1 {fill:#00ACEE;fill-rule:nonzero}
   ]]>
  </style>
 </defs>
 <g id="Layer_x0020_1">
  <metadata id="CorelCorpID_0Corel-Layer"/>
  <g id="_25.cdr">
   <path id="_313537160" class="fil0" d="M0.6666 4.4286l5.9458 0.0642 3.4123 -3.124 -4.7442 0 -4.6139 3.0598zm15.1514 0.0899l6.1358 -0.0899 -4.586 -3.0598 -4.7739 0 3.2241 3.1497z"/>
   <path id="_313537088" class="fil1" d="M1.2459 4.2537l5.4888 0 -0.3988 0.3497 -5.6693 0 0 -0.0004c-0.0565,0 -0.1119,-0.0275 -0.1454,-0.0781 -0.0532,-0.0804 -0.0311,-0.1886 0.0492,-0.2418l4.6042 -3.0533c0.0294,-0.0224 0.0661,-0.0358 0.1059,-0.0358l4.9436 0 -0.3988 0.3497 -4.4928 0 -4.0866 2.71zm14.4848 0l5.6471 0 -4.0619 -2.71 -4.5319 0 -0.3802 -0.3497 4.964 0 0 0.0006c0.0334,-0.0001 0.0672,0.0095 0.097,0.0295l4.5736 3.0515c0.0538,0.0298 0.0902,0.0871 0.0902,0.153 0,0.0965 -0.0783,0.1748 -0.1748,0.1748l-5.8429 0 -0.3802 -0.3497z"/>
   <rect id="_313537016" class="fil2" x="1.55035" y="4.46651" width="5.30427" height="0.877684"/>
   <polygon id="_313536944" class="fil2" points="15.4589,4.2877 16.5919,4.2877 16.5919,4.3835 21.1239,4.3835 21.1239,5.3569 16.5919,5.3569 16.5919,12.6337 15.4589,12.6337 "/>
   <polygon id="_313536872" class="fil2" points="7.0416,5.4858 11.3448,1.5536 15.4562,5.5456 15.736,4.5383 16.0131,4.4284 11.3321,0.1417 6.6384,4.3902 7.0079,4.4512 "/>
   <ellipse id="_313536800" class="fil3" cx="11.3394" cy="4.41401" rx="1.33318" ry="1.3696"/>
   <ellipse id="_313536728" class="fil2" cx="11.3394" cy="4.41401" rx="0.910636" ry="0.935516"/>
   <g>
    <path id="_313536656" class="fil4" d="M7.1675 4.428l-0.1749 0.1741 -5.5071 0 0 -0.3482 5.5071 0 0.1749 0.1741zm-0.1749 0.1741l0 -0.3482 0.009 0.0002 0.0089 0.0007 0.0087 0.0011 0.0086 0.0015 0.0085 0.002 0.0083 0.0023 0.0081 0.0028 0.0079 0.0031 0.0078 0.0035 0.0075 0.0038 0.0073 0.0042 0.0071 0.0045 0.0069 0.0049 0.0066 0.0052 0.0064 0.0054 0.006 0.0058 0.0058 0.0061 0.0055 0.0063 0.0052 0.0066 0.0049 0.0068 0.0046 0.007 0.0042 0.0073 0.0038 0.0075 0.0035 0.0078 0.0032 0.0079 0.0027 0.008 0.0024 0.0083 0.0019 0.0084 0.0016 0.0086 0.0011 0.0087 0.0007 0.0088 0.0002 0.009 -0.0002 0.009 -0.0007 0.0088 -0.0011 0.0087 -0.0016 0.0086 -0.0019 0.0084 -0.0024 0.0083 -0.0027 0.008 -0.0032 0.0079 -0.0035 0.0078 -0.0038 0.0075 -0.0042 0.0073 -0.0046 0.007 -0.0049 0.0068 -0.0052 0.0066 -0.0055 0.0063 -0.0058 0.0061 -0.006 0.0058 -0.0064 0.0054 -0.0066 0.0052 -0.0069 0.0049 -0.0071 0.0045 -0.0073 0.0042 -0.0075 0.0038 -0.0078 0.0035 -0.0079 0.0031 -0.0081 0.0028 -0.0083 0.0023 -0.0085 0.002 -0.0086 0.0015 -0.0087 0.0011 -0.0089 0.0007 -0.009 0.0002zm0 8.1879l-0.1749 -0.1741 0 -8.1879 0.3498 0 0 8.1879 -0.1749 0.1741zm-0.1749 -0.1741l0.3498 0 -0.0002 0.009 -0.0007 0.0088 -0.0011 0.0087 -0.0016 0.0086 -0.0019 0.0084 -0.0024 0.0083 -0.0027 0.008 -0.0032 0.0079 -0.0035 0.0078 -0.0038 0.0075 -0.0042 0.0073 -0.0046 0.007 -0.0049 0.0068 -0.0052 0.0066 -0.0055 0.0063 -0.0058 0.0061 -0.006 0.0058 -0.0064 0.0054 -0.0066 0.0052 -0.0069 0.0049 -0.0071 0.0045 -0.0073 0.0042 -0.0075 0.0038 -0.0078 0.0035 -0.0079 0.0031 -0.0081 0.0028 -0.0083 0.0023 -0.0085 0.002 -0.0086 0.0015 -0.0087 0.0011 -0.0089 0.0007 -0.009 0.0002 -0.009 -0.0002 -0.0089 -0.0007 -0.0087 -0.0011 -0.0086 -0.0015 -0.0085 -0.002 -0.0083 -0.0023 -0.0081 -0.0028 -0.0079 -0.0031 -0.0078 -0.0035 -0.0075 -0.0038 -0.0073 -0.0042 -0.0071 -0.0045 -0.0069 -0.0049 -0.0066 -0.0052 -0.0064 -0.0054 -0.006 -0.0058 -0.0058 -0.0061 -0.0055 -0.0063 -0.0052 -0.0066 -0.0049 -0.0068 -0.0046 -0.007 -0.0042 -0.0073 -0.0038 -0.0075 -0.0035 -0.0078 -0.0032 -0.0079 -0.0027 -0.008 -0.0024 -0.0083 -0.0019 -0.0084 -0.0016 -0.0086 -0.0011 -0.0087 -0.0007 -0.0088 -0.0002 -0.009zm-5.5071 0l0.1749 -0.1741 5.5071 0 0 0.3482 -5.5071 0 -0.1749 -0.1741zm0.1749 -0.1741l0 0.3482 -0.009 -0.0002 -0.0089 -0.0007 -0.0087 -0.0011 -0.0086 -0.0015 -0.0085 -0.002 -0.0083 -0.0023 -0.0081 -0.0028 -0.0079 -0.0031 -0.0078 -0.0035 -0.0075 -0.0038 -0.0073 -0.0042 -0.0071 -0.0045 -0.0069 -0.0049 -0.0066 -0.0052 -0.0064 -0.0054 -0.006 -0.0058 -0.0058 -0.0061 -0.0055 -0.0063 -0.0052 -0.0066 -0.0049 -0.0068 -0.0046 -0.007 -0.0042 -0.0073 -0.0038 -0.0075 -0.0035 -0.0078 -0.0032 -0.0079 -0.0027 -0.008 -0.0024 -0.0083 -0.0019 -0.0084 -0.0016 -0.0086 -0.0011 -0.0087 -0.0007 -0.0088 -0.0002 -0.009 0.0002 -0.009 0.0007 -0.0088 0.0011 -0.0087 0.0016 -0.0086 0.0019 -0.0084 0.0024 -0.0083 0.0027 -0.008 0.0032 -0.0079 0.0035 -0.0078 0.0038 -0.0075 0.0042 -0.0073 0.0046 -0.007 0.0049 -0.0068 0.0052 -0.0066 0.0055 -0.0063 0.0058 -0.0061 0.006 -0.0058 0.0064 -0.0054 0.0066 -0.0052 0.0069 -0.0049 0.0071 -0.0045 0.0073 -0.0042 0.0075 -0.0038 0.0078 -0.0035 0.0079 -0.0031 0.0081 -0.0028 0.0083 -0.0023 0.0085 -0.002 0.0086 -0.0015 0.0087 -0.0011 0.0089 -0.0007 0.009 -0.0002zm0 -8.1879l0.1749 0.1741 0 8.1879 -0.3498 0 0 -8.1879 0.1749 -0.1741zm0.1749 0.1741l-0.3498 0 0.0002 -0.009 0.0007 -0.0088 0.0011 -0.0087 0.0016 -0.0086 0.0019 -0.0084 0.0024 -0.0083 0.0027 -0.008 0.0032 -0.0079 0.0035 -0.0078 0.0038 -0.0075 0.0042 -0.0073 0.0046 -0.007 0.0049 -0.0068 0.0052 -0.0066 0.0055 -0.0063 0.0058 -0.0061 0.006 -0.0058 0.0064 -0.0054 0.0066 -0.0052 0.0069 -0.0049 0.0071 -0.0045 0.0073 -0.0042 0.0075 -0.0038 0.0078 -0.0035 0.0079 -0.0031 0.0081 -0.0028 0.0083 -0.0023 0.0085 -0.002 0.0086 -0.0015 0.0087 -0.0011 0.0089 -0.0007 0.009 -0.0002 0.009 0.0002 0.0089 0.0007 0.0087 0.0011 0.0086 0.0015 0.0085 0.002 0.0083 0.0023 0.0081 0.0028 0.0079 0.0031 0.0078 0.0035 0.0075 0.0038 0.0073 0.0042 0.0071 0.0045 0.0069 0.0049 0.0066 0.0052 0.0064 0.0054 0.006 0.0058 0.0058 0.0061 0.0055 0.0063 0.0052 0.0066 0.0049 0.0068 0.0046 0.007 0.0042 0.0073 0.0038 0.0075 0.0035 0.0078 0.0032 0.0079 0.0027 0.008 0.0024 0.0083 0.0019 0.0084 0.0016 0.0086 0.0011 0.0087 0.0007 0.0088 0.0002 0.009z"/>
   </g>
   <rect class="fil3" x="2.95296" y="5.61604" width="2.70927" height="3.89815" rx="1.0726" ry="1.0726"/>
   <rect class="fil2" x="3.36449" y="6.04472" width="0.731618" height="3.04079"/>
   <rect class="fil2" x="4.51908" y="6.04472" width="0.731618" height="3.04079"/>
   <rect class="fil3" x="1.47135" y="10.6988" width="5.53531" height="0.43909"/>
   <rect class="fil3" x="-4.77717e-005" y="12.3416" width="22.7257" height="0.442196" rx="0.6692" ry="0.6692"/>
   <path class="fil3" d="M10.3921 7.667l1.872 0c0.2643,0 0.4806,0.2162 0.4806,0.4806l0 4.3362 -2.8427 0 0 -4.3267c0,-0.2696 0.2205,-0.4901 0.4901,-0.4901z"/>
   <rect class="fil2" x="10.3813" y="8.13825" width="1.88399" height="4.20168"/>
   <rect class="fil3" x="16.9867" y="5.61604" width="2.70927" height="3.89815" rx="1.0726" ry="1.0726"/>
   <g>
    <path class="fil4" d="M21.2988 4.428l-0.1749 0.1741 -5.5071 0 0 -0.3482 5.5071 0 0.1749 0.1741zm-0.1749 0.1741l0 -0.3482 0.009 0.0002 0.0089 0.0007 0.0087 0.0011 0.0086 0.0015 0.0085 0.002 0.0083 0.0023 0.0081 0.0028 0.0079 0.0031 0.0078 0.0035 0.0075 0.0038 0.0073 0.0042 0.0071 0.0045 0.0069 0.0049 0.0066 0.0052 0.0064 0.0054 0.006 0.0058 0.0058 0.0061 0.0055 0.0063 0.0052 0.0066 0.0049 0.0068 0.0046 0.007 0.0042 0.0073 0.0038 0.0075 0.0035 0.0078 0.0032 0.0079 0.0027 0.008 0.0024 0.0083 0.0019 0.0084 0.0016 0.0086 0.0011 0.0087 0.0007 0.0088 0.0002 0.009 -0.0002 0.009 -0.0007 0.0088 -0.0011 0.0087 -0.0016 0.0086 -0.0019 0.0084 -0.0024 0.0083 -0.0027 0.008 -0.0032 0.0079 -0.0035 0.0078 -0.0038 0.0075 -0.0042 0.0073 -0.0046 0.007 -0.0049 0.0068 -0.0052 0.0066 -0.0055 0.0063 -0.0058 0.0061 -0.006 0.0058 -0.0064 0.0054 -0.0066 0.0052 -0.0069 0.0049 -0.0071 0.0045 -0.0073 0.0042 -0.0075 0.0038 -0.0078 0.0035 -0.0079 0.0031 -0.0081 0.0028 -0.0083 0.0023 -0.0085 0.002 -0.0086 0.0015 -0.0087 0.0011 -0.0089 0.0007 -0.009 0.0002zm0 8.1879l-0.1749 -0.1741 0 -8.1879 0.3498 0 0 8.1879 -0.1749 0.1741zm-0.1749 -0.1741l0.3498 0 -0.0002 0.009 -0.0007 0.0088 -0.0011 0.0087 -0.0016 0.0086 -0.0019 0.0084 -0.0024 0.0083 -0.0027 0.008 -0.0032 0.0079 -0.0035 0.0078 -0.0038 0.0075 -0.0042 0.0073 -0.0046 0.007 -0.0049 0.0068 -0.0052 0.0066 -0.0055 0.0063 -0.0058 0.0061 -0.006 0.0058 -0.0064 0.0054 -0.0066 0.0052 -0.0069 0.0049 -0.0071 0.0045 -0.0073 0.0042 -0.0075 0.0038 -0.0078 0.0035 -0.0079 0.0031 -0.0081 0.0028 -0.0083 0.0023 -0.0085 0.002 -0.0086 0.0015 -0.0087 0.0011 -0.0089 0.0007 -0.009 0.0002 -0.009 -0.0002 -0.0089 -0.0007 -0.0087 -0.0011 -0.0086 -0.0015 -0.0085 -0.002 -0.0083 -0.0023 -0.0081 -0.0028 -0.0079 -0.0031 -0.0078 -0.0035 -0.0075 -0.0038 -0.0073 -0.0042 -0.0071 -0.0045 -0.0069 -0.0049 -0.0066 -0.0052 -0.0064 -0.0054 -0.006 -0.0058 -0.0058 -0.0061 -0.0055 -0.0063 -0.0052 -0.0066 -0.0049 -0.0068 -0.0046 -0.007 -0.0042 -0.0073 -0.0038 -0.0075 -0.0035 -0.0078 -0.0032 -0.0079 -0.0027 -0.008 -0.0024 -0.0083 -0.0019 -0.0084 -0.0016 -0.0086 -0.0011 -0.0087 -0.0007 -0.0088 -0.0002 -0.009zm-5.5071 0l0.1749 -0.1741 5.5071 0 0 0.3482 -5.5071 0 -0.1749 -0.1741zm0.1749 -0.1741l0 0.3482 -0.009 -0.0002 -0.0089 -0.0007 -0.0087 -0.0011 -0.0086 -0.0015 -0.0085 -0.002 -0.0083 -0.0023 -0.0081 -0.0028 -0.0079 -0.0031 -0.0078 -0.0035 -0.0075 -0.0038 -0.0073 -0.0042 -0.0071 -0.0045 -0.0069 -0.0049 -0.0066 -0.0052 -0.0064 -0.0054 -0.006 -0.0058 -0.0058 -0.0061 -0.0055 -0.0063 -0.0052 -0.0066 -0.0049 -0.0068 -0.0046 -0.007 -0.0042 -0.0073 -0.0038 -0.0075 -0.0035 -0.0078 -0.0032 -0.0079 -0.0027 -0.008 -0.0024 -0.0083 -0.0019 -0.0084 -0.0016 -0.0086 -0.0011 -0.0087 -0.0007 -0.0088 -0.0002 -0.009 0.0002 -0.009 0.0007 -0.0088 0.0011 -0.0087 0.0016 -0.0086 0.0019 -0.0084 0.0024 -0.0083 0.0027 -0.008 0.0032 -0.0079 0.0035 -0.0078 0.0038 -0.0075 0.0042 -0.0073 0.0046 -0.007 0.0049 -0.0068 0.0052 -0.0066 0.0055 -0.0063 0.0058 -0.0061 0.006 -0.0058 0.0064 -0.0054 0.0066 -0.0052 0.0069 -0.0049 0.0071 -0.0045 0.0073 -0.0042 0.0075 -0.0038 0.0078 -0.0035 0.0079 -0.0031 0.0081 -0.0028 0.0083 -0.0023 0.0085 -0.002 0.0086 -0.0015 0.0087 -0.0011 0.0089 -0.0007 0.009 -0.0002zm0 -8.1879l0.1749 0.1741 0 8.1879 -0.3498 0 0 -8.1879 0.1749 -0.1741zm0.1749 0.1741l-0.3498 0 0.0002 -0.009 0.0007 -0.0088 0.0011 -0.0087 0.0016 -0.0086 0.0019 -0.0084 0.0024 -0.0083 0.0027 -0.008 0.0032 -0.0079 0.0035 -0.0078 0.0038 -0.0075 0.0042 -0.0073 0.0046 -0.007 0.0049 -0.0068 0.0052 -0.0066 0.0055 -0.0063 0.0058 -0.0061 0.006 -0.0058 0.0064 -0.0054 0.0066 -0.0052 0.0069 -0.0049 0.0071 -0.0045 0.0073 -0.0042 0.0075 -0.0038 0.0078 -0.0035 0.0079 -0.0031 0.0081 -0.0028 0.0083 -0.0023 0.0085 -0.002 0.0086 -0.0015 0.0087 -0.0011 0.0089 -0.0007 0.009 -0.0002 0.009 0.0002 0.0089 0.0007 0.0087 0.0011 0.0086 0.0015 0.0085 0.002 0.0083 0.0023 0.0081 0.0028 0.0079 0.0031 0.0078 0.0035 0.0075 0.0038 0.0073 0.0042 0.0071 0.0045 0.0069 0.0049 0.0066 0.0052 0.0064 0.0054 0.006 0.0058 0.0058 0.0061 0.0055 0.0063 0.0052 0.0066 0.0049 0.0068 0.0046 0.007 0.0042 0.0073 0.0038 0.0075 0.0035 0.0078 0.0032 0.0079 0.0027 0.008 0.0024 0.0083 0.0019 0.0084 0.0016 0.0086 0.0011 0.0087 0.0007 0.0088 0.0002 0.009z"/>
   </g>
   <polygon class="fil2" points="17.3982,6.0447 18.1298,6.0447 18.1298,7.8957 18.5528,7.8957 18.5528,6.0447 19.2844,6.0447 19.2844,9.0855 18.5528,9.0855 18.5528,8.3853 18.1298,8.3853 18.1298,9.0855 17.3982,9.0855 "/>
   <rect class="fil3" x="15.6027" y="10.6988" width="5.53531" height="0.43909"/>
   <path class="fil1" d="M6.399 5.0531c-0.0681,0.0644 -0.1734,0.0589 -0.235,-0.0123 -0.0616,-0.0713 -0.0563,-0.1814 0.0118,-0.2459l5.0262 -4.7499c0.0643,-0.0609 0.1617,-0.0594 0.2243,0.001l0.0002 -0.0003 4.8592 4.6625c0.0678,0.0652 0.0721,0.1756 0.0098,0.2465 -0.0623,0.0709 -0.1678,0.0755 -0.2356,0.0102l-4.7474 -4.5552 -4.9135 4.6434z"/>
  </g>
 </g>
</svg>
