<?xml version="1.0" encoding="UTF-8"?>
<!DOCTYPE svg PUBLIC "-//W3C//DTD SVG 1.1//EN" "http://www.w3.org/Graphics/SVG/1.1/DTD/svg11.dtd">
<!-- Creator: CorelDRAW -->
<svg xmlns="http://www.w3.org/2000/svg" xml:space="preserve" width="7.384mm" height="14.3957mm" style="shape-rendering:geometricPrecision; text-rendering:geometricPrecision; image-rendering:optimizeQuality; fill-rule:evenodd; clip-rule:evenodd"
viewBox="0 0 7.384 14.3957"
 xmlns:xlink="http://www.w3.org/1999/xlink">
 <defs>
  <style type="text/css">
   <![CDATA[
    .str0 {stroke:#3F4446;stroke-width:0.2805;stroke-linecap:round;stroke-linejoin:round}
    .fil0 {fill:none}
    .fil2 {fill:white}
    .fil3 {fill:#3F4446}
    .fil1 {fill:#3F4446;fill-rule:nonzero}
   ]]>
  </style>
 </defs>
 <g id="Layer_x0020_1">
  <metadata id="CorelCorpID_0Corel-Layer"/>
  <g id="_18.cdr">
   <path id="_311902528" class="fil0 str0" d="M6.9778 7.6105c-0.0955,0.8523 -0.1909,1.5861 -0.2864,2.4384m-0.0599 0.5345c-0.1184,1.0561 -0.2367,2.1123 -0.355,3.1685 -1.205,0.6291 -3.7912,0.7151 -5.2339,0 -0.2122,-2.0348 -0.4243,-4.0695 -0.6364,-6.1041"/>
   <g>
    <path id="_311902456" class="fil1" d="M0.2798 7.2127l-0.2798 0 0 0 0.0073 -0.0741 0.0208 -0.0712 0.0324 -0.0668 0.0417 -0.0616 0.0501 -0.0565 0.0577 -0.0533 0.0646 -0.0498 0.0713 -0.047 0.0782 -0.0456 0.0845 -0.0427 0.0904 -0.0416 0.0973 -0.0394 0.1035 -0.038 0.1092 -0.0368 0.1155 -0.0347 0.1209 -0.0328 0.1261 -0.0318 0.1322 -0.0298 0.1364 -0.0281 0.142 -0.0265 0.1463 -0.0242 0.1515 -0.0228 0.1554 -0.0211 0.1589 -0.0186 0.1635 -0.0166 0.1673 -0.0151 0.1701 -0.0126 0.174 -0.0103 0.1765 -0.0082 0.18 -0.0059 0.182 -0.0036 0.1844 -0.0017 0 0.2804 -0.1812 0.0007 -0.1786 0.0036 -0.1756 0.0059 -0.1733 0.0082 -0.1696 0.0103 -0.1669 0.0126 -0.1629 0.0141 -0.1591 0.0166 -0.1557 0.0186 -0.151 0.0199 -0.1459 0.0218 -0.1419 0.0242 -0.1366 0.0253 -0.132 0.0271 -0.1256 0.0286 -0.1207 0.0296 -0.1143 0.0318 -0.1079 0.0325 -0.1016 0.0334 -0.0947 0.0348 -0.0875 0.036 -0.0806 0.0362 -0.0725 0.0373 -0.064 0.0368 -0.0559 0.0372 -0.0472 0.0366 -0.0379 0.0347 -0.0293 0.0335 -0.0209 0.0298 -0.0128 0.0262 -0.0066 0.023 -0.0019 0.0215 0 0zm3.4122 0.7884l0 0.2804 0 0 -0.1844 -0.0017 -0.182 -0.0036 -0.18 -0.0059 -0.1765 -0.0082 -0.174 -0.0103 -0.1701 -0.0126 -0.1673 -0.0151 -0.1635 -0.0166 -0.1589 -0.0186 -0.1554 -0.0211 -0.1515 -0.0228 -0.1463 -0.0242 -0.142 -0.0265 -0.1364 -0.0281 -0.1322 -0.0298 -0.1261 -0.0318 -0.1209 -0.0328 -0.1155 -0.0347 -0.1092 -0.0368 -0.1035 -0.038 -0.0973 -0.0394 -0.0904 -0.0416 -0.0845 -0.0427 -0.0782 -0.0456 -0.0713 -0.047 -0.0646 -0.0498 -0.0577 -0.0533 -0.0501 -0.0565 -0.0417 -0.0616 -0.0324 -0.0668 -0.0208 -0.0712 -0.0073 -0.0741 0.2798 0 0.0019 0.0215 0.0066 0.023 0.0128 0.0262 0.0209 0.0298 0.0293 0.0335 0.0379 0.0347 0.0472 0.0366 0.0559 0.0372 0.064 0.0368 0.0725 0.0373 0.0806 0.0362 0.0875 0.036 0.0947 0.0348 0.1016 0.0334 0.1079 0.0325 0.1143 0.0318 0.1207 0.0296 0.1256 0.0286 0.132 0.0271 0.1366 0.0253 0.1419 0.0242 0.1459 0.0218 0.151 0.0199 0.1557 0.0186 0.1591 0.0166 0.1629 0.0141 0.1669 0.0126 0.1696 0.0103 0.1733 0.0082 0.1756 0.0059 0.1786 0.0036 0.1812 0.0007 0 0zm3.4121 -0.7884l0.2798 0 0 0 -0.0073 0.0741 -0.0208 0.0712 -0.0324 0.0668 -0.0417 0.061 -0.05 0.0571 -0.0578 0.0533 -0.0646 0.0498 -0.0713 0.047 -0.0782 0.0456 -0.0845 0.0427 -0.0904 0.0416 -0.0973 0.0394 -0.1034 0.038 -0.1093 0.0368 -0.1155 0.0347 -0.1209 0.0328 -0.126 0.0318 -0.1322 0.0298 -0.1364 0.0281 -0.142 0.0265 -0.1463 0.0242 -0.1515 0.0228 -0.1554 0.0211 -0.1589 0.0186 -0.1635 0.0166 -0.1673 0.0151 -0.1701 0.0126 -0.174 0.0103 -0.1765 0.0082 -0.18 0.0059 -0.182 0.0036 -0.1844 0.0017 0 -0.2804 0.1812 -0.0007 0.1786 -0.0036 0.1756 -0.0059 0.1733 -0.0082 0.1696 -0.0103 0.1669 -0.0126 0.1629 -0.0141 0.1591 -0.0166 0.1557 -0.0186 0.151 -0.0199 0.1459 -0.0218 0.1419 -0.0242 0.1366 -0.0253 0.132 -0.0271 0.1256 -0.0286 0.1206 -0.0296 0.1143 -0.0318 0.1079 -0.0325 0.1017 -0.0334 0.0946 -0.0348 0.0875 -0.036 0.0806 -0.0362 0.0725 -0.0373 0.064 -0.0368 0.0559 -0.0372 0.0472 -0.0366 0.038 -0.0347 0.0292 -0.0329 0.0209 -0.0304 0.0128 -0.0262 0.0066 -0.023 0.0019 -0.0215 0 0zm-3.4121 -0.7884l0 -0.2804 0 0 0.1844 0.0017 0.182 0.0036 0.18 0.0059 0.1765 0.0082 0.174 0.0103 0.1701 0.0126 0.1673 0.0151 0.1635 0.0166 0.1589 0.0186 0.1554 0.0211 0.1515 0.0228 0.1463 0.0242 0.142 0.0265 0.1364 0.0281 0.1322 0.0298 0.126 0.0318 0.1209 0.0328 0.1155 0.0347 0.1093 0.0368 0.1034 0.038 0.0973 0.0394 0.0904 0.0416 0.0845 0.0427 0.0782 0.0456 0.0713 0.047 0.0646 0.0498 0.0578 0.0533 0.05 0.0571 0.0417 0.061 0.0324 0.0668 0.0208 0.0712 0.0073 0.0741 -0.2798 0 -0.0019 -0.0215 -0.0066 -0.023 -0.0128 -0.0262 -0.0209 -0.0304 -0.0292 -0.0329 -0.038 -0.0347 -0.0472 -0.0366 -0.0559 -0.0372 -0.064 -0.0368 -0.0725 -0.0373 -0.0806 -0.0362 -0.0875 -0.036 -0.0946 -0.0348 -0.1017 -0.0334 -0.1079 -0.0325 -0.1143 -0.0318 -0.1206 -0.0296 -0.1256 -0.0286 -0.132 -0.0271 -0.1366 -0.0253 -0.1419 -0.0242 -0.1459 -0.0218 -0.151 -0.0199 -0.1557 -0.0186 -0.1591 -0.0166 -0.1629 -0.0141 -0.1669 -0.0126 -0.1696 -0.0103 -0.1733 -0.0082 -0.1756 -0.0059 -0.1786 -0.0036 -0.1812 -0.0007 0 0z"/>
   </g>
   <ellipse class="fil2" cx="3.69199" cy="7.2127" rx="3.20139" ry="0.701118"/>
   <path class="fil3" d="M5.1214 7.9302l0.7653 -2.1034c0.1719,-0.4725 -0.0411,-1.0017 -0.5077,-1.1892l-0.7231 -0.2904c-0.4241,-0.1703 -0.9173,0.0347 -1.081,0.4615l-1.2026 3.1348c0.9201,0.1132 1.8365,0.1123 2.7491,-0.0133z"/>
   <path class="fil2" d="M4.9271 4.7137l0.1506 0.0604c0.4084,0.1641 0.6223,0.5976 0.4753,0.9635l-0.9022 2.2463c-0.0223,0.002 -0.0446,0.004 -0.0669,0.0058l-0.0222 0.0019c-0.0668,0.0055 -0.1337,0.0104 -0.2006,0.0145l-0.0223 0.0014 -0.0446 0.0026 -0.0223 0.0012c-0.0371,0.002 -0.0743,0.0038 -0.1115,0.0054l-0.0222 0.001 -0.0224 0.0009 -0.0446 0.0016 -0.0223 0.0008 -0.0446 0.0013 -0.0223 0.0006 -0.0026 0.0001 -0.0421 0.001 -0.0223 0.0005 -0.0223 0.0004 -0.0024 0 -0.0319 0.0005 -0.0365 0.0005 -0.0403 0.0003 -0.0005 0 -0.0224 0.0002 -0.0022 0 -0.0424 0.0001 -0.0224 0 -0.0223 -0.0001 -0.0327 -0.0001 -0.035 -0.0003 -0.0353 -0.0005 -0.0087 -0.0001 -0.0224 -0.0003 -0.0046 -0.0001 -0.0382 -0.0007 -0.0451 -0.001 -0.025 -0.0006 -0.0481 -0.0014 -0.0178 -0.0006 -0.0223 -0.0008 -0.0345 -0.0012 -0.0229 -0.0009 -0.0544 -0.0024 0 0c-0.0351,-0.0209 -0.0793,-0.0193 -0.1278,-0.0066 -0.1261,-0.0072 -0.2523,-0.0166 -0.3785,-0.0283l0.931 -2.3203c0.0552,0.0687 0.1281,0.1247 0.2157,0.1599 0.2716,0.109 0.5802,-0.0227 0.6892,-0.2942 0.1091,-0.2715 -0.0227,-0.5801 -0.2942,-0.6892 -0.0501,-0.0201 -0.1014,-0.0321 -0.1526,-0.0364 0.2183,-0.1603 0.5313,-0.2034 0.8219,-0.0866z"/>
   <path class="fil2" d="M4.0799 5.1123c0.1225,0.0492 0.1819,0.1884 0.1327,0.3108 -0.0492,0.1225 -0.1884,0.1819 -0.3108,0.1327 -0.1224,-0.0491 -0.1819,-0.1883 -0.1327,-0.3108 0.0492,-0.1225 0.1884,-0.1819 0.3108,-0.1327z"/>
   <rect class="fil3" transform="matrix(0.253043 0.101636 -0.101636 0.253043 5.91515 0.710392)" width="4.0767" height="14.2113"/>
   <rect class="fil2" transform="matrix(0.253043 0.101636 -0.101636 0.253043 5.78041 1.85425)" width="1.7145" height="9.4107"/>
   <path class="fil3" d="M5.6519 -1.50054e-016l0.8966 0.3601c0.334,0.1342 0.517,0.4688 0.3829,0.8028l-0.1705 0.4246c-0.1661,0.4135 -0.6405,0.616 -1.0541,0.4499l-0.752 -0.302c-0.3294,-0.5797 0.0745,-1.5758 0.6971,-1.7354z"/>
   <path class="fil2" d="M5.2042 1.3653c0.0614,0.0247 0.1228,0.0493 0.1842,0.074 0.078,-0.503 0.3254,-0.6487 0.4514,-0.5532 0.1524,0.1154 0.0398,0.3703 -0.0292,0.4994 -0.0516,0.0966 -0.1165,0.1819 -0.192,0.2582 0.6737,0.2453 1.1365,-0.5672 0.7056,-0.9482 -0.1995,-0.0801 -0.399,-0.1602 -0.5985,-0.2404 -0.2068,-0.0031 -0.3674,0.4229 -0.5215,0.9102z"/>
   <path class="fil0 str0" d="M3.7435 8.8084c-0.1577,0.0143 -0.3138,0.0237 -0.4683,0.0283m-0.3358 0.0024c-0.6474,-0.0102 -1.2663,-0.1065 -1.8584,-0.2831"/>
  </g>
 </g>
</svg>
