<?xml version="1.0" encoding="UTF-8"?>
<!DOCTYPE svg PUBLIC "-//W3C//DTD SVG 1.1//EN" "http://www.w3.org/Graphics/SVG/1.1/DTD/svg11.dtd">
<!-- Creator: CorelDRAW -->
<svg xmlns="http://www.w3.org/2000/svg" xml:space="preserve" width="7.1324mm" height="13.9049mm" style="shape-rendering:geometricPrecision; text-rendering:geometricPrecision; image-rendering:optimizeQuality; fill-rule:evenodd; clip-rule:evenodd"
viewBox="0 0 7.1324 13.9049"
 xmlns:xlink="http://www.w3.org/1999/xlink">
 <defs>
  <style type="text/css">
   <![CDATA[
    .str0 {stroke:#3F4446;stroke-width:0.2709;stroke-linecap:round;stroke-linejoin:round}
    .fil0 {fill:none}
    .fil4 {fill:#15202A}
    .fil2 {fill:white}
    .fil5 {fill:#3F4446}
    .fil3 {fill:#00ACEE}
    .fil1 {fill:#3F4446;fill-rule:nonzero}
   ]]>
  </style>
 </defs>
 <g id="Layer_x0020_1">
  <metadata id="CorelCorpID_0Corel-Layer"/>
  <g id="_17.cdr">
   <path id="_311415584" class="fil0 str0" d="M6.74 7.3405c-0.0922,0.8233 -0.1844,1.5425 -0.2767,2.3658m-0.0578 0.5163c-0.1143,1.0201 -0.2286,2.0403 -0.3429,3.0604 -1.164,0.6078 -3.662,0.6908 -5.0555,0 -0.2049,-1.9653 -0.4098,-3.9306 -0.6147,-5.8959"/>
   <g>
    <path id="_311415512" class="fil1" d="M0.2704 6.9668l-0.2704 0 0 0 0.0072 -0.0716 0.02 -0.0688 0.0313 -0.0645 0.0403 -0.0594 0.0483 -0.0545 0.0558 -0.0516 0.0624 -0.0481 0.0688 -0.0454 0.0756 -0.044 0.0816 -0.0413 0.0879 -0.0403 0.0934 -0.0378 0.0999 -0.0368 0.1056 -0.0355 0.1115 -0.0336 0.1168 -0.0317 0.1218 -0.0308 0.1277 -0.0287 0.1323 -0.0271 0.1366 -0.0256 0.1413 -0.0233 0.1463 -0.0221 0.15 -0.0203 0.1536 -0.018 0.1579 -0.0161 0.1615 -0.0146 0.1644 -0.0121 0.1681 -0.01 0.1706 -0.0079 0.1737 -0.0057 0.1759 -0.0034 0.1781 -0.0018 0 0.271 -0.1749 0.0006 -0.1727 0.0034 -0.1695 0.0057 -0.1674 0.0079 -0.1639 0.01 -0.1612 0.0121 -0.1573 0.0136 -0.1537 0.0161 -0.1504 0.018 -0.1458 0.0193 -0.1411 0.0211 -0.1371 0.0233 -0.1324 0.0244 -0.1269 0.0261 -0.1213 0.0277 -0.1166 0.0286 -0.1104 0.0307 -0.1041 0.0314 -0.0982 0.0323 -0.0915 0.0336 -0.085 0.0348 -0.0773 0.0349 -0.07 0.0361 -0.0618 0.0354 -0.0542 0.036 -0.0454 0.0353 -0.0368 0.0336 -0.0283 0.0323 -0.0201 0.0288 -0.0123 0.0253 -0.0064 0.0222 -0.0018 0.0208 0 0zm3.2958 0.7615l0 0.271 0 0 -0.1781 -0.0018 -0.1759 -0.0034 -0.1737 -0.0057 -0.1706 -0.0079 -0.1681 -0.01 -0.1644 -0.0121 -0.1615 -0.0146 -0.1579 -0.0161 -0.1536 -0.018 -0.15 -0.0203 -0.1463 -0.0221 -0.1413 -0.0233 -0.1372 -0.0256 -0.1317 -0.0272 -0.1277 -0.0287 -0.1218 -0.0308 -0.1168 -0.0316 -0.1115 -0.0337 -0.1056 -0.0355 -0.0999 -0.0367 -0.0939 -0.0379 -0.0874 -0.0403 -0.0816 -0.0413 -0.0756 -0.044 -0.0688 -0.0454 -0.0624 -0.0481 -0.0558 -0.0516 -0.0483 -0.0545 -0.0403 -0.0594 -0.0313 -0.0645 -0.02 -0.0688 -0.0072 -0.0716 0.2704 0 0.0018 0.0208 0.0064 0.0222 0.0123 0.0253 0.0201 0.0288 0.0283 0.0323 0.0368 0.0336 0.0454 0.0353 0.0542 0.036 0.0618 0.0354 0.07 0.0361 0.0778 0.0349 0.0845 0.0349 0.0915 0.0335 0.0982 0.0323 0.1041 0.0315 0.1104 0.0306 0.1166 0.0286 0.1213 0.0277 0.1275 0.0262 0.1318 0.0244 0.1371 0.0233 0.1411 0.0211 0.1458 0.0193 0.1504 0.018 0.1537 0.0161 0.1573 0.0136 0.1612 0.0121 0.1639 0.01 0.1674 0.0079 0.1695 0.0057 0.1727 0.0034 0.1749 0.0006 0 0zm3.2958 -0.7615l0.2704 0 0 0 -0.0072 0.0716 -0.02 0.0688 -0.0313 0.0645 -0.0403 0.0594 -0.0483 0.0545 -0.0558 0.0516 -0.0624 0.0481 -0.0688 0.0454 -0.0756 0.044 -0.0816 0.0413 -0.0874 0.0403 -0.094 0.0379 -0.0998 0.0367 -0.1056 0.0355 -0.1115 0.0337 -0.1169 0.0316 -0.1217 0.0308 -0.1277 0.0287 -0.1317 0.0272 -0.1373 0.0256 -0.1413 0.0233 -0.1463 0.0221 -0.15 0.0203 -0.1536 0.018 -0.1579 0.0161 -0.1615 0.0146 -0.1644 0.0121 -0.168 0.01 -0.1706 0.0079 -0.1738 0.0057 -0.1758 0.0034 -0.1781 0.0018 0 -0.271 0.1749 -0.0006 0.1726 -0.0034 0.1696 -0.0057 0.1674 -0.0079 0.1638 -0.01 0.1612 -0.0121 0.1573 -0.0136 0.1537 -0.0161 0.1504 -0.018 0.1458 -0.0193 0.1411 -0.0211 0.1371 -0.0233 0.1319 -0.0244 0.1275 -0.0262 0.1213 -0.0277 0.1165 -0.0286 0.1105 -0.0306 0.1041 -0.0315 0.0982 -0.0323 0.0914 -0.0335 0.0846 -0.0349 0.0778 -0.0349 0.07 -0.0361 0.0618 -0.0354 0.0542 -0.036 0.0454 -0.0353 0.0368 -0.0336 0.0283 -0.0323 0.0201 -0.0288 0.0123 -0.0253 0.0064 -0.0222 0.0018 -0.0208 0 0zm-3.2958 -0.7614l0 -0.271 0 0 0.1781 0.0018 0.1758 0.0034 0.1738 0.0057 0.1706 0.0079 0.168 0.01 0.1644 0.0121 0.1615 0.0146 0.1579 0.0161 0.1536 0.018 0.15 0.0203 0.1463 0.0221 0.1413 0.0233 0.1367 0.0256 0.1323 0.0271 0.1277 0.0287 0.1217 0.0308 0.1169 0.0317 0.1115 0.0336 0.1056 0.0355 0.0998 0.0368 0.0935 0.0378 0.0879 0.0403 0.0816 0.0413 0.0756 0.044 0.0688 0.0454 0.0624 0.0481 0.0558 0.0516 0.0483 0.0545 0.0403 0.0594 0.0313 0.0645 0.02 0.0688 0.0072 0.0716 -0.2704 0 -0.0018 -0.0208 -0.0064 -0.0222 -0.0123 -0.0253 -0.0201 -0.0288 -0.0283 -0.0323 -0.0368 -0.0336 -0.0454 -0.0353 -0.0542 -0.036 -0.0618 -0.0354 -0.07 -0.0361 -0.0773 -0.0349 -0.0851 -0.0348 -0.0914 -0.0336 -0.0982 -0.0323 -0.1041 -0.0314 -0.1105 -0.0307 -0.1165 -0.0286 -0.1213 -0.0277 -0.1269 -0.0261 -0.1325 -0.0244 -0.1371 -0.0233 -0.1411 -0.0211 -0.1458 -0.0193 -0.1504 -0.018 -0.1537 -0.0161 -0.1573 -0.0136 -0.1612 -0.0121 -0.1638 -0.01 -0.1674 -0.0079 -0.1696 -0.0057 -0.1726 -0.0034 -0.1749 -0.0006 0 0z"/>
   </g>
   <ellipse class="fil2" cx="3.56619" cy="6.96681" rx="3.09225" ry="0.677216"/>
   <path class="fil3" d="M4.9468 7.6598l0.7392 -2.0316c0.1661,-0.4565 -0.0396,-0.9676 -0.4903,-1.1487l-0.6984 -0.2805c-0.4097,-0.1645 -0.8861,0.0336 -1.0442,0.4458l-1.1616 3.0279c0.8887,0.1094 1.7739,0.1085 2.6553,-0.0129z"/>
   <path class="fil4" d="M4.7592 4.553l0.1455 0.0584c0.3944,0.1584 0.601,0.5772 0.4591,0.9306l-0.8715 2.1697c-0.0215,0.002 -0.0431,0.0038 -0.0646,0.0057l-0.0215 0.0018c-0.0645,0.0053 -0.1291,0.01 -0.1937,0.014l-0.0215 0.0013 -0.0431 0.0025 -0.0215 0.0012c-0.0359,0.0019 -0.0718,0.0037 -0.1077,0.0053l-0.0216 0.0008 -0.0215 0.0009 -0.0431 0.0016 -0.0216 0.0007 -0.0431 0.0013 -0.0215 0.0006 -0.0025 0.0001 -0.0406 0.0009 -0.0216 0.0005 -0.0216 0.0004 -0.0023 0 -0.0308 0.0005 -0.0352 0.0005 -0.0389 0.0003 -0.0006 0 -0.0215 0.0001 -0.0022 0 -0.041 0.0002 -0.0216 -0.0001 -0.0215 0 -0.0316 -0.0002 -0.0338 -0.0002 -0.0341 -0.0004 -0.0084 -0.0002 -0.0216 -0.0003 -0.0045 -0.0001 -0.0369 -0.0007 -0.0436 -0.0009 -0.0241 -0.0006 -0.0465 -0.0014 -0.0171 -0.0005 -0.0216 -0.0008 -0.0334 -0.0012 -0.0221 -0.0009 -0.0525 -0.0022 0 0c-0.0339,-0.0202 -0.0766,-0.0187 -0.1234,-0.0064 -0.1218,-0.007 -0.2437,-0.0161 -0.3657,-0.0273l0.8994 -2.2413c0.0532,0.0664 0.1237,0.1205 0.2083,0.1545 0.2623,0.1053 0.5604,-0.022 0.6657,-0.2842 0.1053,-0.2623 -0.0219,-0.5603 -0.2842,-0.6657 -0.0484,-0.0194 -0.098,-0.0309 -0.1474,-0.0351 0.2109,-0.1549 0.5132,-0.1965 0.7939,-0.0837z"/>
   <path class="fil4" d="M3.9409 4.9381c0.1183,0.0474 0.1757,0.1819 0.1282,0.3002 -0.0475,0.1182 -0.182,0.1756 -0.3002,0.1281 -0.1183,-0.0475 -0.1757,-0.1819 -0.1282,-0.3002 0.0475,-0.1183 0.1819,-0.1757 0.3002,-0.1281z"/>
   <rect class="fil3" transform="matrix(0.244417 0.0981708 -0.0981708 0.244417 5.71356 0.686173)" width="4.0767" height="14.2113"/>
   <rect class="fil4" transform="matrix(0.244417 0.0981708 -0.0981708 0.244417 5.58341 1.79103)" width="1.7145" height="9.4107"/>
   <path class="fil5" d="M5.4592 3.89879e-016l0.8661 0.3479c0.3227,0.1296 0.4994,0.4528 0.3699,0.7754l-0.1647 0.4101c-0.1605,0.3994 -0.6187,0.595 -1.0182,0.4346l-0.7263 -0.2918c-0.3182,-0.5599 0.0719,-1.5221 0.6732,-1.6762z"/>
   <path class="fil2" d="M5.0269 1.3188c0.0593,0.0238 0.1186,0.0476 0.1779,0.0714 0.0753,-0.4858 0.3143,-0.6266 0.436,-0.5343 0.1472,0.1115 0.0385,0.3577 -0.0282,0.4823 -0.0498,0.0934 -0.1125,0.1758 -0.1854,0.2495 0.6507,0.2369 1.0977,-0.5479 0.6815,-0.9159 -0.1927,-0.0774 -0.3854,-0.1548 -0.5781,-0.2322 -0.1998,-0.003 -0.3549,0.4085 -0.5037,0.8792z"/>
   <path class="fil0 str0" d="M3.616 8.5082c-0.1524,0.0137 -0.3032,0.0228 -0.4524,0.0272m-0.3243 0.0023c-0.6253,-0.0098 -1.2232,-0.1028 -1.7951,-0.2734"/>
  </g>
 </g>
</svg>
