<?xml version="1.0" encoding="utf-8"?>
<!-- Generator: Adobe Illustrator 23.0.1, SVG Export Plug-In . SVG Version: 6.00 Build 0)  -->
<svg version="1.1" id="Layer_1" xmlns="http://www.w3.org/2000/svg" xmlns:xlink="http://www.w3.org/1999/xlink" x="0px" y="0px"
	 viewBox="0 0 292.4 194.1" style="enable-background:new 0 0 292.4 194.1;" xml:space="preserve">
<style type="text/css">
	.st0{fill:#4B4B4B;}
	.st1{fill:#FFFFFF;}
	.st2{fill:#EBEBEB;}
	.st3{fill:#F6F6F6;}
	.st4{fill:#E9E8E9;}
	.st5{fill:#F1F0F0;}
	.st6{fill:#E0E1E0;}
	.st7{fill:#EEEDEE;}
	.st8{fill:#DFDFDE;}
	.st9{fill:#DCDCDC;}
	.st10{fill:#EDEDEE;}
	.st11{opacity:0.5;}
	.st12{fill:#ED1E81;}
</style>
<title>7 windows-04</title>
<path class="st0" d="M56.7,57.2c-1.8-0.5-4,0.6-4.8-2c0.4-1.8,1.7-2.2,3.5-2.1c12.8,0,25.7,0,38.5,0h5.7V23.3
	c-5.3-0.4-5.3-0.4-5.8-3.8c1-1,2.2-0.5,3.3-0.5c44.5,0,89,0,133.5,0c1.9,0,4.1-0.8,5.3,1.8c1.1,2.4-3.8,2-4.9,2.3
	c-1.9,0.6-1.8,0.5-2,2.6c-0.1,2.8-0.1,5.6,0.1,8.4c0,36.8,0.8,73.5,0.8,110.3v27.3c4.1,1.2,8.5-1.3,12.1,1.8
	c-0.4,1.8-1.3,2.7-3.1,2.6c-0.7-0.1-1.3,0-2,0H52c-0.8-0.1-1.7-0.1-2.5,0c-1.5,0.2-1.8-1.1-3-1.7c2.8-4.3,7-1,10.3-2.7L56.7,57.2z"
	/>
<path class="st1" d="M190.9,117c-0.1,0.5,0.2,0.9,0.7,1c0.1,0,0.2,0,0.3,0c1.8,2,1.5,4,0,6c-10.9,1.1-21.8,0.2-32.7,0.5
	c-2.1,0.1-4.3-0.5-6.3,0.5v46.5c-4.1,0.7-36,0.9-49,0.3V31c1.8-1.6,4-1.6,6.1-1.6c24.5,0,49,0,73.5,0c6.5,0,6.9,0.5,6.9,7.2
	c0,25,0,50,0,75C190.4,113.4,190,115.3,190.9,117z"/>
<path class="st2" d="M191.9,124v-6l2-1c1-1.7,0.5-3.6,0.5-5.4c0-25.3,0-50.6,0-75.9c0-5.5,0.4-6.1,5.8-6.3c6.8-0.2,13.6-0.2,20.5,0
	c3.1,0.1,4.8,1.1,4.8,4.8c-0.1,29.3-0.1,58.6-0.1,87.9c0,0.7-0.1,1.3-0.5,1.9c-10.7,0.8-21.3,0.8-32,0L191.9,124z"/>
<path class="st3" d="M98.9,172h-38V66c1.7-1.6,3.9-1.6,6.1-1.6c5.3-0.1,10.5-0.1,15.8,0c6.5,0.1,7.8,1.5,7.7,8
	c0.1,1.8-0.2,3.6-1,5.3c-3,2.9-6.9,1.7-10.4,1.8c-7.7,0.2-7.8,0.1-7.8,7.8c0,5.1,0.1,10.3,0,15.4c-0.1,3.5,1.5,4.6,4.7,4.8
	c4.4,0.3,9-1,13.2,1.3c1.2,1.6,1.2,3.4,1.2,5.2c0.1,5.9-1.2,7.1-7.2,7.4c-3.7,0.2-7.6-1.3-11,1.3c-1.9,8-0.7,16.1-0.6,24.2
	c0,2.7,2.8,2.3,4.7,2.5c4.2,0.5,8.6-0.9,12.7,1.2c2.3,3.7,1.3,7.8,1.3,11.7c0,4.3,0.4,7.6,5.9,7.5C97.4,169.8,99,170.1,98.9,172z"/>
<path class="st4" d="M88.9,78V66h-28v-8.9c6.4-0.2,12.8-0.1,19.2-0.1s12.9,0,19.8,0v4.5c0,35.4,0,70.8-0.1,106.2
	c0,1.4,1.2,3.3-0.9,4.3c0.1-1-0.6-1-1.3-1h-8.7v-20c0.7-7.1,0.5-14.3,0.5-21.4s-0.1-6.9-7.3-7.1c-4.1-0.1-8.3,1.2-12.1-1.4
	c0-1.4,1.1-1,1.8-1c5.6,0,11.3,0,17.2,0v-11C89.7,98.7,89.7,88.3,88.9,78z"/>
<path class="st5" d="M190.9,117c-0.4,0.1-0.8-0.1-1-0.5c0-0.1,0-0.2,0-0.3c-0.1-1.3,0-2.7,0-4V31h-86v-7.5c4.2-0.7,72.6-1,87-0.3
	V117z"/>
<path class="st2" d="M190.9,151v21h-14c-1.7-2-1.8-4.5-2.3-6.9c-1.5-7.2-3-14.5-4.4-21.8c-0.4-1.9-0.8-3.9,0-5.8
	c0.3-0.5,0.7-1,1.2-1.2c3.8-1,7.6-1.2,11.4,0.3c2,1.6,2.3,3.9,2.8,6.2c1.8,8,3.2,16.1,4.1,24.3c0.4,0.6,0.7-0.6,0.2-0.1
	c-0.2,0.2-0.4,0.1-0.4-0.3c-0.5-3.5-0.8-6.9-0.9-10.4C188.6,154.3,187.9,151.7,190.9,151z"/>
<path class="st2" d="M214.9,172h-12c-1.6-0.8-2.2-2.4-2.5-4c-1.8-8.9-3.8-17.8-5.2-26.7c-0.3-1.6-0.5-3.3,0.8-4.7
	c3.8-1.6,7.7-1.3,11.5-0.3c1.4,0.8,1.8,2.3,2.4,3.6c2.6,9,3.8,18.2,5.8,27.3C216,168.9,216.2,170.6,214.9,172z"/>
<path class="st6" d="M224.9,124V31.1h-29.7c-0.7,1.3-0.3,2.8-0.3,4.2c0,26.1,0,52.2-0.1,78.4c0,1.1,1,2.7-1,3.3V23.1h31.7
	c0.8,1.1,0.3,2.5,0.3,3.7c0,31.1,0,62.2,0,93.3C225.9,121.4,227.1,123.2,224.9,124z"/>
<path class="st7" d="M164.9,172h-8.5c-0.9-1.1-0.4-2.5-0.4-3.8c0-12.3,0-24.6,0-36.9c0-0.8-0.7-2.1,1-2.3c3.4-1,6.8-0.5,10.2-0.4
	c3.5,0.1,4.6,2.9,3.8,8.4c-3.7,1.6-4.7,4.6-4.5,8.5c0.2,6.6,0.1,13.3,0.1,19.9C166.4,167.7,166.6,170.1,164.9,172z"/>
<path class="st1" d="M214.9,172c0.1-3.2-0.9-6.2-1.8-9.3c-0.6-2,0.4-4.3-1.2-6c0.1-4.3-1.9-8.3-2.1-12.7c-0.1-1.3-1.1-2.6-0.9-4.1
	c-1.3-2.8,0.3-3.9,2.7-4.2c2.7-0.4,5.5-0.4,8.2,0.3c0.6,0.2,1.1,0.5,1.5,0.9c3.1,6,2.9,12.6,4.1,19c-0.3,5.4,0.6,10.8-0.5,16.1
	L214.9,172z"/>
<path class="st1" d="M164.9,172v-35h6c0,3.5,0.6,7,1.8,10.3c0.6,2-0.4,4.3,1.2,6c-0.6,2.6,0.7,5.2,1.3,7.5s0.1,5,1.6,7.3
	c0.6,0.9,0.1,2.6,0.1,3.9L164.9,172z"/>
<path class="st1" d="M195.9,137c-0.1,3.2,0.9,6.2,1.8,9.2c0.6,2-0.4,4.3,1.2,6c0.3,6.2,2.9,12,3,18.2c0,0.6,1.1,0.8,1,1.6h-8.5
	c-0.1-0.1-0.2-0.2-0.4-0.3c-0.1-0.1-0.2-0.3-0.2-0.4c0-6.6,0-13.3,0-19.8c-1-0.8-2-0.3-3-0.4c-1.4,0-1,1.1-1,1.8c0,4.5,0,8.9,0,13.4
	c0,0.9,0.4,2-0.5,2.8l-6.5-32l0.6-0.6c6.1-1.3,6.8-0.8,6.9,5.4c0,1.4-0.4,2.9,0.5,4.3c0.2,1.4,1,1.2,1.9,0.6
	c0.4-0.2,0.7-0.4,1.1-0.6c0.5-0.6,0.6-1.3,0.5-2.1c-0.1-2.3,0-4.5,0.1-6.8C194.9,136.8,195.5,136.7,195.9,137z"/>
<path class="st8" d="M170.9,137c-0.1-1.1-1.4-1.7-1-3c0.5-1.8-1-3.2-1.2-5h-11.8c-0.1-0.4,0.1-0.8,0.5-1c0.1,0,0.2,0,0.3,0
	c10.5,0,20.9,0,31.4,0c0.4,0,0.8,0.3,0.8,0.7c0,0.1,0,0.2,0,0.3c-1.4,1.7-3.8,0.9-5.5,2c-1.6,1.7,0.4,4.4-1.5,6H170.9z"/>
<path class="st9" d="M194.9,137v8c-0.2,0.3-0.6,0.3-0.9,0.1c0,0-0.1-0.1-0.1-0.1v-16.9h32v4.3c0,12.5,0,24.9,0,37.3
	c0,0.8,0.7,2.1-1,2.3v-17c-0.9-4.1-1-8.4-1.4-12.5c-0.2-2.3-0.8-4.1-2.6-5.5c-2.2-7.5-8.2-7-14.1-6.6c-0.3,0-0.7,0-1,0
	C200.4,129.6,196,130.6,194.9,137z"/>
<path class="st10" d="M182.9,137c-0.2-0.9,0.4-2-0.3-2.8c-1.5-1.6-0.1-3.4-1-5.2h8.4c1.3,0,1,1,1,1.8c0,5.1,0,10.2,0,15.3
	c-1,0.1-1-0.6-1-1.3V137H182.9z"/>
<path class="st2" d="M152.9,125c0.2-1.7,1.5-1,2.3-1c12.2,0,24.5,0,36.7,0c-0.2,1.7-1.5,1-2.3,1C177.4,125,165.2,125,152.9,125z"/>
<path class="st6" d="M192.9,124h32c0.1,0.4-0.1,0.8-0.5,1c-0.1,0-0.2,0-0.3,0c-10.1,0-20.3,0-30.4,0c-0.4,0-0.8-0.3-0.8-0.7
	C192.9,124.2,192.9,124.1,192.9,124z"/>
<path class="st8" d="M193.9,145h1c0.1,0.5-0.2,0.9-0.7,1c-0.1,0-0.2,0-0.3,0V145z"/>
<path class="st7" d="M206.9,129h13.1c-0.9,3,1,5.3,0.9,8h-11.6c-0.7,1.1-0.3,2.1-0.4,3c-1.9-0.5-0.6-2-1-3
	C205.8,134.6,204.9,132,206.9,129z"/>
<path class="st8" d="M206.9,129c-0.7,2.8,1.1,5.3,1,8h-13v-8H206.9z"/>
<path class="st2" d="M220.9,137h3.8c0.5,6,0.1,12,0.2,18c-0.3-0.1-0.8-0.2-0.8-0.4c0-4.6-2-8.9-2.3-13.6
	C221.7,139.8,220.7,138.5,220.9,137z"/>
<path class="st0" d="M178.9,64.4c2.5,0.4,3.4,1.7,2.8,4.2h-28.5c-1.1-2.9,0.7-3.7,2.7-4.4c0-7.3,0-14.6,0-21.9
	c0-3.3,0.3-3.7,3.7-3.7c5.3,0,10.6,0,16,0c2.8,0,3.3,0.6,3.3,3.5C178.9,49.4,178.9,56.7,178.9,64.4z"/>
<path class="st1" d="M159.9,47.6v-5h7c2.5,7.1,5.7,14.2,3,22h-6c-3.1-3-2.4-7-3.1-10.7C160.4,51.8,161,49.6,159.9,47.6z"/>
<path class="st1" d="M169.9,64.6c-0.1-2.3,0.8-4.9-0.4-6.7s0.6-4.4-1.6-5.8c0.6-3.3-1.7-6.2-1-9.5h7.8c0.4,7.2,0,14.4,0.2,22H169.9z
	"/>
<path class="st1" d="M159.9,47.6c0.3,0.1,0.8,0.2,0.8,0.3c0.1,4.6,2.2,8.9,2.2,13.6c0,1.1,1.5,1.8,1,3.1h-3.8
	C159.7,58.9,160,53.2,159.9,47.6z"/>
<path class="st0" d="M178.8,106.6c2.5,0.4,3.4,1.7,2.8,4.2h-28.5c-1.1-2.9,0.7-3.7,2.7-4.4c0-7.3,0-14.6,0-21.9
	c0-3.3,0.3-3.7,3.7-3.7c5.3,0,10.7,0,16,0c2.8,0,3.3,0.6,3.3,3.5C178.8,91.7,178.8,99,178.8,106.6z"/>
<path class="st1" d="M159.8,89.8v-5h7c2.5,7.1,5.7,14.2,3,22h-6c-3.1-3-2.4-7-3.1-10.7C160.3,94,160.8,91.8,159.8,89.8z"/>
<path class="st1" d="M169.8,106.8c-0.1-2.3,0.8-4.9-0.4-6.7s0.6-4.4-1.6-5.8c0.6-3.3-1.7-6.2-1-9.5h7.8c0.4,7.2,0,14.4,0.2,22H169.8
	z"/>
<path class="st1" d="M159.8,89.8c0.3,0.1,0.8,0.2,0.8,0.3c0.1,4.6,2.2,8.9,2.2,13.6c0,1.1,1.5,1.8,1,3.1H160
	C159.5,101.2,159.9,95.5,159.8,89.8z"/>
<path class="st0" d="M139.2,156.3c2.5,0.4,3.4,1.7,2.8,4.2h-28.5c-1.1-2.9,0.7-3.7,2.7-4.4c0-7.3,0-14.6,0-21.9
	c0-3.3,0.3-3.6,3.7-3.7c5.3,0,10.7,0,16,0c2.8,0,3.3,0.6,3.3,3.5C139.2,141.3,139.2,148.7,139.2,156.3z"/>
<path class="st1" d="M120.2,139.5v-5h7c2.5,7.1,5.7,14.2,3,22h-6c-3.1-3-2.4-7-3.1-10.7C120.7,143.7,121.2,141.5,120.2,139.5z"/>
<path class="st1" d="M130.2,156.5c-0.1-2.3,0.8-4.9-0.4-6.7s0.6-4.4-1.6-5.8c0.6-3.3-1.7-6.2-1-9.5h7.8c0.4,7.2,0,14.4,0.2,22H130.2
	z"/>
<path class="st1" d="M120.2,139.5c0.3,0.1,0.8,0.2,0.8,0.4c0.1,4.6,2.2,8.9,2.2,13.6c0,1.1,1.5,1.8,1,3.1h-3.8
	C119.9,150.8,120.3,145.2,120.2,139.5z"/>
<path class="st0" d="M69.9,121h21c0,9.3,0,18.2,0,27.1c0.2,1.3-0.7,2.6-2,2.9c-5.3,0-10.6,0-15.9,0c-2.4,0-3.1-0.7-3.1-3.2
	C69.9,138.9,69.9,129.9,69.9,121z"/>
<path class="st1" d="M86.9,143.2v3.8h-7c-2.8-3-2.8-6.9-3.7-10.5s-1.5-7-2.3-10.5c-0.1-0.4,0.1-0.8,0.5-0.9c0.1,0,0.2,0,0.3,0
	c3.8,0,7.6,0,11.4,0c0.4,0,0.8,0.3,0.8,0.7c0,0.1,0,0.2,0,0.3c-1.4,1-2.3,2.2-1.9,4.1C86.1,134.4,85.8,138.9,86.9,143.2z"/>
<path class="st1" d="M73.9,125h1.8c0,4.5,1.8,8.8,2.2,13.4c0.3,2,0.8,3.9,1.7,5.8c0.4,1,0.1,1.9,0.3,2.9h-6.6
	c-0.8-1.3-0.4-2.8-0.4-4.3c-0.1-5.3,0-10.6,0-16C72.9,126.1,72.6,125,73.9,125z"/>
<path class="st1" d="M86.9,143c-0.3-0.1-0.8-0.2-0.8-0.3c0-4.6-2.2-8.8-2.2-13.4c0-1.3-1.7-2.4-0.6-4.3h3.6V143z"/>
<path class="st0" d="M69.6,77.7h21c0,9.5,0,18.6,0,27.8c0.2,1.3-0.7,2.6-2,2.9c-5.3,0-10.6,0-15.9,0c-2.4,0-3.1-0.8-3.1-3.3
	C69.5,96,69.6,86.9,69.6,77.7z"/>
<path class="st1" d="M86.6,100.4v3.9h-7c-2.8-3.1-2.8-7.1-3.7-10.8s-1.5-7.2-2.3-10.8c-0.1-0.4,0.1-0.8,0.5-1c0.1,0,0.2-0.1,0.3,0
	c3.8,0,7.6,0,11.4,0c0.4,0,0.8,0.3,0.8,0.7c0,0.1,0,0.2,0,0.3c-1.4,1.1-2.3,2.3-1.9,4.2C85.7,91.4,85.5,96,86.6,100.4z"/>
<path class="st1" d="M73.6,81.8h1.8c0,4.7,1.8,9,2.2,13.7c0.3,2,0.8,4,1.7,5.9c0.4,1,0.1,2,0.3,2.9H73c-0.8-1.4-0.4-2.9-0.4-4.4
	c-0.1-5.4,0-10.9,0-16.3C72.6,82.9,72.2,81.8,73.6,81.8z"/>
<path class="st1" d="M86.6,100.2c-0.3-0.1-0.8-0.2-0.8-0.3c0-4.7-2.2-9-2.2-13.7c0-1.4-1.7-2.4-0.6-4.4h3.6V100.2z"/>
<path class="st0" d="M140.1,64.4c0-7.6,0-15,0-22.3c0-2.9-0.6-3.5-3.3-3.5c-5.3,0-10.7,0-16,0c-3.3,0-3.7,0.3-3.7,3.7
	c0,6.1,0,12.2,0,18.3h6.5v4h-7.6c-1.5,0.7-2.5,1.6-1.6,4h28.5C143.5,66,142.7,64.8,140.1,64.4z"/>
<rect x="120.6" y="41.2" class="st1" width="16" height="23.4"/>
<path class="st0" d="M140.5,106.6c0-7.6,0-15,0-22.3c0-2.9-0.6-3.5-3.3-3.5c-5.3,0-10.7,0-16,0c-3.3,0-3.7,0.3-3.7,3.7
	c0,6.1,0,12.2,0,18.3h6.5v4h-7.6c-1.5,0.7-2.5,1.6-1.6,4h28.5C143.9,108.3,143,107,140.5,106.6z"/>
<rect x="121" y="83.5" class="st1" width="16" height="23.4"/>
<g class="st11">
	<path class="st12" d="M178.9,64.3c0-7.6,0-15,0-22.3c0-2.9-0.6-3.5-3.3-3.5c-5.3,0-10.7,0-16,0c-3.3,0-3.7,0.3-3.7,3.7
		c0,7.3,0,14.6,0,21.9c-2,0.8-3.8,1.5-2.7,4.4h28.5C182.3,66,181.5,64.7,178.9,64.3z M169.9,64.5h-6h0h-3.8
		c-0.5-5.7-0.1-11.3-0.2-17v-5h7h7.8c0.4,7.2,0,14.4,0.2,22H169.9z"/>
	<path class="st12" d="M169.5,57.8c-1.2-1.8,0.6-4.4-1.6-5.8c0.6-3.3-1.7-6.2-1-9.5h-7v5c0.3,0.1,0.8,0.2,0.8,0.3
		c0.1,4.6,2.2,8.9,2.2,13.6c0,1.1,1.5,1.8,1,3.1h6C169.8,62.3,170.7,59.7,169.5,57.8z"/>
	<path class="st12" d="M174.8,42.5h-7.8c-0.7,3.3,1.6,6.2,1,9.5c2.2,1.4,0.4,4,1.6,5.8c1.2,1.8,0.3,4.5,0.4,6.7h5
		C174.8,57,175.2,49.8,174.8,42.5z"/>
	<path class="st12" d="M162.9,61.5c0-4.6-2.1-8.9-2.2-13.6c0-0.1-0.5-0.2-0.8-0.3c0.1,5.7-0.2,11.3,0.2,17h3.8h0
		C164.5,63.2,162.9,62.6,162.9,61.5z"/>
	<path class="st12" d="M178.8,106.6c0-7.6,0-15,0-22.3c0-2.9-0.6-3.5-3.3-3.5c-5.3,0-10.7,0-16,0c-3.3,0-3.7,0.3-3.7,3.7
		c0,7.3,0,14.6,0,21.9c-2,0.8-3.8,1.5-2.7,4.4h28.5C182.2,108.2,181.3,107,178.8,106.6z M169.8,106.8h-6h0H160
		c-0.5-5.7-0.1-11.3-0.2-17v-5h7h7.8c0.4,7.2,0,14.4,0.2,22H169.8z"/>
	<path class="st12" d="M169.3,100.1c-1.2-1.9,0.7-4.4-1.6-5.8c0.6-3.3-1.7-6.2-1-9.5h-7v5c0.3,0.1,0.8,0.2,0.8,0.3
		c0.1,4.6,2.2,8.9,2.2,13.6c0,1.1,1.5,1.8,1,3.1h6C169.6,104.5,170.6,101.9,169.3,100.1z"/>
	<path class="st12" d="M174.6,84.8h-7.8c-0.7,3.3,1.6,6.2,1,9.5c2.2,1.4,0.4,4,1.6,5.8c1.2,1.9,0.3,4.5,0.4,6.7h5.1
		C174.6,99.2,175,92,174.6,84.8z"/>
	<path class="st12" d="M162.8,103.7c0-4.6-2.1-8.9-2.2-13.6c0-0.1-0.5-0.2-0.8-0.3c0.1,5.7-0.2,11.3,0.2,17h3.8h0
		C164.3,105.5,162.8,104.8,162.8,103.7z"/>
	<path class="st12" d="M139.2,156.2c0-7.6,0-14.9,0-22.3c0-2.9-0.6-3.5-3.3-3.5c-5.3,0-10.7,0-16,0c-3.3,0-3.7,0.3-3.7,3.7
		c0,7.3,0,14.6,0,21.9c-2,0.8-3.8,1.5-2.7,4.4H142C142.6,157.9,141.7,156.6,139.2,156.2z M130.2,156.5h-6h0h-3.8
		c-0.5-5.6-0.1-11.3-0.2-17v-5h7h7.8c0.4,7.2,0,14.4,0.2,22H130.2z"/>
	<path class="st12" d="M129.7,149.7c-1.2-1.8,0.7-4.4-1.6-5.8c0.6-3.3-1.7-6.2-1-9.5h-7v5c0.3,0.1,0.8,0.2,0.8,0.4
		c0.1,4.6,2.2,8.9,2.2,13.6c0,1.1,1.5,1.8,1,3.1h6C130,154.2,131,151.6,129.7,149.7z"/>
	<path class="st12" d="M135,134.5h-7.8c-0.7,3.3,1.6,6.2,1,9.5c2.2,1.4,0.4,4,1.6,5.8c1.2,1.9,0.3,4.5,0.4,6.7h5.1
		C135,148.9,135.4,141.7,135,134.5z"/>
	<path class="st12" d="M123.2,153.4c0-4.6-2.1-8.9-2.2-13.6c0-0.1-0.5-0.2-0.8-0.4c0.1,5.7-0.2,11.4,0.2,17h3.8h0
		C124.7,155.2,123.2,154.5,123.2,153.4z"/>
	<path class="st12" d="M90.9,121h-21c0,8.9,0,17.9,0,26.8c0,2.5,0.7,3.2,3.1,3.2c5.3,0,10.6,0,15.9,0c1.3-0.3,2.2-1.5,2-2.9
		C90.9,139.2,90.9,130.2,90.9,121z M86.9,126v17c0,0,0,0,0,0c0,0.1,0,0.1,0,0.2v3.8h-7h-6.6c-0.8-1.3-0.4-2.8-0.4-4.3
		c-0.1-5.3,0-10.6,0-16c0-0.7-0.4-1.7,1-1.7h1.8c0,0,0,0,0,0c2.5,0,5,0,7.5,0c0,0,0,0,0,0h3.6v0.6c0,0,0,0.1,0,0.1
		C87,125.8,87,125.9,86.9,126z"/>
	<path class="st12" d="M83.9,129.2c0-1.3-1.6-2.4-0.6-4.2c-2.5,0-5,0-7.5,0c0,4.5,1.8,8.8,2.2,13.3c0.3,2,0.8,3.9,1.7,5.8
		c0.4,1,0.1,1.9,0.3,2.9h7v-3.8c0-0.1,0-0.1,0-0.2c-0.3-0.1-0.8-0.2-0.8-0.3C86.1,138,83.9,133.8,83.9,129.2z"/>
	<path class="st12" d="M86.9,126c0-0.1,0-0.2,0-0.3c0,0,0-0.1,0-0.1V126z"/>
	<path class="st12" d="M79.7,144.1c-0.8-1.8-1.4-3.8-1.7-5.8c-0.4-4.5-2.2-8.8-2.2-13.3c0,0,0,0,0,0h-1.8c-1.4,0-1,1.1-1,1.7
		c0,5.4-0.1,10.7,0,16c0,1.4-0.4,2.9,0.4,4.3h6.6C79.8,146,80.1,145.1,79.7,144.1z"/>
	<path class="st12" d="M86.9,125h-3.6c0,0,0,0,0,0c-1,1.8,0.6,2.9,0.6,4.2c0,4.6,2.2,8.8,2.2,13.4c0,0.1,0.5,0.2,0.8,0.3
		c0,0,0,0,0,0v-17v-0.4V125z"/>
	<path class="st12" d="M72.7,108.4c5.3,0,10.6,0,15.9,0c1.3-0.3,2.2-1.6,2-2.9c0-9.2,0-18.3,0-27.8h-21c0,9.1,0,18.3,0,27.5
		C69.6,107.7,70.3,108.4,72.7,108.4z M72.6,83.6c0-0.7-0.4-1.8,1-1.8h0.8c0.4,0,0.7,0,1.1,0c2.5,0,5,0,7.5,0c1,0,1.9,0,2.9,0h0.8
		v0.5c0,0,0,0.1,0,0.1c0,0.1,0,0.2,0,0.3v17.4c0,0,0,0,0,0c0,0.1,0,0.1,0,0.2v3.9h-7H73c-0.8-1.4-0.4-2.9-0.4-4.4
		C72.5,94.5,72.6,89,72.6,83.6z"/>
	<path class="st12" d="M79.3,101.4c0.4,1,0.1,2,0.3,2.9h7v-3.9c0-0.1,0-0.1,0-0.2c-0.3-0.1-0.8-0.2-0.8-0.3c0-4.7-2.2-9-2.2-13.7
		c0-1.4-1.7-2.5-0.6-4.4c-2.5,0-5,0-7.5,0c0,4.7,1.8,9,2.2,13.7C77.9,97.5,78.5,99.5,79.3,101.4z"/>
	<path class="st12" d="M86.6,82.4c0,0,0-0.1,0-0.1v0.5C86.6,82.7,86.6,82.6,86.6,82.4z"/>
	<path class="st12" d="M73,104.3h6.6c-0.2-0.9,0.1-1.9-0.3-2.9c-0.8-1.9-1.4-3.9-1.7-5.9c-0.5-4.7-2.2-9-2.2-13.7
		c-0.4,0-0.7,0-1.1,0h-0.8c-1.4,0-1,1.1-1,1.8c0,5.4-0.1,10.9,0,16.3C72.6,101.4,72.2,102.9,73,104.3z"/>
	<path class="st12" d="M83.5,86.1c0,4.7,2.2,9,2.2,13.7c0,0.1,0.5,0.2,0.8,0.3c0,0,0,0,0,0V82.8v-0.5v-0.5h-0.8c-1,0-1.9,0-2.9,0
		C81.9,83.7,83.5,84.8,83.5,86.1z"/>
	<path class="st12" d="M142.9,68.6c0.6-2.6-0.3-3.8-2.8-4.2c0-7.6,0-15,0-22.3c0-2.9-0.6-3.5-3.3-3.5c-5.3,0-10.7,0-16,0
		c-3.3,0-3.7,0.3-3.7,3.7c0,6.1,0,12.2,0,18.3h3.5V41.2h16v23.4h-12.9h-3h-4.5c-1.5,0.7-2.5,1.6-1.6,4H142.9z"/>
	<polygon class="st12" points="136.6,64.6 136.6,41.2 120.6,41.2 120.6,60.6 120.6,64.6 123.7,64.6 	"/>
	<path class="st12" d="M140.5,106.6c0-7.6,0-15,0-22.3c0-2.9-0.6-3.5-3.3-3.5c-5.3,0-10.7,0-16,0c-3.3,0-3.7,0.3-3.7,3.7
		c0,6.1,0,12.2,0,18.3h3.5V83.4h16v23.4H124h-3h-4.5c-1.5,0.7-2.5,1.6-1.6,4h28.5C143.9,108.2,143,107,140.5,106.6z"/>
	<polygon class="st12" points="137,106.8 137,83.4 121,83.4 121,102.8 121,106.8 124,106.8 	"/>
</g>
</svg>
