<?xml version="1.0" encoding="UTF-8"?>
<svg width="289px" height="196px" viewBox="0 0 289 196" version="1.1" xmlns="http://www.w3.org/2000/svg" xmlns:xlink="http://www.w3.org/1999/xlink">
    <title>Pizza_mobile_2</title>
    <defs>
        <path d="M138.639,1.005 C102.35625,2.6895 67.677,12.318 47.8755,23.25375 L47.8755,23.25375 C44.16675,25.302 39.87825,27.93225 36.55875,30.19425 L36.55875,30.19425 C33.08025,32.56425 30.591,35.445 27.56175,38.028 L27.56175,38.028 C20.0775,44.4105 13.998,51.41025 9.48375,58.866 L9.48375,58.866 C8.724,60.1215 7.317,63.28875 6.6465,64.56975 L6.6465,64.56975 C5.52225,66.71625 4.47,69.00825 3.603,71.22 L3.603,71.22 C0.85125,78.24375 0.16425,83.565 0.16425,91.08675 L0.16425,91.08675 C0.16425,100.90575 2.60925,110.45025 7.23975,119.4405 L7.23975,119.4405 C8.18025,121.266 8.75775,123.1635 9.87675,124.941 L9.87675,124.941 C11.142,126.9525 12.9735,128.83725 14.46075,130.78125 L14.46075,130.78125 C17.60325,134.886 21.23325,138.83175 25.3215,142.58625 L25.3215,142.58625 C28.6965,145.6845 31.503,147.612 35.4855,150.432 L35.4855,150.432 C39.06825,152.9685 42.49125,156.15675 46.5405,158.4405 L46.5405,158.4405 C49.56075,160.14375 53.98875,162.04425 57.2565,163.59375 L57.2565,163.59375 C68.80575,169.07175 81.87,171.6105 96.22425,174.85875 L96.22425,174.85875 C97.836,175.22325 99.32475,175.89525 100.96875,176.22825 L100.96875,176.22825 C103.026,176.64525 105.2475,176.715 107.35425,177.08175 L107.35425,177.08175 C110.64825,177.65475 112.6215,178.46925 116.0325,178.91475 L116.0325,178.91475 C118.4175,179.226 122.2095,179.202 124.64925,179.44875 L124.64925,179.44875 C132.909,180.285 138.14925,180.70725 146.99925,180.75975 L146.99925,180.75975 C147.5715,180.7635 151.73475,181.54725 152.30925,181.54725 L152.30925,181.54725 C153.26775,181.54725 158.7075,180.7125 159.65925,180.7035 L159.65925,180.7035 C169.197,180.60825 173.66325,180.1245 182.505,179.121 L182.505,179.121 C183.85425,178.968 185.235,178.98525 186.60825,179.0025 L186.60825,179.0025 C188.142,179.022 189.66825,179.04075 191.1345,178.8225 L191.1345,178.8225 C195.213,178.2165 199.029,176.7075 202.93275,175.91775 L202.93275,175.91775 C227.7675,170.8905 248.96325,164.17725 265.431,153.06375 L265.431,153.06375 C275.04075,144.31425 266.424,130.9785 257.985,125.97375 L257.985,125.97375 C255.08325,124.2525 251.5455,123.98325 248.403,125.2125 L248.403,125.2125 L244.8495,126.603 L157.34775,83.9775 C157.34775,83.9775 160.89375,39.38775 164.7975,25.06425 L164.7975,25.06425 C165.96075,22.383 167.42475,9.4365 166.314,2.658 L166.314,2.658 C165.525,1.44825 161.25525,0.71625 160.67775,0.71175 L160.67775,0.71175 C159.42075,0.70125 153.948,0.069 151.89975,0.069 L151.89975,0.069 C147.35475,0.069 143.034,0.801 138.639,1.005" id="path-1"></path>
        <path d="M138.639,1.005 C102.35625,2.6895 67.677,12.318 47.8755,23.25375 L47.8755,23.25375 C44.16675,25.302 39.87825,27.93225 36.55875,30.19425 L36.55875,30.19425 C33.08025,32.56425 30.591,35.445 27.56175,38.028 L27.56175,38.028 C20.0775,44.4105 13.998,51.41025 9.48375,58.866 L9.48375,58.866 C8.724,60.1215 7.317,63.28875 6.6465,64.56975 L6.6465,64.56975 C5.52225,66.71625 4.47,69.00825 3.603,71.22 L3.603,71.22 C0.85125,78.24375 0.16425,83.565 0.16425,91.08675 L0.16425,91.08675 C0.16425,100.90575 2.60925,110.45025 7.23975,119.4405 L7.23975,119.4405 C8.18025,121.266 8.75775,123.1635 9.87675,124.941 L9.87675,124.941 C11.142,126.9525 12.9735,128.83725 14.46075,130.78125 L14.46075,130.78125 C17.60325,134.886 21.23325,138.83175 25.3215,142.58625 L25.3215,142.58625 C28.6965,145.6845 31.503,147.612 35.4855,150.432 L35.4855,150.432 C39.06825,152.9685 42.49125,156.15675 46.5405,158.4405 L46.5405,158.4405 C49.56075,160.14375 53.98875,162.04425 57.2565,163.59375 L57.2565,163.59375 C68.80575,169.07175 81.87,171.6105 96.22425,174.85875 L96.22425,174.85875 C97.836,175.22325 99.32475,175.89525 100.96875,176.22825 L100.96875,176.22825 C103.026,176.64525 105.2475,176.715 107.35425,177.08175 L107.35425,177.08175 C110.64825,177.65475 112.6215,178.46925 116.0325,178.91475 L116.0325,178.91475 C118.4175,179.226 122.2095,179.202 124.64925,179.44875 L124.64925,179.44875 C132.909,180.285 138.14925,180.70725 146.99925,180.75975 L146.99925,180.75975 C147.5715,180.7635 151.73475,181.54725 152.30925,181.54725 L152.30925,181.54725 C153.26775,181.54725 158.7075,180.7125 159.65925,180.7035 L159.65925,180.7035 C169.197,180.60825 173.66325,180.1245 182.505,179.121 L182.505,179.121 C183.85425,178.968 185.235,178.98525 186.60825,179.0025 L186.60825,179.0025 C188.142,179.022 189.66825,179.04075 191.1345,178.8225 L191.1345,178.8225 C195.213,178.2165 199.029,176.7075 202.93275,175.91775 L202.93275,175.91775 C227.7675,170.8905 248.96325,164.17725 265.431,153.06375 L265.431,153.06375 C275.04075,144.31425 266.424,130.9785 257.985,125.97375 L257.985,125.97375 C255.08325,124.2525 251.5455,123.98325 248.403,125.2125 L248.403,125.2125 L244.8495,126.603 L157.34775,83.9775 C157.34775,83.9775 160.89375,39.38775 164.7975,25.06425 L164.7975,25.06425 C165.96075,22.383 167.42475,9.4365 166.314,2.658 L166.314,2.658 C165.525,1.44825 161.25525,0.71625 160.67775,0.71175 L160.67775,0.71175 C159.42075,0.70125 153.948,0.069 151.89975,0.069 L151.89975,0.069 C147.35475,0.069 143.034,0.801 138.639,1.005" id="path-3"></path>
        <path d="M11.56125,6.126 C14.31675,7.404 19.464,9.18 23.17425,10.716 L23.17425,10.716 L0.63375,0.38025 C3.177,1.73775 8.76825,4.83 11.56125,6.126 L11.56125,6.126 Z M27.558,12.726 C26.68275,12.32025 25.998,11.997 25.68225,11.83875 L25.68225,11.83875 C24.984,11.4885 24.12675,11.1105 23.17425,10.716 L23.17425,10.716 L27.558,12.726 Z M32.07675,14.79825 L27.558,12.726 C28.842,13.32225 30.53625,14.0985 32.07675,14.79825 L32.07675,14.79825 Z M37.0155,17.06325 C36.64425,16.8585 36.2805,16.6755 35.92725,16.52475 L35.92725,16.52475 C35.415,16.30725 33.8475,15.603 32.07675,14.79825 L32.07675,14.79825 L37.0155,17.06325 Z M43.1625,20.475 C43.4985,20.577 44.53125,20.6775 45.459,20.93475 L45.459,20.93475 L37.0155,17.06325 C39.0045,18.1605 41.199,19.87725 43.1625,20.475 L43.1625,20.475 Z M46.839,21.56775 C46.75575,21.5115 46.674,21.45675 46.59375,21.40425 L46.59375,21.40425 C46.28925,21.20475 45.885,21.05325 45.459,20.93475 L45.459,20.93475 L46.839,21.56775 Z M50.10825,23.86575 C51.651,24.7245 57.02175,26.88375 57.67275,27.21975 L57.67275,27.21975 C58.5645,27.67875 60.384,27.97275 61.611,28.34175 L61.611,28.34175 L46.839,21.56775 C48.063,22.39425 49.557,23.55825 50.10825,23.86575 L50.10825,23.86575 Z M63.13125,29.0385 C62.823,28.8525 62.53725,28.69575 62.28975,28.58475 L62.28975,28.58475 C62.0985,28.4985 61.86825,28.41825 61.611,28.34175 L61.611,28.34175 L63.13125,29.0385 Z M66.918,31.44825 C69.111,32.54775 73.2615,33.903 76.311,35.082 L76.311,35.082 L63.13125,29.0385 C64.35975,29.77725 65.9505,30.963 66.918,31.44825 L66.918,31.44825 Z" id="path-5"></path>
    </defs>
    <g id="Pizza_mobile_2" stroke="none" stroke-width="1" fill="none" fill-rule="evenodd">
        <g id="Group-141" transform="translate(-8.000000, 0.000000)">
            <g id="Group-5" transform="translate(7.750000, 0.681000)">
                <path d="M152.718144,112.19295 C152.718144,127.1442 297.154744,141.1392 283.590954,153.11445 C257.037729,176.55645 208.36534,192.26145 152.718144,192.26145 C68.6448648,192.26145 0.489783072,156.4137 0.489783072,112.19295 C0.489783072,67.9722 68.6448648,32.12445 152.718144,32.12445 C164.832168,42.7962 152.718144,67.9722 152.718144,112.19295" id="Fill-1" fill-opacity="0.04" fill="#494949"></path>
                <path d="M171.3479,83.97765 C171.3479,83.97765 174.8939,39.38715 178.7984,25.0644 C179.9609,22.38315 181.4249,9.43665 180.31415,2.65815 C179.52515,1.44765 175.2554,0.7164 174.67715,0.7119 C173.4209,0.7014 167.94815,0.06915 165.8999,0.06915 C161.35565,0.06915 157.0334,0.80115 152.63915,1.00515 C116.3564,2.6889 81.67715,12.3189 61.87565,23.2539 C58.1669,25.30215 53.8784,27.9324 50.5589,30.1944 C47.0804,32.56365 44.5904,35.44515 41.5619,38.02815 C34.07765,44.41065 27.99815,51.4104 23.4839,58.86615 C22.72415,60.1224 21.31715,63.2889 20.64665,64.5699 C19.5224,66.71715 18.4694,69.0084 17.60315,71.22015 C14.8514,78.24315 14.16365,83.56515 14.16365,91.0869 C14.16365,100.9059 16.6094,110.4504 21.2399,119.44065 C22.1804,121.26615 22.7579,123.16365 23.87615,124.94115 C25.14215,126.95265 26.97365,128.8374 28.46165,130.7814 C31.6034,134.88615 35.2334,138.8319 39.3224,142.58565 C42.69665,145.68465 45.5024,147.6114 49.48565,150.43215 C53.0684,152.96865 56.4914,156.1569 60.54065,158.44065 C63.5609,160.1439 67.98815,162.0444 71.2559,163.5939 C82.8059,169.07115 95.87015,171.61065 110.2244,174.8589 C111.83615,175.2234 113.3249,175.89465 114.9689,176.2284 C117.02615,176.6454 119.2469,176.71515 121.35365,177.0819 C124.64765,177.6549 126.62165,178.4694 130.03265,178.9149 C132.41765,179.22615 136.20965,179.20215 138.6494,179.4489 C146.90915,180.28515 152.1494,180.70665 160.9994,180.7599 C161.57165,180.7629 165.73415,181.5474 166.30865,181.5474 C167.26715,181.5474 172.7069,180.71265 173.6594,180.7029 C183.19715,180.60765 187.6634,180.12465 196.50515,179.12115 C199.36115,178.79715 202.3559,179.23515 205.1339,178.82265 C209.21315,178.2159 213.02915,176.7084 216.9329,175.9179 C241.7669,170.89065 262.9634,164.1774 279.43115,153.0639 C289.0409,144.31365 280.42415,130.97865 271.98515,125.97315 C269.08265,124.2519 265.54565,123.98265 262.40315,125.21265 L258.84965,126.60315" id="Fill-3" fill="#ECECEC"></path>
            </g>
            <g id="Group-12" transform="translate(21.750000, 0.681000)">
                <g id="Group-8">
                    <mask id="mask-2" fill="white">
                        <use xlink:href="#path-1"></use>
                    </mask>
                    <g id="Clip-7"></g>
                    <path d="M271.932525,138.4482 C271.932525,138.4482 237.044775,171.44445 144.974025,172.8117 C52.903275,174.17895 9.316275,114.5547 9.316275,114.5547 L-12.570225,70.0707 C-12.570225,70.0707 -11.814975,109.91145 -2.989725,127.2042 C23.427525,178.9737 138.638775,197.9997 138.638775,197.9997 L283.249275,158.3112 L271.932525,138.4482" id="Fill-6" fill-opacity="0.04" fill="#494949" mask="url(#mask-2)"></path>
                </g>
                <g id="Group-11">
                    <mask id="mask-4" fill="white">
                        <use xlink:href="#path-3"></use>
                    </mask>
                    <g id="Clip-10"></g>
                    <path d="M167.16765,14.2794 C142.09215,13.2684 111.78015,15.80715 80.46465,27.10665 C1.21665,55.69965 31.5864,105.0714 40.7589,110.47815 C49.93065,115.8849 161.79015,55.2834 161.79015,55.2834" id="Fill-9" fill-opacity="0.04" fill="#494949" mask="url(#mask-4)"></path>
                </g>
            </g>
            <g id="Group-19" transform="translate(21.750000, 0.681000)">
                <path d="M157.3479,83.97765 C157.3479,83.97765 160.8939,39.38715 164.7984,25.0644 C165.9609,22.38315 167.4249,9.43665 166.31415,2.65815 C165.52515,1.44765 161.2554,0.7164 160.67715,0.7119 C159.4209,0.7014 153.94815,0.06915 151.8999,0.06915 C147.35565,0.06915 143.0334,0.80115 138.63915,1.00515 C102.3564,2.6889 67.67715,12.3189 47.87565,23.2539 C44.1669,25.30215 39.8784,27.9324 36.5589,30.1944 C33.0804,32.56365 30.5904,35.44515 27.5619,38.02815 C20.07765,44.41065 13.99815,51.4104 9.4839,58.86615 C8.72415,60.1224 7.31715,63.2889 6.64665,64.5699 C5.5224,66.71715 4.4694,69.0084 3.60315,71.22015 C0.8514,78.24315 0.16365,83.56515 0.16365,91.0869 C0.16365,100.9059 2.6094,110.4504 7.2399,119.44065 C8.1804,121.26615 8.7579,123.16365 9.87615,124.94115 C11.14215,126.95265 12.97365,128.8374 14.46165,130.7814 C17.6034,134.88615 21.2334,138.8319 25.3224,142.58565 C28.69665,145.68465 31.5024,147.6114 35.48565,150.43215 C39.0684,152.96865 42.4914,156.1569 46.54065,158.44065 C49.5609,160.1439 53.98815,162.0444 57.2559,163.5939 C68.8059,169.07115 81.87015,171.61065 96.2244,174.8589 C97.83615,175.2234 99.3249,175.89465 100.9689,176.2284 C103.02615,176.6454 105.2469,176.71515 107.35365,177.0819 C110.64765,177.6549 112.62165,178.4694 116.03265,178.9149 C118.41765,179.22615 122.20965,179.20215 124.6494,179.4489 C132.90915,180.28515 138.1494,180.70665 146.9994,180.7599 C147.57165,180.7629 151.73415,181.5474 152.30865,181.5474 C153.26715,181.5474 158.7069,180.71265 159.6594,180.7029 C169.19715,180.60765 173.6634,180.12465 182.50515,179.12115 C185.36115,178.79715 188.3559,179.23515 191.1339,178.82265 C195.21315,178.2159 199.02915,176.7084 202.9329,175.9179 C227.7669,170.89065 248.9634,164.1774 265.43115,153.0639 C275.0409,144.31365 266.42415,130.97865 257.98515,125.97315 C255.08265,124.2519 251.54565,123.98265 248.40315,125.21265 L244.84965,126.60315" id="Stroke-13" stroke="#494949" stroke-width="1.5" stroke-linecap="round" stroke-linejoin="round"></path>
                <path d="M155.81055,83.081775 C152.76255,81.902775 148.6113,80.548275 146.4183,79.448775 C145.2078,78.842025 143.0223,77.137275 141.7893,76.584525 C140.6853,76.089525 138.25155,75.775275 137.1723,75.219525 C136.5213,74.883525 131.1513,72.725025 129.6078,71.865525 C129.0198,71.537775 127.3563,70.232775 126.09405,69.404775 C125.12505,68.768775 123.1533,68.624025 122.6628,68.474775 C120.33255,67.766025 117.6783,65.480775 115.4268,64.525275 C114.1668,63.989775 106.49355,60.496275 105.18255,59.838525 C101.76555,58.124775 94.5243,55.732275 91.06155,54.125775 C88.26855,52.829775 82.6773,49.737525 80.1333,48.380025" id="Fill-15" fill="#FFFFFF"></path>
                <path d="M164.7981,25.06455 C164.58735,25.0518 162.8031,24.7773 162.4386,24.7053 C161.93085,24.6048 161.41485,24.4908 161.2866,24.4863 C160.0746,24.44055 158.88735,24.17205 157.7151,23.8398 C156.8001,23.58105 155.9601,23.67855 155.1501,23.8878 C154.0746,24.1653 152.9766,24.3423 151.8696,24.35055 C145.1451,24.4008 138.55335,24.7308 132.1371,25.31955 C131.27085,25.39905 130.3986,25.3443 129.5436,25.17405 C126.73335,24.61605 125.26635,25.16505 123.1386,26.04105 C122.4546,26.32305 121.73385,26.5173 121.00635,26.62155 C89.83335,31.07355 63.74685,41.7393 48.2016,55.83705 C46.8861,57.02955 45.1116,59.5173 43.9506,60.75705 C42.2826,62.5383 41.31285,63.09705 39.97935,64.96755 C37.2186,68.84205 35.19735,72.8973 34.0011,77.0898 C33.64485,78.34005 32.9796,79.9833 32.7726,81.25755 C32.49435,82.9653 32.7336,84.3123 32.7336,86.0568 C32.7336,96.4533 37.7721,106.2498 46.67085,114.8448 C47.4861,115.63155 48.2751,116.90955 49.1541,117.67605 C50.2116,118.59855 51.37335,119.00505 52.52085,119.8968 C69.5511,133.12455 96.27885,142.8123 127.5456,146.32605 C135.95985,147.27105 141.5256,146.6013 150.49635,146.6013 C157.11435,146.6013 166.78485,147.4983 173.11335,146.97705 C180.5256,146.3658 188.03535,144.70305 194.93085,143.43705 C203.8236,141.8058 211.9101,140.36505 219.69735,137.7708 C229.0611,134.65155 237.5256,130.88805 244.84935,126.6033 L236.48385,121.48605 C230.2956,118.6563 221.62485,114.6468 217.7901,112.67055 C215.8506,111.67155 212.1501,109.29105 210.1776,108.3693 C208.18185,107.43555 203.9631,106.1868 201.95835,105.27705 C199.51485,104.1678 194.94285,101.21355 192.4671,100.19055 C191.5251,99.80205 189.50235,99.4608 188.57835,99.02805 C187.54035,98.5413 185.7531,96.98805 184.7241,96.48105 C181.1046,94.6983 173.32485,92.5788 169.64835,90.9333 C166.5576,89.55105 166.3581,88.3578 161.0721,85.53855" id="Fill-17" fill="#FCFCFC"></path>
            </g>
            <g id="Group-22" transform="translate(101.250000, 48.681000)">
                <mask id="mask-6" fill="white">
                    <use xlink:href="#path-5"></use>
                </mask>
                <g id="Clip-21"></g>
                <path d="M140.00775,-7.1649 C140.00775,-7.1649 39.117,-35.4519 -21.273,9.80685 C-81.66225,55.0656 23.34825,103.5066 23.34825,103.5066 L-61.07475,50.0661 L-35.97975,-8.86665 L70.10025,-33.97215 L150.50775,-25.24815 L140.00775,-7.1649 Z" id="Fill-20" fill="#494949" mask="url(#mask-6)"></path>
            </g>
            <g id="Group-140" transform="translate(0.000000, 19.431000)">
                <path d="M177.56055,64.331775 C174.51255,63.152775 170.3613,61.798275 168.1683,60.698775 C166.9578,60.092025 164.7723,58.387275 163.5393,57.834525 C162.4353,57.339525 160.00155,57.025275 158.9223,56.469525 C158.2713,56.133525 152.9013,53.975025 151.3578,53.115525 C150.7698,52.787775 149.1063,51.482775 147.84405,50.654775 C146.87505,50.018775 144.9033,49.874025 144.4128,49.724775 C142.08255,49.016025 139.4283,46.730775 137.1768,45.775275 C135.9168,45.239775 128.24355,41.746275 126.93255,41.088525 C123.51555,39.374775 116.2743,36.982275 112.81155,35.375775 C110.01855,34.079775 104.4273,30.987525 101.8833,29.630025" id="Stroke-23" stroke="#494949" stroke-width="1.5" stroke-linecap="round" stroke-linejoin="round"></path>
                <path d="M186.5481,6.31455 C186.33735,6.3018 184.5531,6.0273 184.1886,5.9553 C183.68085,5.8548 183.16485,5.7408 183.0366,5.7363 C181.8246,5.69055 180.63735,5.42205 179.4651,5.0898 C178.5501,4.83105 177.7101,4.92855 176.9001,5.1378 C175.8246,5.4153 174.7266,5.5923 173.6196,5.60055 C166.8951,5.6508 160.30335,5.9808 153.8871,6.56955 C153.02085,6.64905 152.1486,6.5943 151.2936,6.42405 C148.48335,5.86605 147.01635,6.41505 144.8886,7.29105 C144.2046,7.57305 143.48385,7.7673 142.75635,7.87155 C111.58335,12.32355 85.49685,22.9893 69.9516,37.08705 C68.6361,38.27955 66.8616,40.7673 65.7006,42.00705 C64.0326,43.7883 63.06285,44.34705 61.72935,46.21755 C58.9686,50.09205 56.94735,54.1473 55.7511,58.3398 C55.39485,59.59005 54.7296,61.2333 54.5226,62.50755 C54.24435,64.2153 54.4836,65.5623 54.4836,67.3068 C54.4836,77.7033 59.5221,87.4998 68.42085,96.0948 C69.2361,96.88155 70.0251,98.15955 70.9041,98.92605 C71.9616,99.84855 73.12335,100.25505 74.27085,101.1468 C91.3011,114.37455 118.02885,124.0623 149.2956,127.57605 C157.70985,128.52105 163.2756,127.8513 172.24635,127.8513 C178.86435,127.8513 188.53485,128.7483 194.86335,128.22705 C202.2756,127.6158 209.78535,125.95305 216.68085,124.68705 C225.5736,123.0558 233.6601,121.61505 241.44735,119.0208 C250.8111,115.90155 259.2756,112.13805 266.59935,107.8533 L258.23385,102.73605 C252.0456,99.9063 243.37485,95.8968 239.5401,93.92055 C237.6006,92.92155 233.9001,90.54105 231.9276,89.6193 C229.93185,88.68555 225.7131,87.4368 223.70835,86.52705 C221.26485,85.4178 216.69285,82.46355 214.2171,81.44055 C213.2751,81.05205 211.25235,80.7108 210.32835,80.27805 C209.29035,79.7913 207.5031,78.23805 206.4741,77.73105 C202.8546,75.9483 195.07485,73.8288 191.39835,72.1833 C188.3076,70.80105 188.1081,69.6078 182.8221,66.78855" id="Stroke-25" stroke="#494949" stroke-width="1.5" stroke-linecap="round" stroke-linejoin="round"></path>
                <g id="Group-30" transform="translate(152.250000, 65.250000)">
                    <polyline id="Fill-27" fill="#FFFFFF" points="0.269925 19.627875 5.438925 16.584375 11.312175 11.860125 18.939675 7.440375 28.388925 0.427125"></polyline>
                    <polyline id="Stroke-29" stroke="#494949" stroke-width="1.5" stroke-linecap="round" stroke-linejoin="round" points="0.269925 19.627875 5.438925 16.584375 11.312175 11.860125 18.939675 7.440375 28.388925 0.427125"></polyline>
                </g>
                <g id="Group-34" transform="translate(107.250000, 96.750000)">
                    <polyline id="Fill-31" fill="#FFFFFF" points="0.177675 18.3798 10.718175 11.24055 26.358675 0.1278"></polyline>
                    <polyline id="Stroke-33" stroke="#494949" stroke-width="1.5" stroke-linecap="round" stroke-linejoin="round" points="0.177675 18.3798 10.718175 11.24055 26.358675 0.1278"></polyline>
                </g>
                <path d="M82.747425,141.760575 C82.768425,142.320825 82.816425,142.860825 82.893675,143.376075" id="Stroke-35" stroke="#494949" stroke-width="1.5" stroke-linecap="round" stroke-linejoin="round"></path>
                <path d="M96.86175,118.184475 C89.07675,120.939225 83.88225,130.728975 82.9035,138.553725" id="Stroke-37" stroke="#494949" stroke-width="1.5" stroke-linecap="round" stroke-linejoin="round"></path>
                <g id="Group-42" transform="translate(145.500000, 38.250000)">
                    <path d="M16.9578,1.8222 C16.9578,1.8222 12.8853,-1.7148 7.70205,1.96095 C6.2403,0.6042 1.9578,-0.9108 0.2388,3.91245" id="Fill-39" fill="#FFFFFF"></path>
                    <path d="M16.9578,1.8222 C16.9578,1.8222 12.8853,-1.7148 7.70205,1.96095 C6.2403,0.6042 1.9578,-0.9108 0.2388,3.91245" id="Stroke-41" stroke="#494949" stroke-width="1.5" stroke-linecap="round" stroke-linejoin="round"></path>
                </g>
                <path d="M173.589675,106.182675 C173.589675,112.462425 163.475925,117.553425 150.999675,117.553425 C138.523425,117.553425 128.409675,112.462425 128.409675,106.182675 C128.409675,99.902925 138.523425,94.811925 150.999675,94.811925 C163.475925,94.811925 173.589675,99.902925 173.589675,106.182675" id="Fill-43" fill-opacity="0.04" fill="#494949"></path>
                <path d="M137.4588,100.002075 C137.0538,106.453575 143.6283,111.360075 155.4708,111.360075 C167.31405,111.360075 173.92005,106.453575 173.51505,100.002075 C173.4663,99.230325 173.51505,93.969075 173.51505,93.969075 C171.60705,89.733075 163.99605,93.305325 155.48655,93.305325 C147.5898,93.305325 139.90755,90.533325 137.4588,93.969075 C137.4588,93.969075 137.53155,98.841825 137.4588,100.002075" id="Fill-45" fill="#E0E0E0"></path>
                <path d="M137.4588,100.002075 C137.0538,106.453575 143.6283,111.360075 155.4708,111.360075 C167.31405,111.360075 173.92005,106.453575 173.51505,100.002075 C173.4663,99.230325 173.51505,93.969075 173.51505,93.969075 C171.60705,89.733075 163.99605,93.305325 155.48655,93.305325 C147.5898,93.305325 139.90755,90.533325 137.4588,93.969075 C137.4588,93.969075 137.53155,98.841825 137.4588,100.002075 Z" id="Stroke-47" stroke="#494949" stroke-width="1.5" stroke-linecap="round" stroke-linejoin="round"></path>
                <g id="Group-52" transform="translate(137.250000, 86.250000)">
                    <path d="M16.521675,19.031175 C17.075175,19.061175 17.642175,19.076925 18.221175,19.076925 C30.063675,19.076925 36.669675,14.170425 36.264675,7.718925 C35.986425,3.278175 30.431175,2.692425 24.491175,2.190675 L24.554925,0.481425 C22.608675,0.368925 20.432925,1.022175 18.236925,1.022175 C16.329675,1.022175 13.795425,0.635925 12.070425,0.714675 L12.310425,2.426175 C5.801175,2.836425 0.503925,3.013425 0.209175,7.718925 C-0.093825,12.538425 3.499425,15.811425 10.274925,17.942925" id="Fill-49" fill="#F7F7F7"></path>
                    <path d="M16.521675,19.031175 C17.075175,19.061175 17.642175,19.076925 18.221175,19.076925 C30.063675,19.076925 36.669675,14.170425 36.264675,7.718925 C35.986425,3.278175 30.431175,2.692425 24.491175,2.190675 L24.554925,0.481425 C22.608675,0.368925 20.432925,1.022175 18.236925,1.022175 C16.329675,1.022175 13.795425,0.635925 12.070425,0.714675 L12.310425,2.426175 C5.801175,2.836425 0.503925,3.013425 0.209175,7.718925 C-0.093825,12.538425 3.499425,15.811425 10.274925,17.942925" id="Stroke-51" stroke="#494949" stroke-width="1.5" stroke-linecap="round" stroke-linejoin="round"></path>
                </g>
                <g id="Group-56" transform="translate(150.000000, 104.250000)">
                    <path d="M0.313875,0.6288 C0.460125,0.6558 0.607125,0.6813 0.755625,0.70605" id="Fill-53" fill="#FFFFFF"></path>
                    <path d="M0.313875,0.6288 C0.460125,0.6558 0.607125,0.6813 0.755625,0.70605" id="Stroke-55" stroke="#494949" stroke-width="1.5" stroke-linecap="round" stroke-linejoin="round"></path>
                </g>
                <g id="Group-60" transform="translate(148.500000, 80.250000)">
                    <path d="M13.334475,9.643725 C13.334475,9.643725 13.480725,3.288975 13.193475,2.258475 C12.355725,-0.746025 0.998475,-0.371025 0.507975,2.124225 C0.276225,3.306225 1.059975,8.425725 1.059975,8.425725 L1.157475,9.643725" id="Fill-57" fill="#F7F7F7"></path>
                    <path d="M13.334475,9.643725 C13.334475,9.643725 13.480725,3.288975 13.193475,2.258475 C12.355725,-0.746025 0.998475,-0.371025 0.507975,2.124225 C0.276225,3.306225 1.059975,8.425725 1.059975,8.425725 L1.157475,9.643725" id="Stroke-59" stroke="#494949" stroke-width="1.5" stroke-linecap="round" stroke-linejoin="round"></path>
                </g>
                <g id="Group-64" transform="translate(204.000000, 108.750000)">
                    <path d="M23.992725,7.69665 C23.992725,7.69665 19.656975,-0.9171 9.586725,4.0074 C5.622975,-1.42035 0.654225,1.5174 0.654225,1.5174" id="Fill-61" fill="#FFFFFF"></path>
                    <path d="M23.992725,7.69665 C23.992725,7.69665 19.656975,-0.9171 9.586725,4.0074 C5.622975,-1.42035 0.654225,1.5174 0.654225,1.5174" id="Stroke-63" stroke="#494949" stroke-width="1.5" stroke-linecap="round" stroke-linejoin="round"></path>
                </g>
                <g id="Group-68" transform="translate(72.000000, 67.500000)">
                    <path d="M9.1989,3.553125 C9.1989,3.553125 5.13015,-2.421375 0.3324,2.689875" id="Fill-65" fill="#FFFFFF"></path>
                    <path d="M9.1989,3.553125 C9.1989,3.553125 5.13015,-2.421375 0.3324,2.689875" id="Stroke-67" stroke="#494949" stroke-width="1.5" stroke-linecap="round" stroke-linejoin="round"></path>
                </g>
                <path d="M90.661575,20.4012 C92.441325,14.7747 90.748575,2.0202 78.193575,0.5427" id="Stroke-69" stroke="#494949" stroke-width="1.5" stroke-linecap="round" stroke-linejoin="round"></path>
                <path d="M60.704775,154.8231 L59.088525,154.2441 C57.749775,153.76485 56.212275,153.86085 54.975525,154.5021 L53.390775,155.3241 C51.565275,156.2706 50.819025,158.16735 51.619275,159.82635 C52.114275,160.85085 53.134275,161.6376 54.401775,161.97135 L56.883525,162.6246 C58.571775,163.0686 60.416025,162.6381 61.578525,161.52885 L62.286525,160.85235 C62.949525,160.2201 63.332775,159.4191 63.374025,158.58135 L63.384525,158.3616 C63.459525,156.83535 62.393775,155.42835 60.704775,154.8231" id="Fill-71" fill-opacity="0.04" fill="#494949"></path>
                <path d="M65.2656,153.7965 L63.9231,153.2175 C62.8116,152.73825 61.5351,152.83425 60.5076,153.4755 L59.1921,154.2975 C57.6756,155.244 57.0561,157.14075 57.7206,158.79975 C58.1316,159.82425 58.9791,160.611 60.03135,160.94475 L62.09235,161.598 C63.4941,162.042 65.0256,161.6115 65.99085,160.50225 L66.57885,159.82575 C67.12935,159.1935 67.44735,158.3925 67.48185,157.55475 L67.49085,157.335 C67.5531,155.80875 66.6681,154.40175 65.2656,153.7965" id="Fill-73" fill="#E6E6E6"></path>
                <path d="M65.2656,153.7965 L63.9231,153.2175 C62.8116,152.73825 61.5351,152.83425 60.5076,153.4755 L59.1921,154.2975 C57.6756,155.244 57.0561,157.14075 57.7206,158.79975 C58.1316,159.82425 58.9791,160.611 60.03135,160.94475 L62.09235,161.598 C63.4941,162.042 65.0256,161.6115 65.99085,160.50225 L66.57885,159.82575 C67.12935,159.1935 67.44735,158.3925 67.48185,157.55475 L67.49085,157.335 C67.5531,155.80875 66.6681,154.40175 65.2656,153.7965 Z" id="Stroke-75" stroke="#494949" stroke-width="1.5" stroke-linecap="round" stroke-linejoin="round"></path>
                <line x1="45.02295" y1="170.48145" x2="45.02295" y2="170.48145" id="Stroke-80" stroke="#494949" stroke-width="1.5" stroke-linecap="round" stroke-linejoin="round"></line>
                <g id="Group-85" transform="translate(180.000000, 23.250000)">
                    <path d="M3.9282,0.63225 C3.8277,3.80925 4.03995,10.1445 3.5397,13.28325 C3.39795,14.1735 2.8617,15.9075 2.76495,16.80375 C2.6517,17.84925 2.82195,19.9605 2.77095,21.01125 C2.50695,26.38575 0.6387,42.4275 0.6387,42.4275" id="Fill-82" fill="#ECECEC"></path>
                    <path d="M3.9282,0.63225 C3.8277,3.80925 4.03995,10.1445 3.5397,13.28325 C3.39795,14.1735 2.8617,15.9075 2.76495,16.80375 C2.6517,17.84925 2.82195,19.9605 2.77095,21.01125 C2.50695,26.38575 0.6387,42.4275 0.6387,42.4275" id="Stroke-84" stroke="#494949" stroke-width="1.5" stroke-linecap="round" stroke-linejoin="round"></path>
                </g>
                <g id="Group-89" transform="translate(185.250000, 6.000000)">
                    <path d="M0.1002,12.3468 C0.6177,9.36855 1.29795,0.31455 1.29795,0.31455" id="Fill-86" fill="#ECECEC"></path>
                    <path d="M0.1002,12.3468 C0.6177,9.36855 1.29795,0.31455 1.29795,0.31455" id="Stroke-88" stroke="#494949" stroke-width="1.5" stroke-linecap="round" stroke-linejoin="round"></path>
                </g>
                <path d="M111.31935,84.066525 C111.31935,87.487275 106.03485,90.260025 99.51585,90.260025 C92.99685,90.260025 87.71235,87.487275 87.71235,84.066525 C87.71235,80.645775 92.99685,77.873025 99.51585,77.873025 C106.03485,77.873025 111.31935,80.645775 111.31935,84.066525" id="Fill-90" fill-opacity="0.04" fill="#494949"></path>
                <path d="M160.352625,17.0079 C160.352625,20.42865 155.068125,23.2014 148.549125,23.2014 C142.030125,23.2014 136.745625,20.42865 136.745625,17.0079 C136.745625,13.58715 142.030125,10.8144 148.549125,10.8144 C155.068125,10.8144 160.352625,13.58715 160.352625,17.0079" id="Fill-92" fill-opacity="0.04" fill="#494949"></path>
                <path d="M100.9452,76.5216 C97.95345,77.60985 96.2082,73.75335 95.8767,75.17535 C95.74095,75.76035 96.19695,81.6426 96.3492,82.1946 C96.67545,83.3796 97.55745,84.4251 98.52345,85.07085 C101.03145,86.74635 107.52645,87.94785 114.36495,85.36035 C118.0062,83.98335 119.0697,81.84885 118.8177,79.9836 C118.74945,79.4766 118.55145,74.38035 118.31445,73.93335 C117.93945,73.2291 117.41895,77.2341 116.7867,76.8111 C114.2787,75.1356 107.8137,74.0226 100.9452,76.5216" id="Fill-94" fill="#E0E0E0"></path>
                <path d="M100.9452,76.5216 C97.95345,77.60985 96.2082,73.75335 95.8767,75.17535 C95.74095,75.76035 96.19695,81.6426 96.3492,82.1946 C96.67545,83.3796 97.55745,84.4251 98.52345,85.07085 C101.03145,86.74635 107.52645,87.94785 114.36495,85.36035 C118.0062,83.98335 119.0697,81.84885 118.8177,79.9836 C118.74945,79.4766 118.55145,74.38035 118.31445,73.93335 C117.93945,73.2291 117.41895,77.2341 116.7867,76.8111 C114.2787,75.1356 107.8137,74.0226 100.9452,76.5216 Z" id="Stroke-96" stroke="#494949" stroke-width="1.5" stroke-linecap="round" stroke-linejoin="round"></path>
                <g id="Group-101" transform="translate(95.250000, 69.000000)">
                    <path d="M7.1979,12.071325 C10.31415,12.605325 14.45415,12.468075 18.72765,10.851075 C24.9204,8.508075 23.65815,3.977325 21.1494,2.301825 C18.6414,0.625575 12.17715,-0.486675 5.3079,2.011575 C-1.5606,4.510575 0.37815,8.885325 2.88615,10.560825 C3.2634,10.812825 3.73065,11.054325 4.2759,11.273325" id="Fill-98" fill="#F7F7F7"></path>
                    <path d="M7.1979,12.071325 C10.31415,12.605325 14.45415,12.468075 18.72765,10.851075 C24.9204,8.508075 23.65815,3.977325 21.1494,2.301825 C18.6414,0.625575 12.17715,-0.486675 5.3079,2.011575 C-1.5606,4.510575 0.37815,8.885325 2.88615,10.560825 C3.2634,10.812825 3.73065,11.054325 4.2759,11.273325" id="Stroke-100" stroke="#494949" stroke-width="1.5" stroke-linecap="round" stroke-linejoin="round"></path>
                </g>
                <path d="M104.9991,73.938 C102.7386,74.76 103.37685,76.2 104.20185,76.75125 C105.0276,77.3025 107.16435,77.69775 109.4151,76.8465 C111.45285,76.0755 111.03735,74.5845 110.2116,74.03325 C109.3866,73.482 107.2596,73.116 104.9991,73.938" id="Fill-102" fill="#E0E0E0"></path>
                <path d="M104.9991,73.938 C102.7386,74.76 103.37685,76.2 104.20185,76.75125 C105.0276,77.3025 107.16435,77.69775 109.4151,76.8465 C111.45285,76.0755 111.03735,74.5845 110.2116,74.03325 C109.3866,73.482 107.2596,73.116 104.9991,73.938 Z" id="Stroke-104" stroke="#494949" stroke-width="1.5" stroke-linecap="round" stroke-linejoin="round"></path>
                <g id="Group-109" transform="translate(105.750000, 80.250000)">
                    <path d="M0.052575,10.418475 C0.816825,7.747725 4.398825,4.379475 8.900325,4.691475 C11.866575,0.189225 16.204575,-1.205775 22.793325,2.340225" id="Fill-106" fill="#FCFCFC"></path>
                    <path d="M0.052575,10.418475 C0.816825,7.747725 4.398825,4.379475 8.900325,4.691475 C11.866575,0.189225 16.204575,-1.205775 22.793325,2.340225" id="Stroke-108" stroke="#494949" stroke-width="1.5" stroke-linecap="round" stroke-linejoin="round"></path>
                </g>
                <path d="M212.08155,88.059075 C212.08155,91.993575 206.0028,95.184075 198.50355,95.184075 C191.00505,95.184075 184.9263,91.993575 184.9263,88.059075 C184.9263,84.124575 191.00505,80.934075 198.50355,80.934075 C206.0028,80.934075 212.08155,84.124575 212.08155,88.059075" id="Fill-110" fill-opacity="0.04" fill="#494949"></path>
                <g id="Group-115" transform="translate(188.250000, 78.000000)">
                    <path d="M12.451725,14.6625242 C19.098225,14.67225 24.489975,11.73975 24.495225,8.11125 C24.495975,7.557 24.986475,3.048 24.750225,2.5335 C23.440725,-0.3195 18.101475,1.533 12.471225,1.52475 C6.708225,1.51575 1.885725,-0.99525 0.703725,1.956 C0.522225,2.40825 0.428475,7.59375 0.427720493,8.076 C0.423225,10.94475 3.789225,13.389 8.484225,14.29125" id="Fill-112" fill="#E0E0E0"></path>
                    <path d="M12.451725,14.6625242 C19.098225,14.67225 24.489975,11.73975 24.495225,8.11125 C24.495975,7.557 24.986475,3.048 24.750225,2.5335 C23.440725,-0.3195 18.101475,1.533 12.471225,1.52475 C6.708225,1.51575 1.885725,-0.99525 0.703725,1.956 C0.522225,2.40825 0.428475,7.59375 0.427720493,8.076 C0.423225,10.94475 3.789225,13.389 8.484225,14.29125" id="Stroke-114" stroke="#494949" stroke-width="1.5" stroke-linecap="round" stroke-linejoin="round"></path>
                </g>
                <g id="Group-119" transform="translate(188.250000, 73.500000)">
                    <path d="M12.706425,13.5843992 C19.352175,13.594125 24.744675,10.661625 24.7499288,7.033125 C24.755175,3.405375 19.371675,0.456375 12.725925,0.446600758 C6.080175,0.436875 0.687675,3.369375 0.682420493,6.997875 C0.677925,9.866625 4.043925,12.310875 8.738925,13.213125" id="Fill-116" fill="#F7F7F7"></path>
                    <path d="M12.706425,13.5843992 C19.352175,13.594125 24.744675,10.661625 24.7499288,7.033125 C24.755175,3.405375 19.371675,0.456375 12.725925,0.446600758 C6.080175,0.436875 0.687675,3.369375 0.682420493,6.997875 C0.677925,9.866625 4.043925,12.310875 8.738925,13.213125" id="Stroke-118" stroke="#494949" stroke-width="1.5" stroke-linecap="round" stroke-linejoin="round"></path>
                </g>
                <g id="Group-123" transform="translate(196.500000, 78.000000)">
                    <path d="M4.469625,0.276664485 C2.204625,0.272925 0.366375,1.272675 0.364872933,2.509425 C0.362625,3.746175 2.197875,4.751175 4.462875,4.75418552 C6.727875,4.757925 8.566125,3.758175 8.567625,2.521425" id="Fill-120" fill="#E0E0E0"></path>
                    <path d="M4.469625,0.276664485 C2.204625,0.272925 0.366375,1.272675 0.364872933,2.509425 C0.362625,3.746175 2.197875,4.751175 4.462875,4.75418552 C6.727875,4.757925 8.566125,3.758175 8.567625,2.521425" id="Stroke-122" stroke="#494949" stroke-width="1.5" stroke-linecap="round" stroke-linejoin="round"></path>
                </g>
                <g id="Group-127" transform="translate(202.500000, 78.000000)">
                    <path d="M1.199925,0.849225 C1.106175,0.803475 1.008675,0.759975 0.908175,0.718725" id="Fill-124" fill="#E0E0E0"></path>
                    <path d="M1.199925,0.849225 C1.106175,0.803475 1.008675,0.759975 0.908175,0.718725" id="Stroke-126" stroke="#494949" stroke-width="1.5" stroke-linecap="round" stroke-linejoin="round"></path>
                </g>
                <path d="M147.0927,10.97685 C144.1677,11.5521 143.12445,7.77735 142.61895,9.0456 C142.4127,9.56385 142.0122,14.90685 142.0722,15.41385 C142.20195,16.49835 142.84245,17.5401 143.6142,18.24585 C145.61745,20.07885 151.33545,22.15485 158.24295,21.01335 C162.06645,20.3811 163.57845,18.6126 163.7337,16.8486 C163.77645,16.3656 164.7147,11.4981 164.5722,11.03085 C164.3472,10.2921 162.9267,14.05335 162.38145,13.55685 C160.21845,11.5911 154.05795,9.6066 147.0927,10.97685" id="Fill-128" fill="#E0E0E0"></path>
                <path d="M147.0927,10.97685 C144.1677,11.5521 143.12445,7.77735 142.61895,9.0456 C142.4127,9.56385 142.0122,14.90685 142.0722,15.41385 C142.20195,16.49835 142.84245,17.5401 143.6142,18.24585 C145.61745,20.07885 151.33545,22.15485 158.24295,21.01335 C162.06645,20.3811 163.57845,18.6126 163.7337,16.8486 C163.77645,16.3656 164.7147,11.4981 164.5722,11.03085 C164.3472,10.2921 162.9267,14.05335 162.38145,13.55685 C160.21845,11.5911 154.05795,9.6066 147.0927,10.97685 Z" id="Stroke-130" stroke="#494949" stroke-width="1.5" stroke-linecap="round" stroke-linejoin="round"></path>
                <g id="Group-135" transform="translate(141.750000, 4.500000)">
                    <path d="M6.020175,10.818975 C8.827425,11.765475 12.761175,12.277725 17.206425,11.463975 C23.909175,10.237725 23.652675,5.688225 21.446925,3.687225 C19.244175,1.688475 12.962175,-0.263775 5.856675,1.268475 C-0.894075,2.723475 0.265425,6.977475 2.300925,8.837475 C2.606925,9.117225 2.996925,9.400725 3.461925,9.675225" id="Fill-132" fill="#ECECEC"></path>
                    <path d="M6.020175,10.818975 C8.827425,11.765475 12.761175,12.277725 17.206425,11.463975 C23.909175,10.237725 23.652675,5.688225 21.446925,3.687225 C19.244175,1.688475 12.962175,-0.263775 5.856675,1.268475 C-0.894075,2.723475 0.265425,6.977475 2.300925,8.837475 C2.606925,9.117225 2.996925,9.400725 3.461925,9.675225" id="Stroke-134" stroke="#494949" stroke-width="1.5" stroke-linecap="round" stroke-linejoin="round"></path>
                </g>
                <path d="M151.353375,9.1353 C149.059875,9.59505 149.424375,11.02155 150.112125,11.64855 C150.799875,12.27555 152.765625,12.95055 155.088375,12.49005 C157.225875,12.06705 157.109625,10.59705 156.403125,9.95505 C155.697375,9.31305 153.685875,8.66805 151.353375,9.1353" id="Fill-136" fill="#E0E0E0"></path>
                <path d="M151.353375,9.1353 C149.059875,9.59505 149.424375,11.02155 150.112125,11.64855 C150.799875,12.27555 152.765625,12.95055 155.088375,12.49005 C157.225875,12.06705 157.109625,10.59705 156.403125,9.95505 C155.697375,9.31305 153.685875,8.66805 151.353375,9.1353 Z" id="Stroke-138" stroke="#494949" stroke-width="1.5" stroke-linecap="round" stroke-linejoin="round"></path>
            </g>
        </g>
        <path d="M66.3270807,181.201418 C66.1896648,181.201418 66.16385,181.707983 66.3270807,181.874561 C66.4903113,182.041139 66.986698,182.072557 66.986698,181.874561 C66.986698,181.676566 66.4644965,181.201418 66.3270807,181.201418 Z" id="Path-7" stroke="#4A4A4A" stroke-linecap="round" stroke-linejoin="round"></path>
    </g>
</svg>