<?xml version="1.0" encoding="UTF-8"?>
<svg width="289px" height="165px" viewBox="0 0 289 165" version="1.1" xmlns="http://www.w3.org/2000/svg" xmlns:xlink="http://www.w3.org/1999/xlink">
    <title>Pizza_mobile_1</title>
    <defs>
        <path d="M93.447,0.246 C88.38225,0.38175 79.7355,11.81925 84.393,18.633 L84.393,18.633 L1.10925,61.95 L0.60825,68.8275 C0.36525,70.60575 1.332,72.32925 3.105,73.27725 L3.105,73.27725 C18.471,81.4965 81.51075,112.39125 96.363,119.10975 L96.363,119.10975 C103.03875,122.13 108.86925,123.92775 110.286,123.918784 L110.286,123.918784 C112.581,123.903 130.608,109.065 135.003,103.992 L135.003,103.992 C137.12775,101.5395 142.74075,95.4255 144.2325,92.74725 L144.2325,92.74725 C146.1015,89.3925 147.273,87.0585 148.383,83.514 L148.383,83.514 C149.2215,80.83575 149.8395,78.1035 150.22725,75.32625 L150.22725,75.32625 C150.7575,71.52675 151.515,67.50525 151.2675,63.819 L151.2675,63.819 C150.91425,58.53375 149.89575,53.64375 148.0125,48.60225 L148.0125,48.60225 C144.37275,38.85375 137.559,29.11725 128.46375,20.44125 L128.46375,20.44125 C124.62225,16.7775 119.85825,13.581 115.06575,10.14975 L115.06575,10.14975 C108.597,5.5185 105.012,4.503 99.45825,2.1795 L99.45825,2.1795 C97.956,1.551 95.1885,0.2445 93.52725,0.2445 L93.52725,0.2445 C93.50025,0.2445 93.474,0.2445 93.447,0.246 L93.447,0.246 Z" id="path-1"></path>
        <path d="M1.10925,0.45 L0.60825,7.3275 C0.36525,9.10575 1.332,10.82925 3.105,11.77725 L3.105,11.77725 C18.471,19.9965 81.51075,50.89125 96.363,57.60975 L96.363,57.60975 C101.96325,60.14325 106.9695,61.81725 109.2735,62.28525 L109.2735,62.28525 C110.99625,59.77125 112.0035,56.2245 111.79575,51.276 L111.79575,51.276 C103.28475,28.43775 92.35875,41.62875 92.35875,41.62875 L92.35875,41.62875 L1.5285,0.23175" id="path-3"></path>
        <path d="M93.447,0.246 C88.38225,0.38175 79.7355,11.81925 84.393,18.633 L84.393,18.633 L1.10925,61.95 L0.60825,68.8275 C0.36525,70.60575 1.332,72.32925 3.105,73.27725 L3.105,73.27725 C18.471,81.4965 81.51075,112.39125 96.363,119.10975 L96.363,119.10975 C103.03875,122.13 108.86925,123.92775 110.286,123.918784 L110.286,123.918784 C112.581,123.903 130.608,109.065 135.003,103.992 L135.003,103.992 C137.12775,101.5395 142.74075,95.4255 144.2325,92.74725 L144.2325,92.74725 C146.1015,89.3925 147.273,87.0585 148.383,83.514 L148.383,83.514 C149.2215,80.83575 149.8395,78.1035 150.22725,75.32625 L150.22725,75.32625 C150.7575,71.52675 151.515,67.50525 151.2675,63.819 L151.2675,63.819 C150.91425,58.53375 149.89575,53.64375 148.0125,48.60225 L148.0125,48.60225 C144.37275,38.85375 137.559,29.11725 128.46375,20.44125 L128.46375,20.44125 C124.62225,16.7775 119.85825,13.581 115.06575,10.14975 L115.06575,10.14975 C108.597,5.5185 105.012,4.503 99.45825,2.1795 L99.45825,2.1795 C97.956,1.551 95.1885,0.2445 93.52725,0.2445 L93.52725,0.2445 C93.50025,0.2445 93.474,0.2445 93.447,0.246" id="path-5"></path>
        <path d="M73.896,5.60325 C72.1125,6.615 52.43775,15.62025 49.16475,17.47275 L49.16475,17.47275 C47.88225,18.198 45.4125,19.821 44.01825,20.3895 L44.01825,20.3895 C42.74625,20.9085 39.96225,21.4785 38.7105,22.05375 L38.7105,22.05375 C36.4185,23.10675 33.231,25.308 30.14175,27.41775 L30.14175,27.41775 L23.42025,31.67025 C21.627,32.5815 17.54475,33.58125 15.672,34.40775 L15.672,34.40775 C13.83975,35.217 10.39425,37.203 8.655,38.18175 L8.655,38.18175 C7.11525,39.048 3.654,41.094 1.33125,42.471 L1.33125,42.471 C0.25575,43.11 0.27525,44.44725 1.35675,45.06975 L1.35675,45.06975 C3.507,46.30875 7.83525,49.0335 8.19825,49.88925 L8.19825,49.88925 C8.19825,52.61325 8.3895,55.86225 10.25325,56.85225 L10.25325,56.85225 C11.823,57.6855 14.46675,57.03525 14.82,53.616 L14.82,53.616 C15.56025,53.95875 28.5465,59.11725 31.74825,61.173 L31.74825,61.173 C31.74825,74.859 39.70725,75.11925 39.70725,67.203 L39.70725,67.203 C39.70725,67.203 61.9425,77.48175 63.3735,78.159 L63.3735,78.159 C64.443,78.66525 65.2155,78.966 64.97325,80.09625 L64.97325,80.09625 C62.44125,90.79275 72.94425,93.162 73.116,83.5455 L73.116,83.5455 C73.116,83.5455 84.1395,88.25325 87.1485,89.6595 L87.1485,89.6595 C88.8045,90.43275 90.92925,89.69475 91.7295,88.056 L91.7295,88.056 C92.86875,85.72125 95.0505,82.90875 98.36475,81.189 L98.36475,81.189 C102.39375,78.681 112.3005,71.34375 116.39925,67.50825 L116.39925,67.50825 C118.69575,65.3595 119.6925,63.03 121.28775,60.6915 L121.28775,60.6915 C123.83925,56.9535 126.414,53.067 126.99675,48.88125 L126.99675,48.88125 C127.767,43.34325 125.73975,37.686 122.9955,32.23725 L122.9955,32.23725 C122.085,30.429 120.6885,28.74075 119.42025,26.9535 L119.42025,26.9535 C118.407,25.5255 117.58875,23.99475 116.355,22.58475 L116.355,22.58475 C112.503,18.18075 108.16425,15.531 102.294,11.3985 L102.294,11.3985 C99.82125,9.6585 96.774,8.07075 93.9615,6.39225 L93.9615,6.39225 C92.3055,5.40375 91.0005,4.30275 89.23275,3.339 L89.23275,3.339 C87.3255,2.2995 83.643,0.633 83.643,0.633 L83.643,0.633 C83.643,0.633 78.6615,2.9025 73.896,5.60325 L73.896,5.60325 Z" id="path-7"></path>
        <path d="M73.896,5.60325 C72.1125,6.615 52.43775,15.62025 49.16475,17.47275 L49.16475,17.47275 C47.88225,18.198 45.4125,19.821 44.01825,20.3895 L44.01825,20.3895 C42.74625,20.9085 39.96225,21.4785 38.7105,22.05375 L38.7105,22.05375 C36.4185,23.10675 33.231,25.308 30.14175,27.41775 L30.14175,27.41775 L23.42025,31.67025 C21.627,32.5815 17.54475,33.58125 15.672,34.40775 L15.672,34.40775 C13.83975,35.217 10.39425,37.203 8.655,38.18175 L8.655,38.18175 C7.11525,39.048 3.654,41.094 1.33125,42.471 L1.33125,42.471 C0.25575,43.11 0.27525,44.44725 1.35675,45.06975 L1.35675,45.06975 C3.507,46.30875 7.83525,49.0335 8.19825,49.88925 L8.19825,49.88925 C8.19825,52.61325 8.3895,55.86225 10.25325,56.85225 L10.25325,56.85225 C11.823,57.6855 14.46675,57.03525 14.82,53.616 L14.82,53.616 C15.56025,53.95875 28.5465,59.11725 31.74825,61.173 L31.74825,61.173 C31.74825,74.859 39.70725,75.11925 39.70725,67.203 L39.70725,67.203 C39.70725,67.203 61.9425,77.48175 63.3735,78.159 L63.3735,78.159 C64.443,78.66525 65.2155,78.966 64.97325,80.09625 L64.97325,80.09625 C62.44125,90.79275 72.94425,93.162 73.116,83.5455 L73.116,83.5455 C73.116,83.5455 84.1395,88.25325 87.1485,89.6595 L87.1485,89.6595 C88.8045,90.43275 90.92925,89.69475 91.7295,88.056 L91.7295,88.056 C92.86875,85.72125 95.0505,82.90875 98.36475,81.189 L98.36475,81.189 C102.39375,78.681 112.3005,71.34375 116.39925,67.50825 L116.39925,67.50825 C118.69575,65.3595 119.6925,63.03 121.28775,60.6915 L121.28775,60.6915 C123.83925,56.9535 126.414,53.067 126.99675,48.88125 L126.99675,48.88125 C127.767,43.34325 125.73975,37.686 122.9955,32.23725 L122.9955,32.23725 C122.085,30.429 120.6885,28.74075 119.42025,26.9535 L119.42025,26.9535 C118.407,25.5255 117.58875,23.99475 116.355,22.58475 L116.355,22.58475 C112.503,18.18075 108.16425,15.531 102.294,11.3985 L102.294,11.3985 C99.82125,9.6585 96.774,8.07075 93.9615,6.39225 L93.9615,6.39225 C92.3055,5.40375 91.0005,4.30275 89.23275,3.339 L89.23275,3.339 C87.3255,2.2995 83.643,0.633 83.643,0.633 L83.643,0.633 C83.643,0.633 78.6615,2.9025 73.896,5.60325" id="path-9"></path>
        <path d="M0.7845,3.375 C0.35775,5.22375 0.31125,7.22325 0.45,8.9205 L0.45,8.9205 C0.7785,12.95025 4.8465,16.5285 10.632,16.5495 L10.632,16.5495 C12.3,16.5555 15.69825,16.095 18.201,15.02475 L18.201,15.02475 C18.23625,15.05775 18.7425,15.4965 18.7425,15.4965 L18.7425,15.4965 L24.1785,20.2635 C25.28025,21.07275 25.947,21.9645 27.77175,21.63675 L27.77175,21.63675 C28.51425,21.50325 29.78025,20.92125 30.4185,20.54175 L30.4185,20.54175 L34.1355,18.33225 C34.2975,18.24375 34.4565,18.12675 34.6065,17.994 L34.6065,17.994 C35.13075,17.52675 35.445,16.8915 35.574,16.2315 L35.574,16.2315 L36.0885,13.60575 C36.189,13.09125 35.99925,12.56925 35.586,12.22425 L35.586,12.22425 L31.833,9.09375 L33.3885,2.028 L3.89475,0.1005 C3.16875,0.717 0.9885,2.49 0.7845,3.375 L0.7845,3.375 Z" id="path-11"></path>
        <polygon id="path-13" points="0 0.543681877 5.44216066 0.543681877 5.44216066 4.60027661 0 4.60027661"></polygon>
        <polygon id="path-15" points="0.75 0.375 1.125 0.375 1.125 0.75 0.75 0.75"></polygon>
    </defs>
    <g id="Pizza_mobile_1" stroke="none" stroke-width="1" fill="none" fill-rule="evenodd">
        <g id="Group-86" transform="translate(67.000000, 12.000000)">
            <g id="Group-11" transform="translate(0.000000, 0.100500)">
                <path d="M76.1715,138.388725 L77.1075,137.997225 C77.8815,137.672475 78.77775,137.611725 79.506,137.832975 L80.43675,138.116475 C81.507,138.441225 81.96525,139.295475 81.52575,140.145225 C81.25425,140.669475 80.67525,141.118725 79.9455,141.369225 L78.51375,141.861225 C77.53725,142.196475 76.455,142.123725 75.759,141.675225 L75.3345,141.401475 C74.937,141.144975 74.7,140.787225 74.66325,140.386725 L74.65425,140.281725 C74.5875,139.551975 75.19125,138.798975 76.1715,138.388725" id="Fill-1" fill="#494949" opacity="0.04"></path>
                <path d="M73.958325,138.0282 L74.673075,137.66295 C75.264075,137.35995 75.951075,137.32545 76.512075,137.5677 L77.229075,137.8782 C78.053325,138.2352 78.411825,139.10595 78.081075,139.94445 C77.876325,140.4627 77.434575,140.8962 76.876575,141.1257 L75.780825,141.57645 C75.034575,141.8832 74.204325,141.7782 73.667325,141.30795 L73.340325,141.0207 C73.033575,140.7522 72.849075,140.38695 72.818325,139.98495 L72.810075,139.87995 C72.753825,139.1472 73.210575,138.4107 73.958325,138.0282" id="Fill-3" fill="#E6E6E6"></path>
                <path d="M73.958325,138.0282 L74.673075,137.66295 C75.264075,137.35995 75.951075,137.32545 76.512075,137.5677 L77.229075,137.8782 C78.053325,138.2352 78.411825,139.10595 78.081075,139.94445 C77.876325,140.4627 77.434575,140.8962 76.876575,141.1257 L75.780825,141.57645 C75.034575,141.8832 74.204325,141.7782 73.667325,141.30795 L73.340325,141.0207 C73.033575,140.7522 72.849075,140.38695 72.818325,139.98495 L72.810075,139.87995 C72.753825,139.1472 73.210575,138.4107 73.958325,138.0282 Z" id="Stroke-5" stroke="#494949" stroke-width="1.5" stroke-linecap="round" stroke-linejoin="round"></path>
                <path d="M142.8111,47.79645 C172.3866,83.69445 118.45935,126.79545 118.45935,126.79545 C112.39935,130.29795 107.37285,130.45995 101.58735,127.3662 C101.58735,127.3662 -17.07315,78.22695 4.07835,68.4402 C27.50385,57.6012 123.46035,24.30945 142.8111,47.79645" id="Fill-7" fill="#494949" opacity="0.04"></path>
                <path d="M1.1091,61.950525 L0.60885,68.827275 C0.36585,70.605525 1.33185,72.329025 3.10485,73.277025 C18.47085,81.497025 81.5106,112.391025 96.36285,119.109525 C103.03935,122.130525 108.8691,123.927525 110.2866,123.918559 C112.5816,123.902775 130.60785,109.064775 135.00285,103.991775 C137.1276,101.540025 142.74135,95.425275 144.2331,92.747025 C146.10135,89.392275 147.27285,87.059025 148.38285,83.513775 C149.2221,80.835525 149.83935,78.104025 150.2271,75.326025 C150.75735,71.527275 151.51485,67.505025 151.2681,63.818775 C150.9141,58.533525 149.89485,53.643525 148.01235,48.602025 C144.3726,38.854275 137.5596,29.117775 128.46285,20.441025 C124.6221,16.777275 119.85885,13.580775 115.06635,10.149525 C108.59685,5.518275 105.01185,4.502775 99.4581,2.179275 C97.9311,1.540275 95.0976,0.201525 93.44685,0.244704459 C88.3821,0.381525 79.73535,11.819025 84.3936,18.632775" id="Fill-9" fill="#ECECEC"></path>
            </g>
            <g id="Group-14" transform="translate(0.000000, 0.100500)">
                <mask id="mask-2" fill="white">
                    <use xlink:href="#path-1"></use>
                </mask>
                <g id="Clip-13"></g>
                <path d="M-11.4999,55.794075 L92.3586,103.128075 C92.3586,103.128075 103.2846,89.937075 111.7956,112.775325 C112.79235,136.463325 85.9581,128.012325 85.9581,128.012325 L-7.18365,82.430325 L-12.00015,59.459325 L-11.4999,55.794075 Z" id="Fill-12" fill="#494949" opacity="0.04" mask="url(#mask-2)"></path>
            </g>
            <g id="Group-17" transform="translate(0.000000, 61.600500)">
                <mask id="mask-4" fill="white">
                    <use xlink:href="#path-3"></use>
                </mask>
                <g id="Clip-16"></g>
                <path d="M90.1287,44.121075 C87.08595,49.257075 80.74995,47.408325 77.0427,45.318075 C75.9567,44.706075 74.4657,44.839575 73.46595,45.687075 C69.37395,49.155075 63.2727,48.366075 63.5532,39.369075 C63.59295,38.096325 62.8767,36.936075 61.6932,36.281325 C60.60945,35.682825 59.66445,35.227575 58.88295,34.886325 C57.71445,34.377075 56.28045,35.136075 56.1837,36.321825 C55.9227,39.518325 55.29345,45.028575 53.96295,46.817325 C52.0437,49.397325 33.05895,45.196575 33.05895,45.196575 L42.0837,29.682075 C42.0837,29.682075 28.9887,33.282825 29.4537,21.178575 C29.4987,20.013075 28.8117,18.937575 27.66045,18.354825 C26.03145,17.530575 23.92695,16.572075 22.3482,15.870825 C21.1842,15.353325 19.73595,15.675825 18.96645,16.623075 C17.34045,18.626325 13.9782,21.030825 9.1182,15.840825 C7.91295,5.172825 2.7357,-2.517675 2.7357,-2.517675 L72.37845,14.511075 L85.6272,30.312075 L90.1287,44.121075" id="Fill-15" fill="#494949" opacity="0.04" mask="url(#mask-4)"></path>
            </g>
            <g id="Group-20" transform="translate(0.000000, 0.100500)">
                <mask id="mask-6" fill="white">
                    <use xlink:href="#path-5"></use>
                </mask>
                <g id="Clip-19"></g>
                <path d="M83.241075,-2.0172 C83.241075,-2.0172 81.977325,4.0308 90.967575,10.2063 C107.921325,21.85155 144.921075,41.1963 132.021075,71.1393 C125.770575,85.6488 109.137075,91.24905 100.333575,96.2133 C95.184825,93.8538 97.404825,94.46505 93.171075,95.71755 C78.873825,99.9468 73.374825,100.3518 73.374825,100.3518 L35.137575,19.80855 L66.264075,-5.99895 L79.188075,-11.35095 L83.241075,-2.0172" id="Fill-18" fill="#494949" opacity="0.04" mask="url(#mask-6)"></path>
            </g>
            <g id="Group-25" transform="translate(0.000000, 0.100500)">
                <path d="M1.1091,61.950525 L0.60885,68.827275 C0.36585,70.605525 1.33185,72.329025 3.10485,73.277025 C18.47085,81.497025 81.5106,112.391025 96.36285,119.109525 C103.03935,122.130525 108.8691,123.927525 110.2866,123.918559 C112.5816,123.902775 130.60785,109.064775 135.00285,103.991775 C137.1276,101.540025 142.74135,95.425275 144.2331,92.747025 C146.10135,89.392275 147.27285,87.059025 148.38285,83.513775 C149.2221,80.835525 149.83935,78.104025 150.2271,75.326025 C150.75735,71.527275 151.51485,67.505025 151.2681,63.818775 C150.9141,58.533525 149.89485,53.643525 148.01235,48.602025 C144.3726,38.854275 137.5596,29.117775 128.46285,20.441025 C124.6221,16.777275 119.85885,13.580775 115.06635,10.149525 C108.59685,5.518275 105.01185,4.502775 99.4581,2.179275 C97.9311,1.540275 95.0976,0.201525 93.44685,0.244704459 C88.3821,0.381525 79.73535,11.819025 84.3936,18.632775" id="Stroke-21" stroke="#494949" stroke-width="1.5" stroke-linecap="round" stroke-linejoin="round"></path>
                <path d="M30.891375,45.417225 C33.981375,43.307475 37.168125,41.106975 39.460125,40.053975 C40.711875,39.478725 43.495875,38.908725 44.767875,38.389725 C46.162875,37.821225 48.632625,36.198225 49.915125,35.472225 C53.188125,33.620475 72.862125,24.614475 74.645625,23.603475 C79.411125,20.902725 84.393375,18.632475 84.393375,18.632475 C84.393375,18.632475 88.075125,20.299725 89.982375,21.339225 C91.750125,22.302225 93.055875,23.403975 94.711125,24.391725 C97.524375,26.070975 100.570875,27.657975 103.044375,29.398725 C108.913875,33.530475 113.253375,36.180225 117.105375,40.584975 C118.338375,41.994225 119.157375,43.525725 120.170625,44.953725 C121.438125,46.740975 122.835375,48.428475 123.745875,50.237475 C126.489375,55.686225 128.516625,61.342725 127.746375,66.881475 C127.164375,71.067225 124.588875,74.953725 122.038125,78.690975 C120.442125,81.030225 119.446125,83.358975 117.148875,85.508475 C113.050875,89.343975 103.143375,96.681225 99.114375,99.189975 C95.800125,100.908975 93.619125,103.721475 92.479125,106.056225 C91.679625,107.694975 89.554875,108.432225 87.898875,107.658975 C84.889125,106.252725 73.866375,101.545725 73.866375,101.545725 C73.693875,111.161475 63.190875,108.792225 65.723625,98.096475 C65.965125,96.966225 65.193375,96.665475 64.123875,96.159225 C62.692875,95.481975 40.456875,85.203225 40.456875,85.203225 C40.456875,93.119475 32.497875,92.859225 32.497875,79.173225 C29.296125,77.117475 16.309875,71.958225 15.570375,71.616225 C15.216375,75.034725 12.572625,75.686475 11.002875,74.852475 C9.139875,73.861725 8.947875,70.612725 8.947875,67.889475 C8.585625,67.033725 4.257375,64.308975 2.107125,63.069975 C1.025625,62.446725 1.005375,61.109475 2.080875,60.471225 C4.403625,59.093475 7.864875,57.048225 9.405375,56.181975 C11.144625,55.203225 14.589375,53.217225 16.422375,52.407975 C18.294375,51.581475 22.377375,50.580975 24.169875,49.670475" id="Fill-23" fill="#FCFCFC"></path>
            </g>
            <g id="Group-32" transform="translate(0.750000, 18.100500)">
                <g id="Group-28">
                    <mask id="mask-8" fill="white">
                        <use xlink:href="#path-7"></use>
                    </mask>
                    <g id="Clip-27"></g>
                    <path d="M73.93545,1.66785 C73.93545,1.66785 125.3967,20.53635 119.72595,49.06335 C115.3797,70.92285 94.71495,72.8076 87.7752,82.8576 C80.7522,93.02835 92.5782,91.66335 92.5782,91.66335 L108.89145,87.5091 C108.89145,87.5091 140.8032,60.82185 130.2912,39.5661 C119.43645,17.6166 93.7527,-3.9399 93.7527,-3.9399 L73.93545,1.66785 Z" id="Fill-26" fill="#494949" opacity="0.04" mask="url(#mask-8)"></path>
                </g>
                <g id="Group-31">
                    <mask id="mask-10" fill="white">
                        <use xlink:href="#path-9"></use>
                    </mask>
                    <g id="Clip-30"></g>
                    <path d="M40.44195,70.54425 C42.73695,70.78275 44.1567,74.55525 43.20795,78.39075 C42.30795,82.02675 42.2622,83.28825 40.99545,84.8475 C39.9372,86.15025 37.3542,86.418 37.1232,88.224 C36.76845,91.0035 43.74195,93.88725 50.42895,89.5605 C47.68245,91.92825 52.6017,94.7145 47.6577,95.88075 C45.6162,96.36225 23.3937,90.306 23.3937,90.306 L31.1082,69.94725 L19.4052,57.26925 L10.62345,61.22175 L2.85645,59.2935 L-3.77955,44.87925 C-3.77955,44.87925 0.8157,41.5995 3.2202,43.23825 C5.6127,44.868 9.32445,45.84675 11.3802,49.0005 C12.3102,50.42625 13.65645,51.39525 16.0227,52.00575 C17.72745,52.44525 19.39695,52.99875 20.9997,53.727 C25.2957,55.67925 32.3952,57.7095 34.4472,61.9005 C35.4912,64.75725 33.6822,68.23875 35.7387,69.52275 C36.9912,70.30425 38.74395,70.368 40.44195,70.54425" id="Fill-29" fill="#494949" opacity="0.04" mask="url(#mask-10)"></path>
                </g>
            </g>
            <g id="Group-39" transform="translate(0.750000, 18.100500)">
                <path d="M30.141375,27.417225 C33.231375,25.307475 36.418125,23.106975 38.710125,22.053975 C39.961875,21.478725 42.745875,20.908725 44.017875,20.389725 C45.412875,19.821225 47.882625,18.198225 49.165125,17.472225 C52.438125,15.620475 72.112125,6.614475 73.895625,5.603475 C78.661125,2.902725 83.643375,0.632475 83.643375,0.632475 C83.643375,0.632475 87.325125,2.299725 89.232375,3.339225 C91.000125,4.302225 92.305875,5.403975 93.961125,6.391725 C96.774375,8.070975 99.820875,9.657975 102.294375,11.398725 C108.163875,15.530475 112.503375,18.180225 116.355375,22.584975 C117.588375,23.994225 118.407375,25.525725 119.420625,26.953725 C120.688125,28.740975 122.085375,30.428475 122.995875,32.237475 C125.739375,37.686225 127.766625,43.342725 126.996375,48.881475 C126.414375,53.067225 123.838875,56.953725 121.288125,60.690975 C119.692125,63.030225 118.696125,65.358975 116.398875,67.508475 C112.300875,71.343975 102.393375,78.681225 98.364375,81.189975 C95.050125,82.908975 92.869125,85.721475 91.729125,88.056225 C90.929625,89.694975 88.804875,90.432225 87.148875,89.658975 C84.139125,88.252725 73.116375,83.545725 73.116375,83.545725 C72.943875,93.161475 62.440875,90.792225 64.973625,80.096475 C65.215125,78.966225 64.443375,78.665475 63.373875,78.159225 C61.942875,77.481975 39.706875,67.203225 39.706875,67.203225 C39.706875,75.119475 31.747875,74.859225 31.747875,61.173225 C28.546125,59.117475 15.559875,53.958225 14.820375,53.616225 C14.466375,57.034725 11.822625,57.686475 10.252875,56.852475 C8.389875,55.861725 8.197875,52.612725 8.197875,49.889475 C7.835625,49.033725 3.507375,46.308975 1.357125,45.069975 C0.275625,44.446725 0.255375,43.109475 1.330875,42.471225 C3.653625,41.093475 7.114875,39.048225 8.655375,38.181975 C10.394625,37.203225 13.839375,35.217225 15.672375,34.407975 C17.544375,33.581475 21.627375,32.580975 23.419875,31.670475" id="Stroke-33" stroke="#494949" stroke-width="1.5" stroke-linecap="round" stroke-linejoin="round"></path>
                <path d="M67.136025,36.695475 C55.524525,37.773225 54.942525,46.711725 55.226775,48.552225 C55.901775,52.920975 60.969525,57.546225 67.214775,57.921225 C69.013275,58.029225 72.329025,57.840975 74.165025,56.891475 C74.206275,56.928975 74.257275,56.974725 74.257275,56.974725 L82.901775,64.785225 C84.428775,65.928975 86.468025,66.149475 88.025025,65.346225 L92.342775,63.000225 C92.927025,62.698725 93.652275,62.043975 93.647775,61.470975 L94.934775,55.572975 L79.052775,43.627725 L73.123275,39.148725" id="Fill-35" fill="#494949" opacity="0.04"></path>
                <path d="M65.39505,40.6002 C64.6683,41.21745 62.4888,42.99045 62.28405,43.87545 C61.8573,45.7242 61.81155,47.7237 61.94955,49.42095 C62.27805,53.44995 66.3468,57.0282 72.1323,57.0492 C73.8003,57.0552 77.19855,56.59545 79.70055,55.52445 C79.73655,55.55745 80.2428,55.9962 80.2428,55.9962 L85.6788,60.7632 C86.7798,61.57245 87.4473,62.46495 89.2713,62.1372 C90.0138,62.0037 91.2798,61.4217 91.9188,61.0422 L95.6358,58.8327 C95.79705,58.74345 95.9568,58.6272 96.10605,58.4937 C96.63105,58.02645 96.94455,57.3912 97.0743,56.7312 L97.58805,54.10545 C97.6893,53.59095 97.4988,53.06895 97.08555,52.7247 L93.3333,49.59345 L94.8888,42.5277" id="Fill-37" fill="#E0E0E0"></path>
            </g>
            <g id="Group-42" transform="translate(62.250000, 58.600500)">
                <mask id="mask-12" fill="white">
                    <use xlink:href="#path-11"></use>
                </mask>
                <g id="Clip-41"></g>
                <path d="M19.90815,4.265925 C19.90815,4.265925 19.6134,10.499925 22.07415,12.590175 C24.5349,14.681175 28.9314,17.588925 28.9314,17.588925 L36.00165,12.787425 L23.90265,4.934175 L19.90815,4.265925 Z" id="Fill-40" fill="#FFFFFF" mask="url(#mask-12)"></path>
            </g>
            <g id="Group-85" transform="translate(12.750000, 30.850500)">
                <path d="M53.39505,27.8502 C52.6683,28.46745 50.4888,30.24045 50.28405,31.12545 C49.8573,32.9742 49.81155,34.9737 49.94955,36.67095 C50.27805,40.69995 54.3468,44.2782 60.1323,44.2992 C61.8003,44.3052 65.19855,43.84545 67.70055,42.77445 C67.73655,42.80745 68.2428,43.2462 68.2428,43.2462 L73.6788,48.0132 C74.7798,48.82245 75.4473,49.71495 77.2713,49.3872 C78.0138,49.2537 79.2798,48.6717 79.9188,48.2922 L83.6358,46.0827 C83.79705,45.99345 83.9568,45.8772 84.10605,45.7437 C84.63105,45.27645 84.94455,44.6412 85.0743,43.9812 L85.58805,41.35545 C85.6893,40.84095 85.4988,40.31895 85.08555,39.9747 L81.3333,36.84345 L82.8888,29.7777" id="Stroke-43" stroke="#494949" stroke-width="1.5" stroke-linecap="round" stroke-linejoin="round"></path>
                <g id="Group-48" transform="translate(49.500000, 20.250000)">
                    <path d="M36.021975,20.058075 L28.284975,13.853325 C28.284975,13.853325 31.986975,11.950575 32.773725,10.908075 C36.326475,6.198075 25.823475,-3.197925 11.776725,1.280325 C-4.227525,6.382575 -0.790275,17.502825 9.214725,18.928575 C10.976475,19.179825 12.776475,18.986325 14.470725,18.504825 L16.409475,17.952825" id="Fill-45" fill="#FFFFFF"></path>
                    <path d="M36.021975,20.058075 L28.284975,13.853325 C28.284975,13.853325 31.986975,11.950575 32.773725,10.908075 C36.326475,6.198075 25.823475,-3.197925 11.776725,1.280325 C-4.227525,6.382575 -0.790275,17.502825 9.214725,18.928575 C10.976475,19.179825 12.776475,18.986325 14.470725,18.504825 L16.409475,17.952825" id="Stroke-47" stroke="#494949" stroke-width="1.5" stroke-linecap="round" stroke-linejoin="round"></path>
                </g>
                <g id="Group-52" transform="translate(68.250000, 37.500000)">
                    <path d="M0.62055,0.54405 L7.62705,6.4953 C9.3003,7.84905 9.2658,8.29455 11.12055,7.0338 C11.12055,7.0338 12.5628,6.23055 13.9728,5.3103" id="Fill-49" fill="#FFFFFF"></path>
                    <path d="M0.62055,0.54405 L7.62705,6.4953 C9.3003,7.84905 9.2658,8.29455 11.12055,7.0338 C11.12055,7.0338 12.5628,6.23055 13.9728,5.3103" id="Stroke-51" stroke="#494949" stroke-width="1.5" stroke-linecap="round" stroke-linejoin="round"></path>
                </g>
                <g id="Group-56" transform="translate(56.250000, 42.750000)">
                    <path d="M0.48705,3.368475 C4.21605,-1.696275 11.77755,1.232475 11.9133,6.426975" id="Fill-53" fill="#FFFFFF"></path>
                    <path d="M0.48705,3.368475 C4.21605,-1.696275 11.77755,1.232475 11.9133,6.426975" id="Stroke-55" stroke="#494949" stroke-width="1.5" stroke-linecap="round" stroke-linejoin="round"></path>
                </g>
                <path d="M92.293575,82.2489 C92.477325,83.43315 93.478575,84.19515 94.527825,83.9514 C95.574075,83.70765 96.273075,82.55565 96.090075,81.3759 C95.907825,80.19615 94.912575,79.4319 93.864075,79.6704 C92.814075,79.9089 92.109825,81.0639 92.293575,82.2489" id="Fill-57" fill="#494949" opacity="0.04"></path>
                <path d="M86.704125,84.669 C86.767125,85.446 87.384375,85.98675 88.082625,85.87725 C88.778625,85.76775 89.291625,85.0515 89.229375,84.27675 C89.167125,83.50125 88.552125,82.95975 87.854625,83.067 C87.156375,83.17425 86.641125,83.892 86.704125,84.669" id="Fill-59" fill="#494949" opacity="0.04"></path>
                <path d="M85.1979,78.941325 C85.23015,79.332075 85.5414,79.605825 85.8939,79.551825 C86.2464,79.498575 86.5059,79.139325 86.47365,78.749325 C86.44215,78.359325 86.1309,78.085575 85.7784,78.138075 C85.4259,78.190575 85.16565,78.550575 85.1979,78.941325" id="Fill-61" fill="#494949" opacity="0.04"></path>
                <path d="M27.098925,29.7246 C27.601425,32.8911 21.299175,32.73885 14.423175,35.37285 C7.168425,38.15235 0.686175,36.72585 0.145425,33.4746 C-0.395325,30.2181 5.342925,26.7516 12.860925,25.7511 C20.265675,24.76485 26.595675,26.55285 27.098925,29.7246" id="Fill-63" fill="#494949" opacity="0.04"></path>
                <path d="M21.9639,22.4754 C25.0149,23.4309 26.16615,20.10615 26.66415,21.30465 C26.8719,21.8049 26.86815,27.2064 26.8014,27.7359 C26.6559,28.8924 26.3394,29.86665 25.44315,30.55965 C23.0214,32.4324 15.8574,34.16115 7.5984,31.67415 C3.1014,30.31965 2.5059,28.11765 2.5059,26.47665 C2.6244,25.94865 3.38865,21.49515 3.38865,21.49515 C3.85665,20.84865 4.19265,23.2209 4.9539,22.8039 C7.86915,21.2079 14.8209,20.23815 21.9639,22.4754" id="Fill-65" fill="#E0E0E0"></path>
                <path d="M21.9639,22.4754 C25.0149,23.4309 26.16615,20.10615 26.66415,21.30465 C26.8719,21.8049 26.86815,27.2064 26.8014,27.7359 C26.6559,28.8924 26.3394,29.86665 25.44315,30.55965 C23.0214,32.4324 15.8574,34.16115 7.5984,31.67415 C3.1014,30.31965 2.5059,28.11765 2.5059,26.47665 C2.6244,25.94865 3.38865,21.49515 3.38865,21.49515 C3.85665,20.84865 4.19265,23.2209 4.9539,22.8039 C7.86915,21.2079 14.8209,20.23815 21.9639,22.4754 Z" id="Stroke-67" stroke="#494949" stroke-width="1.5" stroke-linecap="round" stroke-linejoin="round"></path>
                <g id="Group-72" transform="translate(3.000000, 16.500000)">
                    <path d="M17.8989,10.22445 C14.64015,10.8327 10.8129,11.5647 5.8974,10.03245 C-1.37685,7.7652 -0.3126,3.4197 2.6004,1.95795 C5.35815,0.5742 11.97015,-0.90555 18.7869,1.28895 C25.43115,3.4287 24.27915,7.1577 22.0884,8.7057 C21.74865,8.9457 21.31515,9.1797 20.79765,9.3957" id="Fill-69" fill="#F7F7F7"></path>
                    <path d="M17.8989,10.22445 C14.64015,10.8327 10.8129,11.5647 5.8974,10.03245 C-1.37685,7.7652 -0.3126,3.4197 2.6004,1.95795 C5.35815,0.5742 11.97015,-0.90555 18.7869,1.28895 C25.43115,3.4287 24.27915,7.1577 22.0884,8.7057 C21.74865,8.9457 21.31515,9.1797 20.79765,9.3957" id="Stroke-71" stroke="#494949" stroke-width="1.5" stroke-linecap="round" stroke-linejoin="round"></path>
                </g>
                <path d="M16.945875,20.18805 C19.270875,20.92005 18.754125,22.1928 17.959125,22.69305 C17.149875,23.2023 14.931375,23.58555 12.484125,22.8033 C10.249125,22.08855 10.678875,20.7183 11.551875,20.22705 C12.409125,19.74555 14.600625,19.4493 16.945875,20.18805" id="Fill-73" fill="#E0E0E0"></path>
                <path d="M16.945875,20.18805 C19.270875,20.92005 18.754125,22.1928 17.959125,22.69305 C17.149875,23.2023 14.931375,23.58555 12.484125,22.8033 C10.249125,22.08855 10.678875,20.7183 11.551875,20.22705 C12.409125,19.74555 14.600625,19.4493 16.945875,20.18805 Z" id="Stroke-75" stroke="#494949" stroke-width="1.5" stroke-linecap="round" stroke-linejoin="round"></path>
                <g id="Group-80" transform="translate(57.750000, 0.000000)">
                    <path d="M26.39685,5.317725 C18.8841,-3.582525 9.48885,1.017225 7.88235,3.805725 C7.88235,3.805725 3.4881,1.229475 0.6561,5.340225" id="Fill-77" fill="#FFFFFF"></path>
                    <path d="M26.39685,5.317725 C18.8841,-3.582525 9.48885,1.017225 7.88235,3.805725 C7.88235,3.805725 3.4881,1.229475 0.6561,5.340225" id="Stroke-79" stroke="#494949" stroke-width="1.5" stroke-linecap="round" stroke-linejoin="round"></path>
                </g>
                <path d="M98.94435,88.14495 C98.8521,88.5567 98.74335,88.96995 98.61735,89.3847" id="Stroke-81" stroke="#494949" stroke-width="1.5" stroke-linecap="round" stroke-linejoin="round"></path>
                <path d="M84.94815,69.28665 C90.0069,66.43815 99.78915,74.8554 99.3204,85.3239" id="Stroke-83" stroke="#494949" stroke-width="1.5" stroke-linecap="round" stroke-linejoin="round"></path>
            </g>
        </g>
        <g id="Group-19" transform="translate(59.000000, 106.000000)">
            <g id="Group-3" transform="translate(0.750000, 0.213900)">
                <mask id="mask-14" fill="white">
                    <use xlink:href="#path-13"></use>
                </mask>
                <g id="Clip-2"></g>
                <path d="M4.4382,1.16715 L3.7512,0.8094 C3.1827,0.5124 2.4897,0.4614 1.89795,0.6714 L1.1397,0.9414 C0.26595,1.2519 -0.1848,2.05365 0.07095,2.84415 C0.2292,3.3324 0.6372,3.74715 1.18245,3.97365 L2.2512,4.4184 C2.97795,4.72065 3.8292,4.64115 4.41645,4.2174 L4.7742,3.95865 C5.10945,3.7164 5.32995,3.3819 5.3997,3.01065 L5.41845,2.91315 C5.5452,2.23515 5.15595,1.5414 4.4382,1.16715" id="Fill-1" fill="#494949" opacity="0.04" mask="url(#mask-14)"></path>
            </g>
            <path d="M7.289175,1.202625 L6.725175,0.861375 C6.257925,0.578625 5.681175,0.543375 5.183175,0.766875 L4.544175,1.053375 C3.809175,1.382625 3.415425,2.192625 3.610425,2.974125 C3.731175,3.457125 4.061175,3.861375 4.511175,4.075125 L5.391675,4.493625 C5.990925,4.777875 6.701925,4.679625 7.201425,4.243125 L7.505925,3.977625 C7.790175,3.728625 7.982175,3.390375 8.048175,3.018375 L8.066175,2.920125 C8.187675,2.242125 7.878675,1.558875 7.289175,1.202625" id="Fill-4" fill="#E6E6E6"></path>
            <path d="M7.289175,1.202625 L6.725175,0.861375 C6.257925,0.578625 5.681175,0.543375 5.183175,0.766875 L4.544175,1.053375 C3.809175,1.382625 3.415425,2.192625 3.610425,2.974125 C3.731175,3.457125 4.061175,3.861375 4.511175,4.075125 L5.391675,4.493625 C5.990925,4.777875 6.701925,4.679625 7.201425,4.243125 L7.505925,3.977625 C7.790175,3.728625 7.982175,3.390375 8.048175,3.018375 L8.066175,2.920125 C8.187675,2.242125 7.878675,1.558875 7.289175,1.202625 Z" id="Stroke-6" stroke="#494949" stroke-width="1.5" stroke-linecap="round" stroke-linejoin="round"></path>
            <path d="M21.302925,1.12665 L20.284425,0.59565 C19.441425,0.15615 18.413925,0.07965 17.535675,0.3924 L16.411425,0.79215 C15.115425,1.25265 14.447925,2.4414 14.826675,3.61365 C15.061425,4.3374 15.665925,4.9524 16.475175,5.2884 L18.059925,5.94765 C19.137675,6.3954 20.399175,6.2784 21.270675,5.64915 L21.801675,5.2659 C22.298175,4.90665 22.625175,4.4109 22.728675,3.85965 L22.755675,3.71565 C22.944675,2.71065 22.367175,1.68165 21.302925,1.12665" id="Fill-8" fill="#494949" opacity="0.04"></path>
            <path d="M24.418275,0.86205 L23.582025,0.3558 C22.888275,-0.0627 22.034025,-0.1152 21.295275,0.2163 L20.348025,0.64005 C19.257525,1.12905 18.674025,2.3298 18.963525,3.4893 C19.142025,4.20555 19.631775,4.8048 20.298525,5.1213 L21.605025,5.7423 C22.493025,6.1638 23.547525,6.0183 24.287775,5.37105 L24.739275,4.97655 C25.161525,4.60755 25.445775,4.1058 25.544025,3.5538 L25.570275,3.40905 C25.751025,2.4033 25.292775,1.3908 24.418275,0.86205" id="Fill-10" fill="#E6E6E6"></path>
            <path d="M24.418275,0.86205 L23.582025,0.3558 C22.888275,-0.0627 22.034025,-0.1152 21.295275,0.2163 L20.348025,0.64005 C19.257525,1.12905 18.674025,2.3298 18.963525,3.4893 C19.142025,4.20555 19.631775,4.8048 20.298525,5.1213 L21.605025,5.7423 C22.493025,6.1638 23.547525,6.0183 24.287775,5.37105 L24.739275,4.97655 C25.161525,4.60755 25.445775,4.1058 25.544025,3.5538 L25.570275,3.40905 C25.751025,2.4033 25.292775,1.3908 24.418275,0.86205 Z" id="Stroke-12" stroke="#494949" stroke-width="1.5" stroke-linecap="round" stroke-linejoin="round"></path>
            <g id="Group-16" transform="translate(0.000000, 9.213900)">
                <mask id="mask-16" fill="white">
                    <use xlink:href="#path-15"></use>
                </mask>
                <g id="Clip-15"></g>
                <path d="" id="Fill-14" fill="#FFFFFF" mask="url(#mask-16)"></path>
            </g>
            <line x1="13.571475" y1="9.2139" x2="13.571475" y2="9.2139" id="Stroke-17" stroke="#494949" stroke-width="1.5" stroke-linecap="round" stroke-linejoin="round"></line>
        </g>
    </g>
</svg>