<svg id="Layer_1" data-name="Layer 1" xmlns="http://www.w3.org/2000/svg" viewBox="0 0 292.4 194.1"><defs><style>.cls-1{fill:#ececec;}.cls-2{fill:#4c4b4c;}.cls-3{fill:#4d4c4c;}.cls-4{fill:#4c4c4c;}.cls-5{fill:#4d4c4d;}.cls-6{fill:#4d4d4d;}.cls-7{fill:#565556;}.cls-8{fill:#fff;}.cls-9{fill:#fcfcfc;}.cls-10{fill:#f7f6f6;}.cls-11{fill:#f9f9f9;}.cls-12{fill:#d3d0d0;}.cls-13{opacity:0.5;}.cls-14{fill:#ed2183;}.cls-15{fill:#ebebeb;}.cls-16{fill:#eaeaeb;}.cls-17{fill:#eae9ea;}.cls-18{fill:#535051;}.cls-19{fill:#575556;}.cls-20{fill:#514f50;}</style></defs><title>7 windows-04-04</title><path class="cls-1" d="M154.26,177c.3-.2.5-.5.8-.5,7.4-1.4,7.9-1.9,8.2-9.8.4-11.6.7-23.1,1-34.7.1-3.1,1.3-6.1,1.1-9.3-.1-2.5-1-3.7-3.4-3.7.7-2.3,2.8-1.9,4.5-2,2.4-.2,4.9-.1,7.8-1.5-3.3-.8-6.5,1-8.9-1.3.1-1.7-.4-2.9-2.3-3.1.7-2.3,2.8-2.2,4.5-2.2a89,89,0,0,0,24.5-4.5c5.4-1.8,6.6-.7,5.8,5.1-2.6,19.2-5.9,38.2-8.5,57.3-.7,4.6-3.2,7.4-7.8,8.6a120.45,120.45,0,0,1-20.7,3.2C158.56,178.65,156.06,179,154.26,177Z"/><path class="cls-2" d="M154.26,176.55a131.25,131.25,0,0,0,26.5-3,9.7,9.7,0,0,0,4.8-2c1.7-1.6,2.1-4,2.5-6.3l9.4-61.8a150.54,150.54,0,0,1-92,0l7.3,47.7c.3,1.7,0,4.1-1.8,4.2-1.5.1-2.2-1.8-2.4-3.3L100.76,98c-.2-1.3-.7-3.8,1.2-3.9,1.5-.1,2.9,1.3,3.8,2.2,4.5,4.4,11,5.8,17.2,6.8a181.47,181.47,0,0,0,22.1,2,202,202,0,0,0,22-.6c4.5-.3,8.9-.9,13.4-1.6,6.2-1,12.8-2.5,17.2-7,1.1-1.2,2.8-2.6,4.1-1.6.8.6.8,1.9.6,2.9l-10.6,70.9c-.3,2.1-.7,4.3-2.2,5.8a11.08,11.08,0,0,1-4.2,2.1,123.37,123.37,0,0,1-66.3.5,11.1,11.1,0,0,1-3.9-1.6,10.16,10.16,0,0,1-3-4.1,24.35,24.35,0,0,1-2.2-9.2,3.08,3.08,0,0,1,.3-1.9,2.23,2.23,0,0,1,3.4,0,4.89,4.89,0,0,1,1,3.7,17,17,0,0,0-.1,3.9,7.65,7.65,0,0,0,4,5.1,20.54,20.54,0,0,0,6.4,1.9A143.1,143.1,0,0,0,154.26,176.55Z"/><path class="cls-2" d="M141.36,107a10,10,0,0,1-5.1-.8c-2.9-5.8-1.1-11.9-1.4-17.9a7.68,7.68,0,0,1,1.3-4.6c.1-6.8-.5-13.7,5.7-18.7.7-.6.4-2.5.4-3.8V39.25c1.2-1.3,2.6-1.2,4-.5,2.2,2.8,1.2,6,1.4,9.1.2,3.8-.1,7.6.6,11.4.7-6.8.5-13.5.5-20.3a8.93,8.93,0,0,1,5.4-6.9c0,9.4.1,18.9.1,28.3,0,1.4-.7,3.2.9,4.1,7,3.9,7.4,10.4,7.1,17.3,0,.5.1,1,.1,1.5,1.2,1.2,1.2,2.8,1.3,4.3.2,4.7.1,9.3.1,14,0,1.8,0,3.7-1.4,5.1l-4.2.2c-1.6-1.8-1.2-4.1-1.2-6.2-.1-7.8.2-15.6-.1-23.4-.3-7-4.8-9.9-10.9-7.4-.3,1.3.9,1.6,1.4,2.4,3.1,4.2,2.6,8.2-2,10.9-2.9,1.7-3.7,3.8-3.8,6.8C141.56,95.75,142.16,101.35,141.36,107Z"/><path class="cls-2" d="M104.26,96.25a2.69,2.69,0,0,0-3.8-.2c-1.1-6.7-2.3-13.4-3.4-20.2-.7-4.6.3-8.7,3.9-11.8,2-1.7,1.6-3.4,1.3-5.4-1.3-9.2-2.7-18.4-4.1-27.6,3.1.5,4.5,2.9,6,5.3,1.3,7,1.7,14.2,4.1,21.1-.1-5.6-1.3-11-2-16.5-.2-1.8-1.2-3.5.1-5.2,1.7-.8,3.2-.9,4.6.5,1.1,7.6,2.3,15.1,3.4,22.7.2,1.1.6,2.6,1.3,3.1,5.9,3.5,7.1,9.2,7.8,15.3a72.53,72.53,0,0,0,1.7,7.8,9.48,9.48,0,0,1,2,4.3c.3,5.5,3.3,10.8,1.8,16.5l-4.9-.8c-2.9-5.8-2.8-12.3-4.1-18.4-.7-3.3-1.5-5.7-5.3-6.9-4.5-1.5-5.6-5.3-3.7-10.2.3-.9,1.4-1.7.6-2.7s-2.1-.7-3.3-.4c-4.2.8-6.8,4.7-6.1,9.4.8,5.1,1.8,10.2,2.6,15.3C105.16,92.85,105.86,94.65,104.26,96.25Z"/><path class="cls-3" d="M173.26,72.25c-9.4-2.4-9.5-2.4-7.9-11.9,1.2-7.2,2.7-14.3,3.8-21.5.4-3.1,1.8-4,4.6-3.4,3.3.7,6.5,1.1,9.8,1.9,4.2,1,7.2,3.7,6.6,8-1.1,8.3-1.6,16.8-4.9,24.7C182.36,74,179.06,74.55,173.26,72.25Z"/><path class="cls-4" d="M201.46,63.35c-10.4-3.6-9.7-1.5-6.2-12.3,2.3-7.1,4.8-14.1,6.9-21.2.9-3,2.4-3.6,5.1-2.7,3.1,1.1,6.3,1.9,9.4,3.1,4.2,1.7,6.7,5,5.4,9.4-2.3,7.6-4.1,15.3-7.6,22.5-1.4,1.7-2.7,3.5-5.1,3.8a7,7,0,0,1-2.9-.1C204.66,65.25,202.56,65.35,201.46,63.35Z"/><path class="cls-2" d="M173.26,72.25c4.1-.3,8.5,1.2,12-2.3-1,5.3-2,10.6-2.9,15.9a11.88,11.88,0,0,1-.1,4.6c-1.8,4.8-.9,10.4-4.6,14.6l-4.6.8c-1.2-2.9.2-5.5.7-8.3,1.3-7.1,3.5-14.1,4.1-21.4-1.6,5.7-3.1,11.5-4.5,17.3-1.1,4.3-.7,9-4.1,12.6-1.3.2-2.6.5-3.5-.7-1.6-3.9.5-7.4,1-11.1.3-2,.8-3.9,1.2-5.8a9.47,9.47,0,0,1,2.1-4.4C172.06,80.25,171.86,76.05,173.26,72.25Z"/><path class="cls-5" d="M103.36,35.85a16.64,16.64,0,0,1-5.1-4.8c-2.7-9.9,3.4-17.2,13.4-15.8,1.7.2,2.5,1.5,3.3,2.8,2.6,4.4,2.8,9.1,2.2,14-.5,3.5-3.4,3.5-6,4.1l-4.9.2a1.79,1.79,0,0,1-2.6-.2C103.46,36.05,103.46,36,103.36,35.85Z"/><path class="cls-3" d="M154.16,32.05c-1.4,2.2-2.5,4.6-4.9,6-.6,1.4-1.5,2-2.9,1.1l-4.1.1c-6.4-.3-8.2-2.8-8-11.1.2-6.2,1.9-8.9,6-9,9.2-.3,13.4,2.3,14,9C154.26,29.45,154.26,30.75,154.16,32.05Z"/><path class="cls-6" d="M165.26,114.05a37.36,37.36,0,0,0,8.8-.7c1.4-.3,2.7.3,2.8,1.9.1,1.4-1.1,1.8-2.3,2-4.2.5-8.4,1.1-12.6,1.6-12.5.4-25,.3-37.4-1.7-1.8-.3-4.8.3-4.2-2.7.6-2.7,3.4-1.4,5.1-1.1a165.53,165.53,0,0,0,37.9,1.1A4.06,4.06,0,0,0,165.26,114.05Z"/><path class="cls-2" d="M201.76,63.65h0a5.26,5.26,0,0,1,1.7.4c.4.1,3.6,1.1,3.6,1-4.2,11.2-7.1,22.9-12.7,33.7a8,8,0,0,1-1.5,2.1c-1.4,1.2-3.6,1.2-5.2,2-.9-1.9-.2-3.9.4-5.7a32.81,32.81,0,0,1,2-5.2c.9-1.8,2-3.4,3-5.1a31.65,31.65,0,0,0,2.2-5c1.4-3.4,2.6-6.9,3.8-10.3.8-2.2,1.5-4.5,2.2-6.7C201.36,64.45,201.36,63.75,201.76,63.65Z"/><path class="cls-2" d="M209.16,65.15l5.2-3c-3.7,11.5-7.5,23-12,34.2a4.3,4.3,0,0,0-3.1-1.2,2.44,2.44,0,0,1-.6-2.3c2.7-8.9,5.2-17.8,9.2-26.2A9.34,9.34,0,0,1,209.16,65.15Z"/><path class="cls-7" d="M114.56,111.65c1.5.4,3.3.3,3,2.4a1.88,1.88,0,0,1-2,1.7.75.75,0,0,1-.5-.1c-1.3-.4-3.2-.3-2.9-2.5C112.36,111.75,113.36,111.55,114.56,111.65Z"/><path class="cls-8" d="M141.36,107c-2.2-7.3-.6-14.8-1-22.2,0-1,.6-1.5,1.6-1.6,3.5-.5,6-2.2,6.2-6,.2-3.6-2.6-5.1-5.6-6.6a7.63,7.63,0,0,1,9.2-3.1,8.74,8.74,0,0,1,6.5,9c0,10.1-.1,20.3-.1,30.4Z"/><path class="cls-8" d="M104.26,96.25c-1.1-7-2.2-14.1-3.4-21.1-.7-4,1-6.9,4-9a8.38,8.38,0,0,1,8.5-.9c1.5.7,2.8,1.6.5,3.1a5.59,5.59,0,0,0-2.3,7,5.44,5.44,0,0,0,5.8,3.8c1.8-.1,2.7.5,3,2.4,1.3,7.8,3.4,15.5,3.8,23.5a55.28,55.28,0,0,1-15-3.9C107,100.15,104.66,99.15,104.26,96.25Z"/><path class="cls-8" d="M209.16,65.15l-9.9,30c-1.2,2.7-2.7,5-5.9,5.8,3.6-10.8,7.1-21.5,10.7-32.3.5-1.4.9-2.8,2.3-3.7Z"/><path class="cls-8" d="M169.36,106.05c2-9.2,4-18.3,6.1-27.5.2-1,.7-1.9.8-2.8.3-1.5.7-2.7,2.5-2.4,2,.3,1.6,1.8,1.3,3.1-2.3,9.8-4.6,19.7-6.9,29.4Z"/><path class="cls-8" d="M146.36,39.15l2.9-1.1c2.3,4.9.5,10,1,15,.2,2.3,0,4.6,0,6.9,0,1.5,0,3.1-2.2,3-2-.2-1.7-1.7-1.7-3C146.26,53.05,146.36,46.15,146.36,39.15Z"/><path class="cls-8" d="M142.36,75.35c1.1.2,1.8.9,1.6,2a1.69,1.69,0,0,1-1.9,1.5,1.64,1.64,0,0,1-1.5-1.7,1.71,1.71,0,0,1,1.7-1.8Z"/><path class="cls-8" d="M103.36,35.85l2.9.4c2.7,6.8,2.6,14.2,4,21.3a2.22,2.22,0,0,1-1.5,2.8c-.1,0-.3.1-.4.1-1.7.3-1.9-.9-2-2.1C105.36,50.85,103.26,43.45,103.36,35.85Z"/><path class="cls-8" d="M118.26,73.25c0,1.2-.6,1.9-1.9,1.7a1.54,1.54,0,0,1-1.5-1.5v-.1c.1-1,.5-2,1.7-2A1.68,1.68,0,0,1,118.26,73.25Z"/><path class="cls-9" d="M176.36,68.35l-5.9-1.1c-1.1-.2-2.5,0-2-1.9.3-1.5.9-2.5,2.7-1.9a6.46,6.46,0,0,0,1.9.4c1.4.2,2.8.3,3.2-1.4s-.7-2.4-2.2-2.6c-.8-.1-1.6-.5-2.4-.6-1.5-.2-1.8-1-1.6-2.4.2-1.6,1-1.8,2.4-1.4a10,10,0,0,0,2.4.4c1.4.2,2.8-.1,3-1.8.1-1.4-.9-2-2.2-2.2-.8-.1-1.6-.4-2.4-.5-1.2-.3-2.3-.4-2-2.2.3-1.5,1-1.9,2.4-1.6a10.07,10.07,0,0,0,2.5.3c1.3.1,2.9.3,3-1.6.1-1.7-1.2-2-2.6-2.4s-4.3.3-3.7-2.6c.7-3.2,3.4-1.4,4.9-1.1,8.5,1.3,8.8,1.7,7.4,10.1-.7,4.4-1.8,8.8-2.5,13.2C182.26,67.55,180.56,69.45,176.36,68.35Z"/><path class="cls-9" d="M207.06,60.85c-2.7-.9-5.3-1.9-8-2.6-1.8-.5-1.2-1.5-.9-2.6.3-1.3,1-1.6,2.1-1.1a5.78,5.78,0,0,0,1.4.5c1.5.3,3.5,1.7,4.4-.5,1-2.6-1.5-2.8-3.1-3.4-1.4-.5-3.2-.7-2.4-2.9s2.4-1.2,3.8-.8c1.6.4,3.5,1.6,4.3-.7.9-2.6-1.8-2.7-3.3-3.3-1.3-.6-3.1-.3-2.2-2.8s2.2-1.2,3.6-.8c1.6.4,3.9,1.7,4.6-.9.6-2.2-1.8-2.3-3.3-2.9-1.2-.5-3.2-.5-2.5-2.8.9-2.8,2.6-1,4-.8a20.74,20.74,0,0,1,3.3,1c5.7,1.9,6.3,3,4.4,8.7-1.6,5-3.3,10.1-5.1,15.1C211.26,59.35,210.06,61.35,207.06,60.85Z"/><path class="cls-10" d="M108.46,32c-4.9.7-6.7-2-7-6-.3-3.8,3.7-7,8-5.9,5.2,1.2,3.2,5.8,3.9,9.5-2.8-1.1-.9-6.8-4.9-5C105.36,26,109,29.25,108.46,32Z"/><path class="cls-11" d="M138.46,30.05c0-2.5-1.2-5.8,2.1-6.8,2.5-.7,5.7-1,7.9,1.5a5.91,5.91,0,0,1,.9,7.3c-1,1.9-2.6,3.5-4.7,2.8s-.1-2.5-.4-3.8.4-3.3-1.5-3.7-2.4,1.2-2.6,2.8a1,1,0,0,1-1.4.3A1.38,1.38,0,0,1,138.46,30.05Z"/><path class="cls-12" d="M138.46,30.05h1.7c.1,1,.6,2.6-.8,2.6S138.36,31.05,138.46,30.05Z"/><g class="cls-13"><path class="cls-14" d="M162.46,83.15a7.57,7.57,0,0,1-.1-1.5c.3-6.9-.1-13.4-7.1-17.3-1.6-.9-.9-2.7-.9-4.1-.1-9.4-.1-18.9-.1-28.3-1.3,2.2-2.5,4.6-4.9,6h0c2.3,4.9.5,10,1,15,.2,2.3,0,4.6,0,6.9,0,1.5,0,3.1-2.2,3-2-.2-1.7-1.7-1.7-3,0-6.9.1-13.9.1-20.8h0l-4.1.1h0v21.9c0,1.3.3,3.2-.4,3.8-6.2,5-5.6,11.9-5.7,18.7a8.45,8.45,0,0,0-1.3,4.6c.3,6-1.5,12.1,1.4,17.9a9.83,9.83,0,0,0,5.1.8c-2.2-7.3-.6-14.8-1-22.2a1.5,1.5,0,0,1,1.5-1.6c3.5-.5,6-2.2,6.2-6,.2-3.5-2.6-5.1-5.5-6.6a7.63,7.63,0,0,1,9.2-3.1,8.74,8.74,0,0,1,6.5,9c0,10.1-.1,20.3-.1,30.4l4.2-.2c1.4-1.4,1.4-3.3,1.4-5.1,0-4.7.2-9.4-.1-14C163.66,86,163.66,84.45,162.46,83.15Zm-18.4-5.8a1.69,1.69,0,0,1-1.9,1.5,1.64,1.64,0,0,1-1.5-1.7,1.71,1.71,0,0,1,1.7-1.8h.1C143.56,75.55,144.26,76.15,144.06,77.35Z"/><path class="cls-14" d="M125.46,85a72.53,72.53,0,0,1-1.7-7.8c-.7-6.1-1.9-11.8-7.8-15.3-.8-.5-1.2-2-1.3-3.1-1.1-7.5-2.3-15.1-3.4-22.7h0l-4.9.1c2.7,6.8,2.6,14.2,4,21.3a2.22,2.22,0,0,1-1.5,2.8c-.1,0-.3.1-.4.1-1.6.3-1.9-.9-2-2.1-1-7.5-3.1-14.9-3-22.5a16.64,16.64,0,0,1-5.1-4.8h0c1.4,9.2,2.7,18.4,4.1,27.6.3,2,.6,3.7-1.4,5.4-3.6,3-4.6,7.2-3.9,11.8,1.1,6.7,2.3,13.4,3.4,20.2a2.69,2.69,0,0,1,3.8.2c-1.1-7-2.2-14.1-3.4-21.1-.7-4,1-6.9,4-9a8.38,8.38,0,0,1,8.5-.9c1.5.7,2.8,1.6.5,3.1a5.59,5.59,0,0,0-2.3,7,5.44,5.44,0,0,0,5.8,3.8c1.8-.1,2.7.5,3,2.4,1.3,7.8,3.4,15.5,3.8,23.5h0l4.9.8c1.5-5.7-1.5-11-1.8-16.5A8.41,8.41,0,0,0,125.46,85Zm-8.9-10a1.54,1.54,0,0,1-1.5-1.5v-.1c.1-1,.5-2,1.7-2s1.6.8,1.6,1.9S117.76,75.15,116.56,75Z"/><path class="cls-14" d="M190.16,45.15c.6-4.3-2.4-7-6.6-8-3.2-.7-6.5-1.2-9.8-1.9-2.9-.6-4.2.3-4.6,3.4-1.1,7.2-2.6,14.4-3.8,21.5-1.6,9.5-1.5,9.5,7.9,11.9,4.1-.3,8.5,1.2,12-2.2v-.1C188.56,62,189.06,53.45,190.16,45.15Z"/><path class="cls-14" d="M216.66,30.25c-3.1-1.2-6.3-2-9.4-3.1-2.7-.9-4.2-.4-5.1,2.6-2.1,7.1-4.6,14.2-6.9,21.2-3.5,10.8-4.2,8.7,6.2,12.3.1.1.2.2.2.3a.1.1,0,0,1,.1-.1h0a5.26,5.26,0,0,1,1.7.4c.3.1,2.2.7,3.1.9l2.6.2,5.2-3h0c3.5-7.1,5.3-14.9,7.6-22.5C223.36,35.25,220.86,32,216.66,30.25Z"/><path class="cls-14" d="M173.36,72.15c-1.4,3.8-1.2,8-3.1,11.7a10.55,10.55,0,0,0-2.1,4.4c-.4,2-.9,3.8-1.2,5.8-.5,3.7-2.6,7.2-1,11.1,1,1.2,2.2,1,3.5.7h0c2-9.2,4-18.3,6.1-27.5.2-1,.7-1.9.8-2.9.3-1.5.7-2.6,2.5-2.4,2,.3,1.6,1.9,1.3,3.1l-6.9,29.4,4.5-.8c3.7-4.2,2.8-9.8,4.6-14.6a14.21,14.21,0,0,0,.1-4.6c1-5.3,1.9-10.6,2.9-15.9h0C181.76,73.35,177.36,72,173.36,72.15Z"/><path class="cls-14" d="M103.46,35.85l2.9.4h0l4.9-.1h0c2.5-.6,5.5-.6,6-4.1.7-4.9.4-9.6-2.2-14-.8-1.3-1.5-2.6-3.3-2.8-10-1.3-16.2,6-13.4,15.8h0A18,18,0,0,0,103.46,35.85Z"/><path class="cls-14" d="M146.46,39.15l2.9-1.1h0c2.4-1.4,3.5-3.7,4.9-6h0a25.41,25.41,0,0,0,.1-3.9c-.6-6.7-4.8-9.3-14-9-4.1.1-5.8,2.8-6,9-.2,8.3,1.6,10.8,8,11.1h0l4.1-.1Z"/><path class="cls-14" d="M206.46,64.85h.1c-.9-.2-2.8-.8-3.1-.9s-1.3-.6-1.7-.4h0l-.1.1c-.3.2-.3.8-.4,1.1-.7,2.3-1.4,4.5-2.2,6.7-1.2,3.5-2.5,6.9-3.8,10.3a31.65,31.65,0,0,1-2.2,5c-1,1.7-2.1,3.3-3,5.1a32.81,32.81,0,0,0-2,5.2c-.6,1.9-1.3,3.8-.4,5.7,1.7-.8,3.8-.8,5.2-2a5.8,5.8,0,0,0,1-1.2c3.4-10.4,6.9-20.7,10.3-31.1C204.66,67.15,205.06,65.75,206.46,64.85Z"/><path class="cls-14" d="M199.36,95.15h0a4.3,4.3,0,0,1,3.1,1.2c4.5-11.2,8.3-22.7,12-34.2h0l-5.2,3Z"/><path class="cls-14" d="M151.86,67.55a7.4,7.4,0,0,0-9.2,3.1c3,1.5,5.8,3,5.5,6.6-.2,3.8-2.7,5.5-6.2,6a1.5,1.5,0,0,0-1.5,1.6c.4,7.4-1.2,14.9,1,22.2h16.8c0-10.1.1-20.3.1-30.4A8.81,8.81,0,0,0,151.86,67.55Z"/><path class="cls-14" d="M117.46,79.05a5.44,5.44,0,0,1-5.8-3.8,5.38,5.38,0,0,1,2.3-7c2.3-1.5,1-2.4-.5-3.1a8.4,8.4,0,0,0-8.5.9c-3,2.1-4.7,5-4,9,1.2,7,2.3,14.1,3.4,21.1.4,2.9,2.7,3.9,5,4.9a55.28,55.28,0,0,0,15,3.9h0c-.5-8-2.5-15.7-3.8-23.5C120.06,79.55,119.26,79,117.46,79.05Z"/><path class="cls-14" d="M206.66,65h-.1c-1.4.8-1.8,2.3-2.3,3.7-3.4,10.4-6.9,20.7-10.3,31.1-.1.4-.3.8-.4,1.2,3.1-.8,4.7-3.1,5.9-5.8h0l9.9-30Z"/><path class="cls-14" d="M178.76,73.25c-1.8-.3-2.2.9-2.5,2.4-.2,1-.6,1.9-.8,2.9-2,9.2-4.1,18.3-6.1,27.5h0l3.8-.2h0l6.9-29.4C180.46,75.15,180.76,73.55,178.76,73.25Z"/><path class="cls-14" d="M146.46,39.15c0,6.9-.1,13.9-.1,20.8,0,1.3-.3,2.8,1.7,3,2.2.1,2.2-1.5,2.2-3,0-2.3.2-4.7,0-6.9-.5-5,1.3-10.1-1-15h0l-2.8,1.1Z"/><path class="cls-14" d="M142.36,75.35a1.71,1.71,0,0,0-1.7,1.8,1.66,1.66,0,0,0,1.5,1.7,1.71,1.71,0,0,0,1.9-1.5c.2-1.1-.5-1.8-1.6-2Z"/><path class="cls-14" d="M103.46,35.85c-.1,7.6,2,15,3,22.5.1,1.2.4,2.4,2,2.1a.6.6,0,0,0,.4-.1,2.3,2.3,0,0,0,1.5-2.8c-1.4-7.1-1.3-14.5-4-21.3h0Z"/><path class="cls-14" d="M116.76,71.35c-1.2,0-1.6,1-1.7,2v.1a1.54,1.54,0,0,0,1.5,1.5,1.56,1.56,0,0,0,1.9-1.7C118.26,72.15,118,71.35,116.76,71.35Z"/></g><path class="cls-15" d="M126.36,89l9.8-1c0,6.1,0,12.2.1,18.3l-7.1-.3C128,100.15,126.36,94.65,126.36,89Z"/><path class="cls-16" d="M181.36,89.75l10,2.5c-.2,3.8-2.3,7-3,10.6a42.55,42.55,0,0,1-10.6,2.2C178.86,100,179.46,94.75,181.36,89.75Z"/><path class="cls-17" d="M162.46,87.35l6.9,1c-1.2,5.6-2.3,11.3-3.5,16.9a2.78,2.78,0,0,1-3.5,1.4C162.36,100.25,162.36,93.85,162.46,87.35Z"/><path class="cls-18" d="M192.66,88.55c-.4,1.3,0,2.8-1.3,3.8a10.3,10.3,0,0,1-10-2.5c-.1-1.4-.2-2.8.9-3.9Z"/><path class="cls-19" d="M170.16,84a6.22,6.22,0,0,1-.9,4.4c-2.6,1.4-4.8.6-6.9-1v-4.2Z"/><path class="cls-20" d="M126.36,89a4.81,4.81,0,0,1-1-4l10.8-1.2V88C133.06,90.25,129.76,89.85,126.36,89Z"/></svg>