<svg id="Layer_1" data-name="Layer 1" xmlns="http://www.w3.org/2000/svg" viewBox="0 0 292.4 194.1"><defs><style>.cls-1{fill:#4a4a4a;}.cls-2{fill:#4c4c4c;}.cls-3{fill:#4c4b4c;}.cls-4{fill:#f9f9f9;}.cls-5{fill:#fafafa;}.cls-6{fill:#4f4f4f;}.cls-7{fill:#5d5d5d;}.cls-8{opacity:0.5;}.cls-9{fill:#fe0082;}</style></defs><title>7 windows-04-04</title><path class="cls-1" d="M193.84,139.35c2.1,1.2,1.8,3.1,1.5,5.1-1.3,11.1-2.7,22.1-3.8,33.3-.4,3.6-2.5,5.5-5.4,6.7a47.51,47.51,0,0,1-13.4,3.1c-13.7,1.3-27.3,1.5-40.8-1.6-6.3-1.4-9.5-4.4-10.2-11.6-2.4-24-5.6-47.8-8.7-71.6-.7-5.7,1.8-8.7,6.5-10.7,9.4-4,19.3-4.8,29.3-5.4,1.6,2.6,0,4.1-2,5.4-6.3,2.2-13.3,1.6-19.6,3.9-1.7.5-3.3,1-4.9,1.6-.9.4-1.8.9-1.9,2-.2,1.4,1,2,2.1,2.4a51,51,0,0,0,18.5,3.8c2.5,0,4.8,1.3,7.4.9,6.9-.1,13.8.5,20.6-.7a35.53,35.53,0,0,1,4.6-.3c5.6.2,10.9-1.3,16.1-3.1,1.6-.5,3.8-.9,3.7-3s-2.4-2.2-3.9-2.9c-3.1-1.5-6.7-1.3-9.7-3.2-.9-2.4-.4-4.2,2.3-4.9a3.59,3.59,0,0,1,1.1.2c16.7,3.5,18.1,5.2,16.3,21.8-.5,4.3-1,8.6-1.7,12.8-.3,2.1-.6,4.3-.9,6.4a37.76,37.76,0,0,1-.6,4.7,1.62,1.62,0,0,1-.5.9,2.92,2.92,0,0,1-.9.2,3.78,3.78,0,0,1-2.1-.4,2.94,2.94,0,0,1-1.3-1.8c-1.7-6.4,1.1-13.7,1.2-20.2,0-3.7-2.8-2.4-5.5-1.7-5.9,1.6-12.1,1.6-18,2.8a138.08,138.08,0,0,1-43-2.8c-5.6-1.3-5.6-1.3-5,4.3,2.1,18.1,4.5,36.3,6.5,54.4.9,8.2,2,8.9,10.3,10.5a80.63,80.63,0,0,0,17,1.2c8.4,0,16.3-.1,24.5-2a9.79,9.79,0,0,0,3.7-1.4,7.3,7.3,0,0,0,2.5-4.8c1.6-9.3,2.1-18.8,3.4-28.2C189.44,142.75,188.94,138.65,193.84,139.35Z"/><path class="cls-2" d="M147.54,108a27.34,27.34,0,0,1-5-.5,2.77,2.77,0,0,1-1.3-.3c-1.7-.8-.5-3.1-.1-4.4a25,25,0,0,1,1.5-3.8c3.7-8.4,8.6-16.2,12-24.8,2.3-5.8,5.1-11.2,11.6-13.3,2-.7,2.2-2.5,2.8-4.1l9.3-24c2-1.1,3.4-.3,4.6,1.4.9,3.5-1.1,6.3-2.2,9.3-1.7,4.8-3.9,9.4-4.7,14.5,5-7.6,6.6-16.7,10.9-24.6,1.9-1.8,4-3.1,6.8-2.1-3.7,9.7-7.3,19.4-11.1,29-.9,2.4-1.3,4.3.6,6.8,4.2,5.6,2.1,11.2.3,17.2l-4.8,15.3c-.7,2.2-1,4.5-2.7,6.1a6.88,6.88,0,0,1-5.3,1.6,2.92,2.92,0,0,1-.9-.2,1.9,1.9,0,0,1-.7-1.1c-.4-1.8.8-3.8,1.5-5.4.8-2,1.7-4.1,2.5-6.2,1.6-4.1,3.1-8.1,4.7-12.2a29.77,29.77,0,0,0,1.8-6,8.19,8.19,0,0,0-1.4-5.9c-1.7-2.1-4.4-2.8-7.1-3.2-.7-.1-1.6-.1-1.9.5s.1,1.2.4,1.8a9,9,0,0,1,.9,6.8,7.42,7.42,0,0,1-4.7,4.9c-2.1.6-4.6.2-6.5,1.3s-2.8,3.2-3.5,5.2c-2.1,5.3-4.4,10.6-6.9,15.8A7.14,7.14,0,0,0,147.54,108Z"/><path class="cls-3" d="M182.34,34.25l-4.1-1.4c-6.5-3.2-7.4-5.8-4.5-13.9,2.6-7.3,6.2-10.6,10.1-9.2,11.2,3.7,14.4,8.5,11.4,17.3-.5,1.5-1.1,2.9-1.7,4.3l-6.6,3A3.5,3.5,0,0,1,182.34,34.25Z"/><path class="cls-4" d="M147.54,108.05c-2.1-1.2-1.4-2.6-.7-4.3,3.1-7,6-14.1,9-21.2.7-1.5,1.2-3.8,3.5-2.9,4.1,1.5,7.1.5,9.2-3.3,2.2-4.1-.4-6.8-3.3-9.7a9.42,9.42,0,0,1,11.8.6c3.3,2.8,4.9,6.7,3.1,11.4-3.7,9.5-7.2,19-10.7,28.5C162.34,109.05,154.94,108.05,147.54,108.05Z"/><path class="cls-4" d="M182.34,34.25h4.6c-1.9,8.5-5.9,16.2-8.7,24.3-.6,1.6-1.7,2.8-3.5,2.1-2.7-1-1.1-2.8-.5-4.3C176.84,49,179.64,41.65,182.34,34.25Z"/><path class="cls-4" d="M164.64,73.55a1.9,1.9,0,0,1-1.9,1.9h-.3a1.86,1.86,0,0,1-1.7-1.9v-.1h0a1.89,1.89,0,0,1,1.8-2h.4A2,2,0,0,1,164.64,73.55Z"/><path class="cls-5" d="M178.74,19.05c.8-2,2.1-5.8,4.9-4.4,3.3.8,6.9,1.7,7.8,5.8a7.19,7.19,0,0,1-3.3,8c-2.2,1.5-7.3,1.7-5.7-2.2.8-2,3.8-4.7,1-6.5a1.81,1.81,0,0,0-2.6.4h0c-.6.6-1.4,2.1-2.4.9a1.59,1.59,0,0,1,0-1.5C178.64,19.45,178.64,19.25,178.74,19.05Z"/><path class="cls-6" d="M139.94,121.15a48.12,48.12,0,0,1-13-2.4c-1.6-.5-3-1.3-2.6-3.1.5-2.1,2.3-1.9,3.7-1.4,5.1,1.8,10.5,2.2,15.9,2.5,1.8.1,4.6-.1,4.4,2.5-.1,3.1-3,2.2-5,2.2C142.34,121.35,141.44,121.25,139.94,121.15Z"/><path class="cls-7" d="M154.34,116.65c1.7,0,3.3.7,3.2,2.5-.1,2.2-2.2,2.3-3.9,2.5s-3.3-.6-3.2-2.4C150.54,117.15,152.54,117,154.34,116.65Z"/><g class="cls-8"><path class="cls-9" d="M186.84,34.35c-1.9,8.5-5.9,16.2-8.8,24.3-.6,1.6-1.7,2.8-3.5,2.1-2.7-1-1.1-2.8-.5-4.3,2.7-7.4,5.5-14.8,8.2-22.2l-4.2-1.5h-.1c-3.1,8-6.2,16.1-9.3,24.1-.6,1.5-.8,3.4-2.8,4.1-6.5,2.1-9.3,7.5-11.7,13.3-3.4,8.5-8.4,16.4-12.1,24.8a31.21,31.21,0,0,0-1.5,3.9c-.4,1.3-1.6,3.6.1,4.4a3.08,3.08,0,0,0,1.3.3,27.15,27.15,0,0,0,4.9.5c-2-1.1-1.2-2.6-.5-4.2,3.1-7,6-14.2,9-21.2.7-1.5,1.2-3.8,3.5-2.9,4.1,1.5,7.2.5,9.3-3.3,2.2-4.1-.4-6.8-3.3-9.7a9.57,9.57,0,0,1,11.9.6c3.3,2.8,4.9,6.8,3.1,11.4-3.7,9.5-7.2,19-10.7,28.5a1.88,1.88,0,0,0,.8.2,7.16,7.16,0,0,0,5.3-1.6c1.7-1.6,2.1-3.9,2.7-6.1l4.8-15.3c1.9-6,3.9-11.7-.3-17.2-1.9-2.4-1.5-4.4-.6-6.8,3.8-9.6,7.4-19.4,11.1-29.1l-6.1,2.9Zm-24.4,41.3H162a1.88,1.88,0,0,1-1.7-2v-.1a1.9,1.9,0,0,1,1.8-2h.4a2,2,0,0,1,1.7,2.1A1.74,1.74,0,0,1,162.44,75.65Z"/><path class="cls-9" d="M183.74,9.55c-3.9-1.3-7.6,2-10.2,9.3-2.9,8.1-2.1,10.8,4.5,14h0l4.1,1.4h4.6v.1h0l6.6-3h.1c.6-1.4,1.2-2.8,1.7-4.3C198.14,18.25,195,13.35,183.74,9.55Zm-1.4,16.7c.8-2,3.8-4.7,1-6.5a1.81,1.81,0,0,0-2.6.4v.1c-.6.6-1.4,2.1-2.4.9a1.59,1.59,0,0,1,0-1.5l.3-.6c.8-2,2.1-5.8,4.9-4.4,3.3.8,7,1.7,7.8,5.8a7.13,7.13,0,0,1-3.3,8C185.94,30,180.74,30.15,182.34,26.25Z"/><path class="cls-9" d="M177,67.45c-3.3-2.8-7.5-3.4-11.9-.6,2.9,2.9,5.5,5.6,3.3,9.7-2.1,3.8-5.1,4.8-9.3,3.3-2.4-.9-2.9,1.4-3.5,2.9-3,7.1-6,14.2-9,21.2-.7,1.6-1.4,3.1.5,4.2l.1.1c7.4,0,14.8,1.1,22.1-.8v-.1c3.6-9.5,7.1-19,10.7-28.5A9.39,9.39,0,0,0,177,67.45Z"/><path class="cls-9" d="M174.54,60.65c1.8.7,3-.5,3.5-2.1,2.8-8.1,6.9-15.8,8.8-24.3v-.1h-4.6c-2.8,7.4-5.5,14.8-8.2,22.2C173.44,58,171.84,59.65,174.54,60.65Z"/><path class="cls-9" d="M162.74,71.55h-.4a1.89,1.89,0,0,0-1.8,2v.1a1.88,1.88,0,0,0,1.7,2h.4a1.9,1.9,0,0,0,1.9-1.9A2.26,2.26,0,0,0,162.74,71.55Z"/><path class="cls-9" d="M191.34,20.45c-.9-4.1-4.6-5-7.8-5.8-2.8-1.4-4.1,2.4-4.9,4.4l-.3.6a1.59,1.59,0,0,0,0,1.5c1,1.2,1.8-.3,2.4-.9v-.1a1.9,1.9,0,0,1,2.6-.4c2.8,1.8-.2,4.5-1,6.5-1.6,3.9,3.5,3.7,5.7,2.2A7.13,7.13,0,0,0,191.34,20.45Z"/></g></svg>