<svg id="Layer_1" data-name="Layer 1" xmlns="http://www.w3.org/2000/svg" viewBox="0 0 292.4 194.1"><defs><style>.cls-1{fill:#ececec;}.cls-2{fill:#4c4b4c;}.cls-3{fill:#4d4c4d;}.cls-4{fill:#4d4c4c;}.cls-5{fill:#fff;}.cls-6{fill:#f8f8f7;}.cls-7{fill:#dad8d7;}.cls-8{fill:#f7f6f6;}.cls-9{fill:#504f50;}.cls-10{fill:#525252;}.cls-11{opacity:0.5;}.cls-12{fill:#ee2e7d;}.cls-13{fill:#ed2183;}.cls-14{fill:#ec2082;}.cls-15{fill:#ed1b80;}.cls-16{fill:#ebebeb;}.cls-17{fill:#e9eaea;}.cls-18{fill:#eae9ea;}.cls-19{fill:#eaeaea;}</style></defs><title>7 windows-04-04</title><path class="cls-1" d="M115.2,111.59c7.6-1.4,15.5-1.4,23.3-5.2-.8,7.3-1.5,13.9-2.3,20.5-.3,2.4-.4,4.5,3.1,3.8-1,1.1-2.5,2-2,3.8-3.4.9-2.6,4-2.9,6.2-1.1,7.6-2.2,15.1-2.6,22.8-.2,5.1-2.7,7-7.1,7.6-2.1.3-4.3.5-6.4.8a3.78,3.78,0,0,1-1.2-3.6c1.1-14.3,1.1-28.7,2.3-43,.1-1.3.2-2.6.3-4C120.4,117.09,119.6,113.49,115.2,111.59Z"/><path class="cls-1" d="M224.4,134.89c-3.9-.6-3.4,2.5-3.6,4.5-1,7.7-2.2,15.5-2.5,23.2-.3,6.2-3.5,8.4-8.8,8.9-1.3.1-2.6.1-4,.2a5.68,5.68,0,0,1-1.2-4.1c1.2-17.5,1.7-35.1,2.8-52.6a5.65,5.65,0,0,1,1.5-4.1c5.1-1.2,10.5-1.7,16.2-4.4-.8,6.3-1.4,11.9-2.1,17.5-.2,1.5-.2,3-.3,4.5-.1,2.5,1.3,2.7,3.2,2.3Z"/><path class="cls-2" d="M199.7,89.19a4.12,4.12,0,0,1,2.2-.1c7.7.8,15.6,1.6,22.6,4.9a8.94,8.94,0,0,1,3.9,3c1.2,1.9,1,4.4.7,6.7l-2.9,24.4c-.2,1.3-.5,2.9-1.8,3.3a2.43,2.43,0,0,1-2.8-1.4,7.39,7.39,0,0,1-.5-3.3,82,82,0,0,1,1.4-13.1c.3-1.3.3-3.1-.9-3.7a3.08,3.08,0,0,0-1.9,0,120.86,120.86,0,0,1-56.1.1c-1-.2-2.2-.4-2.8.3a2.93,2.93,0,0,0-.4,2.2l6,49.7a11.16,11.16,0,0,0,1.4,4.8c1.8,2.4,4.9,2.7,7.7,3.1,3.4.5,6.8.8,10.2,1a99,99,0,0,0,15.4-.3c2.3-.2,4.6-.5,6.9-.7,2.1-.2,4.4-.5,6.2-1.9.3-.2.5-.5.8-.7,1.2-1.4,1.5-3.4,1.7-5.2l2.9-24.5c.2-1.3.5-2.9,1.7-3.4a2.79,2.79,0,0,1,3.3,1.6,8.11,8.11,0,0,1,.2,4.1l-3.1,25.5c-.2,2-.5,4.1-1.7,5.6a8.51,8.51,0,0,1-4.6,2.8,57.19,57.19,0,0,1-14.2,2.5c-10.5.7-21.2.7-31.5-1.8a12.42,12.42,0,0,1-5.8-2.7c-2.3-2.2-2.7-5.6-3-8.7q-3-28.8-7-57.4c-.5-3.7-.9-8.5,2.6-10.9,4.1-2.7,9-3.8,13.6-4.8,1.3-.3,3-.5,3.9.5s.4,2.7-.6,3.6a7.33,7.33,0,0,1-3.7,1.4,54.37,54.37,0,0,0-8.1,2.5,3.15,3.15,0,0,0-1.7,1.3c-.4,1.2.9,2.2,2.1,2.7,5,2.1,10.4,2.8,15.8,3.3,14.2,1.3,28.7,1.2,42.3-3,1.4-.4,3-1.3,2.7-2.7-.2-.8-1-1.3-1.8-1.7-5.7-2.6-12.2-2.7-18.3-3.9a6.19,6.19,0,0,1-3.4-1.5,2.39,2.39,0,0,1-.2-3.4A.66.66,0,0,0,199.7,89.19Z"/><path class="cls-2" d="M137.5,134.59c1.8,1,1.7,2.5,1.4,4.3-1.2,9.4-2.5,18.8-3.3,28.2-.3,3.6-2,5.4-5,6.6a38.84,38.84,0,0,1-11.1,2.5c-12,1-23.9,1.4-35.7-1.4-5.2-1.3-8-3.6-8.6-9.7-2.2-20.8-5-41.5-7.7-62.3-.6-4.8,1.6-7.5,5.7-9.2,8.1-3.4,16.7-4.2,25.3-4.6,1.1,2.2-.2,3.5-1.8,4.7-5.5,2-11.5,1.3-16.9,3.3-2.1.8-5.5.7-5.6,3.3s3.3,2.6,5.4,3.3a41.64,41.64,0,0,0,12.2,2.1c2.1.3,4.2,1,6.4.7h14.6c2.4.4,4.8-.5,7.1-.8a35.71,35.71,0,0,0,10.7-1.7c2.4-.8,6.3-.7,6.3-3.7,0-2.6-3.8-2.4-6-3.4-1.8-.8-4-.5-5.6-1.9-.7-2.1-.3-3.7,2.1-4.3l.5.1c14.3,2.6,16,4.4,14.6,18.5-.7,7.2-1.2,14.5-2.9,21.6-4,1.6-4.2-1.4-4.3-3.8-.2-4.5.8-8.9,1.2-13.3.4-3.3,0-4.8-3.8-3.6-5.7,1.9-11.7,1.7-17.5,2.7a119.11,119.11,0,0,1-36.2-2.4c-4.8-1.1-4.8-1.1-4.3,3.7,1.7,15.5,3.7,31,5.5,46.6.9,7.7,1.8,8.6,9.3,9.8,9.6,1.5,19.2,1.2,28.8.3.3-.1.7-.1,1-.2,10.1-1.1,10.9-1.9,11.8-12,.6-6.4,1.6-12.8,2.3-19.2C133.6,137.19,133.6,134,137.5,134.59Z"/><path class="cls-2" d="M120.7,106.69c-2.5.1-4.8,1.5-7.3.9,5.2-7.7,7.7-16.5,10.8-25,2.4-6.6-1.6-11.3-8.5-10.4.1,2.1,1.9,3.8,1.6,6.1-.5,3.5-3,5.9-7.2,6.3-1.5.1-3.3-.4-4,1.3-3.1,7.2-7.4,13.8-8.7,21.7-2.2.5-4.1-.5-6.2-.9-.3-5.4,2.4-9.6,5.3-13.8a6.16,6.16,0,0,0,1.8-4c2.7-4,4.1-8.7,6-13,1.3-3.1,2.9-6.5,6.1-7.6,4.2-1.4,5.3-4.6,6.5-8,2.2-6.1,4.4-12.1,6.6-18.2,2-.8,3.5-.4,4.4,1.6-.3,5.2-3.2,9.7-4.7,14.5-.6,2-1.8,3.9-1.5,6.2,4-6.7,5.9-14.5,9.3-21.5,1.7-1.5,3.4-2.7,5.9-2l-9.6,25.5c-.5,1.4-1.8,2.8-.3,4.6,4.2,5,3.5,10.3,1.1,15.8-.4,1.2-.8,2.4-1.1,3.7a6.29,6.29,0,0,0-1.7,3.8C125.4,99.09,124.2,103.29,120.7,106.69Z"/><path class="cls-2" d="M173.3,94v-4.1c.1-3.3.1-6.6.1-9.9,0-2.9.6-5.9,2.9-7.6,3.1-2.4,3.3-5.3,3.2-8.7-.2-6.6-.1-13.2-.1-19.8,1.2-1.3,2.6-1.2,4-.5,2.1,2.8,1.2,6,1.4,9.1.2,3.8-.3,7.6.6,11.4.7-6.7.4-13.5.4-20.3a8.93,8.93,0,0,1,5.4-6.9c0,9.3.1,18.6.1,27.9,0,2.5.4,4.2,2.9,5.6,3.7,2.1,5.3,5.8,5.2,10.1-.1,2.8.1,5.7.1,8.5v4.1a17.11,17.11,0,0,1-.1,14.5l-4.2.2c-1.6-1.8-1.2-4-1.3-6.2-.1-6.6.1-13.3-.1-19.9-.2-7-4.9-9.7-11.5-6.8,5.7,6.4,5.5,8.9-1.6,14.1-2.1,1.6-1.9,3.6-2.1,5.7-.4,4.1,1.1,8.3-1.3,12.1l-4.1-.3A13.36,13.36,0,0,1,173.3,94Z"/><path class="cls-3" d="M137.2,41l-5.8,2.8a2.91,2.91,0,0,1-3.9,0l-3.8-1.7c-4.5-.7-5.7-3.5-4.7-7.6.3-1.1.4-2.3.8-3.4,2-6.6,5.6-9.8,9.3-8.5,9.8,3.5,12.3,7.8,9.3,15.6A23.58,23.58,0,0,1,137.2,41Z"/><path class="cls-4" d="M191.3,36.69c-1.4,2.2-2.5,4.6-4.9,6-.6,1.4-1.5,2-2.9,1.1l-4.1.1c-6.4-.3-8.2-2.8-8-11.1.2-6.2,1.9-8.9,6-9,9.1-.3,13.4,2.4,14,9A25.41,25.41,0,0,1,191.3,36.69Z"/><path class="cls-5" d="M177.5,106.79V95.89c0-4-.9-7.8,4.9-9.3,4.2-1.1,4-7.1.2-9.6a31.4,31.4,0,0,0-3.7-1.8c3.7-3.2,7.4-4.3,12-2.3,4.3,1.9,4.8,5.4,4.7,9.4-.1,8.5-.1,16.9-.1,25.4C189.4,107.69,183.4,108.19,177.5,106.79Z"/><path class="cls-5" d="M97.5,107.59a2.24,2.24,0,0,1-1.2-2.9c.1-.1.1-.2.2-.3,2.9-6.5,5.7-13.1,8.5-19.6.6-1.3,1.3-2.4,3-1.7,3.6,1.4,6.2.2,7.8-3.1s-.4-5.6-2.9-7.9c3.4-3,7-2,9.9.2s4.5,5.5,3.2,9.2c-2.7,7.7-5.9,15.2-8.7,22.8-.7,2-2.4,2.5-3.9,3.4Z"/><path class="cls-5" d="M127.5,43.79h3.9c-1.4,7.5-5.1,14.2-7.6,21.3a2.19,2.19,0,0,1-2.6,1.7,1.42,1.42,0,0,1-.6-.2c-1.8-.8-.8-2.1-.4-3.3C122.7,56.69,125.1,50.29,127.5,43.79Z"/><path class="cls-5" d="M110.3,79.49c-1.1-.3-1.8-1-1.5-2.1a1.53,1.53,0,0,1,1.8-1.4.37.37,0,0,1,.3.1,1.66,1.66,0,0,1,1.3,1.8,1.78,1.78,0,0,1-1.9,1.6Z"/><path class="cls-5" d="M183.5,43.79a20,20,0,0,1,2.6-1c.9,0,1,1.6,1.1,2.2.8,4.1,0,8.3.2,12.4.1,2.4,0,4.8,0,7.2,0,1.5,0,3.1-2.2,3-2-.2-1.7-1.7-1.7-3C183.4,57.69,183.5,50.79,183.5,43.79Z"/><path class="cls-5" d="M181.2,81.49c-.2,1.4-.9,2.1-2,2a1.71,1.71,0,0,1-1.6-1.9,1.82,1.82,0,0,1,1.7-1.6C180.6,80,180.9,80.89,181.2,81.49Z"/><path class="cls-6" d="M124.2,31.39c.8-2.1,1.2-5,4.2-4.5,2.8.5,6.1,1.4,6.9,4.9a6.13,6.13,0,0,1-2.8,6.9c-1.4,1-3,1.7-4.6.3s.3-2.3.7-3.4c.4-1.4,1.6-2.8.2-4.1-1.7-1.5-2.6.1-3.5,1.2C124.3,32.79,123.8,32.49,124.2,31.39Z"/><path class="cls-7" d="M124.2,31.39l1.1,1.3a3,3,0,0,1-1.7,2.6A3.33,3.33,0,0,1,124.2,31.39Z"/><path class="cls-8" d="M176.7,38.09a6.59,6.59,0,0,1-1.1-5.3c.4-2-.5-5,3.1-5.1,3.4-.1,6.8-.4,8.3,3.7a5.87,5.87,0,0,1-2.2,7.4,3.12,3.12,0,0,1-3.2.7c-1.2-.6-.1-1.7-.2-2.6a13.4,13.4,0,0,1,.1-2c.1-1.4,0-2.8-1.8-3s-2.1,1.2-2.2,2.6C177.3,35.49,177.1,36.29,176.7,38.09Z"/><path class="cls-9" d="M177.1,118.89a38.8,38.8,0,0,1-11.2-2c-1.5-.5-3-1-2.5-2.9s2.1-1.4,3.3-.9c4.4,1.7,9,1.8,13.6,2.2,1.6.2,3.9-.1,3.7,2.2s-2.5,1.6-4.1,1.6C179.2,119,178.4,119,177.1,118.89Z"/><path class="cls-10" d="M191.9,117.09c-.5,2.3-2.2,1.9-3.6,2-1.2.1-2.4-.4-2.3-1.9.3-2.1,2.1-1.8,3.5-1.9a2,2,0,0,1,2.3,1.6C191.9,116.89,191.9,117,191.9,117.09Z"/><path class="cls-9" d="M91.3,118.89a37.71,37.71,0,0,1-12-2.2c-1.4-.4-2.4-1.3-1.8-2.9s1.8-1.3,2.9-.9c4.6,1.7,9.3,1.8,14.1,2.3,1.6.2,3.8-.1,3.6,2.3-.2,1.9-2.2,1.5-3.7,1.5C93.5,119,92.7,119,91.3,118.89Z"/><path class="cls-10" d="M103.2,115.19c1.3,0,2.6.3,2.7,1.7.1,2.3-1.7,2-3.2,2.2-1.3.2-2.6-.2-2.6-1.6C99.9,115.39,101.8,115.49,103.2,115.19Z"/><g class="cls-11"><path class="cls-12" d="M138.4,38.29c3-7.8.5-12.1-9.4-15.7-3.6-1.3-7.3,2-9.3,8.5-.3,1.1-.5,2.3-.8,3.4-1,4.1.3,6.9,4.7,7.6l.2.1a.1.1,0,0,0-.1.1c-2.2,6.1-4.4,12.1-6.6,18.2-1.2,3.4-2.3,6.6-6.5,8-3.2,1.1-4.8,4.4-6.1,7.5-1.9,4.4-3.4,9-6,13a6.28,6.28,0,0,1-1.9,4c-3,4.1-5.6,8.4-5.3,13.8,2,.4,4,1.4,6.2.9a2.24,2.24,0,0,1-1.2-2.9c.1-.1.1-.2.2-.3,2.9-6.5,5.7-13.1,8.5-19.6.6-1.3,1.3-2.4,3-1.7,3.6,1.4,6.2.2,7.8-3.1s-.4-5.6-2.9-7.9c3.4-3,7-2,9.9.2s4.5,5.5,3.2,9.2c-2.7,7.6-5.9,15.1-8.7,22.8-.7,2-2.4,2.5-3.9,3.4,2.6.6,4.9-.9,7.3-.9,3.5-3.4,4.7-7.6,4.9-12.2a6.63,6.63,0,0,1,1.7-3.8,25.94,25.94,0,0,1,1.1-3.7c2.4-5.5,3.1-10.8-1.1-15.8-1.5-1.8-.2-3.2.3-4.6,3.1-8.5,6.4-17,9.6-25.5H137l.2-.1C137.6,40.09,138.1,39.19,138.4,38.29Zm-26.2,39.6a1.77,1.77,0,0,1-1.8,1.7h-.1c-1.1-.3-1.8-1-1.5-2.1a1.53,1.53,0,0,1,1.8-1.4.37.37,0,0,1,.3.1A1.5,1.5,0,0,1,112.2,77.89Zm11.6-12.8a2.19,2.19,0,0,1-2.6,1.7,1.42,1.42,0,0,1-.6-.2c-1.8-.8-.8-2.1-.4-3.3,2.4-6.5,4.8-12.9,7.3-19.4h3.9C130.1,51.29,126.4,58,123.8,65.09Z"/><path class="cls-13" d="M117.3,104.19c2.8-7.6,6-15.1,8.7-22.8,1.3-3.7-.3-7.1-3.2-9.2s-6.5-3.2-9.9-.2c2.5,2.3,4.5,4.6,2.9,7.9s-4.2,4.6-7.8,3.1c-1.7-.7-2.4.4-3,1.7-2.8,6.6-5.6,13.2-8.5,19.7-.1.1-.1.2-.2.3a2.24,2.24,0,0,0,1.2,2.9h15.9C114.9,106.69,116.6,106.19,117.3,104.19Z"/><path class="cls-14" d="M120.3,63.19c-.4,1.2-1.4,2.5.4,3.3a1.42,1.42,0,0,0,.6.2,2.24,2.24,0,0,0,2.6-1.7c2.5-7.1,6.2-13.8,7.6-21.3h-3.9C125.1,50.29,122.7,56.79,120.3,63.19Z"/><path class="cls-15" d="M110.9,76.09c-.1,0-.2-.1-.3-.1a1.59,1.59,0,0,0-1.8,1.4,1.81,1.81,0,0,0,1.5,2.1h.1a1.71,1.71,0,0,0,1.8-1.7A1.62,1.62,0,0,0,110.9,76.09Z"/></g><g class="cls-11"><path class="cls-12" d="M199.5,93v-4.1c0-2.8-.2-5.7-.1-8.5.1-4.4-1.5-8-5.2-10.1-2.5-1.4-2.9-3.1-2.9-5.6.1-9.3-.1-18.6-.1-27.9-1.3,2.2-2.5,4.6-4.9,5.9,0,.1-.1.1-.1.2.7.2.8,1.6.9,2.2.8,4.1,0,8.3.2,12.4.1,2.4,0,4.8,0,7.2,0,1.5,0,3.1-2.2,3-2-.2-1.7-1.7-1.7-3,0-7,.1-13.9.1-20.8h0l-4.1.1h0c0,6.6-.1,13.2.1,19.8.1,3.4-.1,6.3-3.2,8.7-2.3,1.8-2.8,4.7-2.8,7.6,0,3.3-.1,6.6-.1,9.9v4.1a13.27,13.27,0,0,0,0,12.4l4.1.3v-11c0-4-.9-7.8,4.9-9.3,4.2-1.1,4-7.1.2-9.6a31.4,31.4,0,0,0-3.7-1.8c3.7-3.2,7.4-4.3,12-2.3,4.3,1.9,4.8,5.4,4.7,9.4-.1,8.4-.1,16.9-.1,25.4l4-.2A17.24,17.24,0,0,0,199.5,93Zm-20.1-12.9c1.2-.1,1.6.8,1.9,1.5-.2,1.4-.8,2.1-2,2a1.71,1.71,0,0,1-1.6-1.9A1.73,1.73,0,0,1,179.4,80.09Z"/><path class="cls-12" d="M183.5,43.89a20,20,0,0,1,2.6-1c.1,0,.1,0,.2.1,0-.1.1-.1.1-.2,2.4-1.4,3.5-3.7,4.9-5.9v-.1a25.41,25.41,0,0,0,.1-3.9c-.7-6.7-4.9-9.3-14-9-4.1.1-5.8,2.8-6,9-.2,8.3,1.6,10.8,8,11.1h0l4.1-.1Z"/><path class="cls-12" d="M190.9,72.89c-4.6-2-8.3-.9-12,2.3a25.28,25.28,0,0,1,3.7,1.8c3.8,2.5,4,8.5-.2,9.6-5.8,1.6-4.9,5.3-4.9,9.3v11c5.9,1.5,11.9,1,17.9.8h0c0-8.4,0-16.9.1-25.4C195.6,78.29,195.2,74.79,190.9,72.89Z"/><path class="cls-12" d="M183.5,43.89h0c0,6.9-.1,13.9-.1,20.8,0,1.3-.3,2.8,1.7,3,2.2.1,2.2-1.5,2.2-3,0-2.4.1-4.8,0-7.2-.2-4.2.6-8.3-.2-12.4-.1-.5-.2-1.9-.9-2.2-.1,0-.1-.1-.2-.1C185.2,43.19,184.4,43.49,183.5,43.89Z"/><path class="cls-12" d="M177.7,81.59a1.71,1.71,0,0,0,1.6,1.9c1.2.1,1.8-.6,2-2-.3-.6-.7-1.5-1.9-1.5A1.91,1.91,0,0,0,177.7,81.59Z"/></g><path class="cls-16" d="M199.5,107.39l.1-14.5c7.4.7,14.9,1.3,21.9,4,1.6.6,3.9,1.1,3.8,3.3s-2.3,2.7-3.9,3.3C214.3,106.19,207,107.09,199.5,107.39Z"/><path class="cls-17" d="M173.3,94c0,4.1,0,8.3.1,12.4a43.43,43.43,0,0,1-13.3-3.4c-1.2-.6-2.5-1.2-2.6-2.7s1.4-2.1,2.5-2.7C164.2,95.39,168.8,94.79,173.3,94Z"/><path class="cls-18" d="M120.7,106.69c1.6-4.1,3.2-8.2,4.9-12.3a35.32,35.32,0,0,1,11.4,3.2c3.3,1.7,3.3,3.5,0,5.1A40,40,0,0,1,120.7,106.69Z"/><path class="cls-19" d="M96.7,93c-.9,4.9-3.9,9.1-5.3,13.8a46.07,46.07,0,0,1-16-3.2c-1.6-.6-3.8-1.2-3.7-3.5.1-2,2.2-2.4,3.6-3C82.1,94.29,89.4,93.59,96.7,93Z"/></svg>