<?xml version="1.0" encoding="utf-8"?>
<!-- Generator: Adobe Illustrator 23.0.1, SVG Export Plug-In . SVG Version: 6.00 Build 0)  -->
<svg version="1.1" id="Layer_1" xmlns="http://www.w3.org/2000/svg" xmlns:xlink="http://www.w3.org/1999/xlink" x="0px" y="0px"
	 viewBox="0 0 161.9 154.7" style="enable-background:new 0 0 161.9 154.7;" xml:space="preserve">
<style type="text/css">
	.st0{fill:#ECECEC;}
	.st1{fill:#4C4B4C;}
	.st2{fill:#4D4C4D;}
	.st3{fill:#4D4C4C;}
	.st4{fill:#FFFFFF;}
	.st5{fill:#F8F8F7;}
	.st6{fill:#DAD8D7;}
	.st7{fill:#F7F6F6;}
	.st8{fill:#504F50;}
	.st9{fill:#525252;}
	.st10{opacity:0.5;}
	.st11{fill:#EE2E7D;}
	.st12{fill:#ED2183;}
	.st13{fill:#EC2082;}
	.st14{fill:#ED1B80;}
	.st15{fill:#EBEBEB;}
	.st16{fill:#E9EAEA;}
	.st17{fill:#EAE9EA;}
	.st18{fill:#EAEAEA;}
</style>
<title>Two Brushes &amp;amp; bucket</title>
<path class="st0" d="M47.8,89.3c7.6-1.4,15.5-1.4,23.3-5.2c-0.8,7.3-1.5,13.9-2.3,20.5c-0.3,2.4-0.4,4.5,3.1,3.8c-1,1.1-2.5,2-2,3.8
	c-3.4,0.9-2.6,4-2.9,6.2c-1.1,7.6-2.2,15.1-2.6,22.8c-0.2,5.1-2.7,7-7.1,7.6c-2.1,0.3-4.3,0.5-6.4,0.8c-1-0.9-1.5-2.3-1.2-3.6
	c1.1-14.3,1.1-28.7,2.3-43c0.1-1.3,0.2-2.6,0.3-4C53,94.8,52.2,91.2,47.8,89.3z"/>
<path class="st0" d="M157,112.6c-3.9-0.6-3.4,2.5-3.6,4.5c-1,7.7-2.2,15.5-2.5,23.2c-0.3,6.2-3.5,8.4-8.8,8.9
	c-1.3,0.1-2.6,0.1-4,0.2c-0.9-1.2-1.4-2.7-1.2-4.1c1.2-17.5,1.7-35.1,2.8-52.6c-0.1-1.5,0.5-3,1.5-4.1c5.1-1.2,10.5-1.7,16.2-4.4
	c-0.8,6.3-1.4,11.9-2.1,17.5c-0.2,1.5-0.2,3-0.3,4.5c-0.1,2.5,1.3,2.7,3.2,2.3L157,112.6z"/>
<path class="st1" d="M132.3,66.9c0.7-0.2,1.5-0.3,2.2-0.1c7.7,0.8,15.6,1.6,22.6,4.9c1.6,0.6,2.9,1.7,3.9,3c1.2,1.9,1,4.4,0.7,6.7
	l-2.9,24.4c-0.2,1.3-0.5,2.9-1.8,3.3c-1.1,0.3-2.3-0.3-2.8-1.4c-0.4-1-0.6-2.2-0.5-3.3c0.1-4.4,0.6-8.8,1.4-13.1
	c0.3-1.3,0.3-3.1-0.9-3.7c-0.6-0.2-1.3-0.2-1.9,0c-18.4,4.4-37.6,4.5-56.1,0.1c-1-0.2-2.2-0.4-2.8,0.3c-0.4,0.7-0.6,1.5-0.4,2.2
	l6,49.7c0.1,1.7,0.6,3.4,1.4,4.8c1.8,2.4,4.9,2.7,7.7,3.1c3.4,0.5,6.8,0.8,10.2,1c5.1,0.3,10.3,0.2,15.4-0.3
	c2.3-0.2,4.6-0.5,6.9-0.7c2.1-0.2,4.4-0.5,6.2-1.9c0.3-0.2,0.5-0.5,0.8-0.7c1.2-1.4,1.5-3.4,1.7-5.2l2.9-24.5
	c0.2-1.3,0.5-2.9,1.7-3.4s2.8,0.4,3.3,1.6c0.4,1.3,0.5,2.7,0.2,4.1l-3.1,25.5c-0.2,2-0.5,4.1-1.7,5.6c-1.2,1.4-2.8,2.4-4.6,2.8
	c-4.6,1.4-9.4,2.3-14.2,2.5c-10.5,0.7-21.2,0.7-31.5-1.8c-2.1-0.4-4.2-1.3-5.8-2.7c-2.3-2.2-2.7-5.6-3-8.7c-2-19.2-4.3-38.3-7-57.4
	c-0.5-3.7-0.9-8.5,2.6-10.9c4.1-2.7,9-3.8,13.6-4.8c1.3-0.3,3-0.5,3.9,0.5s0.4,2.7-0.6,3.6c-1.1,0.8-2.4,1.3-3.7,1.4
	c-2.8,0.6-5.5,1.5-8.1,2.5c-0.7,0.2-1.3,0.7-1.7,1.3c-0.4,1.2,0.9,2.2,2.1,2.7c5,2.1,10.4,2.8,15.8,3.3c14.2,1.3,28.7,1.2,42.3-3
	c1.4-0.4,3-1.3,2.7-2.7c-0.2-0.8-1-1.3-1.8-1.7c-5.7-2.6-12.2-2.7-18.3-3.9c-1.3-0.1-2.4-0.7-3.4-1.5c-1-0.9-1.1-2.4-0.2-3.4
	C131.9,67.1,132.1,67,132.3,66.9z"/>
<path class="st1" d="M70.1,112.3c1.8,1,1.7,2.5,1.4,4.3c-1.2,9.4-2.5,18.8-3.3,28.2c-0.3,3.6-2,5.4-5,6.6c-3.6,1.4-7.3,2.2-11.1,2.5
	c-12,1-23.9,1.4-35.7-1.4c-5.2-1.3-8-3.6-8.6-9.7C5.6,122,2.8,101.3,0.1,80.5c-0.6-4.8,1.6-7.5,5.7-9.2c8.1-3.4,16.7-4.2,25.3-4.6
	c1.1,2.2-0.2,3.5-1.8,4.7c-5.5,2-11.5,1.3-16.9,3.3c-2.1,0.8-5.5,0.7-5.6,3.3c-0.1,2.7,3.3,2.6,5.4,3.3c3.9,1.3,8,2,12.2,2.1
	c2.1,0.3,4.2,1,6.4,0.7c4.9,0,9.8,0,14.6,0c2.4,0.4,4.8-0.5,7.1-0.8c3.6,0,7.2-0.6,10.7-1.7c2.4-0.8,6.3-0.7,6.3-3.7
	c0-2.6-3.8-2.4-6-3.4c-1.8-0.8-4-0.5-5.6-1.9c-0.7-2.1-0.3-3.7,2.1-4.3l0.5,0.1c14.3,2.6,16,4.4,14.6,18.5
	c-0.7,7.2-1.2,14.5-2.9,21.6c-4,1.6-4.2-1.4-4.3-3.8c-0.2-4.5,0.8-8.9,1.2-13.3c0.4-3.3,0-4.8-3.8-3.6c-5.7,1.9-11.7,1.7-17.5,2.7
	c-12.1,1.1-24.3,0.2-36.2-2.4C6.8,87,6.8,87,7.3,91.8c1.7,15.5,3.7,31,5.5,46.6c0.9,7.7,1.8,8.6,9.3,9.8c9.6,1.5,19.2,1.2,28.8,0.3
	c0.3-0.1,0.7-0.1,1-0.2c10.1-1.1,10.9-1.9,11.8-12c0.6-6.4,1.6-12.8,2.3-19.2C66.2,114.9,66.2,111.7,70.1,112.3z"/>
<path class="st1" d="M53.3,84.4c-2.5,0.1-4.8,1.5-7.3,0.9c5.2-7.7,7.7-16.5,10.8-25c2.4-6.6-1.6-11.3-8.5-10.4
	c0.1,2.1,1.9,3.8,1.6,6.1c-0.5,3.5-3,5.9-7.2,6.3c-1.5,0.1-3.3-0.4-4,1.3c-3.1,7.2-7.4,13.8-8.7,21.7c-2.2,0.5-4.1-0.5-6.2-0.9
	c-0.3-5.4,2.4-9.6,5.3-13.8c1.1-1.1,1.7-2.5,1.8-4c2.7-4,4.1-8.7,6-13c1.3-3.1,2.9-6.5,6.1-7.6c4.2-1.4,5.3-4.6,6.5-8
	c2.2-6.1,4.4-12.1,6.6-18.2c2-0.8,3.5-0.4,4.4,1.6c-0.3,5.2-3.2,9.7-4.7,14.5c-0.6,2-1.8,3.9-1.5,6.2c4-6.7,5.9-14.5,9.3-21.5
	c1.7-1.5,3.4-2.7,5.9-2c-3.2,8.5-6.4,17-9.6,25.5c-0.5,1.4-1.8,2.8-0.3,4.6c4.2,5,3.5,10.3,1.1,15.8c-0.4,1.2-0.8,2.4-1.1,3.7
	c-1,1.1-1.6,2.4-1.7,3.8C58,76.8,56.8,81,53.3,84.4z"/>
<path class="st1" d="M105.9,71.7v-4.1c0.1-3.3,0.1-6.6,0.1-9.9c0-2.9,0.6-5.9,2.9-7.6c3.1-2.4,3.3-5.3,3.2-8.7
	c-0.2-6.6-0.1-13.2-0.1-19.8c1.2-1.3,2.6-1.2,4-0.5c2.1,2.8,1.2,6,1.4,9.1c0.2,3.8-0.3,7.6,0.6,11.4c0.7-6.7,0.4-13.5,0.4-20.3
	c0.5-3.1,2.5-5.7,5.4-6.9c0,9.3,0.1,18.6,0.1,27.9c0,2.5,0.4,4.2,2.9,5.6c3.7,2.1,5.3,5.8,5.2,10.1c-0.1,2.8,0.1,5.7,0.1,8.5v4.1
	c2.1,4.6,2.1,9.9-0.1,14.5l-4.2,0.2c-1.6-1.8-1.2-4-1.3-6.2c-0.1-6.6,0.1-13.3-0.1-19.9c-0.2-7-4.9-9.7-11.5-6.8
	c5.7,6.4,5.5,8.9-1.6,14.1c-2.1,1.6-1.9,3.6-2.1,5.7c-0.4,4.1,1.1,8.3-1.3,12.1l-4.1-0.3C103.9,80.2,103.8,75.6,105.9,71.7z"/>
<path class="st2" d="M69.8,18.7L64,21.5c-1.1,1-2.8,1-3.9,0l-3.8-1.7c-4.5-0.7-5.7-3.5-4.7-7.6c0.3-1.1,0.4-2.3,0.8-3.4
	C54.4,2.2,58-1,61.7,0.3C71.5,3.8,74,8.1,71,15.9C70.7,16.9,70.2,17.8,69.8,18.7z"/>
<path class="st3" d="M123.9,14.4c-1.4,2.2-2.5,4.6-4.9,6c-0.6,1.4-1.5,2-2.9,1.1l-4.1,0.1c-6.4-0.3-8.2-2.8-8-11.1
	c0.2-6.2,1.9-8.9,6-9c9.1-0.3,13.4,2.4,14,9C124.1,11.8,124,13.1,123.9,14.4z"/>
<path class="st4" d="M110.1,84.5c0-3.7,0-7.3,0-10.9c0-4-0.9-7.8,4.9-9.3c4.2-1.1,4-7.1,0.2-9.6c-1.2-0.7-2.5-1.3-3.7-1.8
	c3.7-3.2,7.4-4.3,12-2.3c4.3,1.9,4.8,5.4,4.7,9.4c-0.1,8.5-0.1,16.9-0.1,25.4C122,85.4,116,85.9,110.1,84.5z"/>
<path class="st4" d="M30.1,85.3c-1.1-0.5-1.7-1.8-1.2-2.9c0.1-0.1,0.1-0.2,0.2-0.3c2.9-6.5,5.7-13.1,8.5-19.6c0.6-1.3,1.3-2.4,3-1.7
	c3.6,1.4,6.2,0.2,7.8-3.1s-0.4-5.6-2.9-7.9c3.4-3,7-2,9.9,0.2s4.5,5.5,3.2,9.2c-2.7,7.7-5.9,15.2-8.7,22.8c-0.7,2-2.4,2.5-3.9,3.4
	L30.1,85.3z"/>
<path class="st4" d="M60.1,21.5H64c-1.4,7.5-5.1,14.2-7.6,21.3c-0.2,1.2-1.4,1.9-2.6,1.7c-0.2,0-0.4-0.1-0.6-0.2
	c-1.8-0.8-0.8-2.1-0.4-3.3C55.3,34.4,57.7,28,60.1,21.5z"/>
<path class="st4" d="M42.9,57.2c-1.1-0.3-1.8-1-1.5-2.1c0.1-0.9,0.9-1.6,1.8-1.4c0.1,0,0.2,0,0.3,0.1c0.8,0.2,1.4,0.9,1.3,1.8
	C44.7,56.5,43.9,57.3,42.9,57.2C42.9,57.2,42.9,57.2,42.9,57.2z"/>
<path class="st4" d="M116.1,21.5c0.8-0.4,1.7-0.7,2.6-1c0.9,0,1,1.6,1.1,2.2c0.8,4.1,0,8.3,0.2,12.4c0.1,2.4,0,4.8,0,7.2
	c0,1.5,0,3.1-2.2,3c-2-0.2-1.7-1.7-1.7-3C116,35.4,116.1,28.5,116.1,21.5z"/>
<path class="st4" d="M113.8,59.2c-0.2,1.4-0.9,2.1-2,2c-1-0.1-1.7-0.9-1.6-1.9c0.1-0.9,0.8-1.5,1.7-1.6
	C113.2,57.7,113.5,58.6,113.8,59.2z"/>
<path class="st5" d="M56.8,9.1C57.6,7,58,4.1,61,4.6c2.8,0.5,6.1,1.4,6.9,4.9c0.7,2.7-0.4,5.5-2.8,6.9c-1.4,1-3,1.7-4.6,0.3
	s0.3-2.3,0.7-3.4c0.4-1.4,1.6-2.8,0.2-4.1c-1.7-1.5-2.6,0.1-3.5,1.2C56.9,10.5,56.4,10.2,56.8,9.1z"/>
<path class="st6" d="M56.8,9.1l1.1,1.3c0,1.1-0.7,2.1-1.7,2.6C55.5,11.7,55.8,10.1,56.8,9.1z"/>
<path class="st7" d="M109.3,15.8c-1.1-1.5-1.5-3.4-1.1-5.3c0.4-2-0.5-5,3.1-5.1c3.4-0.1,6.8-0.4,8.3,3.7c1.2,2.7,0.3,5.8-2.2,7.4
	c-0.8,0.8-2.1,1.1-3.2,0.7c-1.2-0.6-0.1-1.7-0.2-2.6c0-0.7,0-1.3,0.1-2c0.1-1.4,0-2.8-1.8-3s-2.1,1.2-2.2,2.6
	C109.9,13.2,109.7,14,109.3,15.8z"/>
<path class="st8" d="M109.7,96.6c-3.8-0.1-7.6-0.8-11.2-2c-1.5-0.5-3-1-2.5-2.9s2.1-1.4,3.3-0.9c4.4,1.7,9,1.8,13.6,2.2
	c1.6,0.2,3.9-0.1,3.7,2.2s-2.5,1.6-4.1,1.6C111.8,96.7,111,96.7,109.7,96.6z"/>
<path class="st9" d="M124.5,94.8c-0.5,2.3-2.2,1.9-3.6,2c-1.2,0.1-2.4-0.4-2.3-1.9c0.3-2.1,2.1-1.8,3.5-1.9c1.1-0.2,2.1,0.5,2.3,1.6
	C124.5,94.6,124.5,94.7,124.5,94.8z"/>
<path class="st8" d="M23.9,96.6c-3.8,0.1-7.9-0.9-12-2.2c-1.4-0.4-2.4-1.3-1.8-2.9c0.5-1.5,1.8-1.3,2.9-0.9
	c4.6,1.7,9.3,1.8,14.1,2.3c1.6,0.2,3.8-0.1,3.6,2.3c-0.2,1.9-2.2,1.5-3.7,1.5C26.1,96.7,25.3,96.7,23.9,96.6z"/>
<path class="st9" d="M35.8,92.9c1.3,0,2.6,0.3,2.7,1.7c0.1,2.3-1.7,2-3.2,2.2c-1.3,0.2-2.6-0.2-2.6-1.6
	C32.5,93.1,34.4,93.2,35.8,92.9z"/>
<g class="st10">
	<path class="st11" d="M71,16c3-7.8,0.5-12.1-9.4-15.7c-3.6-1.3-7.3,2-9.3,8.5c-0.3,1.1-0.5,2.3-0.8,3.4c-1,4.1,0.3,6.9,4.7,7.6
		l0.2,0.1c0,0-0.1,0-0.1,0.1c-2.2,6.1-4.4,12.1-6.6,18.2c-1.2,3.4-2.3,6.6-6.5,8c-3.2,1.1-4.8,4.4-6.1,7.5c-1.9,4.4-3.4,9-6,13
		c-0.1,1.5-0.8,2.9-1.9,4c-3,4.1-5.6,8.4-5.3,13.8c2,0.4,4,1.4,6.2,0.9c-1.1-0.5-1.7-1.8-1.2-2.9c0.1-0.1,0.1-0.2,0.2-0.3
		c2.9-6.5,5.7-13.1,8.5-19.6c0.6-1.3,1.3-2.4,3-1.7c3.6,1.4,6.2,0.2,7.8-3.1c1.6-3.3-0.4-5.6-2.9-7.9c3.4-3,7-2,9.9,0.2
		c2.9,2.2,4.5,5.5,3.2,9.2c-2.7,7.6-5.9,15.1-8.7,22.8c-0.7,2-2.4,2.5-3.9,3.4c2.6,0.6,4.9-0.9,7.3-0.9c3.5-3.4,4.7-7.6,4.9-12.2
		c0.2-1.4,0.7-2.8,1.7-3.8c0.3-1.2,0.6-2.5,1.1-3.7c2.4-5.5,3.1-10.8-1.1-15.8c-1.5-1.8-0.2-3.2,0.3-4.6c3.1-8.5,6.4-17,9.6-25.5
		c-0.1,0-0.1,0-0.2,0l0.2-0.1C70.2,17.8,70.7,16.9,71,16z M44.8,55.6c0,1-0.9,1.7-1.8,1.7c0,0,0,0-0.1,0c-1.1-0.3-1.8-1-1.5-2.1
		c0.1-0.9,0.9-1.6,1.8-1.4c0.1,0,0.2,0,0.3,0.1C44.3,54,44.9,54.7,44.8,55.6z M56.4,42.8c-0.2,1.2-1.4,1.9-2.6,1.7
		c-0.2,0-0.4-0.1-0.6-0.2c-1.8-0.8-0.8-2.1-0.4-3.3c2.4-6.5,4.8-12.9,7.3-19.4h3.9C62.7,29,59,35.7,56.4,42.8z"/>
	<path class="st12" d="M49.9,81.9c2.8-7.6,6-15.1,8.7-22.8c1.3-3.7-0.3-7.1-3.2-9.2c-2.9-2.2-6.5-3.2-9.9-0.2
		c2.5,2.3,4.5,4.6,2.9,7.9c-1.6,3.3-4.2,4.6-7.8,3.1c-1.7-0.7-2.4,0.4-3,1.7C34.8,69,32,75.6,29.1,82.1c-0.1,0.1-0.1,0.2-0.2,0.3
		c-0.5,1.1,0.1,2.4,1.2,2.9H46c0,0,0,0,0,0C47.5,84.4,49.2,83.9,49.9,81.9z"/>
	<path class="st13" d="M52.9,40.9c-0.4,1.2-1.4,2.5,0.4,3.3c0.2,0.1,0.4,0.2,0.6,0.2c1.2,0.2,2.3-0.5,2.6-1.7
		c2.5-7.1,6.2-13.8,7.6-21.3h-3.9C57.7,28,55.3,34.5,52.9,40.9z"/>
	<path class="st14" d="M43.5,53.8c-0.1,0-0.2-0.1-0.3-0.1c-0.9-0.1-1.7,0.5-1.8,1.4c-0.2,1.1,0.5,1.8,1.5,2.1c0,0,0,0,0.1,0
		c1,0,1.8-0.7,1.8-1.7C44.9,54.7,44.3,54,43.5,53.8z"/>
</g>
<g class="st10">
	<path class="st11" d="M132.1,70.7v-4.1c0-2.8-0.2-5.7-0.1-8.5c0.1-4.4-1.5-8-5.2-10.1c-2.5-1.4-2.9-3.1-2.9-5.6
		c0.1-9.3-0.1-18.6-0.1-27.9c-1.3,2.2-2.5,4.6-4.9,5.9c0,0.1-0.1,0.1-0.1,0.2c0.7,0.2,0.8,1.6,0.9,2.2c0.8,4.1,0,8.3,0.2,12.4
		c0.1,2.4,0,4.8,0,7.2c0,1.5,0,3.1-2.2,3c-2-0.2-1.7-1.7-1.7-3c0-7,0.1-13.9,0.1-20.8c0,0,0,0,0,0c0,0,0,0,0,0l-4.1,0.1c0,0,0,0,0,0
		c0,6.6-0.1,13.2,0.1,19.8c0.1,3.4-0.1,6.3-3.2,8.7c-2.3,1.8-2.8,4.7-2.8,7.6c0,3.3-0.1,6.6-0.1,9.9v4.1c-2.1,3.9-2,8.6,0,12.4
		l4.1,0.3c0,0,0,0,0-0.1c0-3.6,0-7.2,0-10.9c0-4-0.9-7.8,4.9-9.3c4.2-1.1,4-7.1,0.2-9.6c-1.2-0.7-2.5-1.3-3.7-1.8
		c3.7-3.2,7.4-4.3,12-2.3c4.3,1.9,4.8,5.4,4.7,9.4c-0.1,8.4-0.1,16.9-0.1,25.4l4-0.2C134.2,80.6,134.2,75.3,132.1,70.7z M112,57.8
		c1.2-0.1,1.6,0.8,1.9,1.5c-0.2,1.4-0.8,2.1-2,2c-1-0.1-1.7-0.9-1.6-1.9C110.4,58.5,111.1,57.8,112,57.8z"/>
	<path class="st11" d="M116.1,21.6c0.8-0.4,1.7-0.7,2.6-1c0.1,0,0.1,0,0.2,0.1c0-0.1,0.1-0.1,0.1-0.2c2.4-1.4,3.5-3.7,4.9-5.9
		c0,0,0,0,0-0.1c0.1-1.3,0.2-2.6,0.1-3.9c-0.7-6.7-4.9-9.3-14-9c-4.1,0.1-5.8,2.8-6,9c-0.2,8.3,1.6,10.8,8,11.1l0,0L116.1,21.6
		C116.1,21.6,116.1,21.6,116.1,21.6z"/>
	<path class="st11" d="M123.5,50.6c-4.6-2-8.3-0.9-12,2.3c1.3,0.5,2.5,1.1,3.7,1.8c3.8,2.5,4,8.5-0.2,9.6c-5.8,1.6-4.9,5.3-4.9,9.3
		c0,3.6,0,7.2,0,10.9c0,0,0,0,0,0.1c5.9,1.5,11.9,1,17.9,0.8c0,0,0,0,0,0c0-8.4,0-16.9,0.1-25.4C128.2,56,127.8,52.5,123.5,50.6z"/>
	<path class="st11" d="M116.1,21.6C116.1,21.6,116.1,21.6,116.1,21.6c0,6.9-0.1,13.9-0.1,20.8c0,1.3-0.3,2.8,1.7,3
		c2.2,0.1,2.2-1.5,2.2-3c0-2.4,0.1-4.8,0-7.2c-0.2-4.2,0.6-8.3-0.2-12.4c-0.1-0.5-0.2-1.9-0.9-2.2c-0.1,0-0.1-0.1-0.2-0.1
		C117.8,20.9,117,21.2,116.1,21.6z"/>
	<path class="st11" d="M110.3,59.3c-0.1,1,0.6,1.8,1.6,1.9c1.2,0.1,1.8-0.6,2-2c-0.3-0.6-0.7-1.5-1.9-1.5
		C111.1,57.8,110.4,58.5,110.3,59.3z"/>
</g>
<path class="st15" d="M132.1,85.1l0.1-14.5c7.4,0.7,14.9,1.3,21.9,4c1.6,0.6,3.9,1.1,3.8,3.3c-0.1,2.3-2.3,2.7-3.9,3.3
	C146.9,83.9,139.6,84.8,132.1,85.1z"/>
<path class="st16" d="M105.9,71.7c0,4.1,0,8.3,0.1,12.4c-4.6-0.4-9.1-1.6-13.3-3.4c-1.2-0.6-2.5-1.2-2.6-2.7s1.4-2.1,2.5-2.7
	C96.8,73.1,101.4,72.5,105.9,71.7z"/>
<path class="st17" d="M53.3,84.4c1.6-4.1,3.2-8.2,4.9-12.3c3.9,0.4,7.8,1.5,11.4,3.2c3.3,1.7,3.3,3.5,0,5.1
	C64.5,82.9,59,84.2,53.3,84.4z"/>
<path class="st18" d="M29.3,70.7c-0.9,4.9-3.9,9.1-5.3,13.8c-5.5-0.1-10.9-1.2-16-3.2c-1.6-0.6-3.8-1.2-3.7-3.5c0.1-2,2.2-2.4,3.6-3
	C14.7,72,22,71.3,29.3,70.7z"/>
</svg>
