<?xml version="1.0" encoding="UTF-8" standalone="no"?>
<svg
   xmlns:dc="http://purl.org/dc/elements/1.1/"
   xmlns:cc="http://creativecommons.org/ns#"
   xmlns:rdf="http://www.w3.org/1999/02/22-rdf-syntax-ns#"
   xmlns:svg="http://www.w3.org/2000/svg"
   xmlns="http://www.w3.org/2000/svg"
   xmlns:sodipodi="http://sodipodi.sourceforge.net/DTD/sodipodi-0.dtd"
   xmlns:inkscape="http://www.inkscape.org/namespaces/inkscape"
   inkscape:version="1.0 (4035a4fb49, 2020-05-01)"
   sodipodi:docname="Burglar-01_DESIRED.svg"
   version="1.1"
   viewBox="0 0 144.56 133.41"
   data-name="Layer 1"
   id="Layer_1">
  <metadata
     id="metadata31">
    <rdf:RDF>
      <cc:Work
         rdf:about="">
        <dc:format>image/svg+xml</dc:format>
        <dc:type
           rdf:resource="http://purl.org/dc/dcmitype/StillImage" />
        <dc:title>Burglar</dc:title>
      </cc:Work>
    </rdf:RDF>
  </metadata>
  <sodipodi:namedview
     inkscape:current-layer="Layer_1"
     inkscape:window-maximized="1"
     inkscape:window-y="-8"
     inkscape:window-x="2552"
     inkscape:cy="66.670734"
     inkscape:cx="72.30662"
     inkscape:zoom="6.6711639"
     showgrid="false"
     id="namedview29"
     inkscape:window-height="1057"
     inkscape:window-width="1920"
     inkscape:pageshadow="2"
     inkscape:pageopacity="0"
     guidetolerance="10"
     gridtolerance="10"
     objecttolerance="10"
     borderopacity="1"
     bordercolor="#666666"
     pagecolor="#ffffff" />
  <defs
     id="defs4">
    <style
       id="style2">.cls-1{fill:#4c4b4c;}.cls-2{fill:#fff;}.cls-3{fill:#fefdfd;}.cls-4{fill:#fefefe;}.cls-5{fill:#504f4f;}.cls-6{fill:#535252;}.cls-7{fill:#4f4e4e;}.cls-8{fill:#4e4e4e;}.cls-9{fill:#e9e8e8;}.cls-10{fill:#ebe9e9;}</style>
  </defs>
  <title
     id="title6">Burglar</title>
  <path
     id="path8"
     d="M77.86,128.4c-19.27-.08-35.78-14.67-38.93-34.32C37.63,86,35.86,77.9,35,69.74c-.45-4.15-2.4-5.35-5.91-6.34-5.27-1.48-12.56-2.11-12.58-9.12s7.27-7.94,12.58-9,7.85-3.62,9.5-8.59c2.75-8.26,6.46-16.18,12.11-23,6.52-7.81,12.34-9,20.94-3.51,4.69,3,8.22,3.76,13.1,0,6.64-5.09,12.08-4,17.88,2.59,6.3,7.14,10.43,15.64,13.86,24.4,1.69,4.33,4.07,6.74,8.74,7.75,5.63,1.22,13.17,2.3,13.2,9.38,0,6.69-7.3,7.75-12.7,9-4,.94-5.07,2.9-5.21,6.82-.27,7.51-1,15-2,22.49A40.83,40.83,0,0,1,77.86,128.4Z"
     class="cls-1" />
  <path
     id="path10"
     d="M132.18,54.2c-17.21,11.07-93.31,11-109.45-.06,2.09-2.16,4.93-2.67,7.62-3.34,1.35-.34,3.52-1.27,3.18,1.85-.25,2.25.83,3.79,3.16,3.57s2.7-2.53,3.08-4.26a100,100,0,0,1,8.71-23.71,69.3,69.3,0,0,1,5.33-9.09c5.4-7.53,8.83-8.1,16.41-3.05C74.13,18.71,78,21.37,81.9,24c1.18.79,2.42,1.64,3.84.58s1.78-2.55.82-3.7c-1.63-2-3-3.36.18-5.22,2.91-1.67,5.72-3.94,8.92-1.27a34.4,34.4,0,0,1,6,6.8,44,44,0,0,1,5.17,9.18c4.23,11.09,8.88,21.51,23.08,22.2C130.71,52.6,131.4,53.61,132.18,54.2Z"
     class="cls-2" />
  <path
     id="path12"
     d="M46.1,66.64c20.67,1.86,42.45,2.26,64.21-.38,3.54-.43,5.19.19,4.61,4.31-.85,6-1.43,12.12-1.7,18.21-.37,8.59-3.26,9.78-12.73,9.39A34.06,34.06,0,0,1,84,92.61c-3.66-2.31-6.72-2.1-10.39-.3a56.17,56.17,0,0,1-20.84,5.8c-4.88.33-7.91-1.06-8.45-6.68A160.57,160.57,0,0,0,41,70.63C40,66.32,41.37,65.62,46.1,66.64Z"
     class="cls-3" />
  <path
     id="path14"
     d="M49.34,104.36a71.5,71.5,0,0,0,25.75-6.31c2.25-1,4.29-1.34,6.64,0a48.71,48.71,0,0,0,25.61,6.36c-3.3,9.9-14.85,17.54-27.35,18.28A31,31,0,0,1,49.34,104.36Z"
     class="cls-4" />
  <path
     id="path16"
     d="M89.2,56.49q-1.58.09-3.15.09c-2.16,0-4.77.28-4.87-2.54-.11-3.34,3.85-3.22,6.21-3.22A58.39,58.39,0,0,0,101.8,49c2.35-.59,6.58-2,7.72,1.15.88,2.44-.79,3.51-2.75,4a81.36,81.36,0,0,1-12.2,2C92.78,56.24,91,56.4,89.2,56.49Z"
     class="cls-5" />
  <path
     id="path18"
     d="M68.84,56.39c-2.22-.37-5.75,1.08-6.09-2.66-.18-1.93.69-3.08,2.62-3.18a41.18,41.18,0,0,1,7.11,0,2.72,2.72,0,0,1,2.46,2.94C75,57.07,71.38,56.21,68.84,56.39Z"
     class="cls-6" />
  <path
     id="path20"
     d="M112.06,75.76c0,6.49-4.93,12.41-11.7,13.93-6.06,1.36-13.07-2.26-15.65-8-1.56-3.46-1.13-5.85,3-6.79,6.14-1.42,12.26-2.91,18.39-4.36C110.44,69.55,112.18,71.57,112.06,75.76Z"
     class="cls-7" />
  <path
     id="path22"
     d="M59.84,90.31c-6.41-.19-10.9-2.84-13.59-8-1.75-3.38-3-7.34-.55-10.72,2.6-3.56,6-.61,8.93.11,4.55,1.12,9,2.63,13.54,3.74,5.33,1.28,5.58,4.22,3,8.21A14.67,14.67,0,0,1,59.84,90.31Z"
     class="cls-8" />
  <path
     id="path24"
     d="M90.81,80.51c5.29-1.57,9.53-3.32,14.37-3C102.14,85.17,98.32,86.09,90.81,80.51Z"
     class="cls-9" />
  <path
     id="path26"
     d="M50.46,76.43l15.09,4.33C58.76,86.56,54.72,85.63,50.46,76.43Z"
     class="cls-10" />
  <path
     style="fill:#ff7fff;fill-opacity:0.333333"
     sodipodi:nodetypes="ccccscccccccccccc"
     class="cls-2"
     d="M 138.17596,56.748281 C 136.10574,70.516461 35.722124,71.195955 19.582124,60.135955 15.975966,58.425652 15.66809,49.821112 18.35809,49.151112 c 1.35,-0.34 1.721213,-1.120101 4.229292,-2.497067 2.897876,-0.44818 3.827977,-1.156663 6.157977,-1.376663 2.33,-0.22 4.198989,-1.330809 7.277169,-3.510506 2.788883,-3.742751 3.317176,-9.011444 7.211011,-16.514854 1.543395,-3.16088 3.774908,-6.949156 5.779697,-9.839494 5.4,-7.53 12.727371,-12.5969664 23.155449,-4.848787 3.91,2.6 3.732731,1.36263 6.733337,2.343742 3.989899,-1.368686 2.569899,-0.308686 3.989899,-1.368686 5.946663,-3.9733365 -0.635856,0.0533 5.946663,-3.9733365 2.91,-1.67 9.167675,-0.7921236 12.067876,3.2269665 2.29132,1.991957 5.65794,7.126566 7.34909,9.648079 2.08479,2.841886 6.21895,12.219728 7.56838,15.475753 5.1294,10.190606 9.4796,8.918494 14.68567,10.208089 0.8,0.03 10.18413,2.089292 7.66636,10.623933 z"
     id="path856" />
</svg>
