<?xml version="1.0" encoding="utf-8"?>
<!-- Generator: Adobe Illustrator 23.0.1, SVG Export Plug-In . SVG Version: 6.00 Build 0)  -->
<svg version="1.1" id="Layer_1" xmlns="http://www.w3.org/2000/svg" xmlns:xlink="http://www.w3.org/1999/xlink" x="0px" y="0px"
	 viewBox="0 0 167.9 160.2" style="enable-background:new 0 0 167.9 160.2;" xml:space="preserve">
<style type="text/css">
	.st0{fill:#DCDBDA;}
	.st1{fill:#4B4B4B;}
	.st2{fill:#DBDADA;}
	.st3{fill:#FFFFFF;}
	.st4{fill:#EBECEC;}
	.st5{fill:#EBEBEC;}
	.st6{fill:#ECECEC;}
	.st7{opacity:0.5;}
	.st8{fill:#ED2183;}
</style>
<title>Tripple Story-01</title>
<path class="st0" d="M18.4,59.1c0-14.2-0.1-28.3,0-42.5c0-2.5-0.2-4.4-2.9-5.6c-2.4-1-3.7-3.7-2.9-6.3c0.6-2.5,2.7-4.4,5.3-4.6
	C19,0,20.2,0,21.4,0h127.9c1.5-0.1,3,0,4.4,0.3c2.4,0.5,4.1,2.5,4.4,4.9c0.4,2.3-0.5,4.7-2.6,5.5c-3.5,1.4-3.3,4-3.3,6.9
	c0,13.8,0,27.7,0,41.5c-2.1,0.6-3.7,0.1-4.8-1.9c-1.4-6.5-0.5-13.2-0.6-19.8s-0.2-12.9,0-19.3c0-4.3-2.9-4.6-6.1-4.6H99.9
	c-23.1,0-46.2,0-69.3,0c-3.3,0-6.7-0.2-6.7,4.5c0.2,11.4,0,22.8,0.1,34.2c0.1,1.7-0.1,3.3-0.6,4.9C22.4,59,20.3,59.9,18.4,59.1z"/>
<path class="st1" d="M148.3,57.9c1.4,0.2,2.9,0.1,4,1.3v53.8c-1,2.1-2.9,2.4-4.8,2.5c-29.2,0.3-58.4,0.3-87.6,0
	c-1.6,0-3.2,0.1-4.8,0c-10.7,0.1-21.4,0.2-32,0c-2-0.1-3.8-0.4-4.7-2.5V59.1c1.1-1.1,2.6-1.1,4-1.3c2-1.6,4.4-1.4,6.7-1.4
	c37.5,0,75.1,0,112.6,0C144,56.4,146.3,56.2,148.3,57.9z"/>
<path class="st2" d="M18.4,112.9c1.1,1.1,2.6,1.1,4,1.3c1.8,1.9,1.4,4.4,1.5,6.6c0.1,8.8,0,17.6,0,26.4c-0.1,1.5,0,3,0.3,4.5
	c0.2,1.3,0.8,2.2,2.3,2.2s2-1,2.2-2.3c0.5-3,0.2-6,0.3-9c0-0.7,0-1.3,0-2c0-11.2,4.9-14.8,15.9-11.8c3.4,0.9,4.8,3.3,5,6.6
	c0.3,4.2,0.1,8.3,0.1,12.5c-0.1,1.5,0.1,3,0.5,4.4c0.1,0.7,0.7,1.2,1.4,1.3c1,0.1,1.5-0.6,1.7-1.4c0.3-1.5,0.5-3,0.4-4.5
	c0-9,0-18,0-26.9c0-2.3-0.3-4.7,1.5-6.6h4.1c1.9,2.1,1.5,4.7,1.5,7.1c0.1,9.2,0.1,18.3,0,27.5c-0.1,4,1.3,5.7,5.5,5.7
	c25-0.1,50-0.1,74.9,0c4.2,0,5.5-1.7,5.5-5.7c-0.1-9.2-0.1-18.3,0-27.5c0-2.4-0.4-5,1.5-7.1c1.4-0.2,2.9-0.1,4-1.3
	c0,12.5,0.3,25-0.1,37.5c-0.1,4.8,1.5,6.2,6,5.7c2.5-0.2,5-0.2,7.5,0c1.2,0.1,2.4,0.6,2.3,2.1c-0.1,1.1-1.1,1.6-2.1,1.7
	c-1.3,0.1-2.7,0.1-4,0.1c-52,0-104,0-155.9-0.1c-2.1,0-5.8,1.2-5.9-1.8c0-3.6,3.9-2.1,6-2.1c12.3-0.2,12.3-0.1,12.3-12.2
	C18.3,133.6,18.4,123.3,18.4,112.9z"/>
<path class="st3" d="M148.3,57.9L35.3,58c-4.3,0-8.7-0.1-13-0.2c0-13.3,0-26.6,0-39.8c6.1-2.3,12.2-2.7,18.2,0.3
	c-1.1,8.1-0.6,16.3-0.6,24.4c0,3.9,1.6,5.7,5.6,5.9c13.3,0.7,13.4,0.6,13.4-12.6c0-5.8,0.3-11.6-0.8-17.4c4.1-2.8,12.1-2.9,16.5-0.1
	c-1.3,7.9-0.8,15.9-0.7,23.9c0,5.2,1,6,6.2,6.3c12.9,0.5,12.9,0.5,12.9-12.1c0-6,0.3-12-0.8-17.9c4.1-2.8,12.1-2.9,16.5-0.1
	c-1.3,7.9-0.8,15.8-0.7,23.8c0,5.3,1,6.1,6,6.3c13,0.6,13,0.6,13-12.4c0-6,0.2-11.9-0.7-17.8c0.7-1.1,2-1.8,3.4-1.7
	c6.3,0.2,12.7-1.7,18.8,1.4L148.3,57.9z"/>
<path class="st4" d="M40.3,18.7l-9.5-0.1c-1.2,0-7.6,0.7-8.3-0.5c-1-1.8-0.5-4,1.1-5.2c1.4-0.7,3-1.1,4.5-0.9h114.3
	c1.7,0,5.4,1,6.1,2.7c1.8,3.9-5,3.3-7.1,3.4c-10.5,0.5-21.1,0.6-31.6,0.7c-15,0.1-30,0.2-45,0.1c-7.6,0-15.2-0.1-22.8-0.2L40.3,18.7
	z"/>
<path class="st5" d="M85.3,8H23.9c-1,0-2,0-3,0c-1.6-0.1-3.9,0.4-4-1.9c0-2.7,2.5-1.9,4.2-2.1c0.5,0,1,0,1.5,0h125.5
	c0.7,0,1.3,0,2,0c1.6,0.1,3.9-0.2,3.7,2.1s-2.4,1.9-4,1.9C128.3,8,106.8,8,85.3,8z"/>
<path class="st3" d="M84.9,110c-19.5,0-39-0.1-58.4,0.1c-3.3,0-4.2-0.9-4.1-4.1c0.2-13.3,0.2-26.7,0-40c0-3.3,1-4.1,4.2-4.1
	c39.3,0.1,78.6,0.1,117.9,0c3.3,0,4.1,0.9,4.1,4.1c-0.2,13.3-0.2,26.7,0,40c0.1,3.4-1,4.1-4.2,4.1C124.4,109.9,104.6,110,84.9,110z"
	/>
<path class="st3" d="M148.3,114.2c0,12.3-0.1,24.6,0.1,37c0.1,3.5-0.6,5-4.6,5c-26.6-0.2-53.3-0.2-79.9,0c-4,0-4.7-1.5-4.6-5
	c0.2-12.3,0.1-24.6,0.1-37H148.3z"/>
<path class="st3" d="M55.3,114.2c0,12.5,0,25,0,37.4c0,2.5,0,4.5-3.6,4.5s-3.5-2-3.5-4.5c0.1-5.2-0.1-10.3,0.1-15.5
	c0.1-4.1-1.4-6.1-5.8-6.1c-12.7,0.1-12.4-1.1-12.3,12.1c0,3.3-0.2,6.7,0,10c0.2,3.1-1,4.1-4,4s-4.1-0.9-4.1-4
	c0.2-12.6,0.1-25.3,0.1-37.9L55.3,114.2z"/>
<path class="st0" d="M39.6,19.5c5.9-1.6,12.1-1.6,18,0c1.8,0.9,2,2.4,2,4.2c0,7.2,0,14.3,0,21.5c0,3.4-1.4,5.3-5,5.3c-4,0-8,0-12,0
	c-2.9,0-4.9-1.3-5-4.3c-0.1-7.8,0-15.7,0-23.5C37.6,21.4,38.4,20.1,39.6,19.5z"/>
<path class="st0" d="M72.3,19c5.9-1.6,12.1-1.6,18,0c1.8,0.9,2,2.4,2,4.2c0,7.2-0.1,14.3,0,21.5c0,3.4-1.4,5.3-5,5.3c-4,0-8,0-12,0
	c-2.9,0-4.9-1.3-5-4.3c-0.1-7.8,0-15.7,0-23.5C70.3,20.8,71.1,19.5,72.3,19z"/>
<path class="st0" d="M108.2,19.2c5.9-1.6,12.1-1.6,18,0c1.8,0.9,2,2.4,2,4.2c0,7.2-0.1,14.3,0,21.5c0,3.4-1.4,5.3-5,5.3
	c-4,0-8,0-12,0c-2.9,0-4.9-1.3-5-4.3c-0.1-7.8,0-15.7,0-23.5C106.2,21,106.9,19.7,108.2,19.2z"/>
<path class="st1" d="M72.4,85.4c0-3.5,0.1-7,0-10.5c-0.1-3.7,1.6-5.6,5.4-5.5s7.6,0,11.5,0c3.5,0,5.2,1.6,5.2,5.1
	c0,7.1-0.1,14.3,0,21.4c0,3.7-1.6,5.5-5.4,5.5s-7.6-0.1-11.5,0c-3.5,0-5.2-1.6-5.2-5.1C72.4,92.9,72.4,89.1,72.4,85.4z"/>
<path class="st1" d="M128.2,85.9c0,3.5-0.1,7,0,10.5c0.1,3.7-1.5,5.6-5.3,5.5s-7.6-0.1-11.5,0c-3.5,0.1-5.3-1.5-5.3-5.1
	c0-7.3,0-14.6,0-21.9c0-3.2,1.5-5,4.8-5c4.2,0,8.3,0,12.5,0c3.3,0,4.8,1.8,4.8,5.1C128.2,78.6,128.2,82.3,128.2,85.9z"/>
<path class="st1" d="M39.8,79.2c2,0.7,2.2,2.3,2.1,4c0,2.3,0,4.7,0,7c0.1,9.1-1.3,7.5,8,8c4.7,0.3,6.6-1,6.1-6
	c-0.3-4.8-0.4-9.7-0.1-14.5c0.1-2.9-1-4-3.8-3.7c-4.2,0.4-8.7-1.3-12.4,2.1c-2.5-3-1.8-5.7,1.9-5.9c4.6-0.3,9.3-0.2,14-0.1
	c2.1-0.1,4,1.5,4.1,3.6c0,0.2,0,0.4,0,0.5c0.1,7.8,0.1,15.6,0,23.5c0,2.8-1.6,4.3-4.4,4.3c-4.3,0.1-8.7,0-13,0
	c-2.3,0-4.3-1.1-4.4-3.3c-0.3-6-0.1-12,0-18C38.1,80.3,39.2,79.8,39.8,79.2z"/>
<path class="st0" d="M94.7,136.2c0,3.6,0,7.3,0,11c0,3.5-1.7,5.2-5.2,5.1c-4,0-8,0-12,0c-3.3,0-4.9-1.7-4.9-4.9c0-7.5,0-14.9,0-22.4
	c0-3,1.7-4.6,4.7-4.6c4.1,0,8.3,0,12.4,0c3.3,0,4.9,1.7,4.9,4.9C94.6,128.9,94.7,132.5,94.7,136.2z"/>
<path class="st0" d="M127.8,136.8c0,3.5,0,7,0,10.4c0,3.3-1.7,4.9-4.9,4.9c-4.1,0-8.3,0-12.4,0c-3,0-4.6-1.7-4.6-4.7
	c0-7.5,0-15,0-22.4c0-3.3,1.7-4.9,4.9-4.9c4.1,0,8.3,0,12.4,0c3,0,4.6,1.7,4.6,4.7C127.8,128.9,127.8,132.8,127.8,136.8z"/>
<rect x="76.6" y="123.9" class="st6" width="14" height="24.8"/>
<rect x="109.7" y="123.8" class="st6" width="14" height="24.8"/>
<rect x="74.3" y="21.5" class="st6" width="14" height="24.8"/>
<rect x="41.7" y="22.1" class="st6" width="14" height="24.8"/>
<rect x="110.2" y="21.7" class="st6" width="14" height="24.8"/>
<rect x="33.9" y="132.5" class="st6" width="10.3" height="22.2"/>
<rect x="110.3" y="73.6" class="st3" width="13.9" height="24.7"/>
<rect x="76.4" y="73.1" class="st3" width="13.9" height="24.7"/>
<rect x="40.6" y="73.7" class="st3" width="16.7" height="24.7"/>
<g class="st7">
	<path class="st8" d="M89.2,69.4c-3.8,0-7.7,0.1-11.5,0c-3.8-0.1-5.5,1.7-5.4,5.5c0.1,3.5,0,7,0,10.5c0,3.7,0,7.5,0,11
		c0,3.5,1.7,5.1,5.2,5.1c3.8-0.1,7.7-0.1,11.5,0c3.8,0.1,5.4-1.7,5.4-5.5c-0.1-7.1,0-14.3,0-21.4C94.4,71,92.7,69.4,89.2,69.4z
		 M90.3,97.8H76.4V73.1h13.9V97.8z"/>
	<path class="st8" d="M128.2,85.9c0-3.7,0-7.3,0-11c0-3.2-1.4-5-4.8-5c-4.1,0-8.3,0-12.5,0c-3.3,0-4.8,1.8-4.8,5
		c0,7.3,0,14.6,0,21.9c0,3.6,1.8,5.1,5.3,5.1c3.8-0.1,7.7-0.1,11.5,0c3.8,0.1,5.4-1.8,5.3-5.5C128.1,92.9,128.2,89.4,128.2,85.9z
		 M124.1,98.2h-13.9V73.5h13.9V98.2z"/>
	<path class="st8" d="M59.9,73.7c-0.1-2.1-2-3.7-4.1-3.6c-4.7-0.1-9.4-0.3-14,0.1c-3.7,0.3-4.4,3-1.9,6c0.2-0.2,0.5-0.4,0.8-0.6
		v-1.8h16.7v24.7H40.6V79.6c-0.2-0.2-0.5-0.3-0.8-0.4c-0.6,0.6-1.7,1.1-1.7,1.6c-0.1,6-0.3,12,0,18c0.1,2.2,2.1,3.3,4.4,3.3
		c4.3,0,8.7,0.1,13,0c2.8,0,4.4-1.6,4.4-4.3c0.1-7.8,0.1-15.6,0-23.5C59.9,74,59.9,73.9,59.9,73.7z"/>
	<rect x="110.2" y="73.5" class="st8" width="13.9" height="24.7"/>
	<rect x="76.4" y="73.1" class="st8" width="13.9" height="24.7"/>
	<polygon class="st8" points="57.2,98.4 57.2,73.7 40.6,73.7 40.6,75.5 40.6,79.6 40.6,98.4 	"/>
</g>
</svg>
